%TF.GenerationSoftware,KiCad,Pcbnew,(6.0.9)*%
%TF.CreationDate,2022-12-16T13:04:41-05:00*%
%TF.ProjectId,Perris_Breakout,50657272-6973-45f4-9272-65616b6f7574,rev?*%
%TF.SameCoordinates,Original*%
%TF.FileFunction,Legend,Top*%
%TF.FilePolarity,Positive*%
%FSLAX46Y46*%
G04 Gerber Fmt 4.6, Leading zero omitted, Abs format (unit mm)*
G04 Created by KiCad (PCBNEW (6.0.9)) date 2022-12-16 13:04:41*
%MOMM*%
%LPD*%
G01*
G04 APERTURE LIST*
%ADD10C,0.150000*%
%ADD11C,0.120000*%
G04 APERTURE END LIST*
D10*
%TO.C,J7*%
X118419180Y-53089133D02*
X119133466Y-53089133D01*
X119276323Y-53136752D01*
X119371561Y-53231990D01*
X119419180Y-53374847D01*
X119419180Y-53470085D01*
X118419180Y-52708180D02*
X118419180Y-52041514D01*
X119419180Y-52470085D01*
%TO.C,J5*%
X138503066Y-69574980D02*
X138503066Y-70289266D01*
X138455447Y-70432123D01*
X138360209Y-70527361D01*
X138217352Y-70574980D01*
X138122114Y-70574980D01*
X139455447Y-69574980D02*
X138979257Y-69574980D01*
X138931638Y-70051171D01*
X138979257Y-70003552D01*
X139074495Y-69955933D01*
X139312590Y-69955933D01*
X139407828Y-70003552D01*
X139455447Y-70051171D01*
X139503066Y-70146409D01*
X139503066Y-70384504D01*
X139455447Y-70479742D01*
X139407828Y-70527361D01*
X139312590Y-70574980D01*
X139074495Y-70574980D01*
X138979257Y-70527361D01*
X138931638Y-70479742D01*
%TO.C,TP3*%
X118549895Y-77310180D02*
X119121323Y-77310180D01*
X118835609Y-78310180D02*
X118835609Y-77310180D01*
X119454657Y-78310180D02*
X119454657Y-77310180D01*
X119835609Y-77310180D01*
X119930847Y-77357800D01*
X119978466Y-77405419D01*
X120026085Y-77500657D01*
X120026085Y-77643514D01*
X119978466Y-77738752D01*
X119930847Y-77786371D01*
X119835609Y-77833990D01*
X119454657Y-77833990D01*
X120359419Y-77310180D02*
X120978466Y-77310180D01*
X120645133Y-77691133D01*
X120787990Y-77691133D01*
X120883228Y-77738752D01*
X120930847Y-77786371D01*
X120978466Y-77881609D01*
X120978466Y-78119704D01*
X120930847Y-78214942D01*
X120883228Y-78262561D01*
X120787990Y-78310180D01*
X120502276Y-78310180D01*
X120407038Y-78262561D01*
X120359419Y-78214942D01*
%TO.C,TP2*%
X118549895Y-68763080D02*
X119121323Y-68763080D01*
X118835609Y-69763080D02*
X118835609Y-68763080D01*
X119454657Y-69763080D02*
X119454657Y-68763080D01*
X119835609Y-68763080D01*
X119930847Y-68810700D01*
X119978466Y-68858319D01*
X120026085Y-68953557D01*
X120026085Y-69096414D01*
X119978466Y-69191652D01*
X119930847Y-69239271D01*
X119835609Y-69286890D01*
X119454657Y-69286890D01*
X120407038Y-68858319D02*
X120454657Y-68810700D01*
X120549895Y-68763080D01*
X120787990Y-68763080D01*
X120883228Y-68810700D01*
X120930847Y-68858319D01*
X120978466Y-68953557D01*
X120978466Y-69048795D01*
X120930847Y-69191652D01*
X120359419Y-69763080D01*
X120978466Y-69763080D01*
%TO.C,J8*%
X135523380Y-53089133D02*
X136237666Y-53089133D01*
X136380523Y-53136752D01*
X136475761Y-53231990D01*
X136523380Y-53374847D01*
X136523380Y-53470085D01*
X135951952Y-52470085D02*
X135904333Y-52565323D01*
X135856714Y-52612942D01*
X135761476Y-52660561D01*
X135713857Y-52660561D01*
X135618619Y-52612942D01*
X135571000Y-52565323D01*
X135523380Y-52470085D01*
X135523380Y-52279609D01*
X135571000Y-52184371D01*
X135618619Y-52136752D01*
X135713857Y-52089133D01*
X135761476Y-52089133D01*
X135856714Y-52136752D01*
X135904333Y-52184371D01*
X135951952Y-52279609D01*
X135951952Y-52470085D01*
X135999571Y-52565323D01*
X136047190Y-52612942D01*
X136142428Y-52660561D01*
X136332904Y-52660561D01*
X136428142Y-52612942D01*
X136475761Y-52565323D01*
X136523380Y-52470085D01*
X136523380Y-52279609D01*
X136475761Y-52184371D01*
X136428142Y-52136752D01*
X136332904Y-52089133D01*
X136142428Y-52089133D01*
X136047190Y-52136752D01*
X135999571Y-52184371D01*
X135951952Y-52279609D01*
%TO.C,J10*%
X127760276Y-60226380D02*
X127760276Y-60940666D01*
X127712657Y-61083523D01*
X127617419Y-61178761D01*
X127474561Y-61226380D01*
X127379323Y-61226380D01*
X128760276Y-61226380D02*
X128188847Y-61226380D01*
X128474561Y-61226380D02*
X128474561Y-60226380D01*
X128379323Y-60369238D01*
X128284085Y-60464476D01*
X128188847Y-60512095D01*
X129379323Y-60226380D02*
X129474561Y-60226380D01*
X129569800Y-60274000D01*
X129617419Y-60321619D01*
X129665038Y-60416857D01*
X129712657Y-60607333D01*
X129712657Y-60845428D01*
X129665038Y-61035904D01*
X129617419Y-61131142D01*
X129569800Y-61178761D01*
X129474561Y-61226380D01*
X129379323Y-61226380D01*
X129284085Y-61178761D01*
X129236466Y-61131142D01*
X129188847Y-61035904D01*
X129141228Y-60845428D01*
X129141228Y-60607333D01*
X129188847Y-60416857D01*
X129236466Y-60321619D01*
X129284085Y-60274000D01*
X129379323Y-60226380D01*
%TO.C,J14*%
X127760276Y-77330580D02*
X127760276Y-78044866D01*
X127712657Y-78187723D01*
X127617419Y-78282961D01*
X127474561Y-78330580D01*
X127379323Y-78330580D01*
X128760276Y-78330580D02*
X128188847Y-78330580D01*
X128474561Y-78330580D02*
X128474561Y-77330580D01*
X128379323Y-77473438D01*
X128284085Y-77568676D01*
X128188847Y-77616295D01*
X129617419Y-77663914D02*
X129617419Y-78330580D01*
X129379323Y-77282961D02*
X129141228Y-77997247D01*
X129760276Y-77997247D01*
%TO.C,J13*%
X110656076Y-77330580D02*
X110656076Y-78044866D01*
X110608457Y-78187723D01*
X110513219Y-78282961D01*
X110370361Y-78330580D01*
X110275123Y-78330580D01*
X111656076Y-78330580D02*
X111084647Y-78330580D01*
X111370361Y-78330580D02*
X111370361Y-77330580D01*
X111275123Y-77473438D01*
X111179885Y-77568676D01*
X111084647Y-77616295D01*
X111989409Y-77330580D02*
X112608457Y-77330580D01*
X112275123Y-77711533D01*
X112417980Y-77711533D01*
X112513219Y-77759152D01*
X112560838Y-77806771D01*
X112608457Y-77902009D01*
X112608457Y-78140104D01*
X112560838Y-78235342D01*
X112513219Y-78282961D01*
X112417980Y-78330580D01*
X112132266Y-78330580D01*
X112037028Y-78282961D01*
X111989409Y-78235342D01*
%TO.C,J3*%
X103512980Y-90452533D02*
X104227266Y-90452533D01*
X104370123Y-90500152D01*
X104465361Y-90595390D01*
X104512980Y-90738247D01*
X104512980Y-90833485D01*
X103512980Y-90071580D02*
X103512980Y-89452533D01*
X103893933Y-89785866D01*
X103893933Y-89643009D01*
X103941552Y-89547771D01*
X103989171Y-89500152D01*
X104084409Y-89452533D01*
X104322504Y-89452533D01*
X104417742Y-89500152D01*
X104465361Y-89547771D01*
X104512980Y-89643009D01*
X104512980Y-89928723D01*
X104465361Y-90023961D01*
X104417742Y-90071580D01*
%TO.C,J11*%
X110656076Y-68783480D02*
X110656076Y-69497766D01*
X110608457Y-69640623D01*
X110513219Y-69735861D01*
X110370361Y-69783480D01*
X110275123Y-69783480D01*
X111656076Y-69783480D02*
X111084647Y-69783480D01*
X111370361Y-69783480D02*
X111370361Y-68783480D01*
X111275123Y-68926338D01*
X111179885Y-69021576D01*
X111084647Y-69069195D01*
X112608457Y-69783480D02*
X112037028Y-69783480D01*
X112322742Y-69783480D02*
X112322742Y-68783480D01*
X112227504Y-68926338D01*
X112132266Y-69021576D01*
X112037028Y-69069195D01*
%TO.C,H2*%
X91592495Y-95687780D02*
X91592495Y-94687780D01*
X91592495Y-95163971D02*
X92163923Y-95163971D01*
X92163923Y-95687780D02*
X92163923Y-94687780D01*
X92592495Y-94783019D02*
X92640114Y-94735400D01*
X92735352Y-94687780D01*
X92973447Y-94687780D01*
X93068685Y-94735400D01*
X93116304Y-94783019D01*
X93163923Y-94878257D01*
X93163923Y-94973495D01*
X93116304Y-95116352D01*
X92544876Y-95687780D01*
X93163923Y-95687780D01*
%TO.C,H3*%
X91338495Y-39731580D02*
X91338495Y-38731580D01*
X91338495Y-39207771D02*
X91909923Y-39207771D01*
X91909923Y-39731580D02*
X91909923Y-38731580D01*
X92290876Y-38731580D02*
X92909923Y-38731580D01*
X92576590Y-39112533D01*
X92719447Y-39112533D01*
X92814685Y-39160152D01*
X92862304Y-39207771D01*
X92909923Y-39303009D01*
X92909923Y-39541104D01*
X92862304Y-39636342D01*
X92814685Y-39683961D01*
X92719447Y-39731580D01*
X92433733Y-39731580D01*
X92338495Y-39683961D01*
X92290876Y-39636342D01*
%TO.C,TP1*%
X118549895Y-60205980D02*
X119121323Y-60205980D01*
X118835609Y-61205980D02*
X118835609Y-60205980D01*
X119454657Y-61205980D02*
X119454657Y-60205980D01*
X119835609Y-60205980D01*
X119930847Y-60253600D01*
X119978466Y-60301219D01*
X120026085Y-60396457D01*
X120026085Y-60539314D01*
X119978466Y-60634552D01*
X119930847Y-60682171D01*
X119835609Y-60729790D01*
X119454657Y-60729790D01*
X120978466Y-61205980D02*
X120407038Y-61205980D01*
X120692752Y-61205980D02*
X120692752Y-60205980D01*
X120597514Y-60348838D01*
X120502276Y-60444076D01*
X120407038Y-60491695D01*
%TO.C,J6*%
X138503066Y-86679180D02*
X138503066Y-87393466D01*
X138455447Y-87536323D01*
X138360209Y-87631561D01*
X138217352Y-87679180D01*
X138122114Y-87679180D01*
X139407828Y-86679180D02*
X139217352Y-86679180D01*
X139122114Y-86726800D01*
X139074495Y-86774419D01*
X138979257Y-86917276D01*
X138931638Y-87107752D01*
X138931638Y-87488704D01*
X138979257Y-87583942D01*
X139026876Y-87631561D01*
X139122114Y-87679180D01*
X139312590Y-87679180D01*
X139407828Y-87631561D01*
X139455447Y-87583942D01*
X139503066Y-87488704D01*
X139503066Y-87250609D01*
X139455447Y-87155371D01*
X139407828Y-87107752D01*
X139312590Y-87060133D01*
X139122114Y-87060133D01*
X139026876Y-87107752D01*
X138979257Y-87155371D01*
X138931638Y-87250609D01*
%TO.C,H1*%
X148056695Y-39731580D02*
X148056695Y-38731580D01*
X148056695Y-39207771D02*
X148628123Y-39207771D01*
X148628123Y-39731580D02*
X148628123Y-38731580D01*
X149628123Y-39731580D02*
X149056695Y-39731580D01*
X149342409Y-39731580D02*
X149342409Y-38731580D01*
X149247171Y-38874438D01*
X149151933Y-38969676D01*
X149056695Y-39017295D01*
%TO.C,J12*%
X127760276Y-68783480D02*
X127760276Y-69497766D01*
X127712657Y-69640623D01*
X127617419Y-69735861D01*
X127474561Y-69783480D01*
X127379323Y-69783480D01*
X128760276Y-69783480D02*
X128188847Y-69783480D01*
X128474561Y-69783480D02*
X128474561Y-68783480D01*
X128379323Y-68926338D01*
X128284085Y-69021576D01*
X128188847Y-69069195D01*
X129141228Y-68878719D02*
X129188847Y-68831100D01*
X129284085Y-68783480D01*
X129522180Y-68783480D01*
X129617419Y-68831100D01*
X129665038Y-68878719D01*
X129712657Y-68973957D01*
X129712657Y-69069195D01*
X129665038Y-69212052D01*
X129093609Y-69783480D01*
X129712657Y-69783480D01*
%TO.C,J9*%
X111132266Y-60226380D02*
X111132266Y-60940666D01*
X111084647Y-61083523D01*
X110989409Y-61178761D01*
X110846552Y-61226380D01*
X110751314Y-61226380D01*
X111656076Y-61226380D02*
X111846552Y-61226380D01*
X111941790Y-61178761D01*
X111989409Y-61131142D01*
X112084647Y-60988285D01*
X112132266Y-60797809D01*
X112132266Y-60416857D01*
X112084647Y-60321619D01*
X112037028Y-60274000D01*
X111941790Y-60226380D01*
X111751314Y-60226380D01*
X111656076Y-60274000D01*
X111608457Y-60321619D01*
X111560838Y-60416857D01*
X111560838Y-60654952D01*
X111608457Y-60750190D01*
X111656076Y-60797809D01*
X111751314Y-60845428D01*
X111941790Y-60845428D01*
X112037028Y-60797809D01*
X112084647Y-60750190D01*
X112132266Y-60654952D01*
%TO.C,J1*%
X101266666Y-55151380D02*
X101266666Y-55865666D01*
X101219047Y-56008523D01*
X101123809Y-56103761D01*
X100980952Y-56151380D01*
X100885714Y-56151380D01*
X102266666Y-56151380D02*
X101695238Y-56151380D01*
X101980952Y-56151380D02*
X101980952Y-55151380D01*
X101885714Y-55294238D01*
X101790476Y-55389476D01*
X101695238Y-55437095D01*
%TO.C,H4*%
X148056695Y-95687780D02*
X148056695Y-94687780D01*
X148056695Y-95163971D02*
X148628123Y-95163971D01*
X148628123Y-95687780D02*
X148628123Y-94687780D01*
X149532885Y-95021114D02*
X149532885Y-95687780D01*
X149294790Y-94640161D02*
X149056695Y-95354447D01*
X149675742Y-95354447D01*
%TO.C,J2*%
X101266666Y-72255580D02*
X101266666Y-72969866D01*
X101219047Y-73112723D01*
X101123809Y-73207961D01*
X100980952Y-73255580D01*
X100885714Y-73255580D01*
X101695238Y-72350819D02*
X101742857Y-72303200D01*
X101838095Y-72255580D01*
X102076190Y-72255580D01*
X102171428Y-72303200D01*
X102219047Y-72350819D01*
X102266666Y-72446057D01*
X102266666Y-72541295D01*
X102219047Y-72684152D01*
X101647619Y-73255580D01*
X102266666Y-73255580D01*
%TO.C,J4*%
X120617180Y-90452533D02*
X121331466Y-90452533D01*
X121474323Y-90500152D01*
X121569561Y-90595390D01*
X121617180Y-90738247D01*
X121617180Y-90833485D01*
X120950514Y-89547771D02*
X121617180Y-89547771D01*
X120569561Y-89785866D02*
X121283847Y-90023961D01*
X121283847Y-89404914D01*
D11*
%TO.C,J7*%
X115366800Y-50155800D02*
X105146800Y-50155800D01*
X117966800Y-50155800D02*
X117966800Y-51485800D01*
X105146800Y-50155800D02*
X105146800Y-55355800D01*
X117966800Y-52755800D02*
X117966800Y-55355800D01*
X115366800Y-52755800D02*
X117966800Y-52755800D01*
X115366800Y-50155800D02*
X115366800Y-52755800D01*
X117966800Y-55355800D02*
X105146800Y-55355800D01*
X116636800Y-50155800D02*
X117966800Y-50155800D01*
%TO.C,J5*%
X138836400Y-69122600D02*
X136236400Y-69122600D01*
X141436400Y-66522600D02*
X138836400Y-66522600D01*
X138836400Y-66522600D02*
X138836400Y-69122600D01*
X136236400Y-69122600D02*
X136236400Y-56302600D01*
X141436400Y-69122600D02*
X140106400Y-69122600D01*
X141436400Y-56302600D02*
X136236400Y-56302600D01*
X141436400Y-66522600D02*
X141436400Y-56302600D01*
X141436400Y-67792600D02*
X141436400Y-69122600D01*
%TO.C,TP3*%
X118481800Y-78857800D02*
X119811800Y-78857800D01*
X118481800Y-81457800D02*
X121141800Y-81457800D01*
X118481800Y-81457800D02*
X118481800Y-81517800D01*
X121141800Y-81457800D02*
X121141800Y-81517800D01*
X118481800Y-80187800D02*
X118481800Y-78857800D01*
X118481800Y-81517800D02*
X121141800Y-81517800D01*
%TO.C,TP2*%
X121141800Y-72910700D02*
X121141800Y-72970700D01*
X118481800Y-71640700D02*
X118481800Y-70310700D01*
X118481800Y-72910700D02*
X121141800Y-72910700D01*
X118481800Y-70310700D02*
X119811800Y-70310700D01*
X118481800Y-72910700D02*
X118481800Y-72970700D01*
X118481800Y-72970700D02*
X121141800Y-72970700D01*
%TO.C,J8*%
X122251000Y-50155800D02*
X122251000Y-55355800D01*
X132471000Y-50155800D02*
X122251000Y-50155800D01*
X132471000Y-50155800D02*
X132471000Y-52755800D01*
X135071000Y-50155800D02*
X135071000Y-51485800D01*
X132471000Y-52755800D02*
X135071000Y-52755800D01*
X133741000Y-50155800D02*
X135071000Y-50155800D01*
X135071000Y-55355800D02*
X122251000Y-55355800D01*
X135071000Y-52755800D02*
X135071000Y-55355800D01*
%TO.C,J10*%
X127239800Y-61774000D02*
X128569800Y-61774000D01*
X127239800Y-64434000D02*
X129899800Y-64434000D01*
X127239800Y-64374000D02*
X127239800Y-64434000D01*
X127239800Y-63104000D02*
X127239800Y-61774000D01*
X129899800Y-64374000D02*
X129899800Y-64434000D01*
X127239800Y-64374000D02*
X129899800Y-64374000D01*
%TO.C,J14*%
X127239800Y-81538200D02*
X129899800Y-81538200D01*
X129899800Y-81478200D02*
X129899800Y-81538200D01*
X127239800Y-81478200D02*
X129899800Y-81478200D01*
X127239800Y-81478200D02*
X127239800Y-81538200D01*
X127239800Y-78878200D02*
X128569800Y-78878200D01*
X127239800Y-80208200D02*
X127239800Y-78878200D01*
%TO.C,J13*%
X112795600Y-81478200D02*
X112795600Y-81538200D01*
X110135600Y-81478200D02*
X110135600Y-81538200D01*
X110135600Y-81538200D02*
X112795600Y-81538200D01*
X110135600Y-80208200D02*
X110135600Y-78878200D01*
X110135600Y-78878200D02*
X111465600Y-78878200D01*
X110135600Y-81478200D02*
X112795600Y-81478200D01*
%TO.C,J3*%
X106390600Y-92719200D02*
X105060600Y-92719200D01*
X105060600Y-87519200D02*
X117880600Y-87519200D01*
X117880600Y-92719200D02*
X117880600Y-87519200D01*
X107660600Y-92719200D02*
X107660600Y-90119200D01*
X107660600Y-90119200D02*
X105060600Y-90119200D01*
X107660600Y-92719200D02*
X117880600Y-92719200D01*
X105060600Y-90119200D02*
X105060600Y-87519200D01*
X105060600Y-92719200D02*
X105060600Y-91389200D01*
%TO.C,J11*%
X110135600Y-72991100D02*
X112795600Y-72991100D01*
X110135600Y-72931100D02*
X110135600Y-72991100D01*
X110135600Y-71661100D02*
X110135600Y-70331100D01*
X110135600Y-72931100D02*
X112795600Y-72931100D01*
X112795600Y-72931100D02*
X112795600Y-72991100D01*
X110135600Y-70331100D02*
X111465600Y-70331100D01*
%TO.C,TP1*%
X118481800Y-64353600D02*
X121141800Y-64353600D01*
X118481800Y-61753600D02*
X119811800Y-61753600D01*
X118481800Y-64413600D02*
X121141800Y-64413600D01*
X121141800Y-64353600D02*
X121141800Y-64413600D01*
X118481800Y-64353600D02*
X118481800Y-64413600D01*
X118481800Y-63083600D02*
X118481800Y-61753600D01*
%TO.C,J6*%
X141436400Y-83626800D02*
X141436400Y-73406800D01*
X141436400Y-84896800D02*
X141436400Y-86226800D01*
X141436400Y-83626800D02*
X138836400Y-83626800D01*
X141436400Y-73406800D02*
X136236400Y-73406800D01*
X138836400Y-86226800D02*
X136236400Y-86226800D01*
X136236400Y-86226800D02*
X136236400Y-73406800D01*
X141436400Y-86226800D02*
X140106400Y-86226800D01*
X138836400Y-83626800D02*
X138836400Y-86226800D01*
%TO.C,J12*%
X127239800Y-72931100D02*
X129899800Y-72931100D01*
X127239800Y-70331100D02*
X128569800Y-70331100D01*
X127239800Y-71661100D02*
X127239800Y-70331100D01*
X127239800Y-72991100D02*
X129899800Y-72991100D01*
X129899800Y-72931100D02*
X129899800Y-72991100D01*
X127239800Y-72931100D02*
X127239800Y-72991100D01*
%TO.C,J9*%
X112795600Y-64374000D02*
X112795600Y-64434000D01*
X110135600Y-64374000D02*
X112795600Y-64374000D01*
X110135600Y-64374000D02*
X110135600Y-64434000D01*
X110135600Y-63104000D02*
X110135600Y-61774000D01*
X110135600Y-64434000D02*
X112795600Y-64434000D01*
X110135600Y-61774000D02*
X111465600Y-61774000D01*
%TO.C,J1*%
X99000000Y-59299000D02*
X99000000Y-69519000D01*
X104200000Y-56699000D02*
X104200000Y-69519000D01*
X99000000Y-56699000D02*
X100330000Y-56699000D01*
X101600000Y-56699000D02*
X104200000Y-56699000D01*
X99000000Y-58029000D02*
X99000000Y-56699000D01*
X101600000Y-59299000D02*
X101600000Y-56699000D01*
X99000000Y-59299000D02*
X101600000Y-59299000D01*
X99000000Y-69519000D02*
X104200000Y-69519000D01*
%TO.C,J2*%
X99000000Y-86623200D02*
X104200000Y-86623200D01*
X101600000Y-76403200D02*
X101600000Y-73803200D01*
X101600000Y-73803200D02*
X104200000Y-73803200D01*
X99000000Y-73803200D02*
X100330000Y-73803200D01*
X99000000Y-76403200D02*
X101600000Y-76403200D01*
X99000000Y-75133200D02*
X99000000Y-73803200D01*
X99000000Y-76403200D02*
X99000000Y-86623200D01*
X104200000Y-73803200D02*
X104200000Y-86623200D01*
%TO.C,J4*%
X122164800Y-87519200D02*
X134984800Y-87519200D01*
X122164800Y-92719200D02*
X122164800Y-91389200D01*
X124764800Y-90119200D02*
X122164800Y-90119200D01*
X124764800Y-92719200D02*
X134984800Y-92719200D01*
X134984800Y-92719200D02*
X134984800Y-87519200D01*
X123494800Y-92719200D02*
X122164800Y-92719200D01*
X122164800Y-90119200D02*
X122164800Y-87519200D01*
X124764800Y-92719200D02*
X124764800Y-90119200D01*
%TD*%
M02*
