%TF.GenerationSoftware,KiCad,Pcbnew,(6.0.9)*%
%TF.CreationDate,2023-01-09T12:19:46-05:00*%
%TF.ProjectId,Perris_Breakout,50657272-6973-45f4-9272-65616b6f7574,3*%
%TF.SameCoordinates,Original*%
%TF.FileFunction,Copper,L1,Top*%
%TF.FilePolarity,Positive*%
%FSLAX46Y46*%
G04 Gerber Fmt 4.6, Leading zero omitted, Abs format (unit mm)*
G04 Created by KiCad (PCBNEW (6.0.9)) date 2023-01-09 12:19:46*
%MOMM*%
%LPD*%
G01*
G04 APERTURE LIST*
G04 Aperture macros list*
%AMRoundRect*
0 Rectangle with rounded corners*
0 $1 Rounding radius*
0 $2 $3 $4 $5 $6 $7 $8 $9 X,Y pos of 4 corners*
0 Add a 4 corners polygon primitive as box body*
4,1,4,$2,$3,$4,$5,$6,$7,$8,$9,$2,$3,0*
0 Add four circle primitives for the rounded corners*
1,1,$1+$1,$2,$3*
1,1,$1+$1,$4,$5*
1,1,$1+$1,$6,$7*
1,1,$1+$1,$8,$9*
0 Add four rect primitives between the rounded corners*
20,1,$1+$1,$2,$3,$4,$5,0*
20,1,$1+$1,$4,$5,$6,$7,0*
20,1,$1+$1,$6,$7,$8,$9,0*
20,1,$1+$1,$8,$9,$2,$3,0*%
G04 Aperture macros list end*
%ADD10C,0.300000*%
%TA.AperFunction,NonConductor*%
%ADD11C,0.300000*%
%TD*%
%TA.AperFunction,NonConductor*%
%ADD12C,0.200000*%
%TD*%
%TA.AperFunction,ComponentPad*%
%ADD13R,1.700000X1.700000*%
%TD*%
%TA.AperFunction,ComponentPad*%
%ADD14C,1.700000*%
%TD*%
%TA.AperFunction,ComponentPad*%
%ADD15O,1.700000X1.700000*%
%TD*%
%TA.AperFunction,ComponentPad*%
%ADD16C,5.700000*%
%TD*%
%TA.AperFunction,SMDPad,CuDef*%
%ADD17RoundRect,0.250000X-0.450000X0.262500X-0.450000X-0.262500X0.450000X-0.262500X0.450000X0.262500X0*%
%TD*%
%TA.AperFunction,ComponentPad*%
%ADD18RoundRect,0.250001X0.499999X0.759999X-0.499999X0.759999X-0.499999X-0.759999X0.499999X-0.759999X0*%
%TD*%
%TA.AperFunction,ComponentPad*%
%ADD19O,1.500000X2.020000*%
%TD*%
%TA.AperFunction,ViaPad*%
%ADD20C,0.762000*%
%TD*%
%TA.AperFunction,Conductor*%
%ADD21C,0.254000*%
%TD*%
G04 APERTURE END LIST*
D10*
D11*
X257778571Y-135975714D02*
X257778571Y-136832857D01*
X257778571Y-136404285D02*
X256278571Y-136404285D01*
X256492857Y-136547142D01*
X256635714Y-136690000D01*
X256707142Y-136832857D01*
X256278571Y-135475714D02*
X256278571Y-134475714D01*
X257778571Y-135118571D01*
X256278571Y-134047142D02*
X256278571Y-133047142D01*
X257778571Y-133690000D01*
X257635714Y-132475714D02*
X257707142Y-132404285D01*
X257778571Y-132475714D01*
X257707142Y-132547142D01*
X257635714Y-132475714D01*
X257778571Y-132475714D01*
X256921428Y-131547142D02*
X256850000Y-131690000D01*
X256778571Y-131761428D01*
X256635714Y-131832857D01*
X256564285Y-131832857D01*
X256421428Y-131761428D01*
X256350000Y-131690000D01*
X256278571Y-131547142D01*
X256278571Y-131261428D01*
X256350000Y-131118571D01*
X256421428Y-131047142D01*
X256564285Y-130975714D01*
X256635714Y-130975714D01*
X256778571Y-131047142D01*
X256850000Y-131118571D01*
X256921428Y-131261428D01*
X256921428Y-131547142D01*
X256992857Y-131690000D01*
X257064285Y-131761428D01*
X257207142Y-131832857D01*
X257492857Y-131832857D01*
X257635714Y-131761428D01*
X257707142Y-131690000D01*
X257778571Y-131547142D01*
X257778571Y-131261428D01*
X257707142Y-131118571D01*
X257635714Y-131047142D01*
X257492857Y-130975714D01*
X257207142Y-130975714D01*
X257064285Y-131047142D01*
X256992857Y-131118571D01*
X256921428Y-131261428D01*
X256278571Y-130047142D02*
X256278571Y-129904285D01*
X256350000Y-129761428D01*
X256421428Y-129690000D01*
X256564285Y-129618571D01*
X256850000Y-129547142D01*
X257207142Y-129547142D01*
X257492857Y-129618571D01*
X257635714Y-129690000D01*
X257707142Y-129761428D01*
X257778571Y-129904285D01*
X257778571Y-130047142D01*
X257707142Y-130190000D01*
X257635714Y-130261428D01*
X257492857Y-130332857D01*
X257207142Y-130404285D01*
X256850000Y-130404285D01*
X256564285Y-130332857D01*
X256421428Y-130261428D01*
X256350000Y-130190000D01*
X256278571Y-130047142D01*
X256278571Y-128618571D02*
X256278571Y-128475714D01*
X256350000Y-128332857D01*
X256421428Y-128261428D01*
X256564285Y-128190000D01*
X256850000Y-128118571D01*
X257207142Y-128118571D01*
X257492857Y-128190000D01*
X257635714Y-128261428D01*
X257707142Y-128332857D01*
X257778571Y-128475714D01*
X257778571Y-128618571D01*
X257707142Y-128761428D01*
X257635714Y-128832857D01*
X257492857Y-128904285D01*
X257207142Y-128975714D01*
X256850000Y-128975714D01*
X256564285Y-128904285D01*
X256421428Y-128832857D01*
X256350000Y-128761428D01*
X256278571Y-128618571D01*
X256278571Y-127190000D02*
X256278571Y-127047142D01*
X256350000Y-126904285D01*
X256421428Y-126832857D01*
X256564285Y-126761428D01*
X256850000Y-126690000D01*
X257207142Y-126690000D01*
X257492857Y-126761428D01*
X257635714Y-126832857D01*
X257707142Y-126904285D01*
X257778571Y-127047142D01*
X257778571Y-127190000D01*
X257707142Y-127332857D01*
X257635714Y-127404285D01*
X257492857Y-127475714D01*
X257207142Y-127547142D01*
X256850000Y-127547142D01*
X256564285Y-127475714D01*
X256421428Y-127404285D01*
X256350000Y-127332857D01*
X256278571Y-127190000D01*
X257778571Y-124904285D02*
X256778571Y-124904285D01*
X256921428Y-124904285D02*
X256850000Y-124832857D01*
X256778571Y-124690000D01*
X256778571Y-124475714D01*
X256850000Y-124332857D01*
X256992857Y-124261428D01*
X257778571Y-124261428D01*
X256992857Y-124261428D02*
X256850000Y-124190000D01*
X256778571Y-124047142D01*
X256778571Y-123832857D01*
X256850000Y-123690000D01*
X256992857Y-123618571D01*
X257778571Y-123618571D01*
X257778571Y-122904285D02*
X256778571Y-122904285D01*
X256921428Y-122904285D02*
X256850000Y-122832857D01*
X256778571Y-122690000D01*
X256778571Y-122475714D01*
X256850000Y-122332857D01*
X256992857Y-122261428D01*
X257778571Y-122261428D01*
X256992857Y-122261428D02*
X256850000Y-122190000D01*
X256778571Y-122047142D01*
X256778571Y-121832857D01*
X256850000Y-121690000D01*
X256992857Y-121618571D01*
X257778571Y-121618571D01*
D12*
X196994300Y-40290000D02*
X259486420Y-40290000D01*
X196994300Y-218090000D02*
X259486420Y-218090000D01*
X258900000Y-40290000D02*
X258900000Y-218090000D01*
X258900000Y-40290000D02*
X258900000Y-218090000D01*
X258900000Y-40290000D02*
X258313579Y-41416504D01*
X258900000Y-40290000D02*
X259486421Y-41416504D01*
X258900000Y-218090000D02*
X259486421Y-216963496D01*
X258900000Y-218090000D02*
X258313579Y-216963496D01*
D10*
D11*
X101052669Y-223281237D02*
X100195527Y-223279747D01*
X100624098Y-223280492D02*
X100626706Y-221780495D01*
X100483476Y-221994532D01*
X100340371Y-222137140D01*
X100197390Y-222208320D01*
X101555276Y-221782109D02*
X102555274Y-221783848D01*
X101909810Y-223282728D01*
X103339870Y-222428070D02*
X103197137Y-222356393D01*
X103125833Y-222284840D01*
X103054653Y-222141859D01*
X103054777Y-222070431D01*
X103126454Y-221927698D01*
X103198006Y-221856394D01*
X103340987Y-221785214D01*
X103626701Y-221785710D01*
X103769434Y-221857387D01*
X103840738Y-221928940D01*
X103911918Y-222071921D01*
X103911794Y-222143349D01*
X103840117Y-222286082D01*
X103768565Y-222357386D01*
X103625584Y-222428566D01*
X103339870Y-222428070D01*
X103196889Y-222499250D01*
X103125336Y-222570554D01*
X103053659Y-222713287D01*
X103053162Y-222999001D01*
X103124343Y-223141982D01*
X103195647Y-223213534D01*
X103338380Y-223285211D01*
X103624093Y-223285708D01*
X103767075Y-223214528D01*
X103838627Y-223143224D01*
X103910304Y-223000491D01*
X103910801Y-222714777D01*
X103839621Y-222571796D01*
X103768316Y-222500243D01*
X103625584Y-222428566D01*
X104552912Y-223144465D02*
X104624216Y-223216018D01*
X104552663Y-223287322D01*
X104481359Y-223215770D01*
X104552912Y-223144465D01*
X104552663Y-223287322D01*
X105126699Y-221788318D02*
X106055269Y-221789933D01*
X105554276Y-222360491D01*
X105768562Y-222360864D01*
X105911294Y-222432540D01*
X105982599Y-222504093D01*
X106053779Y-222647074D01*
X106053158Y-223004216D01*
X105981481Y-223146949D01*
X105909928Y-223218253D01*
X105766947Y-223289434D01*
X105338377Y-223288688D01*
X105195644Y-223217012D01*
X105124340Y-223145459D01*
X106983839Y-221791547D02*
X107126696Y-221791795D01*
X107269429Y-221863472D01*
X107340733Y-221935025D01*
X107411913Y-222078006D01*
X107482845Y-222363844D01*
X107482224Y-222720986D01*
X107410299Y-223006576D01*
X107338622Y-223149309D01*
X107267069Y-223220613D01*
X107124088Y-223291793D01*
X106981231Y-223291545D01*
X106838498Y-223219868D01*
X106767194Y-223148315D01*
X106696014Y-223005334D01*
X106625082Y-222719496D01*
X106625703Y-222362354D01*
X106697628Y-222076764D01*
X106769305Y-221934031D01*
X106840858Y-221862727D01*
X106983839Y-221791547D01*
X108769551Y-221794652D02*
X108483837Y-221794155D01*
X108340856Y-221865335D01*
X108269303Y-221936639D01*
X108126074Y-222150676D01*
X108054148Y-222436266D01*
X108053155Y-223007694D01*
X108124335Y-223150675D01*
X108195639Y-223222227D01*
X108338372Y-223293904D01*
X108624086Y-223294401D01*
X108767067Y-223223221D01*
X108838620Y-223151917D01*
X108910296Y-223009184D01*
X108910917Y-222652042D01*
X108839737Y-222509060D01*
X108768433Y-222437508D01*
X108625700Y-222365831D01*
X108339986Y-222365334D01*
X108197005Y-222436514D01*
X108125453Y-222507819D01*
X108053776Y-222650551D01*
X109840978Y-221796514D02*
X109983835Y-221796763D01*
X110126567Y-221868440D01*
X110197872Y-221939992D01*
X110269052Y-222082973D01*
X110339983Y-222368811D01*
X110339362Y-222725954D01*
X110267437Y-223011543D01*
X110195760Y-223154276D01*
X110124208Y-223225580D01*
X109981227Y-223296760D01*
X109838370Y-223296512D01*
X109695637Y-223224835D01*
X109624333Y-223153283D01*
X109553153Y-223010301D01*
X109482221Y-222724463D01*
X109482842Y-222367321D01*
X109554767Y-222081731D01*
X109626444Y-221938999D01*
X109697996Y-221867694D01*
X109840978Y-221796514D01*
X112124081Y-223300486D02*
X112125819Y-222300487D01*
X112125571Y-222443344D02*
X112197123Y-222372040D01*
X112340105Y-222300860D01*
X112554390Y-222301233D01*
X112697123Y-222372909D01*
X112768303Y-222515891D01*
X112766937Y-223301604D01*
X112768303Y-222515891D02*
X112839980Y-222373158D01*
X112982961Y-222301978D01*
X113197246Y-222302350D01*
X113339979Y-222374027D01*
X113411159Y-222517008D01*
X113409793Y-223302721D01*
X114124078Y-223303963D02*
X114125816Y-222303965D01*
X114125568Y-222446822D02*
X114197120Y-222375517D01*
X114340102Y-222304337D01*
X114554387Y-222304710D01*
X114697120Y-222376387D01*
X114768300Y-222519368D01*
X114766934Y-223305081D01*
X114768300Y-222519368D02*
X114839977Y-222376635D01*
X114982958Y-222305455D01*
X115197243Y-222305827D01*
X115339976Y-222377504D01*
X115411156Y-222520485D01*
X115409790Y-223306198D01*
D12*
X196999131Y-218899999D02*
X196988255Y-225155881D01*
X18693431Y-218589999D02*
X18682555Y-224845881D01*
X196989274Y-224569462D02*
X18683574Y-224259462D01*
X196989274Y-224569462D02*
X18683574Y-224259462D01*
X196989274Y-224569462D02*
X195863791Y-223981084D01*
X196989274Y-224569462D02*
X195861752Y-225153923D01*
X18683574Y-224259462D02*
X19809057Y-224847840D01*
X18683574Y-224259462D02*
X19811096Y-223675001D01*
D13*
%TO.P,J20,1,Pin_1*%
%TO.N,unconnected-(J20-Pad1)*%
X56214272Y-190425000D03*
D14*
%TO.P,J20,2,Pin_2*%
%TO.N,unconnected-(J20-Pad2)*%
X56214272Y-192965000D03*
%TO.P,J20,3,Pin_3*%
%TO.N,unconnected-(J20-Pad3)*%
X56214272Y-195505000D03*
%TO.P,J20,4,Pin_4*%
%TO.N,unconnected-(J20-Pad4)*%
X56214272Y-198045000D03*
D15*
%TO.P,J20,5,Pin_5*%
%TO.N,/SCL_2*%
X56214272Y-200585000D03*
D14*
%TO.P,J20,6,Pin_6*%
%TO.N,/SDA_2*%
X58754272Y-200585000D03*
D15*
%TO.P,J20,7,Pin_7*%
%TO.N,unconnected-(J20-Pad7)*%
X58754272Y-198045000D03*
%TO.P,J20,8,Pin_8*%
%TO.N,unconnected-(J20-Pad8)*%
X58754272Y-195505000D03*
%TO.P,J20,9,Pin_9*%
%TO.N,unconnected-(J20-Pad9)*%
X58754272Y-192965000D03*
%TO.P,J20,10,Pin_10*%
%TO.N,GND*%
X58754272Y-190425000D03*
%TD*%
D16*
%TO.P,H4,1,1*%
%TO.N,GND*%
X190144300Y-211740000D03*
%TD*%
D13*
%TO.P,J9,1,Pin_1*%
%TO.N,unconnected-(J9-Pad1)*%
X156225000Y-55015000D03*
D14*
%TO.P,J9,2,Pin_2*%
%TO.N,unconnected-(J9-Pad2)*%
X156225000Y-57555000D03*
%TO.P,J9,3,Pin_3*%
%TO.N,unconnected-(J9-Pad3)*%
X156225000Y-60095000D03*
%TO.P,J9,4,Pin_4*%
%TO.N,unconnected-(J9-Pad4)*%
X156225000Y-62635000D03*
D15*
%TO.P,J9,5,Pin_5*%
%TO.N,/SCL_1*%
X156225000Y-65175000D03*
D14*
%TO.P,J9,6,Pin_6*%
%TO.N,/SDA_1*%
X158765000Y-65175000D03*
D15*
%TO.P,J9,7,Pin_7*%
%TO.N,unconnected-(J9-Pad7)*%
X158765000Y-62635000D03*
%TO.P,J9,8,Pin_8*%
%TO.N,unconnected-(J9-Pad8)*%
X158765000Y-60095000D03*
%TO.P,J9,9,Pin_9*%
%TO.N,unconnected-(J9-Pad9)*%
X158765000Y-57555000D03*
%TO.P,J9,10,Pin_10*%
%TO.N,GND*%
X158765000Y-55015000D03*
%TD*%
D17*
%TO.P,R6,1*%
%TO.N,/SCL_2*%
X114379300Y-162262500D03*
%TO.P,R6,2*%
%TO.N,+5V*%
X114379300Y-164087500D03*
%TD*%
D13*
%TO.P,U1,1,3V3*%
%TO.N,unconnected-(U1-Pad1)*%
X129850000Y-91930000D03*
D15*
%TO.P,U1,2,PB5*%
%TO.N,unconnected-(U1-Pad2)*%
X129850000Y-89390000D03*
%TO.P,U1,3,PB0*%
%TO.N,unconnected-(U1-Pad3)*%
X129850000Y-86850000D03*
%TO.P,U1,4,PB1*%
%TO.N,unconnected-(U1-Pad4)*%
X129850000Y-84310000D03*
%TO.P,U1,5,PE4*%
%TO.N,/SCL_2*%
X129850000Y-81770000D03*
%TO.P,U1,6,PE5*%
%TO.N,/SDA_2*%
X129850000Y-79230000D03*
%TO.P,U1,7,PB4*%
%TO.N,unconnected-(U1-Pad7)*%
X129850000Y-76690000D03*
%TO.P,U1,8,PA5*%
%TO.N,unconnected-(U1-Pad8)*%
X129850000Y-74150000D03*
%TO.P,U1,9,PA6*%
%TO.N,/SCL_1*%
X129850000Y-71610000D03*
%TO.P,U1,10,PA7*%
%TO.N,/SDA_1*%
X129850000Y-69070000D03*
%TO.P,U1,11,PA2*%
%TO.N,unconnected-(U1-Pad11)*%
X84130000Y-69070000D03*
%TO.P,U1,12,PA3*%
%TO.N,unconnected-(U1-Pad12)*%
X84130000Y-71610000D03*
%TO.P,U1,13,PA4*%
%TO.N,unconnected-(U1-Pad13)*%
X84130000Y-74150000D03*
%TO.P,U1,14,PB6*%
%TO.N,unconnected-(U1-Pad14)*%
X84130000Y-76690000D03*
%TO.P,U1,15,PB7*%
%TO.N,unconnected-(U1-Pad15)*%
X84130000Y-79230000D03*
%TO.P,U1,16,~{RST}*%
%TO.N,unconnected-(U1-Pad16)*%
X84130000Y-81770000D03*
%TO.P,U1,17,PF0*%
%TO.N,unconnected-(U1-Pad17)*%
X84130000Y-84310000D03*
%TO.P,U1,18,PE0*%
%TO.N,unconnected-(U1-Pad18)*%
X84130000Y-86850000D03*
%TO.P,U1,19,PB2*%
%TO.N,/SCL_0*%
X84130000Y-89390000D03*
%TO.P,U1,20,GND*%
%TO.N,GND*%
X84130000Y-91930000D03*
%TO.P,U1,21,5V*%
%TO.N,+5V*%
X127310000Y-91930000D03*
%TO.P,U1,22,GND*%
%TO.N,GND*%
X127310000Y-89390000D03*
%TO.P,U1,23,PD0*%
%TO.N,/SCL_3*%
X127310000Y-86850000D03*
%TO.P,U1,24,PD1*%
%TO.N,/SDA_3*%
X127310000Y-84310000D03*
%TO.P,U1,25,PD2*%
%TO.N,unconnected-(U1-Pad25)*%
X127310000Y-81770000D03*
%TO.P,U1,26,PD3*%
%TO.N,unconnected-(U1-Pad26)*%
X127310000Y-79230000D03*
%TO.P,U1,27,PE1*%
%TO.N,unconnected-(U1-Pad27)*%
X127310000Y-76690000D03*
%TO.P,U1,28,PE2*%
%TO.N,unconnected-(U1-Pad28)*%
X127310000Y-74150000D03*
%TO.P,U1,29,PE3*%
%TO.N,unconnected-(U1-Pad29)*%
X127310000Y-71610000D03*
%TO.P,U1,30,PF1*%
%TO.N,unconnected-(U1-Pad30)*%
X127310000Y-69070000D03*
%TO.P,U1,31,PF4*%
%TO.N,unconnected-(U1-Pad31)*%
X86670000Y-69070000D03*
%TO.P,U1,32,PD7*%
%TO.N,unconnected-(U1-Pad32)*%
X86670000Y-71610000D03*
%TO.P,U1,33,PD6*%
%TO.N,unconnected-(U1-Pad33)*%
X86670000Y-74150000D03*
%TO.P,U1,34,PC7*%
%TO.N,unconnected-(U1-Pad34)*%
X86670000Y-76690000D03*
%TO.P,U1,35,PC6*%
%TO.N,unconnected-(U1-Pad35)*%
X86670000Y-79230000D03*
%TO.P,U1,36,PC5*%
%TO.N,unconnected-(U1-Pad36)*%
X86670000Y-81770000D03*
%TO.P,U1,37,PC4*%
%TO.N,unconnected-(U1-Pad37)*%
X86670000Y-84310000D03*
%TO.P,U1,38,PB3*%
%TO.N,/SDA_0*%
X86670000Y-86850000D03*
%TO.P,U1,39,PF3*%
%TO.N,unconnected-(U1-Pad39)*%
X86670000Y-89390000D03*
D13*
%TO.P,U1,40,PF2*%
%TO.N,unconnected-(U1-Pad40)*%
X86670000Y-91930000D03*
%TD*%
%TO.P,J15,1,Pin_1*%
%TO.N,unconnected-(J15-Pad1)*%
X156225000Y-122425000D03*
D14*
%TO.P,J15,2,Pin_2*%
%TO.N,unconnected-(J15-Pad2)*%
X156225000Y-124965000D03*
%TO.P,J15,3,Pin_3*%
%TO.N,unconnected-(J15-Pad3)*%
X156225000Y-127505000D03*
%TO.P,J15,4,Pin_4*%
%TO.N,unconnected-(J15-Pad4)*%
X156225000Y-130045000D03*
D15*
%TO.P,J15,5,Pin_5*%
%TO.N,/SCL_1*%
X156225000Y-132585000D03*
D14*
%TO.P,J15,6,Pin_6*%
%TO.N,/SDA_1*%
X158765000Y-132585000D03*
D15*
%TO.P,J15,7,Pin_7*%
%TO.N,unconnected-(J15-Pad7)*%
X158765000Y-130045000D03*
%TO.P,J15,8,Pin_8*%
%TO.N,unconnected-(J15-Pad8)*%
X158765000Y-127505000D03*
%TO.P,J15,9,Pin_9*%
%TO.N,unconnected-(J15-Pad9)*%
X158765000Y-124965000D03*
%TO.P,J15,10,Pin_10*%
%TO.N,GND*%
X158765000Y-122425000D03*
%TD*%
D13*
%TO.P,J25,1,Pin_1*%
%TO.N,/SCL_0*%
X88919300Y-149590000D03*
D15*
%TO.P,J25,2,Pin_2*%
%TO.N,/SDA_0*%
X86379300Y-149590000D03*
%TO.P,J25,3,Pin_3*%
%TO.N,GND*%
X83839300Y-149590000D03*
%TD*%
D13*
%TO.P,J24,1,Pin_1*%
%TO.N,unconnected-(J24-Pad1)*%
X173725000Y-189925000D03*
D14*
%TO.P,J24,2,Pin_2*%
%TO.N,unconnected-(J24-Pad2)*%
X173725000Y-192465000D03*
%TO.P,J24,3,Pin_3*%
%TO.N,unconnected-(J24-Pad3)*%
X173725000Y-195005000D03*
%TO.P,J24,4,Pin_4*%
%TO.N,unconnected-(J24-Pad4)*%
X173725000Y-197545000D03*
D15*
%TO.P,J24,5,Pin_5*%
%TO.N,/SCL_3*%
X173725000Y-200085000D03*
D14*
%TO.P,J24,6,Pin_6*%
%TO.N,/SDA_3*%
X176265000Y-200085000D03*
D15*
%TO.P,J24,7,Pin_7*%
%TO.N,unconnected-(J24-Pad7)*%
X176265000Y-197545000D03*
%TO.P,J24,8,Pin_8*%
%TO.N,unconnected-(J24-Pad8)*%
X176265000Y-195005000D03*
%TO.P,J24,9,Pin_9*%
%TO.N,unconnected-(J24-Pad9)*%
X176265000Y-192465000D03*
%TO.P,J24,10,Pin_10*%
%TO.N,GND*%
X176265000Y-189925000D03*
%TD*%
D13*
%TO.P,J14,1,Pin_1*%
%TO.N,unconnected-(J14-Pad1)*%
X173725000Y-100390000D03*
D14*
%TO.P,J14,2,Pin_2*%
%TO.N,unconnected-(J14-Pad2)*%
X173725000Y-102930000D03*
%TO.P,J14,3,Pin_3*%
%TO.N,unconnected-(J14-Pad3)*%
X173725000Y-105470000D03*
%TO.P,J14,4,Pin_4*%
%TO.N,unconnected-(J14-Pad4)*%
X173725000Y-108010000D03*
D15*
%TO.P,J14,5,Pin_5*%
%TO.N,/SCL_1*%
X173725000Y-110550000D03*
D14*
%TO.P,J14,6,Pin_6*%
%TO.N,/SDA_1*%
X176265000Y-110550000D03*
D15*
%TO.P,J14,7,Pin_7*%
%TO.N,unconnected-(J14-Pad7)*%
X176265000Y-108010000D03*
%TO.P,J14,8,Pin_8*%
%TO.N,unconnected-(J14-Pad8)*%
X176265000Y-105470000D03*
%TO.P,J14,9,Pin_9*%
%TO.N,unconnected-(J14-Pad9)*%
X176265000Y-102930000D03*
%TO.P,J14,10,Pin_10*%
%TO.N,GND*%
X176265000Y-100390000D03*
%TD*%
D13*
%TO.P,J16,1,Pin_1*%
%TO.N,unconnected-(J16-Pad1)*%
X173725000Y-122425000D03*
D14*
%TO.P,J16,2,Pin_2*%
%TO.N,unconnected-(J16-Pad2)*%
X173725000Y-124965000D03*
%TO.P,J16,3,Pin_3*%
%TO.N,unconnected-(J16-Pad3)*%
X173725000Y-127505000D03*
%TO.P,J16,4,Pin_4*%
%TO.N,unconnected-(J16-Pad4)*%
X173725000Y-130045000D03*
D15*
%TO.P,J16,5,Pin_5*%
%TO.N,/SCL_1*%
X173725000Y-132585000D03*
D14*
%TO.P,J16,6,Pin_6*%
%TO.N,/SDA_1*%
X176265000Y-132585000D03*
D15*
%TO.P,J16,7,Pin_7*%
%TO.N,unconnected-(J16-Pad7)*%
X176265000Y-130045000D03*
%TO.P,J16,8,Pin_8*%
%TO.N,unconnected-(J16-Pad8)*%
X176265000Y-127505000D03*
%TO.P,J16,9,Pin_9*%
%TO.N,unconnected-(J16-Pad9)*%
X176265000Y-124965000D03*
%TO.P,J16,10,Pin_10*%
%TO.N,GND*%
X176265000Y-122425000D03*
%TD*%
D17*
%TO.P,R2,1*%
%TO.N,/SCL_0*%
X88879300Y-162262500D03*
%TO.P,R2,2*%
%TO.N,+5V*%
X88879300Y-164087500D03*
%TD*%
D13*
%TO.P,J7,1,Pin_1*%
%TO.N,unconnected-(J7-Pad1)*%
X38725000Y-121070000D03*
D14*
%TO.P,J7,2,Pin_2*%
%TO.N,unconnected-(J7-Pad2)*%
X38725000Y-123610000D03*
%TO.P,J7,3,Pin_3*%
%TO.N,unconnected-(J7-Pad3)*%
X38725000Y-126150000D03*
%TO.P,J7,4,Pin_4*%
%TO.N,unconnected-(J7-Pad4)*%
X38725000Y-128690000D03*
D15*
%TO.P,J7,5,Pin_5*%
%TO.N,/SCL_0*%
X38725000Y-131230000D03*
D14*
%TO.P,J7,6,Pin_6*%
%TO.N,/SDA_0*%
X41265000Y-131230000D03*
D15*
%TO.P,J7,7,Pin_7*%
%TO.N,unconnected-(J7-Pad7)*%
X41265000Y-128690000D03*
%TO.P,J7,8,Pin_8*%
%TO.N,unconnected-(J7-Pad8)*%
X41265000Y-126150000D03*
%TO.P,J7,9,Pin_9*%
%TO.N,unconnected-(J7-Pad9)*%
X41265000Y-123610000D03*
%TO.P,J7,10,Pin_10*%
%TO.N,GND*%
X41265000Y-121070000D03*
%TD*%
D16*
%TO.P,H3,1,1*%
%TO.N,GND*%
X25044300Y-211740000D03*
%TD*%
D13*
%TO.P,J21,1,Pin_1*%
%TO.N,unconnected-(J21-Pad1)*%
X156225000Y-167890000D03*
D14*
%TO.P,J21,2,Pin_2*%
%TO.N,unconnected-(J21-Pad2)*%
X156225000Y-170430000D03*
%TO.P,J21,3,Pin_3*%
%TO.N,unconnected-(J21-Pad3)*%
X156225000Y-172970000D03*
%TO.P,J21,4,Pin_4*%
%TO.N,unconnected-(J21-Pad4)*%
X156225000Y-175510000D03*
D15*
%TO.P,J21,5,Pin_5*%
%TO.N,/SCL_3*%
X156225000Y-178050000D03*
D14*
%TO.P,J21,6,Pin_6*%
%TO.N,/SDA_3*%
X158765000Y-178050000D03*
D15*
%TO.P,J21,7,Pin_7*%
%TO.N,unconnected-(J21-Pad7)*%
X158765000Y-175510000D03*
%TO.P,J21,8,Pin_8*%
%TO.N,unconnected-(J21-Pad8)*%
X158765000Y-172970000D03*
%TO.P,J21,9,Pin_9*%
%TO.N,unconnected-(J21-Pad9)*%
X158765000Y-170430000D03*
%TO.P,J21,10,Pin_10*%
%TO.N,GND*%
X158765000Y-167890000D03*
%TD*%
D13*
%TO.P,J6,1,Pin_1*%
%TO.N,unconnected-(J6-Pad1)*%
X56225000Y-99035000D03*
D14*
%TO.P,J6,2,Pin_2*%
%TO.N,unconnected-(J6-Pad2)*%
X56225000Y-101575000D03*
%TO.P,J6,3,Pin_3*%
%TO.N,unconnected-(J6-Pad3)*%
X56225000Y-104115000D03*
%TO.P,J6,4,Pin_4*%
%TO.N,unconnected-(J6-Pad4)*%
X56225000Y-106655000D03*
D15*
%TO.P,J6,5,Pin_5*%
%TO.N,/SCL_0*%
X56225000Y-109195000D03*
D14*
%TO.P,J6,6,Pin_6*%
%TO.N,/SDA_0*%
X58765000Y-109195000D03*
D15*
%TO.P,J6,7,Pin_7*%
%TO.N,unconnected-(J6-Pad7)*%
X58765000Y-106655000D03*
%TO.P,J6,8,Pin_8*%
%TO.N,unconnected-(J6-Pad8)*%
X58765000Y-104115000D03*
%TO.P,J6,9,Pin_9*%
%TO.N,unconnected-(J6-Pad9)*%
X58765000Y-101575000D03*
%TO.P,J6,10,Pin_10*%
%TO.N,GND*%
X58765000Y-99035000D03*
%TD*%
D17*
%TO.P,R8,1*%
%TO.N,/SCL_3*%
X126879300Y-162262500D03*
%TO.P,R8,2*%
%TO.N,+5V*%
X126879300Y-164087500D03*
%TD*%
D13*
%TO.P,J12,1,Pin_1*%
%TO.N,unconnected-(J12-Pad1)*%
X173865000Y-77495000D03*
D14*
%TO.P,J12,2,Pin_2*%
%TO.N,unconnected-(J12-Pad2)*%
X173865000Y-80035000D03*
%TO.P,J12,3,Pin_3*%
%TO.N,unconnected-(J12-Pad3)*%
X173865000Y-82575000D03*
%TO.P,J12,4,Pin_4*%
%TO.N,unconnected-(J12-Pad4)*%
X173865000Y-85115000D03*
D15*
%TO.P,J12,5,Pin_5*%
%TO.N,/SCL_1*%
X173865000Y-87655000D03*
D14*
%TO.P,J12,6,Pin_6*%
%TO.N,/SDA_1*%
X176405000Y-87655000D03*
D15*
%TO.P,J12,7,Pin_7*%
%TO.N,unconnected-(J12-Pad7)*%
X176405000Y-85115000D03*
%TO.P,J12,8,Pin_8*%
%TO.N,unconnected-(J12-Pad8)*%
X176405000Y-82575000D03*
%TO.P,J12,9,Pin_9*%
%TO.N,unconnected-(J12-Pad9)*%
X176405000Y-80035000D03*
%TO.P,J12,10,Pin_10*%
%TO.N,GND*%
X176405000Y-77495000D03*
%TD*%
D13*
%TO.P,J28,1,Pin_1*%
%TO.N,/SCL_3*%
X126904300Y-149590000D03*
D15*
%TO.P,J28,2,Pin_2*%
%TO.N,/SDA_3*%
X124364300Y-149590000D03*
%TO.P,J28,3,Pin_3*%
%TO.N,GND*%
X121824300Y-149590000D03*
%TD*%
D13*
%TO.P,J27,1,Pin_1*%
%TO.N,/SCL_2*%
X114404300Y-149590000D03*
D15*
%TO.P,J27,2,Pin_2*%
%TO.N,/SDA_2*%
X111864300Y-149590000D03*
%TO.P,J27,3,Pin_3*%
%TO.N,GND*%
X109324300Y-149590000D03*
%TD*%
D13*
%TO.P,J5,1,Pin_1*%
%TO.N,unconnected-(J5-Pad1)*%
X38725000Y-99035000D03*
D14*
%TO.P,J5,2,Pin_2*%
%TO.N,unconnected-(J5-Pad2)*%
X38725000Y-101575000D03*
%TO.P,J5,3,Pin_3*%
%TO.N,unconnected-(J5-Pad3)*%
X38725000Y-104115000D03*
%TO.P,J5,4,Pin_4*%
%TO.N,unconnected-(J5-Pad4)*%
X38725000Y-106655000D03*
D15*
%TO.P,J5,5,Pin_5*%
%TO.N,/SCL_0*%
X38725000Y-109195000D03*
D14*
%TO.P,J5,6,Pin_6*%
%TO.N,/SDA_0*%
X41265000Y-109195000D03*
D15*
%TO.P,J5,7,Pin_7*%
%TO.N,unconnected-(J5-Pad7)*%
X41265000Y-106655000D03*
%TO.P,J5,8,Pin_8*%
%TO.N,unconnected-(J5-Pad8)*%
X41265000Y-104115000D03*
%TO.P,J5,9,Pin_9*%
%TO.N,unconnected-(J5-Pad9)*%
X41265000Y-101575000D03*
%TO.P,J5,10,Pin_10*%
%TO.N,GND*%
X41265000Y-99035000D03*
%TD*%
D13*
%TO.P,J2,1,Pin_1*%
%TO.N,unconnected-(J2-Pad1)*%
X56365000Y-53770000D03*
D14*
%TO.P,J2,2,Pin_2*%
%TO.N,unconnected-(J2-Pad2)*%
X56365000Y-56310000D03*
%TO.P,J2,3,Pin_3*%
%TO.N,unconnected-(J2-Pad3)*%
X56365000Y-58850000D03*
%TO.P,J2,4,Pin_4*%
%TO.N,unconnected-(J2-Pad4)*%
X56365000Y-61390000D03*
D15*
%TO.P,J2,5,Pin_5*%
%TO.N,/SCL_0*%
X56365000Y-63930000D03*
D14*
%TO.P,J2,6,Pin_6*%
%TO.N,/SDA_0*%
X58905000Y-63930000D03*
D15*
%TO.P,J2,7,Pin_7*%
%TO.N,unconnected-(J2-Pad7)*%
X58905000Y-61390000D03*
%TO.P,J2,8,Pin_8*%
%TO.N,unconnected-(J2-Pad8)*%
X58905000Y-58850000D03*
%TO.P,J2,9,Pin_9*%
%TO.N,unconnected-(J2-Pad9)*%
X58905000Y-56310000D03*
%TO.P,J2,10,Pin_10*%
%TO.N,GND*%
X58905000Y-53770000D03*
%TD*%
D16*
%TO.P,H1,1,1*%
%TO.N,GND*%
X25044300Y-46640000D03*
%TD*%
D17*
%TO.P,R5,1*%
%TO.N,/SDA_2*%
X111879300Y-162175000D03*
%TO.P,R5,2*%
%TO.N,+5V*%
X111879300Y-164000000D03*
%TD*%
D13*
%TO.P,J26,1,Pin_1*%
%TO.N,/SCL_1*%
X101404300Y-149590000D03*
D15*
%TO.P,J26,2,Pin_2*%
%TO.N,/SDA_1*%
X98864300Y-149590000D03*
%TO.P,J26,3,Pin_3*%
%TO.N,GND*%
X96324300Y-149590000D03*
%TD*%
D13*
%TO.P,J1,1,Pin_1*%
%TO.N,unconnected-(J1-Pad1)*%
X38725000Y-53770000D03*
D14*
%TO.P,J1,2,Pin_2*%
%TO.N,unconnected-(J1-Pad2)*%
X38725000Y-56310000D03*
%TO.P,J1,3,Pin_3*%
%TO.N,unconnected-(J1-Pad3)*%
X38725000Y-58850000D03*
%TO.P,J1,4,Pin_4*%
%TO.N,unconnected-(J1-Pad4)*%
X38725000Y-61390000D03*
D15*
%TO.P,J1,5,Pin_5*%
%TO.N,/SCL_0*%
X38725000Y-63930000D03*
D14*
%TO.P,J1,6,Pin_6*%
%TO.N,/SDA_0*%
X41265000Y-63930000D03*
D15*
%TO.P,J1,7,Pin_7*%
%TO.N,unconnected-(J1-Pad7)*%
X41265000Y-61390000D03*
%TO.P,J1,8,Pin_8*%
%TO.N,unconnected-(J1-Pad8)*%
X41265000Y-58850000D03*
%TO.P,J1,9,Pin_9*%
%TO.N,unconnected-(J1-Pad9)*%
X41265000Y-56310000D03*
%TO.P,J1,10,Pin_10*%
%TO.N,GND*%
X41265000Y-53770000D03*
%TD*%
D17*
%TO.P,R3,1*%
%TO.N,/SDA_1*%
X98879300Y-162262500D03*
%TO.P,R3,2*%
%TO.N,+5V*%
X98879300Y-164087500D03*
%TD*%
D13*
%TO.P,J19,1,Pin_1*%
%TO.N,unconnected-(J19-Pad1)*%
X38714272Y-190425000D03*
D14*
%TO.P,J19,2,Pin_2*%
%TO.N,unconnected-(J19-Pad2)*%
X38714272Y-192965000D03*
%TO.P,J19,3,Pin_3*%
%TO.N,unconnected-(J19-Pad3)*%
X38714272Y-195505000D03*
%TO.P,J19,4,Pin_4*%
%TO.N,unconnected-(J19-Pad4)*%
X38714272Y-198045000D03*
D15*
%TO.P,J19,5,Pin_5*%
%TO.N,/SCL_2*%
X38714272Y-200585000D03*
D14*
%TO.P,J19,6,Pin_6*%
%TO.N,/SDA_2*%
X41254272Y-200585000D03*
D15*
%TO.P,J19,7,Pin_7*%
%TO.N,unconnected-(J19-Pad7)*%
X41254272Y-198045000D03*
%TO.P,J19,8,Pin_8*%
%TO.N,unconnected-(J19-Pad8)*%
X41254272Y-195505000D03*
%TO.P,J19,9,Pin_9*%
%TO.N,unconnected-(J19-Pad9)*%
X41254272Y-192965000D03*
%TO.P,J19,10,Pin_10*%
%TO.N,GND*%
X41254272Y-190425000D03*
%TD*%
D17*
%TO.P,R7,1*%
%TO.N,/SDA_3*%
X124379300Y-162262500D03*
%TO.P,R7,2*%
%TO.N,+5V*%
X124379300Y-164087500D03*
%TD*%
D13*
%TO.P,J18,1,Pin_1*%
%TO.N,unconnected-(J18-Pad1)*%
X56214272Y-168390000D03*
D14*
%TO.P,J18,2,Pin_2*%
%TO.N,unconnected-(J18-Pad2)*%
X56214272Y-170930000D03*
%TO.P,J18,3,Pin_3*%
%TO.N,unconnected-(J18-Pad3)*%
X56214272Y-173470000D03*
%TO.P,J18,4,Pin_4*%
%TO.N,unconnected-(J18-Pad4)*%
X56214272Y-176010000D03*
D15*
%TO.P,J18,5,Pin_5*%
%TO.N,/SCL_2*%
X56214272Y-178550000D03*
D14*
%TO.P,J18,6,Pin_6*%
%TO.N,/SDA_2*%
X58754272Y-178550000D03*
D15*
%TO.P,J18,7,Pin_7*%
%TO.N,unconnected-(J18-Pad7)*%
X58754272Y-176010000D03*
%TO.P,J18,8,Pin_8*%
%TO.N,unconnected-(J18-Pad8)*%
X58754272Y-173470000D03*
%TO.P,J18,9,Pin_9*%
%TO.N,unconnected-(J18-Pad9)*%
X58754272Y-170930000D03*
%TO.P,J18,10,Pin_10*%
%TO.N,GND*%
X58754272Y-168390000D03*
%TD*%
D13*
%TO.P,J10,1,Pin_1*%
%TO.N,unconnected-(J10-Pad1)*%
X173865000Y-55015000D03*
D14*
%TO.P,J10,2,Pin_2*%
%TO.N,unconnected-(J10-Pad2)*%
X173865000Y-57555000D03*
%TO.P,J10,3,Pin_3*%
%TO.N,unconnected-(J10-Pad3)*%
X173865000Y-60095000D03*
%TO.P,J10,4,Pin_4*%
%TO.N,unconnected-(J10-Pad4)*%
X173865000Y-62635000D03*
D15*
%TO.P,J10,5,Pin_5*%
%TO.N,/SCL_1*%
X173865000Y-65175000D03*
D14*
%TO.P,J10,6,Pin_6*%
%TO.N,/SDA_1*%
X176405000Y-65175000D03*
D15*
%TO.P,J10,7,Pin_7*%
%TO.N,unconnected-(J10-Pad7)*%
X176405000Y-62635000D03*
%TO.P,J10,8,Pin_8*%
%TO.N,unconnected-(J10-Pad8)*%
X176405000Y-60095000D03*
%TO.P,J10,9,Pin_9*%
%TO.N,unconnected-(J10-Pad9)*%
X176405000Y-57555000D03*
%TO.P,J10,10,Pin_10*%
%TO.N,GND*%
X176405000Y-55015000D03*
%TD*%
D13*
%TO.P,J11,1,Pin_1*%
%TO.N,unconnected-(J11-Pad1)*%
X156225000Y-77495000D03*
D14*
%TO.P,J11,2,Pin_2*%
%TO.N,unconnected-(J11-Pad2)*%
X156225000Y-80035000D03*
%TO.P,J11,3,Pin_3*%
%TO.N,unconnected-(J11-Pad3)*%
X156225000Y-82575000D03*
%TO.P,J11,4,Pin_4*%
%TO.N,unconnected-(J11-Pad4)*%
X156225000Y-85115000D03*
D15*
%TO.P,J11,5,Pin_5*%
%TO.N,/SCL_1*%
X156225000Y-87655000D03*
D14*
%TO.P,J11,6,Pin_6*%
%TO.N,/SDA_1*%
X158765000Y-87655000D03*
D15*
%TO.P,J11,7,Pin_7*%
%TO.N,unconnected-(J11-Pad7)*%
X158765000Y-85115000D03*
%TO.P,J11,8,Pin_8*%
%TO.N,unconnected-(J11-Pad8)*%
X158765000Y-82575000D03*
%TO.P,J11,9,Pin_9*%
%TO.N,unconnected-(J11-Pad9)*%
X158765000Y-80035000D03*
%TO.P,J11,10,Pin_10*%
%TO.N,GND*%
X158765000Y-77495000D03*
%TD*%
D13*
%TO.P,J3,1,Pin_1*%
%TO.N,unconnected-(J3-Pad1)*%
X38725000Y-76605000D03*
D14*
%TO.P,J3,2,Pin_2*%
%TO.N,unconnected-(J3-Pad2)*%
X38725000Y-79145000D03*
%TO.P,J3,3,Pin_3*%
%TO.N,unconnected-(J3-Pad3)*%
X38725000Y-81685000D03*
%TO.P,J3,4,Pin_4*%
%TO.N,unconnected-(J3-Pad4)*%
X38725000Y-84225000D03*
D15*
%TO.P,J3,5,Pin_5*%
%TO.N,/SCL_0*%
X38725000Y-86765000D03*
D14*
%TO.P,J3,6,Pin_6*%
%TO.N,/SDA_0*%
X41265000Y-86765000D03*
D15*
%TO.P,J3,7,Pin_7*%
%TO.N,unconnected-(J3-Pad7)*%
X41265000Y-84225000D03*
%TO.P,J3,8,Pin_8*%
%TO.N,unconnected-(J3-Pad8)*%
X41265000Y-81685000D03*
%TO.P,J3,9,Pin_9*%
%TO.N,unconnected-(J3-Pad9)*%
X41265000Y-79145000D03*
%TO.P,J3,10,Pin_10*%
%TO.N,GND*%
X41265000Y-76605000D03*
%TD*%
D17*
%TO.P,R4,1*%
%TO.N,/SCL_1*%
X101379300Y-162262500D03*
%TO.P,R4,2*%
%TO.N,+5V*%
X101379300Y-164087500D03*
%TD*%
D13*
%TO.P,J22,1,Pin_1*%
%TO.N,unconnected-(J22-Pad1)*%
X173725000Y-167890000D03*
D14*
%TO.P,J22,2,Pin_2*%
%TO.N,unconnected-(J22-Pad2)*%
X173725000Y-170430000D03*
%TO.P,J22,3,Pin_3*%
%TO.N,unconnected-(J22-Pad3)*%
X173725000Y-172970000D03*
%TO.P,J22,4,Pin_4*%
%TO.N,unconnected-(J22-Pad4)*%
X173725000Y-175510000D03*
D15*
%TO.P,J22,5,Pin_5*%
%TO.N,/SCL_3*%
X173725000Y-178050000D03*
D14*
%TO.P,J22,6,Pin_6*%
%TO.N,/SDA_3*%
X176265000Y-178050000D03*
D15*
%TO.P,J22,7,Pin_7*%
%TO.N,unconnected-(J22-Pad7)*%
X176265000Y-175510000D03*
%TO.P,J22,8,Pin_8*%
%TO.N,unconnected-(J22-Pad8)*%
X176265000Y-172970000D03*
%TO.P,J22,9,Pin_9*%
%TO.N,unconnected-(J22-Pad9)*%
X176265000Y-170430000D03*
%TO.P,J22,10,Pin_10*%
%TO.N,GND*%
X176265000Y-167890000D03*
%TD*%
D13*
%TO.P,J23,1,Pin_1*%
%TO.N,unconnected-(J23-Pad1)*%
X156225000Y-189925000D03*
D14*
%TO.P,J23,2,Pin_2*%
%TO.N,unconnected-(J23-Pad2)*%
X156225000Y-192465000D03*
%TO.P,J23,3,Pin_3*%
%TO.N,unconnected-(J23-Pad3)*%
X156225000Y-195005000D03*
%TO.P,J23,4,Pin_4*%
%TO.N,unconnected-(J23-Pad4)*%
X156225000Y-197545000D03*
D15*
%TO.P,J23,5,Pin_5*%
%TO.N,/SCL_3*%
X156225000Y-200085000D03*
D14*
%TO.P,J23,6,Pin_6*%
%TO.N,/SDA_3*%
X158765000Y-200085000D03*
D15*
%TO.P,J23,7,Pin_7*%
%TO.N,unconnected-(J23-Pad7)*%
X158765000Y-197545000D03*
%TO.P,J23,8,Pin_8*%
%TO.N,unconnected-(J23-Pad8)*%
X158765000Y-195005000D03*
%TO.P,J23,9,Pin_9*%
%TO.N,unconnected-(J23-Pad9)*%
X158765000Y-192465000D03*
%TO.P,J23,10,Pin_10*%
%TO.N,GND*%
X158765000Y-189925000D03*
%TD*%
D17*
%TO.P,R1,1*%
%TO.N,/SDA_0*%
X86379300Y-162175000D03*
%TO.P,R1,2*%
%TO.N,+5V*%
X86379300Y-164000000D03*
%TD*%
D13*
%TO.P,J4,1,Pin_1*%
%TO.N,unconnected-(J4-Pad1)*%
X56365000Y-76605000D03*
D14*
%TO.P,J4,2,Pin_2*%
%TO.N,unconnected-(J4-Pad2)*%
X56365000Y-79145000D03*
%TO.P,J4,3,Pin_3*%
%TO.N,unconnected-(J4-Pad3)*%
X56365000Y-81685000D03*
%TO.P,J4,4,Pin_4*%
%TO.N,unconnected-(J4-Pad4)*%
X56365000Y-84225000D03*
D15*
%TO.P,J4,5,Pin_5*%
%TO.N,/SCL_0*%
X56365000Y-86765000D03*
D14*
%TO.P,J4,6,Pin_6*%
%TO.N,/SDA_0*%
X58905000Y-86765000D03*
D15*
%TO.P,J4,7,Pin_7*%
%TO.N,unconnected-(J4-Pad7)*%
X58905000Y-84225000D03*
%TO.P,J4,8,Pin_8*%
%TO.N,unconnected-(J4-Pad8)*%
X58905000Y-81685000D03*
%TO.P,J4,9,Pin_9*%
%TO.N,unconnected-(J4-Pad9)*%
X58905000Y-79145000D03*
%TO.P,J4,10,Pin_10*%
%TO.N,GND*%
X58905000Y-76605000D03*
%TD*%
D18*
%TO.P,J29,1,Pin_1*%
%TO.N,+5V*%
X111485200Y-205640000D03*
D19*
%TO.P,J29,2,Pin_2*%
%TO.N,unconnected-(J29-Pad2)*%
X108485200Y-205640000D03*
%TO.P,J29,3,Pin_3*%
%TO.N,unconnected-(J29-Pad3)*%
X105485200Y-205640000D03*
%TO.P,J29,4,Pin_4*%
%TO.N,GND*%
X102485200Y-205640000D03*
%TD*%
D16*
%TO.P,H2,1,1*%
%TO.N,GND*%
X190144300Y-46640000D03*
%TD*%
D13*
%TO.P,J8,1,Pin_1*%
%TO.N,unconnected-(J8-Pad1)*%
X56225000Y-121070000D03*
D14*
%TO.P,J8,2,Pin_2*%
%TO.N,unconnected-(J8-Pad2)*%
X56225000Y-123610000D03*
%TO.P,J8,3,Pin_3*%
%TO.N,unconnected-(J8-Pad3)*%
X56225000Y-126150000D03*
%TO.P,J8,4,Pin_4*%
%TO.N,unconnected-(J8-Pad4)*%
X56225000Y-128690000D03*
D15*
%TO.P,J8,5,Pin_5*%
%TO.N,/SCL_0*%
X56225000Y-131230000D03*
D14*
%TO.P,J8,6,Pin_6*%
%TO.N,/SDA_0*%
X58765000Y-131230000D03*
D15*
%TO.P,J8,7,Pin_7*%
%TO.N,unconnected-(J8-Pad7)*%
X58765000Y-128690000D03*
%TO.P,J8,8,Pin_8*%
%TO.N,unconnected-(J8-Pad8)*%
X58765000Y-126150000D03*
%TO.P,J8,9,Pin_9*%
%TO.N,unconnected-(J8-Pad9)*%
X58765000Y-123610000D03*
%TO.P,J8,10,Pin_10*%
%TO.N,GND*%
X58765000Y-121070000D03*
%TD*%
D13*
%TO.P,J13,1,Pin_1*%
%TO.N,unconnected-(J13-Pad1)*%
X156225000Y-100390000D03*
D14*
%TO.P,J13,2,Pin_2*%
%TO.N,unconnected-(J13-Pad2)*%
X156225000Y-102930000D03*
%TO.P,J13,3,Pin_3*%
%TO.N,unconnected-(J13-Pad3)*%
X156225000Y-105470000D03*
%TO.P,J13,4,Pin_4*%
%TO.N,unconnected-(J13-Pad4)*%
X156225000Y-108010000D03*
D15*
%TO.P,J13,5,Pin_5*%
%TO.N,/SCL_1*%
X156225000Y-110550000D03*
D14*
%TO.P,J13,6,Pin_6*%
%TO.N,/SDA_1*%
X158765000Y-110550000D03*
D15*
%TO.P,J13,7,Pin_7*%
%TO.N,unconnected-(J13-Pad7)*%
X158765000Y-108010000D03*
%TO.P,J13,8,Pin_8*%
%TO.N,unconnected-(J13-Pad8)*%
X158765000Y-105470000D03*
%TO.P,J13,9,Pin_9*%
%TO.N,unconnected-(J13-Pad9)*%
X158765000Y-102930000D03*
%TO.P,J13,10,Pin_10*%
%TO.N,GND*%
X158765000Y-100390000D03*
%TD*%
D13*
%TO.P,J17,1,Pin_1*%
%TO.N,unconnected-(J17-Pad1)*%
X38714272Y-168390000D03*
D14*
%TO.P,J17,2,Pin_2*%
%TO.N,unconnected-(J17-Pad2)*%
X38714272Y-170930000D03*
%TO.P,J17,3,Pin_3*%
%TO.N,unconnected-(J17-Pad3)*%
X38714272Y-173470000D03*
%TO.P,J17,4,Pin_4*%
%TO.N,unconnected-(J17-Pad4)*%
X38714272Y-176010000D03*
D15*
%TO.P,J17,5,Pin_5*%
%TO.N,/SCL_2*%
X38714272Y-178550000D03*
D14*
%TO.P,J17,6,Pin_6*%
%TO.N,/SDA_2*%
X41254272Y-178550000D03*
D15*
%TO.P,J17,7,Pin_7*%
%TO.N,unconnected-(J17-Pad7)*%
X41254272Y-176010000D03*
%TO.P,J17,8,Pin_8*%
%TO.N,unconnected-(J17-Pad8)*%
X41254272Y-173470000D03*
%TO.P,J17,9,Pin_9*%
%TO.N,unconnected-(J17-Pad9)*%
X41254272Y-170930000D03*
%TO.P,J17,10,Pin_10*%
%TO.N,GND*%
X41254272Y-168390000D03*
%TD*%
D20*
%TO.N,GND*%
X125800000Y-94200000D03*
X83600000Y-108500000D03*
X76600000Y-108400000D03*
X106800000Y-94200000D03*
%TO.N,/SCL_2*%
X108800000Y-132500000D03*
X104700000Y-132500000D03*
X116000000Y-132500000D03*
X122200000Y-126300000D03*
%TO.N,/SDA_2*%
X104900000Y-135700000D03*
X116000000Y-135700000D03*
X109000000Y-135700000D03*
X122350000Y-129350000D03*
%TO.N,/SCL_3*%
X120600000Y-115100000D03*
X120600000Y-88900000D03*
%TO.N,/SDA_3*%
X117600000Y-115700000D03*
X117600000Y-87200000D03*
%TD*%
D21*
%TO.N,GND*%
X83600000Y-108500000D02*
X76770710Y-108500000D01*
X76600000Y-108400000D02*
X76650000Y-108450000D01*
X106800000Y-94200000D02*
X125800000Y-94200000D01*
X76770710Y-108499995D02*
G75*
G02*
X76650000Y-108450000I-10J170695D01*
G01*
%TO.N,/SCL_0*%
X55070024Y-109200000D02*
X54993097Y-109200000D01*
X55171079Y-109200000D02*
X55166222Y-109200000D01*
X54308559Y-86800000D02*
X54265775Y-86800000D01*
X55592500Y-131300000D02*
X56300000Y-131300000D01*
X54215415Y-86800000D02*
X54209453Y-86800000D01*
X54502831Y-109200000D02*
X54487891Y-109200000D01*
X55696983Y-86800000D02*
X55771875Y-86800000D01*
X54083806Y-109200000D02*
X54071055Y-109200000D01*
X53815000Y-129473395D02*
X53815000Y-109345104D01*
X55122902Y-109200000D02*
X55094074Y-109200000D01*
X54251011Y-64000000D02*
X54234767Y-64000000D01*
X37930335Y-86730000D02*
X37832163Y-86730000D01*
X54522014Y-64000000D02*
X54520968Y-64000000D01*
X54001428Y-64000000D02*
X53993630Y-64000000D01*
X36489459Y-86730000D02*
X36486422Y-86730000D01*
X54946089Y-109200000D02*
X54929000Y-109200000D01*
X55310358Y-86800000D02*
X55269720Y-86800000D01*
X53968225Y-64000000D02*
X53965756Y-64000000D01*
X55570547Y-64000000D02*
X55541849Y-64000000D01*
X74393792Y-80039828D02*
X74393792Y-57947755D01*
X55166222Y-109200000D02*
X55146951Y-109200000D01*
X53842820Y-86800000D02*
X53840606Y-86800000D01*
X54050551Y-64000000D02*
X54043534Y-64000000D01*
X53991028Y-109200000D02*
X53980371Y-109200000D01*
X36207500Y-86777595D02*
X36207500Y-87007404D01*
X54100820Y-86800000D02*
X54069066Y-86800000D01*
X54005557Y-86800000D02*
X53996588Y-86800000D01*
X54104027Y-109200000D02*
X54101838Y-109200000D01*
X36548546Y-86730000D02*
X36551923Y-86730000D01*
X37719752Y-86730000D02*
X37707010Y-86730000D01*
X36502393Y-86730000D02*
X36496808Y-86730000D01*
X55207599Y-86800000D02*
X55182059Y-86800000D01*
X36560752Y-86730000D02*
X36557809Y-86730000D01*
X53974593Y-64000000D02*
X53968225Y-64000000D01*
X54094214Y-64000000D02*
X54090057Y-64000000D01*
X36517243Y-86730000D02*
X36510186Y-86730000D01*
X54378032Y-64000000D02*
X54349966Y-64000000D01*
X54829245Y-64000000D02*
X54820932Y-64000000D01*
X37016401Y-86730000D02*
X37011719Y-86730000D01*
X55220951Y-86800000D02*
X55219787Y-86800000D01*
X54101838Y-109200000D02*
X54096557Y-109200000D01*
X55353489Y-109200000D02*
X55305468Y-109200000D01*
X55800157Y-64000000D02*
X55691095Y-64000000D01*
X53965171Y-109200000D02*
X53961793Y-109200000D01*
X54604320Y-109200000D02*
X54574440Y-109200000D01*
X54285712Y-64000000D02*
X54273890Y-64000000D01*
X37692772Y-86730000D02*
X37677038Y-86730000D01*
X37165763Y-86730000D02*
X37157535Y-86730000D01*
X54812619Y-64000000D02*
X54804306Y-64000000D01*
X54472951Y-109200000D02*
X54454919Y-109200000D01*
X37474711Y-86730000D02*
X37364489Y-86730000D01*
X54191622Y-109200000D02*
X54176586Y-109200000D01*
X53815000Y-64145104D02*
X53815000Y-64024895D01*
X53847248Y-86800000D02*
X53842820Y-86800000D01*
X54479921Y-64000000D02*
X54463293Y-64000000D01*
X54221694Y-109200000D02*
X54206658Y-109200000D01*
X55455755Y-64000000D02*
X55429921Y-64000000D01*
X54464544Y-86800000D02*
X54428668Y-86800000D01*
X38093327Y-86730000D02*
X38061858Y-86730000D01*
X54222871Y-64000000D02*
X54189085Y-64000000D01*
X54261344Y-64000000D02*
X54256921Y-64000000D01*
X54656663Y-64000000D02*
X54687855Y-64000000D01*
X54043534Y-64000000D02*
X54036517Y-64000000D01*
X54098371Y-64000000D02*
X54094214Y-64000000D01*
X36726402Y-86730000D02*
X36713760Y-86730000D01*
X53857428Y-86800000D02*
X53850353Y-86800000D01*
X54106216Y-109200000D02*
X54113686Y-109200000D01*
X55190195Y-109200000D02*
X55180637Y-109200000D01*
X54519575Y-109200000D02*
X54513392Y-109200000D01*
X53897720Y-86800000D02*
X53917650Y-86800000D01*
X55429921Y-64000000D02*
X55404087Y-64000000D01*
X54868760Y-64000000D02*
X54887473Y-64000000D01*
X53960104Y-109200000D02*
X53961793Y-109200000D01*
X54331216Y-109200000D02*
X54284400Y-109200000D01*
X36271516Y-63930000D02*
X38725000Y-63930000D01*
X36840783Y-86730000D02*
X36825198Y-86730000D01*
X54071055Y-109200000D02*
X54052880Y-109200000D01*
X54656663Y-64000000D02*
X54621314Y-64000000D01*
X55267005Y-109200000D02*
X55257370Y-109200000D01*
X54002780Y-109200000D02*
X54017981Y-109200000D01*
X37661304Y-86730000D02*
X37645570Y-86730000D01*
X55207599Y-86800000D02*
X55219787Y-86800000D01*
X54577743Y-86800000D02*
X54586712Y-86800000D01*
X54715464Y-109200000D02*
X54722838Y-109200000D01*
X53864503Y-86800000D02*
X53857428Y-86800000D01*
X37598900Y-86730000D02*
X37622522Y-86730000D01*
X53960104Y-64000000D02*
X53961988Y-64000000D01*
X54251011Y-64000000D02*
X54256921Y-64000000D01*
X36489459Y-86730000D02*
X36491223Y-86730000D01*
X54733592Y-109200000D02*
X54722838Y-109200000D01*
X82810000Y-89390000D02*
X84130000Y-89390000D01*
X54116568Y-64000000D02*
X54125405Y-64000000D01*
X55295024Y-64000000D02*
X55240493Y-64000000D01*
X54526115Y-86800000D02*
X54510601Y-86800000D01*
X36752989Y-86730000D02*
X36747537Y-86730000D01*
X37506796Y-86730000D02*
X37474711Y-86730000D01*
X66546036Y-50100000D02*
X53810606Y-50100000D01*
X55122902Y-109200000D02*
X55127680Y-109200000D01*
X36700000Y-109107500D02*
X37170402Y-109107500D01*
X37768838Y-86730000D02*
X37740361Y-86730000D01*
X54270190Y-64000000D02*
X54265767Y-64000000D01*
X36713760Y-86730000D02*
X36691285Y-86730000D01*
X54206658Y-109200000D02*
X54191622Y-109200000D01*
X37707010Y-86730000D02*
X37694268Y-86730000D01*
X54744346Y-109200000D02*
X54733592Y-109200000D01*
X53789393Y-50100000D02*
X53810606Y-50100000D01*
X37002355Y-86730000D02*
X36997673Y-86730000D01*
X36557809Y-86730000D02*
X36554866Y-86730000D01*
X37692772Y-86730000D02*
X37694268Y-86730000D01*
X53957593Y-86800000D02*
X53987619Y-86800000D01*
X54270190Y-64000000D02*
X54273890Y-64000000D01*
X54762716Y-64000000D02*
X54746081Y-64000000D01*
X55008486Y-86800000D02*
X54881469Y-86800000D01*
X53972640Y-109200000D02*
X53967835Y-109200000D01*
X54963178Y-109200000D02*
X54946089Y-109200000D01*
X37645570Y-86730000D02*
X37643132Y-86730000D01*
X54015738Y-86800000D02*
X54014526Y-86800000D01*
X54554219Y-109200000D02*
X54553316Y-109200000D01*
X54536295Y-86800000D02*
X54531448Y-86800000D01*
X55222115Y-86800000D02*
X55220951Y-86800000D01*
X54621448Y-109200000D02*
X54604320Y-109200000D01*
X54222991Y-86800000D02*
X54219203Y-86800000D01*
X54787672Y-64000000D02*
X54762716Y-64000000D01*
X40462463Y-50100000D02*
X53789393Y-50100000D01*
X55800157Y-64000000D02*
X55827422Y-64000000D01*
X55263335Y-86800000D02*
X55269720Y-86800000D01*
X53879600Y-86800000D02*
X53867177Y-86800000D01*
X54209453Y-86800000D02*
X54193742Y-86800000D01*
X36207500Y-63919016D02*
X36207500Y-63865983D01*
X37007037Y-86730000D02*
X37002355Y-86730000D01*
X36825198Y-86730000D02*
X36809613Y-86730000D01*
X54513177Y-64000000D02*
X54520968Y-64000000D01*
X53977445Y-109200000D02*
X53972640Y-109200000D01*
X54525758Y-109200000D02*
X54527045Y-109200000D01*
X36510186Y-86730000D02*
X36503129Y-86730000D01*
X37250625Y-109103125D02*
X37239375Y-109091875D01*
X54268723Y-109200000D02*
X54253260Y-109200000D01*
X54052880Y-109200000D02*
X54041175Y-109200000D01*
X37311220Y-86730000D02*
X37307536Y-86730000D01*
X55349555Y-64000000D02*
X55295024Y-64000000D01*
X54025497Y-109200000D02*
X54021739Y-109200000D01*
X54585965Y-64000000D02*
X54581808Y-64000000D01*
X54041175Y-109200000D02*
X54029470Y-109200000D01*
X54002780Y-109200000D02*
X53998498Y-109200000D01*
X55396912Y-64000000D02*
X55404087Y-64000000D01*
X53965756Y-64000000D02*
X53961988Y-64000000D01*
X54026185Y-64000000D02*
X54009226Y-64000000D01*
X54545989Y-86800000D02*
X54554958Y-86800000D01*
X36486422Y-86730000D02*
X36484904Y-86730000D01*
X54804306Y-64000000D02*
X54795993Y-64000000D01*
X37598900Y-86730000D02*
X37552848Y-86730000D01*
X55105439Y-86800000D02*
X55079899Y-86800000D01*
X54253260Y-109200000D02*
X54237797Y-109200000D01*
X54293834Y-64000000D02*
X54285712Y-64000000D01*
X54496549Y-64000000D02*
X54479921Y-64000000D01*
X37011719Y-86730000D02*
X37007037Y-86730000D01*
X37019946Y-86730000D02*
X37016401Y-86730000D01*
X53980961Y-64000000D02*
X53974593Y-64000000D01*
X55257370Y-109200000D02*
X55242995Y-109200000D01*
X54226779Y-86800000D02*
X54234634Y-86800000D01*
X54037312Y-86800000D02*
X54027131Y-86800000D01*
X55370151Y-86800000D02*
X55316743Y-86800000D01*
X54627435Y-86800000D02*
X54586712Y-86800000D01*
X54265775Y-86800000D02*
X54254132Y-86800000D01*
X53815000Y-64145104D02*
X53815000Y-86804393D01*
X55513151Y-64000000D02*
X55484453Y-64000000D01*
X54746081Y-64000000D02*
X54687855Y-64000000D01*
X36606914Y-86730000D02*
X36613092Y-86730000D01*
X54390310Y-109200000D02*
X54366519Y-109200000D01*
X38028507Y-86730000D02*
X38061858Y-86730000D01*
X54553316Y-109200000D02*
X54544559Y-109200000D01*
X54955621Y-64000000D02*
X54954013Y-64000000D01*
X53982715Y-64000000D02*
X53980961Y-64000000D01*
X54057568Y-64000000D02*
X54085900Y-64000000D01*
X36788308Y-86730000D02*
X36776535Y-86730000D01*
X54525758Y-109200000D02*
X54519575Y-109200000D01*
X55156519Y-86800000D02*
X55130979Y-86800000D01*
X36747537Y-86730000D02*
X36746668Y-86730000D01*
X38124796Y-86730000D02*
X38222968Y-86730000D01*
X54103051Y-64000000D02*
X54098371Y-64000000D01*
X54531448Y-86800000D02*
X54526115Y-86800000D01*
X37039945Y-86730000D02*
X37031718Y-86730000D01*
X54226779Y-86800000D02*
X54222991Y-86800000D01*
X53879600Y-86800000D02*
X53881842Y-86800000D01*
X54229425Y-109200000D02*
X54228998Y-109200000D01*
X54715464Y-109200000D02*
X54689963Y-109200000D01*
X54500420Y-86800000D02*
X54464544Y-86800000D01*
X36554866Y-86730000D02*
X36551923Y-86730000D01*
X55599245Y-64000000D02*
X55570547Y-64000000D01*
X54428668Y-86800000D02*
X54392792Y-86800000D01*
X36207500Y-108615000D02*
X36207500Y-109600000D01*
X54564781Y-109200000D02*
X54554219Y-109200000D01*
X88892528Y-154331898D02*
X88919300Y-149590000D01*
X54366519Y-109200000D02*
X54342728Y-109200000D01*
X55349555Y-64000000D02*
X55356729Y-64000000D01*
X54027131Y-86800000D02*
X54015738Y-86800000D01*
X37985000Y-131230000D02*
X38692500Y-131230000D01*
X37797315Y-86730000D02*
X37768838Y-86730000D01*
X54147944Y-109200000D02*
X54130815Y-109200000D01*
X54954013Y-64000000D02*
X54887473Y-64000000D01*
X36776535Y-86730000D02*
X36764762Y-86730000D01*
X55008486Y-86800000D02*
X55079899Y-86800000D01*
X54993097Y-109200000D02*
X54963178Y-109200000D01*
X36548546Y-86730000D02*
X36538848Y-86730000D01*
X55881953Y-64000000D02*
X55827422Y-64000000D01*
X55146951Y-109200000D02*
X55127680Y-109200000D01*
X36496808Y-86730000D02*
X36491223Y-86730000D01*
X54795993Y-64000000D02*
X54787672Y-64000000D01*
X54222871Y-64000000D02*
X54234767Y-64000000D01*
X54229852Y-109200000D02*
X54229425Y-109200000D01*
X54390310Y-109200000D02*
X54403916Y-109200000D01*
X37210445Y-86730000D02*
X37165763Y-86730000D01*
X37068172Y-86730000D02*
X37072854Y-86730000D01*
X53992591Y-64000000D02*
X53993630Y-64000000D01*
X55180637Y-109200000D02*
X55171079Y-109200000D01*
X53992591Y-64000000D02*
X53982715Y-64000000D01*
X36578244Y-86730000D02*
X36565602Y-86730000D01*
X36788308Y-86730000D02*
X36792288Y-86730000D01*
X54846669Y-109200000D02*
X54806208Y-109200000D01*
X54021739Y-109200000D02*
X54017981Y-109200000D01*
X38028507Y-86730000D02*
X37930335Y-86730000D01*
X54806208Y-109200000D02*
X54765747Y-109200000D01*
X55696983Y-86800000D02*
X55627613Y-86800000D01*
X55276640Y-109200000D02*
X55267005Y-109200000D01*
X54574440Y-109200000D02*
X54564781Y-109200000D01*
X36879445Y-86730000D02*
X36840783Y-86730000D01*
X36990323Y-86730000D02*
X36980306Y-86730000D01*
X53867177Y-86800000D02*
X53864503Y-86800000D01*
X72799999Y-54099999D02*
X70393792Y-51693792D01*
X54254132Y-86800000D02*
X54234634Y-86800000D01*
X55242995Y-109200000D02*
X55204609Y-109200000D01*
X55182330Y-64000000D02*
X55105598Y-64000000D01*
X54839646Y-64000000D02*
X54829245Y-64000000D01*
X55353489Y-109200000D02*
X55377500Y-109200000D01*
X55070024Y-109200000D02*
X55094074Y-109200000D01*
X54035412Y-64000000D02*
X54026185Y-64000000D01*
X54189085Y-64000000D02*
X54187787Y-64000000D01*
X54881469Y-86800000D02*
X54754452Y-86800000D01*
X54820932Y-64000000D02*
X54812619Y-64000000D01*
X36578244Y-86730000D02*
X36593386Y-86730000D01*
X36764762Y-86730000D02*
X36752989Y-86730000D01*
X54156596Y-64000000D02*
X54125405Y-64000000D01*
X36997673Y-86730000D02*
X36992991Y-86730000D01*
X55204609Y-109200000D02*
X55190195Y-109200000D01*
X36638068Y-86730000D02*
X36651287Y-86730000D01*
X53815000Y-109345104D02*
X53815000Y-109224895D01*
X54183993Y-86800000D02*
X54148784Y-86800000D01*
X54581808Y-64000000D02*
X54554774Y-64000000D01*
X54513177Y-64000000D02*
X54496549Y-64000000D01*
X36565602Y-86730000D02*
X36560752Y-86730000D01*
X55541849Y-64000000D02*
X55513151Y-64000000D01*
X54009226Y-64000000D02*
X54001428Y-64000000D01*
X37101081Y-86730000D02*
X37072854Y-86730000D01*
X54106216Y-109200000D02*
X54104027Y-109200000D01*
X36525178Y-86730000D02*
X36538848Y-86730000D01*
X36739044Y-86730000D02*
X36726402Y-86730000D01*
X54219203Y-86800000D02*
X54215415Y-86800000D01*
X37311220Y-86730000D02*
X37364489Y-86730000D01*
X53926452Y-86800000D02*
X53917650Y-86800000D01*
X36671286Y-86730000D02*
X36651287Y-86730000D01*
X54550617Y-64000000D02*
X54531897Y-64000000D01*
X53967835Y-109200000D02*
X53965171Y-109200000D01*
X53847248Y-86800000D02*
X53850353Y-86800000D01*
X36207500Y-129403395D02*
X36207500Y-109600000D01*
X54463293Y-64000000D02*
X54446665Y-64000000D01*
X36938550Y-86730000D02*
X36895899Y-86730000D01*
X54664462Y-109200000D02*
X54674217Y-109200000D01*
X54550617Y-64000000D02*
X54554774Y-64000000D01*
X54036517Y-64000000D02*
X54035412Y-64000000D01*
X37315506Y-109130000D02*
X38692500Y-109130000D01*
X54523060Y-64000000D02*
X54531897Y-64000000D01*
X55025378Y-64000000D02*
X55028866Y-64000000D01*
X36638068Y-86730000D02*
X36623369Y-86730000D01*
X54176586Y-109200000D02*
X54147944Y-109200000D01*
X36796101Y-86730000D02*
X36792288Y-86730000D01*
X53815000Y-64024895D02*
X53815000Y-50125606D01*
X37552848Y-86730000D02*
X37506796Y-86730000D01*
X55881953Y-64000000D02*
X55909219Y-64000000D01*
X37797315Y-86730000D02*
X37832163Y-86730000D01*
X54846669Y-109200000D02*
X54929000Y-109200000D01*
X36887672Y-86730000D02*
X36879445Y-86730000D01*
X54621314Y-64000000D02*
X54585965Y-64000000D01*
X36615434Y-86730000D02*
X36614263Y-86730000D01*
X88879300Y-159018139D02*
X88879300Y-161675000D01*
X54545989Y-86800000D02*
X54541142Y-86800000D01*
X54116568Y-64000000D02*
X54103051Y-64000000D01*
X54148784Y-86800000D02*
X54113575Y-86800000D01*
X53946897Y-86800000D02*
X53936201Y-86800000D01*
X55627613Y-86800000D02*
X55558243Y-86800000D01*
X53996588Y-86800000D02*
X53987619Y-86800000D01*
X36502393Y-86730000D02*
X36503129Y-86730000D01*
X36746668Y-86730000D02*
X36745799Y-86730000D01*
X55263335Y-86800000D02*
X55235467Y-86800000D01*
X36967948Y-86730000D02*
X36953249Y-86730000D01*
X54378032Y-64000000D02*
X54446665Y-64000000D01*
X54712517Y-86800000D02*
X54754452Y-86800000D01*
X54500420Y-86800000D02*
X54510601Y-86800000D01*
X37068172Y-86730000D02*
X37039945Y-86730000D01*
X55130979Y-86800000D02*
X55105439Y-86800000D01*
X36990323Y-86730000D02*
X36992991Y-86730000D01*
X54096557Y-109200000D02*
X54083806Y-109200000D01*
X54678211Y-109200000D02*
X54676214Y-109200000D01*
X54541142Y-86800000D02*
X54536295Y-86800000D01*
X80556619Y-88456619D02*
X75987584Y-83887584D01*
X54454919Y-109200000D02*
X54403916Y-109200000D01*
X54351343Y-86800000D02*
X54308559Y-86800000D01*
X54642955Y-109200000D02*
X54621448Y-109200000D01*
X54349966Y-64000000D02*
X54321900Y-64000000D01*
X54069066Y-86800000D02*
X54037312Y-86800000D01*
X55558243Y-86800000D02*
X55488873Y-86800000D01*
X55484453Y-64000000D02*
X55470820Y-64000000D01*
X54100820Y-86800000D02*
X54113575Y-86800000D01*
X36623369Y-86730000D02*
X36616605Y-86730000D01*
X54183993Y-86800000D02*
X54193742Y-86800000D01*
X53935254Y-86800000D02*
X53926452Y-86800000D01*
X54669370Y-86800000D02*
X54668158Y-86800000D01*
X53815000Y-86825606D02*
X53815000Y-86804393D01*
X53935254Y-86800000D02*
X53936201Y-86800000D01*
X53897720Y-86800000D02*
X53889781Y-86800000D01*
X55467956Y-64000000D02*
X55455755Y-64000000D01*
X55025378Y-64000000D02*
X54955621Y-64000000D01*
X36207500Y-86777595D02*
X36207500Y-63919016D01*
X54237797Y-109200000D02*
X54229852Y-109200000D01*
X53998498Y-109200000D02*
X53994216Y-109200000D01*
X37031718Y-86730000D02*
X37019946Y-86730000D01*
X55222115Y-86800000D02*
X55235467Y-86800000D01*
X36742500Y-130695000D02*
X36777221Y-130729721D01*
X53889781Y-86800000D02*
X53881842Y-86800000D01*
X53994216Y-109200000D02*
X53991028Y-109200000D01*
X36616605Y-86730000D02*
X36615434Y-86730000D01*
X37719752Y-86730000D02*
X37740361Y-86730000D01*
X36953249Y-86730000D02*
X36938550Y-86730000D01*
X54057568Y-64000000D02*
X54050551Y-64000000D01*
X54014526Y-86800000D02*
X54005557Y-86800000D01*
X36525178Y-86730000D02*
X36517536Y-86730000D01*
X54130815Y-109200000D02*
X54113686Y-109200000D01*
X53815000Y-86825606D02*
X53815000Y-109224895D01*
X54187787Y-64000000D02*
X54156596Y-64000000D01*
X37307536Y-86730000D02*
X37303852Y-86730000D01*
X36207500Y-108615000D02*
X36207500Y-87007404D01*
X54689963Y-109200000D02*
X54678211Y-109200000D01*
X54228998Y-109200000D02*
X54221694Y-109200000D01*
X54351343Y-86800000D02*
X54392792Y-86800000D01*
X54513392Y-109200000D02*
X54502831Y-109200000D01*
X55276640Y-109200000D02*
X55305468Y-109200000D01*
X55423559Y-86800000D02*
X55370151Y-86800000D01*
X36809613Y-86730000D02*
X36799914Y-86730000D01*
X54331216Y-109200000D02*
X54342728Y-109200000D01*
X54544559Y-109200000D02*
X54535802Y-109200000D01*
X54523060Y-64000000D02*
X54522014Y-64000000D01*
X55310358Y-86800000D02*
X55316743Y-86800000D01*
X53977445Y-109200000D02*
X53980371Y-109200000D01*
X55691095Y-64000000D02*
X55599245Y-64000000D01*
X54868760Y-64000000D02*
X54839646Y-64000000D01*
X55396912Y-64000000D02*
X55356729Y-64000000D01*
X55105598Y-64000000D02*
X55028866Y-64000000D01*
X37129308Y-86730000D02*
X37101081Y-86730000D01*
X54350000Y-130765000D02*
X54384721Y-130799721D01*
X54765747Y-109200000D02*
X54744346Y-109200000D01*
X54664462Y-109200000D02*
X54642955Y-109200000D01*
X37643132Y-86730000D02*
X37622522Y-86730000D01*
X55182059Y-86800000D02*
X55156519Y-86800000D01*
X55469388Y-64000000D02*
X55467956Y-64000000D01*
X54090057Y-64000000D02*
X54085900Y-64000000D01*
X36691285Y-86730000D02*
X36671286Y-86730000D01*
X36745799Y-86730000D02*
X36739044Y-86730000D01*
X54268723Y-109200000D02*
X54284400Y-109200000D01*
X36799914Y-86730000D02*
X36796101Y-86730000D01*
X54025497Y-109200000D02*
X54029470Y-109200000D01*
X54321900Y-64000000D02*
X54293834Y-64000000D01*
X36517243Y-86730000D02*
X36517536Y-86730000D01*
X53957593Y-86800000D02*
X53946897Y-86800000D01*
X55470820Y-64000000D02*
X55469388Y-64000000D01*
X54535802Y-109200000D02*
X54527045Y-109200000D01*
X55182330Y-64000000D02*
X55240493Y-64000000D01*
X55488873Y-86800000D02*
X55423559Y-86800000D01*
X37210445Y-86730000D02*
X37303852Y-86730000D01*
X54712517Y-86800000D02*
X54669370Y-86800000D01*
X54487891Y-109200000D02*
X54472951Y-109200000D01*
X54676214Y-109200000D02*
X54674217Y-109200000D01*
X36895899Y-86730000D02*
X36887672Y-86730000D01*
X38124796Y-86730000D02*
X38093327Y-86730000D01*
X36207500Y-54354963D02*
X36207500Y-63865983D01*
X54668158Y-86800000D02*
X54627435Y-86800000D01*
X37677038Y-86730000D02*
X37661304Y-86730000D01*
X54265767Y-64000000D02*
X54261344Y-64000000D01*
X36980306Y-86730000D02*
X36967948Y-86730000D01*
X54577743Y-86800000D02*
X54554958Y-86800000D01*
X37157535Y-86730000D02*
X37129308Y-86730000D01*
X36606914Y-86730000D02*
X36593386Y-86730000D01*
X36614263Y-86730000D02*
X36613092Y-86730000D01*
X53815016Y-86804393D02*
G75*
G03*
X53822500Y-86807500I4384J-7D01*
G01*
X36207507Y-63865983D02*
G75*
G03*
X36226250Y-63911250I63993J-17D01*
G01*
X36777212Y-130729730D02*
G75*
G03*
X37985000Y-131230000I1207788J1207830D01*
G01*
X53815003Y-86825606D02*
G75*
G02*
X53822500Y-86807500I25597J6D01*
G01*
X37315506Y-109129982D02*
G75*
G02*
X37250625Y-109103125I-6J91782D01*
G01*
X80556611Y-88456627D02*
G75*
G03*
X82810000Y-89390000I2253389J2253427D01*
G01*
X36207500Y-109600000D02*
G75*
G02*
X36700000Y-109107500I492500J0D01*
G01*
X53789393Y-50100003D02*
G75*
G02*
X53807500Y-50107500I7J-25597D01*
G01*
X37453761Y-51346261D02*
G75*
G02*
X40462463Y-50100000I3008739J-3008739D01*
G01*
X36207512Y-86777595D02*
G75*
G03*
X36288750Y-86811250I47588J-5D01*
G01*
X53857499Y-64042499D02*
G75*
G03*
X53815000Y-64145104I102601J-102601D01*
G01*
X70393784Y-51693800D02*
G75*
G03*
X66546036Y-50100000I-3847784J-3847800D01*
G01*
X74393760Y-80039828D02*
G75*
G03*
X75987584Y-83887584I5441540J28D01*
G01*
X36484904Y-86730003D02*
G75*
G03*
X36288751Y-86811251I-4J-277397D01*
G01*
X54384712Y-130799730D02*
G75*
G03*
X55592500Y-131300000I1207788J1207830D01*
G01*
X88892528Y-154331898D02*
G75*
G03*
X88879300Y-159018139I830081372J-4686202D01*
G01*
X36226245Y-63911255D02*
G75*
G03*
X36271516Y-63930000I45255J45255D01*
G01*
X53815010Y-109224895D02*
G75*
G03*
X53857500Y-109242500I24890J-5D01*
G01*
X53815010Y-64024895D02*
G75*
G03*
X53857500Y-64042500I24890J-5D01*
G01*
X37208134Y-109091885D02*
G75*
G02*
X37170402Y-109107500I-37734J37785D01*
G01*
X53810606Y-50100016D02*
G75*
G03*
X53807500Y-50107500I-6J-4384D01*
G01*
X53857499Y-64042499D02*
G75*
G02*
X53960104Y-64000000I102601J-102601D01*
G01*
X37208126Y-109091876D02*
G75*
G02*
X37239374Y-109091876I15624J-15621D01*
G01*
X36207500Y-108615000D02*
G75*
G03*
X36700000Y-109107500I492500J0D01*
G01*
X36207503Y-87007404D02*
G75*
G02*
X36288751Y-86811251I277397J4D01*
G01*
X37453751Y-51346251D02*
G75*
G03*
X36207500Y-54354963I3008699J-3008709D01*
G01*
X53857499Y-109242499D02*
G75*
G02*
X53960104Y-109200000I102601J-102601D01*
G01*
X53814997Y-50125606D02*
G75*
G03*
X53807500Y-50107500I-25597J6D01*
G01*
X53840606Y-86800003D02*
G75*
G03*
X53822500Y-86807500I-6J-25597D01*
G01*
X36207502Y-129403395D02*
G75*
G03*
X36742500Y-130695000I1826598J-5D01*
G01*
X36207540Y-63919016D02*
G75*
G02*
X36226250Y-63911250I10960J16D01*
G01*
X54349999Y-130765001D02*
G75*
G02*
X53815000Y-129473395I1291601J1291601D01*
G01*
X53815002Y-109345104D02*
G75*
G02*
X53857500Y-109242500I145098J4D01*
G01*
X74393810Y-57947755D02*
G75*
G03*
X72799998Y-54100000I-5441610J-45D01*
G01*
%TO.N,/SDA_0*%
X43255415Y-86830000D02*
X43245733Y-86830000D01*
X43670000Y-129897127D02*
X43670000Y-129933081D01*
X43268703Y-109300000D02*
X43252660Y-109300000D01*
X42999426Y-109300000D02*
X42984321Y-109300000D01*
X43670000Y-128003138D02*
X43670000Y-128086582D01*
X60454224Y-131370000D02*
X60449921Y-131370000D01*
X59841081Y-131370000D02*
X59782253Y-131370000D01*
X43670000Y-129187447D02*
X43670000Y-129255732D01*
X42204196Y-86830000D02*
X42084196Y-86830000D01*
X43670000Y-130592701D02*
X43670000Y-130607461D01*
X43005770Y-86830000D02*
X43004472Y-86830000D01*
X42794844Y-86830000D02*
X42788539Y-86830000D01*
X59925777Y-109370000D02*
X59933378Y-109370000D01*
X60349967Y-109370000D02*
X60344007Y-109370000D01*
X60710214Y-109370000D02*
X60687310Y-109370000D01*
X42419109Y-86830000D02*
X42398840Y-86830000D01*
X43424420Y-86830000D02*
X43412332Y-86830000D01*
X59197421Y-109370000D02*
X59086015Y-109370000D01*
X60092887Y-109370000D02*
X60076800Y-109370000D01*
X58965599Y-131370000D02*
X58987660Y-131370000D01*
X42768955Y-109300000D02*
X42780223Y-109300000D01*
X61132477Y-109370000D02*
X61113109Y-109370000D01*
X60621482Y-131370000D02*
X60612266Y-131370000D01*
X61073600Y-131370000D02*
X61071359Y-131370000D01*
X61195908Y-109370000D02*
X61193441Y-109370000D01*
X60025743Y-131370000D02*
X60011036Y-131370000D01*
X43670000Y-130769928D02*
X43670000Y-130780126D01*
X43670000Y-125749214D02*
X43670000Y-125470341D01*
X43218247Y-109300000D02*
X43165464Y-109300000D01*
X43670000Y-130872954D02*
X43670000Y-130895893D01*
X42821702Y-109300000D02*
X42810364Y-109300000D01*
X43497729Y-86830000D02*
X43494609Y-86830000D01*
X60979646Y-131370000D02*
X60997493Y-131370000D01*
X42411226Y-109300000D02*
X42432624Y-109300000D01*
X42568677Y-109300000D02*
X42549599Y-109300000D01*
X60969809Y-109370000D02*
X60969413Y-109370000D01*
X60755475Y-131370000D02*
X60755755Y-131370000D01*
X43670000Y-130905518D02*
X43670000Y-130909208D01*
X43670000Y-129103869D02*
X43670000Y-129119162D01*
X43670000Y-130988896D02*
X43670000Y-130996475D01*
X59656417Y-131370000D02*
X59648237Y-131370000D01*
X43670000Y-128799212D02*
X43670000Y-128791966D01*
X43670000Y-129043766D02*
X43670000Y-129050878D01*
X43670000Y-129992918D02*
X43670000Y-129933081D01*
X43670000Y-129851776D02*
X43670000Y-129870025D01*
X42753745Y-109300000D02*
X42733836Y-109300000D01*
X43288360Y-109300000D02*
X43283706Y-109300000D01*
X43670000Y-130981317D02*
X43670000Y-130988896D01*
X42234320Y-109300000D02*
X42227336Y-109300000D01*
X42369107Y-86830000D02*
X42378571Y-86830000D01*
X42810364Y-109300000D02*
X42780223Y-109300000D01*
X42727903Y-86830000D02*
X42693784Y-86830000D01*
X42442433Y-86830000D02*
X42433640Y-86830000D01*
X42361000Y-109300000D02*
X42347032Y-109300000D01*
X43670000Y-128914310D02*
X43670000Y-128975482D01*
X61015467Y-131370000D02*
X61006480Y-131370000D01*
X60225840Y-131370000D02*
X60293015Y-131370000D01*
X60458527Y-131370000D02*
X60454224Y-131370000D01*
X43548771Y-109300000D02*
X43545310Y-109300000D01*
X61240392Y-109370000D02*
X61244513Y-109370000D01*
X43670000Y-130370687D02*
X43670000Y-130462444D01*
X58838831Y-109370000D02*
X58849276Y-109370000D01*
X43670000Y-130782270D02*
X43670000Y-130784414D01*
X60630791Y-109370000D02*
X60623343Y-109370000D01*
X61078097Y-109370000D02*
X61062454Y-109370000D01*
X59086015Y-109370000D02*
X59047719Y-109370000D01*
X59467503Y-109370000D02*
X59420233Y-109370000D01*
X43466827Y-86830000D02*
X43470304Y-86830000D01*
X59501233Y-109370000D02*
X59544288Y-109370000D01*
X43670000Y-129119162D02*
X43670000Y-129187447D01*
X58838831Y-109370000D02*
X58831868Y-109370000D01*
X60950508Y-131370000D02*
X60943799Y-131370000D01*
X43670000Y-124612696D02*
X43670000Y-125178088D01*
X42067677Y-86830000D02*
X42051158Y-86830000D01*
X42303344Y-109300000D02*
X42317758Y-109300000D01*
X59983273Y-131370000D02*
X59989801Y-131370000D01*
X59219296Y-131370000D02*
X59101640Y-131370000D01*
X42262321Y-86830000D02*
X42204196Y-86830000D01*
X43670000Y-130591256D02*
X43670000Y-130592701D01*
X60225840Y-131370000D02*
X60176857Y-131370000D01*
X60755475Y-131370000D02*
X60720087Y-131370000D01*
X43670000Y-128678470D02*
X43670000Y-128724082D01*
X43480632Y-109300000D02*
X43467437Y-109300000D01*
X59061196Y-131370000D02*
X59024428Y-131370000D01*
X59957013Y-109370000D02*
X59975598Y-109370000D01*
X59418863Y-131370000D02*
X59372697Y-131370000D01*
X60127041Y-131370000D02*
X60076392Y-131370000D01*
X43491502Y-109300000D02*
X43507076Y-109300000D01*
X43245733Y-86830000D02*
X43231241Y-86830000D01*
X43376555Y-86830000D02*
X43383346Y-86830000D01*
X43670000Y-86800710D02*
X43670000Y-109180502D01*
X42768955Y-109300000D02*
X42761350Y-109300000D01*
X43670000Y-129744458D02*
X43670000Y-129798117D01*
X60636999Y-131370000D02*
X60623582Y-131370000D01*
X43670000Y-128853138D02*
X43670000Y-128914310D01*
X42873835Y-86830000D02*
X42861226Y-86830000D01*
X60959316Y-131370000D02*
X60954912Y-131370000D01*
X43670000Y-130082546D02*
X43670000Y-130091126D01*
X43670000Y-126310783D02*
X43670000Y-126523283D01*
X43670000Y-128830332D02*
X43670000Y-128853138D01*
X43670000Y-128086582D02*
X43670000Y-128132194D01*
X43670000Y-130850015D02*
X43670000Y-130872954D01*
X43670000Y-130702308D02*
X43670000Y-130636981D01*
X43144837Y-109300000D02*
X43165464Y-109300000D01*
X59505256Y-131370000D02*
X59479932Y-131370000D01*
X43009664Y-86830000D02*
X43015481Y-86830000D01*
X60890055Y-131370000D02*
X60872284Y-131370000D01*
X60647738Y-109370000D02*
X60664406Y-109370000D01*
X60443060Y-131370000D02*
X60425035Y-131370000D01*
X58957201Y-109370000D02*
X58978089Y-109370000D01*
X61277500Y-86372500D02*
X61277500Y-86672500D01*
X58824905Y-109370000D02*
X58817943Y-109370000D01*
X60925978Y-131370000D02*
X60908157Y-131370000D01*
X58957201Y-109370000D02*
X58950239Y-109370000D01*
X60636999Y-131370000D02*
X60648316Y-131370000D01*
X61060176Y-131370000D02*
X61062423Y-131370000D01*
X60585432Y-131370000D02*
X60567814Y-131370000D01*
X43007068Y-86830000D02*
X43005770Y-86830000D01*
X43670000Y-109279497D02*
X43670000Y-109180502D01*
X59484368Y-109370000D02*
X59467503Y-109370000D01*
X43041997Y-86830000D02*
X43028414Y-86830000D01*
X43670000Y-127084852D02*
X43670000Y-127145490D01*
X61264696Y-109370000D02*
X61262670Y-109370000D01*
X43070461Y-86830000D02*
X43114812Y-86830000D01*
X42946765Y-109300000D02*
X42946626Y-109300000D01*
X58825883Y-131370000D02*
X58818529Y-131370000D01*
X43670000Y-121780000D02*
X43670000Y-109279497D01*
X42733836Y-109300000D02*
X42690558Y-109300000D01*
X43008366Y-86830000D02*
X43007068Y-86830000D01*
X59843499Y-109370000D02*
X59815648Y-109370000D01*
X43397253Y-86830000D02*
X43412332Y-86830000D01*
X43670000Y-129992918D02*
X43670000Y-130017602D01*
X43670000Y-130116866D02*
X43670000Y-130122773D01*
X42494819Y-86830000D02*
X42456964Y-86830000D01*
X60836742Y-131370000D02*
X60827653Y-131370000D01*
X43260288Y-86830000D02*
X43255415Y-86830000D01*
X60847798Y-131370000D02*
X60843457Y-131370000D01*
X43670000Y-126796421D02*
X43670000Y-126948283D01*
X59479932Y-131370000D02*
X59454608Y-131370000D01*
X60561309Y-131370000D02*
X60556700Y-131370000D01*
X58840591Y-131370000D02*
X58833237Y-131370000D01*
X43670000Y-129672551D02*
X43670000Y-129703943D01*
X42858723Y-86830000D02*
X42861226Y-86830000D01*
X60405088Y-109370000D02*
X60417751Y-109370000D01*
X42333064Y-109300000D02*
X42332618Y-109300000D01*
X42910458Y-86830000D02*
X42890246Y-86830000D01*
X43497729Y-86830000D02*
X43499289Y-86830000D01*
X42969285Y-109300000D02*
X42984321Y-109300000D01*
X60603050Y-131370000D02*
X60600542Y-131370000D01*
X42938900Y-109300000D02*
X42923864Y-109300000D01*
X60404655Y-131370000D02*
X60391340Y-131370000D01*
X43460197Y-86830000D02*
X43446159Y-86830000D01*
X60467659Y-109370000D02*
X60455740Y-109370000D01*
X43356182Y-86830000D02*
X43342924Y-86830000D01*
X43670000Y-124047304D02*
X43670000Y-124612696D01*
X59983273Y-131370000D02*
X59975094Y-131370000D01*
X43670000Y-130495008D02*
X43670000Y-130462444D01*
X43670000Y-130062680D02*
X43670000Y-130042286D01*
X42946904Y-109300000D02*
X42954318Y-109300000D01*
X58811176Y-131370000D02*
X58807500Y-131370000D01*
X43670000Y-127160783D02*
X43670000Y-127176076D01*
X43133309Y-109300000D02*
X43121781Y-109300000D01*
X43670000Y-129816094D02*
X43670000Y-129798117D01*
X42870926Y-109300000D02*
X42855716Y-109300000D01*
X43466827Y-86830000D02*
X43463512Y-86830000D01*
X59454608Y-131370000D02*
X59429284Y-131370000D01*
X43670000Y-127145490D02*
X43670000Y-127160783D01*
X43483594Y-86830000D02*
X43480572Y-86830000D01*
X42259656Y-109300000D02*
X42241304Y-109300000D01*
X60979679Y-109370000D02*
X60969809Y-109370000D01*
X43670000Y-128215638D02*
X43670000Y-128336914D01*
X42833413Y-86830000D02*
X42843519Y-86830000D01*
X43529735Y-109300000D02*
X43518414Y-109300000D01*
X43670000Y-128549414D02*
X43670000Y-128610586D01*
X60779027Y-109370000D02*
X60774929Y-109370000D01*
X42433640Y-86830000D02*
X42424847Y-86830000D01*
X43537757Y-109300000D02*
X43533034Y-109300000D01*
X61193441Y-109370000D02*
X61190974Y-109370000D01*
X43670000Y-129323750D02*
X43670000Y-129255732D01*
X60575856Y-109370000D02*
X60589637Y-109370000D01*
X60592140Y-131370000D02*
X60585432Y-131370000D01*
X43670000Y-129600644D02*
X43670000Y-129550742D01*
X43670000Y-130370687D02*
X43670000Y-130328299D01*
X42761350Y-109300000D02*
X42753745Y-109300000D01*
X59336952Y-131370000D02*
X59372697Y-131370000D01*
X43670000Y-130905518D02*
X43670000Y-130895893D01*
X43463512Y-86830000D02*
X43460197Y-86830000D01*
X43399498Y-109300000D02*
X43391945Y-109300000D01*
X43670000Y-129833799D02*
X43670000Y-129851504D01*
X43670000Y-130909208D02*
X43670000Y-130912898D01*
X60770831Y-109370000D02*
X60710214Y-109370000D01*
X42570529Y-86830000D02*
X42576892Y-86830000D01*
X58831868Y-109370000D02*
X58824905Y-109370000D01*
X43400000Y-131300000D02*
X41200000Y-131300000D01*
X43670000Y-128814772D02*
X43670000Y-128830332D01*
X43375907Y-86830000D02*
X43369440Y-86830000D01*
X61062454Y-109370000D02*
X61046811Y-109370000D01*
X42762022Y-86830000D02*
X42727903Y-86830000D01*
X43670000Y-129713067D02*
X43670000Y-129722191D01*
X60943799Y-131370000D02*
X60925978Y-131370000D01*
X43670000Y-127456862D02*
X43670000Y-127722354D01*
X43670000Y-86800710D02*
X43670000Y-86659289D01*
X61048961Y-131370000D02*
X61044505Y-131370000D01*
X42303344Y-109300000D02*
X42259656Y-109300000D01*
X43480632Y-109300000D02*
X43485806Y-109300000D01*
X60827653Y-131370000D02*
X60818564Y-131370000D01*
X42870926Y-109300000D02*
X42886065Y-109300000D01*
X43670000Y-127722354D02*
X43670000Y-127790638D01*
X43542480Y-109300000D02*
X43537757Y-109300000D01*
X43199820Y-86830000D02*
X43151470Y-86830000D01*
X43436508Y-86830000D02*
X43424420Y-86830000D01*
X60596341Y-131370000D02*
X60592140Y-131370000D01*
X43670000Y-129066171D02*
X43670000Y-129103869D01*
X43670000Y-130975582D02*
X43670000Y-130981317D01*
X43279052Y-109300000D02*
X43268703Y-109300000D01*
X43446159Y-86830000D02*
X43443754Y-86830000D01*
X43314508Y-109300000D02*
X43303118Y-109300000D01*
X61195908Y-109370000D02*
X61214135Y-109370000D01*
X59664597Y-131370000D02*
X59656417Y-131370000D01*
X43670000Y-129888274D02*
X43670000Y-129897127D01*
X43670000Y-130078784D02*
X43670000Y-130082546D01*
X60431158Y-109370000D02*
X60417751Y-109370000D01*
X41892500Y-63930000D02*
X41185000Y-63930000D01*
X43070461Y-86830000D02*
X43056229Y-86830000D01*
X43542480Y-109300000D02*
X43545310Y-109300000D01*
X43443754Y-86830000D02*
X43441349Y-86830000D01*
X43252660Y-109300000D02*
X43236617Y-109300000D01*
X43097403Y-109300000D02*
X43037120Y-109300000D01*
X42805599Y-86830000D02*
X42794844Y-86830000D01*
X58818529Y-131370000D02*
X58811176Y-131370000D01*
X58817943Y-109370000D02*
X58810981Y-109370000D01*
X43422155Y-109300000D02*
X43407084Y-109300000D01*
X43670000Y-126948283D02*
X43670000Y-127084852D01*
X60600542Y-131370000D02*
X60596341Y-131370000D01*
X59843499Y-109370000D02*
X59867135Y-109370000D01*
X43376805Y-109300000D02*
X43361665Y-109300000D01*
X58833237Y-131370000D02*
X58825883Y-131370000D01*
X60540978Y-131370000D02*
X60514143Y-131370000D01*
X61051214Y-131370000D02*
X61048961Y-131370000D01*
X42690558Y-109300000D02*
X42647280Y-109300000D01*
X43376555Y-86830000D02*
X43376231Y-86830000D01*
X43670000Y-130780126D02*
X43670000Y-130782270D01*
X61104356Y-109370000D02*
X61102493Y-109370000D01*
X42836634Y-109300000D02*
X42840506Y-109300000D01*
X61183967Y-109370000D02*
X61167486Y-109370000D01*
X58904980Y-109370000D02*
X58877128Y-109370000D01*
X43441349Y-86830000D02*
X43436508Y-86830000D01*
X43342924Y-86830000D02*
X43329666Y-86830000D01*
X43670000Y-130567516D02*
X43670000Y-130548266D01*
X43585000Y-131215000D02*
X43570710Y-131229289D01*
X60315700Y-109370000D02*
X60265047Y-109370000D01*
X42332618Y-109300000D02*
X42317758Y-109300000D01*
X61300000Y-131591923D02*
X61300000Y-131408076D01*
X60802964Y-131370000D02*
X60791704Y-131370000D01*
X42411226Y-109300000D02*
X42382398Y-109300000D01*
X59101640Y-131370000D02*
X59061196Y-131370000D01*
X43670000Y-125462695D02*
X43670000Y-125466518D01*
X58939863Y-131370000D02*
X58910449Y-131370000D01*
X42829168Y-109300000D02*
X42821702Y-109300000D01*
X88161091Y-86850000D02*
X86670000Y-86850000D01*
X60552091Y-131370000D02*
X60540978Y-131370000D01*
X60608447Y-109370000D02*
X60600999Y-109370000D01*
X42969285Y-109300000D02*
X42954318Y-109300000D01*
X60355697Y-131370000D02*
X60324356Y-131370000D01*
X43670000Y-131001238D02*
X43670000Y-131006940D01*
X43014531Y-109300000D02*
X42999426Y-109300000D01*
X43670000Y-129600644D02*
X43670000Y-129672551D01*
X60469691Y-131370000D02*
X60458527Y-131370000D01*
X43670000Y-130796756D02*
X43670000Y-130823585D01*
X43437226Y-109300000D02*
X43454242Y-109300000D01*
X59024428Y-131370000D02*
X58987660Y-131370000D01*
X43480572Y-86830000D02*
X43470304Y-86830000D01*
X43670000Y-129036654D02*
X43670000Y-129043766D01*
X43670000Y-65756604D02*
X43670000Y-86659289D01*
X42419109Y-86830000D02*
X42424847Y-86830000D01*
X60575856Y-109370000D02*
X60558351Y-109370000D01*
X60847798Y-131370000D02*
X60854513Y-131370000D01*
X61277500Y-93022501D02*
X61277500Y-86863158D01*
X42198508Y-109300000D02*
X42147836Y-109300000D01*
X42858723Y-86830000D02*
X42851121Y-86830000D01*
X60026199Y-109370000D02*
X59975598Y-109370000D01*
X43670000Y-125466518D02*
X43670000Y-125470341D01*
X43670000Y-130226999D02*
X43670000Y-130314339D01*
X60989549Y-109370000D02*
X60979679Y-109370000D01*
X59047719Y-109370000D02*
X59012904Y-109370000D01*
X42946487Y-109300000D02*
X42946348Y-109300000D01*
X43670000Y-130167451D02*
X43670000Y-130197225D01*
X60908157Y-131370000D02*
X60890055Y-131370000D01*
X60425035Y-131370000D02*
X60407010Y-131370000D01*
X43391945Y-109300000D02*
X43376805Y-109300000D01*
X43286772Y-86830000D02*
X43277153Y-86830000D01*
X43670000Y-130314339D02*
X43670000Y-130321319D01*
X43283706Y-109300000D02*
X43279052Y-109300000D01*
X60474363Y-109370000D02*
X60467659Y-109370000D01*
X43131456Y-86830000D02*
X43123134Y-86830000D01*
X43670000Y-130579386D02*
X43670000Y-130591256D01*
X43670000Y-130017602D02*
X43670000Y-130042286D01*
X60647738Y-109370000D02*
X60633957Y-109370000D01*
X42855716Y-109300000D02*
X42840506Y-109300000D01*
X43670000Y-129851776D02*
X43670000Y-129851504D01*
X43670000Y-128761914D02*
X43670000Y-128791966D01*
X60499690Y-109370000D02*
X60474363Y-109370000D01*
X43670000Y-130099706D02*
X43670000Y-130108286D01*
X59750236Y-109370000D02*
X59647262Y-109370000D01*
X60404655Y-131370000D02*
X60407010Y-131370000D01*
X60809939Y-109370000D02*
X60779027Y-109370000D01*
X42568677Y-109300000D02*
X42647280Y-109300000D01*
X42320446Y-86830000D02*
X42262321Y-86830000D01*
X61132477Y-109370000D02*
X61151005Y-109370000D01*
X60127874Y-131370000D02*
X60127041Y-131370000D01*
X43487818Y-86830000D02*
X43483594Y-86830000D01*
X43100278Y-64430278D02*
X43135000Y-64465000D01*
X59957013Y-109370000D02*
X59933378Y-109370000D01*
X60615895Y-109370000D02*
X60608447Y-109370000D01*
X43488654Y-109300000D02*
X43485806Y-109300000D01*
X61026625Y-131370000D02*
X61022182Y-131370000D01*
X59640057Y-131370000D02*
X59505256Y-131370000D01*
X42198508Y-109300000D02*
X42227336Y-109300000D01*
X43492042Y-86830000D02*
X43494609Y-86830000D01*
X89100000Y-87788908D02*
X89100000Y-92082008D01*
X42886444Y-86830000D02*
X42873835Y-86830000D01*
X43670000Y-127790638D02*
X43670000Y-128003138D01*
X60431158Y-109370000D02*
X60431902Y-109370000D01*
X59429284Y-131370000D02*
X59418863Y-131370000D01*
X43670000Y-128678470D02*
X43670000Y-128610586D01*
X61060176Y-131370000D02*
X61051214Y-131370000D01*
X42973759Y-86830000D02*
X42960176Y-86830000D01*
X60979646Y-131370000D02*
X60970633Y-131370000D01*
X43028414Y-86830000D02*
X43015481Y-86830000D01*
X61240392Y-109370000D02*
X61226797Y-109370000D01*
X61221955Y-109370000D02*
X61218045Y-109370000D01*
X42241304Y-109300000D02*
X42234320Y-109300000D01*
X60344007Y-109370000D02*
X60338047Y-109370000D01*
X43277153Y-86830000D02*
X43267534Y-86830000D01*
X86379300Y-149590000D02*
X86379300Y-161675000D01*
X43670000Y-128458190D02*
X43670000Y-128488242D01*
X42836634Y-109300000D02*
X42829168Y-109300000D01*
X43670000Y-126659852D02*
X43670000Y-126796421D01*
X43670000Y-126523283D02*
X43670000Y-126659852D01*
X42530521Y-109300000D02*
X42504248Y-109300000D01*
X59899909Y-131370000D02*
X59841081Y-131370000D01*
X59900481Y-109370000D02*
X59892049Y-109370000D01*
X58840591Y-131370000D02*
X58851621Y-131370000D01*
X61300000Y-131408076D02*
X61300000Y-130645000D01*
X43670000Y-130702308D02*
X43670000Y-130724848D01*
X61071359Y-131370000D02*
X61066891Y-131370000D01*
X59946074Y-131370000D02*
X59912571Y-131370000D01*
X60684367Y-131370000D02*
X60648316Y-131370000D01*
X43670000Y-127456862D02*
X43670000Y-127386666D01*
X43670000Y-130495008D02*
X43670000Y-130521637D01*
X61006480Y-131370000D02*
X60997493Y-131370000D01*
X43514646Y-109300000D02*
X43518414Y-109300000D01*
X42369107Y-86830000D02*
X42329910Y-86830000D01*
X61258619Y-109370000D02*
X61255221Y-109370000D01*
X60969413Y-109370000D02*
X60960335Y-109370000D01*
X43407084Y-109300000D02*
X43399566Y-109300000D01*
X58810981Y-109370000D02*
X58807500Y-109370000D01*
X60684699Y-131370000D02*
X60684367Y-131370000D01*
X61040049Y-131370000D02*
X61026625Y-131370000D01*
X43670000Y-128975482D02*
X43670000Y-128992553D01*
X43144837Y-109300000D02*
X43133309Y-109300000D01*
X43670000Y-129050878D02*
X43670000Y-129066171D01*
X61093740Y-109370000D02*
X61100630Y-109370000D01*
X61076584Y-131370000D02*
X61078076Y-131370000D01*
X60843457Y-131370000D02*
X60839116Y-131370000D01*
X61281250Y-109381250D02*
X61288750Y-109388750D01*
X59782253Y-131370000D02*
X59664597Y-131370000D01*
X43121781Y-109300000D02*
X43097403Y-109300000D01*
X43492042Y-86830000D02*
X43487818Y-86830000D01*
X43670000Y-130607461D02*
X43670000Y-130622221D01*
X61277500Y-86672500D02*
X61277500Y-86781841D01*
X43670000Y-130062680D02*
X43670000Y-130078784D01*
X43670000Y-130944189D02*
X43670000Y-130949824D01*
X43670000Y-130091126D02*
X43670000Y-130099706D01*
X43009664Y-86830000D02*
X43008366Y-86830000D01*
X43325898Y-109300000D02*
X43361665Y-109300000D01*
X58950239Y-109370000D02*
X58943277Y-109370000D01*
X61249867Y-109370000D02*
X61244513Y-109370000D01*
X60816394Y-131370000D02*
X60802964Y-131370000D01*
X59899909Y-131370000D02*
X59912571Y-131370000D01*
X43303118Y-109300000D02*
X43291728Y-109300000D01*
X58881035Y-131370000D02*
X58851621Y-131370000D01*
X42938900Y-109300000D02*
X42946348Y-109300000D01*
X43670000Y-127261566D02*
X43670000Y-127386666D01*
X61066891Y-131370000D02*
X61062423Y-131370000D01*
X59966915Y-131370000D02*
X59958736Y-131370000D01*
X42084196Y-86830000D02*
X42067677Y-86830000D01*
X43231241Y-86830000D02*
X43216749Y-86830000D01*
X43291728Y-109300000D02*
X43288360Y-109300000D01*
X43670000Y-129029542D02*
X43670000Y-129019583D01*
X60875861Y-109370000D02*
X60899348Y-109370000D01*
X61277500Y-86781841D02*
X61277500Y-86863158D01*
X61262670Y-109370000D02*
X61258619Y-109370000D01*
X63277498Y-95022500D02*
X86159508Y-95022500D01*
X60450000Y-133450000D02*
X60911091Y-132988908D01*
X60443060Y-131370000D02*
X60449921Y-131370000D01*
X59946074Y-131370000D02*
X59958736Y-131370000D01*
X42782234Y-86830000D02*
X42762022Y-86830000D01*
X60954912Y-131370000D02*
X60950508Y-131370000D01*
X61093740Y-109370000D02*
X61078097Y-109370000D01*
X43670000Y-129029542D02*
X43670000Y-129036654D01*
X42442433Y-86830000D02*
X42456964Y-86830000D01*
X43670000Y-127261566D02*
X43670000Y-127206662D01*
X42627473Y-86830000D02*
X42693784Y-86830000D01*
X43400000Y-131300000D02*
X43600000Y-131300000D01*
X61022182Y-131370000D02*
X61017739Y-131370000D01*
X61221955Y-109370000D02*
X61226797Y-109370000D01*
X43670000Y-123480000D02*
X43670000Y-124047304D01*
X60499690Y-109370000D02*
X60540846Y-109370000D01*
X61277500Y-65826604D02*
X61277500Y-86372500D01*
X59886555Y-109370000D02*
X59892049Y-109370000D01*
X58943277Y-109370000D02*
X58932832Y-109370000D01*
X60791704Y-131370000D02*
X60755755Y-131370000D01*
X42549599Y-109300000D02*
X42530521Y-109300000D01*
X60175661Y-109370000D02*
X60180385Y-109370000D01*
X43265161Y-86830000D02*
X43267534Y-86830000D01*
X42923864Y-109300000D02*
X42916276Y-109300000D01*
X43670000Y-130122773D02*
X43670000Y-130143167D01*
X59975094Y-131370000D02*
X59966915Y-131370000D01*
X43670000Y-129870025D02*
X43670000Y-129888274D01*
X58965599Y-131370000D02*
X58958246Y-131370000D01*
X58932832Y-109370000D02*
X58904980Y-109370000D01*
X42504248Y-109300000D02*
X42432624Y-109300000D01*
X60175661Y-109370000D02*
X60092887Y-109370000D01*
X60253711Y-109370000D02*
X60180385Y-109370000D01*
X43533034Y-109300000D02*
X43529735Y-109300000D01*
X59886555Y-109370000D02*
X59867135Y-109370000D01*
X60265047Y-109370000D02*
X60253711Y-109370000D01*
X43670000Y-130747388D02*
X43670000Y-130769928D01*
X60687310Y-109370000D02*
X60664406Y-109370000D01*
X60970633Y-131370000D02*
X60961620Y-131370000D01*
X42910458Y-86830000D02*
X42946593Y-86830000D01*
X43670000Y-131001238D02*
X43670000Y-130996475D01*
X59336952Y-131370000D02*
X59219296Y-131370000D01*
X43670000Y-128488242D02*
X43670000Y-128549414D01*
X59500000Y-64000000D02*
X58792500Y-64000000D01*
X60600999Y-109370000D02*
X60599694Y-109370000D01*
X59648237Y-131370000D02*
X59640057Y-131370000D01*
X43670000Y-130567516D02*
X43670000Y-130579386D01*
X43670000Y-130724848D02*
X43670000Y-130747388D01*
X43491502Y-109300000D02*
X43488654Y-109300000D01*
X60918296Y-109370000D02*
X60899348Y-109370000D01*
X42627473Y-86830000D02*
X42576892Y-86830000D01*
X43265161Y-86830000D02*
X43260288Y-86830000D01*
X43670000Y-129475078D02*
X43670000Y-129550742D01*
X43670000Y-130321319D02*
X43670000Y-130328299D01*
X42946904Y-109300000D02*
X42946765Y-109300000D01*
X60556700Y-131370000D02*
X60552091Y-131370000D01*
X43670000Y-127191369D02*
X43670000Y-127206662D01*
X60960335Y-109370000D02*
X60951257Y-109370000D01*
X60496322Y-131370000D02*
X60514143Y-131370000D01*
X43670000Y-128177806D02*
X43670000Y-128215638D01*
X59908913Y-109370000D02*
X59900481Y-109370000D01*
X60836742Y-131370000D02*
X60839116Y-131370000D01*
X43123134Y-86830000D02*
X43114812Y-86830000D01*
X43670000Y-128132194D02*
X43670000Y-128177806D01*
X42851121Y-86830000D02*
X42843519Y-86830000D01*
X60011036Y-131370000D02*
X59989801Y-131370000D01*
X59750236Y-109370000D02*
X59787797Y-109370000D01*
X60405088Y-109370000D02*
X60366354Y-109370000D01*
X60076392Y-131370000D02*
X60025743Y-131370000D01*
X43670000Y-130938554D02*
X43670000Y-130944189D01*
X60630791Y-109370000D02*
X60633957Y-109370000D01*
X61076584Y-131370000D02*
X61073600Y-131370000D01*
X43514646Y-109300000D02*
X43510861Y-109300000D01*
X43670000Y-128336914D02*
X43670000Y-128458190D01*
X43510861Y-109300000D02*
X43507076Y-109300000D01*
X59501233Y-109370000D02*
X59484368Y-109370000D01*
X60959316Y-131370000D02*
X60961620Y-131370000D01*
X42051158Y-86830000D02*
X42042899Y-86830000D01*
X61113109Y-109370000D02*
X61104356Y-109370000D01*
X43670000Y-121780000D02*
X43670000Y-123480000D01*
X60599694Y-109370000D02*
X60589637Y-109370000D01*
X61277500Y-97365644D02*
X61277500Y-109372196D01*
X60349967Y-109370000D02*
X60366354Y-109370000D01*
X43670000Y-129703943D02*
X43670000Y-129713067D01*
X60496322Y-131370000D02*
X60469691Y-131370000D01*
X43670000Y-130143167D02*
X43670000Y-130167451D01*
X59917345Y-109370000D02*
X59908913Y-109370000D01*
X60816394Y-131370000D02*
X60818564Y-131370000D01*
X60455740Y-109370000D02*
X60443821Y-109370000D01*
X60443821Y-109370000D02*
X60431902Y-109370000D01*
X43376231Y-86830000D02*
X43375907Y-86830000D01*
X60623582Y-131370000D02*
X60621482Y-131370000D01*
X43670000Y-130197225D02*
X43670000Y-130226999D01*
X61167486Y-109370000D02*
X61151005Y-109370000D01*
X42570529Y-86830000D02*
X42532674Y-86830000D01*
X60558351Y-109370000D02*
X60540846Y-109370000D01*
X60338047Y-109370000D02*
X60315700Y-109370000D01*
X60937244Y-109370000D02*
X60951257Y-109370000D01*
X42320446Y-86830000D02*
X42329910Y-86830000D01*
X43670000Y-130796756D02*
X43670000Y-130784414D01*
X60774929Y-109370000D02*
X60770831Y-109370000D01*
X60324356Y-131370000D02*
X60293015Y-131370000D01*
X43670000Y-129816094D02*
X43670000Y-129833799D01*
X43670000Y-129323750D02*
X43670000Y-129399414D01*
X61190974Y-109370000D02*
X61183967Y-109370000D01*
X42374968Y-109300000D02*
X42361000Y-109300000D01*
X42788539Y-86830000D02*
X42782234Y-86830000D01*
X59012904Y-109370000D02*
X58978089Y-109370000D01*
X43670000Y-128731862D02*
X43670000Y-128761914D01*
X60378025Y-131370000D02*
X60355697Y-131370000D01*
X59420233Y-109370000D02*
X59308827Y-109370000D01*
X58910449Y-131370000D02*
X58881035Y-131370000D01*
X59647262Y-109370000D02*
X59544288Y-109370000D01*
X59925777Y-109370000D02*
X59917345Y-109370000D01*
X43670000Y-130938554D02*
X43670000Y-130912898D01*
X60612266Y-131370000D02*
X60603050Y-131370000D01*
X61277500Y-97365644D02*
X61277500Y-93022501D01*
X43670000Y-130521637D02*
X43670000Y-130548266D01*
X43670000Y-125749214D02*
X43670000Y-126310783D01*
X43399566Y-109300000D02*
X43399532Y-109300000D01*
X43670000Y-127176076D02*
X43670000Y-127191369D01*
X43004472Y-86830000D02*
X42998978Y-86830000D01*
X43131456Y-86830000D02*
X43151470Y-86830000D01*
X60875861Y-109370000D02*
X60809939Y-109370000D01*
X43670000Y-129399414D02*
X43670000Y-129475078D01*
X61179341Y-86765000D02*
X58905000Y-86765000D01*
X43770710Y-131370710D02*
X45200000Y-132800000D01*
X43056229Y-86830000D02*
X43041997Y-86830000D01*
X61255221Y-109370000D02*
X61249867Y-109370000D01*
X60176857Y-131370000D02*
X60127874Y-131370000D01*
X43236617Y-109300000D02*
X43218247Y-109300000D01*
X48821320Y-134300000D02*
X58397918Y-134300000D01*
X42147836Y-109300000D02*
X42122500Y-109300000D01*
X59815648Y-109370000D02*
X59787797Y-109370000D01*
X60872284Y-131370000D02*
X60854513Y-131370000D01*
X42398840Y-86830000D02*
X42378571Y-86830000D01*
X42998978Y-86830000D02*
X42986693Y-86830000D01*
X43467437Y-109300000D02*
X43454242Y-109300000D01*
X42374968Y-109300000D02*
X42382398Y-109300000D01*
X61300000Y-109415909D02*
X61300000Y-130600000D01*
X61017739Y-131370000D02*
X61015467Y-131370000D01*
X43397253Y-86830000D02*
X43383346Y-86830000D01*
X43670000Y-129744458D02*
X43670000Y-129722191D01*
X60742500Y-64535000D02*
X60707778Y-64500278D01*
X42946626Y-109300000D02*
X42946487Y-109300000D01*
X60391340Y-131370000D02*
X60378025Y-131370000D01*
X43216749Y-86830000D02*
X43199820Y-86830000D01*
X60720087Y-131370000D02*
X60684699Y-131370000D01*
X43670000Y-130622221D02*
X43670000Y-130636981D01*
X58958246Y-131370000D02*
X58950893Y-131370000D01*
X59308827Y-109370000D02*
X59197421Y-109370000D01*
X60937244Y-109370000D02*
X60918296Y-109370000D01*
X61300000Y-131591923D02*
X61300000Y-132050000D01*
X61218045Y-109370000D02*
X61214135Y-109370000D01*
X60999419Y-109370000D02*
X60989549Y-109370000D01*
X42973759Y-86830000D02*
X42986693Y-86830000D01*
X58877128Y-109370000D02*
X58849276Y-109370000D01*
X43670000Y-125462695D02*
X43670000Y-125178088D01*
X43670000Y-128992553D02*
X43670000Y-129019583D01*
X43296391Y-86830000D02*
X43286772Y-86830000D01*
X43670000Y-130108286D02*
X43670000Y-130116866D01*
X43437226Y-109300000D02*
X43422155Y-109300000D01*
X42347032Y-109300000D02*
X42333064Y-109300000D01*
X60999419Y-109370000D02*
X61046811Y-109370000D01*
X43670000Y-130949824D02*
X43670000Y-130956532D01*
X42532674Y-86830000D02*
X42494819Y-86830000D01*
X43325898Y-109300000D02*
X43314508Y-109300000D01*
X43399532Y-109300000D02*
X43399498Y-109300000D01*
X43670000Y-131009791D02*
X43670000Y-131006940D01*
X43670000Y-128724082D02*
X43670000Y-128731862D01*
X42890246Y-86830000D02*
X42886444Y-86830000D01*
X58950893Y-131370000D02*
X58939863Y-131370000D01*
X61273750Y-109373750D02*
X61281250Y-109381250D01*
X43670000Y-130823585D02*
X43670000Y-130850015D01*
X42833413Y-86830000D02*
X42805599Y-86830000D01*
X60623343Y-109370000D02*
X60615895Y-109370000D01*
X43369440Y-86830000D02*
X43356182Y-86830000D01*
X42960176Y-86830000D02*
X42946593Y-86830000D01*
X60076800Y-109370000D02*
X60026199Y-109370000D01*
X42916276Y-109300000D02*
X42886065Y-109300000D01*
X43670000Y-128799212D02*
X43670000Y-128814772D01*
X43014531Y-109300000D02*
X43037120Y-109300000D01*
X61044505Y-131370000D02*
X61040049Y-131370000D01*
X61102493Y-109370000D02*
X61100630Y-109370000D01*
X43550502Y-109300000D02*
X43548771Y-109300000D01*
X43670000Y-130956532D02*
X43670000Y-130975582D01*
X60561309Y-131370000D02*
X60567814Y-131370000D01*
X43329666Y-86830000D02*
X43296391Y-86830000D01*
X61300004Y-132050000D02*
G75*
G02*
X60911091Y-132988908I-1327804J0D01*
G01*
X61277500Y-93022501D02*
G75*
G03*
X63277498Y-95022500I2000000J1D01*
G01*
X48821320Y-134299991D02*
G75*
G02*
X45200000Y-132800000I-20J5121291D01*
G01*
X43600000Y-131299994D02*
G75*
G02*
X43770710Y-131370710I0J-241406D01*
G01*
X43670001Y-109180502D02*
G75*
G02*
X43635000Y-109265000I-119501J2D01*
G01*
X43669996Y-131009791D02*
G75*
G02*
X43585000Y-131215000I-290196J-9D01*
G01*
X60707787Y-64500269D02*
G75*
G03*
X59500000Y-64000000I-1207787J-1207831D01*
G01*
X43635004Y-109265004D02*
G75*
G02*
X43670000Y-109279497I14496J-14496D01*
G01*
X86159508Y-95022503D02*
G75*
G03*
X88238750Y-94161250I-8J2940503D01*
G01*
X61277599Y-86781841D02*
G75*
G02*
X61248751Y-86793749I-16899J41D01*
G01*
X43135001Y-64464999D02*
G75*
G02*
X43670000Y-65756604I-1291601J-1291601D01*
G01*
X61299995Y-109415909D02*
G75*
G03*
X61288749Y-109388751I-38395J9D01*
G01*
X43499289Y-86829995D02*
G75*
G03*
X43620000Y-86780000I11J170695D01*
G01*
X58397918Y-134300007D02*
G75*
G03*
X60450000Y-133450000I-18J2902107D01*
G01*
X89100003Y-92082008D02*
G75*
G02*
X88238750Y-94161250I-2940503J8D01*
G01*
X41892500Y-63930013D02*
G75*
G02*
X43100278Y-64430278I0J-1708087D01*
G01*
X61277498Y-65826604D02*
G75*
G03*
X60742500Y-64535000I-1826598J4D01*
G01*
X61248738Y-86793762D02*
G75*
G02*
X61277500Y-86863158I-69438J-69438D01*
G01*
X43634999Y-109264999D02*
G75*
G02*
X43550502Y-109300000I-84499J84499D01*
G01*
X61281249Y-109381251D02*
G75*
G02*
X61277500Y-109372196I9051J9051D01*
G01*
X61299990Y-131591923D02*
G75*
G03*
X61235000Y-131435000I-221890J23D01*
G01*
X43669995Y-86659289D02*
G75*
G02*
X43620000Y-86780000I-170695J-11D01*
G01*
X88161091Y-86850004D02*
G75*
G02*
X88825000Y-87125000I9J-938896D01*
G01*
X43570706Y-131229285D02*
G75*
G02*
X43400000Y-131300000I-170706J170685D01*
G01*
X61179341Y-86764983D02*
G75*
G02*
X61248750Y-86793750I-41J-98217D01*
G01*
X43600000Y-131300037D02*
G75*
G02*
X43570710Y-131229289I0J41437D01*
G01*
X61277492Y-109372196D02*
G75*
G02*
X61273750Y-109373750I-2192J-4D01*
G01*
X61299942Y-131408076D02*
G75*
G02*
X61235000Y-131435000I-38042J-24D01*
G01*
X61273751Y-109373749D02*
G75*
G03*
X61264696Y-109370000I-9051J-9051D01*
G01*
X61235007Y-131434993D02*
G75*
G03*
X61078076Y-131370000I-156907J-156907D01*
G01*
X63277494Y-95022454D02*
G75*
G03*
X61277500Y-97365644I186306J-2184146D01*
G01*
X89099996Y-87788908D02*
G75*
G03*
X88825000Y-87125000I-938896J8D01*
G01*
X43669974Y-86800710D02*
G75*
G03*
X43620000Y-86780000I-29274J10D01*
G01*
%TO.N,/SCL_1*%
X153885936Y-53114061D02*
X153884374Y-53115623D01*
X171560969Y-110605000D02*
X171559991Y-110605000D01*
X172050314Y-110605000D02*
X172069741Y-110605000D01*
X136718980Y-69070000D02*
X153578076Y-69070000D01*
X153800000Y-66650346D02*
X153800000Y-66655830D01*
X153857811Y-53142185D02*
X153858202Y-53141795D01*
X154157307Y-110535000D02*
X154150414Y-110535000D01*
X154174594Y-110535000D02*
X154187267Y-110535000D01*
X153800000Y-67944292D02*
X153800000Y-67928989D01*
X153800000Y-65467243D02*
X153800000Y-65479995D01*
X154328741Y-110535000D02*
X154327323Y-110535000D01*
X171372500Y-65520229D02*
X171372500Y-65424770D01*
X153800000Y-66263506D02*
X153800000Y-66301937D01*
X154297822Y-110535000D02*
X154240238Y-110535000D01*
X154018750Y-52981250D02*
X154012500Y-52987500D01*
X153800000Y-65505608D02*
X153800000Y-65505652D01*
X154609456Y-110535000D02*
X154601854Y-110535000D01*
X171598811Y-110605000D02*
X171573257Y-110605000D01*
X153964061Y-53035936D02*
X153959374Y-53040623D01*
X154579983Y-110535000D02*
X154586650Y-110535000D01*
X153800000Y-66075309D02*
X153800000Y-66079966D01*
X153800000Y-67047630D02*
X153800000Y-67115875D01*
X153800000Y-65727011D02*
X153800000Y-65710080D01*
X155089168Y-110535000D02*
X155065250Y-110535000D01*
X153800000Y-65960713D02*
X153800000Y-65990527D01*
X153993750Y-53006250D02*
X153987500Y-53012500D01*
X153800000Y-65602131D02*
X153800000Y-65603296D01*
X171613804Y-110605000D02*
X171609371Y-110605000D01*
X172050314Y-110605000D02*
X172029193Y-110605000D01*
X154012500Y-52987500D02*
X154006250Y-52993750D01*
X153800000Y-65854383D02*
X153800000Y-65905742D01*
X154487935Y-110535000D02*
X154482715Y-110535000D01*
X172609301Y-110605000D02*
X172600366Y-110605000D01*
X171547702Y-110605000D02*
X171524103Y-110605000D01*
X155610625Y-110535000D02*
X155584135Y-110535000D01*
X153800000Y-66195262D02*
X153800000Y-66216458D01*
X153800000Y-65684729D02*
X153800000Y-65684903D01*
X153800000Y-68867447D02*
X153800000Y-68939356D01*
X153800000Y-65990527D02*
X153800000Y-66004269D01*
X172447324Y-110605000D02*
X172398171Y-110605000D01*
X153800000Y-66109780D02*
X153800000Y-66099998D01*
X153800000Y-65684381D02*
X153800000Y-65684555D01*
X153993278Y-110535000D02*
X153978882Y-110535000D01*
X154058202Y-52941795D02*
X154040624Y-52959374D01*
X155089168Y-110535000D02*
X155098554Y-110535000D01*
X153851562Y-53148436D02*
X153851171Y-53148827D01*
X153941794Y-53058201D02*
X153942185Y-53057811D01*
X171760582Y-110605000D02*
X171739915Y-110605000D01*
X155103699Y-110535000D02*
X155098554Y-110535000D01*
X154216795Y-52783202D02*
X154249999Y-52749999D01*
X172899479Y-110605000D02*
X172792049Y-110605000D01*
X153970312Y-53029686D02*
X153968749Y-53031249D01*
X171560969Y-110605000D02*
X171573257Y-110605000D01*
X153800000Y-66342892D02*
X153800000Y-66382761D01*
X172643936Y-110605000D02*
X172628295Y-110605000D01*
X155637115Y-110535000D02*
X155610625Y-110535000D01*
X173078061Y-110605000D02*
X173043186Y-110605000D01*
X153800000Y-65560904D02*
X153800000Y-65582100D01*
X153851171Y-53148827D02*
X153850390Y-53149609D01*
X153800000Y-66153859D02*
X153800000Y-66169114D01*
X171776781Y-110605000D02*
X171772871Y-110605000D01*
X172690859Y-110605000D02*
X172792049Y-110605000D01*
X153854686Y-53145311D02*
X153853124Y-53146874D01*
X153800000Y-66663033D02*
X153800000Y-66655830D01*
X154465808Y-110535000D02*
X154456277Y-110535000D01*
X153800000Y-69108076D02*
X153800000Y-69085948D01*
X154933644Y-110535000D02*
X154944756Y-110535000D01*
X171974300Y-110605000D02*
X171971561Y-110605000D01*
X171559991Y-110605000D02*
X171559013Y-110605000D01*
X153978882Y-110535000D02*
X153972545Y-110535000D01*
X153892186Y-53107810D02*
X153890623Y-53109374D01*
X171932059Y-110605000D02*
X171889818Y-110605000D01*
X154182811Y-52817185D02*
X154149999Y-52849998D01*
X153800000Y-65454469D02*
X153800000Y-65451281D01*
X154753102Y-110535000D02*
X154713279Y-110535000D01*
X172609301Y-110605000D02*
X172612654Y-110605000D01*
X153800000Y-66979385D02*
X153800000Y-67047630D01*
X171772871Y-110605000D02*
X171768961Y-110605000D01*
X173006909Y-110605000D02*
X172899479Y-110605000D01*
X153970822Y-110535000D02*
X153969099Y-110535000D01*
X172541720Y-110605000D02*
X172500387Y-110605000D01*
X153957811Y-53042186D02*
X153949998Y-53049999D01*
X171559013Y-110605000D02*
X171547702Y-110605000D01*
X172500387Y-110605000D02*
X172496477Y-110605000D01*
X153800000Y-65629150D02*
X153800000Y-65684207D01*
X154094151Y-110535000D02*
X154081783Y-110535000D01*
X153916104Y-110535000D02*
X153912675Y-110535000D01*
X153912675Y-110535000D02*
X153910961Y-110535000D01*
X153923479Y-110535000D02*
X153919019Y-110535000D01*
X154933644Y-110535000D02*
X154902887Y-110535000D01*
X153853124Y-53146874D02*
X153851562Y-53148436D01*
X154092186Y-52907811D02*
X154084374Y-52915623D01*
X172628295Y-110605000D02*
X172612654Y-110605000D01*
X153890623Y-53109374D02*
X153885936Y-53114061D01*
X172541720Y-110605000D02*
X172545631Y-110605000D01*
X153800000Y-67676095D02*
X153800000Y-67760393D01*
X153800000Y-67135809D02*
X153800000Y-67115875D01*
X155414904Y-110535000D02*
X155409759Y-110535000D01*
X155158869Y-110535000D02*
X155127234Y-110535000D01*
X155404614Y-110535000D02*
X155288364Y-110535000D01*
X153800000Y-65693237D02*
X153800000Y-65684903D01*
X153941794Y-53058201D02*
X153933202Y-53066795D01*
X153800000Y-66877365D02*
X153800000Y-66922630D01*
X171992033Y-110605000D02*
X171974300Y-110605000D01*
X171490760Y-110605000D02*
X171487729Y-110605000D01*
X155691190Y-110535000D02*
X155646310Y-110535000D01*
X153800000Y-65684555D02*
X153800000Y-65684729D01*
X153800000Y-65909323D02*
X153800000Y-65953521D01*
X153959374Y-53040623D02*
X153957811Y-53042186D01*
X154150414Y-110535000D02*
X154143521Y-110535000D01*
X153800000Y-66178722D02*
X153800000Y-66182683D01*
X153933202Y-53066795D02*
X153916795Y-53083202D01*
X153800000Y-69011265D02*
X153800000Y-69041693D01*
X153800000Y-66342892D02*
X153800000Y-66301937D01*
X171509110Y-110605000D02*
X171502722Y-110605000D01*
X153800000Y-110554038D02*
X153800000Y-110645961D01*
X154497920Y-110535000D02*
X154487935Y-110535000D01*
X153800000Y-65487448D02*
X153800000Y-65489602D01*
X165246036Y-51000000D02*
X157484924Y-51000000D01*
X153884374Y-53115623D02*
X153882811Y-53117186D01*
X155646310Y-110535000D02*
X155637115Y-110535000D01*
X155065250Y-110535000D02*
X155050718Y-110535000D01*
X154512670Y-110535000D02*
X154497920Y-110535000D01*
X153879685Y-53120311D02*
X153879295Y-53120702D01*
X154670387Y-110535000D02*
X154636120Y-110535000D01*
X155230239Y-110535000D02*
X155172114Y-110535000D01*
X154052054Y-110535000D02*
X154057047Y-110535000D01*
X153908201Y-53091794D02*
X153907811Y-53092185D01*
X153862499Y-53137499D02*
X153860545Y-53139452D01*
X153800000Y-66634917D02*
X153800000Y-66639378D01*
X154203386Y-110535000D02*
X154187267Y-110535000D01*
X153800000Y-65582100D02*
X153800000Y-65589553D01*
X153800000Y-66182683D02*
X153800000Y-66186644D01*
X153800000Y-65485294D02*
X153800000Y-65479995D01*
X154109373Y-52890624D02*
X154092186Y-52907811D01*
X153967186Y-53032812D02*
X153965623Y-53034374D01*
X171878996Y-110605000D02*
X171889818Y-110605000D01*
X153800000Y-65505564D02*
X153800000Y-65505608D01*
X171793956Y-110605000D02*
X171784601Y-110605000D01*
X153800000Y-66845941D02*
X153800000Y-66877365D01*
X171816577Y-110605000D02*
X171793956Y-110605000D01*
X154456277Y-110535000D02*
X154446746Y-110535000D01*
X153800000Y-66462499D02*
X153800000Y-66496707D01*
X153800000Y-67192565D02*
X153800000Y-67240876D01*
X153965623Y-53034374D02*
X153964061Y-53035936D01*
X154040624Y-52959374D02*
X154028125Y-52971875D01*
X153800000Y-65485294D02*
X153800000Y-65487448D01*
X154625653Y-110535000D02*
X154612321Y-110535000D01*
X172148495Y-110605000D02*
X172129716Y-110605000D01*
X153879295Y-53120702D02*
X153876952Y-53123045D01*
X172266353Y-110605000D02*
X172207424Y-110605000D01*
X153800000Y-68720837D02*
X153800000Y-68842547D01*
X132428284Y-71571715D02*
X133665000Y-70335000D01*
X153800000Y-65458734D02*
X153800000Y-65462999D01*
X153800000Y-88154038D02*
X153800000Y-69291923D01*
X153800000Y-66020341D02*
X153800000Y-66008927D01*
X153800000Y-66536488D02*
X153800000Y-66555007D01*
X154423812Y-110535000D02*
X154400239Y-110535000D01*
X154670387Y-110535000D02*
X154685620Y-110535000D01*
X101387336Y-154536171D02*
X101404300Y-149590000D01*
X153800000Y-67559121D02*
X153800000Y-67609439D01*
X154081248Y-52918749D02*
X154079685Y-52920311D01*
X172690859Y-110605000D02*
X172675218Y-110605000D01*
X153973045Y-53026952D02*
X153970702Y-53029295D01*
X172591431Y-110605000D02*
X172579143Y-110605000D01*
X153800000Y-66045497D02*
X153800000Y-66052950D01*
X155542500Y-132635000D02*
X156250000Y-132635000D01*
X153800000Y-67844691D02*
X153800000Y-67928989D01*
X153800000Y-67442147D02*
X153800000Y-67365876D01*
X153856249Y-53143748D02*
X153854686Y-53145311D01*
X153800000Y-67676095D02*
X153800000Y-67642115D01*
X155420049Y-110535000D02*
X155414904Y-110535000D01*
X154073045Y-52926951D02*
X154079685Y-52920311D01*
X154084374Y-52915623D02*
X154082811Y-52917186D01*
X153916104Y-110535000D02*
X153919019Y-110535000D01*
X153800000Y-65684207D02*
X153800000Y-65684381D01*
X171633231Y-110605000D02*
X171618237Y-110605000D01*
X172659577Y-110605000D02*
X172643936Y-110605000D01*
X154689421Y-110535000D02*
X154685620Y-110535000D01*
X154902887Y-110535000D02*
X154872130Y-110535000D01*
X171667652Y-110605000D02*
X171682384Y-110605000D01*
X154216795Y-52783202D02*
X154183201Y-52816794D01*
X155814062Y-110535000D02*
X155843125Y-110535000D01*
X154164200Y-110535000D02*
X154157307Y-110535000D01*
X153800000Y-66682923D02*
X153800000Y-66695610D01*
X153800000Y-88245961D02*
X153800000Y-88154038D01*
X153800000Y-66639378D02*
X153800000Y-66644862D01*
X153800000Y-65824569D02*
X153800000Y-65832838D01*
X153800000Y-66070652D02*
X153800000Y-66075309D01*
X153800000Y-66153859D02*
X153800000Y-66144251D01*
X173112936Y-110605000D02*
X173078061Y-110605000D01*
X171609371Y-110605000D02*
X171598811Y-110605000D01*
X171524103Y-110605000D02*
X171515498Y-110605000D01*
X153800000Y-66663033D02*
X153800000Y-66682923D01*
X153800000Y-66620511D02*
X153800000Y-66610566D01*
X153868750Y-53131250D02*
X153862499Y-53137499D01*
X153981250Y-53018750D02*
X153974999Y-53024999D01*
X153800000Y-65611914D02*
X153800000Y-65620532D01*
X153800000Y-68535536D02*
X153800000Y-68618500D01*
X171947053Y-110605000D02*
X171932059Y-110605000D01*
X153800000Y-68939356D02*
X153800000Y-69011265D01*
X154073045Y-52926951D02*
X154058202Y-52941795D01*
X153970702Y-53029295D02*
X153970312Y-53029686D01*
X154174594Y-110535000D02*
X154165367Y-110535000D01*
X153800000Y-66085091D02*
X153800000Y-66099998D01*
X153800000Y-66065995D02*
X153800000Y-66070652D01*
X132360000Y-71600000D02*
X132327071Y-71600000D01*
X173006909Y-110605000D02*
X173043186Y-110605000D01*
X154693222Y-110535000D02*
X154689421Y-110535000D01*
X154094151Y-110535000D02*
X154136628Y-110535000D01*
X153800000Y-65447734D02*
X153800000Y-65445961D01*
X153857811Y-53142185D02*
X153856249Y-53143748D01*
X171780691Y-110605000D02*
X171776781Y-110605000D01*
X171372500Y-65520229D02*
X171372500Y-110600000D01*
X154792925Y-110535000D02*
X154753102Y-110535000D01*
X155113989Y-110535000D02*
X155108844Y-110535000D01*
X171959307Y-110605000D02*
X171947053Y-110605000D01*
X171760582Y-110605000D02*
X171768961Y-110605000D01*
X153800000Y-65905742D02*
X153800000Y-65909323D01*
X153800000Y-65447734D02*
X153800000Y-65451281D01*
X154039913Y-110535000D02*
X154022779Y-110535000D01*
X153800000Y-66496707D02*
X153800000Y-66536488D01*
X153800000Y-66620511D02*
X153800000Y-66634917D01*
X154594252Y-110535000D02*
X154586650Y-110535000D01*
X153800000Y-66052950D02*
X153800000Y-66063199D01*
X155409759Y-110535000D02*
X155404614Y-110535000D01*
X153800000Y-66085091D02*
X153800000Y-66079966D01*
X153800000Y-66216458D02*
X153800000Y-66225075D01*
X154872130Y-110535000D02*
X154792925Y-110535000D01*
X154082811Y-52917186D02*
X154081248Y-52918749D01*
X154997737Y-110535000D02*
X154944756Y-110535000D01*
X153969099Y-110535000D02*
X153953665Y-110535000D01*
X154149999Y-52849998D02*
X154117186Y-52882810D01*
X154069415Y-110535000D02*
X154057047Y-110535000D01*
X154423812Y-110535000D02*
X154436534Y-110535000D01*
X153800000Y-68618500D02*
X153800000Y-68701464D01*
X153800000Y-66006598D02*
X153800000Y-66008927D01*
X173150000Y-132705000D02*
X173857500Y-132705000D01*
X154482715Y-110535000D02*
X154477495Y-110535000D01*
X154240238Y-110535000D02*
X154219505Y-110535000D01*
X153800000Y-66557750D02*
X153800000Y-66560493D01*
X172129716Y-110605000D02*
X172069741Y-110605000D01*
X171496822Y-110605000D02*
X171490760Y-110605000D01*
X153800000Y-66695610D02*
X153800000Y-66740875D01*
X171727627Y-110605000D02*
X171682384Y-110605000D01*
X172600366Y-110605000D02*
X172591431Y-110605000D01*
X154000000Y-53000000D02*
X153993750Y-53006250D01*
X154117186Y-52882810D02*
X154109373Y-52890624D01*
X154446519Y-110535000D02*
X154436534Y-110535000D01*
X153800000Y-65744029D02*
X153800000Y-65761047D01*
X153950573Y-110535000D02*
X153947481Y-110535000D01*
X171971561Y-110605000D02*
X171959307Y-110605000D01*
X153800000Y-65354038D02*
X153800000Y-65445961D01*
X153800000Y-67240876D02*
X153800000Y-67365876D01*
X153899999Y-53099998D02*
X153892186Y-53107810D01*
X172325282Y-110605000D02*
X172266353Y-110605000D01*
X153800000Y-69041693D02*
X153800000Y-69085948D01*
X153800000Y-69108076D02*
X153800000Y-69291923D01*
X154328741Y-110535000D02*
X154376666Y-110535000D01*
X153800000Y-66555007D02*
X153800000Y-66557750D01*
X171487729Y-65405000D02*
X173957500Y-65405000D01*
X153800000Y-65816300D02*
X153800000Y-65761047D01*
X153800000Y-67164187D02*
X153800000Y-67192565D01*
X153800000Y-68145562D02*
X153800000Y-68433199D01*
X171784601Y-110605000D02*
X171780691Y-110605000D01*
X153943197Y-110535000D02*
X153947481Y-110535000D01*
X153800000Y-66186644D02*
X153800000Y-66195262D01*
X153800000Y-65354038D02*
X153800000Y-53270710D01*
X153800000Y-65531091D02*
X153800000Y-65548065D01*
X154025000Y-52975000D02*
X154028125Y-52971875D01*
X172207424Y-110605000D02*
X172148495Y-110605000D01*
X101379300Y-159222442D02*
X101379300Y-161675000D01*
X153800000Y-66422630D02*
X153800000Y-66462499D01*
X155755937Y-110535000D02*
X155691190Y-110535000D01*
X153800000Y-67625777D02*
X153800000Y-67642115D01*
X153943197Y-110535000D02*
X153931538Y-110535000D01*
X171878996Y-110605000D02*
X171829843Y-110605000D01*
X153800000Y-66020341D02*
X153800000Y-66045497D01*
X153800000Y-65489602D02*
X153800000Y-65505564D01*
X154612321Y-110535000D02*
X154609456Y-110535000D01*
X172675218Y-110605000D02*
X172659577Y-110605000D01*
X153850000Y-53150000D02*
X153850390Y-53149609D01*
X169778707Y-53278707D02*
X169093792Y-52593792D01*
X153800000Y-66774651D02*
X153800000Y-66786141D01*
X154327323Y-110535000D02*
X154325905Y-110535000D01*
X153800000Y-65727011D02*
X153800000Y-65744029D01*
X155557645Y-110535000D02*
X155420049Y-110535000D01*
X154446519Y-110535000D02*
X154446746Y-110535000D01*
X154475339Y-110535000D02*
X154465808Y-110535000D01*
X171907500Y-132170000D02*
X171942221Y-132204721D01*
X153874999Y-53124999D02*
X153868750Y-53131250D01*
X153800000Y-65560904D02*
X153800000Y-65548065D01*
X172579143Y-110605000D02*
X172545631Y-110605000D01*
X153800000Y-65832838D02*
X153800000Y-65854383D01*
X173957500Y-88205000D02*
X171472500Y-88205000D01*
X154183201Y-52816794D02*
X154182811Y-52817185D01*
X154000000Y-53000000D02*
X154006250Y-52993750D01*
X153800000Y-65693237D02*
X153800000Y-65710080D01*
X154297822Y-110535000D02*
X154325905Y-110535000D01*
X171496822Y-110605000D02*
X171502722Y-110605000D01*
X153800000Y-66817564D02*
X153800000Y-66845941D01*
X153968749Y-53031249D02*
X153967186Y-53032812D01*
X153800000Y-68867447D02*
X153800000Y-68842547D01*
X153910961Y-88135000D02*
X156350000Y-88135000D01*
X155113989Y-110535000D02*
X155127234Y-110535000D01*
X172009766Y-110605000D02*
X171992033Y-110605000D01*
X153800000Y-68145562D02*
X153800000Y-68059196D01*
X153907811Y-53092185D02*
X153899999Y-53099998D01*
X154559048Y-110535000D02*
X154527420Y-110535000D01*
X155814062Y-110535000D02*
X155755937Y-110535000D01*
X154007674Y-110535000D02*
X153993278Y-110535000D01*
X172029193Y-110605000D02*
X172027499Y-110605000D01*
X154219505Y-110535000D02*
X154203386Y-110535000D01*
X153800000Y-65603296D02*
X153800000Y-65611914D01*
X153974999Y-53024999D02*
X153973045Y-53026952D01*
X171618237Y-110605000D02*
X171613804Y-110605000D01*
X154400239Y-110535000D02*
X154376666Y-110535000D01*
X153800000Y-66004269D02*
X153800000Y-66006598D01*
X154165367Y-110535000D02*
X154164200Y-110535000D01*
X153800000Y-66797631D02*
X153800000Y-66809121D01*
X153910961Y-65335000D02*
X156350000Y-65335000D01*
X155288364Y-110535000D02*
X155230239Y-110535000D01*
X171372500Y-65424770D02*
X171372500Y-57126463D01*
X153800000Y-65620532D02*
X153800000Y-65629150D01*
X153800000Y-67760393D02*
X153800000Y-67844691D01*
X153800000Y-66576270D02*
X153800000Y-66610566D01*
X153800000Y-65514117D02*
X153800000Y-65531091D01*
X153860545Y-53139452D02*
X153858202Y-53141795D01*
X153800000Y-68535536D02*
X153800000Y-68433199D01*
X154477495Y-110535000D02*
X154475339Y-110535000D01*
X153972545Y-110535000D02*
X153970822Y-110535000D01*
X154601854Y-110535000D02*
X154594252Y-110535000D01*
X153882811Y-53117186D02*
X153881248Y-53118749D01*
X154047288Y-110535000D02*
X154039913Y-110535000D01*
X153987500Y-53012500D02*
X153981250Y-53018750D01*
X171739915Y-110605000D02*
X171727627Y-110605000D01*
X155584135Y-110535000D02*
X155557645Y-110535000D01*
X153800000Y-68701464D02*
X153800000Y-68720837D01*
X171667652Y-110605000D02*
X171633231Y-110605000D01*
X172027499Y-110605000D02*
X172009766Y-110605000D01*
X153800000Y-66922630D02*
X153800000Y-66967895D01*
X154025000Y-52975000D02*
X154018750Y-52981250D01*
X153800000Y-66560493D02*
X153800000Y-66576270D01*
X153927939Y-110535000D02*
X153923479Y-110535000D01*
X153800000Y-66740875D02*
X153800000Y-66755064D01*
X153800000Y-65454469D02*
X153800000Y-65458734D01*
X153800000Y-66967895D02*
X153800000Y-66979385D01*
X153800000Y-65467243D02*
X153800000Y-65462999D01*
X154052054Y-110535000D02*
X154049671Y-110535000D01*
X154081783Y-110535000D02*
X154069415Y-110535000D01*
X154527420Y-110535000D02*
X154512670Y-110535000D01*
X153800000Y-67135809D02*
X153800000Y-67164187D01*
X153800000Y-66109780D02*
X153800000Y-66144251D01*
X153800000Y-66174761D02*
X153800000Y-66178722D01*
X154579983Y-110535000D02*
X154559048Y-110535000D01*
X153881248Y-53118749D02*
X153879685Y-53120311D01*
X155108844Y-110535000D02*
X155103699Y-110535000D01*
X132302928Y-71610000D02*
X129850000Y-71610000D01*
X153800000Y-65960713D02*
X153800000Y-65953521D01*
X153916795Y-53083202D02*
X153908201Y-53091794D01*
X154713279Y-110535000D02*
X154693222Y-110535000D01*
X153800000Y-66817564D02*
X153800000Y-66809121D01*
X155172114Y-110535000D02*
X155158869Y-110535000D01*
X153800000Y-66771952D02*
X153800000Y-66774651D01*
X153800000Y-65595842D02*
X153800000Y-65602131D01*
X153800000Y-66169114D02*
X153800000Y-66174761D01*
X153800000Y-65589553D02*
X153800000Y-65595842D01*
X153800000Y-66225075D02*
X153800000Y-66263506D01*
X154350000Y-52649998D02*
X154950000Y-52050000D01*
X171816577Y-110605000D02*
X171829843Y-110605000D01*
X153800000Y-131505251D02*
X153800000Y-110645961D01*
X154636120Y-110535000D02*
X154625653Y-110535000D01*
X153800000Y-65816300D02*
X153800000Y-65824569D01*
X153800000Y-66786141D02*
X153800000Y-66797631D01*
X154350000Y-52649998D02*
X154249999Y-52749999D01*
X171372500Y-110720229D02*
X171372500Y-130878395D01*
X155050718Y-110535000D02*
X154997737Y-110535000D01*
X153800000Y-67609439D02*
X153800000Y-67625777D01*
X154049671Y-110535000D02*
X154047288Y-110535000D01*
X153931538Y-110535000D02*
X153927939Y-110535000D01*
X153874999Y-53124999D02*
X153876952Y-53123045D01*
X153800000Y-66065995D02*
X153800000Y-66063199D01*
X154143521Y-110535000D02*
X154136628Y-110535000D01*
X171515498Y-110605000D02*
X171509110Y-110605000D01*
X154334721Y-132134721D02*
X153782500Y-131582500D01*
X153800000Y-66382761D02*
X153800000Y-66422630D01*
X153800000Y-67944292D02*
X153800000Y-68059196D01*
X172398171Y-110605000D02*
X172325282Y-110605000D01*
X153800000Y-65514117D02*
X153800000Y-65505652D01*
X153800000Y-67442147D02*
X153800000Y-67559121D01*
X153800000Y-66755064D02*
X153800000Y-66771952D01*
X173112936Y-110605000D02*
X173133178Y-110605000D01*
X153953665Y-110535000D02*
X153950573Y-110535000D01*
X153800000Y-110554038D02*
X153800000Y-88245961D01*
X153800000Y-66644862D02*
X153800000Y-66650346D01*
X154007674Y-110535000D02*
X154022779Y-110535000D01*
X172496477Y-110605000D02*
X172447324Y-110605000D01*
X153949998Y-53049999D02*
X153942185Y-53057811D01*
X153910961Y-88134985D02*
G75*
G03*
X153832501Y-88167501I39J-111015D01*
G01*
X154949993Y-52049993D02*
G75*
G02*
X157484924Y-51000000I2534907J-2534907D01*
G01*
X133665006Y-70335006D02*
G75*
G02*
X136718980Y-69070000I3053994J-3053994D01*
G01*
X171907499Y-132170001D02*
G75*
G02*
X171372500Y-130878395I1291601J1291601D01*
G01*
X132428291Y-71571722D02*
G75*
G02*
X132360000Y-71600000I-68291J68322D01*
G01*
X153799985Y-110645961D02*
G75*
G02*
X153832501Y-110567501I111015J-39D01*
G01*
X153832435Y-65367435D02*
G75*
G02*
X153800000Y-65354038I-13435J13435D01*
G01*
X171372513Y-65520229D02*
G75*
G02*
X171406250Y-65438750I115187J29D01*
G01*
X153782485Y-131547485D02*
G75*
G03*
X153800000Y-131505251I-42285J42285D01*
G01*
X155542500Y-132634987D02*
G75*
G02*
X154334721Y-132134721I0J1708087D01*
G01*
X153799985Y-88245961D02*
G75*
G02*
X153832501Y-88167501I111015J-39D01*
G01*
X171372572Y-65424770D02*
G75*
G03*
X171406250Y-65438750I19728J-30D01*
G01*
X171406241Y-110638741D02*
G75*
G03*
X171372500Y-110720229I81459J-81459D01*
G01*
X169778699Y-53278715D02*
G75*
G02*
X171372500Y-57126463I-3847799J-3847785D01*
G01*
X153799909Y-88154038D02*
G75*
G03*
X153832499Y-88167499I19091J38D01*
G01*
X101390592Y-154536187D02*
G75*
G03*
X101379300Y-159222442I972351232J-4686213D01*
G01*
X153799985Y-65445961D02*
G75*
G02*
X153832501Y-65367501I111015J-39D01*
G01*
X153782501Y-131547501D02*
G75*
G03*
X153782501Y-131582499I17499J-17499D01*
G01*
X132314992Y-71604992D02*
G75*
G02*
X132302928Y-71610000I-12092J12092D01*
G01*
X153800005Y-53270710D02*
G75*
G02*
X153850000Y-53150000I170695J10D01*
G01*
X171487729Y-65405013D02*
G75*
G03*
X171406250Y-65438750I-29J-115187D01*
G01*
X153578076Y-69070010D02*
G75*
G02*
X153735000Y-69135000I24J-221890D01*
G01*
X153799990Y-69291923D02*
G75*
G03*
X153735000Y-69135000I-221890J23D01*
G01*
X171487729Y-110605013D02*
G75*
G03*
X171406250Y-110638750I-29J-115187D01*
G01*
X169093784Y-52593800D02*
G75*
G03*
X165246036Y-51000000I-3847784J-3847800D01*
G01*
X153832511Y-65367511D02*
G75*
G02*
X153910961Y-65335000I78489J-78489D01*
G01*
X153832435Y-110567435D02*
G75*
G02*
X153800000Y-110554038I-13435J13435D01*
G01*
X153799942Y-69108076D02*
G75*
G02*
X153735000Y-69135000I-38042J-24D01*
G01*
X171942212Y-132204730D02*
G75*
G03*
X173150000Y-132705000I1207788J1207830D01*
G01*
X153832511Y-110567511D02*
G75*
G02*
X153910961Y-110535000I78489J-78489D01*
G01*
X132315008Y-71605008D02*
G75*
G02*
X132327071Y-71600000I12092J-12092D01*
G01*
%TO.N,/SDA_1*%
X133342167Y-68157832D02*
X150206207Y-51293792D01*
X98876831Y-157375183D02*
X98876967Y-157493799D01*
X178700353Y-110775000D02*
X178697688Y-110775000D01*
X98871866Y-154013963D02*
X98872164Y-154195331D01*
X172169183Y-135300000D02*
X171983477Y-135300000D01*
X178117546Y-110775000D02*
X178101289Y-110775000D01*
X162775390Y-135300000D02*
X162749609Y-135300000D01*
X163585936Y-135300000D02*
X163545311Y-135300000D01*
X98864637Y-149777535D02*
X98864838Y-149889167D01*
X177074337Y-110775000D02*
X177105383Y-110775000D01*
X162673438Y-135300000D02*
X162650000Y-135300000D01*
X164475000Y-135300000D02*
X164400000Y-135300000D01*
X98870178Y-152991764D02*
X98870597Y-153243146D01*
X162593749Y-135300000D02*
X162589062Y-135300000D01*
X163486327Y-135300000D02*
X163482421Y-135300000D01*
X98875565Y-156418845D02*
X98875674Y-156492980D01*
X178727555Y-110775000D02*
X178731839Y-110775000D01*
X176925186Y-110775000D02*
X176875469Y-110775000D01*
X178030759Y-110775000D02*
X178035918Y-110775000D01*
X98877223Y-157731030D02*
X98877099Y-157612415D01*
X163117187Y-135300000D02*
X163114062Y-135300000D01*
X98865173Y-150076703D02*
X98865641Y-150340143D01*
X98865794Y-150426090D02*
X98865956Y-150517635D01*
X98879028Y-160281264D02*
X98879053Y-160340572D01*
X176375633Y-110775000D02*
X176368544Y-110775000D01*
X177660194Y-110775000D02*
X177707065Y-110775000D01*
X168181250Y-135300000D02*
X167962500Y-135300000D01*
X98873026Y-154739435D02*
X98873303Y-154920803D01*
X166373827Y-135300000D02*
X166126561Y-135300000D01*
X178176197Y-110775000D02*
X178172694Y-110775000D01*
X166811328Y-135300000D02*
X166875000Y-135300000D01*
X98874901Y-155974038D02*
X98875058Y-156077826D01*
X178017129Y-110775000D02*
X178003499Y-110775000D01*
X178764843Y-110775000D02*
X178761099Y-110775000D01*
X163137500Y-135300000D02*
X163117187Y-135300000D01*
X176389813Y-110775000D02*
X176382723Y-110775000D01*
X162587890Y-135300000D02*
X162589062Y-135300000D01*
X98867728Y-151536817D02*
X98868245Y-151840431D01*
X154053963Y-49700000D02*
X173046036Y-49700000D01*
X165303125Y-135300000D02*
X165259375Y-135300000D01*
X166126561Y-135300000D02*
X166017187Y-135300000D01*
X178610081Y-110775000D02*
X178594699Y-110775000D01*
X162842186Y-135300000D02*
X162846874Y-135300000D01*
X178172694Y-110775000D02*
X178169191Y-110775000D01*
X98878979Y-160162647D02*
X98879028Y-160281264D01*
X98875885Y-156641250D02*
X98875833Y-156604183D01*
X98866882Y-151045667D02*
X98867005Y-151117125D01*
X178761099Y-110775000D02*
X178757996Y-110775000D01*
X162775390Y-135300000D02*
X162776562Y-135300000D01*
X162906641Y-135300000D02*
X162912500Y-135300000D01*
X98879262Y-161163468D02*
X98879272Y-161237603D01*
X176893792Y-51293792D02*
X177241207Y-51641207D01*
X98879279Y-161311738D02*
X98879284Y-161356219D01*
X163409765Y-135300000D02*
X163365234Y-135300000D01*
X164175000Y-135300000D02*
X164100000Y-135300000D01*
X98876502Y-157100885D02*
X98876521Y-157115712D01*
X161227500Y-111243750D02*
X161227500Y-132211250D01*
X98878929Y-160044033D02*
X98878955Y-160103340D01*
X167743750Y-135300000D02*
X167600000Y-135300000D01*
X178133803Y-110775000D02*
X178117546Y-110775000D01*
X162799999Y-135300000D02*
X162776562Y-135300000D01*
X176492614Y-110775000D02*
X176503249Y-110775000D01*
X162958202Y-135300000D02*
X162989061Y-135300000D01*
X98879129Y-160555563D02*
X98879134Y-160570389D01*
X165259375Y-135300000D02*
X165215625Y-135300000D01*
X162514062Y-135300000D02*
X162509374Y-135300000D01*
X167253125Y-135300000D02*
X167215625Y-135300000D01*
X178199708Y-110775000D02*
X178215965Y-110775000D01*
X177660194Y-110775000D02*
X177565427Y-110775000D01*
X176492614Y-110775000D02*
X176464255Y-110775000D01*
X164250000Y-135300000D02*
X164175000Y-135300000D01*
X98877680Y-158198079D02*
X98877808Y-158353762D01*
X165503125Y-135300000D02*
X165384375Y-135300000D01*
X165200000Y-135300000D02*
X165215625Y-135300000D01*
X176609596Y-110775000D02*
X176574147Y-110775000D01*
X165621875Y-135300000D02*
X165907813Y-135300000D01*
X178488662Y-110775000D02*
X178481886Y-110775000D01*
X175125302Y-135300000D02*
X175490812Y-135300000D01*
X178165688Y-110775000D02*
X178161063Y-110775000D01*
X167290625Y-135300000D02*
X167253125Y-135300000D01*
X177969233Y-110775000D02*
X177934967Y-110775000D01*
X176574147Y-110775000D02*
X176538698Y-110775000D01*
X178723710Y-110775000D02*
X178719865Y-110775000D01*
X98870597Y-153243146D02*
X98871011Y-153494528D01*
X163020313Y-135300000D02*
X163037500Y-135300000D01*
X98871560Y-153827426D02*
X98871864Y-154012240D01*
X98875103Y-156107480D02*
X98875225Y-156189028D01*
X162862109Y-135300000D02*
X162860938Y-135300000D01*
X178199708Y-110775000D02*
X178185202Y-110775000D01*
X98864373Y-149630558D02*
X98864518Y-149711675D01*
X162603123Y-135300000D02*
X162598436Y-135300000D01*
X170218749Y-135300000D02*
X170182812Y-135300000D01*
X98879284Y-161356219D02*
X98879286Y-161371046D01*
X98879289Y-161408114D02*
X98879287Y-161385873D01*
X98879205Y-160844688D02*
X98879250Y-161081920D01*
X160156590Y-132705000D02*
X158757500Y-132705000D01*
X162842186Y-135300000D02*
X162828123Y-135300000D01*
X98877667Y-158183252D02*
X98877680Y-158198079D01*
X178101289Y-110775000D02*
X178059866Y-110775000D01*
X177329041Y-110775000D02*
X177357400Y-110775000D01*
X98875792Y-156574529D02*
X98875833Y-156604183D01*
X168490625Y-135300000D02*
X168400000Y-135300000D01*
X98877520Y-158027569D02*
X98877653Y-158168425D01*
X176517429Y-110775000D02*
X176538698Y-110775000D01*
X178251983Y-110775000D02*
X178307932Y-110775000D01*
X167018750Y-135300000D02*
X166875000Y-135300000D01*
X98864838Y-149889167D02*
X98865037Y-150000799D01*
X164400000Y-135300000D02*
X164325000Y-135300000D01*
X177376603Y-110775000D02*
X177376425Y-110775000D01*
X178835000Y-67231604D02*
X178835000Y-55488963D01*
X98879296Y-161526730D02*
X98879298Y-161586038D01*
X178161063Y-110775000D02*
X178148309Y-110775000D01*
X98877034Y-157553107D02*
X98877099Y-157612415D01*
X178644346Y-110775000D02*
X178627213Y-110775000D01*
X162958202Y-135300000D02*
X162941796Y-135300000D01*
X164070312Y-135300000D02*
X164100000Y-135300000D01*
X163365234Y-135300000D02*
X163273437Y-135300000D01*
X162531640Y-135300000D02*
X162524609Y-135300000D01*
X177152061Y-110775000D02*
X177128722Y-110775000D01*
X177446792Y-110775000D02*
X177437103Y-110775000D01*
X98878286Y-158976493D02*
X98878065Y-158679955D01*
X162524609Y-135300000D02*
X162523438Y-135300000D01*
X168400000Y-135300000D02*
X168181250Y-135300000D01*
X165621875Y-135300000D02*
X165503125Y-135300000D01*
X162531640Y-135300000D02*
X162537500Y-135300000D01*
X162851562Y-135300000D02*
X162846874Y-135300000D01*
X178691634Y-110775000D02*
X178676861Y-110775000D01*
X162700390Y-135300000D02*
X162749609Y-135300000D01*
X162650000Y-135300000D02*
X162626562Y-135300000D01*
X165050000Y-135300000D02*
X164975000Y-135300000D01*
X178265278Y-65905278D02*
X178300000Y-65940000D01*
X163114062Y-135300000D02*
X163110937Y-135300000D01*
X98876230Y-156893307D02*
X98876329Y-156967442D01*
X98875225Y-156189028D02*
X98875489Y-156366951D01*
X98879299Y-161623105D02*
X98879299Y-161637932D01*
X162828123Y-135300000D02*
X162823436Y-135300000D01*
X162856250Y-135300000D02*
X162851562Y-135300000D01*
X163751953Y-135300000D02*
X163687109Y-135300000D01*
X177532223Y-110775000D02*
X177565427Y-110775000D01*
X178835000Y-110706715D02*
X178835000Y-110763284D01*
X166731250Y-135300000D02*
X166620312Y-135300000D01*
X171983477Y-135300000D02*
X171797771Y-135300000D01*
X178315089Y-110775000D02*
X178307932Y-110775000D01*
X176385301Y-135300000D02*
X176087138Y-135300000D01*
X178407301Y-110775000D02*
X178428127Y-110775000D01*
X178233974Y-110775000D02*
X178215965Y-110775000D01*
X178703018Y-110775000D02*
X178700353Y-110775000D01*
X178185202Y-110775000D02*
X178179700Y-110775000D01*
X98865641Y-150340143D02*
X98865794Y-150426090D01*
X98879053Y-160340572D02*
X98879076Y-160399880D01*
X169955078Y-135300000D02*
X169463672Y-135300000D01*
X164975000Y-135300000D02*
X164900000Y-135300000D01*
X178744251Y-110775000D02*
X178731839Y-110775000D01*
X98879286Y-161371046D02*
X98879287Y-161385873D01*
X178463003Y-110775000D02*
X178475110Y-110775000D01*
X166794922Y-135300000D02*
X166778516Y-135300000D01*
X163935937Y-135300000D02*
X163816797Y-135300000D01*
X98876483Y-157086058D02*
X98876502Y-157100885D01*
X177981207Y-110775000D02*
X177969233Y-110775000D01*
X98879167Y-160689004D02*
X98879186Y-160763139D01*
X178030759Y-110775000D02*
X178017129Y-110775000D01*
X98876623Y-157197261D02*
X98876695Y-157256569D01*
X98878873Y-159925417D02*
X98878929Y-160044033D01*
X98876695Y-157256569D02*
X98876764Y-157315876D01*
X177934967Y-110775000D02*
X177921241Y-110775000D01*
X163478515Y-135300000D02*
X163454296Y-135300000D01*
X98879205Y-160844688D02*
X98879186Y-160763139D01*
X98867005Y-151117125D02*
X98867206Y-151233203D01*
X178407301Y-110775000D02*
X178348212Y-110775000D01*
X167162500Y-135300000D02*
X167215625Y-135300000D01*
X177413943Y-110775000D02*
X177395273Y-110775000D01*
X162893750Y-135300000D02*
X162875000Y-135300000D01*
X163225000Y-135300000D02*
X163226562Y-135300000D01*
X168890625Y-135300000D02*
X168490625Y-135300000D01*
X162926562Y-135300000D02*
X162912500Y-135300000D01*
X98879299Y-161652759D02*
X98879300Y-161667586D01*
X178251983Y-110775000D02*
X178233974Y-110775000D01*
X98873364Y-154960977D02*
X98873763Y-155222694D01*
X158772500Y-88235000D02*
X161135000Y-88235000D01*
X177128722Y-110775000D02*
X177105383Y-110775000D01*
X162587890Y-135300000D02*
X162580859Y-135300000D01*
X166501171Y-135300000D02*
X166509374Y-135300000D01*
X168890625Y-135300000D02*
X169463672Y-135300000D01*
X176435896Y-110775000D02*
X176407537Y-110775000D01*
X177887071Y-110775000D02*
X177907611Y-110775000D01*
X170254686Y-135300000D02*
X170218749Y-135300000D01*
X166501171Y-135300000D02*
X166373827Y-135300000D01*
X131140000Y-69070000D02*
X129850000Y-69070000D01*
X98871011Y-153494528D02*
X98871560Y-153827426D01*
X167162500Y-135300000D02*
X167018750Y-135300000D01*
X175125302Y-135300000D02*
X174067345Y-135300000D01*
X176375633Y-110775000D02*
X176382723Y-110775000D01*
X98879272Y-161237603D02*
X98879279Y-161311738D01*
X98878286Y-158976493D02*
X98878519Y-159302686D01*
X177475505Y-110775000D02*
X177456481Y-110775000D01*
X166017187Y-135300000D02*
X165907813Y-135300000D01*
X162904297Y-135300000D02*
X162901953Y-135300000D01*
X177708091Y-110775000D02*
X177707065Y-110775000D01*
X98878719Y-159628880D02*
X98878641Y-159488024D01*
X178644346Y-110775000D02*
X178662088Y-110775000D01*
X178179700Y-110775000D02*
X178176197Y-110775000D01*
X98870178Y-152991764D02*
X98868938Y-152251232D01*
X98879298Y-161586038D02*
X98879298Y-161608278D01*
X163087500Y-135300000D02*
X163110937Y-135300000D01*
X178627213Y-110775000D02*
X178619084Y-110775000D01*
X98876549Y-157137953D02*
X98876521Y-157115712D01*
X171063671Y-135300000D02*
X170536327Y-135300000D01*
X162700390Y-135300000D02*
X162674609Y-135300000D01*
X98876967Y-157493799D02*
X98877034Y-157553107D01*
X98875749Y-156544875D02*
X98875792Y-156574529D01*
X98879076Y-160399880D02*
X98879098Y-160459188D01*
X177914426Y-110775000D02*
X177907611Y-110775000D01*
X98865037Y-150000799D02*
X98865173Y-150076703D01*
X164475000Y-135300000D02*
X164900000Y-135300000D01*
X178322246Y-110775000D02*
X178315089Y-110775000D01*
X98879146Y-160614869D02*
X98879167Y-160689004D01*
X178001843Y-110775000D02*
X177991525Y-110775000D01*
X163594139Y-135300000D02*
X163585936Y-135300000D01*
X98867206Y-151233203D02*
X98867728Y-151536817D01*
X98879293Y-161467422D02*
X98879296Y-161526730D01*
X177991525Y-110775000D02*
X177981207Y-110775000D01*
X98873364Y-154960977D02*
X98873303Y-154920803D01*
X178169191Y-110775000D02*
X178165688Y-110775000D01*
X177291347Y-110775000D02*
X177253653Y-110775000D01*
X166731250Y-135300000D02*
X166778516Y-135300000D01*
X178764843Y-110775000D02*
X178766715Y-110775000D01*
X98878955Y-160103340D02*
X98878979Y-160162647D01*
X162504686Y-135300000D02*
X162503514Y-135300000D01*
X162575000Y-135300000D02*
X162556250Y-135300000D01*
X98864518Y-149711675D02*
X98864637Y-149777535D01*
X163618358Y-135300000D02*
X163594139Y-135300000D01*
X177253653Y-110775000D02*
X177152061Y-110775000D01*
X162523438Y-135300000D02*
X162518750Y-135300000D01*
X98871866Y-154013963D02*
X98871864Y-154012240D01*
X176380000Y-88305000D02*
X178795000Y-88305000D01*
X166811328Y-135300000D02*
X166794922Y-135300000D01*
X98875081Y-156092653D02*
X98875103Y-156107480D01*
X98875706Y-156515221D02*
X98875749Y-156544875D01*
X170290623Y-135300000D02*
X170254686Y-135300000D01*
X161227500Y-111243750D02*
X161227500Y-110211250D01*
X162823436Y-135300000D02*
X162799999Y-135300000D01*
X178348212Y-110775000D02*
X178322246Y-110775000D01*
X162893750Y-135300000D02*
X162901953Y-135300000D01*
X162607811Y-135300000D02*
X162603123Y-135300000D01*
X165125000Y-135300000D02*
X165050000Y-135300000D01*
X163273437Y-135300000D02*
X163226562Y-135300000D01*
X163004687Y-135300000D02*
X162989061Y-135300000D01*
X176517429Y-110775000D02*
X176510339Y-110775000D01*
X163454296Y-135300000D02*
X163409765Y-135300000D01*
X178117500Y-134582500D02*
X178835000Y-133865000D01*
X160156590Y-110705000D02*
X158757500Y-110705000D01*
X178522587Y-110775000D02*
X178511926Y-110775000D01*
X98876230Y-156893307D02*
X98876029Y-156745038D01*
X98879298Y-161608278D02*
X98879299Y-161623105D01*
X98872164Y-154195331D02*
X98872458Y-154376699D01*
X167600000Y-135300000D02*
X167381250Y-135300000D01*
X98872458Y-154376699D02*
X98872745Y-154558067D01*
X162621874Y-135300000D02*
X162626562Y-135300000D01*
X98866117Y-150609180D02*
X98866757Y-150974209D01*
X176368544Y-110775000D02*
X176365000Y-110775000D01*
X162869140Y-135300000D02*
X162875000Y-135300000D01*
X98874319Y-155588538D02*
X98874611Y-155781288D01*
X167962500Y-135300000D02*
X167743750Y-135300000D01*
X177709117Y-110775000D02*
X177776571Y-110775000D01*
X177057500Y-65405000D02*
X176350000Y-65405000D01*
X178835000Y-110763284D02*
X178835000Y-133800000D01*
X165384375Y-135300000D02*
X165303125Y-135300000D01*
X98878719Y-159628880D02*
X98878873Y-159925417D01*
X176762031Y-110775000D02*
X176648590Y-110775000D01*
X178619084Y-110775000D02*
X178618209Y-110775000D01*
X163816797Y-135300000D02*
X163751953Y-135300000D01*
X98868306Y-151876160D02*
X98868938Y-152251232D01*
X98879300Y-161667586D02*
X98879300Y-161675000D01*
X162598436Y-135300000D02*
X162593749Y-135300000D01*
X178594699Y-110775000D02*
X178579317Y-110775000D01*
X98879124Y-160540736D02*
X98879129Y-160555563D01*
X98874611Y-155781288D02*
X98874901Y-155974038D01*
X163504686Y-135300000D02*
X163486327Y-135300000D01*
X162503514Y-135300000D02*
X162501171Y-135300000D01*
X163087500Y-135300000D02*
X163037500Y-135300000D01*
X162509374Y-135300000D02*
X162504686Y-135300000D01*
X162941796Y-135300000D02*
X162940624Y-135300000D01*
X178501265Y-110775000D02*
X178490604Y-110775000D01*
X178617334Y-110775000D02*
X178610081Y-110775000D01*
X163545311Y-135300000D02*
X163504686Y-135300000D01*
X178133803Y-110775000D02*
X178148309Y-110775000D01*
X178511926Y-110775000D02*
X178501265Y-110775000D01*
X98876329Y-156967442D02*
X98876425Y-157041577D01*
X178563935Y-110775000D02*
X178522587Y-110775000D01*
X178747944Y-110775000D02*
X178744251Y-110775000D01*
X177709117Y-110775000D02*
X177708091Y-110775000D01*
X177921241Y-110775000D02*
X177914426Y-110775000D01*
X178001843Y-110775000D02*
X178003499Y-110775000D01*
X160210909Y-110727500D02*
X160711250Y-110727500D01*
X163020313Y-135300000D02*
X163004687Y-135300000D01*
X163642577Y-135300000D02*
X163687109Y-135300000D01*
X172169183Y-135300000D02*
X173009388Y-135300000D01*
X170536327Y-135300000D02*
X170290623Y-135300000D01*
X98864373Y-149630558D02*
X98864300Y-149590000D01*
X177839175Y-110775000D02*
X177834272Y-110775000D01*
X177503864Y-110775000D02*
X177475505Y-110775000D01*
X98866757Y-150974209D02*
X98866882Y-151045667D01*
X178490604Y-110775000D02*
X178488662Y-110775000D01*
X98877653Y-158168425D02*
X98877667Y-158183252D01*
X162940624Y-135300000D02*
X162926562Y-135300000D01*
X98874319Y-155588538D02*
X98873763Y-155222694D01*
X176365000Y-132775000D02*
X178675000Y-132775000D01*
X174067345Y-135300000D02*
X173009388Y-135300000D01*
X98872745Y-154558067D02*
X98873026Y-154739435D01*
X164325000Y-135300000D02*
X164250000Y-135300000D01*
X163225000Y-135300000D02*
X163181250Y-135300000D01*
X177437103Y-110775000D02*
X177432613Y-110775000D01*
X177432613Y-110775000D02*
X177413943Y-110775000D01*
X176087138Y-135300000D02*
X175490812Y-135300000D01*
X178752970Y-110775000D02*
X178747944Y-110775000D01*
X178579317Y-110775000D02*
X178563935Y-110775000D01*
X163181250Y-135300000D02*
X163137500Y-135300000D01*
X160657778Y-65835278D02*
X160692500Y-65870000D01*
X162674609Y-135300000D02*
X162673438Y-135300000D01*
X98879098Y-160459188D02*
X98879117Y-160518496D01*
X162575000Y-135300000D02*
X162580859Y-135300000D01*
X176609596Y-110775000D02*
X176648590Y-110775000D01*
X98877808Y-158353762D02*
X98878065Y-158679955D01*
X98876549Y-157137953D02*
X98876623Y-157197261D01*
X98875565Y-156418845D02*
X98875489Y-156366951D01*
X171063671Y-135300000D02*
X171797771Y-135300000D01*
X177456481Y-110775000D02*
X177446792Y-110775000D01*
X176510339Y-110775000D02*
X176503249Y-110775000D01*
X177329041Y-110775000D02*
X177291347Y-110775000D01*
X177834272Y-110775000D02*
X177776571Y-110775000D01*
X161227500Y-110211250D02*
X161227500Y-67161604D01*
X163482421Y-135300000D02*
X163478515Y-135300000D01*
X176875469Y-110775000D02*
X176762031Y-110775000D01*
X98879250Y-161081920D02*
X98879262Y-161163468D01*
X176953192Y-110775000D02*
X176939189Y-110775000D01*
X177532223Y-110775000D02*
X177503864Y-110775000D01*
X160210909Y-132727500D02*
X160711250Y-132727500D01*
X177074337Y-110775000D02*
X176988906Y-110775000D01*
X98875706Y-156515221D02*
X98875674Y-156492980D01*
X98878623Y-159458369D02*
X98878633Y-159473197D01*
X98878633Y-159473197D02*
X98878641Y-159488024D01*
X98877223Y-157731030D02*
X98877520Y-158027569D01*
X162556250Y-135300000D02*
X162537500Y-135300000D01*
X177376425Y-110775000D02*
X177357400Y-110775000D01*
X178059866Y-110775000D02*
X178035918Y-110775000D01*
X164070312Y-135300000D02*
X163935937Y-135300000D01*
X98875058Y-156077826D02*
X98875081Y-156092653D01*
X178703018Y-110775000D02*
X178719865Y-110775000D01*
X177887071Y-110775000D02*
X177839175Y-110775000D01*
X162518750Y-135300000D02*
X162514062Y-135300000D01*
X162906641Y-135300000D02*
X162904297Y-135300000D01*
X178481886Y-110775000D02*
X178475110Y-110775000D01*
X98879124Y-160540736D02*
X98879117Y-160518496D01*
X178445565Y-110775000D02*
X178428127Y-110775000D01*
X176464255Y-110775000D02*
X176435896Y-110775000D01*
X98878623Y-159458369D02*
X98878519Y-159302686D01*
X178727555Y-110775000D02*
X178723710Y-110775000D01*
X98879289Y-161408114D02*
X98879293Y-161467422D01*
X98868245Y-151840431D02*
X98868306Y-151876160D01*
X178676861Y-110775000D02*
X178662088Y-110775000D01*
X98879299Y-161652759D02*
X98879299Y-161637932D01*
X170182812Y-135300000D02*
X169955078Y-135300000D01*
X98879146Y-160614869D02*
X98879134Y-160570389D01*
X98876425Y-157041577D02*
X98876483Y-157086058D01*
X162500000Y-135300000D02*
X162501171Y-135300000D01*
X178691634Y-110775000D02*
X178697688Y-110775000D01*
X98875885Y-156641250D02*
X98876029Y-156745038D01*
X178757996Y-110775000D02*
X178752970Y-110775000D01*
X178618209Y-110775000D02*
X178617334Y-110775000D01*
X176396903Y-110775000D02*
X176389813Y-110775000D01*
X98876764Y-157315876D02*
X98876831Y-157375183D01*
X98865956Y-150517635D02*
X98866117Y-150609180D01*
X166620312Y-135300000D02*
X166509374Y-135300000D01*
X159450000Y-65335000D02*
X158742500Y-65335000D01*
X167381250Y-135300000D02*
X167290625Y-135300000D01*
X177395273Y-110775000D02*
X177376603Y-110775000D01*
X165200000Y-135300000D02*
X165125000Y-135300000D01*
X178835000Y-110706715D02*
X178835000Y-67231604D01*
X176407537Y-110775000D02*
X176396903Y-110775000D01*
X162621874Y-135300000D02*
X162607811Y-135300000D01*
X163642577Y-135300000D02*
X163618358Y-135300000D01*
X176939189Y-110775000D02*
X176925186Y-110775000D01*
X161200000Y-134000000D02*
X161200000Y-132700000D01*
X162860938Y-135300000D02*
X162856250Y-135300000D01*
X176988906Y-110775000D02*
X176953192Y-110775000D01*
X178463003Y-110775000D02*
X178445565Y-110775000D01*
X162869140Y-135300000D02*
X162862109Y-135300000D01*
X176385301Y-135300000D02*
G75*
G03*
X178117499Y-134582499I-1J2449700D01*
G01*
X159450000Y-65335013D02*
G75*
G02*
X160657778Y-65835278I0J-1708087D01*
G01*
X177057500Y-65405013D02*
G75*
G02*
X178265278Y-65905278I0J-1708087D01*
G01*
X160156590Y-110705005D02*
G75*
G02*
X160183749Y-110716251I10J-38395D01*
G01*
X133342160Y-68157825D02*
G75*
G02*
X131140000Y-69070000I-2202160J2202125D01*
G01*
X160711250Y-110727500D02*
G75*
G02*
X161227500Y-111243750I-50J-516300D01*
G01*
X178300001Y-65939999D02*
G75*
G02*
X178835000Y-67231604I-1291601J-1291601D01*
G01*
X160711250Y-110727500D02*
G75*
G03*
X161227500Y-110211250I-50J516300D01*
G01*
X160156590Y-132705005D02*
G75*
G02*
X160183749Y-132716251I10J-38395D01*
G01*
X178814995Y-110754995D02*
G75*
G03*
X178835000Y-110706715I-48295J48295D01*
G01*
X178815027Y-110755027D02*
G75*
G02*
X178835000Y-110763284I8273J-8273D01*
G01*
X178835010Y-55488963D02*
G75*
G03*
X177241206Y-51641208I-5441610J-37D01*
G01*
X160210909Y-132727495D02*
G75*
G02*
X160183751Y-132716249I-9J38395D01*
G01*
X160210909Y-110727495D02*
G75*
G02*
X160183751Y-110716249I-9J38395D01*
G01*
X178814995Y-110754995D02*
G75*
G02*
X178766715Y-110775000I-48295J48295D01*
G01*
X150206236Y-51293821D02*
G75*
G02*
X154053963Y-49700000I3847764J-3847679D01*
G01*
X160692501Y-65869999D02*
G75*
G02*
X161227500Y-67161604I-1291601J-1291601D01*
G01*
X162500000Y-135300000D02*
G75*
G02*
X161200000Y-134000000I0J1300000D01*
G01*
X161227500Y-132211250D02*
G75*
G02*
X160711250Y-132727500I-516300J50D01*
G01*
X173046036Y-49699990D02*
G75*
G02*
X176893791Y-51293793I-36J-5441610D01*
G01*
%TO.N,/SCL_2*%
X71076234Y-137423761D02*
X71197078Y-137302918D01*
X53900000Y-159780554D02*
X53900000Y-149200000D01*
X51025000Y-149200000D02*
X51053125Y-149200000D01*
X49460546Y-149200000D02*
X49453515Y-149200000D01*
X49520312Y-149200000D02*
X49523828Y-149200000D01*
X56055562Y-149200000D02*
X55879971Y-149200000D01*
X50557422Y-149200000D02*
X50536328Y-149200000D01*
X50276172Y-149200000D02*
X50279688Y-149200000D01*
X49675000Y-149200000D02*
X49618750Y-149200000D01*
X53875000Y-178502500D02*
X53872500Y-178500000D01*
X54036317Y-149200000D02*
X53678772Y-149200000D01*
X51457422Y-149200000D02*
X51323828Y-149200000D01*
X49745312Y-149200000D02*
X49731250Y-149200000D01*
X114379300Y-159018142D02*
X114379300Y-161675000D01*
X50518749Y-149200000D02*
X50504686Y-149200000D01*
X50631250Y-149200000D02*
X50575000Y-149200000D01*
X37858792Y-160341207D02*
X48681801Y-149518198D01*
X53872500Y-159846945D02*
X53872500Y-198778395D01*
X50051172Y-149200000D02*
X49973828Y-149200000D01*
X66729439Y-141770557D02*
X67930168Y-140569827D01*
X53678772Y-149200000D02*
X53321227Y-149200000D01*
X51545312Y-149200000D02*
X51531250Y-149200000D01*
X49478124Y-149200000D02*
X49464062Y-149200000D01*
X49692578Y-149200000D02*
X49675000Y-149200000D01*
X49492186Y-149200000D02*
X49478124Y-149200000D01*
X50532812Y-149200000D02*
X50536328Y-149200000D01*
X55650000Y-200605000D02*
X56357500Y-200605000D01*
X36800000Y-200000000D02*
X36834721Y-200034721D01*
X50490623Y-149200000D02*
X50476561Y-149200000D01*
X57909526Y-149200000D02*
X57446035Y-149200000D01*
X50420312Y-149200000D02*
X50434374Y-149200000D01*
X49544922Y-149200000D02*
X49523828Y-149200000D01*
X51559374Y-149200000D02*
X51629686Y-149200000D01*
X70499268Y-138000728D02*
X69754662Y-138745334D01*
X77868984Y-132500000D02*
X104700000Y-132500000D01*
X49815623Y-149200000D02*
X49773436Y-149200000D01*
X108800000Y-132500000D02*
X116000000Y-132500000D01*
X49506249Y-149200000D02*
X49492186Y-149200000D01*
X57909526Y-149200000D02*
X58025399Y-149200000D01*
X51784373Y-149200000D02*
X51629686Y-149200000D01*
X72202919Y-136297079D02*
X71867639Y-136632359D01*
X49562500Y-149200000D02*
X49544922Y-149200000D01*
X50051172Y-149200000D02*
X50198828Y-149200000D01*
X50476561Y-149200000D02*
X50434374Y-149200000D01*
X51531250Y-149200000D02*
X51517188Y-149200000D01*
X58257145Y-149200000D02*
X58025399Y-149200000D01*
X57446035Y-149200000D02*
X56982544Y-149200000D01*
X132406206Y-123993792D02*
X131693792Y-124706207D01*
X51025000Y-149200000D02*
X50968750Y-149200000D01*
X38042500Y-200535000D02*
X38750000Y-200535000D01*
X51854686Y-149200000D02*
X51784373Y-149200000D01*
X49520312Y-149200000D02*
X49506249Y-149200000D01*
X71867639Y-136632359D02*
X71532359Y-136967639D01*
X49713672Y-149200000D02*
X49717188Y-149200000D01*
X51165625Y-149200000D02*
X51323828Y-149200000D01*
X114387567Y-154331872D02*
X114404300Y-149590000D01*
X50856250Y-149200000D02*
X50800000Y-149200000D01*
X55879971Y-149200000D02*
X55065298Y-149200000D01*
X58373018Y-149200000D02*
X58257145Y-149200000D01*
X49713672Y-149200000D02*
X49692578Y-149200000D01*
X68842415Y-139657581D02*
X67930168Y-140569827D01*
X50557422Y-149200000D02*
X50575000Y-149200000D01*
X54407500Y-200070000D02*
X54442221Y-200104721D01*
X49773436Y-149200000D02*
X49759374Y-149200000D01*
X50687500Y-149200000D02*
X50631250Y-149200000D01*
X50800000Y-149200000D02*
X50743750Y-149200000D01*
X51165625Y-149200000D02*
X51053125Y-149200000D01*
X38750000Y-178435000D02*
X36330000Y-178435000D01*
X72538199Y-135961799D02*
X72202919Y-136297079D01*
X56982544Y-149200000D02*
X56519053Y-149200000D01*
X51559374Y-149200000D02*
X51545312Y-149200000D01*
X49464062Y-149200000D02*
X49460546Y-149200000D01*
X49450000Y-149200000D02*
X49453515Y-149200000D01*
X63415734Y-145084264D02*
X59955475Y-148544524D01*
X66729439Y-141770557D02*
X63415734Y-145084264D01*
X50276172Y-149200000D02*
X50198828Y-149200000D01*
X69754662Y-138745334D02*
X68842415Y-139657581D01*
X36265000Y-198708395D02*
X36265000Y-164188963D01*
X52149999Y-149200000D02*
X51854686Y-149200000D01*
X74678425Y-133821573D02*
X72538199Y-135961799D01*
X71076234Y-137423761D02*
X70499268Y-138000728D01*
X49759374Y-149200000D02*
X49745312Y-149200000D01*
X51457422Y-149200000D02*
X51517188Y-149200000D01*
X127846036Y-126300000D02*
X122200000Y-126300000D01*
X53881035Y-178505000D02*
X56357500Y-178505000D01*
X50743750Y-149200000D02*
X50687500Y-149200000D01*
X50350000Y-149200000D02*
X50279688Y-149200000D01*
X49899999Y-149200000D02*
X49829686Y-149200000D01*
X56519053Y-149200000D02*
X56055562Y-149200000D01*
X55065298Y-149200000D02*
X54036317Y-149200000D01*
X134000000Y-120146036D02*
X134000000Y-84211162D01*
X50912500Y-149200000D02*
X50856250Y-149200000D01*
X50504686Y-149200000D02*
X50490623Y-149200000D01*
X50968750Y-149200000D02*
X50912500Y-149200000D01*
X49731250Y-149200000D02*
X49717188Y-149200000D01*
X49618750Y-149200000D02*
X49562500Y-149200000D01*
X52445312Y-149200000D02*
X52149999Y-149200000D01*
X52751172Y-149200000D02*
X52448828Y-149200000D01*
X52448828Y-149200000D02*
X52445312Y-149200000D01*
X49970312Y-149200000D02*
X49899999Y-149200000D01*
X49815623Y-149200000D02*
X49829686Y-149200000D01*
X131558837Y-81770000D02*
X129850000Y-81770000D01*
X50532812Y-149200000D02*
X50518749Y-149200000D01*
X49970312Y-149200000D02*
X49973828Y-149200000D01*
X71532359Y-136967639D02*
X71197078Y-137302918D01*
X53321227Y-149200000D02*
X52751172Y-149200000D01*
X50420312Y-149200000D02*
X50350000Y-149200000D01*
X48681801Y-149518198D02*
G75*
G02*
X49450000Y-149200000I768199J-768202D01*
G01*
X114390742Y-154331888D02*
G75*
G03*
X114379300Y-159018142I959351082J-4685412D01*
G01*
X53899951Y-159780554D02*
G75*
G02*
X53886249Y-159813749I-46951J-46D01*
G01*
X53886237Y-159813737D02*
G75*
G03*
X53872500Y-159846945I33163J-33163D01*
G01*
X134000009Y-120146036D02*
G75*
G02*
X132406206Y-123993792I-5441609J36D01*
G01*
X131693785Y-124706200D02*
G75*
G02*
X127846036Y-126300000I-3847785J3847800D01*
G01*
X134000015Y-84211162D02*
G75*
G03*
X133285000Y-82485000I-2441215J-38D01*
G01*
X36834712Y-200034730D02*
G75*
G03*
X38042500Y-200535000I1207788J1207830D01*
G01*
X133284989Y-82485011D02*
G75*
G03*
X131558837Y-81770000I-1726189J-1726189D01*
G01*
X36264960Y-164188963D02*
G75*
G02*
X37858793Y-160341208I5441540J-37D01*
G01*
X54442212Y-200104730D02*
G75*
G03*
X55650000Y-200605000I1207788J1207830D01*
G01*
X59955460Y-148544509D02*
G75*
G02*
X58373018Y-149200000I-1582460J1582409D01*
G01*
X53874990Y-178502510D02*
G75*
G03*
X53881035Y-178505000I6010J6010D01*
G01*
X54407499Y-200070001D02*
G75*
G02*
X53872500Y-198778395I1291601J1291601D01*
G01*
X74678439Y-133821587D02*
G75*
G02*
X77868984Y-132500000I3190561J-3190513D01*
G01*
X36799999Y-200000001D02*
G75*
G02*
X36265000Y-198708395I1291601J1291601D01*
G01*
%TO.N,/SDA_2*%
X61350000Y-180280000D02*
X61350000Y-180363594D01*
X59921309Y-200675000D02*
X59899245Y-200675000D01*
X59951494Y-200675000D02*
X59939842Y-200675000D01*
X41402240Y-200605000D02*
X41395180Y-200605000D01*
X61350000Y-180196406D02*
X61350000Y-180280000D01*
X61350000Y-161713998D02*
X61350000Y-178140000D01*
X61350000Y-179544373D02*
X61350000Y-179561092D01*
X61350000Y-181701092D02*
X61350000Y-181717811D01*
X42408421Y-200605000D02*
X42497417Y-200605000D01*
X43639021Y-200605000D02*
X43642440Y-200605000D01*
X41282211Y-200605000D02*
X41275150Y-200605000D01*
X58934725Y-200675000D02*
X58906835Y-200675000D01*
X60483492Y-200675000D02*
X60475790Y-200675000D01*
X61350000Y-179343748D02*
X61350000Y-179410623D01*
X61350000Y-182775273D02*
X61350000Y-182771094D01*
X61178179Y-200675000D02*
X61161304Y-200675000D01*
X61350000Y-180547498D02*
X61350000Y-180526600D01*
X42859867Y-200605000D02*
X42829210Y-200605000D01*
X41299863Y-200605000D02*
X41289272Y-200605000D01*
X58875458Y-200675000D02*
X58882430Y-200675000D01*
X61350000Y-159320493D02*
X61350000Y-158073379D01*
X41268090Y-200605000D02*
X41275150Y-200605000D01*
X43623167Y-200605000D02*
X43626999Y-200605000D01*
X61350000Y-158123741D02*
X61350000Y-156851446D01*
X59807455Y-200675000D02*
X59707545Y-200675000D01*
X43088346Y-200605000D02*
X43071967Y-200605000D01*
X42502894Y-200605000D02*
X42497417Y-200605000D01*
X43016743Y-200605000D02*
X43012539Y-200605000D01*
X61350000Y-181115936D02*
X61350000Y-181249686D01*
X41765856Y-200605000D02*
X41652888Y-200605000D01*
X58875458Y-200675000D02*
X58868486Y-200675000D01*
X61350000Y-179210000D02*
X61350000Y-178140000D01*
X60246903Y-200675000D02*
X60238969Y-200675000D01*
X111874339Y-154331861D02*
X111864300Y-149590000D01*
X116000000Y-135700000D02*
X109000000Y-135700000D01*
X60416725Y-200675000D02*
X60407552Y-200675000D01*
X61350000Y-180681248D02*
X61350000Y-180748123D01*
X43003298Y-200605000D02*
X42989020Y-200605000D01*
X42829210Y-200605000D02*
X42818765Y-200605000D01*
X59807455Y-200675000D02*
X59843465Y-200675000D01*
X61350000Y-181437772D02*
X61350000Y-181596600D01*
X60680885Y-200675000D02*
X60663642Y-200675000D01*
X43571849Y-200605000D02*
X43558174Y-200605000D01*
X59986450Y-200675000D02*
X59991656Y-200675000D01*
X61197809Y-200675000D02*
X61178179Y-200675000D01*
X61350000Y-179222538D02*
X61350000Y-179226718D01*
X59974798Y-200675000D02*
X59963146Y-200675000D01*
X61350000Y-179527654D02*
X61350000Y-179544373D01*
X41765856Y-200605000D02*
X41819673Y-200605000D01*
X59707545Y-200675000D02*
X59607635Y-200675000D01*
X61350000Y-159345674D02*
X61350000Y-158123741D01*
X61350000Y-180363594D02*
X61350000Y-180380313D01*
X41268090Y-200605000D02*
X41261030Y-200605000D01*
X42284886Y-200605000D02*
X42277773Y-200605000D01*
X41652888Y-200605000D02*
X41539920Y-200605000D01*
X60533213Y-200675000D02*
X60550825Y-200675000D01*
X43356323Y-200605000D02*
X43366467Y-200605000D01*
X43071967Y-200605000D02*
X43055588Y-200605000D01*
X122350000Y-129350000D02*
X128196036Y-129350000D01*
X43523761Y-200605000D02*
X43508432Y-200605000D01*
X78375000Y-135825000D02*
X78324999Y-135874999D01*
X61350000Y-179661406D02*
X61350000Y-179644687D01*
X61350000Y-179276873D02*
X61350000Y-179293592D01*
X43473570Y-200605000D02*
X43456139Y-200605000D01*
X42890524Y-200605000D02*
X42883539Y-200605000D01*
X61350000Y-181667654D02*
X61350000Y-181684373D01*
X59871355Y-200675000D02*
X59843465Y-200675000D01*
X60429014Y-200675000D02*
X60416725Y-200675000D01*
X43558174Y-200605000D02*
X43539090Y-200605000D01*
X61350000Y-182068906D02*
X61350000Y-182420000D01*
X41356347Y-200605000D02*
X41328105Y-200605000D01*
X61350000Y-180948748D02*
X61350000Y-181015623D01*
X61350000Y-158073379D02*
X61350000Y-156750723D01*
X61350000Y-179260154D02*
X61350000Y-179276873D01*
X61350000Y-184560000D02*
X61350000Y-200632322D01*
X61350000Y-179322850D02*
X61350000Y-179343748D01*
X60698128Y-200675000D02*
X60680885Y-200675000D01*
X60928702Y-200675000D02*
X60869271Y-200675000D01*
X43491001Y-200605000D02*
X43473570Y-200605000D01*
X42929590Y-200605000D02*
X42910057Y-200605000D01*
X43539090Y-200605000D02*
X43523761Y-200605000D01*
X61350000Y-180100273D02*
X61350000Y-180192226D01*
X61350000Y-154750000D02*
X61350000Y-155276981D01*
X61350000Y-179828594D02*
X61350000Y-179832773D01*
X61227525Y-200675000D02*
X61212667Y-200675000D01*
X60316213Y-200675000D02*
X60324819Y-200675000D01*
X58990506Y-200675000D02*
X58962615Y-200675000D01*
X60084836Y-200675000D02*
X60032101Y-200675000D01*
X61038214Y-200675000D02*
X61024637Y-200675000D01*
X43041311Y-200605000D02*
X43055588Y-200605000D01*
X43230279Y-200605000D02*
X43248464Y-200605000D01*
X61350000Y-161713998D02*
X61350000Y-159345674D01*
X42724682Y-200605000D02*
X42728832Y-200605000D01*
X41289272Y-200605000D02*
X41282211Y-200605000D01*
X61350000Y-179297772D02*
X61350000Y-179322850D01*
X61350000Y-179561092D02*
X61350000Y-179577811D01*
X42045612Y-200605000D02*
X42145349Y-200605000D01*
X43339117Y-200605000D02*
X43321911Y-200605000D01*
X133936999Y-79230000D02*
X129850000Y-79230000D01*
X104900000Y-135700000D02*
X78641421Y-135700000D01*
X59367029Y-200675000D02*
X59255467Y-200675000D01*
X41465784Y-200605000D02*
X41430481Y-200605000D01*
X41981126Y-200605000D02*
X41878826Y-200605000D01*
X41981126Y-200605000D02*
X42027830Y-200605000D01*
X60647135Y-200675000D02*
X60631364Y-200675000D01*
X61126818Y-200675000D02*
X61135440Y-200675000D01*
X60985796Y-200675000D02*
X60997259Y-200675000D01*
X61350000Y-180192226D02*
X61350000Y-180196406D01*
X41501087Y-200605000D02*
X41465784Y-200605000D01*
X42929590Y-200605000D02*
X42947020Y-200605000D01*
X60137571Y-200675000D02*
X60084836Y-200675000D01*
X42036721Y-200605000D02*
X42027830Y-200605000D01*
X59569333Y-200675000D02*
X59607635Y-200675000D01*
X43020947Y-200605000D02*
X43016743Y-200605000D01*
X61136176Y-200675000D02*
X61144429Y-200675000D01*
X61350000Y-182420000D02*
X61350000Y-182771094D01*
X61350000Y-179214179D02*
X61350000Y-179210000D01*
X41261030Y-200605000D02*
X41257500Y-200605000D01*
X42177148Y-200605000D02*
X42145349Y-200605000D01*
X43659546Y-200605000D02*
X43655814Y-200605000D01*
X61350000Y-180497342D02*
X61350000Y-180501522D01*
X61350000Y-180100273D02*
X61350000Y-179924726D01*
X61350000Y-179832773D02*
X61350000Y-179924726D01*
X60137571Y-200675000D02*
X60153792Y-200675000D01*
X61350000Y-179594530D02*
X61350000Y-179644687D01*
X60594301Y-200675000D02*
X60585311Y-200675000D01*
X59478592Y-200675000D02*
X59367029Y-200675000D01*
X61135808Y-200675000D02*
X61135440Y-200675000D01*
X59070692Y-200675000D02*
X59035829Y-200675000D01*
X60790757Y-200675000D02*
X60723257Y-200675000D01*
X43614451Y-200605000D02*
X43597658Y-200605000D01*
X60619796Y-200675000D02*
X60618323Y-200675000D01*
X61350000Y-182068906D02*
X61350000Y-181985312D01*
X60491194Y-200675000D02*
X60483492Y-200675000D01*
X42261874Y-200605000D02*
X42237189Y-200605000D01*
X61350000Y-181684373D02*
X61350000Y-181701092D01*
X137300000Y-82593000D02*
X137300000Y-120246036D01*
X43659546Y-200605000D02*
X43661412Y-200605000D01*
X43652808Y-200605000D02*
X43647624Y-200605000D01*
X61350000Y-181015623D02*
X61350000Y-181082498D01*
X78224999Y-135974998D02*
X78174999Y-136024997D01*
X61212667Y-200675000D02*
X61197809Y-200675000D01*
X61305350Y-200675000D02*
X61301406Y-200675000D01*
X58896376Y-200675000D02*
X58889403Y-200675000D01*
X42508371Y-200605000D02*
X42502894Y-200605000D01*
X61350000Y-180447188D02*
X61350000Y-180463906D01*
X61350000Y-179226718D02*
X61350000Y-179243436D01*
X43508432Y-200605000D02*
X43501293Y-200605000D01*
X111879300Y-159018143D02*
X111879300Y-161675000D01*
X61350000Y-200667677D02*
X61350000Y-200632322D01*
X61350000Y-180748123D02*
X61350000Y-180814998D01*
X60316213Y-200675000D02*
X60246903Y-200675000D01*
X41830343Y-200605000D02*
X41825008Y-200605000D01*
X43585524Y-200605000D02*
X43590596Y-200605000D01*
X61292784Y-200675000D02*
X61287372Y-200675000D01*
X43742500Y-200523912D02*
X43742500Y-180431604D01*
X61006609Y-200675000D02*
X61001934Y-200675000D01*
X59937548Y-200675000D02*
X59921309Y-200675000D01*
X60925735Y-202274264D02*
X60824999Y-202374999D01*
X42291999Y-200605000D02*
X42284886Y-200605000D01*
X61233257Y-200675000D02*
X61227525Y-200675000D01*
X60475790Y-200675000D02*
X60462765Y-200675000D01*
X60631364Y-200675000D02*
X60624215Y-200675000D01*
X59255467Y-200675000D02*
X59143905Y-200675000D01*
X61350000Y-159320493D02*
X61350000Y-161713998D01*
X60621269Y-200675000D02*
X60619796Y-200675000D01*
X60832031Y-200675000D02*
X60816982Y-200675000D01*
X61350000Y-183490000D02*
X61350000Y-184560000D01*
X61236651Y-200675000D02*
X61233257Y-200675000D01*
X43321911Y-200605000D02*
X43303164Y-200605000D01*
X61266597Y-200675000D02*
X61262195Y-200675000D01*
X60816982Y-200675000D02*
X60790757Y-200675000D01*
X43025151Y-200605000D02*
X43020947Y-200605000D01*
X41328105Y-200605000D02*
X41299863Y-200605000D01*
X42883539Y-200605000D02*
X42877977Y-200605000D01*
X60610807Y-200675000D02*
X60594301Y-200675000D01*
X43372631Y-200605000D02*
X43369549Y-200605000D01*
X61350000Y-182775273D02*
X61350000Y-183134726D01*
X43655814Y-200605000D02*
X43652808Y-200605000D01*
X42208947Y-200605000D02*
X42177148Y-200605000D01*
X43501293Y-200605000D02*
X43500242Y-200605000D01*
X42277773Y-200605000D02*
X42270660Y-200605000D01*
X60238969Y-200675000D02*
X60153792Y-200675000D01*
X43392276Y-200605000D02*
X43378152Y-200605000D01*
X61350000Y-181596600D02*
X61350000Y-181667654D01*
X42979779Y-200605000D02*
X42947020Y-200605000D01*
X43742500Y-200523912D02*
X43742500Y-200591087D01*
X61262195Y-200675000D02*
X61257793Y-200675000D01*
X59105555Y-200675000D02*
X59143905Y-200675000D01*
X61350000Y-179661406D02*
X61350000Y-179745000D01*
X61350000Y-179214179D02*
X61350000Y-179222538D01*
X61350000Y-179745000D02*
X61350000Y-179828594D01*
X42299112Y-200605000D02*
X42291999Y-200605000D01*
X61298196Y-200675000D02*
X61292784Y-200675000D01*
X59899245Y-200675000D02*
X59871355Y-200675000D01*
X60847080Y-200675000D02*
X60869271Y-200675000D01*
X61350000Y-181082498D02*
X61350000Y-181115936D01*
X61350000Y-180547498D02*
X61350000Y-180614373D01*
X43211948Y-200605000D02*
X43193617Y-200605000D01*
X41830343Y-200605000D02*
X41878826Y-200605000D01*
X41430481Y-200605000D02*
X41409300Y-200605000D01*
X61350000Y-179297772D02*
X61350000Y-179293592D01*
X43623167Y-200605000D02*
X43618809Y-200605000D01*
X43230279Y-200605000D02*
X43211948Y-200605000D01*
X61283657Y-200675000D02*
X61270816Y-200675000D01*
X61161304Y-200675000D02*
X61144429Y-200675000D01*
X42724682Y-200605000D02*
X42666192Y-200605000D01*
X43207500Y-179140000D02*
X43172778Y-179105278D01*
X61350000Y-155276981D02*
X61350000Y-156750723D01*
X43491001Y-200605000D02*
X43499191Y-200605000D01*
X43378152Y-200605000D02*
X43372631Y-200605000D01*
X61001934Y-200675000D02*
X60997259Y-200675000D01*
X60985796Y-200675000D02*
X60967544Y-200675000D01*
X61350000Y-156851446D02*
X61350000Y-155478428D01*
X42910057Y-200605000D02*
X42890524Y-200605000D01*
X61091594Y-200675000D02*
X61051791Y-200675000D01*
X42553084Y-200605000D02*
X42508371Y-200605000D01*
X61126818Y-200675000D02*
X61109206Y-200675000D01*
X43594127Y-200605000D02*
X43590596Y-200605000D01*
X60624215Y-200675000D02*
X60622742Y-200675000D01*
X61350000Y-181717811D02*
X61350000Y-181801405D01*
X61350000Y-180380313D02*
X61350000Y-180430469D01*
X61350000Y-180501522D02*
X61350000Y-180526600D01*
X59105555Y-200675000D02*
X59070692Y-200675000D01*
X61051791Y-200675000D02*
X61038214Y-200675000D01*
X43420524Y-200605000D02*
X43456139Y-200605000D01*
X61024637Y-200675000D02*
X61011060Y-200675000D01*
X59007938Y-200675000D02*
X59000965Y-200675000D01*
X43012539Y-200605000D02*
X43008335Y-200605000D01*
X60585311Y-200675000D02*
X60550825Y-200675000D01*
X61283657Y-200675000D02*
X61287372Y-200675000D01*
X61350000Y-200667677D02*
X61350000Y-201250000D01*
X41395180Y-200605000D02*
X41384589Y-200605000D01*
X61350000Y-179477498D02*
X61350000Y-179498397D01*
X43172126Y-200605000D02*
X43110813Y-200605000D01*
X60967544Y-200675000D02*
X60949292Y-200675000D01*
X61350000Y-179523475D02*
X61350000Y-179527654D01*
X59035829Y-200675000D02*
X59014911Y-200675000D01*
X43585524Y-200605000D02*
X43571849Y-200605000D01*
X60533213Y-200675000D02*
X60514865Y-200675000D01*
X61350000Y-179498397D02*
X61350000Y-179523475D01*
X60398379Y-200675000D02*
X60376917Y-200675000D01*
X59522721Y-200675000D02*
X59478592Y-200675000D01*
X43369549Y-200605000D02*
X43366467Y-200605000D01*
X59937548Y-200675000D02*
X59939842Y-200675000D01*
X61350000Y-155478428D02*
X61350000Y-153903963D01*
X42979779Y-200605000D02*
X42989020Y-200605000D01*
X42666192Y-200605000D02*
X42647986Y-200605000D01*
X60491194Y-200675000D02*
X60496517Y-200675000D01*
X61305350Y-200675000D02*
X61307322Y-200675000D01*
X41965000Y-178605000D02*
X41257500Y-178605000D01*
X61350000Y-179410623D02*
X61350000Y-179477498D01*
X59569333Y-200675000D02*
X59546027Y-200675000D01*
X58889403Y-200675000D02*
X58882430Y-200675000D01*
X43742500Y-201150000D02*
X43742500Y-200591087D01*
X61240045Y-200675000D02*
X61236651Y-200675000D01*
X43500242Y-200605000D02*
X43499191Y-200605000D01*
X43647624Y-200605000D02*
X43642440Y-200605000D01*
X78174999Y-136024997D02*
X78099999Y-136099998D01*
X60013720Y-200675000D02*
X59991656Y-200675000D01*
X41825008Y-200605000D02*
X41819673Y-200605000D01*
X43029136Y-200605000D02*
X43025151Y-200605000D01*
X61350000Y-181801405D02*
X61350000Y-181985312D01*
X78274998Y-135924999D02*
X78224999Y-135974998D01*
X78400000Y-135800000D02*
X78375000Y-135825000D01*
X59014911Y-200675000D02*
X59007938Y-200675000D01*
X62693502Y-151506497D02*
X77899998Y-136299999D01*
X42808999Y-200605000D02*
X42799233Y-200605000D01*
X41539920Y-200605000D02*
X41501087Y-200605000D01*
X59557537Y-202900000D02*
X45718476Y-202900000D01*
X60723257Y-200675000D02*
X60698128Y-200675000D01*
X60514865Y-200675000D02*
X60496517Y-200675000D01*
X42351937Y-200605000D02*
X42327251Y-200605000D01*
X42380179Y-200605000D02*
X42351937Y-200605000D01*
X43406400Y-200605000D02*
X43392276Y-200605000D01*
X41409300Y-200605000D02*
X41402240Y-200605000D01*
X42647986Y-200605000D02*
X42553084Y-200605000D01*
X78274998Y-135924999D02*
X78324999Y-135874999D01*
X60013720Y-200675000D02*
X60032101Y-200675000D01*
X61350000Y-180814998D02*
X61350000Y-180881873D01*
X61350000Y-179243436D02*
X61350000Y-179260154D01*
X59546027Y-200675000D02*
X59522721Y-200675000D01*
X42799233Y-200605000D02*
X42779021Y-200605000D01*
X43618809Y-200605000D02*
X43614451Y-200605000D01*
X42877977Y-200605000D02*
X42872415Y-200605000D01*
X42299112Y-200605000D02*
X42306121Y-200605000D01*
X61350000Y-179594530D02*
X61350000Y-179577811D01*
X61350000Y-180447188D02*
X61350000Y-180430469D01*
X41384589Y-200605000D02*
X41356347Y-200605000D01*
X61270816Y-200675000D02*
X61266597Y-200675000D01*
X42408421Y-200605000D02*
X42380179Y-200605000D01*
X60622742Y-200675000D02*
X60621269Y-200675000D01*
X61240045Y-200675000D02*
X61257793Y-200675000D01*
X43303164Y-200605000D02*
X43248464Y-200605000D01*
X61350000Y-180614373D02*
X61350000Y-180681248D01*
X43193617Y-200605000D02*
X43172126Y-200605000D01*
X61350000Y-180480624D02*
X61350000Y-180497342D01*
X132043792Y-127756207D02*
X135706207Y-124093792D01*
X42045612Y-200605000D02*
X42036721Y-200605000D01*
X58962615Y-200675000D02*
X58934725Y-200675000D01*
X43420524Y-200605000D02*
X43406400Y-200605000D01*
X42779021Y-200605000D02*
X42728832Y-200605000D01*
X43356323Y-200605000D02*
X43339117Y-200605000D01*
X43639021Y-200605000D02*
X43626999Y-200605000D01*
X59986450Y-200675000D02*
X59974798Y-200675000D01*
X60376917Y-200675000D02*
X60324819Y-200675000D01*
X43110813Y-200605000D02*
X43088346Y-200605000D01*
X61301406Y-200675000D02*
X61298196Y-200675000D01*
X60815000Y-178675000D02*
X58865000Y-178675000D01*
X61109206Y-200675000D02*
X61091594Y-200675000D01*
X43008335Y-200605000D02*
X43003298Y-200605000D01*
X60928702Y-200675000D02*
X60949292Y-200675000D01*
X61350000Y-181437772D02*
X61350000Y-181249686D01*
X58896376Y-200675000D02*
X58906835Y-200675000D01*
X61011060Y-200675000D02*
X61006609Y-200675000D01*
X43041311Y-200605000D02*
X43029136Y-200605000D01*
X44321250Y-202321250D02*
X44161460Y-202161460D01*
X78099999Y-136099998D02*
X77899998Y-136299999D01*
X61350000Y-180881873D02*
X61350000Y-180948748D01*
X43597658Y-200605000D02*
X43594127Y-200605000D01*
X60847080Y-200675000D02*
X60832031Y-200675000D01*
X42859867Y-200605000D02*
X42872415Y-200605000D01*
X61350000Y-183490000D02*
X61350000Y-183134726D01*
X61136176Y-200675000D02*
X61135808Y-200675000D01*
X59000965Y-200675000D02*
X58990506Y-200675000D01*
X42237189Y-200605000D02*
X42208947Y-200605000D01*
X60663642Y-200675000D02*
X60647135Y-200675000D01*
X61350000Y-180463906D02*
X61350000Y-180480624D01*
X60407552Y-200675000D02*
X60398379Y-200675000D01*
X59963146Y-200675000D02*
X59951494Y-200675000D01*
X60610807Y-200675000D02*
X60618323Y-200675000D01*
X42327251Y-200605000D02*
X42306121Y-200605000D01*
X60462765Y-200675000D02*
X60429014Y-200675000D01*
X42261874Y-200605000D02*
X42270660Y-200605000D01*
X58868486Y-200675000D02*
X58865000Y-200675000D01*
X42818765Y-200605000D02*
X42808999Y-200605000D01*
X61337493Y-200662493D02*
G75*
G03*
X61350000Y-200632322I-30193J30193D01*
G01*
X43742494Y-201150000D02*
G75*
G03*
X44161460Y-202161460I1430406J0D01*
G01*
X43742498Y-180431604D02*
G75*
G03*
X43207500Y-179140000I-1826598J4D01*
G01*
X137300010Y-120246036D02*
G75*
G02*
X135706207Y-124093792I-5441610J36D01*
G01*
X137299999Y-82593000D02*
G75*
G03*
X136314999Y-80215001I-3362999J0D01*
G01*
X61337493Y-200662493D02*
G75*
G02*
X61307322Y-200675000I-30193J30193D01*
G01*
X43718746Y-200581246D02*
G75*
G03*
X43742500Y-200523912I-57346J57346D01*
G01*
X61350000Y-156750723D02*
G75*
G02*
X61350000Y-156851446I-1135091824J-50362D01*
G01*
X62693504Y-151506499D02*
G75*
G03*
X61350000Y-154750000I3243496J-3243501D01*
G01*
X61350000Y-155478428D02*
G75*
G03*
X61350000Y-155276981I-1135091824J100723D01*
G01*
X45718476Y-202900009D02*
G75*
G02*
X44321251Y-202321249I24J1976009D01*
G01*
X78399994Y-135799994D02*
G75*
G02*
X78641421Y-135700000I241406J-241406D01*
G01*
X128196036Y-129350010D02*
G75*
G03*
X132043792Y-127756207I-36J5441610D01*
G01*
X61350000Y-159320493D02*
G75*
G02*
X61350000Y-159345674I-1135091824J-12591D01*
G01*
X61350000Y-178140000D02*
G75*
G02*
X60815000Y-178675000I-535000J0D01*
G01*
X61337538Y-200662538D02*
G75*
G02*
X61350000Y-200667677I5162J-5162D01*
G01*
X60824989Y-202374989D02*
G75*
G02*
X59557537Y-202900000I-1267489J1267489D01*
G01*
X61350000Y-179210000D02*
G75*
G03*
X60815000Y-178675000I-535000J0D01*
G01*
X133936999Y-79230001D02*
G75*
G02*
X136314999Y-80215001I1J-3362999D01*
G01*
X61350000Y-158123741D02*
G75*
G03*
X61350000Y-158073379I-1135091824J25181D01*
G01*
X43172787Y-179105269D02*
G75*
G03*
X41965000Y-178605000I-1207787J-1207831D01*
G01*
X43742530Y-200591087D02*
G75*
G03*
X43718750Y-200581250I-13930J-13D01*
G01*
X111883606Y-159018143D02*
G75*
G03*
X111874339Y-154331861I-1185625430J-1418D01*
G01*
X61350007Y-201250000D02*
G75*
G02*
X60925735Y-202274264I-1448507J0D01*
G01*
X43661412Y-200605005D02*
G75*
G03*
X43718750Y-200581250I-12J81105D01*
G01*
%TO.N,/SCL_3*%
X124099568Y-86850000D02*
X127310000Y-86850000D01*
X154489767Y-178035000D02*
X154484653Y-178035000D01*
X154517739Y-178035000D02*
X154527063Y-178035000D01*
X154494881Y-178035000D02*
X154489767Y-178035000D01*
X154452094Y-178035000D02*
X154436002Y-178035000D01*
X154263470Y-178035000D02*
X154280323Y-178035000D01*
X154628859Y-178035000D02*
X154624009Y-178035000D01*
X154043303Y-178035000D02*
X154025933Y-178035000D01*
X155166470Y-178035000D02*
X155144794Y-178035000D01*
X153960034Y-178035000D02*
X153946753Y-178035000D01*
X154952150Y-178035000D02*
X154854007Y-178035000D01*
X154559246Y-178035000D02*
X154527063Y-178035000D01*
X154175355Y-178035000D02*
X154158497Y-178035000D01*
X154675723Y-178035000D02*
X154646097Y-178035000D01*
X154952150Y-178035000D02*
X155000740Y-178035000D01*
X154596543Y-178035000D02*
X154576616Y-178035000D01*
X154192213Y-178035000D02*
X154175355Y-178035000D01*
X154624009Y-178035000D02*
X154616470Y-178035000D01*
X155824607Y-178035000D02*
X155767888Y-178035000D01*
X155001704Y-178035000D02*
X155000740Y-178035000D01*
X153765000Y-159471317D02*
X153765000Y-178051109D01*
X154143690Y-178035000D02*
X154137813Y-178035000D01*
X154465629Y-178035000D02*
X154452094Y-178035000D01*
X154695517Y-178035000D02*
X154685554Y-178035000D01*
X171907500Y-199670000D02*
X171942221Y-199704721D01*
X171372500Y-177972500D02*
X171372500Y-177035000D01*
X155195642Y-178035000D02*
X155182274Y-178035000D01*
X153928620Y-178035000D02*
X153925044Y-178035000D01*
X126887567Y-154331872D02*
X126904300Y-149590000D01*
X155494372Y-178035000D02*
X155532709Y-178035000D01*
X153592500Y-158655000D02*
X153592500Y-159217500D01*
X154060673Y-178035000D02*
X154043303Y-178035000D01*
X153860720Y-178035000D02*
X153858890Y-178035000D01*
X153892604Y-178035000D02*
X153880855Y-178035000D01*
X154263470Y-178035000D02*
X154210346Y-178035000D01*
X154137813Y-178035000D02*
X154123507Y-178035000D01*
X154060673Y-178035000D02*
X154094895Y-178035000D01*
X153592500Y-159217500D02*
X153707500Y-159332500D01*
X155209010Y-178035000D02*
X155195642Y-178035000D01*
X154016608Y-178035000D02*
X154015329Y-178035000D01*
X154517739Y-178035000D02*
X154504205Y-178035000D01*
X154616470Y-178035000D02*
X154596543Y-178035000D01*
X153925044Y-178035000D02*
X153921468Y-178035000D01*
X155235746Y-178035000D02*
X155222378Y-178035000D01*
X153877535Y-178035000D02*
X153872427Y-178035000D01*
X155667772Y-178035000D02*
X155626093Y-178035000D01*
X154685554Y-178035000D02*
X154675723Y-178035000D01*
X154484653Y-178035000D02*
X154479539Y-178035000D01*
X153864381Y-178035000D02*
X153860720Y-178035000D01*
X154576616Y-178035000D02*
X154559246Y-178035000D01*
X153904993Y-178035000D02*
X153900650Y-178035000D01*
X154017887Y-178035000D02*
X154016608Y-178035000D01*
X154476607Y-178035000D02*
X154479539Y-178035000D01*
X155542500Y-200135000D02*
X156250000Y-200135000D01*
X154774828Y-178035000D02*
X154725275Y-178035000D01*
X154832378Y-178035000D02*
X154777494Y-178035000D01*
X154499995Y-178035000D02*
X154494881Y-178035000D01*
X154158497Y-178035000D02*
X154148792Y-178035000D01*
X169778707Y-162128707D02*
X168518792Y-160868792D01*
X153896307Y-178035000D02*
X153892604Y-178035000D01*
X154476607Y-178035000D02*
X154465629Y-178035000D01*
X154210346Y-178035000D02*
X154192213Y-178035000D01*
X154436002Y-178035000D02*
X154419910Y-178035000D01*
X154633709Y-178035000D02*
X154628859Y-178035000D01*
X122989949Y-133000000D02*
X126246036Y-133000000D01*
X155677798Y-178035000D02*
X155667772Y-178035000D01*
X155626093Y-178035000D02*
X155532709Y-178035000D01*
X154319159Y-178035000D02*
X154299741Y-178035000D01*
X154008562Y-178035000D02*
X153993749Y-178035000D01*
X153978936Y-178035000D02*
X153960034Y-178035000D01*
X155767888Y-178035000D02*
X155687824Y-178035000D01*
X154499995Y-178035000D02*
X154504205Y-178035000D01*
X154123507Y-178035000D02*
X154109201Y-178035000D01*
X155494372Y-178035000D02*
X155477661Y-178035000D01*
X153921468Y-178035000D02*
X153904993Y-178035000D01*
X155002668Y-178035000D02*
X155001704Y-178035000D01*
X153872427Y-178035000D02*
X153867319Y-178035000D01*
X153946753Y-178035000D02*
X153933472Y-178035000D01*
X153194752Y-157694752D02*
X130093792Y-134593792D01*
X154300000Y-199600000D02*
X154334721Y-199634721D01*
X155477661Y-178035000D02*
X155460950Y-178035000D01*
X155360022Y-178035000D02*
X155460950Y-178035000D01*
X154398329Y-178035000D02*
X154419910Y-178035000D01*
X154299741Y-178035000D02*
X154280323Y-178035000D01*
X153877535Y-178035000D02*
X153880855Y-178035000D01*
X171402500Y-178102500D02*
X171400000Y-178100000D01*
X153765000Y-178128890D02*
X153765000Y-178051109D01*
X155182274Y-178035000D02*
X155181462Y-178035000D01*
X154398329Y-178035000D02*
X154339076Y-178035000D01*
X155239899Y-178035000D02*
X155235746Y-178035000D01*
X171372500Y-198378395D02*
X171372500Y-165976463D01*
X155324978Y-178035000D02*
X155289934Y-178035000D01*
X173150000Y-200205000D02*
X173857500Y-200205000D01*
X153864381Y-178035000D02*
X153867319Y-178035000D01*
X153993749Y-178035000D02*
X153978936Y-178035000D01*
X155824607Y-178035000D02*
X155852967Y-178035000D01*
X155261574Y-178035000D02*
X155239899Y-178035000D01*
X154017887Y-178035000D02*
X154025933Y-178035000D01*
X153933472Y-178035000D02*
X153928620Y-178035000D01*
X154109201Y-178035000D02*
X154094895Y-178035000D01*
X155360022Y-178035000D02*
X155324978Y-178035000D01*
X155261574Y-178035000D02*
X155289934Y-178035000D01*
X154725275Y-178035000D02*
X154705480Y-178035000D01*
X155002668Y-178035000D02*
X155088076Y-178035000D01*
X164671036Y-159275000D02*
X153731317Y-159275000D01*
X153900650Y-178035000D02*
X153896307Y-178035000D01*
X154705480Y-178035000D02*
X154695517Y-178035000D01*
X155116435Y-178035000D02*
X155088076Y-178035000D01*
X154339076Y-178035000D02*
X154319159Y-178035000D01*
X155181462Y-178035000D02*
X155166470Y-178035000D01*
X154008562Y-178035000D02*
X154015329Y-178035000D01*
X155222378Y-178035000D02*
X155209010Y-178035000D01*
X154148792Y-178035000D02*
X154146241Y-178035000D01*
X155144794Y-178035000D02*
X155116435Y-178035000D01*
X154854007Y-178035000D02*
X154832378Y-178035000D01*
X126879300Y-159018142D02*
X126879300Y-161675000D01*
X120600000Y-88900000D02*
X121625000Y-87875000D01*
X154146241Y-178035000D02*
X154143690Y-178035000D01*
X154633709Y-178035000D02*
X154646097Y-178035000D01*
X171408535Y-178105000D02*
X173857500Y-178105000D01*
X153765000Y-198308395D02*
X153765000Y-178128890D01*
X154774828Y-178035000D02*
X154777494Y-178035000D01*
X120600000Y-130610050D02*
X120600000Y-115100000D01*
X155687824Y-178035000D02*
X155677798Y-178035000D01*
X121300015Y-132299985D02*
G75*
G03*
X122989949Y-133000000I1689985J1689985D01*
G01*
X153858890Y-178034997D02*
G75*
G03*
X153792501Y-178062501I10J-93903D01*
G01*
X121300015Y-132299985D02*
G75*
G02*
X120600000Y-130610050I1689985J1689985D01*
G01*
X153194753Y-157694751D02*
G75*
G02*
X153592500Y-158655000I-960253J-960249D01*
G01*
X171907499Y-199670001D02*
G75*
G02*
X171372500Y-198378395I1291601J1291601D01*
G01*
X171372510Y-165976463D02*
G75*
G03*
X169778706Y-162128708I-5441610J-37D01*
G01*
X154299999Y-199600001D02*
G75*
G02*
X153765000Y-198308395I1291601J1291601D01*
G01*
X164671036Y-159274990D02*
G75*
G02*
X168518791Y-160868793I-36J-5441610D01*
G01*
X171942212Y-199704730D02*
G75*
G03*
X173150000Y-200205000I1207788J1207830D01*
G01*
X153731317Y-159275042D02*
G75*
G03*
X153707500Y-159332500I-17J-33658D01*
G01*
X171402490Y-178102510D02*
G75*
G03*
X171408535Y-178105000I6010J6010D01*
G01*
X126890893Y-154331888D02*
G75*
G03*
X126879300Y-159018142I946850931J-4685412D01*
G01*
X153731317Y-159274992D02*
G75*
G02*
X153592501Y-159217499I-17J196292D01*
G01*
X154334712Y-199634730D02*
G75*
G03*
X155542500Y-200135000I1207788J1207830D01*
G01*
X153707505Y-159332495D02*
G75*
G02*
X153765000Y-159471317I-138805J-138805D01*
G01*
X130093784Y-134593800D02*
G75*
G03*
X126246036Y-133000000I-3847784J-3847800D01*
G01*
X153764978Y-178051109D02*
G75*
G03*
X153792500Y-178062500I16122J9D01*
G01*
X153764997Y-178128890D02*
G75*
G02*
X153792501Y-178062501I93903J-10D01*
G01*
X121625009Y-87875009D02*
G75*
G02*
X124099568Y-86850000I2474591J-2474591D01*
G01*
%TO.N,/SDA_3*%
X160521402Y-200205000D02*
X160526793Y-200205000D01*
X124378518Y-159302686D02*
X124378623Y-159458369D01*
X124372458Y-154376699D02*
X124372745Y-154558067D01*
X117600000Y-87200000D02*
X119045000Y-85755000D01*
X161109692Y-200205000D02*
X161106222Y-200205000D01*
X161013463Y-200205000D02*
X161012715Y-200205000D01*
X124371560Y-153827426D02*
X124371012Y-153494528D01*
X159863829Y-200205000D02*
X159836969Y-200205000D01*
X161100856Y-200205000D02*
X161086655Y-200205000D01*
X177072500Y-178275000D02*
X176365000Y-178275000D01*
X124375224Y-156189028D02*
X124375103Y-156107480D01*
X178850000Y-202324609D02*
X178850000Y-200810000D01*
X124374611Y-155781288D02*
X124374901Y-155974038D01*
X124379205Y-160844687D02*
X124379187Y-160763139D01*
X161155525Y-200205000D02*
X161159075Y-200205000D01*
X124366882Y-151045667D02*
X124367005Y-151117125D01*
X118025000Y-132225000D02*
X118175000Y-132375000D01*
X178280278Y-178775278D02*
X178315000Y-178810000D01*
X124375673Y-156492980D02*
X124375706Y-156515221D01*
X160383608Y-200205000D02*
X160377095Y-200205000D01*
X159880324Y-200205000D02*
X159879098Y-200205000D01*
X178531250Y-202868750D02*
X178690625Y-202709375D01*
X160140646Y-200205000D02*
X160050066Y-200205000D01*
X124372165Y-154195331D02*
X124372458Y-154376699D01*
X160931086Y-200205000D02*
X160917205Y-200205000D01*
X160217585Y-200205000D02*
X160154287Y-200205000D01*
X160357823Y-200205000D02*
X160325791Y-200205000D01*
X160572597Y-200205000D02*
X160555834Y-200205000D01*
X160613010Y-200205000D02*
X160589360Y-200205000D01*
X124377034Y-157553107D02*
X124377098Y-157612415D01*
X124378286Y-158976493D02*
X124378518Y-159302686D01*
X161155525Y-200205000D02*
X161143139Y-200205000D01*
X124379130Y-160555563D02*
X124379134Y-160570388D01*
X124379147Y-160614869D02*
X124379134Y-160570388D01*
X124376764Y-157315876D02*
X124376832Y-157375183D01*
X124375886Y-156641250D02*
X124376029Y-156745038D01*
X118325000Y-132525000D02*
X118475000Y-132675000D01*
X124371867Y-154013963D02*
X124372165Y-154195331D01*
X124373303Y-154920803D02*
X124373365Y-154960977D01*
X160884397Y-200205000D02*
X160889443Y-200205000D01*
X124379285Y-161371046D02*
X124379286Y-161385874D01*
X124376521Y-157115712D02*
X124376549Y-157137953D01*
X124377098Y-157612415D02*
X124377223Y-157731030D01*
X159863829Y-200205000D02*
X159876646Y-200205000D01*
X160848418Y-200205000D02*
X160830747Y-200205000D01*
X124379262Y-161163467D02*
X124379272Y-161237601D01*
X118475000Y-132675000D02*
X118700000Y-132900000D01*
X124379250Y-161081918D02*
X124379262Y-161163467D01*
X159375390Y-200205000D02*
X159430336Y-200205000D01*
X160314526Y-200205000D02*
X160325791Y-200205000D01*
X160677073Y-200205000D02*
X160613010Y-200205000D01*
X159066444Y-200205000D02*
X159038358Y-200205000D01*
X159836969Y-200205000D02*
X159809496Y-200205000D01*
X159922146Y-200205000D02*
X159894673Y-200205000D01*
X124378719Y-159628880D02*
X124378873Y-159925418D01*
X124376230Y-156893307D02*
X124376329Y-156967442D01*
X124372745Y-154558067D02*
X124373026Y-154739435D01*
X160314526Y-200205000D02*
X160305023Y-200205000D01*
X124379283Y-161356217D02*
X124379285Y-161371046D01*
X159435238Y-200205000D02*
X159489572Y-200205000D01*
X159375390Y-200205000D02*
X159263046Y-200205000D01*
X124375749Y-156544875D02*
X124375792Y-156574529D01*
X160903324Y-200205000D02*
X160889443Y-200205000D01*
X124364373Y-149630558D02*
X124364300Y-149590000D01*
X124379205Y-160844687D02*
X124379250Y-161081918D01*
X161021097Y-200205000D02*
X161013463Y-200205000D01*
X124379168Y-160689004D02*
X124379187Y-160763139D01*
X160503302Y-200205000D02*
X160488033Y-200205000D01*
X160478904Y-200205000D02*
X160445377Y-200205000D01*
X124364518Y-149711675D02*
X124364637Y-149777535D01*
X161169645Y-200205000D02*
X161164360Y-200205000D01*
X160880608Y-200205000D02*
X160876819Y-200205000D01*
X160515422Y-200205000D02*
X160512432Y-200205000D01*
X124379299Y-161652759D02*
X124379300Y-161667586D01*
X160700668Y-200205000D02*
X160677073Y-200205000D01*
X160866089Y-200205000D02*
X160876819Y-200205000D01*
X124376483Y-157086058D02*
X124376425Y-157041577D01*
X124379299Y-161623105D02*
X124379299Y-161637932D01*
X160305023Y-200205000D02*
X160295520Y-200205000D01*
X159465000Y-178205000D02*
X158757500Y-178205000D01*
X124377808Y-158353762D02*
X124378065Y-158679955D01*
X161176569Y-200205000D02*
X161172742Y-200205000D01*
X124375224Y-156189028D02*
X124375488Y-156366951D01*
X159984679Y-200205000D02*
X159944485Y-200205000D01*
X159435238Y-200205000D02*
X159432787Y-200205000D01*
X124375080Y-156092653D02*
X124375103Y-156107480D01*
X124365173Y-150076703D02*
X124365642Y-150340143D01*
X124378632Y-159473197D02*
X124378641Y-159488025D01*
X161003585Y-200205000D02*
X161011967Y-200205000D01*
X124376502Y-157100885D02*
X124376521Y-157115712D01*
X160866089Y-200205000D02*
X160848418Y-200205000D01*
X117600000Y-131517157D02*
X117600000Y-115700000D01*
X124367729Y-151536817D02*
X124368246Y-151840431D01*
X124379299Y-161637932D02*
X124379299Y-161652759D01*
X124378956Y-160103340D02*
X124378980Y-160162647D01*
X159881550Y-200205000D02*
X159880324Y-200205000D01*
X161242500Y-200194016D02*
X161242500Y-200140983D01*
X124377653Y-158168425D02*
X124377520Y-158027569D01*
X159881550Y-200205000D02*
X159894673Y-200205000D01*
X124375792Y-156574529D02*
X124375833Y-156604183D01*
X160931086Y-200205000D02*
X160968563Y-200205000D01*
X161037113Y-200205000D02*
X161021097Y-200205000D01*
X124377808Y-158353762D02*
X124377680Y-158198079D01*
X124375833Y-156604183D02*
X124375886Y-156641250D01*
X161134757Y-200205000D02*
X161130379Y-200205000D01*
X124371864Y-154012240D02*
X124371867Y-154013963D01*
X124376967Y-157493799D02*
X124377034Y-157553107D01*
X124365794Y-150426090D02*
X124365642Y-150340143D01*
X124271963Y-136218000D02*
X125564036Y-136218000D01*
X124379054Y-160340572D02*
X124379077Y-160399880D01*
X160555834Y-200205000D02*
X160540566Y-200205000D01*
X160830747Y-200205000D02*
X160811182Y-200205000D01*
X161242500Y-180031604D02*
X161242500Y-200140983D01*
X160383608Y-200205000D02*
X160389855Y-200205000D01*
X124365037Y-150000799D02*
X124365173Y-150076703D01*
X160223715Y-200205000D02*
X160217585Y-200205000D01*
X124379147Y-160614869D02*
X124379168Y-160689004D01*
X159781410Y-200205000D02*
X159753324Y-200205000D01*
X160917205Y-200205000D02*
X160903324Y-200205000D01*
X118175000Y-132375000D02*
X118325000Y-132525000D01*
X161003585Y-200205000D02*
X160986074Y-200205000D01*
X160427867Y-200205000D02*
X160408861Y-200205000D01*
X124375706Y-156515221D02*
X124375749Y-156544875D01*
X160377095Y-200205000D02*
X160370582Y-200205000D01*
X124375057Y-156077826D02*
X124375080Y-156092653D01*
X161242500Y-200194016D02*
X161242500Y-203200000D01*
X124367207Y-151233203D02*
X124367729Y-151536817D01*
X150468707Y-158868707D02*
X129411792Y-137811792D01*
X160717542Y-200205000D02*
X160700668Y-200205000D01*
X159753324Y-200205000D02*
X159711808Y-200205000D01*
X159122616Y-200205000D02*
X159066444Y-200205000D01*
X124370598Y-153243146D02*
X124371012Y-153494528D01*
X160521402Y-200205000D02*
X160518412Y-200205000D01*
X161172742Y-200205000D02*
X161169645Y-200205000D01*
X122533538Y-84310000D02*
X127310000Y-84310000D01*
X160140646Y-200205000D02*
X160154287Y-200205000D01*
X154367094Y-203187500D02*
X177761719Y-203187500D01*
X160274753Y-200205000D02*
X160223715Y-200205000D01*
X159879098Y-200205000D02*
X159877872Y-200205000D01*
X117800000Y-132000000D02*
X117875000Y-132075000D01*
X160540566Y-200205000D02*
X160526793Y-200205000D01*
X124368246Y-151840431D02*
X124368307Y-151876160D01*
X124376483Y-157086058D02*
X124376502Y-157100885D01*
X124379296Y-161526730D02*
X124379298Y-161586038D01*
X159944485Y-200205000D02*
X159922146Y-200205000D01*
X161130379Y-200205000D02*
X161113162Y-200205000D01*
X124375488Y-156366951D02*
X124375565Y-156418845D01*
X124368307Y-151876160D02*
X124368939Y-152251232D01*
X124379298Y-161608278D02*
X124379299Y-161623105D01*
X160518412Y-200205000D02*
X160515422Y-200205000D01*
X124376623Y-157197261D02*
X124376695Y-157256569D01*
X124379300Y-161667586D02*
X124379300Y-161675000D01*
X124379125Y-160540737D02*
X124379130Y-160555563D01*
X124376967Y-157493799D02*
X124376832Y-157375183D01*
X161106222Y-200205000D02*
X161100856Y-200205000D01*
X118700000Y-132900000D02*
X119300000Y-133500000D01*
X161012715Y-200205000D02*
X161011967Y-200205000D01*
X124364373Y-149630558D02*
X124364518Y-149711675D01*
X159122616Y-200205000D02*
X159150702Y-200205000D01*
X124364637Y-149777535D02*
X124364838Y-149889167D01*
X124379272Y-161237601D02*
X124379279Y-161311735D01*
X124375057Y-156077826D02*
X124374901Y-155974038D01*
X159877872Y-200205000D02*
X159876646Y-200205000D01*
X124370179Y-152991764D02*
X124368939Y-152251232D01*
X124379029Y-160281264D02*
X124379054Y-160340572D01*
X161113162Y-200205000D02*
X161109692Y-200205000D01*
X124379298Y-161608278D02*
X124379298Y-161586038D01*
X161139135Y-200205000D02*
X161143139Y-200205000D01*
X161086655Y-200205000D02*
X161072454Y-200205000D01*
X160884397Y-200205000D02*
X160880608Y-200205000D01*
X124373026Y-154739435D02*
X124373303Y-154920803D01*
X124374319Y-155588538D02*
X124374611Y-155781288D01*
X124378719Y-159628880D02*
X124378641Y-159488025D01*
X124376695Y-157256569D02*
X124376764Y-157315876D01*
X124378929Y-160044033D02*
X124378873Y-159925418D01*
X159600690Y-200205000D02*
X159489572Y-200205000D01*
X160707500Y-178740000D02*
X160672778Y-178705278D01*
X178850000Y-180101604D02*
X178850000Y-200810000D01*
X160050066Y-200205000D02*
X160024873Y-200205000D01*
X124379279Y-161311735D02*
X124379283Y-161356217D01*
X160503302Y-200205000D02*
X160509442Y-200205000D01*
X160986074Y-200205000D02*
X160968563Y-200205000D01*
X120424207Y-134624207D02*
X119300000Y-133500000D01*
X124376029Y-156745038D02*
X124376230Y-156893307D01*
X124376549Y-157137953D02*
X124376623Y-157197261D01*
X160734416Y-200205000D02*
X160717542Y-200205000D01*
X152062500Y-200882905D02*
X152062500Y-162716463D01*
X124377667Y-158183252D02*
X124377680Y-158198079D01*
X124373365Y-154960977D02*
X124373763Y-155222694D01*
X160274753Y-200205000D02*
X160295520Y-200205000D01*
X124375565Y-156418845D02*
X124375673Y-156492980D01*
X124379293Y-161467422D02*
X124379296Y-161526730D01*
X124374319Y-155588538D02*
X124373763Y-155222694D01*
X124379288Y-161408114D02*
X124379286Y-161385874D01*
X160445377Y-200205000D02*
X160427867Y-200205000D01*
X124379099Y-160459188D02*
X124379118Y-160518496D01*
X161053129Y-200205000D02*
X161037113Y-200205000D01*
X178315000Y-200275000D02*
X176365000Y-200275000D01*
X159711808Y-200205000D02*
X159600690Y-200205000D01*
X124379118Y-160518496D02*
X124379125Y-160540737D01*
X124379077Y-160399880D02*
X124379099Y-160459188D01*
X160024873Y-200205000D02*
X159984679Y-200205000D01*
X159263046Y-200205000D02*
X159150702Y-200205000D01*
X124366757Y-150974209D02*
X124366117Y-150609180D01*
X160512432Y-200205000D02*
X160509442Y-200205000D01*
X124378286Y-158976493D02*
X124378065Y-158679955D01*
X161164360Y-200205000D02*
X161159075Y-200205000D01*
X124366757Y-150974209D02*
X124366882Y-151045667D01*
X160370582Y-200205000D02*
X160357823Y-200205000D01*
X124378980Y-160162647D02*
X124379029Y-160281264D01*
X161072454Y-200205000D02*
X161053129Y-200205000D01*
X160811182Y-200205000D02*
X160754380Y-200205000D01*
X124370179Y-152991764D02*
X124370598Y-153243146D01*
X160488033Y-200205000D02*
X160478904Y-200205000D01*
X124365956Y-150517635D02*
X124366117Y-150609180D01*
X124377223Y-157731030D02*
X124377520Y-158027569D01*
X124371560Y-153827426D02*
X124371864Y-154012240D01*
X124377653Y-158168425D02*
X124377667Y-158183252D01*
X124376329Y-156967442D02*
X124376425Y-157041577D01*
X159432787Y-200205000D02*
X159430336Y-200205000D01*
X160408861Y-200205000D02*
X160389855Y-200205000D01*
X161176569Y-200205000D02*
X161178483Y-200205000D01*
X160734416Y-200205000D02*
X160754380Y-200205000D01*
X159809496Y-200205000D02*
X159781410Y-200205000D01*
X160589360Y-200205000D02*
X160572597Y-200205000D01*
X124378623Y-159458369D02*
X124378632Y-159473197D01*
X161139135Y-200205000D02*
X161134757Y-200205000D01*
X124364838Y-149889167D02*
X124365037Y-150000799D01*
X117875000Y-132075000D02*
X118025000Y-132225000D01*
X124367005Y-151117125D02*
X124367207Y-151233203D01*
X124365794Y-150426090D02*
X124365956Y-150517635D01*
X124378929Y-160044033D02*
X124378956Y-160103340D01*
X124379288Y-161408114D02*
X124379293Y-161467422D01*
X125564036Y-136217990D02*
G75*
G02*
X129411791Y-137811793I-36J-5441610D01*
G01*
X177761719Y-203187508D02*
G75*
G03*
X178531250Y-202868750I-19J1088308D01*
G01*
X178850018Y-202324609D02*
G75*
G02*
X178690625Y-202709375I-544118J9D01*
G01*
X178849998Y-180101604D02*
G75*
G03*
X178315000Y-178810000I-1826598J4D01*
G01*
X122533538Y-84310016D02*
G75*
G03*
X119045000Y-85755000I-38J-4933484D01*
G01*
X152062510Y-162716463D02*
G75*
G03*
X150468706Y-158868708I-5441610J-37D01*
G01*
X152737502Y-202512498D02*
G75*
G02*
X152062500Y-200882905I1629598J1629598D01*
G01*
X177072500Y-178275013D02*
G75*
G02*
X178280278Y-178775278I0J-1708087D01*
G01*
X124271963Y-136218010D02*
G75*
G02*
X120424208Y-134624206I37J5441610D01*
G01*
X161223755Y-200186255D02*
G75*
G02*
X161178483Y-200205000I-45255J45255D01*
G01*
X178850000Y-200810000D02*
G75*
G03*
X178315000Y-200275000I-535000J0D01*
G01*
X161242498Y-180031604D02*
G75*
G03*
X160707500Y-178740000I-1826598J4D01*
G01*
X160672787Y-178705269D02*
G75*
G03*
X159465000Y-178205000I-1207787J-1207831D01*
G01*
X117600018Y-131517157D02*
G75*
G03*
X117800000Y-132000000I682782J-43D01*
G01*
X152737502Y-202512498D02*
G75*
G03*
X154367094Y-203187500I1629598J1629598D01*
G01*
X161242493Y-200140983D02*
G75*
G02*
X161223750Y-200186250I-63993J-17D01*
G01*
X161223722Y-200186222D02*
G75*
G02*
X161242500Y-200194016I7778J-7778D01*
G01*
%TO.N,+5V*%
X111514800Y-203782978D02*
X111514800Y-205640000D01*
X104956446Y-164040135D02*
X86379300Y-164000000D01*
X106955545Y-166045347D02*
X106955545Y-195112737D01*
X127310000Y-99936036D02*
X127310000Y-91930000D01*
X110201687Y-200612843D02*
X108549337Y-198960493D01*
X108954643Y-164048774D02*
X126879300Y-164087500D01*
X108549337Y-120950662D02*
X125716207Y-103783792D01*
X106955545Y-124798418D02*
X106955545Y-162043562D01*
X108549327Y-120950652D02*
G75*
G03*
X106955545Y-124798418I3847773J-3847748D01*
G01*
X108549355Y-198960475D02*
G75*
G02*
X106955545Y-195112737I3847745J3847775D01*
G01*
X104956446Y-164040162D02*
G75*
G02*
X106955545Y-166045347I-5246J-2004338D01*
G01*
X111514829Y-203782978D02*
G75*
G03*
X110201687Y-200612843I-4483229J-22D01*
G01*
X106955620Y-162043562D02*
G75*
G03*
X108954643Y-164048773I2004280J-938D01*
G01*
X106955472Y-166045347D02*
G75*
G02*
X108954643Y-164048775I1995728J847D01*
G01*
X125716200Y-103783785D02*
G75*
G03*
X127310000Y-99936036I-3847800J3847785D01*
G01*
X104956446Y-164040142D02*
G75*
G03*
X106955545Y-162043562I3454J1995642D01*
G01*
%TD*%
M02*
