M48
; DRILL file {KiCad (6.0.9)} date Fri 16 Dec 2022 01:04:33 PM EST
; FORMAT={-:-/ absolute / inch / decimal}
; #@! TF.CreationDate,2022-12-16T13:04:33-05:00
; #@! TF.GenerationSoftware,Kicad,Pcbnew,(6.0.9)
; #@! TF.FileFunction,Plated,1,2,PTH
FMAT,2
INCH
; #@! TA.AperFunction,Plated,PTH,ViaDrill
T1C0.0350
; #@! TA.AperFunction,Plated,PTH,ComponentDrill
T2C0.0394
; #@! TA.AperFunction,Plated,PTH,ComponentDrill
T3C0.1260
%
G90
G05
T1
X4.0002Y-2.077
X4.0002Y-2.8213
X4.0002Y-3.5478
X4.39Y-2.308
X4.717Y-3.5478
X5.466Y-2.077
X5.466Y-3.5478
T2
X3.95Y-2.2846
X3.95Y-2.3846
X3.95Y-2.4846
X3.95Y-2.5846
X3.95Y-2.6846
X3.95Y-2.958
X3.95Y-3.058
X3.95Y-3.158
X3.95Y-3.258
X3.95Y-3.358
X4.05Y-2.2846
X4.05Y-2.3846
X4.05Y-2.4846
X4.05Y-2.5846
X4.05Y-2.6846
X4.05Y-2.958
X4.05Y-3.058
X4.05Y-3.158
X4.05Y-3.258
X4.05Y-3.358
X4.1886Y-3.498
X4.1886Y-3.598
X4.192Y-2.027
X4.192Y-2.127
X4.2886Y-3.498
X4.2886Y-3.598
X4.292Y-2.027
X4.292Y-2.127
X4.3884Y-2.4844
X4.3884Y-2.8213
X4.3884Y-3.1578
X4.3886Y-3.498
X4.3886Y-3.598
X4.392Y-2.027
X4.392Y-2.127
X4.4886Y-3.498
X4.4886Y-3.598
X4.492Y-2.027
X4.492Y-2.127
X4.5886Y-3.498
X4.5886Y-3.598
X4.592Y-2.027
X4.592Y-2.127
X4.717Y-2.4836
X4.717Y-2.8205
X4.717Y-3.157
X4.862Y-3.498
X4.862Y-3.598
X4.8654Y-2.027
X4.8654Y-2.127
X4.962Y-3.498
X4.962Y-3.598
X4.9654Y-2.027
X4.9654Y-2.127
X5.0618Y-2.4844
X5.0618Y-2.8213
X5.0618Y-3.1578
X5.062Y-3.498
X5.062Y-3.598
X5.0654Y-2.027
X5.0654Y-2.127
X5.162Y-3.498
X5.162Y-3.598
X5.1654Y-2.027
X5.1654Y-2.127
X5.262Y-3.498
X5.262Y-3.598
X5.2654Y-2.027
X5.2654Y-2.127
X5.416Y-2.269
X5.416Y-2.369
X5.416Y-2.469
X5.416Y-2.569
X5.416Y-2.669
X5.416Y-2.9424
X5.416Y-3.0424
X5.416Y-3.1424
X5.416Y-3.2424
X5.416Y-3.3424
X5.516Y-2.269
X5.516Y-2.369
X5.516Y-2.469
X5.516Y-2.569
X5.516Y-2.669
X5.516Y-2.9424
X5.516Y-3.0424
X5.516Y-3.1424
X5.516Y-3.2424
X5.516Y-3.3424
T3
X3.626Y-1.698
X3.636Y-3.901
X5.859Y-1.698
X5.859Y-3.901
T0
M30
