%TF.GenerationSoftware,KiCad,Pcbnew,(6.0.9)*%
%TF.CreationDate,2022-12-16T13:04:32-05:00*%
%TF.ProjectId,Perris_Breakout,50657272-6973-45f4-9272-65616b6f7574,rev?*%
%TF.SameCoordinates,Original*%
%TF.FileFunction,Drillmap*%
%TF.FilePolarity,Positive*%
%FSLAX45Y45*%
G04 Gerber Fmt 4.5, Leading zero omitted, Abs format (unit mm)*
G04 Created by KiCad (PCBNEW (6.0.9)) date 2022-12-16 13:04:32*
%MOMM*%
%LPD*%
G01*
G04 APERTURE LIST*
%ADD10C,0.100000*%
%ADD11C,0.200000*%
%ADD12C,0.088900*%
%ADD13C,0.320000*%
G04 APERTURE END LIST*
D10*
X8663940Y-10528300D02*
X15394940Y-10528300D01*
X15394940Y-10528300D02*
X15394940Y-3802380D01*
X15394940Y-3802380D02*
X8663940Y-3802380D01*
X8663940Y-3802380D02*
X8663940Y-10528300D01*
D11*
D12*
X10116050Y-5231130D02*
X10204950Y-5320030D01*
X10204950Y-5231130D02*
X10116050Y-5320030D01*
X10116050Y-7121660D02*
X10204950Y-7210560D01*
X10204950Y-7121660D02*
X10116050Y-7210560D01*
X10116050Y-8966970D02*
X10204950Y-9055870D01*
X10204950Y-8966970D02*
X10116050Y-9055870D01*
X11106150Y-5817870D02*
X11195050Y-5906770D01*
X11195050Y-5817870D02*
X11106150Y-5906770D01*
X11936730Y-8966970D02*
X12025630Y-9055870D01*
X12025630Y-8966970D02*
X11936730Y-9055870D01*
X13839190Y-5231130D02*
X13928090Y-5320030D01*
X13928090Y-5231130D02*
X13839190Y-5320030D01*
X13839190Y-8966970D02*
X13928090Y-9055870D01*
X13928090Y-8966970D02*
X13839190Y-9055870D01*
D10*
X10083000Y-5802900D02*
G75*
G03*
X10083000Y-5802900I-50000J0D01*
G01*
X10083000Y-6056900D02*
G75*
G03*
X10083000Y-6056900I-50000J0D01*
G01*
X10083000Y-6310900D02*
G75*
G03*
X10083000Y-6310900I-50000J0D01*
G01*
X10083000Y-6564900D02*
G75*
G03*
X10083000Y-6564900I-50000J0D01*
G01*
X10083000Y-6818900D02*
G75*
G03*
X10083000Y-6818900I-50000J0D01*
G01*
X10083000Y-7513320D02*
G75*
G03*
X10083000Y-7513320I-50000J0D01*
G01*
X10083000Y-7767320D02*
G75*
G03*
X10083000Y-7767320I-50000J0D01*
G01*
X10083000Y-8021320D02*
G75*
G03*
X10083000Y-8021320I-50000J0D01*
G01*
X10083000Y-8275320D02*
G75*
G03*
X10083000Y-8275320I-50000J0D01*
G01*
X10083000Y-8529320D02*
G75*
G03*
X10083000Y-8529320I-50000J0D01*
G01*
X10337000Y-5802900D02*
G75*
G03*
X10337000Y-5802900I-50000J0D01*
G01*
X10337000Y-6056900D02*
G75*
G03*
X10337000Y-6056900I-50000J0D01*
G01*
X10337000Y-6310900D02*
G75*
G03*
X10337000Y-6310900I-50000J0D01*
G01*
X10337000Y-6564900D02*
G75*
G03*
X10337000Y-6564900I-50000J0D01*
G01*
X10337000Y-6818900D02*
G75*
G03*
X10337000Y-6818900I-50000J0D01*
G01*
X10337000Y-7513320D02*
G75*
G03*
X10337000Y-7513320I-50000J0D01*
G01*
X10337000Y-7767320D02*
G75*
G03*
X10337000Y-7767320I-50000J0D01*
G01*
X10337000Y-8021320D02*
G75*
G03*
X10337000Y-8021320I-50000J0D01*
G01*
X10337000Y-8275320D02*
G75*
G03*
X10337000Y-8275320I-50000J0D01*
G01*
X10337000Y-8529320D02*
G75*
G03*
X10337000Y-8529320I-50000J0D01*
G01*
X10689060Y-8884920D02*
G75*
G03*
X10689060Y-8884920I-50000J0D01*
G01*
X10689060Y-9138920D02*
G75*
G03*
X10689060Y-9138920I-50000J0D01*
G01*
X10697680Y-5148580D02*
G75*
G03*
X10697680Y-5148580I-50000J0D01*
G01*
X10697680Y-5402580D02*
G75*
G03*
X10697680Y-5402580I-50000J0D01*
G01*
X10943060Y-8884920D02*
G75*
G03*
X10943060Y-8884920I-50000J0D01*
G01*
X10943060Y-9138920D02*
G75*
G03*
X10943060Y-9138920I-50000J0D01*
G01*
X10951680Y-5148580D02*
G75*
G03*
X10951680Y-5148580I-50000J0D01*
G01*
X10951680Y-5402580D02*
G75*
G03*
X10951680Y-5402580I-50000J0D01*
G01*
X11196560Y-6310400D02*
G75*
G03*
X11196560Y-6310400I-50000J0D01*
G01*
X11196560Y-7166110D02*
G75*
G03*
X11196560Y-7166110I-50000J0D01*
G01*
X11196560Y-8020820D02*
G75*
G03*
X11196560Y-8020820I-50000J0D01*
G01*
X11197060Y-8884920D02*
G75*
G03*
X11197060Y-8884920I-50000J0D01*
G01*
X11197060Y-9138920D02*
G75*
G03*
X11197060Y-9138920I-50000J0D01*
G01*
X11205680Y-5148580D02*
G75*
G03*
X11205680Y-5148580I-50000J0D01*
G01*
X11205680Y-5402580D02*
G75*
G03*
X11205680Y-5402580I-50000J0D01*
G01*
X11451060Y-8884920D02*
G75*
G03*
X11451060Y-8884920I-50000J0D01*
G01*
X11451060Y-9138920D02*
G75*
G03*
X11451060Y-9138920I-50000J0D01*
G01*
X11459680Y-5148580D02*
G75*
G03*
X11459680Y-5148580I-50000J0D01*
G01*
X11459680Y-5402580D02*
G75*
G03*
X11459680Y-5402580I-50000J0D01*
G01*
X11705060Y-8884920D02*
G75*
G03*
X11705060Y-8884920I-50000J0D01*
G01*
X11705060Y-9138920D02*
G75*
G03*
X11705060Y-9138920I-50000J0D01*
G01*
X11713680Y-5148580D02*
G75*
G03*
X11713680Y-5148580I-50000J0D01*
G01*
X11713680Y-5402580D02*
G75*
G03*
X11713680Y-5402580I-50000J0D01*
G01*
X12031180Y-6308360D02*
G75*
G03*
X12031180Y-6308360I-50000J0D01*
G01*
X12031180Y-7164070D02*
G75*
G03*
X12031180Y-7164070I-50000J0D01*
G01*
X12031180Y-8018780D02*
G75*
G03*
X12031180Y-8018780I-50000J0D01*
G01*
X12399480Y-8884920D02*
G75*
G03*
X12399480Y-8884920I-50000J0D01*
G01*
X12399480Y-9138920D02*
G75*
G03*
X12399480Y-9138920I-50000J0D01*
G01*
X12408100Y-5148580D02*
G75*
G03*
X12408100Y-5148580I-50000J0D01*
G01*
X12408100Y-5402580D02*
G75*
G03*
X12408100Y-5402580I-50000J0D01*
G01*
X12653480Y-8884920D02*
G75*
G03*
X12653480Y-8884920I-50000J0D01*
G01*
X12653480Y-9138920D02*
G75*
G03*
X12653480Y-9138920I-50000J0D01*
G01*
X12662100Y-5148580D02*
G75*
G03*
X12662100Y-5148580I-50000J0D01*
G01*
X12662100Y-5402580D02*
G75*
G03*
X12662100Y-5402580I-50000J0D01*
G01*
X12906980Y-6310400D02*
G75*
G03*
X12906980Y-6310400I-50000J0D01*
G01*
X12906980Y-7166110D02*
G75*
G03*
X12906980Y-7166110I-50000J0D01*
G01*
X12906980Y-8020820D02*
G75*
G03*
X12906980Y-8020820I-50000J0D01*
G01*
X12907480Y-8884920D02*
G75*
G03*
X12907480Y-8884920I-50000J0D01*
G01*
X12907480Y-9138920D02*
G75*
G03*
X12907480Y-9138920I-50000J0D01*
G01*
X12916100Y-5148580D02*
G75*
G03*
X12916100Y-5148580I-50000J0D01*
G01*
X12916100Y-5402580D02*
G75*
G03*
X12916100Y-5402580I-50000J0D01*
G01*
X13161480Y-8884920D02*
G75*
G03*
X13161480Y-8884920I-50000J0D01*
G01*
X13161480Y-9138920D02*
G75*
G03*
X13161480Y-9138920I-50000J0D01*
G01*
X13170100Y-5148580D02*
G75*
G03*
X13170100Y-5148580I-50000J0D01*
G01*
X13170100Y-5402580D02*
G75*
G03*
X13170100Y-5402580I-50000J0D01*
G01*
X13415480Y-8884920D02*
G75*
G03*
X13415480Y-8884920I-50000J0D01*
G01*
X13415480Y-9138920D02*
G75*
G03*
X13415480Y-9138920I-50000J0D01*
G01*
X13424100Y-5148580D02*
G75*
G03*
X13424100Y-5148580I-50000J0D01*
G01*
X13424100Y-5402580D02*
G75*
G03*
X13424100Y-5402580I-50000J0D01*
G01*
X13806640Y-5763260D02*
G75*
G03*
X13806640Y-5763260I-50000J0D01*
G01*
X13806640Y-6017260D02*
G75*
G03*
X13806640Y-6017260I-50000J0D01*
G01*
X13806640Y-6271260D02*
G75*
G03*
X13806640Y-6271260I-50000J0D01*
G01*
X13806640Y-6525260D02*
G75*
G03*
X13806640Y-6525260I-50000J0D01*
G01*
X13806640Y-6779260D02*
G75*
G03*
X13806640Y-6779260I-50000J0D01*
G01*
X13806640Y-7473680D02*
G75*
G03*
X13806640Y-7473680I-50000J0D01*
G01*
X13806640Y-7727680D02*
G75*
G03*
X13806640Y-7727680I-50000J0D01*
G01*
X13806640Y-7981680D02*
G75*
G03*
X13806640Y-7981680I-50000J0D01*
G01*
X13806640Y-8235680D02*
G75*
G03*
X13806640Y-8235680I-50000J0D01*
G01*
X13806640Y-8489680D02*
G75*
G03*
X13806640Y-8489680I-50000J0D01*
G01*
X14060640Y-5763260D02*
G75*
G03*
X14060640Y-5763260I-50000J0D01*
G01*
X14060640Y-6017260D02*
G75*
G03*
X14060640Y-6017260I-50000J0D01*
G01*
X14060640Y-6271260D02*
G75*
G03*
X14060640Y-6271260I-50000J0D01*
G01*
X14060640Y-6525260D02*
G75*
G03*
X14060640Y-6525260I-50000J0D01*
G01*
X14060640Y-6779260D02*
G75*
G03*
X14060640Y-6779260I-50000J0D01*
G01*
X14060640Y-7473680D02*
G75*
G03*
X14060640Y-7473680I-50000J0D01*
G01*
X14060640Y-7727680D02*
G75*
G03*
X14060640Y-7727680I-50000J0D01*
G01*
X14060640Y-7981680D02*
G75*
G03*
X14060640Y-7981680I-50000J0D01*
G01*
X14060640Y-8235680D02*
G75*
G03*
X14060640Y-8235680I-50000J0D01*
G01*
X14060640Y-8489680D02*
G75*
G03*
X14060640Y-8489680I-50000J0D01*
G01*
D13*
X9210040Y-4152920D02*
X9210040Y-4472920D01*
X9050040Y-4312920D02*
X9370040Y-4312920D01*
X9235440Y-9748540D02*
X9235440Y-10068540D01*
X9075440Y-9908540D02*
X9395440Y-9908540D01*
X14881860Y-4152920D02*
X14881860Y-4472920D01*
X14721860Y-4312920D02*
X15041860Y-4312920D01*
X14881860Y-9748540D02*
X14881860Y-10068540D01*
X14721860Y-9908540D02*
X15041860Y-9908540D01*
D11*
X8916559Y-10843776D02*
X8916559Y-10643776D01*
X8964178Y-10643776D01*
X8992750Y-10653300D01*
X9011797Y-10672348D01*
X9021321Y-10691395D01*
X9030845Y-10729490D01*
X9030845Y-10758062D01*
X9021321Y-10796157D01*
X9011797Y-10815205D01*
X8992750Y-10834252D01*
X8964178Y-10843776D01*
X8916559Y-10843776D01*
X9116559Y-10843776D02*
X9116559Y-10710443D01*
X9116559Y-10748538D02*
X9126083Y-10729490D01*
X9135607Y-10719967D01*
X9154654Y-10710443D01*
X9173702Y-10710443D01*
X9240369Y-10843776D02*
X9240369Y-10710443D01*
X9240369Y-10643776D02*
X9230845Y-10653300D01*
X9240369Y-10662824D01*
X9249892Y-10653300D01*
X9240369Y-10643776D01*
X9240369Y-10662824D01*
X9364178Y-10843776D02*
X9345130Y-10834252D01*
X9335607Y-10815205D01*
X9335607Y-10643776D01*
X9468940Y-10843776D02*
X9449892Y-10834252D01*
X9440369Y-10815205D01*
X9440369Y-10643776D01*
X9697511Y-10843776D02*
X9697511Y-10643776D01*
X9764178Y-10786633D01*
X9830845Y-10643776D01*
X9830845Y-10843776D01*
X10011797Y-10843776D02*
X10011797Y-10739014D01*
X10002273Y-10719967D01*
X9983226Y-10710443D01*
X9945130Y-10710443D01*
X9926083Y-10719967D01*
X10011797Y-10834252D02*
X9992750Y-10843776D01*
X9945130Y-10843776D01*
X9926083Y-10834252D01*
X9916559Y-10815205D01*
X9916559Y-10796157D01*
X9926083Y-10777110D01*
X9945130Y-10767586D01*
X9992750Y-10767586D01*
X10011797Y-10758062D01*
X10107035Y-10710443D02*
X10107035Y-10910443D01*
X10107035Y-10719967D02*
X10126083Y-10710443D01*
X10164178Y-10710443D01*
X10183226Y-10719967D01*
X10192750Y-10729490D01*
X10202273Y-10748538D01*
X10202273Y-10805681D01*
X10192750Y-10824729D01*
X10183226Y-10834252D01*
X10164178Y-10843776D01*
X10126083Y-10843776D01*
X10107035Y-10834252D01*
X10287988Y-10824729D02*
X10297511Y-10834252D01*
X10287988Y-10843776D01*
X10278464Y-10834252D01*
X10287988Y-10824729D01*
X10287988Y-10843776D01*
X10287988Y-10719967D02*
X10297511Y-10729490D01*
X10287988Y-10739014D01*
X10278464Y-10729490D01*
X10287988Y-10719967D01*
X10287988Y-10739014D01*
D12*
X8570040Y-11128850D02*
X8658940Y-11217750D01*
X8658940Y-11128850D02*
X8570040Y-11217750D01*
D11*
X8954654Y-11063776D02*
X8973702Y-11063776D01*
X8992750Y-11073300D01*
X9002273Y-11082824D01*
X9011797Y-11101871D01*
X9021321Y-11139967D01*
X9021321Y-11187586D01*
X9011797Y-11225681D01*
X9002273Y-11244728D01*
X8992750Y-11254252D01*
X8973702Y-11263776D01*
X8954654Y-11263776D01*
X8935607Y-11254252D01*
X8926083Y-11244728D01*
X8916559Y-11225681D01*
X8907035Y-11187586D01*
X8907035Y-11139967D01*
X8916559Y-11101871D01*
X8926083Y-11082824D01*
X8935607Y-11073300D01*
X8954654Y-11063776D01*
X9107035Y-11244728D02*
X9116559Y-11254252D01*
X9107035Y-11263776D01*
X9097511Y-11254252D01*
X9107035Y-11244728D01*
X9107035Y-11263776D01*
X9230845Y-11149490D02*
X9211797Y-11139967D01*
X9202273Y-11130443D01*
X9192750Y-11111395D01*
X9192750Y-11101871D01*
X9202273Y-11082824D01*
X9211797Y-11073300D01*
X9230845Y-11063776D01*
X9268940Y-11063776D01*
X9287988Y-11073300D01*
X9297511Y-11082824D01*
X9307035Y-11101871D01*
X9307035Y-11111395D01*
X9297511Y-11130443D01*
X9287988Y-11139967D01*
X9268940Y-11149490D01*
X9230845Y-11149490D01*
X9211797Y-11159014D01*
X9202273Y-11168538D01*
X9192750Y-11187586D01*
X9192750Y-11225681D01*
X9202273Y-11244728D01*
X9211797Y-11254252D01*
X9230845Y-11263776D01*
X9268940Y-11263776D01*
X9287988Y-11254252D01*
X9297511Y-11244728D01*
X9307035Y-11225681D01*
X9307035Y-11187586D01*
X9297511Y-11168538D01*
X9287988Y-11159014D01*
X9268940Y-11149490D01*
X9421321Y-11149490D02*
X9402273Y-11139967D01*
X9392750Y-11130443D01*
X9383226Y-11111395D01*
X9383226Y-11101871D01*
X9392750Y-11082824D01*
X9402273Y-11073300D01*
X9421321Y-11063776D01*
X9459416Y-11063776D01*
X9478464Y-11073300D01*
X9487988Y-11082824D01*
X9497511Y-11101871D01*
X9497511Y-11111395D01*
X9487988Y-11130443D01*
X9478464Y-11139967D01*
X9459416Y-11149490D01*
X9421321Y-11149490D01*
X9402273Y-11159014D01*
X9392750Y-11168538D01*
X9383226Y-11187586D01*
X9383226Y-11225681D01*
X9392750Y-11244728D01*
X9402273Y-11254252D01*
X9421321Y-11263776D01*
X9459416Y-11263776D01*
X9478464Y-11254252D01*
X9487988Y-11244728D01*
X9497511Y-11225681D01*
X9497511Y-11187586D01*
X9487988Y-11168538D01*
X9478464Y-11159014D01*
X9459416Y-11149490D01*
X9592750Y-11263776D02*
X9630845Y-11263776D01*
X9649892Y-11254252D01*
X9659416Y-11244728D01*
X9678464Y-11216157D01*
X9687988Y-11178062D01*
X9687988Y-11101871D01*
X9678464Y-11082824D01*
X9668940Y-11073300D01*
X9649892Y-11063776D01*
X9611797Y-11063776D01*
X9592750Y-11073300D01*
X9583226Y-11082824D01*
X9573702Y-11101871D01*
X9573702Y-11149490D01*
X9583226Y-11168538D01*
X9592750Y-11178062D01*
X9611797Y-11187586D01*
X9649892Y-11187586D01*
X9668940Y-11178062D01*
X9678464Y-11168538D01*
X9687988Y-11149490D01*
X9773702Y-11263776D02*
X9773702Y-11130443D01*
X9773702Y-11149490D02*
X9783226Y-11139967D01*
X9802273Y-11130443D01*
X9830845Y-11130443D01*
X9849892Y-11139967D01*
X9859416Y-11159014D01*
X9859416Y-11263776D01*
X9859416Y-11159014D02*
X9868940Y-11139967D01*
X9887988Y-11130443D01*
X9916559Y-11130443D01*
X9935607Y-11139967D01*
X9945130Y-11159014D01*
X9945130Y-11263776D01*
X10040369Y-11263776D02*
X10040369Y-11130443D01*
X10040369Y-11149490D02*
X10049892Y-11139967D01*
X10068940Y-11130443D01*
X10097511Y-11130443D01*
X10116559Y-11139967D01*
X10126083Y-11159014D01*
X10126083Y-11263776D01*
X10126083Y-11159014D02*
X10135607Y-11139967D01*
X10154654Y-11130443D01*
X10183226Y-11130443D01*
X10202273Y-11139967D01*
X10211797Y-11159014D01*
X10211797Y-11263776D01*
X10602273Y-11054252D02*
X10430845Y-11311395D01*
X10859416Y-11063776D02*
X10878464Y-11063776D01*
X10897511Y-11073300D01*
X10907035Y-11082824D01*
X10916559Y-11101871D01*
X10926083Y-11139967D01*
X10926083Y-11187586D01*
X10916559Y-11225681D01*
X10907035Y-11244728D01*
X10897511Y-11254252D01*
X10878464Y-11263776D01*
X10859416Y-11263776D01*
X10840369Y-11254252D01*
X10830845Y-11244728D01*
X10821321Y-11225681D01*
X10811797Y-11187586D01*
X10811797Y-11139967D01*
X10821321Y-11101871D01*
X10830845Y-11082824D01*
X10840369Y-11073300D01*
X10859416Y-11063776D01*
X11011797Y-11244728D02*
X11021321Y-11254252D01*
X11011797Y-11263776D01*
X11002273Y-11254252D01*
X11011797Y-11244728D01*
X11011797Y-11263776D01*
X11145130Y-11063776D02*
X11164178Y-11063776D01*
X11183226Y-11073300D01*
X11192749Y-11082824D01*
X11202273Y-11101871D01*
X11211797Y-11139967D01*
X11211797Y-11187586D01*
X11202273Y-11225681D01*
X11192749Y-11244728D01*
X11183226Y-11254252D01*
X11164178Y-11263776D01*
X11145130Y-11263776D01*
X11126083Y-11254252D01*
X11116559Y-11244728D01*
X11107035Y-11225681D01*
X11097511Y-11187586D01*
X11097511Y-11139967D01*
X11107035Y-11101871D01*
X11116559Y-11082824D01*
X11126083Y-11073300D01*
X11145130Y-11063776D01*
X11278464Y-11063776D02*
X11402273Y-11063776D01*
X11335607Y-11139967D01*
X11364178Y-11139967D01*
X11383226Y-11149490D01*
X11392749Y-11159014D01*
X11402273Y-11178062D01*
X11402273Y-11225681D01*
X11392749Y-11244728D01*
X11383226Y-11254252D01*
X11364178Y-11263776D01*
X11307035Y-11263776D01*
X11287988Y-11254252D01*
X11278464Y-11244728D01*
X11583226Y-11063776D02*
X11487988Y-11063776D01*
X11478464Y-11159014D01*
X11487988Y-11149490D01*
X11507035Y-11139967D01*
X11554654Y-11139967D01*
X11573702Y-11149490D01*
X11583226Y-11159014D01*
X11592749Y-11178062D01*
X11592749Y-11225681D01*
X11583226Y-11244728D01*
X11573702Y-11254252D01*
X11554654Y-11263776D01*
X11507035Y-11263776D01*
X11487988Y-11254252D01*
X11478464Y-11244728D01*
X11716559Y-11063776D02*
X11735607Y-11063776D01*
X11754654Y-11073300D01*
X11764178Y-11082824D01*
X11773702Y-11101871D01*
X11783226Y-11139967D01*
X11783226Y-11187586D01*
X11773702Y-11225681D01*
X11764178Y-11244728D01*
X11754654Y-11254252D01*
X11735607Y-11263776D01*
X11716559Y-11263776D01*
X11697511Y-11254252D01*
X11687988Y-11244728D01*
X11678464Y-11225681D01*
X11668940Y-11187586D01*
X11668940Y-11139967D01*
X11678464Y-11101871D01*
X11687988Y-11082824D01*
X11697511Y-11073300D01*
X11716559Y-11063776D01*
X11859416Y-11063776D02*
X11859416Y-11101871D01*
X11935607Y-11063776D02*
X11935607Y-11101871D01*
X12230845Y-11339967D02*
X12221321Y-11330443D01*
X12202273Y-11301871D01*
X12192749Y-11282824D01*
X12183226Y-11254252D01*
X12173702Y-11206633D01*
X12173702Y-11168538D01*
X12183226Y-11120919D01*
X12192749Y-11092348D01*
X12202273Y-11073300D01*
X12221321Y-11044729D01*
X12230845Y-11035205D01*
X12287988Y-11063776D02*
X12421321Y-11063776D01*
X12335607Y-11263776D01*
X12649892Y-11263776D02*
X12649892Y-11063776D01*
X12735607Y-11263776D02*
X12735607Y-11159014D01*
X12726083Y-11139967D01*
X12707035Y-11130443D01*
X12678464Y-11130443D01*
X12659416Y-11139967D01*
X12649892Y-11149490D01*
X12859416Y-11263776D02*
X12840368Y-11254252D01*
X12830845Y-11244728D01*
X12821321Y-11225681D01*
X12821321Y-11168538D01*
X12830845Y-11149490D01*
X12840368Y-11139967D01*
X12859416Y-11130443D01*
X12887988Y-11130443D01*
X12907035Y-11139967D01*
X12916559Y-11149490D01*
X12926083Y-11168538D01*
X12926083Y-11225681D01*
X12916559Y-11244728D01*
X12907035Y-11254252D01*
X12887988Y-11263776D01*
X12859416Y-11263776D01*
X13040368Y-11263776D02*
X13021321Y-11254252D01*
X13011797Y-11235205D01*
X13011797Y-11063776D01*
X13192749Y-11254252D02*
X13173702Y-11263776D01*
X13135607Y-11263776D01*
X13116559Y-11254252D01*
X13107035Y-11235205D01*
X13107035Y-11159014D01*
X13116559Y-11139967D01*
X13135607Y-11130443D01*
X13173702Y-11130443D01*
X13192749Y-11139967D01*
X13202273Y-11159014D01*
X13202273Y-11178062D01*
X13107035Y-11197109D01*
X13278464Y-11254252D02*
X13297511Y-11263776D01*
X13335607Y-11263776D01*
X13354654Y-11254252D01*
X13364178Y-11235205D01*
X13364178Y-11225681D01*
X13354654Y-11206633D01*
X13335607Y-11197109D01*
X13307035Y-11197109D01*
X13287988Y-11187586D01*
X13278464Y-11168538D01*
X13278464Y-11159014D01*
X13287988Y-11139967D01*
X13307035Y-11130443D01*
X13335607Y-11130443D01*
X13354654Y-11139967D01*
X13430845Y-11339967D02*
X13440368Y-11330443D01*
X13459416Y-11301871D01*
X13468940Y-11282824D01*
X13478464Y-11254252D01*
X13487988Y-11206633D01*
X13487988Y-11168538D01*
X13478464Y-11120919D01*
X13468940Y-11092348D01*
X13459416Y-11073300D01*
X13440368Y-11044729D01*
X13430845Y-11035205D01*
D10*
X8658940Y-11437300D02*
G75*
G03*
X8658940Y-11437300I-50000J0D01*
G01*
D11*
X9021321Y-11527776D02*
X8907035Y-11527776D01*
X8964178Y-11527776D02*
X8964178Y-11327776D01*
X8945130Y-11356348D01*
X8926083Y-11375395D01*
X8907035Y-11384919D01*
X9107035Y-11508728D02*
X9116559Y-11518252D01*
X9107035Y-11527776D01*
X9097511Y-11518252D01*
X9107035Y-11508728D01*
X9107035Y-11527776D01*
X9240369Y-11327776D02*
X9259416Y-11327776D01*
X9278464Y-11337300D01*
X9287988Y-11346824D01*
X9297511Y-11365871D01*
X9307035Y-11403967D01*
X9307035Y-11451586D01*
X9297511Y-11489681D01*
X9287988Y-11508728D01*
X9278464Y-11518252D01*
X9259416Y-11527776D01*
X9240369Y-11527776D01*
X9221321Y-11518252D01*
X9211797Y-11508728D01*
X9202273Y-11489681D01*
X9192750Y-11451586D01*
X9192750Y-11403967D01*
X9202273Y-11365871D01*
X9211797Y-11346824D01*
X9221321Y-11337300D01*
X9240369Y-11327776D01*
X9430845Y-11327776D02*
X9449892Y-11327776D01*
X9468940Y-11337300D01*
X9478464Y-11346824D01*
X9487988Y-11365871D01*
X9497511Y-11403967D01*
X9497511Y-11451586D01*
X9487988Y-11489681D01*
X9478464Y-11508728D01*
X9468940Y-11518252D01*
X9449892Y-11527776D01*
X9430845Y-11527776D01*
X9411797Y-11518252D01*
X9402273Y-11508728D01*
X9392750Y-11489681D01*
X9383226Y-11451586D01*
X9383226Y-11403967D01*
X9392750Y-11365871D01*
X9402273Y-11346824D01*
X9411797Y-11337300D01*
X9430845Y-11327776D01*
X9621321Y-11327776D02*
X9640369Y-11327776D01*
X9659416Y-11337300D01*
X9668940Y-11346824D01*
X9678464Y-11365871D01*
X9687988Y-11403967D01*
X9687988Y-11451586D01*
X9678464Y-11489681D01*
X9668940Y-11508728D01*
X9659416Y-11518252D01*
X9640369Y-11527776D01*
X9621321Y-11527776D01*
X9602273Y-11518252D01*
X9592750Y-11508728D01*
X9583226Y-11489681D01*
X9573702Y-11451586D01*
X9573702Y-11403967D01*
X9583226Y-11365871D01*
X9592750Y-11346824D01*
X9602273Y-11337300D01*
X9621321Y-11327776D01*
X9773702Y-11527776D02*
X9773702Y-11394443D01*
X9773702Y-11413490D02*
X9783226Y-11403967D01*
X9802273Y-11394443D01*
X9830845Y-11394443D01*
X9849892Y-11403967D01*
X9859416Y-11423014D01*
X9859416Y-11527776D01*
X9859416Y-11423014D02*
X9868940Y-11403967D01*
X9887988Y-11394443D01*
X9916559Y-11394443D01*
X9935607Y-11403967D01*
X9945130Y-11423014D01*
X9945130Y-11527776D01*
X10040369Y-11527776D02*
X10040369Y-11394443D01*
X10040369Y-11413490D02*
X10049892Y-11403967D01*
X10068940Y-11394443D01*
X10097511Y-11394443D01*
X10116559Y-11403967D01*
X10126083Y-11423014D01*
X10126083Y-11527776D01*
X10126083Y-11423014D02*
X10135607Y-11403967D01*
X10154654Y-11394443D01*
X10183226Y-11394443D01*
X10202273Y-11403967D01*
X10211797Y-11423014D01*
X10211797Y-11527776D01*
X10602273Y-11318252D02*
X10430845Y-11575395D01*
X10859416Y-11327776D02*
X10878464Y-11327776D01*
X10897511Y-11337300D01*
X10907035Y-11346824D01*
X10916559Y-11365871D01*
X10926083Y-11403967D01*
X10926083Y-11451586D01*
X10916559Y-11489681D01*
X10907035Y-11508728D01*
X10897511Y-11518252D01*
X10878464Y-11527776D01*
X10859416Y-11527776D01*
X10840369Y-11518252D01*
X10830845Y-11508728D01*
X10821321Y-11489681D01*
X10811797Y-11451586D01*
X10811797Y-11403967D01*
X10821321Y-11365871D01*
X10830845Y-11346824D01*
X10840369Y-11337300D01*
X10859416Y-11327776D01*
X11011797Y-11508728D02*
X11021321Y-11518252D01*
X11011797Y-11527776D01*
X11002273Y-11518252D01*
X11011797Y-11508728D01*
X11011797Y-11527776D01*
X11145130Y-11327776D02*
X11164178Y-11327776D01*
X11183226Y-11337300D01*
X11192749Y-11346824D01*
X11202273Y-11365871D01*
X11211797Y-11403967D01*
X11211797Y-11451586D01*
X11202273Y-11489681D01*
X11192749Y-11508728D01*
X11183226Y-11518252D01*
X11164178Y-11527776D01*
X11145130Y-11527776D01*
X11126083Y-11518252D01*
X11116559Y-11508728D01*
X11107035Y-11489681D01*
X11097511Y-11451586D01*
X11097511Y-11403967D01*
X11107035Y-11365871D01*
X11116559Y-11346824D01*
X11126083Y-11337300D01*
X11145130Y-11327776D01*
X11278464Y-11327776D02*
X11402273Y-11327776D01*
X11335607Y-11403967D01*
X11364178Y-11403967D01*
X11383226Y-11413490D01*
X11392749Y-11423014D01*
X11402273Y-11442062D01*
X11402273Y-11489681D01*
X11392749Y-11508728D01*
X11383226Y-11518252D01*
X11364178Y-11527776D01*
X11307035Y-11527776D01*
X11287988Y-11518252D01*
X11278464Y-11508728D01*
X11497511Y-11527776D02*
X11535607Y-11527776D01*
X11554654Y-11518252D01*
X11564178Y-11508728D01*
X11583226Y-11480157D01*
X11592749Y-11442062D01*
X11592749Y-11365871D01*
X11583226Y-11346824D01*
X11573702Y-11337300D01*
X11554654Y-11327776D01*
X11516559Y-11327776D01*
X11497511Y-11337300D01*
X11487988Y-11346824D01*
X11478464Y-11365871D01*
X11478464Y-11413490D01*
X11487988Y-11432538D01*
X11497511Y-11442062D01*
X11516559Y-11451586D01*
X11554654Y-11451586D01*
X11573702Y-11442062D01*
X11583226Y-11432538D01*
X11592749Y-11413490D01*
X11764178Y-11394443D02*
X11764178Y-11527776D01*
X11716559Y-11318252D02*
X11668940Y-11461109D01*
X11792749Y-11461109D01*
X11859416Y-11327776D02*
X11859416Y-11365871D01*
X11935607Y-11327776D02*
X11935607Y-11365871D01*
X12230845Y-11603967D02*
X12221321Y-11594443D01*
X12202273Y-11565871D01*
X12192749Y-11546824D01*
X12183226Y-11518252D01*
X12173702Y-11470633D01*
X12173702Y-11432538D01*
X12183226Y-11384919D01*
X12192749Y-11356348D01*
X12202273Y-11337300D01*
X12221321Y-11308728D01*
X12230845Y-11299205D01*
X12335607Y-11413490D02*
X12316559Y-11403967D01*
X12307035Y-11394443D01*
X12297511Y-11375395D01*
X12297511Y-11365871D01*
X12307035Y-11346824D01*
X12316559Y-11337300D01*
X12335607Y-11327776D01*
X12373702Y-11327776D01*
X12392749Y-11337300D01*
X12402273Y-11346824D01*
X12411797Y-11365871D01*
X12411797Y-11375395D01*
X12402273Y-11394443D01*
X12392749Y-11403967D01*
X12373702Y-11413490D01*
X12335607Y-11413490D01*
X12316559Y-11423014D01*
X12307035Y-11432538D01*
X12297511Y-11451586D01*
X12297511Y-11489681D01*
X12307035Y-11508728D01*
X12316559Y-11518252D01*
X12335607Y-11527776D01*
X12373702Y-11527776D01*
X12392749Y-11518252D01*
X12402273Y-11508728D01*
X12411797Y-11489681D01*
X12411797Y-11451586D01*
X12402273Y-11432538D01*
X12392749Y-11423014D01*
X12373702Y-11413490D01*
X12507035Y-11527776D02*
X12545130Y-11527776D01*
X12564178Y-11518252D01*
X12573702Y-11508728D01*
X12592749Y-11480157D01*
X12602273Y-11442062D01*
X12602273Y-11365871D01*
X12592749Y-11346824D01*
X12583226Y-11337300D01*
X12564178Y-11327776D01*
X12526083Y-11327776D01*
X12507035Y-11337300D01*
X12497511Y-11346824D01*
X12487988Y-11365871D01*
X12487988Y-11413490D01*
X12497511Y-11432538D01*
X12507035Y-11442062D01*
X12526083Y-11451586D01*
X12564178Y-11451586D01*
X12583226Y-11442062D01*
X12592749Y-11432538D01*
X12602273Y-11413490D01*
X12840368Y-11527776D02*
X12840368Y-11327776D01*
X12926083Y-11527776D02*
X12926083Y-11423014D01*
X12916559Y-11403967D01*
X12897511Y-11394443D01*
X12868940Y-11394443D01*
X12849892Y-11403967D01*
X12840368Y-11413490D01*
X13049892Y-11527776D02*
X13030845Y-11518252D01*
X13021321Y-11508728D01*
X13011797Y-11489681D01*
X13011797Y-11432538D01*
X13021321Y-11413490D01*
X13030845Y-11403967D01*
X13049892Y-11394443D01*
X13078464Y-11394443D01*
X13097511Y-11403967D01*
X13107035Y-11413490D01*
X13116559Y-11432538D01*
X13116559Y-11489681D01*
X13107035Y-11508728D01*
X13097511Y-11518252D01*
X13078464Y-11527776D01*
X13049892Y-11527776D01*
X13230845Y-11527776D02*
X13211797Y-11518252D01*
X13202273Y-11499205D01*
X13202273Y-11327776D01*
X13383226Y-11518252D02*
X13364178Y-11527776D01*
X13326083Y-11527776D01*
X13307035Y-11518252D01*
X13297511Y-11499205D01*
X13297511Y-11423014D01*
X13307035Y-11403967D01*
X13326083Y-11394443D01*
X13364178Y-11394443D01*
X13383226Y-11403967D01*
X13392749Y-11423014D01*
X13392749Y-11442062D01*
X13297511Y-11461109D01*
X13468940Y-11518252D02*
X13487988Y-11527776D01*
X13526083Y-11527776D01*
X13545130Y-11518252D01*
X13554654Y-11499205D01*
X13554654Y-11489681D01*
X13545130Y-11470633D01*
X13526083Y-11461109D01*
X13497511Y-11461109D01*
X13478464Y-11451586D01*
X13468940Y-11432538D01*
X13468940Y-11423014D01*
X13478464Y-11403967D01*
X13497511Y-11394443D01*
X13526083Y-11394443D01*
X13545130Y-11403967D01*
X13621321Y-11603967D02*
X13630845Y-11594443D01*
X13649892Y-11565871D01*
X13659416Y-11546824D01*
X13668940Y-11518252D01*
X13678464Y-11470633D01*
X13678464Y-11432538D01*
X13668940Y-11384919D01*
X13659416Y-11356348D01*
X13649892Y-11337300D01*
X13630845Y-11308728D01*
X13621321Y-11299205D01*
X8558940Y-11601300D02*
X8558940Y-11801300D01*
X8458940Y-11701300D02*
X8658940Y-11701300D01*
X8897511Y-11591776D02*
X9021321Y-11591776D01*
X8954654Y-11667967D01*
X8983226Y-11667967D01*
X9002273Y-11677490D01*
X9011797Y-11687014D01*
X9021321Y-11706062D01*
X9021321Y-11753681D01*
X9011797Y-11772728D01*
X9002273Y-11782252D01*
X8983226Y-11791776D01*
X8926083Y-11791776D01*
X8907035Y-11782252D01*
X8897511Y-11772728D01*
X9107035Y-11772728D02*
X9116559Y-11782252D01*
X9107035Y-11791776D01*
X9097511Y-11782252D01*
X9107035Y-11772728D01*
X9107035Y-11791776D01*
X9192750Y-11610824D02*
X9202273Y-11601300D01*
X9221321Y-11591776D01*
X9268940Y-11591776D01*
X9287988Y-11601300D01*
X9297511Y-11610824D01*
X9307035Y-11629871D01*
X9307035Y-11648919D01*
X9297511Y-11677490D01*
X9183226Y-11791776D01*
X9307035Y-11791776D01*
X9430845Y-11591776D02*
X9449892Y-11591776D01*
X9468940Y-11601300D01*
X9478464Y-11610824D01*
X9487988Y-11629871D01*
X9497511Y-11667967D01*
X9497511Y-11715586D01*
X9487988Y-11753681D01*
X9478464Y-11772728D01*
X9468940Y-11782252D01*
X9449892Y-11791776D01*
X9430845Y-11791776D01*
X9411797Y-11782252D01*
X9402273Y-11772728D01*
X9392750Y-11753681D01*
X9383226Y-11715586D01*
X9383226Y-11667967D01*
X9392750Y-11629871D01*
X9402273Y-11610824D01*
X9411797Y-11601300D01*
X9430845Y-11591776D01*
X9621321Y-11591776D02*
X9640369Y-11591776D01*
X9659416Y-11601300D01*
X9668940Y-11610824D01*
X9678464Y-11629871D01*
X9687988Y-11667967D01*
X9687988Y-11715586D01*
X9678464Y-11753681D01*
X9668940Y-11772728D01*
X9659416Y-11782252D01*
X9640369Y-11791776D01*
X9621321Y-11791776D01*
X9602273Y-11782252D01*
X9592750Y-11772728D01*
X9583226Y-11753681D01*
X9573702Y-11715586D01*
X9573702Y-11667967D01*
X9583226Y-11629871D01*
X9592750Y-11610824D01*
X9602273Y-11601300D01*
X9621321Y-11591776D01*
X9773702Y-11791776D02*
X9773702Y-11658443D01*
X9773702Y-11677490D02*
X9783226Y-11667967D01*
X9802273Y-11658443D01*
X9830845Y-11658443D01*
X9849892Y-11667967D01*
X9859416Y-11687014D01*
X9859416Y-11791776D01*
X9859416Y-11687014D02*
X9868940Y-11667967D01*
X9887988Y-11658443D01*
X9916559Y-11658443D01*
X9935607Y-11667967D01*
X9945130Y-11687014D01*
X9945130Y-11791776D01*
X10040369Y-11791776D02*
X10040369Y-11658443D01*
X10040369Y-11677490D02*
X10049892Y-11667967D01*
X10068940Y-11658443D01*
X10097511Y-11658443D01*
X10116559Y-11667967D01*
X10126083Y-11687014D01*
X10126083Y-11791776D01*
X10126083Y-11687014D02*
X10135607Y-11667967D01*
X10154654Y-11658443D01*
X10183226Y-11658443D01*
X10202273Y-11667967D01*
X10211797Y-11687014D01*
X10211797Y-11791776D01*
X10602273Y-11582252D02*
X10430845Y-11839395D01*
X10859416Y-11591776D02*
X10878464Y-11591776D01*
X10897511Y-11601300D01*
X10907035Y-11610824D01*
X10916559Y-11629871D01*
X10926083Y-11667967D01*
X10926083Y-11715586D01*
X10916559Y-11753681D01*
X10907035Y-11772728D01*
X10897511Y-11782252D01*
X10878464Y-11791776D01*
X10859416Y-11791776D01*
X10840369Y-11782252D01*
X10830845Y-11772728D01*
X10821321Y-11753681D01*
X10811797Y-11715586D01*
X10811797Y-11667967D01*
X10821321Y-11629871D01*
X10830845Y-11610824D01*
X10840369Y-11601300D01*
X10859416Y-11591776D01*
X11011797Y-11772728D02*
X11021321Y-11782252D01*
X11011797Y-11791776D01*
X11002273Y-11782252D01*
X11011797Y-11772728D01*
X11011797Y-11791776D01*
X11211797Y-11791776D02*
X11097511Y-11791776D01*
X11154654Y-11791776D02*
X11154654Y-11591776D01*
X11135607Y-11620348D01*
X11116559Y-11639395D01*
X11097511Y-11648919D01*
X11287988Y-11610824D02*
X11297511Y-11601300D01*
X11316559Y-11591776D01*
X11364178Y-11591776D01*
X11383226Y-11601300D01*
X11392749Y-11610824D01*
X11402273Y-11629871D01*
X11402273Y-11648919D01*
X11392749Y-11677490D01*
X11278464Y-11791776D01*
X11402273Y-11791776D01*
X11573702Y-11591776D02*
X11535607Y-11591776D01*
X11516559Y-11601300D01*
X11507035Y-11610824D01*
X11487988Y-11639395D01*
X11478464Y-11677490D01*
X11478464Y-11753681D01*
X11487988Y-11772728D01*
X11497511Y-11782252D01*
X11516559Y-11791776D01*
X11554654Y-11791776D01*
X11573702Y-11782252D01*
X11583226Y-11772728D01*
X11592749Y-11753681D01*
X11592749Y-11706062D01*
X11583226Y-11687014D01*
X11573702Y-11677490D01*
X11554654Y-11667967D01*
X11516559Y-11667967D01*
X11497511Y-11677490D01*
X11487988Y-11687014D01*
X11478464Y-11706062D01*
X11716559Y-11591776D02*
X11735607Y-11591776D01*
X11754654Y-11601300D01*
X11764178Y-11610824D01*
X11773702Y-11629871D01*
X11783226Y-11667967D01*
X11783226Y-11715586D01*
X11773702Y-11753681D01*
X11764178Y-11772728D01*
X11754654Y-11782252D01*
X11735607Y-11791776D01*
X11716559Y-11791776D01*
X11697511Y-11782252D01*
X11687988Y-11772728D01*
X11678464Y-11753681D01*
X11668940Y-11715586D01*
X11668940Y-11667967D01*
X11678464Y-11629871D01*
X11687988Y-11610824D01*
X11697511Y-11601300D01*
X11716559Y-11591776D01*
X11859416Y-11591776D02*
X11859416Y-11629871D01*
X11935607Y-11591776D02*
X11935607Y-11629871D01*
X12230845Y-11867967D02*
X12221321Y-11858443D01*
X12202273Y-11829871D01*
X12192749Y-11810824D01*
X12183226Y-11782252D01*
X12173702Y-11734633D01*
X12173702Y-11696538D01*
X12183226Y-11648919D01*
X12192749Y-11620348D01*
X12202273Y-11601300D01*
X12221321Y-11572728D01*
X12230845Y-11563205D01*
X12392749Y-11658443D02*
X12392749Y-11791776D01*
X12345130Y-11582252D02*
X12297511Y-11725109D01*
X12421321Y-11725109D01*
X12649892Y-11791776D02*
X12649892Y-11591776D01*
X12735607Y-11791776D02*
X12735607Y-11687014D01*
X12726083Y-11667967D01*
X12707035Y-11658443D01*
X12678464Y-11658443D01*
X12659416Y-11667967D01*
X12649892Y-11677490D01*
X12859416Y-11791776D02*
X12840368Y-11782252D01*
X12830845Y-11772728D01*
X12821321Y-11753681D01*
X12821321Y-11696538D01*
X12830845Y-11677490D01*
X12840368Y-11667967D01*
X12859416Y-11658443D01*
X12887988Y-11658443D01*
X12907035Y-11667967D01*
X12916559Y-11677490D01*
X12926083Y-11696538D01*
X12926083Y-11753681D01*
X12916559Y-11772728D01*
X12907035Y-11782252D01*
X12887988Y-11791776D01*
X12859416Y-11791776D01*
X13040368Y-11791776D02*
X13021321Y-11782252D01*
X13011797Y-11763205D01*
X13011797Y-11591776D01*
X13192749Y-11782252D02*
X13173702Y-11791776D01*
X13135607Y-11791776D01*
X13116559Y-11782252D01*
X13107035Y-11763205D01*
X13107035Y-11687014D01*
X13116559Y-11667967D01*
X13135607Y-11658443D01*
X13173702Y-11658443D01*
X13192749Y-11667967D01*
X13202273Y-11687014D01*
X13202273Y-11706062D01*
X13107035Y-11725109D01*
X13278464Y-11782252D02*
X13297511Y-11791776D01*
X13335607Y-11791776D01*
X13354654Y-11782252D01*
X13364178Y-11763205D01*
X13364178Y-11753681D01*
X13354654Y-11734633D01*
X13335607Y-11725109D01*
X13307035Y-11725109D01*
X13287988Y-11715586D01*
X13278464Y-11696538D01*
X13278464Y-11687014D01*
X13287988Y-11667967D01*
X13307035Y-11658443D01*
X13335607Y-11658443D01*
X13354654Y-11667967D01*
X13430845Y-11867967D02*
X13440368Y-11858443D01*
X13459416Y-11829871D01*
X13468940Y-11810824D01*
X13478464Y-11782252D01*
X13487988Y-11734633D01*
X13487988Y-11696538D01*
X13478464Y-11648919D01*
X13468940Y-11620348D01*
X13459416Y-11601300D01*
X13440368Y-11572728D01*
X13430845Y-11563205D01*
M02*
