%TF.GenerationSoftware,KiCad,Pcbnew,(6.0.9)*%
%TF.CreationDate,2022-12-16T13:04:01-05:00*%
%TF.ProjectId,Perris_Breakout,50657272-6973-45f4-9272-65616b6f7574,rev?*%
%TF.SameCoordinates,Original*%
%TF.FileFunction,Copper,L2,Bot*%
%TF.FilePolarity,Positive*%
%FSLAX46Y46*%
G04 Gerber Fmt 4.6, Leading zero omitted, Abs format (unit mm)*
G04 Created by KiCad (PCBNEW (6.0.9)) date 2022-12-16 13:04:01*
%MOMM*%
%LPD*%
G01*
G04 APERTURE LIST*
%TA.AperFunction,ComponentPad*%
%ADD10R,1.700000X1.700000*%
%TD*%
%TA.AperFunction,ComponentPad*%
%ADD11O,1.700000X1.700000*%
%TD*%
%TA.AperFunction,ComponentPad*%
%ADD12C,5.700000*%
%TD*%
%TA.AperFunction,ViaPad*%
%ADD13C,1.270000*%
%TD*%
%TA.AperFunction,Conductor*%
%ADD14C,1.270000*%
%TD*%
G04 APERTURE END LIST*
D10*
%TO.P,J7,1,Pin_1*%
%TO.N,unconnected-(J7-Pad1)*%
X116636800Y-51485800D03*
D11*
%TO.P,J7,2,Pin_2*%
%TO.N,unconnected-(J7-Pad2)*%
X114096800Y-51485800D03*
%TO.P,J7,3,Pin_3*%
%TO.N,unconnected-(J7-Pad3)*%
X111556800Y-51485800D03*
%TO.P,J7,4,Pin_4*%
%TO.N,unconnected-(J7-Pad4)*%
X109016800Y-51485800D03*
%TO.P,J7,5,Pin_5*%
%TO.N,/SCL*%
X106476800Y-51485800D03*
%TO.P,J7,6,Pin_6*%
%TO.N,/SDA*%
X106476800Y-54025800D03*
%TO.P,J7,7,Pin_7*%
%TO.N,unconnected-(J7-Pad7)*%
X109016800Y-54025800D03*
%TO.P,J7,8,Pin_8*%
%TO.N,unconnected-(J7-Pad8)*%
X111556800Y-54025800D03*
%TO.P,J7,9,Pin_9*%
%TO.N,unconnected-(J7-Pad9)*%
X114096800Y-54025800D03*
%TO.P,J7,10,Pin_10*%
%TO.N,/GND*%
X116636800Y-54025800D03*
%TD*%
D10*
%TO.P,J5,1,Pin_1*%
%TO.N,unconnected-(J5-Pad1)*%
X140106400Y-67792600D03*
D11*
%TO.P,J5,2,Pin_2*%
%TO.N,unconnected-(J5-Pad2)*%
X140106400Y-65252600D03*
%TO.P,J5,3,Pin_3*%
%TO.N,unconnected-(J5-Pad3)*%
X140106400Y-62712600D03*
%TO.P,J5,4,Pin_4*%
%TO.N,unconnected-(J5-Pad4)*%
X140106400Y-60172600D03*
%TO.P,J5,5,Pin_5*%
%TO.N,/SCL*%
X140106400Y-57632600D03*
%TO.P,J5,6,Pin_6*%
%TO.N,/SDA*%
X137566400Y-57632600D03*
%TO.P,J5,7,Pin_7*%
%TO.N,unconnected-(J5-Pad7)*%
X137566400Y-60172600D03*
%TO.P,J5,8,Pin_8*%
%TO.N,unconnected-(J5-Pad8)*%
X137566400Y-62712600D03*
%TO.P,J5,9,Pin_9*%
%TO.N,unconnected-(J5-Pad9)*%
X137566400Y-65252600D03*
%TO.P,J5,10,Pin_10*%
%TO.N,/GND*%
X137566400Y-67792600D03*
%TD*%
D10*
%TO.P,TP3,1,1*%
%TO.N,/SDA*%
X119811800Y-80187800D03*
%TD*%
%TO.P,TP2,1,1*%
%TO.N,/GND*%
X119811800Y-71640700D03*
%TD*%
%TO.P,J8,1,Pin_1*%
%TO.N,unconnected-(J8-Pad1)*%
X133741000Y-51485800D03*
D11*
%TO.P,J8,2,Pin_2*%
%TO.N,unconnected-(J8-Pad2)*%
X131201000Y-51485800D03*
%TO.P,J8,3,Pin_3*%
%TO.N,unconnected-(J8-Pad3)*%
X128661000Y-51485800D03*
%TO.P,J8,4,Pin_4*%
%TO.N,unconnected-(J8-Pad4)*%
X126121000Y-51485800D03*
%TO.P,J8,5,Pin_5*%
%TO.N,/SCL*%
X123581000Y-51485800D03*
%TO.P,J8,6,Pin_6*%
%TO.N,/SDA*%
X123581000Y-54025800D03*
%TO.P,J8,7,Pin_7*%
%TO.N,unconnected-(J8-Pad7)*%
X126121000Y-54025800D03*
%TO.P,J8,8,Pin_8*%
%TO.N,unconnected-(J8-Pad8)*%
X128661000Y-54025800D03*
%TO.P,J8,9,Pin_9*%
%TO.N,unconnected-(J8-Pad9)*%
X131201000Y-54025800D03*
%TO.P,J8,10,Pin_10*%
%TO.N,/GND*%
X133741000Y-54025800D03*
%TD*%
D10*
%TO.P,J10,1,Pin_1*%
%TO.N,/SCL*%
X128569800Y-63104000D03*
%TD*%
%TO.P,J14,1,Pin_1*%
%TO.N,/SDA*%
X128569800Y-80208200D03*
%TD*%
%TO.P,J13,1,Pin_1*%
%TO.N,/SDA*%
X111465600Y-80208200D03*
%TD*%
%TO.P,J3,1,Pin_1*%
%TO.N,unconnected-(J3-Pad1)*%
X106390600Y-91389200D03*
D11*
%TO.P,J3,2,Pin_2*%
%TO.N,unconnected-(J3-Pad2)*%
X108930600Y-91389200D03*
%TO.P,J3,3,Pin_3*%
%TO.N,unconnected-(J3-Pad3)*%
X111470600Y-91389200D03*
%TO.P,J3,4,Pin_4*%
%TO.N,unconnected-(J3-Pad4)*%
X114010600Y-91389200D03*
%TO.P,J3,5,Pin_5*%
%TO.N,/SCL*%
X116550600Y-91389200D03*
%TO.P,J3,6,Pin_6*%
%TO.N,/SDA*%
X116550600Y-88849200D03*
%TO.P,J3,7,Pin_7*%
%TO.N,unconnected-(J3-Pad7)*%
X114010600Y-88849200D03*
%TO.P,J3,8,Pin_8*%
%TO.N,unconnected-(J3-Pad8)*%
X111470600Y-88849200D03*
%TO.P,J3,9,Pin_9*%
%TO.N,unconnected-(J3-Pad9)*%
X108930600Y-88849200D03*
%TO.P,J3,10,Pin_10*%
%TO.N,/GND*%
X106390600Y-88849200D03*
%TD*%
D10*
%TO.P,J11,1,Pin_1*%
%TO.N,/GND*%
X111465600Y-71661100D03*
%TD*%
D12*
%TO.P,H2,1,1*%
%TO.N,/GND*%
X92354400Y-99085400D03*
%TD*%
%TO.P,H3,1,1*%
%TO.N,/GND*%
X92100400Y-43129200D03*
%TD*%
D10*
%TO.P,TP1,1,1*%
%TO.N,/SCL*%
X119811800Y-63083600D03*
%TD*%
%TO.P,J6,1,Pin_1*%
%TO.N,unconnected-(J6-Pad1)*%
X140106400Y-84896800D03*
D11*
%TO.P,J6,2,Pin_2*%
%TO.N,unconnected-(J6-Pad2)*%
X140106400Y-82356800D03*
%TO.P,J6,3,Pin_3*%
%TO.N,unconnected-(J6-Pad3)*%
X140106400Y-79816800D03*
%TO.P,J6,4,Pin_4*%
%TO.N,unconnected-(J6-Pad4)*%
X140106400Y-77276800D03*
%TO.P,J6,5,Pin_5*%
%TO.N,/SCL*%
X140106400Y-74736800D03*
%TO.P,J6,6,Pin_6*%
%TO.N,/SDA*%
X137566400Y-74736800D03*
%TO.P,J6,7,Pin_7*%
%TO.N,unconnected-(J6-Pad7)*%
X137566400Y-77276800D03*
%TO.P,J6,8,Pin_8*%
%TO.N,unconnected-(J6-Pad8)*%
X137566400Y-79816800D03*
%TO.P,J6,9,Pin_9*%
%TO.N,unconnected-(J6-Pad9)*%
X137566400Y-82356800D03*
%TO.P,J6,10,Pin_10*%
%TO.N,/GND*%
X137566400Y-84896800D03*
%TD*%
D12*
%TO.P,H1,1,1*%
%TO.N,/GND*%
X148818600Y-43129200D03*
%TD*%
D10*
%TO.P,J12,1,Pin_1*%
%TO.N,/GND*%
X128569800Y-71661100D03*
%TD*%
%TO.P,J9,1,Pin_1*%
%TO.N,/SCL*%
X111465600Y-63104000D03*
%TD*%
%TO.P,J1,1,Pin_1*%
%TO.N,unconnected-(J1-Pad1)*%
X100330000Y-58029000D03*
D11*
%TO.P,J1,2,Pin_2*%
%TO.N,unconnected-(J1-Pad2)*%
X100330000Y-60569000D03*
%TO.P,J1,3,Pin_3*%
%TO.N,unconnected-(J1-Pad3)*%
X100330000Y-63109000D03*
%TO.P,J1,4,Pin_4*%
%TO.N,unconnected-(J1-Pad4)*%
X100330000Y-65649000D03*
%TO.P,J1,5,Pin_5*%
%TO.N,/SCL*%
X100330000Y-68189000D03*
%TO.P,J1,6,Pin_6*%
%TO.N,/SDA*%
X102870000Y-68189000D03*
%TO.P,J1,7,Pin_7*%
%TO.N,unconnected-(J1-Pad7)*%
X102870000Y-65649000D03*
%TO.P,J1,8,Pin_8*%
%TO.N,unconnected-(J1-Pad8)*%
X102870000Y-63109000D03*
%TO.P,J1,9,Pin_9*%
%TO.N,unconnected-(J1-Pad9)*%
X102870000Y-60569000D03*
%TO.P,J1,10,Pin_10*%
%TO.N,/GND*%
X102870000Y-58029000D03*
%TD*%
D12*
%TO.P,H4,1,1*%
%TO.N,/GND*%
X148818600Y-99085400D03*
%TD*%
D10*
%TO.P,J2,1,Pin_1*%
%TO.N,unconnected-(J2-Pad1)*%
X100330000Y-75133200D03*
D11*
%TO.P,J2,2,Pin_2*%
%TO.N,unconnected-(J2-Pad2)*%
X100330000Y-77673200D03*
%TO.P,J2,3,Pin_3*%
%TO.N,unconnected-(J2-Pad3)*%
X100330000Y-80213200D03*
%TO.P,J2,4,Pin_4*%
%TO.N,unconnected-(J2-Pad4)*%
X100330000Y-82753200D03*
%TO.P,J2,5,Pin_5*%
%TO.N,/SCL*%
X100330000Y-85293200D03*
%TO.P,J2,6,Pin_6*%
%TO.N,/SDA*%
X102870000Y-85293200D03*
%TO.P,J2,7,Pin_7*%
%TO.N,unconnected-(J2-Pad7)*%
X102870000Y-82753200D03*
%TO.P,J2,8,Pin_8*%
%TO.N,unconnected-(J2-Pad8)*%
X102870000Y-80213200D03*
%TO.P,J2,9,Pin_9*%
%TO.N,unconnected-(J2-Pad9)*%
X102870000Y-77673200D03*
%TO.P,J2,10,Pin_10*%
%TO.N,/GND*%
X102870000Y-75133200D03*
%TD*%
D10*
%TO.P,J4,1,Pin_1*%
%TO.N,unconnected-(J4-Pad1)*%
X123494800Y-91389200D03*
D11*
%TO.P,J4,2,Pin_2*%
%TO.N,unconnected-(J4-Pad2)*%
X126034800Y-91389200D03*
%TO.P,J4,3,Pin_3*%
%TO.N,unconnected-(J4-Pad3)*%
X128574800Y-91389200D03*
%TO.P,J4,4,Pin_4*%
%TO.N,unconnected-(J4-Pad4)*%
X131114800Y-91389200D03*
%TO.P,J4,5,Pin_5*%
%TO.N,/SCL*%
X133654800Y-91389200D03*
%TO.P,J4,6,Pin_6*%
%TO.N,/SDA*%
X133654800Y-88849200D03*
%TO.P,J4,7,Pin_7*%
%TO.N,unconnected-(J4-Pad7)*%
X131114800Y-88849200D03*
%TO.P,J4,8,Pin_8*%
%TO.N,unconnected-(J4-Pad8)*%
X128574800Y-88849200D03*
%TO.P,J4,9,Pin_9*%
%TO.N,unconnected-(J4-Pad9)*%
X126034800Y-88849200D03*
%TO.P,J4,10,Pin_10*%
%TO.N,/GND*%
X123494800Y-88849200D03*
%TD*%
D13*
%TO.N,/GND*%
X138836400Y-52755800D03*
X101605000Y-90114200D03*
X101605000Y-71661100D03*
X101605000Y-52755800D03*
X119811800Y-90114200D03*
X111506000Y-58623200D03*
%TD*%
D14*
%TO.N,/SCL*%
X106654600Y-49250600D02*
X120040400Y-49250600D01*
X97891600Y-93980000D02*
X97891600Y-84785200D01*
X142671800Y-49250600D02*
X142671800Y-57658000D01*
X119811800Y-63083600D02*
X119811800Y-49479200D01*
X100330000Y-85293200D02*
X98399600Y-85293200D01*
X98435000Y-68189000D02*
X97891600Y-68732400D01*
X97891600Y-68732400D02*
X97891600Y-49276000D01*
X142671800Y-75006200D02*
X142671800Y-93980000D01*
X134112000Y-94005400D02*
X117043200Y-94005400D01*
X111465600Y-63104000D02*
X128569800Y-63104000D01*
X97891600Y-84785200D02*
X97891600Y-68732400D01*
X100330000Y-68189000D02*
X98435000Y-68189000D01*
X119811800Y-49479200D02*
X120040400Y-49250600D01*
X97917000Y-94005400D02*
X97891600Y-93980000D01*
X142646400Y-49250600D02*
X142671800Y-49276000D01*
X106476800Y-49428400D02*
X106654600Y-49250600D01*
X140106400Y-57632600D02*
X142316200Y-57632600D01*
X123581000Y-49342200D02*
X123672600Y-49250600D01*
X142671800Y-93980000D02*
X142646400Y-94005400D01*
X123672600Y-49250600D02*
X142646400Y-49250600D01*
X120040400Y-49250600D02*
X123672600Y-49250600D01*
X123581000Y-51485800D02*
X123581000Y-49342200D01*
X142402400Y-74736800D02*
X142671800Y-75006200D01*
X116550600Y-93512800D02*
X117043200Y-94005400D01*
X142646400Y-94005400D02*
X134112000Y-94005400D01*
X133654800Y-91389200D02*
X133654800Y-93548200D01*
X98399600Y-85293200D02*
X97891600Y-84785200D01*
X140106400Y-74736800D02*
X142402400Y-74736800D01*
X116550600Y-91389200D02*
X116550600Y-93512800D01*
X97891600Y-49250600D02*
X106654600Y-49250600D01*
X117043200Y-94005400D02*
X97917000Y-94005400D01*
X133654800Y-93548200D02*
X134112000Y-94005400D01*
X106476800Y-51485800D02*
X106476800Y-49428400D01*
%TO.N,/SDA*%
X107142200Y-80208200D02*
X106476800Y-80873600D01*
X133553200Y-57632600D02*
X133746400Y-57825800D01*
X133553200Y-57632600D02*
X123545600Y-57632600D01*
X123545600Y-54061200D02*
X123581000Y-54025800D01*
X106476800Y-80873600D02*
X106476800Y-85242400D01*
X123545600Y-57632600D02*
X123545600Y-54061200D01*
X128569800Y-80208200D02*
X133126400Y-80208200D01*
X102870000Y-85293200D02*
X106426000Y-85293200D01*
X116560600Y-88839200D02*
X116550600Y-88849200D01*
X133654800Y-88849200D02*
X133654800Y-79679800D01*
X106476800Y-54025800D02*
X106476800Y-68275200D01*
X133746400Y-57825800D02*
X133746400Y-67173000D01*
X111465600Y-80208200D02*
X128569800Y-80208200D01*
X106476800Y-85242400D02*
X106426000Y-85293200D01*
X106476800Y-68275200D02*
X102956200Y-68275200D01*
X133126400Y-80208200D02*
X133654800Y-79679800D01*
X133746400Y-74736800D02*
X137566400Y-74736800D01*
X116560600Y-85369400D02*
X116560600Y-88839200D01*
X111465600Y-80208200D02*
X107142200Y-80208200D01*
X133746400Y-67173000D02*
X133756400Y-67183000D01*
X106451400Y-67183000D02*
X133680200Y-67183000D01*
X133654800Y-79679800D02*
X133654800Y-74879200D01*
X106426000Y-85293200D02*
X116535200Y-85293200D01*
X102956200Y-68275200D02*
X102870000Y-68189000D01*
X137566400Y-57632600D02*
X133553200Y-57632600D01*
X106476800Y-68275200D02*
X106476800Y-80873600D01*
%TO.N,/GND*%
X111465600Y-71661100D02*
X128569800Y-71661100D01*
%TD*%
%TA.AperFunction,Conductor*%
%TO.N,/GND*%
G36*
X153403995Y-38569205D02*
G01*
X153440900Y-38658300D01*
X153440900Y-104648500D01*
X153403995Y-104737595D01*
X153314900Y-104774500D01*
X87273900Y-104774500D01*
X87184805Y-104737595D01*
X87147900Y-104648500D01*
X87147900Y-101639470D01*
X90169923Y-101639470D01*
X90177265Y-101657194D01*
X90183777Y-101663706D01*
X90192185Y-101670762D01*
X90664478Y-102001465D01*
X90673973Y-102006948D01*
X91196527Y-102250618D01*
X91206819Y-102254364D01*
X91763747Y-102403593D01*
X91774542Y-102405496D01*
X92348925Y-102455748D01*
X92359875Y-102455748D01*
X92934258Y-102405496D01*
X92945053Y-102403593D01*
X93501981Y-102254364D01*
X93512273Y-102250618D01*
X94034827Y-102006948D01*
X94044322Y-102001465D01*
X94516620Y-101670758D01*
X94525016Y-101663713D01*
X94531538Y-101657192D01*
X94538878Y-101639471D01*
X94538878Y-101639470D01*
X146634123Y-101639470D01*
X146641465Y-101657194D01*
X146647977Y-101663706D01*
X146656385Y-101670762D01*
X147128678Y-102001465D01*
X147138173Y-102006948D01*
X147660727Y-102250618D01*
X147671019Y-102254364D01*
X148227947Y-102403593D01*
X148238742Y-102405496D01*
X148813125Y-102455748D01*
X148824075Y-102455748D01*
X149398458Y-102405496D01*
X149409253Y-102403593D01*
X149966181Y-102254364D01*
X149976473Y-102250618D01*
X150499027Y-102006948D01*
X150508522Y-102001465D01*
X150980820Y-101670758D01*
X150989216Y-101663713D01*
X150995738Y-101657192D01*
X151003078Y-101639471D01*
X150995736Y-101621746D01*
X148836324Y-99462334D01*
X148818600Y-99454992D01*
X148800876Y-99462334D01*
X146641465Y-101621746D01*
X146634123Y-101639470D01*
X94538878Y-101639470D01*
X94531536Y-101621746D01*
X92372124Y-99462334D01*
X92354400Y-99454992D01*
X92336676Y-99462334D01*
X90177265Y-101621746D01*
X90169923Y-101639470D01*
X87147900Y-101639470D01*
X87147900Y-99090875D01*
X88984052Y-99090875D01*
X89034304Y-99665258D01*
X89036207Y-99676053D01*
X89185436Y-100232981D01*
X89189182Y-100243273D01*
X89432852Y-100765826D01*
X89438335Y-100775322D01*
X89769038Y-101247615D01*
X89776094Y-101256023D01*
X89782607Y-101262536D01*
X89800331Y-101269878D01*
X89818055Y-101262536D01*
X91977466Y-99103124D01*
X91984808Y-99085400D01*
X92723992Y-99085400D01*
X92731334Y-99103124D01*
X94890746Y-101262536D01*
X94908471Y-101269878D01*
X94926191Y-101262538D01*
X94932713Y-101256016D01*
X94939758Y-101247620D01*
X95270465Y-100775322D01*
X95275948Y-100765826D01*
X95519618Y-100243273D01*
X95523364Y-100232981D01*
X95672593Y-99676053D01*
X95674496Y-99665258D01*
X95724748Y-99090875D01*
X145448252Y-99090875D01*
X145498504Y-99665258D01*
X145500407Y-99676053D01*
X145649636Y-100232981D01*
X145653382Y-100243273D01*
X145897052Y-100765826D01*
X145902535Y-100775322D01*
X146233238Y-101247615D01*
X146240294Y-101256023D01*
X146246807Y-101262536D01*
X146264531Y-101269878D01*
X146282255Y-101262536D01*
X148441666Y-99103124D01*
X148449008Y-99085400D01*
X149188192Y-99085400D01*
X149195534Y-99103124D01*
X151354946Y-101262536D01*
X151372671Y-101269878D01*
X151390391Y-101262538D01*
X151396913Y-101256016D01*
X151403958Y-101247620D01*
X151734665Y-100775322D01*
X151740148Y-100765826D01*
X151983818Y-100243273D01*
X151987564Y-100232981D01*
X152136793Y-99676053D01*
X152138696Y-99665258D01*
X152188948Y-99090875D01*
X152188948Y-99079925D01*
X152138696Y-98505542D01*
X152136793Y-98494747D01*
X151987564Y-97937819D01*
X151983818Y-97927527D01*
X151740148Y-97404974D01*
X151734665Y-97395478D01*
X151403962Y-96923185D01*
X151396906Y-96914777D01*
X151390394Y-96908265D01*
X151372670Y-96900923D01*
X151354946Y-96908265D01*
X149195534Y-99067676D01*
X149188192Y-99085400D01*
X148449008Y-99085400D01*
X148441666Y-99067676D01*
X146282255Y-96908265D01*
X146264529Y-96900922D01*
X146246809Y-96908262D01*
X146240287Y-96914784D01*
X146233242Y-96923180D01*
X145902535Y-97395478D01*
X145897052Y-97404974D01*
X145653382Y-97927527D01*
X145649636Y-97937819D01*
X145500407Y-98494747D01*
X145498504Y-98505542D01*
X145448252Y-99079925D01*
X145448252Y-99090875D01*
X95724748Y-99090875D01*
X95724748Y-99079925D01*
X95674496Y-98505542D01*
X95672593Y-98494747D01*
X95523364Y-97937819D01*
X95519618Y-97927527D01*
X95275948Y-97404974D01*
X95270465Y-97395478D01*
X94939762Y-96923185D01*
X94932706Y-96914777D01*
X94926194Y-96908265D01*
X94908470Y-96900923D01*
X94890746Y-96908265D01*
X92731334Y-99067676D01*
X92723992Y-99085400D01*
X91984808Y-99085400D01*
X91977466Y-99067676D01*
X89818055Y-96908265D01*
X89800329Y-96900922D01*
X89782609Y-96908262D01*
X89776087Y-96914784D01*
X89769042Y-96923180D01*
X89438335Y-97395478D01*
X89432852Y-97404974D01*
X89189182Y-97927527D01*
X89185436Y-97937819D01*
X89036207Y-98494747D01*
X89034304Y-98505542D01*
X88984052Y-99079925D01*
X88984052Y-99090875D01*
X87147900Y-99090875D01*
X87147900Y-96531331D01*
X90169922Y-96531331D01*
X90177264Y-96549054D01*
X92336676Y-98708466D01*
X92354400Y-98715808D01*
X92372124Y-98708466D01*
X94531536Y-96549055D01*
X94538878Y-96531331D01*
X146634122Y-96531331D01*
X146641464Y-96549054D01*
X148800876Y-98708466D01*
X148818600Y-98715808D01*
X148836324Y-98708466D01*
X150995736Y-96549055D01*
X151003078Y-96531331D01*
X150995736Y-96513607D01*
X150989223Y-96507094D01*
X150980815Y-96500038D01*
X150508522Y-96169335D01*
X150499027Y-96163852D01*
X149976473Y-95920182D01*
X149966181Y-95916436D01*
X149409253Y-95767207D01*
X149398458Y-95765304D01*
X148824075Y-95715052D01*
X148813125Y-95715052D01*
X148238742Y-95765304D01*
X148227947Y-95767207D01*
X147671019Y-95916436D01*
X147660727Y-95920182D01*
X147138174Y-96163852D01*
X147128678Y-96169335D01*
X146656380Y-96500042D01*
X146647984Y-96507087D01*
X146641463Y-96513608D01*
X146634122Y-96531331D01*
X94538878Y-96531331D01*
X94531536Y-96513607D01*
X94525023Y-96507094D01*
X94516615Y-96500038D01*
X94044322Y-96169335D01*
X94034827Y-96163852D01*
X93512273Y-95920182D01*
X93501981Y-95916436D01*
X92945053Y-95767207D01*
X92934258Y-95765304D01*
X92359875Y-95715052D01*
X92348925Y-95715052D01*
X91774542Y-95765304D01*
X91763747Y-95767207D01*
X91206819Y-95916436D01*
X91196527Y-95920182D01*
X90673974Y-96163852D01*
X90664478Y-96169335D01*
X90192180Y-96500042D01*
X90183784Y-96507087D01*
X90177263Y-96513608D01*
X90169922Y-96531331D01*
X87147900Y-96531331D01*
X87147900Y-94016324D01*
X96735755Y-94016324D01*
X96737447Y-94025588D01*
X96737447Y-94025589D01*
X96763058Y-94165822D01*
X96763708Y-94169726D01*
X96767762Y-94196691D01*
X96786306Y-94320033D01*
X96790384Y-94328527D01*
X96792980Y-94336964D01*
X96795839Y-94345316D01*
X96797532Y-94354583D01*
X96801874Y-94362941D01*
X96801874Y-94362942D01*
X96867599Y-94489468D01*
X96869368Y-94493009D01*
X96931074Y-94621513D01*
X96931076Y-94621516D01*
X96935151Y-94630002D01*
X96941542Y-94636915D01*
X96946840Y-94644711D01*
X96946082Y-94645226D01*
X96947961Y-94647901D01*
X96948714Y-94647394D01*
X96952733Y-94653358D01*
X96956040Y-94659725D01*
X96966974Y-94672528D01*
X96968720Y-94674274D01*
X96968732Y-94674287D01*
X97055104Y-94760659D01*
X97064959Y-94771748D01*
X97125379Y-94848391D01*
X97133127Y-94853746D01*
X97133128Y-94853747D01*
X97146194Y-94862778D01*
X97154550Y-94870028D01*
X97154815Y-94869697D01*
X97162165Y-94875585D01*
X97168559Y-94882502D01*
X97176705Y-94887234D01*
X97176707Y-94887235D01*
X97202968Y-94902488D01*
X97211316Y-94907786D01*
X97250440Y-94934826D01*
X97253619Y-94937099D01*
X97375879Y-95027401D01*
X97384766Y-95030522D01*
X97392568Y-95034653D01*
X97400499Y-95038539D01*
X97408247Y-95043893D01*
X97417224Y-95046732D01*
X97417226Y-95046733D01*
X97473367Y-95064488D01*
X97553176Y-95089728D01*
X97556862Y-95090957D01*
X97700309Y-95141332D01*
X97709723Y-95141702D01*
X97718973Y-95143466D01*
X97718801Y-95144369D01*
X97722028Y-95144932D01*
X97722202Y-95144040D01*
X97729251Y-95145414D01*
X97736097Y-95147579D01*
X97743251Y-95148142D01*
X97750425Y-95148707D01*
X97750434Y-95148707D01*
X97752882Y-95148900D01*
X97890444Y-95148900D01*
X97895391Y-95148997D01*
X98043898Y-95154832D01*
X98053000Y-95152419D01*
X98062364Y-95151385D01*
X98062382Y-95151547D01*
X98082692Y-95148900D01*
X117016619Y-95148900D01*
X117021566Y-95148997D01*
X117170098Y-95154833D01*
X117179206Y-95152418D01*
X117188562Y-95151385D01*
X117188580Y-95151548D01*
X117208893Y-95148900D01*
X134085444Y-95148900D01*
X134090391Y-95148997D01*
X134238898Y-95154832D01*
X134248006Y-95152417D01*
X134257362Y-95151384D01*
X134257380Y-95151547D01*
X134277689Y-95148900D01*
X142570988Y-95148900D01*
X142585798Y-95149773D01*
X142682724Y-95161245D01*
X142691988Y-95159553D01*
X142691989Y-95159553D01*
X142832222Y-95133942D01*
X142836126Y-95133292D01*
X142894763Y-95124476D01*
X142986433Y-95110694D01*
X142994927Y-95106616D01*
X143003364Y-95104020D01*
X143011716Y-95101161D01*
X143020983Y-95099468D01*
X143155869Y-95029401D01*
X143159409Y-95027632D01*
X143287913Y-94965926D01*
X143287916Y-94965924D01*
X143296402Y-94961849D01*
X143303315Y-94955458D01*
X143311111Y-94950160D01*
X143311626Y-94950918D01*
X143314301Y-94949039D01*
X143313794Y-94948286D01*
X143319758Y-94944267D01*
X143326125Y-94940960D01*
X143338928Y-94930026D01*
X143340674Y-94928280D01*
X143340687Y-94928268D01*
X143427059Y-94841896D01*
X143438148Y-94832041D01*
X143443330Y-94827956D01*
X143514791Y-94771621D01*
X143520147Y-94763872D01*
X143529178Y-94750806D01*
X143536428Y-94742450D01*
X143536097Y-94742185D01*
X143541985Y-94734835D01*
X143548902Y-94728441D01*
X143568888Y-94694032D01*
X143574191Y-94685675D01*
X143584577Y-94670649D01*
X143601226Y-94646560D01*
X143603513Y-94643361D01*
X143613381Y-94630002D01*
X143693801Y-94521121D01*
X143696922Y-94512234D01*
X143701053Y-94504432D01*
X143704939Y-94496501D01*
X143710293Y-94488753D01*
X143756128Y-94343824D01*
X143757357Y-94340138D01*
X143807732Y-94196691D01*
X143808102Y-94187277D01*
X143809866Y-94178027D01*
X143810769Y-94178199D01*
X143811332Y-94174972D01*
X143810440Y-94174798D01*
X143811814Y-94167749D01*
X143813979Y-94160903D01*
X143815300Y-94144118D01*
X143815300Y-94006556D01*
X143815397Y-94001609D01*
X143820862Y-93862511D01*
X143821232Y-93853102D01*
X143818819Y-93844000D01*
X143817785Y-93834636D01*
X143817947Y-93834618D01*
X143815300Y-93814308D01*
X143815300Y-75081612D01*
X143816173Y-75066802D01*
X143826538Y-74979228D01*
X143827645Y-74969876D01*
X143800342Y-74820378D01*
X143799692Y-74816474D01*
X143784448Y-74715082D01*
X143777094Y-74666167D01*
X143773016Y-74657673D01*
X143770420Y-74649236D01*
X143767561Y-74640884D01*
X143765868Y-74631617D01*
X143695801Y-74496731D01*
X143694032Y-74493191D01*
X143632326Y-74364687D01*
X143632324Y-74364684D01*
X143628249Y-74356198D01*
X143621858Y-74349285D01*
X143616560Y-74341489D01*
X143617318Y-74340974D01*
X143615441Y-74338303D01*
X143614688Y-74338810D01*
X143610670Y-74332848D01*
X143607360Y-74326475D01*
X143602695Y-74321014D01*
X143602693Y-74321010D01*
X143598033Y-74315555D01*
X143596425Y-74313672D01*
X143499179Y-74216426D01*
X143495749Y-74212860D01*
X143464021Y-74178537D01*
X143394841Y-74103698D01*
X143386698Y-74098968D01*
X143379347Y-74093079D01*
X143379449Y-74092952D01*
X143363212Y-74080459D01*
X143264305Y-73981552D01*
X143254450Y-73970463D01*
X143239909Y-73952018D01*
X143194021Y-73893809D01*
X143186274Y-73888455D01*
X143186270Y-73888451D01*
X143068974Y-73807382D01*
X143065780Y-73805101D01*
X142943521Y-73714799D01*
X142934634Y-73711678D01*
X142926832Y-73707547D01*
X142918901Y-73703661D01*
X142911153Y-73698307D01*
X142902176Y-73695468D01*
X142902174Y-73695467D01*
X142846033Y-73677712D01*
X142766224Y-73652472D01*
X142762538Y-73651243D01*
X142619091Y-73600868D01*
X142609677Y-73600498D01*
X142600427Y-73598734D01*
X142600599Y-73597831D01*
X142597372Y-73597268D01*
X142597198Y-73598160D01*
X142590149Y-73596786D01*
X142583303Y-73594621D01*
X142575400Y-73593999D01*
X142568975Y-73593493D01*
X142568966Y-73593493D01*
X142566518Y-73593300D01*
X142428956Y-73593300D01*
X142424009Y-73593203D01*
X142275502Y-73587368D01*
X142266400Y-73589781D01*
X142257036Y-73590815D01*
X142257018Y-73590653D01*
X142236708Y-73593300D01*
X140890512Y-73593300D01*
X140813810Y-73567264D01*
X140791511Y-73550153D01*
X140461040Y-73413267D01*
X140106400Y-73366578D01*
X139751760Y-73413267D01*
X139421289Y-73550153D01*
X139137507Y-73767907D01*
X138942610Y-74021902D01*
X138936362Y-74030044D01*
X138852846Y-74078262D01*
X138759696Y-74053302D01*
X138736438Y-74030044D01*
X138730191Y-74021902D01*
X138535293Y-73767907D01*
X138251511Y-73550153D01*
X137921040Y-73413267D01*
X137566400Y-73366578D01*
X137211760Y-73413267D01*
X136881289Y-73550153D01*
X136858990Y-73567264D01*
X136782288Y-73593300D01*
X133660490Y-73593300D01*
X133655843Y-73593999D01*
X133655838Y-73593999D01*
X133415678Y-73630106D01*
X133415677Y-73630106D01*
X133406367Y-73631506D01*
X133194640Y-73733176D01*
X133105653Y-73775907D01*
X133096398Y-73780351D01*
X133089484Y-73786743D01*
X133089483Y-73786743D01*
X133051356Y-73821987D01*
X132843898Y-74013759D01*
X132839169Y-74021901D01*
X132839168Y-74021902D01*
X132746694Y-74181109D01*
X132741393Y-74189463D01*
X132616307Y-74370447D01*
X132512621Y-74698297D01*
X132511300Y-74715082D01*
X132511300Y-78938700D01*
X132474395Y-79027795D01*
X132385300Y-79064700D01*
X129902605Y-79064700D01*
X129813510Y-79027795D01*
X129797844Y-79008708D01*
X129786408Y-78991592D01*
X129745561Y-78964299D01*
X129628524Y-78886097D01*
X129628522Y-78886096D01*
X129618207Y-78879204D01*
X129469882Y-78849700D01*
X127669718Y-78849700D01*
X127521393Y-78879204D01*
X127511078Y-78886096D01*
X127511076Y-78886097D01*
X127394039Y-78964299D01*
X127353192Y-78991592D01*
X127341760Y-79008701D01*
X127261579Y-79062278D01*
X127236995Y-79064700D01*
X121158236Y-79064700D01*
X121069141Y-79027795D01*
X121053474Y-79008706D01*
X121028408Y-78971192D01*
X120961902Y-78926754D01*
X120870524Y-78865697D01*
X120870522Y-78865696D01*
X120860207Y-78858804D01*
X120711882Y-78829300D01*
X118911718Y-78829300D01*
X118763393Y-78858804D01*
X118753078Y-78865696D01*
X118753076Y-78865697D01*
X118661698Y-78926754D01*
X118595192Y-78971192D01*
X118570129Y-79008702D01*
X118489946Y-79062279D01*
X118465364Y-79064700D01*
X112798405Y-79064700D01*
X112709310Y-79027795D01*
X112693644Y-79008708D01*
X112682208Y-78991592D01*
X112641361Y-78964299D01*
X112524324Y-78886097D01*
X112524322Y-78886096D01*
X112514007Y-78879204D01*
X112365682Y-78849700D01*
X110565518Y-78849700D01*
X110417193Y-78879204D01*
X110406878Y-78886096D01*
X110406876Y-78886097D01*
X110289839Y-78964299D01*
X110248992Y-78991592D01*
X110237560Y-79008701D01*
X110157379Y-79062278D01*
X110132795Y-79064700D01*
X107746300Y-79064700D01*
X107657205Y-79027795D01*
X107620300Y-78938700D01*
X107620300Y-72554945D01*
X110107600Y-72554945D01*
X110108807Y-72567199D01*
X110134655Y-72697144D01*
X110143968Y-72719629D01*
X110242460Y-72867031D01*
X110259669Y-72884240D01*
X110407071Y-72982732D01*
X110429556Y-72992045D01*
X110559501Y-73017893D01*
X110571755Y-73019100D01*
X111186535Y-73019100D01*
X111204259Y-73011759D01*
X111211600Y-72994035D01*
X111719600Y-72994035D01*
X111726941Y-73011759D01*
X111744665Y-73019100D01*
X112359445Y-73019100D01*
X112371699Y-73017893D01*
X112501644Y-72992045D01*
X112524129Y-72982732D01*
X112671531Y-72884240D01*
X112688740Y-72867031D01*
X112787232Y-72719629D01*
X112796545Y-72697144D01*
X112822393Y-72567199D01*
X112823600Y-72554945D01*
X112823600Y-72534545D01*
X118453800Y-72534545D01*
X118455007Y-72546799D01*
X118480855Y-72676744D01*
X118490168Y-72699229D01*
X118588660Y-72846631D01*
X118605869Y-72863840D01*
X118753271Y-72962332D01*
X118775756Y-72971645D01*
X118905701Y-72997493D01*
X118917955Y-72998700D01*
X119532735Y-72998700D01*
X119550459Y-72991359D01*
X119557800Y-72973635D01*
X120065800Y-72973635D01*
X120073141Y-72991359D01*
X120090865Y-72998700D01*
X120705645Y-72998700D01*
X120717899Y-72997493D01*
X120847844Y-72971645D01*
X120870329Y-72962332D01*
X121017731Y-72863840D01*
X121034940Y-72846631D01*
X121133432Y-72699229D01*
X121142745Y-72676744D01*
X121166973Y-72554945D01*
X127211800Y-72554945D01*
X127213007Y-72567199D01*
X127238855Y-72697144D01*
X127248168Y-72719629D01*
X127346660Y-72867031D01*
X127363869Y-72884240D01*
X127511271Y-72982732D01*
X127533756Y-72992045D01*
X127663701Y-73017893D01*
X127675955Y-73019100D01*
X128290735Y-73019100D01*
X128308459Y-73011759D01*
X128315800Y-72994035D01*
X128823800Y-72994035D01*
X128831141Y-73011759D01*
X128848865Y-73019100D01*
X129463645Y-73019100D01*
X129475899Y-73017893D01*
X129605844Y-72992045D01*
X129628329Y-72982732D01*
X129775731Y-72884240D01*
X129792940Y-72867031D01*
X129891432Y-72719629D01*
X129900745Y-72697144D01*
X129926593Y-72567199D01*
X129927800Y-72554945D01*
X129927800Y-71940165D01*
X129920459Y-71922441D01*
X129902735Y-71915100D01*
X128848865Y-71915100D01*
X128831141Y-71922441D01*
X128823800Y-71940165D01*
X128823800Y-72994035D01*
X128315800Y-72994035D01*
X128315800Y-71940165D01*
X128308459Y-71922441D01*
X128290735Y-71915100D01*
X127236865Y-71915100D01*
X127219141Y-71922441D01*
X127211800Y-71940165D01*
X127211800Y-72554945D01*
X121166973Y-72554945D01*
X121168593Y-72546799D01*
X121169800Y-72534545D01*
X121169800Y-71919765D01*
X121162459Y-71902041D01*
X121144735Y-71894700D01*
X120090865Y-71894700D01*
X120073141Y-71902041D01*
X120065800Y-71919765D01*
X120065800Y-72973635D01*
X119557800Y-72973635D01*
X119557800Y-71919765D01*
X119550459Y-71902041D01*
X119532735Y-71894700D01*
X118478865Y-71894700D01*
X118461141Y-71902041D01*
X118453800Y-71919765D01*
X118453800Y-72534545D01*
X112823600Y-72534545D01*
X112823600Y-71940165D01*
X112816259Y-71922441D01*
X112798535Y-71915100D01*
X111744665Y-71915100D01*
X111726941Y-71922441D01*
X111719600Y-71940165D01*
X111719600Y-72994035D01*
X111211600Y-72994035D01*
X111211600Y-71940165D01*
X111204259Y-71922441D01*
X111186535Y-71915100D01*
X110132665Y-71915100D01*
X110114941Y-71922441D01*
X110107600Y-71940165D01*
X110107600Y-72554945D01*
X107620300Y-72554945D01*
X107620300Y-71382035D01*
X110107600Y-71382035D01*
X110114941Y-71399759D01*
X110132665Y-71407100D01*
X111186535Y-71407100D01*
X111204259Y-71399759D01*
X111211600Y-71382035D01*
X111719600Y-71382035D01*
X111726941Y-71399759D01*
X111744665Y-71407100D01*
X112798535Y-71407100D01*
X112816259Y-71399759D01*
X112823600Y-71382035D01*
X112823600Y-71361635D01*
X118453800Y-71361635D01*
X118461141Y-71379359D01*
X118478865Y-71386700D01*
X119532735Y-71386700D01*
X119550459Y-71379359D01*
X119557800Y-71361635D01*
X120065800Y-71361635D01*
X120073141Y-71379359D01*
X120090865Y-71386700D01*
X121144735Y-71386700D01*
X121155998Y-71382035D01*
X127211800Y-71382035D01*
X127219141Y-71399759D01*
X127236865Y-71407100D01*
X128290735Y-71407100D01*
X128308459Y-71399759D01*
X128315800Y-71382035D01*
X128823800Y-71382035D01*
X128831141Y-71399759D01*
X128848865Y-71407100D01*
X129902735Y-71407100D01*
X129920459Y-71399759D01*
X129927800Y-71382035D01*
X129927800Y-70767255D01*
X129926593Y-70755001D01*
X129900745Y-70625056D01*
X129891432Y-70602571D01*
X129792940Y-70455169D01*
X129775731Y-70437960D01*
X129628329Y-70339468D01*
X129605844Y-70330155D01*
X129475899Y-70304307D01*
X129463645Y-70303100D01*
X128848865Y-70303100D01*
X128831141Y-70310441D01*
X128823800Y-70328165D01*
X128823800Y-71382035D01*
X128315800Y-71382035D01*
X128315800Y-70328165D01*
X128308459Y-70310441D01*
X128290735Y-70303100D01*
X127675955Y-70303100D01*
X127663701Y-70304307D01*
X127533756Y-70330155D01*
X127511271Y-70339468D01*
X127363869Y-70437960D01*
X127346660Y-70455169D01*
X127248168Y-70602571D01*
X127238855Y-70625056D01*
X127213007Y-70755001D01*
X127211800Y-70767255D01*
X127211800Y-71382035D01*
X121155998Y-71382035D01*
X121162459Y-71379359D01*
X121169800Y-71361635D01*
X121169800Y-70746855D01*
X121168593Y-70734601D01*
X121142745Y-70604656D01*
X121133432Y-70582171D01*
X121034940Y-70434769D01*
X121017731Y-70417560D01*
X120870329Y-70319068D01*
X120847844Y-70309755D01*
X120717899Y-70283907D01*
X120705645Y-70282700D01*
X120090865Y-70282700D01*
X120073141Y-70290041D01*
X120065800Y-70307765D01*
X120065800Y-71361635D01*
X119557800Y-71361635D01*
X119557800Y-70307765D01*
X119550459Y-70290041D01*
X119532735Y-70282700D01*
X118917955Y-70282700D01*
X118905701Y-70283907D01*
X118775756Y-70309755D01*
X118753271Y-70319068D01*
X118605869Y-70417560D01*
X118588660Y-70434769D01*
X118490168Y-70582171D01*
X118480855Y-70604656D01*
X118455007Y-70734601D01*
X118453800Y-70746855D01*
X118453800Y-71361635D01*
X112823600Y-71361635D01*
X112823600Y-70767255D01*
X112822393Y-70755001D01*
X112796545Y-70625056D01*
X112787232Y-70602571D01*
X112688740Y-70455169D01*
X112671531Y-70437960D01*
X112524129Y-70339468D01*
X112501644Y-70330155D01*
X112371699Y-70304307D01*
X112359445Y-70303100D01*
X111744665Y-70303100D01*
X111726941Y-70310441D01*
X111719600Y-70328165D01*
X111719600Y-71382035D01*
X111211600Y-71382035D01*
X111211600Y-70328165D01*
X111204259Y-70310441D01*
X111186535Y-70303100D01*
X110571755Y-70303100D01*
X110559501Y-70304307D01*
X110429556Y-70330155D01*
X110407071Y-70339468D01*
X110259669Y-70437960D01*
X110242460Y-70455169D01*
X110143968Y-70602571D01*
X110134655Y-70625056D01*
X110108807Y-70755001D01*
X110107600Y-70767255D01*
X110107600Y-71382035D01*
X107620300Y-71382035D01*
X107620300Y-68452500D01*
X107657205Y-68363405D01*
X107746300Y-68326500D01*
X133729844Y-68326500D01*
X133734791Y-68326597D01*
X133883298Y-68332432D01*
X134215668Y-68244306D01*
X134502181Y-68065620D01*
X136232626Y-68065620D01*
X136242276Y-68138921D01*
X136246514Y-68154739D01*
X136377029Y-68469829D01*
X136385218Y-68484012D01*
X136592837Y-68754587D01*
X136604413Y-68766163D01*
X136874988Y-68973782D01*
X136889171Y-68981971D01*
X137204261Y-69112486D01*
X137220079Y-69116724D01*
X137287552Y-69125607D01*
X137306080Y-69120642D01*
X137312400Y-69109696D01*
X137312400Y-68071665D01*
X137305059Y-68053941D01*
X137287335Y-68046600D01*
X136255187Y-68046600D01*
X136237463Y-68053941D01*
X136232626Y-68065620D01*
X134502181Y-68065620D01*
X134507432Y-68062345D01*
X134732794Y-67802639D01*
X134871829Y-67488147D01*
X134876785Y-67446279D01*
X134887119Y-67358961D01*
X134887256Y-67358088D01*
X134888579Y-67353903D01*
X134889900Y-67337118D01*
X134889949Y-67337122D01*
X134890433Y-67330960D01*
X134902779Y-67226657D01*
X134912245Y-67146676D01*
X134891950Y-67035551D01*
X134889900Y-67012914D01*
X134889900Y-58902100D01*
X134926805Y-58813005D01*
X135015900Y-58776100D01*
X136782288Y-58776100D01*
X136858962Y-58802115D01*
X136859616Y-58802617D01*
X136907857Y-58886118D01*
X136882925Y-58979275D01*
X136859645Y-59002561D01*
X136597507Y-59203707D01*
X136379753Y-59487489D01*
X136242867Y-59817960D01*
X136196178Y-60172600D01*
X136242867Y-60527240D01*
X136379753Y-60857711D01*
X136597507Y-61141493D01*
X136752814Y-61260664D01*
X136859644Y-61342638D01*
X136907862Y-61426154D01*
X136882902Y-61519304D01*
X136859645Y-61542561D01*
X136597507Y-61743707D01*
X136379753Y-62027489D01*
X136242867Y-62357960D01*
X136196178Y-62712600D01*
X136242867Y-63067240D01*
X136379753Y-63397711D01*
X136597507Y-63681493D01*
X136752814Y-63800664D01*
X136859644Y-63882638D01*
X136907862Y-63966154D01*
X136882902Y-64059304D01*
X136859645Y-64082561D01*
X136597507Y-64283707D01*
X136379753Y-64567489D01*
X136242867Y-64897960D01*
X136196178Y-65252600D01*
X136242867Y-65607240D01*
X136379753Y-65937711D01*
X136597507Y-66221493D01*
X136604057Y-66226519D01*
X136860054Y-66422953D01*
X136908272Y-66506469D01*
X136883312Y-66599619D01*
X136860054Y-66622878D01*
X136604409Y-66819041D01*
X136592837Y-66830613D01*
X136385218Y-67101188D01*
X136377029Y-67115371D01*
X136246514Y-67430461D01*
X136242276Y-67446279D01*
X136233393Y-67513752D01*
X136238358Y-67532280D01*
X136249304Y-67538600D01*
X137694400Y-67538600D01*
X137783495Y-67575505D01*
X137820400Y-67664600D01*
X137820400Y-69103813D01*
X137827741Y-69121537D01*
X137839420Y-69126374D01*
X137912721Y-69116724D01*
X137928539Y-69112486D01*
X138243629Y-68981971D01*
X138257812Y-68973782D01*
X138528384Y-68766165D01*
X138539968Y-68754581D01*
X138545584Y-68747263D01*
X138629100Y-68699045D01*
X138722250Y-68724005D01*
X138769125Y-68799386D01*
X138777404Y-68841007D01*
X138784296Y-68851322D01*
X138784297Y-68851324D01*
X138866121Y-68973782D01*
X138889792Y-69009208D01*
X138900108Y-69016101D01*
X139047676Y-69114703D01*
X139047678Y-69114704D01*
X139057993Y-69121596D01*
X139206318Y-69151100D01*
X141006482Y-69151100D01*
X141154807Y-69121596D01*
X141165122Y-69114704D01*
X141165124Y-69114703D01*
X141312692Y-69016101D01*
X141323008Y-69009208D01*
X141346679Y-68973782D01*
X141428503Y-68851324D01*
X141428504Y-68851322D01*
X141435396Y-68841007D01*
X141464900Y-68692682D01*
X141464900Y-66892518D01*
X141435396Y-66744193D01*
X141428504Y-66733878D01*
X141428503Y-66733876D01*
X141329901Y-66586308D01*
X141323008Y-66575992D01*
X141268186Y-66539361D01*
X141165124Y-66470497D01*
X141165122Y-66470496D01*
X141154807Y-66463604D01*
X141142640Y-66461184D01*
X141142638Y-66461183D01*
X141113835Y-66455454D01*
X141033652Y-66401876D01*
X141014838Y-66307293D01*
X141061712Y-66231914D01*
X141075293Y-66221493D01*
X141293047Y-65937711D01*
X141429933Y-65607240D01*
X141476622Y-65252600D01*
X141429933Y-64897960D01*
X141293047Y-64567489D01*
X141075293Y-64283707D01*
X140813156Y-64082562D01*
X140764938Y-63999046D01*
X140789898Y-63905896D01*
X140813156Y-63882638D01*
X140919987Y-63800664D01*
X141075293Y-63681493D01*
X141293047Y-63397711D01*
X141429933Y-63067240D01*
X141476622Y-62712600D01*
X141429933Y-62357960D01*
X141293047Y-62027489D01*
X141075293Y-61743707D01*
X140813156Y-61542562D01*
X140764938Y-61459046D01*
X140789898Y-61365896D01*
X140813156Y-61342638D01*
X140919987Y-61260664D01*
X141075293Y-61141493D01*
X141293047Y-60857711D01*
X141429933Y-60527240D01*
X141476622Y-60172600D01*
X141429933Y-59817960D01*
X141293047Y-59487489D01*
X141075293Y-59203707D01*
X140813155Y-59002561D01*
X140764938Y-58919046D01*
X140789898Y-58825896D01*
X140813181Y-58802619D01*
X140813838Y-58802115D01*
X140890512Y-58776100D01*
X142402110Y-58776100D01*
X142404766Y-58775701D01*
X142441615Y-58778527D01*
X142581069Y-58810851D01*
X142590465Y-58810186D01*
X142590468Y-58810186D01*
X142799206Y-58795406D01*
X142924064Y-58786566D01*
X143244756Y-58662499D01*
X143514791Y-58449621D01*
X143710293Y-58166753D01*
X143769000Y-57981124D01*
X143811813Y-57845752D01*
X143811813Y-57845751D01*
X143813979Y-57838903D01*
X143815300Y-57822118D01*
X143815300Y-49351412D01*
X143816173Y-49336602D01*
X143826538Y-49249028D01*
X143827645Y-49239676D01*
X143816840Y-49180513D01*
X143815300Y-49168509D01*
X143815300Y-49164690D01*
X143803808Y-49088248D01*
X143778494Y-48919878D01*
X143778494Y-48919877D01*
X143777094Y-48910567D01*
X143628249Y-48600598D01*
X143394841Y-48348098D01*
X143097505Y-48175392D01*
X142923367Y-48135029D01*
X142910071Y-48131166D01*
X142871979Y-48117789D01*
X142871978Y-48117789D01*
X142863091Y-48114668D01*
X142853677Y-48114298D01*
X142844427Y-48112534D01*
X142844599Y-48111631D01*
X142841372Y-48111068D01*
X142841198Y-48111960D01*
X142834149Y-48110586D01*
X142827303Y-48108421D01*
X142810518Y-48107100D01*
X142810534Y-48106894D01*
X142790218Y-48104167D01*
X142762531Y-48097749D01*
X142753136Y-48098414D01*
X142753133Y-48098414D01*
X142672557Y-48104120D01*
X142651662Y-48105599D01*
X142637819Y-48105817D01*
X142519502Y-48101168D01*
X142510400Y-48103581D01*
X142501036Y-48104615D01*
X142501018Y-48104453D01*
X142480708Y-48107100D01*
X123748012Y-48107100D01*
X123733202Y-48106227D01*
X123719582Y-48104615D01*
X123636276Y-48094755D01*
X123627012Y-48096447D01*
X123627011Y-48096447D01*
X123579906Y-48105050D01*
X123557269Y-48107100D01*
X120115812Y-48107100D01*
X120101002Y-48106227D01*
X120087382Y-48104615D01*
X120004076Y-48094755D01*
X119994812Y-48096447D01*
X119994811Y-48096447D01*
X119947706Y-48105050D01*
X119925069Y-48107100D01*
X106730012Y-48107100D01*
X106715202Y-48106227D01*
X106701582Y-48104615D01*
X106618276Y-48094755D01*
X106609012Y-48096447D01*
X106609011Y-48096447D01*
X106561906Y-48105050D01*
X106539269Y-48107100D01*
X97805690Y-48107100D01*
X97801043Y-48107799D01*
X97801038Y-48107799D01*
X97560878Y-48143906D01*
X97560877Y-48143906D01*
X97551567Y-48145306D01*
X97241598Y-48294151D01*
X96989098Y-48527559D01*
X96816392Y-48824895D01*
X96814265Y-48834072D01*
X96766792Y-49038884D01*
X96764181Y-49048426D01*
X96749421Y-49095097D01*
X96748100Y-49111882D01*
X96747894Y-49111866D01*
X96745167Y-49132182D01*
X96738749Y-49159869D01*
X96739414Y-49169265D01*
X96739414Y-49169268D01*
X96747785Y-49287491D01*
X96748100Y-49296390D01*
X96748100Y-68705844D01*
X96748003Y-68710791D01*
X96742168Y-68859298D01*
X96744581Y-68868400D01*
X96745615Y-68877764D01*
X96745453Y-68877782D01*
X96748100Y-68898092D01*
X96748100Y-84709788D01*
X96747227Y-84724598D01*
X96735755Y-84821524D01*
X96737447Y-84830788D01*
X96737447Y-84830789D01*
X96746050Y-84877894D01*
X96748100Y-84900531D01*
X96748100Y-93904588D01*
X96747227Y-93919398D01*
X96735755Y-94016324D01*
X87147900Y-94016324D01*
X87147900Y-45683270D01*
X89915923Y-45683270D01*
X89923265Y-45700994D01*
X89929777Y-45707506D01*
X89938185Y-45714562D01*
X90410478Y-46045265D01*
X90419973Y-46050748D01*
X90942527Y-46294418D01*
X90952819Y-46298164D01*
X91509747Y-46447393D01*
X91520542Y-46449296D01*
X92094925Y-46499548D01*
X92105875Y-46499548D01*
X92680258Y-46449296D01*
X92691053Y-46447393D01*
X93247981Y-46298164D01*
X93258273Y-46294418D01*
X93780827Y-46050748D01*
X93790322Y-46045265D01*
X94262620Y-45714558D01*
X94271016Y-45707513D01*
X94277538Y-45700992D01*
X94284878Y-45683271D01*
X94284878Y-45683270D01*
X146634123Y-45683270D01*
X146641465Y-45700994D01*
X146647977Y-45707506D01*
X146656385Y-45714562D01*
X147128678Y-46045265D01*
X147138173Y-46050748D01*
X147660727Y-46294418D01*
X147671019Y-46298164D01*
X148227947Y-46447393D01*
X148238742Y-46449296D01*
X148813125Y-46499548D01*
X148824075Y-46499548D01*
X149398458Y-46449296D01*
X149409253Y-46447393D01*
X149966181Y-46298164D01*
X149976473Y-46294418D01*
X150499027Y-46050748D01*
X150508522Y-46045265D01*
X150980820Y-45714558D01*
X150989216Y-45707513D01*
X150995738Y-45700992D01*
X151003078Y-45683271D01*
X150995736Y-45665546D01*
X148836324Y-43506134D01*
X148818600Y-43498792D01*
X148800876Y-43506134D01*
X146641465Y-45665546D01*
X146634123Y-45683270D01*
X94284878Y-45683270D01*
X94277536Y-45665546D01*
X92118124Y-43506134D01*
X92100400Y-43498792D01*
X92082676Y-43506134D01*
X89923265Y-45665546D01*
X89915923Y-45683270D01*
X87147900Y-45683270D01*
X87147900Y-43134675D01*
X88730052Y-43134675D01*
X88780304Y-43709058D01*
X88782207Y-43719853D01*
X88931436Y-44276781D01*
X88935182Y-44287073D01*
X89178852Y-44809626D01*
X89184335Y-44819122D01*
X89515038Y-45291415D01*
X89522094Y-45299823D01*
X89528607Y-45306336D01*
X89546331Y-45313678D01*
X89564055Y-45306336D01*
X91723466Y-43146924D01*
X91730808Y-43129200D01*
X92469992Y-43129200D01*
X92477334Y-43146924D01*
X94636746Y-45306336D01*
X94654471Y-45313678D01*
X94672191Y-45306338D01*
X94678713Y-45299816D01*
X94685758Y-45291420D01*
X95016465Y-44819122D01*
X95021948Y-44809626D01*
X95265618Y-44287073D01*
X95269364Y-44276781D01*
X95418593Y-43719853D01*
X95420496Y-43709058D01*
X95470748Y-43134675D01*
X145448252Y-43134675D01*
X145498504Y-43709058D01*
X145500407Y-43719853D01*
X145649636Y-44276781D01*
X145653382Y-44287073D01*
X145897052Y-44809626D01*
X145902535Y-44819122D01*
X146233238Y-45291415D01*
X146240294Y-45299823D01*
X146246807Y-45306336D01*
X146264531Y-45313678D01*
X146282255Y-45306336D01*
X148441666Y-43146924D01*
X148449008Y-43129200D01*
X149188192Y-43129200D01*
X149195534Y-43146924D01*
X151354946Y-45306336D01*
X151372671Y-45313678D01*
X151390391Y-45306338D01*
X151396913Y-45299816D01*
X151403958Y-45291420D01*
X151734665Y-44819122D01*
X151740148Y-44809626D01*
X151983818Y-44287073D01*
X151987564Y-44276781D01*
X152136793Y-43719853D01*
X152138696Y-43709058D01*
X152188948Y-43134675D01*
X152188948Y-43123725D01*
X152138696Y-42549342D01*
X152136793Y-42538547D01*
X151987564Y-41981619D01*
X151983818Y-41971327D01*
X151740148Y-41448774D01*
X151734665Y-41439278D01*
X151403962Y-40966985D01*
X151396906Y-40958577D01*
X151390394Y-40952065D01*
X151372670Y-40944723D01*
X151354946Y-40952065D01*
X149195534Y-43111476D01*
X149188192Y-43129200D01*
X148449008Y-43129200D01*
X148441666Y-43111476D01*
X146282255Y-40952065D01*
X146264529Y-40944722D01*
X146246809Y-40952062D01*
X146240287Y-40958584D01*
X146233242Y-40966980D01*
X145902535Y-41439278D01*
X145897052Y-41448774D01*
X145653382Y-41971327D01*
X145649636Y-41981619D01*
X145500407Y-42538547D01*
X145498504Y-42549342D01*
X145448252Y-43123725D01*
X145448252Y-43134675D01*
X95470748Y-43134675D01*
X95470748Y-43123725D01*
X95420496Y-42549342D01*
X95418593Y-42538547D01*
X95269364Y-41981619D01*
X95265618Y-41971327D01*
X95021948Y-41448774D01*
X95016465Y-41439278D01*
X94685762Y-40966985D01*
X94678706Y-40958577D01*
X94672194Y-40952065D01*
X94654470Y-40944723D01*
X94636746Y-40952065D01*
X92477334Y-43111476D01*
X92469992Y-43129200D01*
X91730808Y-43129200D01*
X91723466Y-43111476D01*
X89564055Y-40952065D01*
X89546329Y-40944722D01*
X89528609Y-40952062D01*
X89522087Y-40958584D01*
X89515042Y-40966980D01*
X89184335Y-41439278D01*
X89178852Y-41448774D01*
X88935182Y-41971327D01*
X88931436Y-41981619D01*
X88782207Y-42538547D01*
X88780304Y-42549342D01*
X88730052Y-43123725D01*
X88730052Y-43134675D01*
X87147900Y-43134675D01*
X87147900Y-40575131D01*
X89915922Y-40575131D01*
X89923264Y-40592854D01*
X92082676Y-42752266D01*
X92100400Y-42759608D01*
X92118124Y-42752266D01*
X94277536Y-40592855D01*
X94284878Y-40575131D01*
X146634122Y-40575131D01*
X146641464Y-40592854D01*
X148800876Y-42752266D01*
X148818600Y-42759608D01*
X148836324Y-42752266D01*
X150995736Y-40592855D01*
X151003078Y-40575131D01*
X150995736Y-40557407D01*
X150989223Y-40550894D01*
X150980815Y-40543838D01*
X150508522Y-40213135D01*
X150499027Y-40207652D01*
X149976473Y-39963982D01*
X149966181Y-39960236D01*
X149409253Y-39811007D01*
X149398458Y-39809104D01*
X148824075Y-39758852D01*
X148813125Y-39758852D01*
X148238742Y-39809104D01*
X148227947Y-39811007D01*
X147671019Y-39960236D01*
X147660727Y-39963982D01*
X147138174Y-40207652D01*
X147128678Y-40213135D01*
X146656380Y-40543842D01*
X146647984Y-40550887D01*
X146641463Y-40557408D01*
X146634122Y-40575131D01*
X94284878Y-40575131D01*
X94277536Y-40557407D01*
X94271023Y-40550894D01*
X94262615Y-40543838D01*
X93790322Y-40213135D01*
X93780827Y-40207652D01*
X93258273Y-39963982D01*
X93247981Y-39960236D01*
X92691053Y-39811007D01*
X92680258Y-39809104D01*
X92105875Y-39758852D01*
X92094925Y-39758852D01*
X91520542Y-39809104D01*
X91509747Y-39811007D01*
X90952819Y-39960236D01*
X90942527Y-39963982D01*
X90419974Y-40207652D01*
X90410478Y-40213135D01*
X89938180Y-40543842D01*
X89929784Y-40550887D01*
X89923263Y-40557408D01*
X89915922Y-40575131D01*
X87147900Y-40575131D01*
X87147900Y-38658300D01*
X87184805Y-38569205D01*
X87273900Y-38532300D01*
X153314900Y-38532300D01*
X153403995Y-38569205D01*
G37*
%TD.AperFunction*%
%TA.AperFunction,Conductor*%
G36*
X110221890Y-81388605D02*
G01*
X110237556Y-81407692D01*
X110248992Y-81424808D01*
X110259308Y-81431701D01*
X110406876Y-81530303D01*
X110406878Y-81530304D01*
X110417193Y-81537196D01*
X110565518Y-81566700D01*
X112365682Y-81566700D01*
X112514007Y-81537196D01*
X112524322Y-81530304D01*
X112524324Y-81530303D01*
X112671892Y-81431701D01*
X112682208Y-81424808D01*
X112693640Y-81407699D01*
X112773821Y-81354122D01*
X112798405Y-81351700D01*
X118493717Y-81351700D01*
X118582812Y-81388605D01*
X118588299Y-81394092D01*
X118595192Y-81404408D01*
X118605508Y-81411301D01*
X118753076Y-81509903D01*
X118753078Y-81509904D01*
X118763393Y-81516796D01*
X118911718Y-81546300D01*
X120711882Y-81546300D01*
X120860207Y-81516796D01*
X120870522Y-81509904D01*
X120870524Y-81509903D01*
X121018092Y-81411301D01*
X121028408Y-81404408D01*
X121035301Y-81394092D01*
X121040788Y-81388605D01*
X121129883Y-81351700D01*
X127236995Y-81351700D01*
X127326090Y-81388605D01*
X127341756Y-81407692D01*
X127353192Y-81424808D01*
X127363508Y-81431701D01*
X127511076Y-81530303D01*
X127511078Y-81530304D01*
X127521393Y-81537196D01*
X127669718Y-81566700D01*
X129469882Y-81566700D01*
X129618207Y-81537196D01*
X129628522Y-81530304D01*
X129628524Y-81530303D01*
X129776092Y-81431701D01*
X129786408Y-81424808D01*
X129797840Y-81407699D01*
X129878021Y-81354122D01*
X129902605Y-81351700D01*
X132385300Y-81351700D01*
X132474395Y-81388605D01*
X132511300Y-81477700D01*
X132511300Y-88065088D01*
X132485285Y-88141762D01*
X132484783Y-88142416D01*
X132401282Y-88190657D01*
X132308125Y-88165725D01*
X132284838Y-88142444D01*
X132284316Y-88141763D01*
X132083693Y-87880307D01*
X131799911Y-87662553D01*
X131469440Y-87525667D01*
X131428393Y-87520263D01*
X131122988Y-87480056D01*
X131114800Y-87478978D01*
X131106612Y-87480056D01*
X130801208Y-87520263D01*
X130760160Y-87525667D01*
X130429689Y-87662553D01*
X130145907Y-87880307D01*
X129945285Y-88141763D01*
X129944762Y-88142444D01*
X129861246Y-88190662D01*
X129768096Y-88165702D01*
X129744838Y-88142444D01*
X129744316Y-88141763D01*
X129543693Y-87880307D01*
X129259911Y-87662553D01*
X128929440Y-87525667D01*
X128888393Y-87520263D01*
X128582988Y-87480056D01*
X128574800Y-87478978D01*
X128566612Y-87480056D01*
X128261208Y-87520263D01*
X128220160Y-87525667D01*
X127889689Y-87662553D01*
X127605907Y-87880307D01*
X127405285Y-88141763D01*
X127404762Y-88142444D01*
X127321246Y-88190662D01*
X127228096Y-88165702D01*
X127204838Y-88142444D01*
X127204316Y-88141763D01*
X127003693Y-87880307D01*
X126719911Y-87662553D01*
X126389440Y-87525667D01*
X126348393Y-87520263D01*
X126042988Y-87480056D01*
X126034800Y-87478978D01*
X126026612Y-87480056D01*
X125721208Y-87520263D01*
X125680160Y-87525667D01*
X125349689Y-87662553D01*
X125065907Y-87880307D01*
X125060881Y-87886857D01*
X124864447Y-88142854D01*
X124780931Y-88191072D01*
X124687781Y-88166112D01*
X124664522Y-88142854D01*
X124468359Y-87887209D01*
X124456787Y-87875637D01*
X124186212Y-87668018D01*
X124172029Y-87659829D01*
X123856939Y-87529314D01*
X123841121Y-87525076D01*
X123773648Y-87516193D01*
X123755120Y-87521158D01*
X123748800Y-87532104D01*
X123748800Y-88977200D01*
X123711895Y-89066295D01*
X123622800Y-89103200D01*
X122183587Y-89103200D01*
X122165863Y-89110541D01*
X122161026Y-89122220D01*
X122170676Y-89195521D01*
X122174914Y-89211339D01*
X122305429Y-89526429D01*
X122313618Y-89540612D01*
X122521235Y-89811184D01*
X122532819Y-89822768D01*
X122540137Y-89828384D01*
X122588355Y-89911900D01*
X122563395Y-90005050D01*
X122488014Y-90051925D01*
X122458562Y-90057783D01*
X122458560Y-90057784D01*
X122446393Y-90060204D01*
X122436078Y-90067096D01*
X122436076Y-90067097D01*
X122288508Y-90165699D01*
X122278192Y-90172592D01*
X122271299Y-90182908D01*
X122172697Y-90330476D01*
X122172696Y-90330478D01*
X122165804Y-90340793D01*
X122136300Y-90489118D01*
X122136300Y-92289282D01*
X122165804Y-92437607D01*
X122172696Y-92447922D01*
X122172697Y-92447924D01*
X122254812Y-92570818D01*
X122278192Y-92605808D01*
X122316097Y-92631135D01*
X122369674Y-92711318D01*
X122350861Y-92805901D01*
X122270677Y-92859479D01*
X122246095Y-92861900D01*
X117820100Y-92861900D01*
X117731005Y-92824995D01*
X117694100Y-92735900D01*
X117694100Y-92173312D01*
X117720136Y-92096610D01*
X117737247Y-92074311D01*
X117874133Y-91743840D01*
X117920822Y-91389200D01*
X117874133Y-91034560D01*
X117737247Y-90704089D01*
X117519493Y-90420307D01*
X117257356Y-90219162D01*
X117209138Y-90135646D01*
X117234098Y-90042496D01*
X117257356Y-90019238D01*
X117284581Y-89998348D01*
X117519493Y-89818093D01*
X117737247Y-89534311D01*
X117874133Y-89203840D01*
X117920822Y-88849200D01*
X117884111Y-88570352D01*
X122161793Y-88570352D01*
X122166758Y-88588880D01*
X122177704Y-88595200D01*
X123215735Y-88595200D01*
X123233459Y-88587859D01*
X123240800Y-88570135D01*
X123240800Y-87537987D01*
X123233459Y-87520263D01*
X123221780Y-87515426D01*
X123148479Y-87525076D01*
X123132661Y-87529314D01*
X122817571Y-87659829D01*
X122803388Y-87668018D01*
X122532813Y-87875637D01*
X122521237Y-87887213D01*
X122313618Y-88157788D01*
X122305429Y-88171971D01*
X122174914Y-88487061D01*
X122170676Y-88502879D01*
X122161793Y-88570352D01*
X117884111Y-88570352D01*
X117874133Y-88494560D01*
X117737247Y-88164089D01*
X117730137Y-88154823D01*
X117729401Y-88152655D01*
X117728090Y-88150384D01*
X117728542Y-88150123D01*
X117704100Y-88078119D01*
X117704100Y-85283490D01*
X117687011Y-85169820D01*
X117667294Y-85038679D01*
X117665894Y-85029367D01*
X117634054Y-84963059D01*
X117630126Y-84953982D01*
X117543099Y-84729030D01*
X117543096Y-84729025D01*
X117539699Y-84720244D01*
X117326821Y-84450209D01*
X117043953Y-84254707D01*
X116716103Y-84151021D01*
X116705489Y-84150186D01*
X116701775Y-84149893D01*
X116701766Y-84149893D01*
X116699318Y-84149700D01*
X107746300Y-84149700D01*
X107657205Y-84112795D01*
X107620300Y-84023700D01*
X107620300Y-81477700D01*
X107657205Y-81388605D01*
X107746300Y-81351700D01*
X110132795Y-81351700D01*
X110221890Y-81388605D01*
G37*
%TD.AperFunction*%
%TA.AperFunction,Conductor*%
G36*
X136858962Y-75906315D02*
G01*
X136859616Y-75906817D01*
X136907857Y-75990318D01*
X136882925Y-76083475D01*
X136859645Y-76106761D01*
X136597507Y-76307907D01*
X136379753Y-76591689D01*
X136242867Y-76922160D01*
X136196178Y-77276800D01*
X136242867Y-77631440D01*
X136379753Y-77961911D01*
X136597507Y-78245693D01*
X136752814Y-78364864D01*
X136859644Y-78446838D01*
X136907862Y-78530354D01*
X136882902Y-78623504D01*
X136859645Y-78646761D01*
X136597507Y-78847907D01*
X136379753Y-79131689D01*
X136242867Y-79462160D01*
X136196178Y-79816800D01*
X136242867Y-80171440D01*
X136379753Y-80501911D01*
X136597507Y-80785693D01*
X136752814Y-80904864D01*
X136859644Y-80986838D01*
X136907862Y-81070354D01*
X136882902Y-81163504D01*
X136859645Y-81186761D01*
X136597507Y-81387907D01*
X136379753Y-81671689D01*
X136242867Y-82002160D01*
X136196178Y-82356800D01*
X136242867Y-82711440D01*
X136379753Y-83041911D01*
X136597507Y-83325693D01*
X136604057Y-83330719D01*
X136860054Y-83527153D01*
X136908272Y-83610669D01*
X136883312Y-83703819D01*
X136860054Y-83727078D01*
X136604409Y-83923241D01*
X136592837Y-83934813D01*
X136385218Y-84205388D01*
X136377029Y-84219571D01*
X136246514Y-84534661D01*
X136242276Y-84550479D01*
X136233393Y-84617952D01*
X136238358Y-84636480D01*
X136249304Y-84642800D01*
X137694400Y-84642800D01*
X137783495Y-84679705D01*
X137820400Y-84768800D01*
X137820400Y-86208013D01*
X137827741Y-86225737D01*
X137839420Y-86230574D01*
X137912721Y-86220924D01*
X137928539Y-86216686D01*
X138243629Y-86086171D01*
X138257812Y-86077982D01*
X138528384Y-85870365D01*
X138539968Y-85858781D01*
X138545584Y-85851463D01*
X138629100Y-85803245D01*
X138722250Y-85828205D01*
X138769125Y-85903586D01*
X138777404Y-85945207D01*
X138784296Y-85955522D01*
X138784297Y-85955524D01*
X138799523Y-85978311D01*
X138889792Y-86113408D01*
X138900108Y-86120301D01*
X139047676Y-86218903D01*
X139047678Y-86218904D01*
X139057993Y-86225796D01*
X139206318Y-86255300D01*
X141006482Y-86255300D01*
X141154807Y-86225796D01*
X141165122Y-86218904D01*
X141165124Y-86218903D01*
X141312692Y-86120301D01*
X141323008Y-86113408D01*
X141324222Y-86115225D01*
X141402300Y-86082883D01*
X141491395Y-86119788D01*
X141528300Y-86208883D01*
X141528300Y-92735900D01*
X141491395Y-92824995D01*
X141402300Y-92861900D01*
X134924300Y-92861900D01*
X134835205Y-92824995D01*
X134798300Y-92735900D01*
X134798300Y-92173312D01*
X134824336Y-92096610D01*
X134841447Y-92074311D01*
X134978333Y-91743840D01*
X135025022Y-91389200D01*
X134978333Y-91034560D01*
X134841447Y-90704089D01*
X134623693Y-90420307D01*
X134361556Y-90219162D01*
X134313338Y-90135646D01*
X134338298Y-90042496D01*
X134361556Y-90019238D01*
X134388781Y-89998348D01*
X134623693Y-89818093D01*
X134841447Y-89534311D01*
X134978333Y-89203840D01*
X135025022Y-88849200D01*
X134978333Y-88494560D01*
X134841447Y-88164089D01*
X134824336Y-88141790D01*
X134798300Y-88065088D01*
X134798300Y-85169820D01*
X136232626Y-85169820D01*
X136242276Y-85243121D01*
X136246514Y-85258939D01*
X136377029Y-85574029D01*
X136385218Y-85588212D01*
X136592837Y-85858787D01*
X136604413Y-85870363D01*
X136874988Y-86077982D01*
X136889171Y-86086171D01*
X137204261Y-86216686D01*
X137220079Y-86220924D01*
X137287552Y-86229807D01*
X137306080Y-86224842D01*
X137312400Y-86213896D01*
X137312400Y-85175865D01*
X137305059Y-85158141D01*
X137287335Y-85150800D01*
X136255187Y-85150800D01*
X136237463Y-85158141D01*
X136232626Y-85169820D01*
X134798300Y-85169820D01*
X134798300Y-79706356D01*
X134798397Y-79701409D01*
X134803862Y-79562315D01*
X134804232Y-79552902D01*
X134801817Y-79543794D01*
X134800784Y-79534438D01*
X134800947Y-79534420D01*
X134798300Y-79514111D01*
X134798300Y-76006300D01*
X134835205Y-75917205D01*
X134924300Y-75880300D01*
X136782288Y-75880300D01*
X136858962Y-75906315D01*
G37*
%TD.AperFunction*%
%TA.AperFunction,Conductor*%
G36*
X101676704Y-85976698D02*
G01*
X101699961Y-85999955D01*
X101901107Y-86262093D01*
X102184889Y-86479847D01*
X102515360Y-86616733D01*
X102870000Y-86663422D01*
X102878188Y-86662344D01*
X103216452Y-86617811D01*
X103224640Y-86616733D01*
X103555111Y-86479847D01*
X103577410Y-86462736D01*
X103654112Y-86436700D01*
X106350588Y-86436700D01*
X106365398Y-86437573D01*
X106462324Y-86449045D01*
X106518694Y-86438750D01*
X106541331Y-86436700D01*
X115291100Y-86436700D01*
X115380195Y-86473605D01*
X115417100Y-86562700D01*
X115417100Y-88052056D01*
X115391063Y-88128759D01*
X115381063Y-88141792D01*
X115380563Y-88142443D01*
X115297047Y-88190662D01*
X115203897Y-88165703D01*
X115180638Y-88142444D01*
X115180116Y-88141763D01*
X114979493Y-87880307D01*
X114695711Y-87662553D01*
X114365240Y-87525667D01*
X114324193Y-87520263D01*
X114018788Y-87480056D01*
X114010600Y-87478978D01*
X114002412Y-87480056D01*
X113697008Y-87520263D01*
X113655960Y-87525667D01*
X113325489Y-87662553D01*
X113041707Y-87880307D01*
X112841085Y-88141763D01*
X112840562Y-88142444D01*
X112757046Y-88190662D01*
X112663896Y-88165702D01*
X112640638Y-88142444D01*
X112640116Y-88141763D01*
X112439493Y-87880307D01*
X112155711Y-87662553D01*
X111825240Y-87525667D01*
X111784193Y-87520263D01*
X111478788Y-87480056D01*
X111470600Y-87478978D01*
X111462412Y-87480056D01*
X111157008Y-87520263D01*
X111115960Y-87525667D01*
X110785489Y-87662553D01*
X110501707Y-87880307D01*
X110301085Y-88141763D01*
X110300562Y-88142444D01*
X110217046Y-88190662D01*
X110123896Y-88165702D01*
X110100638Y-88142444D01*
X110100116Y-88141763D01*
X109899493Y-87880307D01*
X109615711Y-87662553D01*
X109285240Y-87525667D01*
X109244193Y-87520263D01*
X108938788Y-87480056D01*
X108930600Y-87478978D01*
X108922412Y-87480056D01*
X108617008Y-87520263D01*
X108575960Y-87525667D01*
X108245489Y-87662553D01*
X107961707Y-87880307D01*
X107956681Y-87886857D01*
X107760247Y-88142854D01*
X107676731Y-88191072D01*
X107583581Y-88166112D01*
X107560322Y-88142854D01*
X107364159Y-87887209D01*
X107352587Y-87875637D01*
X107082012Y-87668018D01*
X107067829Y-87659829D01*
X106752739Y-87529314D01*
X106736921Y-87525076D01*
X106669448Y-87516193D01*
X106650920Y-87521158D01*
X106644600Y-87532104D01*
X106644600Y-88977200D01*
X106607695Y-89066295D01*
X106518600Y-89103200D01*
X105079387Y-89103200D01*
X105061663Y-89110541D01*
X105056826Y-89122220D01*
X105066476Y-89195521D01*
X105070714Y-89211339D01*
X105201229Y-89526429D01*
X105209418Y-89540612D01*
X105417035Y-89811184D01*
X105428619Y-89822768D01*
X105435937Y-89828384D01*
X105484155Y-89911900D01*
X105459195Y-90005050D01*
X105383814Y-90051925D01*
X105354362Y-90057783D01*
X105354360Y-90057784D01*
X105342193Y-90060204D01*
X105331878Y-90067096D01*
X105331876Y-90067097D01*
X105184308Y-90165699D01*
X105173992Y-90172592D01*
X105167099Y-90182908D01*
X105068497Y-90330476D01*
X105068496Y-90330478D01*
X105061604Y-90340793D01*
X105032100Y-90489118D01*
X105032100Y-92289282D01*
X105061604Y-92437607D01*
X105068496Y-92447922D01*
X105068497Y-92447924D01*
X105150612Y-92570818D01*
X105173992Y-92605808D01*
X105211897Y-92631135D01*
X105265474Y-92711318D01*
X105246661Y-92805901D01*
X105166477Y-92859479D01*
X105141895Y-92861900D01*
X99161100Y-92861900D01*
X99072005Y-92824995D01*
X99035100Y-92735900D01*
X99035100Y-88570352D01*
X105057593Y-88570352D01*
X105062558Y-88588880D01*
X105073504Y-88595200D01*
X106111535Y-88595200D01*
X106129259Y-88587859D01*
X106136600Y-88570135D01*
X106136600Y-87537987D01*
X106129259Y-87520263D01*
X106117580Y-87515426D01*
X106044279Y-87525076D01*
X106028461Y-87529314D01*
X105713371Y-87659829D01*
X105699188Y-87668018D01*
X105428613Y-87875637D01*
X105417037Y-87887213D01*
X105209418Y-88157788D01*
X105201229Y-88171971D01*
X105070714Y-88487061D01*
X105066476Y-88502879D01*
X105057593Y-88570352D01*
X99035100Y-88570352D01*
X99035100Y-86562700D01*
X99072005Y-86473605D01*
X99161100Y-86436700D01*
X99545888Y-86436700D01*
X99622590Y-86462736D01*
X99644889Y-86479847D01*
X99975360Y-86616733D01*
X100330000Y-86663422D01*
X100338188Y-86662344D01*
X100676452Y-86617811D01*
X100684640Y-86616733D01*
X101015111Y-86479847D01*
X101298893Y-86262093D01*
X101500038Y-85999956D01*
X101583554Y-85951738D01*
X101676704Y-85976698D01*
G37*
%TD.AperFunction*%
%TA.AperFunction,Conductor*%
G36*
X101676704Y-68872498D02*
G01*
X101699961Y-68895755D01*
X101901107Y-69157893D01*
X102184889Y-69375647D01*
X102515360Y-69512533D01*
X102870000Y-69559222D01*
X102878188Y-69558144D01*
X103216452Y-69513611D01*
X103224640Y-69512533D01*
X103428018Y-69428291D01*
X103476235Y-69418700D01*
X105207300Y-69418700D01*
X105296395Y-69455605D01*
X105333300Y-69544700D01*
X105333300Y-80847044D01*
X105333203Y-80851991D01*
X105327368Y-81000498D01*
X105329781Y-81009600D01*
X105330815Y-81018964D01*
X105330653Y-81018982D01*
X105333300Y-81039292D01*
X105333300Y-84023700D01*
X105296395Y-84112795D01*
X105207300Y-84149700D01*
X103654112Y-84149700D01*
X103577438Y-84123685D01*
X103576784Y-84123183D01*
X103528543Y-84039682D01*
X103553475Y-83946525D01*
X103576756Y-83923238D01*
X103620055Y-83890014D01*
X103838893Y-83722093D01*
X104056647Y-83438311D01*
X104193533Y-83107840D01*
X104240222Y-82753200D01*
X104193533Y-82398560D01*
X104056647Y-82068089D01*
X103838893Y-81784307D01*
X103576756Y-81583162D01*
X103528538Y-81499646D01*
X103553498Y-81406496D01*
X103576756Y-81383238D01*
X103832343Y-81187119D01*
X103838893Y-81182093D01*
X104056647Y-80898311D01*
X104193533Y-80567840D01*
X104240222Y-80213200D01*
X104193533Y-79858560D01*
X104056647Y-79528089D01*
X103838893Y-79244307D01*
X103576756Y-79043162D01*
X103528538Y-78959646D01*
X103553498Y-78866496D01*
X103576756Y-78843238D01*
X103593348Y-78830507D01*
X103838893Y-78642093D01*
X104056647Y-78358311D01*
X104193533Y-78027840D01*
X104240222Y-77673200D01*
X104193533Y-77318560D01*
X104056647Y-76988089D01*
X103838893Y-76704307D01*
X103729246Y-76620172D01*
X103576346Y-76502847D01*
X103528128Y-76419331D01*
X103553088Y-76326181D01*
X103576346Y-76302922D01*
X103831991Y-76106759D01*
X103843563Y-76095187D01*
X104051182Y-75824612D01*
X104059371Y-75810429D01*
X104189886Y-75495339D01*
X104194124Y-75479521D01*
X104203007Y-75412048D01*
X104198042Y-75393520D01*
X104187096Y-75387200D01*
X102742000Y-75387200D01*
X102652905Y-75350295D01*
X102616000Y-75261200D01*
X102616000Y-74854135D01*
X103124000Y-74854135D01*
X103131341Y-74871859D01*
X103149065Y-74879200D01*
X104181213Y-74879200D01*
X104198937Y-74871859D01*
X104203774Y-74860180D01*
X104194124Y-74786879D01*
X104189886Y-74771061D01*
X104059371Y-74455971D01*
X104051182Y-74441788D01*
X103843563Y-74171213D01*
X103831987Y-74159637D01*
X103561412Y-73952018D01*
X103547229Y-73943829D01*
X103232139Y-73813314D01*
X103216321Y-73809076D01*
X103148848Y-73800193D01*
X103130320Y-73805158D01*
X103124000Y-73816104D01*
X103124000Y-74854135D01*
X102616000Y-74854135D01*
X102616000Y-73821987D01*
X102608659Y-73804263D01*
X102596980Y-73799426D01*
X102523679Y-73809076D01*
X102507861Y-73813314D01*
X102192771Y-73943829D01*
X102178588Y-73952018D01*
X101908016Y-74159635D01*
X101896432Y-74171219D01*
X101890816Y-74178537D01*
X101807300Y-74226755D01*
X101714150Y-74201795D01*
X101667275Y-74126414D01*
X101661417Y-74096962D01*
X101661416Y-74096960D01*
X101658996Y-74084793D01*
X101652104Y-74074478D01*
X101652103Y-74074476D01*
X101553501Y-73926908D01*
X101546608Y-73916592D01*
X101504492Y-73888451D01*
X101388724Y-73811097D01*
X101388722Y-73811096D01*
X101378407Y-73804204D01*
X101230082Y-73774700D01*
X99429918Y-73774700D01*
X99281593Y-73804204D01*
X99271278Y-73811096D01*
X99271276Y-73811097D01*
X99231102Y-73837941D01*
X99136519Y-73856755D01*
X99056335Y-73803178D01*
X99035100Y-73733176D01*
X99035100Y-69458500D01*
X99072005Y-69369405D01*
X99161100Y-69332500D01*
X99545888Y-69332500D01*
X99622590Y-69358536D01*
X99644889Y-69375647D01*
X99975360Y-69512533D01*
X100330000Y-69559222D01*
X100338188Y-69558144D01*
X100676452Y-69513611D01*
X100684640Y-69512533D01*
X101015111Y-69375647D01*
X101298893Y-69157893D01*
X101500038Y-68895756D01*
X101583554Y-68847538D01*
X101676704Y-68872498D01*
G37*
%TD.AperFunction*%
%TA.AperFunction,Conductor*%
G36*
X105296395Y-50431005D02*
G01*
X105333300Y-50520100D01*
X105333300Y-50701688D01*
X105307264Y-50778390D01*
X105290153Y-50800689D01*
X105153267Y-51131160D01*
X105106578Y-51485800D01*
X105153267Y-51840440D01*
X105290153Y-52170911D01*
X105507907Y-52454693D01*
X105611532Y-52534207D01*
X105770044Y-52655838D01*
X105818262Y-52739354D01*
X105793302Y-52832504D01*
X105770045Y-52855761D01*
X105507907Y-53056907D01*
X105290153Y-53340689D01*
X105153267Y-53671160D01*
X105106578Y-54025800D01*
X105153267Y-54380440D01*
X105290153Y-54710911D01*
X105307264Y-54733210D01*
X105333300Y-54809912D01*
X105333300Y-66927931D01*
X105330046Y-66956382D01*
X105312020Y-67034151D01*
X105255950Y-67112612D01*
X105189274Y-67131700D01*
X103766450Y-67131700D01*
X103689748Y-67105664D01*
X103576755Y-67018961D01*
X103528538Y-66935446D01*
X103553497Y-66842296D01*
X103576756Y-66819038D01*
X103620055Y-66785814D01*
X103838893Y-66617893D01*
X104056647Y-66334111D01*
X104193533Y-66003640D01*
X104240222Y-65649000D01*
X104193533Y-65294360D01*
X104056647Y-64963889D01*
X103838893Y-64680107D01*
X103576756Y-64478962D01*
X103528538Y-64395446D01*
X103553498Y-64302296D01*
X103576756Y-64279038D01*
X103757644Y-64140238D01*
X103838893Y-64077893D01*
X104056647Y-63794111D01*
X104193533Y-63463640D01*
X104240222Y-63109000D01*
X104193533Y-62754360D01*
X104056647Y-62423889D01*
X103838893Y-62140107D01*
X103576756Y-61938962D01*
X103528538Y-61855446D01*
X103553498Y-61762296D01*
X103576756Y-61739038D01*
X103832343Y-61542919D01*
X103838893Y-61537893D01*
X104056647Y-61254111D01*
X104193533Y-60923640D01*
X104240222Y-60569000D01*
X104193533Y-60214360D01*
X104056647Y-59883889D01*
X103838893Y-59600107D01*
X103825316Y-59589689D01*
X103576346Y-59398647D01*
X103528128Y-59315131D01*
X103553088Y-59221981D01*
X103576346Y-59198722D01*
X103831991Y-59002559D01*
X103843563Y-58990987D01*
X104051182Y-58720412D01*
X104059371Y-58706229D01*
X104189886Y-58391139D01*
X104194124Y-58375321D01*
X104203007Y-58307848D01*
X104198042Y-58289320D01*
X104187096Y-58283000D01*
X102742000Y-58283000D01*
X102652905Y-58246095D01*
X102616000Y-58157000D01*
X102616000Y-57749935D01*
X103124000Y-57749935D01*
X103131341Y-57767659D01*
X103149065Y-57775000D01*
X104181213Y-57775000D01*
X104198937Y-57767659D01*
X104203774Y-57755980D01*
X104194124Y-57682679D01*
X104189886Y-57666861D01*
X104059371Y-57351771D01*
X104051182Y-57337588D01*
X103843563Y-57067013D01*
X103831987Y-57055437D01*
X103561412Y-56847818D01*
X103547229Y-56839629D01*
X103232139Y-56709114D01*
X103216321Y-56704876D01*
X103148848Y-56695993D01*
X103130320Y-56700958D01*
X103124000Y-56711904D01*
X103124000Y-57749935D01*
X102616000Y-57749935D01*
X102616000Y-56717787D01*
X102608659Y-56700063D01*
X102596980Y-56695226D01*
X102523679Y-56704876D01*
X102507861Y-56709114D01*
X102192771Y-56839629D01*
X102178588Y-56847818D01*
X101908016Y-57055435D01*
X101896432Y-57067019D01*
X101890816Y-57074337D01*
X101807300Y-57122555D01*
X101714150Y-57097595D01*
X101667275Y-57022214D01*
X101661417Y-56992762D01*
X101661416Y-56992760D01*
X101658996Y-56980593D01*
X101652104Y-56970278D01*
X101652103Y-56970276D01*
X101553501Y-56822708D01*
X101546608Y-56812392D01*
X101536292Y-56805499D01*
X101388724Y-56706897D01*
X101388722Y-56706896D01*
X101378407Y-56700004D01*
X101230082Y-56670500D01*
X99429918Y-56670500D01*
X99281593Y-56700004D01*
X99271278Y-56706896D01*
X99271276Y-56706897D01*
X99231102Y-56733741D01*
X99136519Y-56752555D01*
X99056335Y-56698978D01*
X99035100Y-56628976D01*
X99035100Y-50520100D01*
X99072005Y-50431005D01*
X99161100Y-50394100D01*
X105207300Y-50394100D01*
X105296395Y-50431005D01*
G37*
%TD.AperFunction*%
%TA.AperFunction,Conductor*%
G36*
X118631395Y-50431005D02*
G01*
X118668300Y-50520100D01*
X118668300Y-61750795D01*
X118631395Y-61839890D01*
X118612308Y-61855556D01*
X118595192Y-61866992D01*
X118570129Y-61904502D01*
X118489946Y-61958079D01*
X118465364Y-61960500D01*
X112798405Y-61960500D01*
X112709310Y-61923595D01*
X112693644Y-61904508D01*
X112682208Y-61887392D01*
X112634571Y-61855562D01*
X112524324Y-61781897D01*
X112524322Y-61781896D01*
X112514007Y-61775004D01*
X112365682Y-61745500D01*
X110565518Y-61745500D01*
X110417193Y-61775004D01*
X110406878Y-61781896D01*
X110406876Y-61781897D01*
X110296629Y-61855562D01*
X110248992Y-61887392D01*
X110242099Y-61897708D01*
X110143497Y-62045276D01*
X110143496Y-62045278D01*
X110136604Y-62055593D01*
X110107100Y-62203918D01*
X110107100Y-64004082D01*
X110136604Y-64152407D01*
X110143496Y-64162722D01*
X110143497Y-64162724D01*
X110224802Y-64284405D01*
X110248992Y-64320608D01*
X110259308Y-64327501D01*
X110406876Y-64426103D01*
X110406878Y-64426104D01*
X110417193Y-64432996D01*
X110565518Y-64462500D01*
X112365682Y-64462500D01*
X112514007Y-64432996D01*
X112524322Y-64426104D01*
X112524324Y-64426103D01*
X112671892Y-64327501D01*
X112682208Y-64320608D01*
X112693640Y-64303499D01*
X112773821Y-64249922D01*
X112798405Y-64247500D01*
X118493717Y-64247500D01*
X118582812Y-64284405D01*
X118588299Y-64289892D01*
X118595192Y-64300208D01*
X118605508Y-64307101D01*
X118753076Y-64405703D01*
X118753078Y-64405704D01*
X118763393Y-64412596D01*
X118911718Y-64442100D01*
X120711882Y-64442100D01*
X120860207Y-64412596D01*
X120870522Y-64405704D01*
X120870524Y-64405703D01*
X121018092Y-64307101D01*
X121028408Y-64300208D01*
X121035301Y-64289892D01*
X121040788Y-64284405D01*
X121129883Y-64247500D01*
X127236995Y-64247500D01*
X127326090Y-64284405D01*
X127341756Y-64303492D01*
X127353192Y-64320608D01*
X127363508Y-64327501D01*
X127511076Y-64426103D01*
X127511078Y-64426104D01*
X127521393Y-64432996D01*
X127669718Y-64462500D01*
X129469882Y-64462500D01*
X129618207Y-64432996D01*
X129628522Y-64426104D01*
X129628524Y-64426103D01*
X129776092Y-64327501D01*
X129786408Y-64320608D01*
X129810598Y-64284405D01*
X129891903Y-64162724D01*
X129891904Y-64162722D01*
X129898796Y-64152407D01*
X129928300Y-64004082D01*
X129928300Y-62203918D01*
X129898796Y-62055593D01*
X129891904Y-62045278D01*
X129891903Y-62045276D01*
X129793301Y-61897708D01*
X129786408Y-61887392D01*
X129738771Y-61855562D01*
X129628524Y-61781897D01*
X129628522Y-61781896D01*
X129618207Y-61775004D01*
X129469882Y-61745500D01*
X127669718Y-61745500D01*
X127521393Y-61775004D01*
X127511078Y-61781896D01*
X127511076Y-61781897D01*
X127400829Y-61855562D01*
X127353192Y-61887392D01*
X127341760Y-61904501D01*
X127261579Y-61958078D01*
X127236995Y-61960500D01*
X121158236Y-61960500D01*
X121069141Y-61923595D01*
X121053474Y-61904506D01*
X121028408Y-61866992D01*
X121011299Y-61855560D01*
X120957722Y-61775379D01*
X120955300Y-61750795D01*
X120955300Y-50520100D01*
X120992205Y-50431005D01*
X121081300Y-50394100D01*
X122311500Y-50394100D01*
X122400595Y-50431005D01*
X122437500Y-50520100D01*
X122437500Y-50701688D01*
X122411464Y-50778390D01*
X122394353Y-50800689D01*
X122257467Y-51131160D01*
X122210778Y-51485800D01*
X122257467Y-51840440D01*
X122394353Y-52170911D01*
X122612107Y-52454693D01*
X122715732Y-52534207D01*
X122874244Y-52655838D01*
X122922462Y-52739354D01*
X122897502Y-52832504D01*
X122874245Y-52855761D01*
X122612107Y-53056907D01*
X122394353Y-53340689D01*
X122257467Y-53671160D01*
X122210778Y-54025800D01*
X122257467Y-54380440D01*
X122260627Y-54388069D01*
X122392509Y-54706459D01*
X122402100Y-54754677D01*
X122402100Y-57487114D01*
X122398846Y-57515564D01*
X122392749Y-57541869D01*
X122393414Y-57551265D01*
X122393414Y-57551268D01*
X122401785Y-57669491D01*
X122402100Y-57678390D01*
X122402100Y-57718510D01*
X122407331Y-57753301D01*
X122408414Y-57763111D01*
X122417034Y-57884864D01*
X122420432Y-57893646D01*
X122420432Y-57893648D01*
X122428496Y-57914493D01*
X122435583Y-57941220D01*
X122440306Y-57972633D01*
X122444382Y-57981122D01*
X122444383Y-57981124D01*
X122493137Y-58082654D01*
X122497066Y-58091732D01*
X122541101Y-58205556D01*
X122560767Y-58230502D01*
X122575399Y-58253963D01*
X122589151Y-58282602D01*
X122595546Y-58289520D01*
X122595548Y-58289523D01*
X122672004Y-58372232D01*
X122678409Y-58379731D01*
X122753979Y-58475591D01*
X122761726Y-58480946D01*
X122761729Y-58480948D01*
X122780109Y-58493651D01*
X122800996Y-58511776D01*
X122816165Y-58528186D01*
X122816168Y-58528189D01*
X122822559Y-58535102D01*
X122830701Y-58539831D01*
X122830702Y-58539832D01*
X122928088Y-58596398D01*
X122936442Y-58601699D01*
X123036847Y-58671093D01*
X123045828Y-58673933D01*
X123045831Y-58673935D01*
X123067138Y-58680674D01*
X123092424Y-58691853D01*
X123111749Y-58703077D01*
X123111751Y-58703078D01*
X123119895Y-58707808D01*
X123174272Y-58720412D01*
X123238787Y-58735366D01*
X123248330Y-58737977D01*
X123364697Y-58774779D01*
X123375311Y-58775614D01*
X123379025Y-58775907D01*
X123379034Y-58775907D01*
X123381482Y-58776100D01*
X123400114Y-58776100D01*
X123428564Y-58779354D01*
X123454869Y-58785451D01*
X123464265Y-58784786D01*
X123464268Y-58784786D01*
X123582491Y-58776415D01*
X123591390Y-58776100D01*
X132476900Y-58776100D01*
X132565995Y-58813005D01*
X132602900Y-58902100D01*
X132602900Y-65913500D01*
X132565995Y-66002595D01*
X132476900Y-66039500D01*
X107746300Y-66039500D01*
X107657205Y-66002595D01*
X107620300Y-65913500D01*
X107620300Y-54809912D01*
X107646315Y-54733238D01*
X107646817Y-54732584D01*
X107730318Y-54684343D01*
X107823475Y-54709275D01*
X107846761Y-54732555D01*
X108047907Y-54994693D01*
X108331689Y-55212447D01*
X108662160Y-55349333D01*
X108670348Y-55350411D01*
X108839480Y-55372678D01*
X109016800Y-55396022D01*
X109024988Y-55394944D01*
X109363252Y-55350411D01*
X109371440Y-55349333D01*
X109701911Y-55212447D01*
X109985693Y-54994693D01*
X110186838Y-54732556D01*
X110270354Y-54684338D01*
X110363504Y-54709298D01*
X110386761Y-54732555D01*
X110587907Y-54994693D01*
X110871689Y-55212447D01*
X111202160Y-55349333D01*
X111210348Y-55350411D01*
X111379480Y-55372678D01*
X111556800Y-55396022D01*
X111564988Y-55394944D01*
X111903252Y-55350411D01*
X111911440Y-55349333D01*
X112241911Y-55212447D01*
X112525693Y-54994693D01*
X112726838Y-54732556D01*
X112810354Y-54684338D01*
X112903504Y-54709298D01*
X112926761Y-54732555D01*
X113127907Y-54994693D01*
X113411689Y-55212447D01*
X113742160Y-55349333D01*
X113750348Y-55350411D01*
X113919480Y-55372678D01*
X114096800Y-55396022D01*
X114104988Y-55394944D01*
X114443252Y-55350411D01*
X114451440Y-55349333D01*
X114781911Y-55212447D01*
X115065693Y-54994693D01*
X115267153Y-54732146D01*
X115350669Y-54683928D01*
X115443819Y-54708888D01*
X115467078Y-54732146D01*
X115663241Y-54987791D01*
X115674813Y-54999363D01*
X115945388Y-55206982D01*
X115959571Y-55215171D01*
X116274661Y-55345686D01*
X116290479Y-55349924D01*
X116357952Y-55358807D01*
X116376480Y-55353842D01*
X116382800Y-55342896D01*
X116382800Y-55337013D01*
X116890800Y-55337013D01*
X116898141Y-55354737D01*
X116909820Y-55359574D01*
X116983121Y-55349924D01*
X116998939Y-55345686D01*
X117314029Y-55215171D01*
X117328212Y-55206982D01*
X117598787Y-54999363D01*
X117610363Y-54987787D01*
X117817982Y-54717212D01*
X117826171Y-54703029D01*
X117956686Y-54387939D01*
X117960924Y-54372121D01*
X117969807Y-54304648D01*
X117964842Y-54286120D01*
X117953896Y-54279800D01*
X116915865Y-54279800D01*
X116898141Y-54287141D01*
X116890800Y-54304865D01*
X116890800Y-55337013D01*
X116382800Y-55337013D01*
X116382800Y-53897800D01*
X116419705Y-53808705D01*
X116508800Y-53771800D01*
X117948013Y-53771800D01*
X117965737Y-53764459D01*
X117970574Y-53752780D01*
X117960924Y-53679479D01*
X117956686Y-53663661D01*
X117826171Y-53348571D01*
X117817982Y-53334388D01*
X117610365Y-53063816D01*
X117598781Y-53052232D01*
X117591463Y-53046616D01*
X117543245Y-52963100D01*
X117568205Y-52869950D01*
X117643586Y-52823075D01*
X117673038Y-52817217D01*
X117673040Y-52817216D01*
X117685207Y-52814796D01*
X117695522Y-52807904D01*
X117695524Y-52807903D01*
X117843092Y-52709301D01*
X117853408Y-52702408D01*
X117884525Y-52655838D01*
X117958903Y-52544524D01*
X117958904Y-52544522D01*
X117965796Y-52534207D01*
X117995300Y-52385882D01*
X117995300Y-50585718D01*
X117987137Y-50544682D01*
X118005950Y-50450099D01*
X118086133Y-50396521D01*
X118110716Y-50394100D01*
X118542300Y-50394100D01*
X118631395Y-50431005D01*
G37*
%TD.AperFunction*%
%TA.AperFunction,Conductor*%
G36*
X141491395Y-50431005D02*
G01*
X141528300Y-50520100D01*
X141528300Y-56363100D01*
X141491395Y-56452195D01*
X141402300Y-56489100D01*
X140890512Y-56489100D01*
X140813810Y-56463064D01*
X140791511Y-56445953D01*
X140461040Y-56309067D01*
X140106400Y-56262378D01*
X139751760Y-56309067D01*
X139421289Y-56445953D01*
X139137507Y-56663707D01*
X138996234Y-56847818D01*
X138936362Y-56925844D01*
X138852846Y-56974062D01*
X138759696Y-56949102D01*
X138736438Y-56925844D01*
X138676567Y-56847818D01*
X138535293Y-56663707D01*
X138251511Y-56445953D01*
X137921040Y-56309067D01*
X137566400Y-56262378D01*
X137211760Y-56309067D01*
X136881289Y-56445953D01*
X136858990Y-56463064D01*
X136782288Y-56489100D01*
X133579756Y-56489100D01*
X133574809Y-56489003D01*
X133426302Y-56483168D01*
X133417200Y-56485581D01*
X133407836Y-56486615D01*
X133407818Y-56486453D01*
X133387508Y-56489100D01*
X124815100Y-56489100D01*
X124726005Y-56452195D01*
X124689100Y-56363100D01*
X124689100Y-54856046D01*
X124715136Y-54779344D01*
X124751039Y-54732555D01*
X124834553Y-54684338D01*
X124927704Y-54709297D01*
X124950961Y-54732555D01*
X125152107Y-54994693D01*
X125435889Y-55212447D01*
X125766360Y-55349333D01*
X125774548Y-55350411D01*
X125943680Y-55372678D01*
X126121000Y-55396022D01*
X126129188Y-55394944D01*
X126467452Y-55350411D01*
X126475640Y-55349333D01*
X126806111Y-55212447D01*
X127089893Y-54994693D01*
X127291038Y-54732556D01*
X127374554Y-54684338D01*
X127467704Y-54709298D01*
X127490961Y-54732555D01*
X127692107Y-54994693D01*
X127975889Y-55212447D01*
X128306360Y-55349333D01*
X128314548Y-55350411D01*
X128483680Y-55372678D01*
X128661000Y-55396022D01*
X128669188Y-55394944D01*
X129007452Y-55350411D01*
X129015640Y-55349333D01*
X129346111Y-55212447D01*
X129629893Y-54994693D01*
X129831038Y-54732556D01*
X129914554Y-54684338D01*
X130007704Y-54709298D01*
X130030961Y-54732555D01*
X130232107Y-54994693D01*
X130515889Y-55212447D01*
X130846360Y-55349333D01*
X130854548Y-55350411D01*
X131023680Y-55372678D01*
X131201000Y-55396022D01*
X131209188Y-55394944D01*
X131547452Y-55350411D01*
X131555640Y-55349333D01*
X131886111Y-55212447D01*
X132169893Y-54994693D01*
X132371353Y-54732146D01*
X132454869Y-54683928D01*
X132548019Y-54708888D01*
X132571278Y-54732146D01*
X132767441Y-54987791D01*
X132779013Y-54999363D01*
X133049588Y-55206982D01*
X133063771Y-55215171D01*
X133378861Y-55345686D01*
X133394679Y-55349924D01*
X133462152Y-55358807D01*
X133480680Y-55353842D01*
X133487000Y-55342896D01*
X133487000Y-55337013D01*
X133995000Y-55337013D01*
X134002341Y-55354737D01*
X134014020Y-55359574D01*
X134087321Y-55349924D01*
X134103139Y-55345686D01*
X134418229Y-55215171D01*
X134432412Y-55206982D01*
X134702987Y-54999363D01*
X134714563Y-54987787D01*
X134922182Y-54717212D01*
X134930371Y-54703029D01*
X135060886Y-54387939D01*
X135065124Y-54372121D01*
X135074007Y-54304648D01*
X135069042Y-54286120D01*
X135058096Y-54279800D01*
X134020065Y-54279800D01*
X134002341Y-54287141D01*
X133995000Y-54304865D01*
X133995000Y-55337013D01*
X133487000Y-55337013D01*
X133487000Y-53897800D01*
X133523905Y-53808705D01*
X133613000Y-53771800D01*
X135052213Y-53771800D01*
X135069937Y-53764459D01*
X135074774Y-53752780D01*
X135065124Y-53679479D01*
X135060886Y-53663661D01*
X134930371Y-53348571D01*
X134922182Y-53334388D01*
X134714565Y-53063816D01*
X134702981Y-53052232D01*
X134695663Y-53046616D01*
X134647445Y-52963100D01*
X134672405Y-52869950D01*
X134747786Y-52823075D01*
X134777238Y-52817217D01*
X134777240Y-52817216D01*
X134789407Y-52814796D01*
X134799722Y-52807904D01*
X134799724Y-52807903D01*
X134947292Y-52709301D01*
X134957608Y-52702408D01*
X134988725Y-52655838D01*
X135063103Y-52544524D01*
X135063104Y-52544522D01*
X135069996Y-52534207D01*
X135099500Y-52385882D01*
X135099500Y-50585718D01*
X135091337Y-50544682D01*
X135110150Y-50450099D01*
X135190333Y-50396521D01*
X135214916Y-50394100D01*
X141402300Y-50394100D01*
X141491395Y-50431005D01*
G37*
%TD.AperFunction*%
%TD*%
M02*
