%TF.GenerationSoftware,KiCad,Pcbnew,(6.0.9)*%
%TF.CreationDate,2023-01-09T12:20:17-05:00*%
%TF.ProjectId,Perris_Breakout,50657272-6973-45f4-9272-65616b6f7574,3*%
%TF.SameCoordinates,Original*%
%TF.FileFunction,Other,User*%
%FSLAX46Y46*%
G04 Gerber Fmt 4.6, Leading zero omitted, Abs format (unit mm)*
G04 Created by KiCad (PCBNEW (6.0.9)) date 2023-01-09 12:20:17*
%MOMM*%
%LPD*%
G01*
G04 APERTURE LIST*
%ADD10C,0.050000*%
%ADD11C,0.050800*%
G04 APERTURE END LIST*
D10*
%TO.C,J20*%
X54414272Y-188625000D02*
X54414272Y-202375000D01*
X60564272Y-188625000D02*
X54414272Y-188625000D01*
X60564272Y-202375000D02*
X60564272Y-188625000D01*
X54414272Y-202375000D02*
X60564272Y-202375000D01*
%TO.C,H4*%
X193244300Y-211740000D02*
G75*
G03*
X193244300Y-211740000I-3100000J0D01*
G01*
%TO.C,J9*%
X154425000Y-53215000D02*
X154425000Y-66965000D01*
X154425000Y-66965000D02*
X160575000Y-66965000D01*
X160575000Y-66965000D02*
X160575000Y-53215000D01*
X160575000Y-53215000D02*
X154425000Y-53215000D01*
%TO.C,R6*%
X115329300Y-161495000D02*
X115329300Y-164855000D01*
X115329300Y-164855000D02*
X113429300Y-164855000D01*
X113429300Y-161495000D02*
X115329300Y-161495000D01*
X113429300Y-164855000D02*
X113429300Y-161495000D01*
%TO.C,U1*%
X125500000Y-67280000D02*
X125500000Y-93730000D01*
X82320000Y-67280000D02*
X82320000Y-93730000D01*
X88470000Y-67280000D02*
X82320000Y-67280000D01*
X131650000Y-67280000D02*
X125500000Y-67280000D01*
X125500000Y-93730000D02*
X131650000Y-93730000D01*
D11*
X131650000Y-93730000D02*
X131650000Y-67280000D01*
D10*
X82320000Y-93730000D02*
X88470000Y-93730000D01*
X88470000Y-93730000D02*
X88470000Y-67280000D01*
%TO.C,J15*%
X160575000Y-134375000D02*
X160575000Y-120625000D01*
X154425000Y-120625000D02*
X154425000Y-134375000D01*
X160575000Y-120625000D02*
X154425000Y-120625000D01*
X154425000Y-134375000D02*
X160575000Y-134375000D01*
%TO.C,J25*%
X90719300Y-147790000D02*
X82069300Y-147790000D01*
X82069300Y-151390000D02*
X90719300Y-151390000D01*
X82069300Y-147790000D02*
X82069300Y-151390000D01*
X90719300Y-151390000D02*
X90719300Y-147790000D01*
%TO.C,J24*%
X178075000Y-201875000D02*
X178075000Y-188125000D01*
X171925000Y-188125000D02*
X171925000Y-201875000D01*
X171925000Y-201875000D02*
X178075000Y-201875000D01*
X178075000Y-188125000D02*
X171925000Y-188125000D01*
%TO.C,J14*%
X171925000Y-98590000D02*
X171925000Y-112340000D01*
X171925000Y-112340000D02*
X178075000Y-112340000D01*
X178075000Y-98590000D02*
X171925000Y-98590000D01*
X178075000Y-112340000D02*
X178075000Y-98590000D01*
%TO.C,J16*%
X178075000Y-134375000D02*
X178075000Y-120625000D01*
X178075000Y-120625000D02*
X171925000Y-120625000D01*
X171925000Y-120625000D02*
X171925000Y-134375000D01*
X171925000Y-134375000D02*
X178075000Y-134375000D01*
%TO.C,R2*%
X89829300Y-161495000D02*
X89829300Y-164855000D01*
X87929300Y-164855000D02*
X87929300Y-161495000D01*
X89829300Y-164855000D02*
X87929300Y-164855000D01*
X87929300Y-161495000D02*
X89829300Y-161495000D01*
%TO.C,J7*%
X43075000Y-119270000D02*
X36925000Y-119270000D01*
X36925000Y-133020000D02*
X43075000Y-133020000D01*
X36925000Y-119270000D02*
X36925000Y-133020000D01*
X43075000Y-133020000D02*
X43075000Y-119270000D01*
%TO.C,H3*%
X28144300Y-211740000D02*
G75*
G03*
X28144300Y-211740000I-3100000J0D01*
G01*
%TO.C,J21*%
X154425000Y-179840000D02*
X160575000Y-179840000D01*
X154425000Y-166090000D02*
X154425000Y-179840000D01*
X160575000Y-166090000D02*
X154425000Y-166090000D01*
X160575000Y-179840000D02*
X160575000Y-166090000D01*
%TO.C,J6*%
X60575000Y-110985000D02*
X60575000Y-97235000D01*
X54425000Y-110985000D02*
X60575000Y-110985000D01*
X54425000Y-97235000D02*
X54425000Y-110985000D01*
X60575000Y-97235000D02*
X54425000Y-97235000D01*
%TO.C,R8*%
X127829300Y-164855000D02*
X125929300Y-164855000D01*
X127829300Y-161495000D02*
X127829300Y-164855000D01*
X125929300Y-164855000D02*
X125929300Y-161495000D01*
X125929300Y-161495000D02*
X127829300Y-161495000D01*
%TO.C,J12*%
X172065000Y-75695000D02*
X172065000Y-89445000D01*
X178215000Y-89445000D02*
X178215000Y-75695000D01*
X178215000Y-75695000D02*
X172065000Y-75695000D01*
X172065000Y-89445000D02*
X178215000Y-89445000D01*
%TO.C,J28*%
X120054300Y-147790000D02*
X120054300Y-151390000D01*
X120054300Y-151390000D02*
X128704300Y-151390000D01*
X128704300Y-151390000D02*
X128704300Y-147790000D01*
X128704300Y-147790000D02*
X120054300Y-147790000D01*
%TO.C,J27*%
X107554300Y-147790000D02*
X107554300Y-151390000D01*
X116204300Y-151390000D02*
X116204300Y-147790000D01*
X107554300Y-151390000D02*
X116204300Y-151390000D01*
X116204300Y-147790000D02*
X107554300Y-147790000D01*
%TO.C,J5*%
X43075000Y-97235000D02*
X36925000Y-97235000D01*
X36925000Y-110985000D02*
X43075000Y-110985000D01*
X43075000Y-110985000D02*
X43075000Y-97235000D01*
X36925000Y-97235000D02*
X36925000Y-110985000D01*
%TO.C,J2*%
X54565000Y-51970000D02*
X54565000Y-65720000D01*
X60715000Y-51970000D02*
X54565000Y-51970000D01*
X54565000Y-65720000D02*
X60715000Y-65720000D01*
X60715000Y-65720000D02*
X60715000Y-51970000D01*
%TO.C,H1*%
X28144300Y-46640000D02*
G75*
G03*
X28144300Y-46640000I-3100000J0D01*
G01*
%TO.C,R5*%
X110929300Y-164767500D02*
X110929300Y-161407500D01*
X110929300Y-161407500D02*
X112829300Y-161407500D01*
X112829300Y-164767500D02*
X110929300Y-164767500D01*
X112829300Y-161407500D02*
X112829300Y-164767500D01*
%TO.C,J26*%
X103204300Y-147790000D02*
X94554300Y-147790000D01*
X94554300Y-151390000D02*
X103204300Y-151390000D01*
X103204300Y-151390000D02*
X103204300Y-147790000D01*
X94554300Y-147790000D02*
X94554300Y-151390000D01*
%TO.C,J1*%
X36925000Y-65720000D02*
X43075000Y-65720000D01*
X36925000Y-51970000D02*
X36925000Y-65720000D01*
X43075000Y-51970000D02*
X36925000Y-51970000D01*
X43075000Y-65720000D02*
X43075000Y-51970000D01*
%TO.C,R3*%
X99829300Y-164855000D02*
X97929300Y-164855000D01*
X99829300Y-161495000D02*
X99829300Y-164855000D01*
X97929300Y-161495000D02*
X99829300Y-161495000D01*
X97929300Y-164855000D02*
X97929300Y-161495000D01*
%TO.C,J19*%
X43064272Y-202375000D02*
X43064272Y-188625000D01*
X36914272Y-202375000D02*
X43064272Y-202375000D01*
X36914272Y-188625000D02*
X36914272Y-202375000D01*
X43064272Y-188625000D02*
X36914272Y-188625000D01*
%TO.C,R7*%
X125329300Y-164855000D02*
X123429300Y-164855000D01*
X123429300Y-164855000D02*
X123429300Y-161495000D01*
X123429300Y-161495000D02*
X125329300Y-161495000D01*
X125329300Y-161495000D02*
X125329300Y-164855000D01*
%TO.C,J18*%
X54414272Y-180340000D02*
X60564272Y-180340000D01*
X54414272Y-166590000D02*
X54414272Y-180340000D01*
X60564272Y-180340000D02*
X60564272Y-166590000D01*
X60564272Y-166590000D02*
X54414272Y-166590000D01*
%TO.C,J10*%
X172065000Y-53215000D02*
X172065000Y-66965000D01*
X178215000Y-53215000D02*
X172065000Y-53215000D01*
X178215000Y-66965000D02*
X178215000Y-53215000D01*
X172065000Y-66965000D02*
X178215000Y-66965000D01*
%TO.C,J11*%
X160575000Y-89445000D02*
X160575000Y-75695000D01*
X160575000Y-75695000D02*
X154425000Y-75695000D01*
X154425000Y-75695000D02*
X154425000Y-89445000D01*
X154425000Y-89445000D02*
X160575000Y-89445000D01*
%TO.C,J3*%
X43075000Y-74805000D02*
X36925000Y-74805000D01*
X36925000Y-88555000D02*
X43075000Y-88555000D01*
X43075000Y-88555000D02*
X43075000Y-74805000D01*
X36925000Y-74805000D02*
X36925000Y-88555000D01*
%TO.C,R4*%
X102329300Y-161495000D02*
X102329300Y-164855000D01*
X102329300Y-164855000D02*
X100429300Y-164855000D01*
X100429300Y-161495000D02*
X102329300Y-161495000D01*
X100429300Y-164855000D02*
X100429300Y-161495000D01*
%TO.C,J22*%
X171925000Y-166090000D02*
X171925000Y-179840000D01*
X178075000Y-166090000D02*
X171925000Y-166090000D01*
X178075000Y-179840000D02*
X178075000Y-166090000D01*
X171925000Y-179840000D02*
X178075000Y-179840000D01*
%TO.C,J23*%
X154425000Y-188125000D02*
X154425000Y-201875000D01*
X160575000Y-188125000D02*
X154425000Y-188125000D01*
X160575000Y-201875000D02*
X160575000Y-188125000D01*
X154425000Y-201875000D02*
X160575000Y-201875000D01*
%TO.C,R1*%
X85429300Y-161407500D02*
X87329300Y-161407500D01*
X87329300Y-164767500D02*
X85429300Y-164767500D01*
X87329300Y-161407500D02*
X87329300Y-164767500D01*
X85429300Y-164767500D02*
X85429300Y-161407500D01*
%TO.C,J4*%
X54565000Y-88555000D02*
X60715000Y-88555000D01*
X60715000Y-88555000D02*
X60715000Y-74805000D01*
X54565000Y-74805000D02*
X54565000Y-88555000D01*
X60715000Y-74805000D02*
X54565000Y-74805000D01*
%TO.C,J29*%
X98665200Y-204160000D02*
X115305200Y-204160000D01*
X115305200Y-204160000D02*
X115305200Y-215060000D01*
X115305200Y-215060000D02*
X98665200Y-215060000D01*
X98665200Y-215060000D02*
X98665200Y-204160000D01*
%TO.C,H2*%
X193244300Y-46640000D02*
G75*
G03*
X193244300Y-46640000I-3100000J0D01*
G01*
%TO.C,J8*%
X60575000Y-119270000D02*
X54425000Y-119270000D01*
X54425000Y-133020000D02*
X60575000Y-133020000D01*
X54425000Y-119270000D02*
X54425000Y-133020000D01*
X60575000Y-133020000D02*
X60575000Y-119270000D01*
%TO.C,J13*%
X160575000Y-98590000D02*
X154425000Y-98590000D01*
X154425000Y-112340000D02*
X160575000Y-112340000D01*
X160575000Y-112340000D02*
X160575000Y-98590000D01*
X154425000Y-98590000D02*
X154425000Y-112340000D01*
%TO.C,J17*%
X43064272Y-166590000D02*
X36914272Y-166590000D01*
X36914272Y-166590000D02*
X36914272Y-180340000D01*
X43064272Y-180340000D02*
X43064272Y-166590000D01*
X36914272Y-180340000D02*
X43064272Y-180340000D01*
%TD*%
M02*
