M48
; DRILL file {KiCad (6.0.9)} date Mon 19 Dec 2022 12:22:11 PM EST
; FORMAT={-:-/ absolute / metric / decimal}
; #@! TF.CreationDate,2022-12-19T12:22:11-05:00
; #@! TF.GenerationSoftware,Kicad,Pcbnew,(6.0.9)
; #@! TF.FileFunction,Plated,1,2,PTH
FMAT,2
METRIC
; #@! TA.AperFunction,Plated,PTH,ViaDrill
T1C0.889
; #@! TA.AperFunction,Plated,PTH,ComponentDrill
T2C1.000
; #@! TA.AperFunction,Plated,PTH,ComponentDrill
T3C3.200
%
G90
G05
T1
X101.605Y-52.756
X101.605Y-71.661
X101.605Y-90.114
X111.506Y-58.623
X119.812Y-90.114
X138.836Y-52.756
X138.836Y-90.114
T2
X100.33Y-58.029
X100.33Y-60.569
X100.33Y-63.109
X100.33Y-65.649
X100.33Y-68.189
X100.33Y-75.133
X100.33Y-77.673
X100.33Y-80.213
X100.33Y-82.753
X100.33Y-85.293
X102.87Y-58.029
X102.87Y-60.569
X102.87Y-63.109
X102.87Y-65.649
X102.87Y-68.189
X102.87Y-75.133
X102.87Y-77.673
X102.87Y-80.213
X102.87Y-82.753
X102.87Y-85.293
X106.391Y-88.849
X106.391Y-91.389
X106.477Y-51.486
X106.477Y-54.026
X108.931Y-88.849
X108.931Y-91.389
X109.017Y-51.486
X109.017Y-54.026
X111.466Y-63.104
X111.466Y-71.661
X111.466Y-80.208
X111.471Y-88.849
X111.471Y-91.389
X111.557Y-51.486
X111.557Y-54.026
X114.011Y-88.849
X114.011Y-91.389
X114.097Y-51.486
X114.097Y-54.026
X116.551Y-88.849
X116.551Y-91.389
X116.637Y-51.486
X116.637Y-54.026
X119.812Y-63.084
X119.812Y-71.641
X119.812Y-80.188
X123.495Y-88.849
X123.495Y-91.389
X123.581Y-51.486
X123.581Y-54.026
X126.035Y-88.849
X126.035Y-91.389
X126.121Y-51.486
X126.121Y-54.026
X128.57Y-63.104
X128.57Y-71.661
X128.57Y-80.208
X128.575Y-88.849
X128.575Y-91.389
X128.661Y-51.486
X128.661Y-54.026
X131.115Y-88.849
X131.115Y-91.389
X131.201Y-51.486
X131.201Y-54.026
X133.655Y-88.849
X133.655Y-91.389
X133.741Y-51.486
X133.741Y-54.026
X137.566Y-57.633
X137.566Y-60.173
X137.566Y-62.713
X137.566Y-65.253
X137.566Y-67.793
X137.566Y-74.737
X137.566Y-77.277
X137.566Y-79.817
X137.566Y-82.357
X137.566Y-84.897
X140.106Y-57.633
X140.106Y-60.173
X140.106Y-62.713
X140.106Y-65.253
X140.106Y-67.793
X140.106Y-74.737
X140.106Y-77.277
X140.106Y-79.817
X140.106Y-82.357
X140.106Y-84.897
T3
X92.1Y-43.129
X92.354Y-99.085
X148.819Y-43.129
X148.819Y-99.085
T0
M30
