%TF.GenerationSoftware,KiCad,Pcbnew,(6.0.9)*%
%TF.CreationDate,2023-01-09T12:20:16-05:00*%
%TF.ProjectId,Perris_Breakout,50657272-6973-45f4-9272-65616b6f7574,3*%
%TF.SameCoordinates,Original*%
%TF.FileFunction,Legend,Top*%
%TF.FilePolarity,Positive*%
%FSLAX46Y46*%
G04 Gerber Fmt 4.6, Leading zero omitted, Abs format (unit mm)*
G04 Created by KiCad (PCBNEW (6.0.9)) date 2023-01-09 12:20:16*
%MOMM*%
%LPD*%
G01*
G04 APERTURE LIST*
%ADD10C,0.150000*%
%ADD11C,0.152400*%
%ADD12C,0.300000*%
%ADD13C,0.500000*%
%ADD14C,0.120000*%
G04 APERTURE END LIST*
D10*
X145500000Y-49050000D02*
X185000000Y-49050000D01*
X185000000Y-49050000D02*
X185000000Y-138550000D01*
X185000000Y-138550000D02*
X145500000Y-138550000D01*
X145500000Y-138550000D02*
X145500000Y-49050000D01*
X146688922Y-161612500D02*
X185623922Y-161612500D01*
X185623922Y-161612500D02*
X185623922Y-206362500D01*
X185623922Y-206362500D02*
X146688922Y-206362500D01*
X146688922Y-206362500D02*
X146688922Y-161612500D01*
D11*
X132490000Y-122500000D02*
X81500000Y-122500000D01*
D10*
X102500001Y-203950000D02*
G75*
G03*
X102500001Y-203950000I-1J0D01*
G01*
X111500001Y-203950000D02*
G75*
G03*
X111500001Y-203950000I-1J0D01*
G01*
X29211072Y-162112500D02*
X68146072Y-162112500D01*
X68146072Y-162112500D02*
X68146072Y-206862500D01*
X68146072Y-206862500D02*
X29211072Y-206862500D01*
X29211072Y-206862500D02*
X29211072Y-162112500D01*
D11*
X81490000Y-56320000D02*
X132480000Y-56310000D01*
X81500000Y-122500000D02*
X81490000Y-56320000D01*
D10*
X29250000Y-47750000D02*
X68750000Y-47750000D01*
X68750000Y-47750000D02*
X68750000Y-137250000D01*
X68750000Y-137250000D02*
X29250000Y-137250000D01*
X29250000Y-137250000D02*
X29250000Y-47750000D01*
D11*
X132480000Y-56310000D02*
X132490000Y-122500000D01*
D10*
X161138095Y-189300000D02*
X161042857Y-189252380D01*
X160900000Y-189252380D01*
X160757142Y-189300000D01*
X160661904Y-189395238D01*
X160614285Y-189490476D01*
X160566666Y-189680952D01*
X160566666Y-189823809D01*
X160614285Y-190014285D01*
X160661904Y-190109523D01*
X160757142Y-190204761D01*
X160900000Y-190252380D01*
X160995238Y-190252380D01*
X161138095Y-190204761D01*
X161185714Y-190157142D01*
X161185714Y-189823809D01*
X160995238Y-189823809D01*
X161614285Y-190252380D02*
X161614285Y-189252380D01*
X162185714Y-190252380D01*
X162185714Y-189252380D01*
X162661904Y-190252380D02*
X162661904Y-189252380D01*
X162900000Y-189252380D01*
X163042857Y-189300000D01*
X163138095Y-189395238D01*
X163185714Y-189490476D01*
X163233333Y-189680952D01*
X163233333Y-189823809D01*
X163185714Y-190014285D01*
X163138095Y-190109523D01*
X163042857Y-190204761D01*
X162900000Y-190252380D01*
X162661904Y-190252380D01*
X160585714Y-111954761D02*
X160728571Y-112002380D01*
X160966666Y-112002380D01*
X161061904Y-111954761D01*
X161109523Y-111907142D01*
X161157142Y-111811904D01*
X161157142Y-111716666D01*
X161109523Y-111621428D01*
X161061904Y-111573809D01*
X160966666Y-111526190D01*
X160776190Y-111478571D01*
X160680952Y-111430952D01*
X160633333Y-111383333D01*
X160585714Y-111288095D01*
X160585714Y-111192857D01*
X160633333Y-111097619D01*
X160680952Y-111050000D01*
X160776190Y-111002380D01*
X161014285Y-111002380D01*
X161157142Y-111050000D01*
X161585714Y-112002380D02*
X161585714Y-111002380D01*
X161823809Y-111002380D01*
X161966666Y-111050000D01*
X162061904Y-111145238D01*
X162109523Y-111240476D01*
X162157142Y-111430952D01*
X162157142Y-111573809D01*
X162109523Y-111764285D01*
X162061904Y-111859523D01*
X161966666Y-111954761D01*
X161823809Y-112002380D01*
X161585714Y-112002380D01*
X162538095Y-111716666D02*
X163014285Y-111716666D01*
X162442857Y-112002380D02*
X162776190Y-111002380D01*
X163109523Y-112002380D01*
X107785714Y-162404761D02*
X107928571Y-162452380D01*
X108166666Y-162452380D01*
X108261904Y-162404761D01*
X108309523Y-162357142D01*
X108357142Y-162261904D01*
X108357142Y-162166666D01*
X108309523Y-162071428D01*
X108261904Y-162023809D01*
X108166666Y-161976190D01*
X107976190Y-161928571D01*
X107880952Y-161880952D01*
X107833333Y-161833333D01*
X107785714Y-161738095D01*
X107785714Y-161642857D01*
X107833333Y-161547619D01*
X107880952Y-161500000D01*
X107976190Y-161452380D01*
X108214285Y-161452380D01*
X108357142Y-161500000D01*
X108785714Y-162452380D02*
X108785714Y-161452380D01*
X109023809Y-161452380D01*
X109166666Y-161500000D01*
X109261904Y-161595238D01*
X109309523Y-161690476D01*
X109357142Y-161880952D01*
X109357142Y-162023809D01*
X109309523Y-162214285D01*
X109261904Y-162309523D01*
X109166666Y-162404761D01*
X109023809Y-162452380D01*
X108785714Y-162452380D01*
X109738095Y-162166666D02*
X110214285Y-162166666D01*
X109642857Y-162452380D02*
X109976190Y-161452380D01*
X110309523Y-162452380D01*
X160685714Y-66554761D02*
X160828571Y-66602380D01*
X161066666Y-66602380D01*
X161161904Y-66554761D01*
X161209523Y-66507142D01*
X161257142Y-66411904D01*
X161257142Y-66316666D01*
X161209523Y-66221428D01*
X161161904Y-66173809D01*
X161066666Y-66126190D01*
X160876190Y-66078571D01*
X160780952Y-66030952D01*
X160733333Y-65983333D01*
X160685714Y-65888095D01*
X160685714Y-65792857D01*
X160733333Y-65697619D01*
X160780952Y-65650000D01*
X160876190Y-65602380D01*
X161114285Y-65602380D01*
X161257142Y-65650000D01*
X161685714Y-66602380D02*
X161685714Y-65602380D01*
X161923809Y-65602380D01*
X162066666Y-65650000D01*
X162161904Y-65745238D01*
X162209523Y-65840476D01*
X162257142Y-66030952D01*
X162257142Y-66173809D01*
X162209523Y-66364285D01*
X162161904Y-66459523D01*
X162066666Y-66554761D01*
X161923809Y-66602380D01*
X161685714Y-66602380D01*
X162638095Y-66316666D02*
X163114285Y-66316666D01*
X162542857Y-66602380D02*
X162876190Y-65602380D01*
X163209523Y-66602380D01*
X178085714Y-88904761D02*
X178228571Y-88952380D01*
X178466666Y-88952380D01*
X178561904Y-88904761D01*
X178609523Y-88857142D01*
X178657142Y-88761904D01*
X178657142Y-88666666D01*
X178609523Y-88571428D01*
X178561904Y-88523809D01*
X178466666Y-88476190D01*
X178276190Y-88428571D01*
X178180952Y-88380952D01*
X178133333Y-88333333D01*
X178085714Y-88238095D01*
X178085714Y-88142857D01*
X178133333Y-88047619D01*
X178180952Y-88000000D01*
X178276190Y-87952380D01*
X178514285Y-87952380D01*
X178657142Y-88000000D01*
X179085714Y-88952380D02*
X179085714Y-87952380D01*
X179323809Y-87952380D01*
X179466666Y-88000000D01*
X179561904Y-88095238D01*
X179609523Y-88190476D01*
X179657142Y-88380952D01*
X179657142Y-88523809D01*
X179609523Y-88714285D01*
X179561904Y-88809523D01*
X179466666Y-88904761D01*
X179323809Y-88952380D01*
X179085714Y-88952380D01*
X180038095Y-88666666D02*
X180514285Y-88666666D01*
X179942857Y-88952380D02*
X180276190Y-87952380D01*
X180609523Y-88952380D01*
X60585714Y-201879761D02*
X60728571Y-201927380D01*
X60966666Y-201927380D01*
X61061904Y-201879761D01*
X61109523Y-201832142D01*
X61157142Y-201736904D01*
X61157142Y-201641666D01*
X61109523Y-201546428D01*
X61061904Y-201498809D01*
X60966666Y-201451190D01*
X60776190Y-201403571D01*
X60680952Y-201355952D01*
X60633333Y-201308333D01*
X60585714Y-201213095D01*
X60585714Y-201117857D01*
X60633333Y-201022619D01*
X60680952Y-200975000D01*
X60776190Y-200927380D01*
X61014285Y-200927380D01*
X61157142Y-200975000D01*
X61585714Y-201927380D02*
X61585714Y-200927380D01*
X61823809Y-200927380D01*
X61966666Y-200975000D01*
X62061904Y-201070238D01*
X62109523Y-201165476D01*
X62157142Y-201355952D01*
X62157142Y-201498809D01*
X62109523Y-201689285D01*
X62061904Y-201784523D01*
X61966666Y-201879761D01*
X61823809Y-201927380D01*
X61585714Y-201927380D01*
X62538095Y-201641666D02*
X63014285Y-201641666D01*
X62442857Y-201927380D02*
X62776190Y-200927380D01*
X63109523Y-201927380D01*
X90309523Y-162404761D02*
X90452380Y-162452380D01*
X90690476Y-162452380D01*
X90785714Y-162404761D01*
X90833333Y-162357142D01*
X90880952Y-162261904D01*
X90880952Y-162166666D01*
X90833333Y-162071428D01*
X90785714Y-162023809D01*
X90690476Y-161976190D01*
X90500000Y-161928571D01*
X90404761Y-161880952D01*
X90357142Y-161833333D01*
X90309523Y-161738095D01*
X90309523Y-161642857D01*
X90357142Y-161547619D01*
X90404761Y-161500000D01*
X90500000Y-161452380D01*
X90738095Y-161452380D01*
X90880952Y-161500000D01*
X91880952Y-162357142D02*
X91833333Y-162404761D01*
X91690476Y-162452380D01*
X91595238Y-162452380D01*
X91452380Y-162404761D01*
X91357142Y-162309523D01*
X91309523Y-162214285D01*
X91261904Y-162023809D01*
X91261904Y-161880952D01*
X91309523Y-161690476D01*
X91357142Y-161595238D01*
X91452380Y-161500000D01*
X91595238Y-161452380D01*
X91690476Y-161452380D01*
X91833333Y-161500000D01*
X91880952Y-161547619D01*
X92785714Y-162452380D02*
X92309523Y-162452380D01*
X92309523Y-161452380D01*
X128309523Y-162404761D02*
X128452380Y-162452380D01*
X128690476Y-162452380D01*
X128785714Y-162404761D01*
X128833333Y-162357142D01*
X128880952Y-162261904D01*
X128880952Y-162166666D01*
X128833333Y-162071428D01*
X128785714Y-162023809D01*
X128690476Y-161976190D01*
X128500000Y-161928571D01*
X128404761Y-161880952D01*
X128357142Y-161833333D01*
X128309523Y-161738095D01*
X128309523Y-161642857D01*
X128357142Y-161547619D01*
X128404761Y-161500000D01*
X128500000Y-161452380D01*
X128738095Y-161452380D01*
X128880952Y-161500000D01*
X129880952Y-162357142D02*
X129833333Y-162404761D01*
X129690476Y-162452380D01*
X129595238Y-162452380D01*
X129452380Y-162404761D01*
X129357142Y-162309523D01*
X129309523Y-162214285D01*
X129261904Y-162023809D01*
X129261904Y-161880952D01*
X129309523Y-161690476D01*
X129357142Y-161595238D01*
X129452380Y-161500000D01*
X129595238Y-161452380D01*
X129690476Y-161452380D01*
X129833333Y-161500000D01*
X129880952Y-161547619D01*
X130785714Y-162452380D02*
X130309523Y-162452380D01*
X130309523Y-161452380D01*
X178185714Y-66379761D02*
X178328571Y-66427380D01*
X178566666Y-66427380D01*
X178661904Y-66379761D01*
X178709523Y-66332142D01*
X178757142Y-66236904D01*
X178757142Y-66141666D01*
X178709523Y-66046428D01*
X178661904Y-65998809D01*
X178566666Y-65951190D01*
X178376190Y-65903571D01*
X178280952Y-65855952D01*
X178233333Y-65808333D01*
X178185714Y-65713095D01*
X178185714Y-65617857D01*
X178233333Y-65522619D01*
X178280952Y-65475000D01*
X178376190Y-65427380D01*
X178614285Y-65427380D01*
X178757142Y-65475000D01*
X179185714Y-66427380D02*
X179185714Y-65427380D01*
X179423809Y-65427380D01*
X179566666Y-65475000D01*
X179661904Y-65570238D01*
X179709523Y-65665476D01*
X179757142Y-65855952D01*
X179757142Y-65998809D01*
X179709523Y-66189285D01*
X179661904Y-66284523D01*
X179566666Y-66379761D01*
X179423809Y-66427380D01*
X179185714Y-66427380D01*
X180138095Y-66141666D02*
X180614285Y-66141666D01*
X180042857Y-66427380D02*
X180376190Y-65427380D01*
X180709523Y-66427380D01*
X43085714Y-179854761D02*
X43228571Y-179902380D01*
X43466666Y-179902380D01*
X43561904Y-179854761D01*
X43609523Y-179807142D01*
X43657142Y-179711904D01*
X43657142Y-179616666D01*
X43609523Y-179521428D01*
X43561904Y-179473809D01*
X43466666Y-179426190D01*
X43276190Y-179378571D01*
X43180952Y-179330952D01*
X43133333Y-179283333D01*
X43085714Y-179188095D01*
X43085714Y-179092857D01*
X43133333Y-178997619D01*
X43180952Y-178950000D01*
X43276190Y-178902380D01*
X43514285Y-178902380D01*
X43657142Y-178950000D01*
X44085714Y-179902380D02*
X44085714Y-178902380D01*
X44323809Y-178902380D01*
X44466666Y-178950000D01*
X44561904Y-179045238D01*
X44609523Y-179140476D01*
X44657142Y-179330952D01*
X44657142Y-179473809D01*
X44609523Y-179664285D01*
X44561904Y-179759523D01*
X44466666Y-179854761D01*
X44323809Y-179902380D01*
X44085714Y-179902380D01*
X45038095Y-179616666D02*
X45514285Y-179616666D01*
X44942857Y-179902380D02*
X45276190Y-178902380D01*
X45609523Y-179902380D01*
X52009523Y-65629761D02*
X52152380Y-65677380D01*
X52390476Y-65677380D01*
X52485714Y-65629761D01*
X52533333Y-65582142D01*
X52580952Y-65486904D01*
X52580952Y-65391666D01*
X52533333Y-65296428D01*
X52485714Y-65248809D01*
X52390476Y-65201190D01*
X52200000Y-65153571D01*
X52104761Y-65105952D01*
X52057142Y-65058333D01*
X52009523Y-64963095D01*
X52009523Y-64867857D01*
X52057142Y-64772619D01*
X52104761Y-64725000D01*
X52200000Y-64677380D01*
X52438095Y-64677380D01*
X52580952Y-64725000D01*
X53580952Y-65582142D02*
X53533333Y-65629761D01*
X53390476Y-65677380D01*
X53295238Y-65677380D01*
X53152380Y-65629761D01*
X53057142Y-65534523D01*
X53009523Y-65439285D01*
X52961904Y-65248809D01*
X52961904Y-65105952D01*
X53009523Y-64915476D01*
X53057142Y-64820238D01*
X53152380Y-64725000D01*
X53295238Y-64677380D01*
X53390476Y-64677380D01*
X53533333Y-64725000D01*
X53580952Y-64772619D01*
X54485714Y-65677380D02*
X54009523Y-65677380D01*
X54009523Y-64677380D01*
X161138095Y-121700000D02*
X161042857Y-121652380D01*
X160900000Y-121652380D01*
X160757142Y-121700000D01*
X160661904Y-121795238D01*
X160614285Y-121890476D01*
X160566666Y-122080952D01*
X160566666Y-122223809D01*
X160614285Y-122414285D01*
X160661904Y-122509523D01*
X160757142Y-122604761D01*
X160900000Y-122652380D01*
X160995238Y-122652380D01*
X161138095Y-122604761D01*
X161185714Y-122557142D01*
X161185714Y-122223809D01*
X160995238Y-122223809D01*
X161614285Y-122652380D02*
X161614285Y-121652380D01*
X162185714Y-122652380D01*
X162185714Y-121652380D01*
X162661904Y-122652380D02*
X162661904Y-121652380D01*
X162900000Y-121652380D01*
X163042857Y-121700000D01*
X163138095Y-121795238D01*
X163185714Y-121890476D01*
X163233333Y-122080952D01*
X163233333Y-122223809D01*
X163185714Y-122414285D01*
X163138095Y-122509523D01*
X163042857Y-122604761D01*
X162900000Y-122652380D01*
X162661904Y-122652380D01*
X107990476Y-120247619D02*
X107419047Y-120247619D01*
X107704761Y-119247619D02*
X107704761Y-120247619D01*
X106942857Y-119247619D02*
X107038095Y-119295238D01*
X107085714Y-119342857D01*
X107133333Y-119438095D01*
X107133333Y-119723809D01*
X107085714Y-119819047D01*
X107038095Y-119866666D01*
X106942857Y-119914285D01*
X106800000Y-119914285D01*
X106704761Y-119866666D01*
X106657142Y-119819047D01*
X106609523Y-119723809D01*
X106609523Y-119438095D01*
X106657142Y-119342857D01*
X106704761Y-119295238D01*
X106800000Y-119247619D01*
X106942857Y-119247619D01*
X106180952Y-119914285D02*
X106180952Y-118914285D01*
X106180952Y-119866666D02*
X106085714Y-119914285D01*
X105895238Y-119914285D01*
X105800000Y-119866666D01*
X105752380Y-119819047D01*
X105704761Y-119723809D01*
X105704761Y-119438095D01*
X105752380Y-119342857D01*
X105800000Y-119295238D01*
X105895238Y-119247619D01*
X106085714Y-119247619D01*
X106180952Y-119295238D01*
X61138095Y-98300000D02*
X61042857Y-98252380D01*
X60900000Y-98252380D01*
X60757142Y-98300000D01*
X60661904Y-98395238D01*
X60614285Y-98490476D01*
X60566666Y-98680952D01*
X60566666Y-98823809D01*
X60614285Y-99014285D01*
X60661904Y-99109523D01*
X60757142Y-99204761D01*
X60900000Y-99252380D01*
X60995238Y-99252380D01*
X61138095Y-99204761D01*
X61185714Y-99157142D01*
X61185714Y-98823809D01*
X60995238Y-98823809D01*
X61614285Y-99252380D02*
X61614285Y-98252380D01*
X62185714Y-99252380D01*
X62185714Y-98252380D01*
X62661904Y-99252380D02*
X62661904Y-98252380D01*
X62900000Y-98252380D01*
X63042857Y-98300000D01*
X63138095Y-98395238D01*
X63185714Y-98490476D01*
X63233333Y-98680952D01*
X63233333Y-98823809D01*
X63185714Y-99014285D01*
X63138095Y-99109523D01*
X63042857Y-99204761D01*
X62900000Y-99252380D01*
X62661904Y-99252380D01*
X34409523Y-132504761D02*
X34552380Y-132552380D01*
X34790476Y-132552380D01*
X34885714Y-132504761D01*
X34933333Y-132457142D01*
X34980952Y-132361904D01*
X34980952Y-132266666D01*
X34933333Y-132171428D01*
X34885714Y-132123809D01*
X34790476Y-132076190D01*
X34600000Y-132028571D01*
X34504761Y-131980952D01*
X34457142Y-131933333D01*
X34409523Y-131838095D01*
X34409523Y-131742857D01*
X34457142Y-131647619D01*
X34504761Y-131600000D01*
X34600000Y-131552380D01*
X34838095Y-131552380D01*
X34980952Y-131600000D01*
X35980952Y-132457142D02*
X35933333Y-132504761D01*
X35790476Y-132552380D01*
X35695238Y-132552380D01*
X35552380Y-132504761D01*
X35457142Y-132409523D01*
X35409523Y-132314285D01*
X35361904Y-132123809D01*
X35361904Y-131980952D01*
X35409523Y-131790476D01*
X35457142Y-131695238D01*
X35552380Y-131600000D01*
X35695238Y-131552380D01*
X35790476Y-131552380D01*
X35933333Y-131600000D01*
X35980952Y-131647619D01*
X36885714Y-132552380D02*
X36409523Y-132552380D01*
X36409523Y-131552380D01*
X60585714Y-132679761D02*
X60728571Y-132727380D01*
X60966666Y-132727380D01*
X61061904Y-132679761D01*
X61109523Y-132632142D01*
X61157142Y-132536904D01*
X61157142Y-132441666D01*
X61109523Y-132346428D01*
X61061904Y-132298809D01*
X60966666Y-132251190D01*
X60776190Y-132203571D01*
X60680952Y-132155952D01*
X60633333Y-132108333D01*
X60585714Y-132013095D01*
X60585714Y-131917857D01*
X60633333Y-131822619D01*
X60680952Y-131775000D01*
X60776190Y-131727380D01*
X61014285Y-131727380D01*
X61157142Y-131775000D01*
X61585714Y-132727380D02*
X61585714Y-131727380D01*
X61823809Y-131727380D01*
X61966666Y-131775000D01*
X62061904Y-131870238D01*
X62109523Y-131965476D01*
X62157142Y-132155952D01*
X62157142Y-132298809D01*
X62109523Y-132489285D01*
X62061904Y-132584523D01*
X61966666Y-132679761D01*
X61823809Y-132727380D01*
X61585714Y-132727380D01*
X62538095Y-132441666D02*
X63014285Y-132441666D01*
X62442857Y-132727380D02*
X62776190Y-131727380D01*
X63109523Y-132727380D01*
X110166666Y-147452380D02*
X110166666Y-146452380D01*
X110595238Y-146547619D02*
X110642857Y-146500000D01*
X110738095Y-146452380D01*
X110976190Y-146452380D01*
X111071428Y-146500000D01*
X111119047Y-146547619D01*
X111166666Y-146642857D01*
X111166666Y-146738095D01*
X111119047Y-146880952D01*
X110547619Y-147452380D01*
X111166666Y-147452380D01*
X112166666Y-147357142D02*
X112119047Y-147404761D01*
X111976190Y-147452380D01*
X111880952Y-147452380D01*
X111738095Y-147404761D01*
X111642857Y-147309523D01*
X111595238Y-147214285D01*
X111547619Y-147023809D01*
X111547619Y-146880952D01*
X111595238Y-146690476D01*
X111642857Y-146595238D01*
X111738095Y-146500000D01*
X111880952Y-146452380D01*
X111976190Y-146452380D01*
X112119047Y-146500000D01*
X112166666Y-146547619D01*
X113309523Y-146547619D02*
X113357142Y-146500000D01*
X113452380Y-146452380D01*
X113690476Y-146452380D01*
X113785714Y-146500000D01*
X113833333Y-146547619D01*
X113880952Y-146642857D01*
X113880952Y-146738095D01*
X113833333Y-146880952D01*
X113261904Y-147452380D01*
X113880952Y-147452380D01*
X61238095Y-75725000D02*
X61142857Y-75677380D01*
X61000000Y-75677380D01*
X60857142Y-75725000D01*
X60761904Y-75820238D01*
X60714285Y-75915476D01*
X60666666Y-76105952D01*
X60666666Y-76248809D01*
X60714285Y-76439285D01*
X60761904Y-76534523D01*
X60857142Y-76629761D01*
X61000000Y-76677380D01*
X61095238Y-76677380D01*
X61238095Y-76629761D01*
X61285714Y-76582142D01*
X61285714Y-76248809D01*
X61095238Y-76248809D01*
X61714285Y-76677380D02*
X61714285Y-75677380D01*
X62285714Y-76677380D01*
X62285714Y-75677380D01*
X62761904Y-76677380D02*
X62761904Y-75677380D01*
X63000000Y-75677380D01*
X63142857Y-75725000D01*
X63238095Y-75820238D01*
X63285714Y-75915476D01*
X63333333Y-76105952D01*
X63333333Y-76248809D01*
X63285714Y-76439285D01*
X63238095Y-76534523D01*
X63142857Y-76629761D01*
X63000000Y-76677380D01*
X62761904Y-76677380D01*
X151909523Y-88829761D02*
X152052380Y-88877380D01*
X152290476Y-88877380D01*
X152385714Y-88829761D01*
X152433333Y-88782142D01*
X152480952Y-88686904D01*
X152480952Y-88591666D01*
X152433333Y-88496428D01*
X152385714Y-88448809D01*
X152290476Y-88401190D01*
X152100000Y-88353571D01*
X152004761Y-88305952D01*
X151957142Y-88258333D01*
X151909523Y-88163095D01*
X151909523Y-88067857D01*
X151957142Y-87972619D01*
X152004761Y-87925000D01*
X152100000Y-87877380D01*
X152338095Y-87877380D01*
X152480952Y-87925000D01*
X153480952Y-88782142D02*
X153433333Y-88829761D01*
X153290476Y-88877380D01*
X153195238Y-88877380D01*
X153052380Y-88829761D01*
X152957142Y-88734523D01*
X152909523Y-88639285D01*
X152861904Y-88448809D01*
X152861904Y-88305952D01*
X152909523Y-88115476D01*
X152957142Y-88020238D01*
X153052380Y-87925000D01*
X153195238Y-87877380D01*
X153290476Y-87877380D01*
X153433333Y-87925000D01*
X153480952Y-87972619D01*
X154385714Y-88877380D02*
X153909523Y-88877380D01*
X153909523Y-87877380D01*
X61138095Y-189700000D02*
X61042857Y-189652380D01*
X60900000Y-189652380D01*
X60757142Y-189700000D01*
X60661904Y-189795238D01*
X60614285Y-189890476D01*
X60566666Y-190080952D01*
X60566666Y-190223809D01*
X60614285Y-190414285D01*
X60661904Y-190509523D01*
X60757142Y-190604761D01*
X60900000Y-190652380D01*
X60995238Y-190652380D01*
X61138095Y-190604761D01*
X61185714Y-190557142D01*
X61185714Y-190223809D01*
X60995238Y-190223809D01*
X61614285Y-190652380D02*
X61614285Y-189652380D01*
X62185714Y-190652380D01*
X62185714Y-189652380D01*
X62661904Y-190652380D02*
X62661904Y-189652380D01*
X62900000Y-189652380D01*
X63042857Y-189700000D01*
X63138095Y-189795238D01*
X63185714Y-189890476D01*
X63233333Y-190080952D01*
X63233333Y-190223809D01*
X63185714Y-190414285D01*
X63138095Y-190509523D01*
X63042857Y-190604761D01*
X62900000Y-190652380D01*
X62661904Y-190652380D01*
X151909523Y-179479761D02*
X152052380Y-179527380D01*
X152290476Y-179527380D01*
X152385714Y-179479761D01*
X152433333Y-179432142D01*
X152480952Y-179336904D01*
X152480952Y-179241666D01*
X152433333Y-179146428D01*
X152385714Y-179098809D01*
X152290476Y-179051190D01*
X152100000Y-179003571D01*
X152004761Y-178955952D01*
X151957142Y-178908333D01*
X151909523Y-178813095D01*
X151909523Y-178717857D01*
X151957142Y-178622619D01*
X152004761Y-178575000D01*
X152100000Y-178527380D01*
X152338095Y-178527380D01*
X152480952Y-178575000D01*
X153480952Y-179432142D02*
X153433333Y-179479761D01*
X153290476Y-179527380D01*
X153195238Y-179527380D01*
X153052380Y-179479761D01*
X152957142Y-179384523D01*
X152909523Y-179289285D01*
X152861904Y-179098809D01*
X152861904Y-178955952D01*
X152909523Y-178765476D01*
X152957142Y-178670238D01*
X153052380Y-178575000D01*
X153195238Y-178527380D01*
X153290476Y-178527380D01*
X153433333Y-178575000D01*
X153480952Y-178622619D01*
X154385714Y-179527380D02*
X153909523Y-179527380D01*
X153909523Y-178527380D01*
X43738095Y-75825000D02*
X43642857Y-75777380D01*
X43500000Y-75777380D01*
X43357142Y-75825000D01*
X43261904Y-75920238D01*
X43214285Y-76015476D01*
X43166666Y-76205952D01*
X43166666Y-76348809D01*
X43214285Y-76539285D01*
X43261904Y-76634523D01*
X43357142Y-76729761D01*
X43500000Y-76777380D01*
X43595238Y-76777380D01*
X43738095Y-76729761D01*
X43785714Y-76682142D01*
X43785714Y-76348809D01*
X43595238Y-76348809D01*
X44214285Y-76777380D02*
X44214285Y-75777380D01*
X44785714Y-76777380D01*
X44785714Y-75777380D01*
X45261904Y-76777380D02*
X45261904Y-75777380D01*
X45500000Y-75777380D01*
X45642857Y-75825000D01*
X45738095Y-75920238D01*
X45785714Y-76015476D01*
X45833333Y-76205952D01*
X45833333Y-76348809D01*
X45785714Y-76539285D01*
X45738095Y-76634523D01*
X45642857Y-76729761D01*
X45500000Y-76777380D01*
X45261904Y-76777380D01*
X34409523Y-201704761D02*
X34552380Y-201752380D01*
X34790476Y-201752380D01*
X34885714Y-201704761D01*
X34933333Y-201657142D01*
X34980952Y-201561904D01*
X34980952Y-201466666D01*
X34933333Y-201371428D01*
X34885714Y-201323809D01*
X34790476Y-201276190D01*
X34600000Y-201228571D01*
X34504761Y-201180952D01*
X34457142Y-201133333D01*
X34409523Y-201038095D01*
X34409523Y-200942857D01*
X34457142Y-200847619D01*
X34504761Y-200800000D01*
X34600000Y-200752380D01*
X34838095Y-200752380D01*
X34980952Y-200800000D01*
X35980952Y-201657142D02*
X35933333Y-201704761D01*
X35790476Y-201752380D01*
X35695238Y-201752380D01*
X35552380Y-201704761D01*
X35457142Y-201609523D01*
X35409523Y-201514285D01*
X35361904Y-201323809D01*
X35361904Y-201180952D01*
X35409523Y-200990476D01*
X35457142Y-200895238D01*
X35552380Y-200800000D01*
X35695238Y-200752380D01*
X35790476Y-200752380D01*
X35933333Y-200800000D01*
X35980952Y-200847619D01*
X36885714Y-201752380D02*
X36409523Y-201752380D01*
X36409523Y-200752380D01*
X151909523Y-111879761D02*
X152052380Y-111927380D01*
X152290476Y-111927380D01*
X152385714Y-111879761D01*
X152433333Y-111832142D01*
X152480952Y-111736904D01*
X152480952Y-111641666D01*
X152433333Y-111546428D01*
X152385714Y-111498809D01*
X152290476Y-111451190D01*
X152100000Y-111403571D01*
X152004761Y-111355952D01*
X151957142Y-111308333D01*
X151909523Y-111213095D01*
X151909523Y-111117857D01*
X151957142Y-111022619D01*
X152004761Y-110975000D01*
X152100000Y-110927380D01*
X152338095Y-110927380D01*
X152480952Y-110975000D01*
X153480952Y-111832142D02*
X153433333Y-111879761D01*
X153290476Y-111927380D01*
X153195238Y-111927380D01*
X153052380Y-111879761D01*
X152957142Y-111784523D01*
X152909523Y-111689285D01*
X152861904Y-111498809D01*
X152861904Y-111355952D01*
X152909523Y-111165476D01*
X152957142Y-111070238D01*
X153052380Y-110975000D01*
X153195238Y-110927380D01*
X153290476Y-110927380D01*
X153433333Y-110975000D01*
X153480952Y-111022619D01*
X154385714Y-111927380D02*
X153909523Y-111927380D01*
X153909523Y-110927380D01*
X34409523Y-110579761D02*
X34552380Y-110627380D01*
X34790476Y-110627380D01*
X34885714Y-110579761D01*
X34933333Y-110532142D01*
X34980952Y-110436904D01*
X34980952Y-110341666D01*
X34933333Y-110246428D01*
X34885714Y-110198809D01*
X34790476Y-110151190D01*
X34600000Y-110103571D01*
X34504761Y-110055952D01*
X34457142Y-110008333D01*
X34409523Y-109913095D01*
X34409523Y-109817857D01*
X34457142Y-109722619D01*
X34504761Y-109675000D01*
X34600000Y-109627380D01*
X34838095Y-109627380D01*
X34980952Y-109675000D01*
X35980952Y-110532142D02*
X35933333Y-110579761D01*
X35790476Y-110627380D01*
X35695238Y-110627380D01*
X35552380Y-110579761D01*
X35457142Y-110484523D01*
X35409523Y-110389285D01*
X35361904Y-110198809D01*
X35361904Y-110055952D01*
X35409523Y-109865476D01*
X35457142Y-109770238D01*
X35552380Y-109675000D01*
X35695238Y-109627380D01*
X35790476Y-109627380D01*
X35933333Y-109675000D01*
X35980952Y-109722619D01*
X36885714Y-110627380D02*
X36409523Y-110627380D01*
X36409523Y-109627380D01*
X164323088Y-160952380D02*
X164323088Y-159952380D01*
X164751660Y-160047619D02*
X164799279Y-160000000D01*
X164894517Y-159952380D01*
X165132612Y-159952380D01*
X165227850Y-160000000D01*
X165275469Y-160047619D01*
X165323088Y-160142857D01*
X165323088Y-160238095D01*
X165275469Y-160380952D01*
X164704041Y-160952380D01*
X165323088Y-160952380D01*
X166323088Y-160857142D02*
X166275469Y-160904761D01*
X166132612Y-160952380D01*
X166037374Y-160952380D01*
X165894517Y-160904761D01*
X165799279Y-160809523D01*
X165751660Y-160714285D01*
X165704041Y-160523809D01*
X165704041Y-160380952D01*
X165751660Y-160190476D01*
X165799279Y-160095238D01*
X165894517Y-160000000D01*
X166037374Y-159952380D01*
X166132612Y-159952380D01*
X166275469Y-160000000D01*
X166323088Y-160047619D01*
X167418326Y-159952380D02*
X168037374Y-159952380D01*
X167704041Y-160333333D01*
X167846898Y-160333333D01*
X167942136Y-160380952D01*
X167989755Y-160428571D01*
X168037374Y-160523809D01*
X168037374Y-160761904D01*
X167989755Y-160857142D01*
X167942136Y-160904761D01*
X167846898Y-160952380D01*
X167561183Y-160952380D01*
X167465945Y-160904761D01*
X167418326Y-160857142D01*
X46845238Y-161452380D02*
X46845238Y-160452380D01*
X47273810Y-160547619D02*
X47321429Y-160500000D01*
X47416667Y-160452380D01*
X47654762Y-160452380D01*
X47750000Y-160500000D01*
X47797619Y-160547619D01*
X47845238Y-160642857D01*
X47845238Y-160738095D01*
X47797619Y-160880952D01*
X47226191Y-161452380D01*
X47845238Y-161452380D01*
X48845238Y-161357142D02*
X48797619Y-161404761D01*
X48654762Y-161452380D01*
X48559524Y-161452380D01*
X48416667Y-161404761D01*
X48321429Y-161309523D01*
X48273810Y-161214285D01*
X48226191Y-161023809D01*
X48226191Y-160880952D01*
X48273810Y-160690476D01*
X48321429Y-160595238D01*
X48416667Y-160500000D01*
X48559524Y-160452380D01*
X48654762Y-160452380D01*
X48797619Y-160500000D01*
X48845238Y-160547619D01*
X49988095Y-160547619D02*
X50035714Y-160500000D01*
X50130952Y-160452380D01*
X50369048Y-160452380D01*
X50464286Y-160500000D01*
X50511905Y-160547619D01*
X50559524Y-160642857D01*
X50559524Y-160738095D01*
X50511905Y-160880952D01*
X49940476Y-161452380D01*
X50559524Y-161452380D01*
X51909523Y-179604761D02*
X52052380Y-179652380D01*
X52290476Y-179652380D01*
X52385714Y-179604761D01*
X52433333Y-179557142D01*
X52480952Y-179461904D01*
X52480952Y-179366666D01*
X52433333Y-179271428D01*
X52385714Y-179223809D01*
X52290476Y-179176190D01*
X52100000Y-179128571D01*
X52004761Y-179080952D01*
X51957142Y-179033333D01*
X51909523Y-178938095D01*
X51909523Y-178842857D01*
X51957142Y-178747619D01*
X52004761Y-178700000D01*
X52100000Y-178652380D01*
X52338095Y-178652380D01*
X52480952Y-178700000D01*
X53480952Y-179557142D02*
X53433333Y-179604761D01*
X53290476Y-179652380D01*
X53195238Y-179652380D01*
X53052380Y-179604761D01*
X52957142Y-179509523D01*
X52909523Y-179414285D01*
X52861904Y-179223809D01*
X52861904Y-179080952D01*
X52909523Y-178890476D01*
X52957142Y-178795238D01*
X53052380Y-178700000D01*
X53195238Y-178652380D01*
X53290476Y-178652380D01*
X53433333Y-178700000D01*
X53480952Y-178747619D01*
X54385714Y-179652380D02*
X53909523Y-179652380D01*
X53909523Y-178652380D01*
X161138095Y-167375000D02*
X161042857Y-167327380D01*
X160900000Y-167327380D01*
X160757142Y-167375000D01*
X160661904Y-167470238D01*
X160614285Y-167565476D01*
X160566666Y-167755952D01*
X160566666Y-167898809D01*
X160614285Y-168089285D01*
X160661904Y-168184523D01*
X160757142Y-168279761D01*
X160900000Y-168327380D01*
X160995238Y-168327380D01*
X161138095Y-168279761D01*
X161185714Y-168232142D01*
X161185714Y-167898809D01*
X160995238Y-167898809D01*
X161614285Y-168327380D02*
X161614285Y-167327380D01*
X162185714Y-168327380D01*
X162185714Y-167327380D01*
X162661904Y-168327380D02*
X162661904Y-167327380D01*
X162900000Y-167327380D01*
X163042857Y-167375000D01*
X163138095Y-167470238D01*
X163185714Y-167565476D01*
X163233333Y-167755952D01*
X163233333Y-167898809D01*
X163185714Y-168089285D01*
X163138095Y-168184523D01*
X163042857Y-168279761D01*
X162900000Y-168327380D01*
X162661904Y-168327380D01*
X161138095Y-76725000D02*
X161042857Y-76677380D01*
X160900000Y-76677380D01*
X160757142Y-76725000D01*
X160661904Y-76820238D01*
X160614285Y-76915476D01*
X160566666Y-77105952D01*
X160566666Y-77248809D01*
X160614285Y-77439285D01*
X160661904Y-77534523D01*
X160757142Y-77629761D01*
X160900000Y-77677380D01*
X160995238Y-77677380D01*
X161138095Y-77629761D01*
X161185714Y-77582142D01*
X161185714Y-77248809D01*
X160995238Y-77248809D01*
X161614285Y-77677380D02*
X161614285Y-76677380D01*
X162185714Y-77677380D01*
X162185714Y-76677380D01*
X162661904Y-77677380D02*
X162661904Y-76677380D01*
X162900000Y-76677380D01*
X163042857Y-76725000D01*
X163138095Y-76820238D01*
X163185714Y-76915476D01*
X163233333Y-77105952D01*
X163233333Y-77248809D01*
X163185714Y-77439285D01*
X163138095Y-77534523D01*
X163042857Y-77629761D01*
X162900000Y-77677380D01*
X162661904Y-77677380D01*
X60585714Y-110479761D02*
X60728571Y-110527380D01*
X60966666Y-110527380D01*
X61061904Y-110479761D01*
X61109523Y-110432142D01*
X61157142Y-110336904D01*
X61157142Y-110241666D01*
X61109523Y-110146428D01*
X61061904Y-110098809D01*
X60966666Y-110051190D01*
X60776190Y-110003571D01*
X60680952Y-109955952D01*
X60633333Y-109908333D01*
X60585714Y-109813095D01*
X60585714Y-109717857D01*
X60633333Y-109622619D01*
X60680952Y-109575000D01*
X60776190Y-109527380D01*
X61014285Y-109527380D01*
X61157142Y-109575000D01*
X61585714Y-110527380D02*
X61585714Y-109527380D01*
X61823809Y-109527380D01*
X61966666Y-109575000D01*
X62061904Y-109670238D01*
X62109523Y-109765476D01*
X62157142Y-109955952D01*
X62157142Y-110098809D01*
X62109523Y-110289285D01*
X62061904Y-110384523D01*
X61966666Y-110479761D01*
X61823809Y-110527380D01*
X61585714Y-110527380D01*
X62538095Y-110241666D02*
X63014285Y-110241666D01*
X62442857Y-110527380D02*
X62776190Y-109527380D01*
X63109523Y-110527380D01*
X96666666Y-147452380D02*
X96666666Y-146452380D01*
X97095238Y-146547619D02*
X97142857Y-146500000D01*
X97238095Y-146452380D01*
X97476190Y-146452380D01*
X97571428Y-146500000D01*
X97619047Y-146547619D01*
X97666666Y-146642857D01*
X97666666Y-146738095D01*
X97619047Y-146880952D01*
X97047619Y-147452380D01*
X97666666Y-147452380D01*
X98666666Y-147357142D02*
X98619047Y-147404761D01*
X98476190Y-147452380D01*
X98380952Y-147452380D01*
X98238095Y-147404761D01*
X98142857Y-147309523D01*
X98095238Y-147214285D01*
X98047619Y-147023809D01*
X98047619Y-146880952D01*
X98095238Y-146690476D01*
X98142857Y-146595238D01*
X98238095Y-146500000D01*
X98380952Y-146452380D01*
X98476190Y-146452380D01*
X98619047Y-146500000D01*
X98666666Y-146547619D01*
X100380952Y-147452380D02*
X99809523Y-147452380D01*
X100095238Y-147452380D02*
X100095238Y-146452380D01*
X100000000Y-146595238D01*
X99904761Y-146690476D01*
X99809523Y-146738095D01*
X52009523Y-87829761D02*
X52152380Y-87877380D01*
X52390476Y-87877380D01*
X52485714Y-87829761D01*
X52533333Y-87782142D01*
X52580952Y-87686904D01*
X52580952Y-87591666D01*
X52533333Y-87496428D01*
X52485714Y-87448809D01*
X52390476Y-87401190D01*
X52200000Y-87353571D01*
X52104761Y-87305952D01*
X52057142Y-87258333D01*
X52009523Y-87163095D01*
X52009523Y-87067857D01*
X52057142Y-86972619D01*
X52104761Y-86925000D01*
X52200000Y-86877380D01*
X52438095Y-86877380D01*
X52580952Y-86925000D01*
X53580952Y-87782142D02*
X53533333Y-87829761D01*
X53390476Y-87877380D01*
X53295238Y-87877380D01*
X53152380Y-87829761D01*
X53057142Y-87734523D01*
X53009523Y-87639285D01*
X52961904Y-87448809D01*
X52961904Y-87305952D01*
X53009523Y-87115476D01*
X53057142Y-87020238D01*
X53152380Y-86925000D01*
X53295238Y-86877380D01*
X53390476Y-86877380D01*
X53533333Y-86925000D01*
X53580952Y-86972619D01*
X54485714Y-87877380D02*
X54009523Y-87877380D01*
X54009523Y-86877380D01*
X60585714Y-179679761D02*
X60728571Y-179727380D01*
X60966666Y-179727380D01*
X61061904Y-179679761D01*
X61109523Y-179632142D01*
X61157142Y-179536904D01*
X61157142Y-179441666D01*
X61109523Y-179346428D01*
X61061904Y-179298809D01*
X60966666Y-179251190D01*
X60776190Y-179203571D01*
X60680952Y-179155952D01*
X60633333Y-179108333D01*
X60585714Y-179013095D01*
X60585714Y-178917857D01*
X60633333Y-178822619D01*
X60680952Y-178775000D01*
X60776190Y-178727380D01*
X61014285Y-178727380D01*
X61157142Y-178775000D01*
X61585714Y-179727380D02*
X61585714Y-178727380D01*
X61823809Y-178727380D01*
X61966666Y-178775000D01*
X62061904Y-178870238D01*
X62109523Y-178965476D01*
X62157142Y-179155952D01*
X62157142Y-179298809D01*
X62109523Y-179489285D01*
X62061904Y-179584523D01*
X61966666Y-179679761D01*
X61823809Y-179727380D01*
X61585714Y-179727380D01*
X62538095Y-179441666D02*
X63014285Y-179441666D01*
X62442857Y-179727380D02*
X62776190Y-178727380D01*
X63109523Y-179727380D01*
X34509523Y-87929761D02*
X34652380Y-87977380D01*
X34890476Y-87977380D01*
X34985714Y-87929761D01*
X35033333Y-87882142D01*
X35080952Y-87786904D01*
X35080952Y-87691666D01*
X35033333Y-87596428D01*
X34985714Y-87548809D01*
X34890476Y-87501190D01*
X34700000Y-87453571D01*
X34604761Y-87405952D01*
X34557142Y-87358333D01*
X34509523Y-87263095D01*
X34509523Y-87167857D01*
X34557142Y-87072619D01*
X34604761Y-87025000D01*
X34700000Y-86977380D01*
X34938095Y-86977380D01*
X35080952Y-87025000D01*
X36080952Y-87882142D02*
X36033333Y-87929761D01*
X35890476Y-87977380D01*
X35795238Y-87977380D01*
X35652380Y-87929761D01*
X35557142Y-87834523D01*
X35509523Y-87739285D01*
X35461904Y-87548809D01*
X35461904Y-87405952D01*
X35509523Y-87215476D01*
X35557142Y-87120238D01*
X35652380Y-87025000D01*
X35795238Y-86977380D01*
X35890476Y-86977380D01*
X36033333Y-87025000D01*
X36080952Y-87072619D01*
X36985714Y-87977380D02*
X36509523Y-87977380D01*
X36509523Y-86977380D01*
X102809523Y-162404761D02*
X102952380Y-162452380D01*
X103190476Y-162452380D01*
X103285714Y-162404761D01*
X103333333Y-162357142D01*
X103380952Y-162261904D01*
X103380952Y-162166666D01*
X103333333Y-162071428D01*
X103285714Y-162023809D01*
X103190476Y-161976190D01*
X103000000Y-161928571D01*
X102904761Y-161880952D01*
X102857142Y-161833333D01*
X102809523Y-161738095D01*
X102809523Y-161642857D01*
X102857142Y-161547619D01*
X102904761Y-161500000D01*
X103000000Y-161452380D01*
X103238095Y-161452380D01*
X103380952Y-161500000D01*
X104380952Y-162357142D02*
X104333333Y-162404761D01*
X104190476Y-162452380D01*
X104095238Y-162452380D01*
X103952380Y-162404761D01*
X103857142Y-162309523D01*
X103809523Y-162214285D01*
X103761904Y-162023809D01*
X103761904Y-161880952D01*
X103809523Y-161690476D01*
X103857142Y-161595238D01*
X103952380Y-161500000D01*
X104095238Y-161452380D01*
X104190476Y-161452380D01*
X104333333Y-161500000D01*
X104380952Y-161547619D01*
X105285714Y-162452380D02*
X104809523Y-162452380D01*
X104809523Y-161452380D01*
X152009523Y-66479761D02*
X152152380Y-66527380D01*
X152390476Y-66527380D01*
X152485714Y-66479761D01*
X152533333Y-66432142D01*
X152580952Y-66336904D01*
X152580952Y-66241666D01*
X152533333Y-66146428D01*
X152485714Y-66098809D01*
X152390476Y-66051190D01*
X152200000Y-66003571D01*
X152104761Y-65955952D01*
X152057142Y-65908333D01*
X152009523Y-65813095D01*
X152009523Y-65717857D01*
X152057142Y-65622619D01*
X152104761Y-65575000D01*
X152200000Y-65527380D01*
X152438095Y-65527380D01*
X152580952Y-65575000D01*
X153580952Y-66432142D02*
X153533333Y-66479761D01*
X153390476Y-66527380D01*
X153295238Y-66527380D01*
X153152380Y-66479761D01*
X153057142Y-66384523D01*
X153009523Y-66289285D01*
X152961904Y-66098809D01*
X152961904Y-65955952D01*
X153009523Y-65765476D01*
X153057142Y-65670238D01*
X153152380Y-65575000D01*
X153295238Y-65527380D01*
X153390476Y-65527380D01*
X153533333Y-65575000D01*
X153580952Y-65622619D01*
X154485714Y-66527380D02*
X154009523Y-66527380D01*
X154009523Y-65527380D01*
X43638095Y-98475000D02*
X43542857Y-98427380D01*
X43400000Y-98427380D01*
X43257142Y-98475000D01*
X43161904Y-98570238D01*
X43114285Y-98665476D01*
X43066666Y-98855952D01*
X43066666Y-98998809D01*
X43114285Y-99189285D01*
X43161904Y-99284523D01*
X43257142Y-99379761D01*
X43400000Y-99427380D01*
X43495238Y-99427380D01*
X43638095Y-99379761D01*
X43685714Y-99332142D01*
X43685714Y-98998809D01*
X43495238Y-98998809D01*
X44114285Y-99427380D02*
X44114285Y-98427380D01*
X44685714Y-99427380D01*
X44685714Y-98427380D01*
X45161904Y-99427380D02*
X45161904Y-98427380D01*
X45400000Y-98427380D01*
X45542857Y-98475000D01*
X45638095Y-98570238D01*
X45685714Y-98665476D01*
X45733333Y-98855952D01*
X45733333Y-98998809D01*
X45685714Y-99189285D01*
X45638095Y-99284523D01*
X45542857Y-99379761D01*
X45400000Y-99427380D01*
X45161904Y-99427380D01*
X169409523Y-133904761D02*
X169552380Y-133952380D01*
X169790476Y-133952380D01*
X169885714Y-133904761D01*
X169933333Y-133857142D01*
X169980952Y-133761904D01*
X169980952Y-133666666D01*
X169933333Y-133571428D01*
X169885714Y-133523809D01*
X169790476Y-133476190D01*
X169600000Y-133428571D01*
X169504761Y-133380952D01*
X169457142Y-133333333D01*
X169409523Y-133238095D01*
X169409523Y-133142857D01*
X169457142Y-133047619D01*
X169504761Y-133000000D01*
X169600000Y-132952380D01*
X169838095Y-132952380D01*
X169980952Y-133000000D01*
X170980952Y-133857142D02*
X170933333Y-133904761D01*
X170790476Y-133952380D01*
X170695238Y-133952380D01*
X170552380Y-133904761D01*
X170457142Y-133809523D01*
X170409523Y-133714285D01*
X170361904Y-133523809D01*
X170361904Y-133380952D01*
X170409523Y-133190476D01*
X170457142Y-133095238D01*
X170552380Y-133000000D01*
X170695238Y-132952380D01*
X170790476Y-132952380D01*
X170933333Y-133000000D01*
X170980952Y-133047619D01*
X171885714Y-133952380D02*
X171409523Y-133952380D01*
X171409523Y-132952380D01*
X169409523Y-201504761D02*
X169552380Y-201552380D01*
X169790476Y-201552380D01*
X169885714Y-201504761D01*
X169933333Y-201457142D01*
X169980952Y-201361904D01*
X169980952Y-201266666D01*
X169933333Y-201171428D01*
X169885714Y-201123809D01*
X169790476Y-201076190D01*
X169600000Y-201028571D01*
X169504761Y-200980952D01*
X169457142Y-200933333D01*
X169409523Y-200838095D01*
X169409523Y-200742857D01*
X169457142Y-200647619D01*
X169504761Y-200600000D01*
X169600000Y-200552380D01*
X169838095Y-200552380D01*
X169980952Y-200600000D01*
X170980952Y-201457142D02*
X170933333Y-201504761D01*
X170790476Y-201552380D01*
X170695238Y-201552380D01*
X170552380Y-201504761D01*
X170457142Y-201409523D01*
X170409523Y-201314285D01*
X170361904Y-201123809D01*
X170361904Y-200980952D01*
X170409523Y-200790476D01*
X170457142Y-200695238D01*
X170552380Y-200600000D01*
X170695238Y-200552380D01*
X170790476Y-200552380D01*
X170933333Y-200600000D01*
X170980952Y-200647619D01*
X171885714Y-201552380D02*
X171409523Y-201552380D01*
X171409523Y-200552380D01*
X160585714Y-179554761D02*
X160728571Y-179602380D01*
X160966666Y-179602380D01*
X161061904Y-179554761D01*
X161109523Y-179507142D01*
X161157142Y-179411904D01*
X161157142Y-179316666D01*
X161109523Y-179221428D01*
X161061904Y-179173809D01*
X160966666Y-179126190D01*
X160776190Y-179078571D01*
X160680952Y-179030952D01*
X160633333Y-178983333D01*
X160585714Y-178888095D01*
X160585714Y-178792857D01*
X160633333Y-178697619D01*
X160680952Y-178650000D01*
X160776190Y-178602380D01*
X161014285Y-178602380D01*
X161157142Y-178650000D01*
X161585714Y-179602380D02*
X161585714Y-178602380D01*
X161823809Y-178602380D01*
X161966666Y-178650000D01*
X162061904Y-178745238D01*
X162109523Y-178840476D01*
X162157142Y-179030952D01*
X162157142Y-179173809D01*
X162109523Y-179364285D01*
X162061904Y-179459523D01*
X161966666Y-179554761D01*
X161823809Y-179602380D01*
X161585714Y-179602380D01*
X162538095Y-179316666D02*
X163014285Y-179316666D01*
X162442857Y-179602380D02*
X162776190Y-178602380D01*
X163109523Y-179602380D01*
X163416666Y-47952380D02*
X163416666Y-46952380D01*
X163845238Y-47047619D02*
X163892857Y-47000000D01*
X163988095Y-46952380D01*
X164226190Y-46952380D01*
X164321428Y-47000000D01*
X164369047Y-47047619D01*
X164416666Y-47142857D01*
X164416666Y-47238095D01*
X164369047Y-47380952D01*
X163797619Y-47952380D01*
X164416666Y-47952380D01*
X165416666Y-47857142D02*
X165369047Y-47904761D01*
X165226190Y-47952380D01*
X165130952Y-47952380D01*
X164988095Y-47904761D01*
X164892857Y-47809523D01*
X164845238Y-47714285D01*
X164797619Y-47523809D01*
X164797619Y-47380952D01*
X164845238Y-47190476D01*
X164892857Y-47095238D01*
X164988095Y-47000000D01*
X165130952Y-46952380D01*
X165226190Y-46952380D01*
X165369047Y-47000000D01*
X165416666Y-47047619D01*
X167130952Y-47952380D02*
X166559523Y-47952380D01*
X166845238Y-47952380D02*
X166845238Y-46952380D01*
X166750000Y-47095238D01*
X166654761Y-47190476D01*
X166559523Y-47238095D01*
X161138095Y-99775000D02*
X161042857Y-99727380D01*
X160900000Y-99727380D01*
X160757142Y-99775000D01*
X160661904Y-99870238D01*
X160614285Y-99965476D01*
X160566666Y-100155952D01*
X160566666Y-100298809D01*
X160614285Y-100489285D01*
X160661904Y-100584523D01*
X160757142Y-100679761D01*
X160900000Y-100727380D01*
X160995238Y-100727380D01*
X161138095Y-100679761D01*
X161185714Y-100632142D01*
X161185714Y-100298809D01*
X160995238Y-100298809D01*
X161614285Y-100727380D02*
X161614285Y-99727380D01*
X162185714Y-100727380D01*
X162185714Y-99727380D01*
X162661904Y-100727380D02*
X162661904Y-99727380D01*
X162900000Y-99727380D01*
X163042857Y-99775000D01*
X163138095Y-99870238D01*
X163185714Y-99965476D01*
X163233333Y-100155952D01*
X163233333Y-100298809D01*
X163185714Y-100489285D01*
X163138095Y-100584523D01*
X163042857Y-100679761D01*
X162900000Y-100727380D01*
X162661904Y-100727380D01*
X43638095Y-167675000D02*
X43542857Y-167627380D01*
X43400000Y-167627380D01*
X43257142Y-167675000D01*
X43161904Y-167770238D01*
X43114285Y-167865476D01*
X43066666Y-168055952D01*
X43066666Y-168198809D01*
X43114285Y-168389285D01*
X43161904Y-168484523D01*
X43257142Y-168579761D01*
X43400000Y-168627380D01*
X43495238Y-168627380D01*
X43638095Y-168579761D01*
X43685714Y-168532142D01*
X43685714Y-168198809D01*
X43495238Y-168198809D01*
X44114285Y-168627380D02*
X44114285Y-167627380D01*
X44685714Y-168627380D01*
X44685714Y-167627380D01*
X45161904Y-168627380D02*
X45161904Y-167627380D01*
X45400000Y-167627380D01*
X45542857Y-167675000D01*
X45638095Y-167770238D01*
X45685714Y-167865476D01*
X45733333Y-168055952D01*
X45733333Y-168198809D01*
X45685714Y-168389285D01*
X45638095Y-168484523D01*
X45542857Y-168579761D01*
X45400000Y-168627380D01*
X45161904Y-168627380D01*
X178085714Y-201579761D02*
X178228571Y-201627380D01*
X178466666Y-201627380D01*
X178561904Y-201579761D01*
X178609523Y-201532142D01*
X178657142Y-201436904D01*
X178657142Y-201341666D01*
X178609523Y-201246428D01*
X178561904Y-201198809D01*
X178466666Y-201151190D01*
X178276190Y-201103571D01*
X178180952Y-201055952D01*
X178133333Y-201008333D01*
X178085714Y-200913095D01*
X178085714Y-200817857D01*
X178133333Y-200722619D01*
X178180952Y-200675000D01*
X178276190Y-200627380D01*
X178514285Y-200627380D01*
X178657142Y-200675000D01*
X179085714Y-201627380D02*
X179085714Y-200627380D01*
X179323809Y-200627380D01*
X179466666Y-200675000D01*
X179561904Y-200770238D01*
X179609523Y-200865476D01*
X179657142Y-201055952D01*
X179657142Y-201198809D01*
X179609523Y-201389285D01*
X179561904Y-201484523D01*
X179466666Y-201579761D01*
X179323809Y-201627380D01*
X179085714Y-201627380D01*
X180038095Y-201341666D02*
X180514285Y-201341666D01*
X179942857Y-201627380D02*
X180276190Y-200627380D01*
X180609523Y-201627380D01*
X178738095Y-54200000D02*
X178642857Y-54152380D01*
X178500000Y-54152380D01*
X178357142Y-54200000D01*
X178261904Y-54295238D01*
X178214285Y-54390476D01*
X178166666Y-54580952D01*
X178166666Y-54723809D01*
X178214285Y-54914285D01*
X178261904Y-55009523D01*
X178357142Y-55104761D01*
X178500000Y-55152380D01*
X178595238Y-55152380D01*
X178738095Y-55104761D01*
X178785714Y-55057142D01*
X178785714Y-54723809D01*
X178595238Y-54723809D01*
X179214285Y-55152380D02*
X179214285Y-54152380D01*
X179785714Y-55152380D01*
X179785714Y-54152380D01*
X180261904Y-55152380D02*
X180261904Y-54152380D01*
X180500000Y-54152380D01*
X180642857Y-54200000D01*
X180738095Y-54295238D01*
X180785714Y-54390476D01*
X180833333Y-54580952D01*
X180833333Y-54723809D01*
X180785714Y-54914285D01*
X180738095Y-55009523D01*
X180642857Y-55104761D01*
X180500000Y-55152380D01*
X180261904Y-55152380D01*
X94785714Y-162404761D02*
X94928571Y-162452380D01*
X95166666Y-162452380D01*
X95261904Y-162404761D01*
X95309523Y-162357142D01*
X95357142Y-162261904D01*
X95357142Y-162166666D01*
X95309523Y-162071428D01*
X95261904Y-162023809D01*
X95166666Y-161976190D01*
X94976190Y-161928571D01*
X94880952Y-161880952D01*
X94833333Y-161833333D01*
X94785714Y-161738095D01*
X94785714Y-161642857D01*
X94833333Y-161547619D01*
X94880952Y-161500000D01*
X94976190Y-161452380D01*
X95214285Y-161452380D01*
X95357142Y-161500000D01*
X95785714Y-162452380D02*
X95785714Y-161452380D01*
X96023809Y-161452380D01*
X96166666Y-161500000D01*
X96261904Y-161595238D01*
X96309523Y-161690476D01*
X96357142Y-161880952D01*
X96357142Y-162023809D01*
X96309523Y-162214285D01*
X96261904Y-162309523D01*
X96166666Y-162404761D01*
X96023809Y-162452380D01*
X95785714Y-162452380D01*
X96738095Y-162166666D02*
X97214285Y-162166666D01*
X96642857Y-162452380D02*
X96976190Y-161452380D01*
X97309523Y-162452380D01*
X51909523Y-132604761D02*
X52052380Y-132652380D01*
X52290476Y-132652380D01*
X52385714Y-132604761D01*
X52433333Y-132557142D01*
X52480952Y-132461904D01*
X52480952Y-132366666D01*
X52433333Y-132271428D01*
X52385714Y-132223809D01*
X52290476Y-132176190D01*
X52100000Y-132128571D01*
X52004761Y-132080952D01*
X51957142Y-132033333D01*
X51909523Y-131938095D01*
X51909523Y-131842857D01*
X51957142Y-131747619D01*
X52004761Y-131700000D01*
X52100000Y-131652380D01*
X52338095Y-131652380D01*
X52480952Y-131700000D01*
X53480952Y-132557142D02*
X53433333Y-132604761D01*
X53290476Y-132652380D01*
X53195238Y-132652380D01*
X53052380Y-132604761D01*
X52957142Y-132509523D01*
X52909523Y-132414285D01*
X52861904Y-132223809D01*
X52861904Y-132080952D01*
X52909523Y-131890476D01*
X52957142Y-131795238D01*
X53052380Y-131700000D01*
X53195238Y-131652380D01*
X53290476Y-131652380D01*
X53433333Y-131700000D01*
X53480952Y-131747619D01*
X54385714Y-132652380D02*
X53909523Y-132652380D01*
X53909523Y-131652380D01*
X43638095Y-189600000D02*
X43542857Y-189552380D01*
X43400000Y-189552380D01*
X43257142Y-189600000D01*
X43161904Y-189695238D01*
X43114285Y-189790476D01*
X43066666Y-189980952D01*
X43066666Y-190123809D01*
X43114285Y-190314285D01*
X43161904Y-190409523D01*
X43257142Y-190504761D01*
X43400000Y-190552380D01*
X43495238Y-190552380D01*
X43638095Y-190504761D01*
X43685714Y-190457142D01*
X43685714Y-190123809D01*
X43495238Y-190123809D01*
X44114285Y-190552380D02*
X44114285Y-189552380D01*
X44685714Y-190552380D01*
X44685714Y-189552380D01*
X45161904Y-190552380D02*
X45161904Y-189552380D01*
X45400000Y-189552380D01*
X45542857Y-189600000D01*
X45638095Y-189695238D01*
X45685714Y-189790476D01*
X45733333Y-189980952D01*
X45733333Y-190123809D01*
X45685714Y-190314285D01*
X45638095Y-190409523D01*
X45542857Y-190504761D01*
X45400000Y-190552380D01*
X45161904Y-190552380D01*
X51909523Y-110404761D02*
X52052380Y-110452380D01*
X52290476Y-110452380D01*
X52385714Y-110404761D01*
X52433333Y-110357142D01*
X52480952Y-110261904D01*
X52480952Y-110166666D01*
X52433333Y-110071428D01*
X52385714Y-110023809D01*
X52290476Y-109976190D01*
X52100000Y-109928571D01*
X52004761Y-109880952D01*
X51957142Y-109833333D01*
X51909523Y-109738095D01*
X51909523Y-109642857D01*
X51957142Y-109547619D01*
X52004761Y-109500000D01*
X52100000Y-109452380D01*
X52338095Y-109452380D01*
X52480952Y-109500000D01*
X53480952Y-110357142D02*
X53433333Y-110404761D01*
X53290476Y-110452380D01*
X53195238Y-110452380D01*
X53052380Y-110404761D01*
X52957142Y-110309523D01*
X52909523Y-110214285D01*
X52861904Y-110023809D01*
X52861904Y-109880952D01*
X52909523Y-109690476D01*
X52957142Y-109595238D01*
X53052380Y-109500000D01*
X53195238Y-109452380D01*
X53290476Y-109452380D01*
X53433333Y-109500000D01*
X53480952Y-109547619D01*
X54385714Y-110452380D02*
X53909523Y-110452380D01*
X53909523Y-109452380D01*
X169509523Y-66304761D02*
X169652380Y-66352380D01*
X169890476Y-66352380D01*
X169985714Y-66304761D01*
X170033333Y-66257142D01*
X170080952Y-66161904D01*
X170080952Y-66066666D01*
X170033333Y-65971428D01*
X169985714Y-65923809D01*
X169890476Y-65876190D01*
X169700000Y-65828571D01*
X169604761Y-65780952D01*
X169557142Y-65733333D01*
X169509523Y-65638095D01*
X169509523Y-65542857D01*
X169557142Y-65447619D01*
X169604761Y-65400000D01*
X169700000Y-65352380D01*
X169938095Y-65352380D01*
X170080952Y-65400000D01*
X171080952Y-66257142D02*
X171033333Y-66304761D01*
X170890476Y-66352380D01*
X170795238Y-66352380D01*
X170652380Y-66304761D01*
X170557142Y-66209523D01*
X170509523Y-66114285D01*
X170461904Y-65923809D01*
X170461904Y-65780952D01*
X170509523Y-65590476D01*
X170557142Y-65495238D01*
X170652380Y-65400000D01*
X170795238Y-65352380D01*
X170890476Y-65352380D01*
X171033333Y-65400000D01*
X171080952Y-65447619D01*
X171985714Y-66352380D02*
X171509523Y-66352380D01*
X171509523Y-65352380D01*
X43738095Y-53700000D02*
X43642857Y-53652380D01*
X43500000Y-53652380D01*
X43357142Y-53700000D01*
X43261904Y-53795238D01*
X43214285Y-53890476D01*
X43166666Y-54080952D01*
X43166666Y-54223809D01*
X43214285Y-54414285D01*
X43261904Y-54509523D01*
X43357142Y-54604761D01*
X43500000Y-54652380D01*
X43595238Y-54652380D01*
X43738095Y-54604761D01*
X43785714Y-54557142D01*
X43785714Y-54223809D01*
X43595238Y-54223809D01*
X44214285Y-54652380D02*
X44214285Y-53652380D01*
X44785714Y-54652380D01*
X44785714Y-53652380D01*
X45261904Y-54652380D02*
X45261904Y-53652380D01*
X45500000Y-53652380D01*
X45642857Y-53700000D01*
X45738095Y-53795238D01*
X45785714Y-53890476D01*
X45833333Y-54080952D01*
X45833333Y-54223809D01*
X45785714Y-54414285D01*
X45738095Y-54509523D01*
X45642857Y-54604761D01*
X45500000Y-54652380D01*
X45261904Y-54652380D01*
X160585714Y-201479761D02*
X160728571Y-201527380D01*
X160966666Y-201527380D01*
X161061904Y-201479761D01*
X161109523Y-201432142D01*
X161157142Y-201336904D01*
X161157142Y-201241666D01*
X161109523Y-201146428D01*
X161061904Y-201098809D01*
X160966666Y-201051190D01*
X160776190Y-201003571D01*
X160680952Y-200955952D01*
X160633333Y-200908333D01*
X160585714Y-200813095D01*
X160585714Y-200717857D01*
X160633333Y-200622619D01*
X160680952Y-200575000D01*
X160776190Y-200527380D01*
X161014285Y-200527380D01*
X161157142Y-200575000D01*
X161585714Y-201527380D02*
X161585714Y-200527380D01*
X161823809Y-200527380D01*
X161966666Y-200575000D01*
X162061904Y-200670238D01*
X162109523Y-200765476D01*
X162157142Y-200955952D01*
X162157142Y-201098809D01*
X162109523Y-201289285D01*
X162061904Y-201384523D01*
X161966666Y-201479761D01*
X161823809Y-201527380D01*
X161585714Y-201527380D01*
X162538095Y-201241666D02*
X163014285Y-201241666D01*
X162442857Y-201527380D02*
X162776190Y-200527380D01*
X163109523Y-201527380D01*
X43085714Y-132579761D02*
X43228571Y-132627380D01*
X43466666Y-132627380D01*
X43561904Y-132579761D01*
X43609523Y-132532142D01*
X43657142Y-132436904D01*
X43657142Y-132341666D01*
X43609523Y-132246428D01*
X43561904Y-132198809D01*
X43466666Y-132151190D01*
X43276190Y-132103571D01*
X43180952Y-132055952D01*
X43133333Y-132008333D01*
X43085714Y-131913095D01*
X43085714Y-131817857D01*
X43133333Y-131722619D01*
X43180952Y-131675000D01*
X43276190Y-131627380D01*
X43514285Y-131627380D01*
X43657142Y-131675000D01*
X44085714Y-132627380D02*
X44085714Y-131627380D01*
X44323809Y-131627380D01*
X44466666Y-131675000D01*
X44561904Y-131770238D01*
X44609523Y-131865476D01*
X44657142Y-132055952D01*
X44657142Y-132198809D01*
X44609523Y-132389285D01*
X44561904Y-132484523D01*
X44466666Y-132579761D01*
X44323809Y-132627380D01*
X44085714Y-132627380D01*
X45038095Y-132341666D02*
X45514285Y-132341666D01*
X44942857Y-132627380D02*
X45276190Y-131627380D01*
X45609523Y-132627380D01*
D12*
X96377857Y-48471071D02*
X96377857Y-46971071D01*
X96735000Y-46971071D01*
X96949285Y-47042500D01*
X97092142Y-47185357D01*
X97163571Y-47328214D01*
X97235000Y-47613928D01*
X97235000Y-47828214D01*
X97163571Y-48113928D01*
X97092142Y-48256785D01*
X96949285Y-48399642D01*
X96735000Y-48471071D01*
X96377857Y-48471071D01*
X98449285Y-48399642D02*
X98306428Y-48471071D01*
X98020714Y-48471071D01*
X97877857Y-48399642D01*
X97806428Y-48256785D01*
X97806428Y-47685357D01*
X97877857Y-47542500D01*
X98020714Y-47471071D01*
X98306428Y-47471071D01*
X98449285Y-47542500D01*
X98520714Y-47685357D01*
X98520714Y-47828214D01*
X97806428Y-47971071D01*
X99163571Y-47471071D02*
X99163571Y-48471071D01*
X99163571Y-47613928D02*
X99235000Y-47542500D01*
X99377857Y-47471071D01*
X99592142Y-47471071D01*
X99735000Y-47542500D01*
X99806428Y-47685357D01*
X99806428Y-48471071D01*
X100520714Y-47471071D02*
X100520714Y-48471071D01*
X100520714Y-47613928D02*
X100592142Y-47542500D01*
X100735000Y-47471071D01*
X100949285Y-47471071D01*
X101092142Y-47542500D01*
X101163571Y-47685357D01*
X101163571Y-48471071D01*
X101877857Y-48471071D02*
X101877857Y-47471071D01*
X101877857Y-46971071D02*
X101806428Y-47042500D01*
X101877857Y-47113928D01*
X101949285Y-47042500D01*
X101877857Y-46971071D01*
X101877857Y-47113928D01*
X102520714Y-48399642D02*
X102663571Y-48471071D01*
X102949285Y-48471071D01*
X103092142Y-48399642D01*
X103163571Y-48256785D01*
X103163571Y-48185357D01*
X103092142Y-48042500D01*
X102949285Y-47971071D01*
X102735000Y-47971071D01*
X102592142Y-47899642D01*
X102520714Y-47756785D01*
X102520714Y-47685357D01*
X102592142Y-47542500D01*
X102735000Y-47471071D01*
X102949285Y-47471071D01*
X103092142Y-47542500D01*
X104949285Y-48471071D02*
X104949285Y-46971071D01*
X104949285Y-47685357D02*
X105806428Y-47685357D01*
X105806428Y-48471071D02*
X105806428Y-46971071D01*
X106520714Y-48328214D02*
X106592142Y-48399642D01*
X106520714Y-48471071D01*
X106449285Y-48399642D01*
X106520714Y-48328214D01*
X106520714Y-48471071D01*
X109235000Y-48328214D02*
X109163571Y-48399642D01*
X108949285Y-48471071D01*
X108806428Y-48471071D01*
X108592142Y-48399642D01*
X108449285Y-48256785D01*
X108377857Y-48113928D01*
X108306428Y-47828214D01*
X108306428Y-47613928D01*
X108377857Y-47328214D01*
X108449285Y-47185357D01*
X108592142Y-47042500D01*
X108806428Y-46971071D01*
X108949285Y-46971071D01*
X109163571Y-47042500D01*
X109235000Y-47113928D01*
X110520714Y-48471071D02*
X110520714Y-47685357D01*
X110449285Y-47542500D01*
X110306428Y-47471071D01*
X110020714Y-47471071D01*
X109877857Y-47542500D01*
X110520714Y-48399642D02*
X110377857Y-48471071D01*
X110020714Y-48471071D01*
X109877857Y-48399642D01*
X109806428Y-48256785D01*
X109806428Y-48113928D01*
X109877857Y-47971071D01*
X110020714Y-47899642D01*
X110377857Y-47899642D01*
X110520714Y-47828214D01*
X111449285Y-48471071D02*
X111306428Y-48399642D01*
X111235000Y-48256785D01*
X111235000Y-46971071D01*
X112663571Y-48471071D02*
X112663571Y-46971071D01*
X112663571Y-48399642D02*
X112520714Y-48471071D01*
X112235000Y-48471071D01*
X112092142Y-48399642D01*
X112020714Y-48328214D01*
X111949285Y-48185357D01*
X111949285Y-47756785D01*
X112020714Y-47613928D01*
X112092142Y-47542500D01*
X112235000Y-47471071D01*
X112520714Y-47471071D01*
X112663571Y-47542500D01*
X113949285Y-48399642D02*
X113806428Y-48471071D01*
X113520714Y-48471071D01*
X113377857Y-48399642D01*
X113306428Y-48256785D01*
X113306428Y-47685357D01*
X113377857Y-47542500D01*
X113520714Y-47471071D01*
X113806428Y-47471071D01*
X113949285Y-47542500D01*
X114020714Y-47685357D01*
X114020714Y-47828214D01*
X113306428Y-47971071D01*
X114663571Y-48471071D02*
X114663571Y-47471071D01*
X114663571Y-47756785D02*
X114735000Y-47613928D01*
X114806428Y-47542500D01*
X114949285Y-47471071D01*
X115092142Y-47471071D01*
X115806428Y-48471071D02*
X115663571Y-48399642D01*
X115592142Y-48328214D01*
X115520714Y-48185357D01*
X115520714Y-47756785D01*
X115592142Y-47613928D01*
X115663571Y-47542500D01*
X115806428Y-47471071D01*
X116020714Y-47471071D01*
X116163571Y-47542500D01*
X116235000Y-47613928D01*
X116306428Y-47756785D01*
X116306428Y-48185357D01*
X116235000Y-48328214D01*
X116163571Y-48399642D01*
X116020714Y-48471071D01*
X115806428Y-48471071D01*
X116949285Y-47471071D02*
X116949285Y-48471071D01*
X116949285Y-47613928D02*
X117020714Y-47542500D01*
X117163571Y-47471071D01*
X117377857Y-47471071D01*
X117520714Y-47542500D01*
X117592142Y-47685357D01*
X117592142Y-48471071D01*
X97663571Y-49386071D02*
X97663571Y-50457500D01*
X97592142Y-50671785D01*
X97449285Y-50814642D01*
X97234999Y-50886071D01*
X97092142Y-50886071D01*
X99020714Y-50886071D02*
X99020714Y-50100357D01*
X98949285Y-49957500D01*
X98806428Y-49886071D01*
X98520714Y-49886071D01*
X98377857Y-49957500D01*
X99020714Y-50814642D02*
X98877857Y-50886071D01*
X98520714Y-50886071D01*
X98377857Y-50814642D01*
X98306428Y-50671785D01*
X98306428Y-50528928D01*
X98377857Y-50386071D01*
X98520714Y-50314642D01*
X98877857Y-50314642D01*
X99020714Y-50243214D01*
X99734999Y-49886071D02*
X99734999Y-50886071D01*
X99734999Y-50028928D02*
X99806428Y-49957500D01*
X99949285Y-49886071D01*
X100163571Y-49886071D01*
X100306428Y-49957500D01*
X100377857Y-50100357D01*
X100377857Y-50886071D01*
X101734999Y-49886071D02*
X101734999Y-50886071D01*
X101092142Y-49886071D02*
X101092142Y-50671785D01*
X101163571Y-50814642D01*
X101306428Y-50886071D01*
X101520714Y-50886071D01*
X101663571Y-50814642D01*
X101734999Y-50743214D01*
X103092142Y-50886071D02*
X103092142Y-50100357D01*
X103020714Y-49957500D01*
X102877857Y-49886071D01*
X102592142Y-49886071D01*
X102449285Y-49957500D01*
X103092142Y-50814642D02*
X102949285Y-50886071D01*
X102592142Y-50886071D01*
X102449285Y-50814642D01*
X102377857Y-50671785D01*
X102377857Y-50528928D01*
X102449285Y-50386071D01*
X102592142Y-50314642D01*
X102949285Y-50314642D01*
X103092142Y-50243214D01*
X103806428Y-50886071D02*
X103806428Y-49886071D01*
X103806428Y-50171785D02*
X103877857Y-50028928D01*
X103949285Y-49957500D01*
X104092142Y-49886071D01*
X104234999Y-49886071D01*
X104592142Y-49886071D02*
X104949285Y-50886071D01*
X105306428Y-49886071D02*
X104949285Y-50886071D01*
X104806428Y-51243214D01*
X104734999Y-51314642D01*
X104592142Y-51386071D01*
X107306428Y-49386071D02*
X107449285Y-49386071D01*
X107592142Y-49457500D01*
X107663571Y-49528928D01*
X107734999Y-49671785D01*
X107806428Y-49957500D01*
X107806428Y-50314642D01*
X107734999Y-50600357D01*
X107663571Y-50743214D01*
X107592142Y-50814642D01*
X107449285Y-50886071D01*
X107306428Y-50886071D01*
X107163571Y-50814642D01*
X107092142Y-50743214D01*
X107020714Y-50600357D01*
X106949285Y-50314642D01*
X106949285Y-49957500D01*
X107020714Y-49671785D01*
X107092142Y-49528928D01*
X107163571Y-49457500D01*
X107306428Y-49386071D01*
X108520714Y-50886071D02*
X108806428Y-50886071D01*
X108949285Y-50814642D01*
X109020714Y-50743214D01*
X109163571Y-50528928D01*
X109234999Y-50243214D01*
X109234999Y-49671785D01*
X109163571Y-49528928D01*
X109092142Y-49457500D01*
X108949285Y-49386071D01*
X108663571Y-49386071D01*
X108520714Y-49457500D01*
X108449285Y-49528928D01*
X108377857Y-49671785D01*
X108377857Y-50028928D01*
X108449285Y-50171785D01*
X108520714Y-50243214D01*
X108663571Y-50314642D01*
X108949285Y-50314642D01*
X109092142Y-50243214D01*
X109163571Y-50171785D01*
X109234999Y-50028928D01*
X109949285Y-50814642D02*
X109949285Y-50886071D01*
X109877857Y-51028928D01*
X109806428Y-51100357D01*
X111663571Y-49528928D02*
X111734999Y-49457500D01*
X111877857Y-49386071D01*
X112234999Y-49386071D01*
X112377857Y-49457500D01*
X112449285Y-49528928D01*
X112520714Y-49671785D01*
X112520714Y-49814642D01*
X112449285Y-50028928D01*
X111592142Y-50886071D01*
X112520714Y-50886071D01*
X113449285Y-49386071D02*
X113592142Y-49386071D01*
X113735000Y-49457500D01*
X113806428Y-49528928D01*
X113877857Y-49671785D01*
X113949285Y-49957500D01*
X113949285Y-50314642D01*
X113877857Y-50600357D01*
X113806428Y-50743214D01*
X113735000Y-50814642D01*
X113592142Y-50886071D01*
X113449285Y-50886071D01*
X113306428Y-50814642D01*
X113235000Y-50743214D01*
X113163571Y-50600357D01*
X113092142Y-50314642D01*
X113092142Y-49957500D01*
X113163571Y-49671785D01*
X113235000Y-49528928D01*
X113306428Y-49457500D01*
X113449285Y-49386071D01*
X114520714Y-49528928D02*
X114592142Y-49457500D01*
X114735000Y-49386071D01*
X115092142Y-49386071D01*
X115235000Y-49457500D01*
X115306428Y-49528928D01*
X115377857Y-49671785D01*
X115377857Y-49814642D01*
X115306428Y-50028928D01*
X114449285Y-50886071D01*
X115377857Y-50886071D01*
X115877857Y-49386071D02*
X116806428Y-49386071D01*
X116306428Y-49957500D01*
X116520714Y-49957500D01*
X116663571Y-50028928D01*
X116735000Y-50100357D01*
X116806428Y-50243214D01*
X116806428Y-50600357D01*
X116735000Y-50743214D01*
X116663571Y-50814642D01*
X116520714Y-50886071D01*
X116092142Y-50886071D01*
X115949285Y-50814642D01*
X115877857Y-50743214D01*
D10*
X101738095Y-202700000D02*
X101642857Y-202652380D01*
X101500000Y-202652380D01*
X101357142Y-202700000D01*
X101261904Y-202795238D01*
X101214285Y-202890476D01*
X101166666Y-203080952D01*
X101166666Y-203223809D01*
X101214285Y-203414285D01*
X101261904Y-203509523D01*
X101357142Y-203604761D01*
X101500000Y-203652380D01*
X101595238Y-203652380D01*
X101738095Y-203604761D01*
X101785714Y-203557142D01*
X101785714Y-203223809D01*
X101595238Y-203223809D01*
X102214285Y-203652380D02*
X102214285Y-202652380D01*
X102785714Y-203652380D01*
X102785714Y-202652380D01*
X103261904Y-203652380D02*
X103261904Y-202652380D01*
X103500000Y-202652380D01*
X103642857Y-202700000D01*
X103738095Y-202795238D01*
X103785714Y-202890476D01*
X103833333Y-203080952D01*
X103833333Y-203223809D01*
X103785714Y-203414285D01*
X103738095Y-203509523D01*
X103642857Y-203604761D01*
X103500000Y-203652380D01*
X103261904Y-203652380D01*
X34409523Y-179779761D02*
X34552380Y-179827380D01*
X34790476Y-179827380D01*
X34885714Y-179779761D01*
X34933333Y-179732142D01*
X34980952Y-179636904D01*
X34980952Y-179541666D01*
X34933333Y-179446428D01*
X34885714Y-179398809D01*
X34790476Y-179351190D01*
X34600000Y-179303571D01*
X34504761Y-179255952D01*
X34457142Y-179208333D01*
X34409523Y-179113095D01*
X34409523Y-179017857D01*
X34457142Y-178922619D01*
X34504761Y-178875000D01*
X34600000Y-178827380D01*
X34838095Y-178827380D01*
X34980952Y-178875000D01*
X35980952Y-179732142D02*
X35933333Y-179779761D01*
X35790476Y-179827380D01*
X35695238Y-179827380D01*
X35552380Y-179779761D01*
X35457142Y-179684523D01*
X35409523Y-179589285D01*
X35361904Y-179398809D01*
X35361904Y-179255952D01*
X35409523Y-179065476D01*
X35457142Y-178970238D01*
X35552380Y-178875000D01*
X35695238Y-178827380D01*
X35790476Y-178827380D01*
X35933333Y-178875000D01*
X35980952Y-178922619D01*
X36885714Y-179827380D02*
X36409523Y-179827380D01*
X36409523Y-178827380D01*
X34509523Y-65804761D02*
X34652380Y-65852380D01*
X34890476Y-65852380D01*
X34985714Y-65804761D01*
X35033333Y-65757142D01*
X35080952Y-65661904D01*
X35080952Y-65566666D01*
X35033333Y-65471428D01*
X34985714Y-65423809D01*
X34890476Y-65376190D01*
X34700000Y-65328571D01*
X34604761Y-65280952D01*
X34557142Y-65233333D01*
X34509523Y-65138095D01*
X34509523Y-65042857D01*
X34557142Y-64947619D01*
X34604761Y-64900000D01*
X34700000Y-64852380D01*
X34938095Y-64852380D01*
X35080952Y-64900000D01*
X36080952Y-65757142D02*
X36033333Y-65804761D01*
X35890476Y-65852380D01*
X35795238Y-65852380D01*
X35652380Y-65804761D01*
X35557142Y-65709523D01*
X35509523Y-65614285D01*
X35461904Y-65423809D01*
X35461904Y-65280952D01*
X35509523Y-65090476D01*
X35557142Y-64995238D01*
X35652380Y-64900000D01*
X35795238Y-64852380D01*
X35890476Y-64852380D01*
X36033333Y-64900000D01*
X36080952Y-64947619D01*
X36985714Y-65852380D02*
X36509523Y-65852380D01*
X36509523Y-64852380D01*
X178085714Y-179379761D02*
X178228571Y-179427380D01*
X178466666Y-179427380D01*
X178561904Y-179379761D01*
X178609523Y-179332142D01*
X178657142Y-179236904D01*
X178657142Y-179141666D01*
X178609523Y-179046428D01*
X178561904Y-178998809D01*
X178466666Y-178951190D01*
X178276190Y-178903571D01*
X178180952Y-178855952D01*
X178133333Y-178808333D01*
X178085714Y-178713095D01*
X178085714Y-178617857D01*
X178133333Y-178522619D01*
X178180952Y-178475000D01*
X178276190Y-178427380D01*
X178514285Y-178427380D01*
X178657142Y-178475000D01*
X179085714Y-179427380D02*
X179085714Y-178427380D01*
X179323809Y-178427380D01*
X179466666Y-178475000D01*
X179561904Y-178570238D01*
X179609523Y-178665476D01*
X179657142Y-178855952D01*
X179657142Y-178998809D01*
X179609523Y-179189285D01*
X179561904Y-179284523D01*
X179466666Y-179379761D01*
X179323809Y-179427380D01*
X179085714Y-179427380D01*
X180038095Y-179141666D02*
X180514285Y-179141666D01*
X179942857Y-179427380D02*
X180276190Y-178427380D01*
X180609523Y-179427380D01*
X60685714Y-87904761D02*
X60828571Y-87952380D01*
X61066666Y-87952380D01*
X61161904Y-87904761D01*
X61209523Y-87857142D01*
X61257142Y-87761904D01*
X61257142Y-87666666D01*
X61209523Y-87571428D01*
X61161904Y-87523809D01*
X61066666Y-87476190D01*
X60876190Y-87428571D01*
X60780952Y-87380952D01*
X60733333Y-87333333D01*
X60685714Y-87238095D01*
X60685714Y-87142857D01*
X60733333Y-87047619D01*
X60780952Y-87000000D01*
X60876190Y-86952380D01*
X61114285Y-86952380D01*
X61257142Y-87000000D01*
X61685714Y-87952380D02*
X61685714Y-86952380D01*
X61923809Y-86952380D01*
X62066666Y-87000000D01*
X62161904Y-87095238D01*
X62209523Y-87190476D01*
X62257142Y-87380952D01*
X62257142Y-87523809D01*
X62209523Y-87714285D01*
X62161904Y-87809523D01*
X62066666Y-87904761D01*
X61923809Y-87952380D01*
X61685714Y-87952380D01*
X62638095Y-87666666D02*
X63114285Y-87666666D01*
X62542857Y-87952380D02*
X62876190Y-86952380D01*
X63209523Y-87952380D01*
D13*
X81984999Y-45130952D02*
X81984999Y-42630952D01*
X82937380Y-42630952D01*
X83175476Y-42750000D01*
X83294523Y-42869047D01*
X83413571Y-43107142D01*
X83413571Y-43464285D01*
X83294523Y-43702380D01*
X83175476Y-43821428D01*
X82937380Y-43940476D01*
X81984999Y-43940476D01*
X85437380Y-45011904D02*
X85199285Y-45130952D01*
X84723095Y-45130952D01*
X84484999Y-45011904D01*
X84365952Y-44773809D01*
X84365952Y-43821428D01*
X84484999Y-43583333D01*
X84723095Y-43464285D01*
X85199285Y-43464285D01*
X85437380Y-43583333D01*
X85556428Y-43821428D01*
X85556428Y-44059523D01*
X84365952Y-44297619D01*
X86627857Y-45130952D02*
X86627857Y-43464285D01*
X86627857Y-43940476D02*
X86746904Y-43702380D01*
X86865952Y-43583333D01*
X87104047Y-43464285D01*
X87342142Y-43464285D01*
X88175476Y-45130952D02*
X88175476Y-43464285D01*
X88175476Y-43940476D02*
X88294523Y-43702380D01*
X88413571Y-43583333D01*
X88651666Y-43464285D01*
X88889761Y-43464285D01*
X89723095Y-45130952D02*
X89723095Y-43464285D01*
X89723095Y-42630952D02*
X89604047Y-42750000D01*
X89723095Y-42869047D01*
X89842142Y-42750000D01*
X89723095Y-42630952D01*
X89723095Y-42869047D01*
X91032619Y-42630952D02*
X90794523Y-43107142D01*
X91984999Y-45011904D02*
X92223095Y-45130952D01*
X92699285Y-45130952D01*
X92937380Y-45011904D01*
X93056428Y-44773809D01*
X93056428Y-44654761D01*
X92937380Y-44416666D01*
X92699285Y-44297619D01*
X92342142Y-44297619D01*
X92104047Y-44178571D01*
X91984999Y-43940476D01*
X91984999Y-43821428D01*
X92104047Y-43583333D01*
X92342142Y-43464285D01*
X92699285Y-43464285D01*
X92937380Y-43583333D01*
X96032619Y-45130952D02*
X96032619Y-42630952D01*
X97104047Y-42869047D02*
X97223095Y-42750000D01*
X97461190Y-42630952D01*
X98056428Y-42630952D01*
X98294523Y-42750000D01*
X98413571Y-42869047D01*
X98532619Y-43107142D01*
X98532619Y-43345238D01*
X98413571Y-43702380D01*
X96984999Y-45130952D01*
X98532619Y-45130952D01*
X101032619Y-44892857D02*
X100913571Y-45011904D01*
X100556428Y-45130952D01*
X100318333Y-45130952D01*
X99961190Y-45011904D01*
X99723095Y-44773809D01*
X99604047Y-44535714D01*
X99485000Y-44059523D01*
X99485000Y-43702380D01*
X99604047Y-43226190D01*
X99723095Y-42988095D01*
X99961190Y-42750000D01*
X100318333Y-42630952D01*
X100556428Y-42630952D01*
X100913571Y-42750000D01*
X101032619Y-42869047D01*
X104842142Y-43821428D02*
X105199285Y-43940476D01*
X105318333Y-44059523D01*
X105437380Y-44297619D01*
X105437380Y-44654761D01*
X105318333Y-44892857D01*
X105199285Y-45011904D01*
X104961190Y-45130952D01*
X104008809Y-45130952D01*
X104008809Y-42630952D01*
X104842142Y-42630952D01*
X105080238Y-42750000D01*
X105199285Y-42869047D01*
X105318333Y-43107142D01*
X105318333Y-43345238D01*
X105199285Y-43583333D01*
X105080238Y-43702380D01*
X104842142Y-43821428D01*
X104008809Y-43821428D01*
X106508809Y-45130952D02*
X106508809Y-43464285D01*
X106508809Y-43940476D02*
X106627857Y-43702380D01*
X106746904Y-43583333D01*
X106984999Y-43464285D01*
X107223095Y-43464285D01*
X109008809Y-45011904D02*
X108770714Y-45130952D01*
X108294523Y-45130952D01*
X108056428Y-45011904D01*
X107937380Y-44773809D01*
X107937380Y-43821428D01*
X108056428Y-43583333D01*
X108294523Y-43464285D01*
X108770714Y-43464285D01*
X109008809Y-43583333D01*
X109127857Y-43821428D01*
X109127857Y-44059523D01*
X107937380Y-44297619D01*
X111270714Y-45130952D02*
X111270714Y-43821428D01*
X111151666Y-43583333D01*
X110913571Y-43464285D01*
X110437380Y-43464285D01*
X110199285Y-43583333D01*
X111270714Y-45011904D02*
X111032619Y-45130952D01*
X110437380Y-45130952D01*
X110199285Y-45011904D01*
X110080238Y-44773809D01*
X110080238Y-44535714D01*
X110199285Y-44297619D01*
X110437380Y-44178571D01*
X111032619Y-44178571D01*
X111270714Y-44059523D01*
X112461190Y-45130952D02*
X112461190Y-42630952D01*
X112699285Y-44178571D02*
X113413571Y-45130952D01*
X113413571Y-43464285D02*
X112461190Y-44416666D01*
X114842142Y-45130952D02*
X114604047Y-45011904D01*
X114484999Y-44892857D01*
X114365952Y-44654761D01*
X114365952Y-43940476D01*
X114484999Y-43702380D01*
X114604047Y-43583333D01*
X114842142Y-43464285D01*
X115199285Y-43464285D01*
X115437380Y-43583333D01*
X115556428Y-43702380D01*
X115675476Y-43940476D01*
X115675476Y-44654761D01*
X115556428Y-44892857D01*
X115437380Y-45011904D01*
X115199285Y-45130952D01*
X114842142Y-45130952D01*
X117818333Y-43464285D02*
X117818333Y-45130952D01*
X116746904Y-43464285D02*
X116746904Y-44773809D01*
X116865952Y-45011904D01*
X117104047Y-45130952D01*
X117461190Y-45130952D01*
X117699285Y-45011904D01*
X117818333Y-44892857D01*
X118651666Y-43464285D02*
X119604047Y-43464285D01*
X119008809Y-42630952D02*
X119008809Y-44773809D01*
X119127857Y-45011904D01*
X119365952Y-45130952D01*
X119604047Y-45130952D01*
X123175476Y-43821428D02*
X123532619Y-43940476D01*
X123651666Y-44059523D01*
X123770714Y-44297619D01*
X123770714Y-44654761D01*
X123651666Y-44892857D01*
X123532619Y-45011904D01*
X123294523Y-45130952D01*
X122342142Y-45130952D01*
X122342142Y-42630952D01*
X123175476Y-42630952D01*
X123413571Y-42750000D01*
X123532619Y-42869047D01*
X123651666Y-43107142D01*
X123651666Y-43345238D01*
X123532619Y-43583333D01*
X123413571Y-43702380D01*
X123175476Y-43821428D01*
X122342142Y-43821428D01*
X125199285Y-45130952D02*
X124961190Y-45011904D01*
X124842142Y-44892857D01*
X124723095Y-44654761D01*
X124723095Y-43940476D01*
X124842142Y-43702380D01*
X124961190Y-43583333D01*
X125199285Y-43464285D01*
X125556428Y-43464285D01*
X125794523Y-43583333D01*
X125913571Y-43702380D01*
X126032619Y-43940476D01*
X126032619Y-44654761D01*
X125913571Y-44892857D01*
X125794523Y-45011904D01*
X125556428Y-45130952D01*
X125199285Y-45130952D01*
X128175476Y-45130952D02*
X128175476Y-43821428D01*
X128056428Y-43583333D01*
X127818333Y-43464285D01*
X127342142Y-43464285D01*
X127104047Y-43583333D01*
X128175476Y-45011904D02*
X127937380Y-45130952D01*
X127342142Y-45130952D01*
X127104047Y-45011904D01*
X126984999Y-44773809D01*
X126984999Y-44535714D01*
X127104047Y-44297619D01*
X127342142Y-44178571D01*
X127937380Y-44178571D01*
X128175476Y-44059523D01*
X129365952Y-45130952D02*
X129365952Y-43464285D01*
X129365952Y-43940476D02*
X129484999Y-43702380D01*
X129604047Y-43583333D01*
X129842142Y-43464285D01*
X130080238Y-43464285D01*
X131984999Y-45130952D02*
X131984999Y-42630952D01*
X131984999Y-45011904D02*
X131746904Y-45130952D01*
X131270714Y-45130952D01*
X131032619Y-45011904D01*
X130913571Y-44892857D01*
X130794523Y-44654761D01*
X130794523Y-43940476D01*
X130913571Y-43702380D01*
X131032619Y-43583333D01*
X131270714Y-43464285D01*
X131746904Y-43464285D01*
X131984999Y-43583333D01*
D10*
X43085714Y-110654761D02*
X43228571Y-110702380D01*
X43466666Y-110702380D01*
X43561904Y-110654761D01*
X43609523Y-110607142D01*
X43657142Y-110511904D01*
X43657142Y-110416666D01*
X43609523Y-110321428D01*
X43561904Y-110273809D01*
X43466666Y-110226190D01*
X43276190Y-110178571D01*
X43180952Y-110130952D01*
X43133333Y-110083333D01*
X43085714Y-109988095D01*
X43085714Y-109892857D01*
X43133333Y-109797619D01*
X43180952Y-109750000D01*
X43276190Y-109702380D01*
X43514285Y-109702380D01*
X43657142Y-109750000D01*
X44085714Y-110702380D02*
X44085714Y-109702380D01*
X44323809Y-109702380D01*
X44466666Y-109750000D01*
X44561904Y-109845238D01*
X44609523Y-109940476D01*
X44657142Y-110130952D01*
X44657142Y-110273809D01*
X44609523Y-110464285D01*
X44561904Y-110559523D01*
X44466666Y-110654761D01*
X44323809Y-110702380D01*
X44085714Y-110702380D01*
X45038095Y-110416666D02*
X45514285Y-110416666D01*
X44942857Y-110702380D02*
X45276190Y-109702380D01*
X45609523Y-110702380D01*
X60685714Y-65704761D02*
X60828571Y-65752380D01*
X61066666Y-65752380D01*
X61161904Y-65704761D01*
X61209523Y-65657142D01*
X61257142Y-65561904D01*
X61257142Y-65466666D01*
X61209523Y-65371428D01*
X61161904Y-65323809D01*
X61066666Y-65276190D01*
X60876190Y-65228571D01*
X60780952Y-65180952D01*
X60733333Y-65133333D01*
X60685714Y-65038095D01*
X60685714Y-64942857D01*
X60733333Y-64847619D01*
X60780952Y-64800000D01*
X60876190Y-64752380D01*
X61114285Y-64752380D01*
X61257142Y-64800000D01*
X61685714Y-65752380D02*
X61685714Y-64752380D01*
X61923809Y-64752380D01*
X62066666Y-64800000D01*
X62161904Y-64895238D01*
X62209523Y-64990476D01*
X62257142Y-65180952D01*
X62257142Y-65323809D01*
X62209523Y-65514285D01*
X62161904Y-65609523D01*
X62066666Y-65704761D01*
X61923809Y-65752380D01*
X61685714Y-65752380D01*
X62638095Y-65466666D02*
X63114285Y-65466666D01*
X62542857Y-65752380D02*
X62876190Y-64752380D01*
X63209523Y-65752380D01*
X169409523Y-179304761D02*
X169552380Y-179352380D01*
X169790476Y-179352380D01*
X169885714Y-179304761D01*
X169933333Y-179257142D01*
X169980952Y-179161904D01*
X169980952Y-179066666D01*
X169933333Y-178971428D01*
X169885714Y-178923809D01*
X169790476Y-178876190D01*
X169600000Y-178828571D01*
X169504761Y-178780952D01*
X169457142Y-178733333D01*
X169409523Y-178638095D01*
X169409523Y-178542857D01*
X169457142Y-178447619D01*
X169504761Y-178400000D01*
X169600000Y-178352380D01*
X169838095Y-178352380D01*
X169980952Y-178400000D01*
X170980952Y-179257142D02*
X170933333Y-179304761D01*
X170790476Y-179352380D01*
X170695238Y-179352380D01*
X170552380Y-179304761D01*
X170457142Y-179209523D01*
X170409523Y-179114285D01*
X170361904Y-178923809D01*
X170361904Y-178780952D01*
X170409523Y-178590476D01*
X170457142Y-178495238D01*
X170552380Y-178400000D01*
X170695238Y-178352380D01*
X170790476Y-178352380D01*
X170933333Y-178400000D01*
X170980952Y-178447619D01*
X171885714Y-179352380D02*
X171409523Y-179352380D01*
X171409523Y-178352380D01*
X51909523Y-201804761D02*
X52052380Y-201852380D01*
X52290476Y-201852380D01*
X52385714Y-201804761D01*
X52433333Y-201757142D01*
X52480952Y-201661904D01*
X52480952Y-201566666D01*
X52433333Y-201471428D01*
X52385714Y-201423809D01*
X52290476Y-201376190D01*
X52100000Y-201328571D01*
X52004761Y-201280952D01*
X51957142Y-201233333D01*
X51909523Y-201138095D01*
X51909523Y-201042857D01*
X51957142Y-200947619D01*
X52004761Y-200900000D01*
X52100000Y-200852380D01*
X52338095Y-200852380D01*
X52480952Y-200900000D01*
X53480952Y-201757142D02*
X53433333Y-201804761D01*
X53290476Y-201852380D01*
X53195238Y-201852380D01*
X53052380Y-201804761D01*
X52957142Y-201709523D01*
X52909523Y-201614285D01*
X52861904Y-201423809D01*
X52861904Y-201280952D01*
X52909523Y-201090476D01*
X52957142Y-200995238D01*
X53052380Y-200900000D01*
X53195238Y-200852380D01*
X53290476Y-200852380D01*
X53433333Y-200900000D01*
X53480952Y-200947619D01*
X54385714Y-201852380D02*
X53909523Y-201852380D01*
X53909523Y-200852380D01*
X61138095Y-120500000D02*
X61042857Y-120452380D01*
X60900000Y-120452380D01*
X60757142Y-120500000D01*
X60661904Y-120595238D01*
X60614285Y-120690476D01*
X60566666Y-120880952D01*
X60566666Y-121023809D01*
X60614285Y-121214285D01*
X60661904Y-121309523D01*
X60757142Y-121404761D01*
X60900000Y-121452380D01*
X60995238Y-121452380D01*
X61138095Y-121404761D01*
X61185714Y-121357142D01*
X61185714Y-121023809D01*
X60995238Y-121023809D01*
X61614285Y-121452380D02*
X61614285Y-120452380D01*
X62185714Y-121452380D01*
X62185714Y-120452380D01*
X62661904Y-121452380D02*
X62661904Y-120452380D01*
X62900000Y-120452380D01*
X63042857Y-120500000D01*
X63138095Y-120595238D01*
X63185714Y-120690476D01*
X63233333Y-120880952D01*
X63233333Y-121023809D01*
X63185714Y-121214285D01*
X63138095Y-121309523D01*
X63042857Y-121404761D01*
X62900000Y-121452380D01*
X62661904Y-121452380D01*
X178085714Y-111779761D02*
X178228571Y-111827380D01*
X178466666Y-111827380D01*
X178561904Y-111779761D01*
X178609523Y-111732142D01*
X178657142Y-111636904D01*
X178657142Y-111541666D01*
X178609523Y-111446428D01*
X178561904Y-111398809D01*
X178466666Y-111351190D01*
X178276190Y-111303571D01*
X178180952Y-111255952D01*
X178133333Y-111208333D01*
X178085714Y-111113095D01*
X178085714Y-111017857D01*
X178133333Y-110922619D01*
X178180952Y-110875000D01*
X178276190Y-110827380D01*
X178514285Y-110827380D01*
X178657142Y-110875000D01*
X179085714Y-111827380D02*
X179085714Y-110827380D01*
X179323809Y-110827380D01*
X179466666Y-110875000D01*
X179561904Y-110970238D01*
X179609523Y-111065476D01*
X179657142Y-111255952D01*
X179657142Y-111398809D01*
X179609523Y-111589285D01*
X179561904Y-111684523D01*
X179466666Y-111779761D01*
X179323809Y-111827380D01*
X179085714Y-111827380D01*
X180038095Y-111541666D02*
X180514285Y-111541666D01*
X179942857Y-111827380D02*
X180276190Y-110827380D01*
X180609523Y-111827380D01*
X151909523Y-133804761D02*
X152052380Y-133852380D01*
X152290476Y-133852380D01*
X152385714Y-133804761D01*
X152433333Y-133757142D01*
X152480952Y-133661904D01*
X152480952Y-133566666D01*
X152433333Y-133471428D01*
X152385714Y-133423809D01*
X152290476Y-133376190D01*
X152100000Y-133328571D01*
X152004761Y-133280952D01*
X151957142Y-133233333D01*
X151909523Y-133138095D01*
X151909523Y-133042857D01*
X151957142Y-132947619D01*
X152004761Y-132900000D01*
X152100000Y-132852380D01*
X152338095Y-132852380D01*
X152480952Y-132900000D01*
X153480952Y-133757142D02*
X153433333Y-133804761D01*
X153290476Y-133852380D01*
X153195238Y-133852380D01*
X153052380Y-133804761D01*
X152957142Y-133709523D01*
X152909523Y-133614285D01*
X152861904Y-133423809D01*
X152861904Y-133280952D01*
X152909523Y-133090476D01*
X152957142Y-132995238D01*
X153052380Y-132900000D01*
X153195238Y-132852380D01*
X153290476Y-132852380D01*
X153433333Y-132900000D01*
X153480952Y-132947619D01*
X154385714Y-133852380D02*
X153909523Y-133852380D01*
X153909523Y-132852380D01*
X178085714Y-133979761D02*
X178228571Y-134027380D01*
X178466666Y-134027380D01*
X178561904Y-133979761D01*
X178609523Y-133932142D01*
X178657142Y-133836904D01*
X178657142Y-133741666D01*
X178609523Y-133646428D01*
X178561904Y-133598809D01*
X178466666Y-133551190D01*
X178276190Y-133503571D01*
X178180952Y-133455952D01*
X178133333Y-133408333D01*
X178085714Y-133313095D01*
X178085714Y-133217857D01*
X178133333Y-133122619D01*
X178180952Y-133075000D01*
X178276190Y-133027380D01*
X178514285Y-133027380D01*
X178657142Y-133075000D01*
X179085714Y-134027380D02*
X179085714Y-133027380D01*
X179323809Y-133027380D01*
X179466666Y-133075000D01*
X179561904Y-133170238D01*
X179609523Y-133265476D01*
X179657142Y-133455952D01*
X179657142Y-133598809D01*
X179609523Y-133789285D01*
X179561904Y-133884523D01*
X179466666Y-133979761D01*
X179323809Y-134027380D01*
X179085714Y-134027380D01*
X180038095Y-133741666D02*
X180514285Y-133741666D01*
X179942857Y-134027380D02*
X180276190Y-133027380D01*
X180609523Y-134027380D01*
X161238095Y-54375000D02*
X161142857Y-54327380D01*
X161000000Y-54327380D01*
X160857142Y-54375000D01*
X160761904Y-54470238D01*
X160714285Y-54565476D01*
X160666666Y-54755952D01*
X160666666Y-54898809D01*
X160714285Y-55089285D01*
X160761904Y-55184523D01*
X160857142Y-55279761D01*
X161000000Y-55327380D01*
X161095238Y-55327380D01*
X161238095Y-55279761D01*
X161285714Y-55232142D01*
X161285714Y-54898809D01*
X161095238Y-54898809D01*
X161714285Y-55327380D02*
X161714285Y-54327380D01*
X162285714Y-55327380D01*
X162285714Y-54327380D01*
X162761904Y-55327380D02*
X162761904Y-54327380D01*
X163000000Y-54327380D01*
X163142857Y-54375000D01*
X163238095Y-54470238D01*
X163285714Y-54565476D01*
X163333333Y-54755952D01*
X163333333Y-54898809D01*
X163285714Y-55089285D01*
X163238095Y-55184523D01*
X163142857Y-55279761D01*
X163000000Y-55327380D01*
X162761904Y-55327380D01*
X169409523Y-111704761D02*
X169552380Y-111752380D01*
X169790476Y-111752380D01*
X169885714Y-111704761D01*
X169933333Y-111657142D01*
X169980952Y-111561904D01*
X169980952Y-111466666D01*
X169933333Y-111371428D01*
X169885714Y-111323809D01*
X169790476Y-111276190D01*
X169600000Y-111228571D01*
X169504761Y-111180952D01*
X169457142Y-111133333D01*
X169409523Y-111038095D01*
X169409523Y-110942857D01*
X169457142Y-110847619D01*
X169504761Y-110800000D01*
X169600000Y-110752380D01*
X169838095Y-110752380D01*
X169980952Y-110800000D01*
X170980952Y-111657142D02*
X170933333Y-111704761D01*
X170790476Y-111752380D01*
X170695238Y-111752380D01*
X170552380Y-111704761D01*
X170457142Y-111609523D01*
X170409523Y-111514285D01*
X170361904Y-111323809D01*
X170361904Y-111180952D01*
X170409523Y-110990476D01*
X170457142Y-110895238D01*
X170552380Y-110800000D01*
X170695238Y-110752380D01*
X170790476Y-110752380D01*
X170933333Y-110800000D01*
X170980952Y-110847619D01*
X171885714Y-111752380D02*
X171409523Y-111752380D01*
X171409523Y-110752380D01*
X122166666Y-147452380D02*
X122166666Y-146452380D01*
X122595238Y-146547619D02*
X122642857Y-146500000D01*
X122738095Y-146452380D01*
X122976190Y-146452380D01*
X123071428Y-146500000D01*
X123119047Y-146547619D01*
X123166666Y-146642857D01*
X123166666Y-146738095D01*
X123119047Y-146880952D01*
X122547619Y-147452380D01*
X123166666Y-147452380D01*
X124166666Y-147357142D02*
X124119047Y-147404761D01*
X123976190Y-147452380D01*
X123880952Y-147452380D01*
X123738095Y-147404761D01*
X123642857Y-147309523D01*
X123595238Y-147214285D01*
X123547619Y-147023809D01*
X123547619Y-146880952D01*
X123595238Y-146690476D01*
X123642857Y-146595238D01*
X123738095Y-146500000D01*
X123880952Y-146452380D01*
X123976190Y-146452380D01*
X124119047Y-146500000D01*
X124166666Y-146547619D01*
X125261904Y-146452380D02*
X125880952Y-146452380D01*
X125547619Y-146833333D01*
X125690476Y-146833333D01*
X125785714Y-146880952D01*
X125833333Y-146928571D01*
X125880952Y-147023809D01*
X125880952Y-147261904D01*
X125833333Y-147357142D01*
X125785714Y-147404761D01*
X125690476Y-147452380D01*
X125404761Y-147452380D01*
X125309523Y-147404761D01*
X125261904Y-147357142D01*
X178638095Y-99600000D02*
X178542857Y-99552380D01*
X178400000Y-99552380D01*
X178257142Y-99600000D01*
X178161904Y-99695238D01*
X178114285Y-99790476D01*
X178066666Y-99980952D01*
X178066666Y-100123809D01*
X178114285Y-100314285D01*
X178161904Y-100409523D01*
X178257142Y-100504761D01*
X178400000Y-100552380D01*
X178495238Y-100552380D01*
X178638095Y-100504761D01*
X178685714Y-100457142D01*
X178685714Y-100123809D01*
X178495238Y-100123809D01*
X179114285Y-100552380D02*
X179114285Y-99552380D01*
X179685714Y-100552380D01*
X179685714Y-99552380D01*
X180161904Y-100552380D02*
X180161904Y-99552380D01*
X180400000Y-99552380D01*
X180542857Y-99600000D01*
X180638095Y-99695238D01*
X180685714Y-99790476D01*
X180733333Y-99980952D01*
X180733333Y-100123809D01*
X180685714Y-100314285D01*
X180638095Y-100409523D01*
X180542857Y-100504761D01*
X180400000Y-100552380D01*
X180161904Y-100552380D01*
X61238095Y-53525000D02*
X61142857Y-53477380D01*
X61000000Y-53477380D01*
X60857142Y-53525000D01*
X60761904Y-53620238D01*
X60714285Y-53715476D01*
X60666666Y-53905952D01*
X60666666Y-54048809D01*
X60714285Y-54239285D01*
X60761904Y-54334523D01*
X60857142Y-54429761D01*
X61000000Y-54477380D01*
X61095238Y-54477380D01*
X61238095Y-54429761D01*
X61285714Y-54382142D01*
X61285714Y-54048809D01*
X61095238Y-54048809D01*
X61714285Y-54477380D02*
X61714285Y-53477380D01*
X62285714Y-54477380D01*
X62285714Y-53477380D01*
X62761904Y-54477380D02*
X62761904Y-53477380D01*
X63000000Y-53477380D01*
X63142857Y-53525000D01*
X63238095Y-53620238D01*
X63285714Y-53715476D01*
X63333333Y-53905952D01*
X63333333Y-54048809D01*
X63285714Y-54239285D01*
X63238095Y-54334523D01*
X63142857Y-54429761D01*
X63000000Y-54477380D01*
X62761904Y-54477380D01*
X82285714Y-162404761D02*
X82428571Y-162452380D01*
X82666666Y-162452380D01*
X82761904Y-162404761D01*
X82809523Y-162357142D01*
X82857142Y-162261904D01*
X82857142Y-162166666D01*
X82809523Y-162071428D01*
X82761904Y-162023809D01*
X82666666Y-161976190D01*
X82476190Y-161928571D01*
X82380952Y-161880952D01*
X82333333Y-161833333D01*
X82285714Y-161738095D01*
X82285714Y-161642857D01*
X82333333Y-161547619D01*
X82380952Y-161500000D01*
X82476190Y-161452380D01*
X82714285Y-161452380D01*
X82857142Y-161500000D01*
X83285714Y-162452380D02*
X83285714Y-161452380D01*
X83523809Y-161452380D01*
X83666666Y-161500000D01*
X83761904Y-161595238D01*
X83809523Y-161690476D01*
X83857142Y-161880952D01*
X83857142Y-162023809D01*
X83809523Y-162214285D01*
X83761904Y-162309523D01*
X83666666Y-162404761D01*
X83523809Y-162452380D01*
X83285714Y-162452380D01*
X84238095Y-162166666D02*
X84714285Y-162166666D01*
X84142857Y-162452380D02*
X84476190Y-161452380D01*
X84809523Y-162452380D01*
X178638095Y-121800000D02*
X178542857Y-121752380D01*
X178400000Y-121752380D01*
X178257142Y-121800000D01*
X178161904Y-121895238D01*
X178114285Y-121990476D01*
X178066666Y-122180952D01*
X178066666Y-122323809D01*
X178114285Y-122514285D01*
X178161904Y-122609523D01*
X178257142Y-122704761D01*
X178400000Y-122752380D01*
X178495238Y-122752380D01*
X178638095Y-122704761D01*
X178685714Y-122657142D01*
X178685714Y-122323809D01*
X178495238Y-122323809D01*
X179114285Y-122752380D02*
X179114285Y-121752380D01*
X179685714Y-122752380D01*
X179685714Y-121752380D01*
X180161904Y-122752380D02*
X180161904Y-121752380D01*
X180400000Y-121752380D01*
X180542857Y-121800000D01*
X180638095Y-121895238D01*
X180685714Y-121990476D01*
X180733333Y-122180952D01*
X180733333Y-122323809D01*
X180685714Y-122514285D01*
X180638095Y-122609523D01*
X180542857Y-122704761D01*
X180400000Y-122752380D01*
X180161904Y-122752380D01*
X178638095Y-76725000D02*
X178542857Y-76677380D01*
X178400000Y-76677380D01*
X178257142Y-76725000D01*
X178161904Y-76820238D01*
X178114285Y-76915476D01*
X178066666Y-77105952D01*
X178066666Y-77248809D01*
X178114285Y-77439285D01*
X178161904Y-77534523D01*
X178257142Y-77629761D01*
X178400000Y-77677380D01*
X178495238Y-77677380D01*
X178638095Y-77629761D01*
X178685714Y-77582142D01*
X178685714Y-77248809D01*
X178495238Y-77248809D01*
X179114285Y-77677380D02*
X179114285Y-76677380D01*
X179685714Y-77677380D01*
X179685714Y-76677380D01*
X180161904Y-77677380D02*
X180161904Y-76677380D01*
X180400000Y-76677380D01*
X180542857Y-76725000D01*
X180638095Y-76820238D01*
X180685714Y-76915476D01*
X180733333Y-77105952D01*
X180733333Y-77248809D01*
X180685714Y-77439285D01*
X180638095Y-77534523D01*
X180542857Y-77629761D01*
X180400000Y-77677380D01*
X180161904Y-77677380D01*
X102372470Y-54452380D02*
X102943898Y-54452380D01*
X102533184Y-55452380D02*
X102658184Y-54452380D01*
X103152232Y-55452380D02*
X103277232Y-54452380D01*
X103521279Y-55166666D01*
X103943898Y-54452380D01*
X103818898Y-55452380D01*
X104806994Y-54785714D02*
X104723660Y-55452380D01*
X104616517Y-54404761D02*
X104289136Y-55119047D01*
X104908184Y-55119047D01*
X105830803Y-55357142D02*
X105777232Y-55404761D01*
X105628422Y-55452380D01*
X105533184Y-55452380D01*
X105396279Y-55404761D01*
X105312946Y-55309523D01*
X105277232Y-55214285D01*
X105253422Y-55023809D01*
X105271279Y-54880952D01*
X105342708Y-54690476D01*
X105402232Y-54595238D01*
X105509375Y-54500000D01*
X105658184Y-54452380D01*
X105753422Y-54452380D01*
X105890327Y-54500000D01*
X105931994Y-54547619D01*
X106771279Y-55452380D02*
X106199851Y-55452380D01*
X106485565Y-55452380D02*
X106610565Y-54452380D01*
X106497470Y-54595238D01*
X106390327Y-54690476D01*
X106289136Y-54738095D01*
X107265327Y-54547619D02*
X107318898Y-54500000D01*
X107420089Y-54452380D01*
X107658184Y-54452380D01*
X107747470Y-54500000D01*
X107789136Y-54547619D01*
X107824851Y-54642857D01*
X107812946Y-54738095D01*
X107747470Y-54880952D01*
X107104613Y-55452380D01*
X107723660Y-55452380D01*
X108181994Y-54452380D02*
X108801041Y-54452380D01*
X108420089Y-54833333D01*
X108562946Y-54833333D01*
X108652232Y-54880952D01*
X108693898Y-54928571D01*
X108729613Y-55023809D01*
X108699851Y-55261904D01*
X108640327Y-55357142D01*
X108586755Y-55404761D01*
X108485565Y-55452380D01*
X108199851Y-55452380D01*
X108110565Y-55404761D01*
X108068898Y-55357142D01*
X109747470Y-54500000D02*
X109658184Y-54452380D01*
X109515327Y-54452380D01*
X109366517Y-54500000D01*
X109259375Y-54595238D01*
X109199851Y-54690476D01*
X109128422Y-54880952D01*
X109110565Y-55023809D01*
X109134375Y-55214285D01*
X109170089Y-55309523D01*
X109253422Y-55404761D01*
X109390327Y-55452380D01*
X109485565Y-55452380D01*
X109634375Y-55404761D01*
X109687946Y-55357142D01*
X109729613Y-55023809D01*
X109539136Y-55023809D01*
X110134375Y-54452380D02*
X110676041Y-55452380D01*
X110801041Y-54452380D02*
X110009375Y-55452380D01*
X111533184Y-55452380D02*
X111056994Y-55452380D01*
X111181994Y-54452380D01*
X43185714Y-65879761D02*
X43328571Y-65927380D01*
X43566666Y-65927380D01*
X43661904Y-65879761D01*
X43709523Y-65832142D01*
X43757142Y-65736904D01*
X43757142Y-65641666D01*
X43709523Y-65546428D01*
X43661904Y-65498809D01*
X43566666Y-65451190D01*
X43376190Y-65403571D01*
X43280952Y-65355952D01*
X43233333Y-65308333D01*
X43185714Y-65213095D01*
X43185714Y-65117857D01*
X43233333Y-65022619D01*
X43280952Y-64975000D01*
X43376190Y-64927380D01*
X43614285Y-64927380D01*
X43757142Y-64975000D01*
X44185714Y-65927380D02*
X44185714Y-64927380D01*
X44423809Y-64927380D01*
X44566666Y-64975000D01*
X44661904Y-65070238D01*
X44709523Y-65165476D01*
X44757142Y-65355952D01*
X44757142Y-65498809D01*
X44709523Y-65689285D01*
X44661904Y-65784523D01*
X44566666Y-65879761D01*
X44423809Y-65927380D01*
X44185714Y-65927380D01*
X45138095Y-65641666D02*
X45614285Y-65641666D01*
X45042857Y-65927380D02*
X45376190Y-64927380D01*
X45709523Y-65927380D01*
X43638095Y-120400000D02*
X43542857Y-120352380D01*
X43400000Y-120352380D01*
X43257142Y-120400000D01*
X43161904Y-120495238D01*
X43114285Y-120590476D01*
X43066666Y-120780952D01*
X43066666Y-120923809D01*
X43114285Y-121114285D01*
X43161904Y-121209523D01*
X43257142Y-121304761D01*
X43400000Y-121352380D01*
X43495238Y-121352380D01*
X43638095Y-121304761D01*
X43685714Y-121257142D01*
X43685714Y-120923809D01*
X43495238Y-120923809D01*
X44114285Y-121352380D02*
X44114285Y-120352380D01*
X44685714Y-121352380D01*
X44685714Y-120352380D01*
X45161904Y-121352380D02*
X45161904Y-120352380D01*
X45400000Y-120352380D01*
X45542857Y-120400000D01*
X45638095Y-120495238D01*
X45685714Y-120590476D01*
X45733333Y-120780952D01*
X45733333Y-120923809D01*
X45685714Y-121114285D01*
X45638095Y-121209523D01*
X45542857Y-121304761D01*
X45400000Y-121352380D01*
X45161904Y-121352380D01*
X105238095Y-149500000D02*
X105142857Y-149452380D01*
X105000000Y-149452380D01*
X104857142Y-149500000D01*
X104761904Y-149595238D01*
X104714285Y-149690476D01*
X104666666Y-149880952D01*
X104666666Y-150023809D01*
X104714285Y-150214285D01*
X104761904Y-150309523D01*
X104857142Y-150404761D01*
X105000000Y-150452380D01*
X105095238Y-150452380D01*
X105238095Y-150404761D01*
X105285714Y-150357142D01*
X105285714Y-150023809D01*
X105095238Y-150023809D01*
X105714285Y-150452380D02*
X105714285Y-149452380D01*
X106285714Y-150452380D01*
X106285714Y-149452380D01*
X106761904Y-150452380D02*
X106761904Y-149452380D01*
X107000000Y-149452380D01*
X107142857Y-149500000D01*
X107238095Y-149595238D01*
X107285714Y-149690476D01*
X107333333Y-149880952D01*
X107333333Y-150023809D01*
X107285714Y-150214285D01*
X107238095Y-150309523D01*
X107142857Y-150404761D01*
X107000000Y-150452380D01*
X106761904Y-150452380D01*
X43185714Y-88004761D02*
X43328571Y-88052380D01*
X43566666Y-88052380D01*
X43661904Y-88004761D01*
X43709523Y-87957142D01*
X43757142Y-87861904D01*
X43757142Y-87766666D01*
X43709523Y-87671428D01*
X43661904Y-87623809D01*
X43566666Y-87576190D01*
X43376190Y-87528571D01*
X43280952Y-87480952D01*
X43233333Y-87433333D01*
X43185714Y-87338095D01*
X43185714Y-87242857D01*
X43233333Y-87147619D01*
X43280952Y-87100000D01*
X43376190Y-87052380D01*
X43614285Y-87052380D01*
X43757142Y-87100000D01*
X44185714Y-88052380D02*
X44185714Y-87052380D01*
X44423809Y-87052380D01*
X44566666Y-87100000D01*
X44661904Y-87195238D01*
X44709523Y-87290476D01*
X44757142Y-87480952D01*
X44757142Y-87623809D01*
X44709523Y-87814285D01*
X44661904Y-87909523D01*
X44566666Y-88004761D01*
X44423809Y-88052380D01*
X44185714Y-88052380D01*
X45138095Y-87766666D02*
X45614285Y-87766666D01*
X45042857Y-88052380D02*
X45376190Y-87052380D01*
X45709523Y-88052380D01*
X117738095Y-149500000D02*
X117642857Y-149452380D01*
X117500000Y-149452380D01*
X117357142Y-149500000D01*
X117261904Y-149595238D01*
X117214285Y-149690476D01*
X117166666Y-149880952D01*
X117166666Y-150023809D01*
X117214285Y-150214285D01*
X117261904Y-150309523D01*
X117357142Y-150404761D01*
X117500000Y-150452380D01*
X117595238Y-150452380D01*
X117738095Y-150404761D01*
X117785714Y-150357142D01*
X117785714Y-150023809D01*
X117595238Y-150023809D01*
X118214285Y-150452380D02*
X118214285Y-149452380D01*
X118785714Y-150452380D01*
X118785714Y-149452380D01*
X119261904Y-150452380D02*
X119261904Y-149452380D01*
X119500000Y-149452380D01*
X119642857Y-149500000D01*
X119738095Y-149595238D01*
X119785714Y-149690476D01*
X119833333Y-149880952D01*
X119833333Y-150023809D01*
X119785714Y-150214285D01*
X119738095Y-150309523D01*
X119642857Y-150404761D01*
X119500000Y-150452380D01*
X119261904Y-150452380D01*
X178638095Y-167200000D02*
X178542857Y-167152380D01*
X178400000Y-167152380D01*
X178257142Y-167200000D01*
X178161904Y-167295238D01*
X178114285Y-167390476D01*
X178066666Y-167580952D01*
X178066666Y-167723809D01*
X178114285Y-167914285D01*
X178161904Y-168009523D01*
X178257142Y-168104761D01*
X178400000Y-168152380D01*
X178495238Y-168152380D01*
X178638095Y-168104761D01*
X178685714Y-168057142D01*
X178685714Y-167723809D01*
X178495238Y-167723809D01*
X179114285Y-168152380D02*
X179114285Y-167152380D01*
X179685714Y-168152380D01*
X179685714Y-167152380D01*
X180161904Y-168152380D02*
X180161904Y-167152380D01*
X180400000Y-167152380D01*
X180542857Y-167200000D01*
X180638095Y-167295238D01*
X180685714Y-167390476D01*
X180733333Y-167580952D01*
X180733333Y-167723809D01*
X180685714Y-167914285D01*
X180638095Y-168009523D01*
X180542857Y-168104761D01*
X180400000Y-168152380D01*
X180161904Y-168152380D01*
X160585714Y-133879761D02*
X160728571Y-133927380D01*
X160966666Y-133927380D01*
X161061904Y-133879761D01*
X161109523Y-133832142D01*
X161157142Y-133736904D01*
X161157142Y-133641666D01*
X161109523Y-133546428D01*
X161061904Y-133498809D01*
X160966666Y-133451190D01*
X160776190Y-133403571D01*
X160680952Y-133355952D01*
X160633333Y-133308333D01*
X160585714Y-133213095D01*
X160585714Y-133117857D01*
X160633333Y-133022619D01*
X160680952Y-132975000D01*
X160776190Y-132927380D01*
X161014285Y-132927380D01*
X161157142Y-132975000D01*
X161585714Y-133927380D02*
X161585714Y-132927380D01*
X161823809Y-132927380D01*
X161966666Y-132975000D01*
X162061904Y-133070238D01*
X162109523Y-133165476D01*
X162157142Y-133355952D01*
X162157142Y-133498809D01*
X162109523Y-133689285D01*
X162061904Y-133784523D01*
X161966666Y-133879761D01*
X161823809Y-133927380D01*
X161585714Y-133927380D01*
X162538095Y-133641666D02*
X163014285Y-133641666D01*
X162442857Y-133927380D02*
X162776190Y-132927380D01*
X163109523Y-133927380D01*
X115809523Y-162404761D02*
X115952380Y-162452380D01*
X116190476Y-162452380D01*
X116285714Y-162404761D01*
X116333333Y-162357142D01*
X116380952Y-162261904D01*
X116380952Y-162166666D01*
X116333333Y-162071428D01*
X116285714Y-162023809D01*
X116190476Y-161976190D01*
X116000000Y-161928571D01*
X115904761Y-161880952D01*
X115857142Y-161833333D01*
X115809523Y-161738095D01*
X115809523Y-161642857D01*
X115857142Y-161547619D01*
X115904761Y-161500000D01*
X116000000Y-161452380D01*
X116238095Y-161452380D01*
X116380952Y-161500000D01*
X117380952Y-162357142D02*
X117333333Y-162404761D01*
X117190476Y-162452380D01*
X117095238Y-162452380D01*
X116952380Y-162404761D01*
X116857142Y-162309523D01*
X116809523Y-162214285D01*
X116761904Y-162023809D01*
X116761904Y-161880952D01*
X116809523Y-161690476D01*
X116857142Y-161595238D01*
X116952380Y-161500000D01*
X117095238Y-161452380D01*
X117190476Y-161452380D01*
X117333333Y-161500000D01*
X117380952Y-161547619D01*
X118285714Y-162452380D02*
X117809523Y-162452380D01*
X117809523Y-161452380D01*
X169409523Y-88829761D02*
X169552380Y-88877380D01*
X169790476Y-88877380D01*
X169885714Y-88829761D01*
X169933333Y-88782142D01*
X169980952Y-88686904D01*
X169980952Y-88591666D01*
X169933333Y-88496428D01*
X169885714Y-88448809D01*
X169790476Y-88401190D01*
X169600000Y-88353571D01*
X169504761Y-88305952D01*
X169457142Y-88258333D01*
X169409523Y-88163095D01*
X169409523Y-88067857D01*
X169457142Y-87972619D01*
X169504761Y-87925000D01*
X169600000Y-87877380D01*
X169838095Y-87877380D01*
X169980952Y-87925000D01*
X170980952Y-88782142D02*
X170933333Y-88829761D01*
X170790476Y-88877380D01*
X170695238Y-88877380D01*
X170552380Y-88829761D01*
X170457142Y-88734523D01*
X170409523Y-88639285D01*
X170361904Y-88448809D01*
X170361904Y-88305952D01*
X170409523Y-88115476D01*
X170457142Y-88020238D01*
X170552380Y-87925000D01*
X170695238Y-87877380D01*
X170790476Y-87877380D01*
X170933333Y-87925000D01*
X170980952Y-87972619D01*
X171885714Y-88877380D02*
X171409523Y-88877380D01*
X171409523Y-87877380D01*
X47166666Y-46647380D02*
X47166666Y-45647380D01*
X47595238Y-45742619D02*
X47642857Y-45695000D01*
X47738095Y-45647380D01*
X47976190Y-45647380D01*
X48071428Y-45695000D01*
X48119047Y-45742619D01*
X48166666Y-45837857D01*
X48166666Y-45933095D01*
X48119047Y-46075952D01*
X47547619Y-46647380D01*
X48166666Y-46647380D01*
X49166666Y-46552142D02*
X49119047Y-46599761D01*
X48976190Y-46647380D01*
X48880952Y-46647380D01*
X48738095Y-46599761D01*
X48642857Y-46504523D01*
X48595238Y-46409285D01*
X48547619Y-46218809D01*
X48547619Y-46075952D01*
X48595238Y-45885476D01*
X48642857Y-45790238D01*
X48738095Y-45695000D01*
X48880952Y-45647380D01*
X48976190Y-45647380D01*
X49119047Y-45695000D01*
X49166666Y-45742619D01*
X50547619Y-45647380D02*
X50642857Y-45647380D01*
X50738095Y-45695000D01*
X50785714Y-45742619D01*
X50833333Y-45837857D01*
X50880952Y-46028333D01*
X50880952Y-46266428D01*
X50833333Y-46456904D01*
X50785714Y-46552142D01*
X50738095Y-46599761D01*
X50642857Y-46647380D01*
X50547619Y-46647380D01*
X50452380Y-46599761D01*
X50404761Y-46552142D01*
X50357142Y-46456904D01*
X50309523Y-46266428D01*
X50309523Y-46028333D01*
X50357142Y-45837857D01*
X50404761Y-45742619D01*
X50452380Y-45695000D01*
X50547619Y-45647380D01*
X151909523Y-201404761D02*
X152052380Y-201452380D01*
X152290476Y-201452380D01*
X152385714Y-201404761D01*
X152433333Y-201357142D01*
X152480952Y-201261904D01*
X152480952Y-201166666D01*
X152433333Y-201071428D01*
X152385714Y-201023809D01*
X152290476Y-200976190D01*
X152100000Y-200928571D01*
X152004761Y-200880952D01*
X151957142Y-200833333D01*
X151909523Y-200738095D01*
X151909523Y-200642857D01*
X151957142Y-200547619D01*
X152004761Y-200500000D01*
X152100000Y-200452380D01*
X152338095Y-200452380D01*
X152480952Y-200500000D01*
X153480952Y-201357142D02*
X153433333Y-201404761D01*
X153290476Y-201452380D01*
X153195238Y-201452380D01*
X153052380Y-201404761D01*
X152957142Y-201309523D01*
X152909523Y-201214285D01*
X152861904Y-201023809D01*
X152861904Y-200880952D01*
X152909523Y-200690476D01*
X152957142Y-200595238D01*
X153052380Y-200500000D01*
X153195238Y-200452380D01*
X153290476Y-200452380D01*
X153433333Y-200500000D01*
X153480952Y-200547619D01*
X154385714Y-201452380D02*
X153909523Y-201452380D01*
X153909523Y-200452380D01*
X43085714Y-201779761D02*
X43228571Y-201827380D01*
X43466666Y-201827380D01*
X43561904Y-201779761D01*
X43609523Y-201732142D01*
X43657142Y-201636904D01*
X43657142Y-201541666D01*
X43609523Y-201446428D01*
X43561904Y-201398809D01*
X43466666Y-201351190D01*
X43276190Y-201303571D01*
X43180952Y-201255952D01*
X43133333Y-201208333D01*
X43085714Y-201113095D01*
X43085714Y-201017857D01*
X43133333Y-200922619D01*
X43180952Y-200875000D01*
X43276190Y-200827380D01*
X43514285Y-200827380D01*
X43657142Y-200875000D01*
X44085714Y-201827380D02*
X44085714Y-200827380D01*
X44323809Y-200827380D01*
X44466666Y-200875000D01*
X44561904Y-200970238D01*
X44609523Y-201065476D01*
X44657142Y-201255952D01*
X44657142Y-201398809D01*
X44609523Y-201589285D01*
X44561904Y-201684523D01*
X44466666Y-201779761D01*
X44323809Y-201827380D01*
X44085714Y-201827380D01*
X45038095Y-201541666D02*
X45514285Y-201541666D01*
X44942857Y-201827380D02*
X45276190Y-200827380D01*
X45609523Y-201827380D01*
X79938095Y-149700000D02*
X79842857Y-149652380D01*
X79700000Y-149652380D01*
X79557142Y-149700000D01*
X79461904Y-149795238D01*
X79414285Y-149890476D01*
X79366666Y-150080952D01*
X79366666Y-150223809D01*
X79414285Y-150414285D01*
X79461904Y-150509523D01*
X79557142Y-150604761D01*
X79700000Y-150652380D01*
X79795238Y-150652380D01*
X79938095Y-150604761D01*
X79985714Y-150557142D01*
X79985714Y-150223809D01*
X79795238Y-150223809D01*
X80414285Y-150652380D02*
X80414285Y-149652380D01*
X80985714Y-150652380D01*
X80985714Y-149652380D01*
X81461904Y-150652380D02*
X81461904Y-149652380D01*
X81700000Y-149652380D01*
X81842857Y-149700000D01*
X81938095Y-149795238D01*
X81985714Y-149890476D01*
X82033333Y-150080952D01*
X82033333Y-150223809D01*
X81985714Y-150414285D01*
X81938095Y-150509523D01*
X81842857Y-150604761D01*
X81700000Y-150652380D01*
X81461904Y-150652380D01*
X84466666Y-147752380D02*
X84466666Y-146752380D01*
X84895238Y-146847619D02*
X84942857Y-146800000D01*
X85038095Y-146752380D01*
X85276190Y-146752380D01*
X85371428Y-146800000D01*
X85419047Y-146847619D01*
X85466666Y-146942857D01*
X85466666Y-147038095D01*
X85419047Y-147180952D01*
X84847619Y-147752380D01*
X85466666Y-147752380D01*
X86466666Y-147657142D02*
X86419047Y-147704761D01*
X86276190Y-147752380D01*
X86180952Y-147752380D01*
X86038095Y-147704761D01*
X85942857Y-147609523D01*
X85895238Y-147514285D01*
X85847619Y-147323809D01*
X85847619Y-147180952D01*
X85895238Y-146990476D01*
X85942857Y-146895238D01*
X86038095Y-146800000D01*
X86180952Y-146752380D01*
X86276190Y-146752380D01*
X86419047Y-146800000D01*
X86466666Y-146847619D01*
X87847619Y-146752380D02*
X87942857Y-146752380D01*
X88038095Y-146800000D01*
X88085714Y-146847619D01*
X88133333Y-146942857D01*
X88180952Y-147133333D01*
X88180952Y-147371428D01*
X88133333Y-147561904D01*
X88085714Y-147657142D01*
X88038095Y-147704761D01*
X87942857Y-147752380D01*
X87847619Y-147752380D01*
X87752380Y-147704761D01*
X87704761Y-147657142D01*
X87657142Y-147561904D01*
X87609523Y-147371428D01*
X87609523Y-147133333D01*
X87657142Y-146942857D01*
X87704761Y-146847619D01*
X87752380Y-146800000D01*
X87847619Y-146752380D01*
X178638095Y-189400000D02*
X178542857Y-189352380D01*
X178400000Y-189352380D01*
X178257142Y-189400000D01*
X178161904Y-189495238D01*
X178114285Y-189590476D01*
X178066666Y-189780952D01*
X178066666Y-189923809D01*
X178114285Y-190114285D01*
X178161904Y-190209523D01*
X178257142Y-190304761D01*
X178400000Y-190352380D01*
X178495238Y-190352380D01*
X178638095Y-190304761D01*
X178685714Y-190257142D01*
X178685714Y-189923809D01*
X178495238Y-189923809D01*
X179114285Y-190352380D02*
X179114285Y-189352380D01*
X179685714Y-190352380D01*
X179685714Y-189352380D01*
X180161904Y-190352380D02*
X180161904Y-189352380D01*
X180400000Y-189352380D01*
X180542857Y-189400000D01*
X180638095Y-189495238D01*
X180685714Y-189590476D01*
X180733333Y-189780952D01*
X180733333Y-189923809D01*
X180685714Y-190114285D01*
X180638095Y-190209523D01*
X180542857Y-190304761D01*
X180400000Y-190352380D01*
X180161904Y-190352380D01*
X61138095Y-167500000D02*
X61042857Y-167452380D01*
X60900000Y-167452380D01*
X60757142Y-167500000D01*
X60661904Y-167595238D01*
X60614285Y-167690476D01*
X60566666Y-167880952D01*
X60566666Y-168023809D01*
X60614285Y-168214285D01*
X60661904Y-168309523D01*
X60757142Y-168404761D01*
X60900000Y-168452380D01*
X60995238Y-168452380D01*
X61138095Y-168404761D01*
X61185714Y-168357142D01*
X61185714Y-168023809D01*
X60995238Y-168023809D01*
X61614285Y-168452380D02*
X61614285Y-167452380D01*
X62185714Y-168452380D01*
X62185714Y-167452380D01*
X62661904Y-168452380D02*
X62661904Y-167452380D01*
X62900000Y-167452380D01*
X63042857Y-167500000D01*
X63138095Y-167595238D01*
X63185714Y-167690476D01*
X63233333Y-167880952D01*
X63233333Y-168023809D01*
X63185714Y-168214285D01*
X63138095Y-168309523D01*
X63042857Y-168404761D01*
X62900000Y-168452380D01*
X62661904Y-168452380D01*
X110114285Y-203271428D02*
X110876190Y-203271428D01*
X110495238Y-203652380D02*
X110495238Y-202890476D01*
X111828571Y-202652380D02*
X111352380Y-202652380D01*
X111304761Y-203128571D01*
X111352380Y-203080952D01*
X111447619Y-203033333D01*
X111685714Y-203033333D01*
X111780952Y-203080952D01*
X111828571Y-203128571D01*
X111876190Y-203223809D01*
X111876190Y-203461904D01*
X111828571Y-203557142D01*
X111780952Y-203604761D01*
X111685714Y-203652380D01*
X111447619Y-203652380D01*
X111352380Y-203604761D01*
X111304761Y-203557142D01*
X112161904Y-202652380D02*
X112495238Y-203652380D01*
X112828571Y-202652380D01*
X92238095Y-149500000D02*
X92142857Y-149452380D01*
X92000000Y-149452380D01*
X91857142Y-149500000D01*
X91761904Y-149595238D01*
X91714285Y-149690476D01*
X91666666Y-149880952D01*
X91666666Y-150023809D01*
X91714285Y-150214285D01*
X91761904Y-150309523D01*
X91857142Y-150404761D01*
X92000000Y-150452380D01*
X92095238Y-150452380D01*
X92238095Y-150404761D01*
X92285714Y-150357142D01*
X92285714Y-150023809D01*
X92095238Y-150023809D01*
X92714285Y-150452380D02*
X92714285Y-149452380D01*
X93285714Y-150452380D01*
X93285714Y-149452380D01*
X93761904Y-150452380D02*
X93761904Y-149452380D01*
X94000000Y-149452380D01*
X94142857Y-149500000D01*
X94238095Y-149595238D01*
X94285714Y-149690476D01*
X94333333Y-149880952D01*
X94333333Y-150023809D01*
X94285714Y-150214285D01*
X94238095Y-150309523D01*
X94142857Y-150404761D01*
X94000000Y-150452380D01*
X93761904Y-150452380D01*
X120285714Y-162404761D02*
X120428571Y-162452380D01*
X120666666Y-162452380D01*
X120761904Y-162404761D01*
X120809523Y-162357142D01*
X120857142Y-162261904D01*
X120857142Y-162166666D01*
X120809523Y-162071428D01*
X120761904Y-162023809D01*
X120666666Y-161976190D01*
X120476190Y-161928571D01*
X120380952Y-161880952D01*
X120333333Y-161833333D01*
X120285714Y-161738095D01*
X120285714Y-161642857D01*
X120333333Y-161547619D01*
X120380952Y-161500000D01*
X120476190Y-161452380D01*
X120714285Y-161452380D01*
X120857142Y-161500000D01*
X121285714Y-162452380D02*
X121285714Y-161452380D01*
X121523809Y-161452380D01*
X121666666Y-161500000D01*
X121761904Y-161595238D01*
X121809523Y-161690476D01*
X121857142Y-161880952D01*
X121857142Y-162023809D01*
X121809523Y-162214285D01*
X121761904Y-162309523D01*
X121666666Y-162404761D01*
X121523809Y-162452380D01*
X121285714Y-162452380D01*
X122238095Y-162166666D02*
X122714285Y-162166666D01*
X122142857Y-162452380D02*
X122476190Y-161452380D01*
X122809523Y-162452380D01*
X160585714Y-88904761D02*
X160728571Y-88952380D01*
X160966666Y-88952380D01*
X161061904Y-88904761D01*
X161109523Y-88857142D01*
X161157142Y-88761904D01*
X161157142Y-88666666D01*
X161109523Y-88571428D01*
X161061904Y-88523809D01*
X160966666Y-88476190D01*
X160776190Y-88428571D01*
X160680952Y-88380952D01*
X160633333Y-88333333D01*
X160585714Y-88238095D01*
X160585714Y-88142857D01*
X160633333Y-88047619D01*
X160680952Y-88000000D01*
X160776190Y-87952380D01*
X161014285Y-87952380D01*
X161157142Y-88000000D01*
X161585714Y-88952380D02*
X161585714Y-87952380D01*
X161823809Y-87952380D01*
X161966666Y-88000000D01*
X162061904Y-88095238D01*
X162109523Y-88190476D01*
X162157142Y-88380952D01*
X162157142Y-88523809D01*
X162109523Y-88714285D01*
X162061904Y-88809523D01*
X161966666Y-88904761D01*
X161823809Y-88952380D01*
X161585714Y-88952380D01*
X162538095Y-88666666D02*
X163014285Y-88666666D01*
X162442857Y-88952380D02*
X162776190Y-87952380D01*
X163109523Y-88952380D01*
%TO.C,J20*%
X56674748Y-187547380D02*
X56674748Y-188261666D01*
X56627129Y-188404523D01*
X56531891Y-188499761D01*
X56389033Y-188547380D01*
X56293795Y-188547380D01*
X57103319Y-187642619D02*
X57150938Y-187595000D01*
X57246176Y-187547380D01*
X57484272Y-187547380D01*
X57579510Y-187595000D01*
X57627129Y-187642619D01*
X57674748Y-187737857D01*
X57674748Y-187833095D01*
X57627129Y-187975952D01*
X57055700Y-188547380D01*
X57674748Y-188547380D01*
X58293795Y-187547380D02*
X58389033Y-187547380D01*
X58484272Y-187595000D01*
X58531891Y-187642619D01*
X58579510Y-187737857D01*
X58627129Y-187928333D01*
X58627129Y-188166428D01*
X58579510Y-188356904D01*
X58531891Y-188452142D01*
X58484272Y-188499761D01*
X58389033Y-188547380D01*
X58293795Y-188547380D01*
X58198557Y-188499761D01*
X58150938Y-188452142D01*
X58103319Y-188356904D01*
X58055700Y-188166428D01*
X58055700Y-187928333D01*
X58103319Y-187737857D01*
X58150938Y-187642619D01*
X58198557Y-187595000D01*
X58293795Y-187547380D01*
%TO.C,H4*%
X189382395Y-208342380D02*
X189382395Y-207342380D01*
X189382395Y-207818571D02*
X189953823Y-207818571D01*
X189953823Y-208342380D02*
X189953823Y-207342380D01*
X190858585Y-207675714D02*
X190858585Y-208342380D01*
X190620490Y-207294761D02*
X190382395Y-208009047D01*
X191001442Y-208009047D01*
%TO.C,J9*%
X157161666Y-52137380D02*
X157161666Y-52851666D01*
X157114047Y-52994523D01*
X157018809Y-53089761D01*
X156875952Y-53137380D01*
X156780714Y-53137380D01*
X157685476Y-53137380D02*
X157875952Y-53137380D01*
X157971190Y-53089761D01*
X158018809Y-53042142D01*
X158114047Y-52899285D01*
X158161666Y-52708809D01*
X158161666Y-52327857D01*
X158114047Y-52232619D01*
X158066428Y-52185000D01*
X157971190Y-52137380D01*
X157780714Y-52137380D01*
X157685476Y-52185000D01*
X157637857Y-52232619D01*
X157590238Y-52327857D01*
X157590238Y-52565952D01*
X157637857Y-52661190D01*
X157685476Y-52708809D01*
X157780714Y-52756428D01*
X157971190Y-52756428D01*
X158066428Y-52708809D01*
X158114047Y-52661190D01*
X158161666Y-52565952D01*
%TO.C,R6*%
X114333333Y-166452380D02*
X114000000Y-165976190D01*
X113761904Y-166452380D02*
X113761904Y-165452380D01*
X114142857Y-165452380D01*
X114238095Y-165500000D01*
X114285714Y-165547619D01*
X114333333Y-165642857D01*
X114333333Y-165785714D01*
X114285714Y-165880952D01*
X114238095Y-165928571D01*
X114142857Y-165976190D01*
X113761904Y-165976190D01*
X115190476Y-165452380D02*
X115000000Y-165452380D01*
X114904761Y-165500000D01*
X114857142Y-165547619D01*
X114761904Y-165690476D01*
X114714285Y-165880952D01*
X114714285Y-166261904D01*
X114761904Y-166357142D01*
X114809523Y-166404761D01*
X114904761Y-166452380D01*
X115095238Y-166452380D01*
X115190476Y-166404761D01*
X115238095Y-166357142D01*
X115285714Y-166261904D01*
X115285714Y-166023809D01*
X115238095Y-165928571D01*
X115190476Y-165880952D01*
X115095238Y-165833333D01*
X114904761Y-165833333D01*
X114809523Y-165880952D01*
X114761904Y-165928571D01*
X114714285Y-166023809D01*
%TO.C,U1*%
X81738095Y-54142380D02*
X81738095Y-54951904D01*
X81785714Y-55047142D01*
X81833333Y-55094761D01*
X81928571Y-55142380D01*
X82119047Y-55142380D01*
X82214285Y-55094761D01*
X82261904Y-55047142D01*
X82309523Y-54951904D01*
X82309523Y-54142380D01*
X83309523Y-55142380D02*
X82738095Y-55142380D01*
X83023809Y-55142380D02*
X83023809Y-54142380D01*
X82928571Y-54285238D01*
X82833333Y-54380476D01*
X82738095Y-54428095D01*
X111402529Y-125037619D02*
X110831101Y-125037619D01*
X111241815Y-124037619D02*
X111116815Y-125037619D01*
X110622767Y-124037619D02*
X110497767Y-125037619D01*
X110253720Y-124323333D01*
X109831101Y-125037619D01*
X109956101Y-124037619D01*
X108968005Y-124704285D02*
X109051339Y-124037619D01*
X109158482Y-125085238D02*
X109485863Y-124370952D01*
X108866815Y-124370952D01*
X107944196Y-124132857D02*
X107997767Y-124085238D01*
X108146577Y-124037619D01*
X108241815Y-124037619D01*
X108378720Y-124085238D01*
X108462053Y-124180476D01*
X108497767Y-124275714D01*
X108521577Y-124466190D01*
X108503720Y-124609047D01*
X108432291Y-124799523D01*
X108372767Y-124894761D01*
X108265625Y-124990000D01*
X108116815Y-125037619D01*
X108021577Y-125037619D01*
X107884672Y-124990000D01*
X107843005Y-124942380D01*
X107003720Y-124037619D02*
X107575148Y-124037619D01*
X107289434Y-124037619D02*
X107164434Y-125037619D01*
X107277529Y-124894761D01*
X107384672Y-124799523D01*
X107485863Y-124751904D01*
X106509672Y-124942380D02*
X106456101Y-124990000D01*
X106354910Y-125037619D01*
X106116815Y-125037619D01*
X106027529Y-124990000D01*
X105985863Y-124942380D01*
X105950148Y-124847142D01*
X105962053Y-124751904D01*
X106027529Y-124609047D01*
X106670386Y-124037619D01*
X106051339Y-124037619D01*
X105593005Y-125037619D02*
X104973958Y-125037619D01*
X105354910Y-124656666D01*
X105212053Y-124656666D01*
X105122767Y-124609047D01*
X105081101Y-124561428D01*
X105045386Y-124466190D01*
X105075148Y-124228095D01*
X105134672Y-124132857D01*
X105188244Y-124085238D01*
X105289434Y-124037619D01*
X105575148Y-124037619D01*
X105664434Y-124085238D01*
X105706101Y-124132857D01*
X104027529Y-124990000D02*
X104116815Y-125037619D01*
X104259672Y-125037619D01*
X104408482Y-124990000D01*
X104515625Y-124894761D01*
X104575148Y-124799523D01*
X104646577Y-124609047D01*
X104664434Y-124466190D01*
X104640625Y-124275714D01*
X104604910Y-124180476D01*
X104521577Y-124085238D01*
X104384672Y-124037619D01*
X104289434Y-124037619D01*
X104140625Y-124085238D01*
X104087053Y-124132857D01*
X104045386Y-124466190D01*
X104235863Y-124466190D01*
X103640625Y-125037619D02*
X103098958Y-124037619D01*
X102973958Y-125037619D02*
X103765625Y-124037619D01*
X102241815Y-124037619D02*
X102718005Y-124037619D01*
X102593005Y-125037619D01*
%TO.C,J15*%
X156685476Y-119547380D02*
X156685476Y-120261666D01*
X156637857Y-120404523D01*
X156542619Y-120499761D01*
X156399761Y-120547380D01*
X156304523Y-120547380D01*
X157685476Y-120547380D02*
X157114047Y-120547380D01*
X157399761Y-120547380D02*
X157399761Y-119547380D01*
X157304523Y-119690238D01*
X157209285Y-119785476D01*
X157114047Y-119833095D01*
X158590238Y-119547380D02*
X158114047Y-119547380D01*
X158066428Y-120023571D01*
X158114047Y-119975952D01*
X158209285Y-119928333D01*
X158447380Y-119928333D01*
X158542619Y-119975952D01*
X158590238Y-120023571D01*
X158637857Y-120118809D01*
X158637857Y-120356904D01*
X158590238Y-120452142D01*
X158542619Y-120499761D01*
X158447380Y-120547380D01*
X158209285Y-120547380D01*
X158114047Y-120499761D01*
X158066428Y-120452142D01*
%TO.C,J25*%
X85565476Y-151452380D02*
X85565476Y-152166666D01*
X85517857Y-152309523D01*
X85422619Y-152404761D01*
X85279761Y-152452380D01*
X85184523Y-152452380D01*
X85994047Y-151547619D02*
X86041666Y-151500000D01*
X86136904Y-151452380D01*
X86375000Y-151452380D01*
X86470238Y-151500000D01*
X86517857Y-151547619D01*
X86565476Y-151642857D01*
X86565476Y-151738095D01*
X86517857Y-151880952D01*
X85946428Y-152452380D01*
X86565476Y-152452380D01*
X87470238Y-151452380D02*
X86994047Y-151452380D01*
X86946428Y-151928571D01*
X86994047Y-151880952D01*
X87089285Y-151833333D01*
X87327380Y-151833333D01*
X87422619Y-151880952D01*
X87470238Y-151928571D01*
X87517857Y-152023809D01*
X87517857Y-152261904D01*
X87470238Y-152357142D01*
X87422619Y-152404761D01*
X87327380Y-152452380D01*
X87089285Y-152452380D01*
X86994047Y-152404761D01*
X86946428Y-152357142D01*
%TO.C,J24*%
X174185476Y-187047380D02*
X174185476Y-187761666D01*
X174137857Y-187904523D01*
X174042619Y-187999761D01*
X173899761Y-188047380D01*
X173804523Y-188047380D01*
X174614047Y-187142619D02*
X174661666Y-187095000D01*
X174756904Y-187047380D01*
X174995000Y-187047380D01*
X175090238Y-187095000D01*
X175137857Y-187142619D01*
X175185476Y-187237857D01*
X175185476Y-187333095D01*
X175137857Y-187475952D01*
X174566428Y-188047380D01*
X175185476Y-188047380D01*
X176042619Y-187380714D02*
X176042619Y-188047380D01*
X175804523Y-186999761D02*
X175566428Y-187714047D01*
X176185476Y-187714047D01*
%TO.C,J14*%
X174185476Y-97512380D02*
X174185476Y-98226666D01*
X174137857Y-98369523D01*
X174042619Y-98464761D01*
X173899761Y-98512380D01*
X173804523Y-98512380D01*
X175185476Y-98512380D02*
X174614047Y-98512380D01*
X174899761Y-98512380D02*
X174899761Y-97512380D01*
X174804523Y-97655238D01*
X174709285Y-97750476D01*
X174614047Y-97798095D01*
X176042619Y-97845714D02*
X176042619Y-98512380D01*
X175804523Y-97464761D02*
X175566428Y-98179047D01*
X176185476Y-98179047D01*
%TO.C,J16*%
X174185476Y-119547380D02*
X174185476Y-120261666D01*
X174137857Y-120404523D01*
X174042619Y-120499761D01*
X173899761Y-120547380D01*
X173804523Y-120547380D01*
X175185476Y-120547380D02*
X174614047Y-120547380D01*
X174899761Y-120547380D02*
X174899761Y-119547380D01*
X174804523Y-119690238D01*
X174709285Y-119785476D01*
X174614047Y-119833095D01*
X176042619Y-119547380D02*
X175852142Y-119547380D01*
X175756904Y-119595000D01*
X175709285Y-119642619D01*
X175614047Y-119785476D01*
X175566428Y-119975952D01*
X175566428Y-120356904D01*
X175614047Y-120452142D01*
X175661666Y-120499761D01*
X175756904Y-120547380D01*
X175947380Y-120547380D01*
X176042619Y-120499761D01*
X176090238Y-120452142D01*
X176137857Y-120356904D01*
X176137857Y-120118809D01*
X176090238Y-120023571D01*
X176042619Y-119975952D01*
X175947380Y-119928333D01*
X175756904Y-119928333D01*
X175661666Y-119975952D01*
X175614047Y-120023571D01*
X175566428Y-120118809D01*
%TO.C,R2*%
X88833333Y-166452380D02*
X88500000Y-165976190D01*
X88261904Y-166452380D02*
X88261904Y-165452380D01*
X88642857Y-165452380D01*
X88738095Y-165500000D01*
X88785714Y-165547619D01*
X88833333Y-165642857D01*
X88833333Y-165785714D01*
X88785714Y-165880952D01*
X88738095Y-165928571D01*
X88642857Y-165976190D01*
X88261904Y-165976190D01*
X89214285Y-165547619D02*
X89261904Y-165500000D01*
X89357142Y-165452380D01*
X89595238Y-165452380D01*
X89690476Y-165500000D01*
X89738095Y-165547619D01*
X89785714Y-165642857D01*
X89785714Y-165738095D01*
X89738095Y-165880952D01*
X89166666Y-166452380D01*
X89785714Y-166452380D01*
%TO.C,J7*%
X39661666Y-118192380D02*
X39661666Y-118906666D01*
X39614047Y-119049523D01*
X39518809Y-119144761D01*
X39375952Y-119192380D01*
X39280714Y-119192380D01*
X40042619Y-118192380D02*
X40709285Y-118192380D01*
X40280714Y-119192380D01*
%TO.C,H3*%
X24282395Y-208342380D02*
X24282395Y-207342380D01*
X24282395Y-207818571D02*
X24853823Y-207818571D01*
X24853823Y-208342380D02*
X24853823Y-207342380D01*
X25234776Y-207342380D02*
X25853823Y-207342380D01*
X25520490Y-207723333D01*
X25663347Y-207723333D01*
X25758585Y-207770952D01*
X25806204Y-207818571D01*
X25853823Y-207913809D01*
X25853823Y-208151904D01*
X25806204Y-208247142D01*
X25758585Y-208294761D01*
X25663347Y-208342380D01*
X25377633Y-208342380D01*
X25282395Y-208294761D01*
X25234776Y-208247142D01*
%TO.C,J21*%
X156685476Y-165012380D02*
X156685476Y-165726666D01*
X156637857Y-165869523D01*
X156542619Y-165964761D01*
X156399761Y-166012380D01*
X156304523Y-166012380D01*
X157114047Y-165107619D02*
X157161666Y-165060000D01*
X157256904Y-165012380D01*
X157495000Y-165012380D01*
X157590238Y-165060000D01*
X157637857Y-165107619D01*
X157685476Y-165202857D01*
X157685476Y-165298095D01*
X157637857Y-165440952D01*
X157066428Y-166012380D01*
X157685476Y-166012380D01*
X158637857Y-166012380D02*
X158066428Y-166012380D01*
X158352142Y-166012380D02*
X158352142Y-165012380D01*
X158256904Y-165155238D01*
X158161666Y-165250476D01*
X158066428Y-165298095D01*
%TO.C,J6*%
X57161666Y-96157380D02*
X57161666Y-96871666D01*
X57114047Y-97014523D01*
X57018809Y-97109761D01*
X56875952Y-97157380D01*
X56780714Y-97157380D01*
X58066428Y-96157380D02*
X57875952Y-96157380D01*
X57780714Y-96205000D01*
X57733095Y-96252619D01*
X57637857Y-96395476D01*
X57590238Y-96585952D01*
X57590238Y-96966904D01*
X57637857Y-97062142D01*
X57685476Y-97109761D01*
X57780714Y-97157380D01*
X57971190Y-97157380D01*
X58066428Y-97109761D01*
X58114047Y-97062142D01*
X58161666Y-96966904D01*
X58161666Y-96728809D01*
X58114047Y-96633571D01*
X58066428Y-96585952D01*
X57971190Y-96538333D01*
X57780714Y-96538333D01*
X57685476Y-96585952D01*
X57637857Y-96633571D01*
X57590238Y-96728809D01*
%TO.C,R8*%
X126833333Y-166452380D02*
X126500000Y-165976190D01*
X126261904Y-166452380D02*
X126261904Y-165452380D01*
X126642857Y-165452380D01*
X126738095Y-165500000D01*
X126785714Y-165547619D01*
X126833333Y-165642857D01*
X126833333Y-165785714D01*
X126785714Y-165880952D01*
X126738095Y-165928571D01*
X126642857Y-165976190D01*
X126261904Y-165976190D01*
X127404761Y-165880952D02*
X127309523Y-165833333D01*
X127261904Y-165785714D01*
X127214285Y-165690476D01*
X127214285Y-165642857D01*
X127261904Y-165547619D01*
X127309523Y-165500000D01*
X127404761Y-165452380D01*
X127595238Y-165452380D01*
X127690476Y-165500000D01*
X127738095Y-165547619D01*
X127785714Y-165642857D01*
X127785714Y-165690476D01*
X127738095Y-165785714D01*
X127690476Y-165833333D01*
X127595238Y-165880952D01*
X127404761Y-165880952D01*
X127309523Y-165928571D01*
X127261904Y-165976190D01*
X127214285Y-166071428D01*
X127214285Y-166261904D01*
X127261904Y-166357142D01*
X127309523Y-166404761D01*
X127404761Y-166452380D01*
X127595238Y-166452380D01*
X127690476Y-166404761D01*
X127738095Y-166357142D01*
X127785714Y-166261904D01*
X127785714Y-166071428D01*
X127738095Y-165976190D01*
X127690476Y-165928571D01*
X127595238Y-165880952D01*
%TO.C,J12*%
X174325476Y-74617380D02*
X174325476Y-75331666D01*
X174277857Y-75474523D01*
X174182619Y-75569761D01*
X174039761Y-75617380D01*
X173944523Y-75617380D01*
X175325476Y-75617380D02*
X174754047Y-75617380D01*
X175039761Y-75617380D02*
X175039761Y-74617380D01*
X174944523Y-74760238D01*
X174849285Y-74855476D01*
X174754047Y-74903095D01*
X175706428Y-74712619D02*
X175754047Y-74665000D01*
X175849285Y-74617380D01*
X176087380Y-74617380D01*
X176182619Y-74665000D01*
X176230238Y-74712619D01*
X176277857Y-74807857D01*
X176277857Y-74903095D01*
X176230238Y-75045952D01*
X175658809Y-75617380D01*
X176277857Y-75617380D01*
%TO.C,J28*%
X123690476Y-151452380D02*
X123690476Y-152166666D01*
X123642857Y-152309523D01*
X123547619Y-152404761D01*
X123404761Y-152452380D01*
X123309523Y-152452380D01*
X124119047Y-151547619D02*
X124166666Y-151500000D01*
X124261904Y-151452380D01*
X124500000Y-151452380D01*
X124595238Y-151500000D01*
X124642857Y-151547619D01*
X124690476Y-151642857D01*
X124690476Y-151738095D01*
X124642857Y-151880952D01*
X124071428Y-152452380D01*
X124690476Y-152452380D01*
X125261904Y-151880952D02*
X125166666Y-151833333D01*
X125119047Y-151785714D01*
X125071428Y-151690476D01*
X125071428Y-151642857D01*
X125119047Y-151547619D01*
X125166666Y-151500000D01*
X125261904Y-151452380D01*
X125452380Y-151452380D01*
X125547619Y-151500000D01*
X125595238Y-151547619D01*
X125642857Y-151642857D01*
X125642857Y-151690476D01*
X125595238Y-151785714D01*
X125547619Y-151833333D01*
X125452380Y-151880952D01*
X125261904Y-151880952D01*
X125166666Y-151928571D01*
X125119047Y-151976190D01*
X125071428Y-152071428D01*
X125071428Y-152261904D01*
X125119047Y-152357142D01*
X125166666Y-152404761D01*
X125261904Y-152452380D01*
X125452380Y-152452380D01*
X125547619Y-152404761D01*
X125595238Y-152357142D01*
X125642857Y-152261904D01*
X125642857Y-152071428D01*
X125595238Y-151976190D01*
X125547619Y-151928571D01*
X125452380Y-151880952D01*
%TO.C,J27*%
X111490476Y-151452380D02*
X111490476Y-152166666D01*
X111442857Y-152309523D01*
X111347619Y-152404761D01*
X111204761Y-152452380D01*
X111109523Y-152452380D01*
X111919047Y-151547619D02*
X111966666Y-151500000D01*
X112061904Y-151452380D01*
X112300000Y-151452380D01*
X112395238Y-151500000D01*
X112442857Y-151547619D01*
X112490476Y-151642857D01*
X112490476Y-151738095D01*
X112442857Y-151880952D01*
X111871428Y-152452380D01*
X112490476Y-152452380D01*
X112823809Y-151452380D02*
X113490476Y-151452380D01*
X113061904Y-152452380D01*
%TO.C,J5*%
X39661666Y-96157380D02*
X39661666Y-96871666D01*
X39614047Y-97014523D01*
X39518809Y-97109761D01*
X39375952Y-97157380D01*
X39280714Y-97157380D01*
X40614047Y-96157380D02*
X40137857Y-96157380D01*
X40090238Y-96633571D01*
X40137857Y-96585952D01*
X40233095Y-96538333D01*
X40471190Y-96538333D01*
X40566428Y-96585952D01*
X40614047Y-96633571D01*
X40661666Y-96728809D01*
X40661666Y-96966904D01*
X40614047Y-97062142D01*
X40566428Y-97109761D01*
X40471190Y-97157380D01*
X40233095Y-97157380D01*
X40137857Y-97109761D01*
X40090238Y-97062142D01*
%TO.C,J2*%
X57301666Y-50892380D02*
X57301666Y-51606666D01*
X57254047Y-51749523D01*
X57158809Y-51844761D01*
X57015952Y-51892380D01*
X56920714Y-51892380D01*
X57730238Y-50987619D02*
X57777857Y-50940000D01*
X57873095Y-50892380D01*
X58111190Y-50892380D01*
X58206428Y-50940000D01*
X58254047Y-50987619D01*
X58301666Y-51082857D01*
X58301666Y-51178095D01*
X58254047Y-51320952D01*
X57682619Y-51892380D01*
X58301666Y-51892380D01*
%TO.C,H1*%
X24282395Y-43242380D02*
X24282395Y-42242380D01*
X24282395Y-42718571D02*
X24853823Y-42718571D01*
X24853823Y-43242380D02*
X24853823Y-42242380D01*
X25853823Y-43242380D02*
X25282395Y-43242380D01*
X25568109Y-43242380D02*
X25568109Y-42242380D01*
X25472871Y-42385238D01*
X25377633Y-42480476D01*
X25282395Y-42528095D01*
%TO.C,R5*%
X111833333Y-166452380D02*
X111500000Y-165976190D01*
X111261904Y-166452380D02*
X111261904Y-165452380D01*
X111642857Y-165452380D01*
X111738095Y-165500000D01*
X111785714Y-165547619D01*
X111833333Y-165642857D01*
X111833333Y-165785714D01*
X111785714Y-165880952D01*
X111738095Y-165928571D01*
X111642857Y-165976190D01*
X111261904Y-165976190D01*
X112738095Y-165452380D02*
X112261904Y-165452380D01*
X112214285Y-165928571D01*
X112261904Y-165880952D01*
X112357142Y-165833333D01*
X112595238Y-165833333D01*
X112690476Y-165880952D01*
X112738095Y-165928571D01*
X112785714Y-166023809D01*
X112785714Y-166261904D01*
X112738095Y-166357142D01*
X112690476Y-166404761D01*
X112595238Y-166452380D01*
X112357142Y-166452380D01*
X112261904Y-166404761D01*
X112214285Y-166357142D01*
%TO.C,J26*%
X97790476Y-151452380D02*
X97790476Y-152166666D01*
X97742857Y-152309523D01*
X97647619Y-152404761D01*
X97504761Y-152452380D01*
X97409523Y-152452380D01*
X98219047Y-151547619D02*
X98266666Y-151500000D01*
X98361904Y-151452380D01*
X98600000Y-151452380D01*
X98695238Y-151500000D01*
X98742857Y-151547619D01*
X98790476Y-151642857D01*
X98790476Y-151738095D01*
X98742857Y-151880952D01*
X98171428Y-152452380D01*
X98790476Y-152452380D01*
X99647619Y-151452380D02*
X99457142Y-151452380D01*
X99361904Y-151500000D01*
X99314285Y-151547619D01*
X99219047Y-151690476D01*
X99171428Y-151880952D01*
X99171428Y-152261904D01*
X99219047Y-152357142D01*
X99266666Y-152404761D01*
X99361904Y-152452380D01*
X99552380Y-152452380D01*
X99647619Y-152404761D01*
X99695238Y-152357142D01*
X99742857Y-152261904D01*
X99742857Y-152023809D01*
X99695238Y-151928571D01*
X99647619Y-151880952D01*
X99552380Y-151833333D01*
X99361904Y-151833333D01*
X99266666Y-151880952D01*
X99219047Y-151928571D01*
X99171428Y-152023809D01*
%TO.C,J1*%
X39661666Y-50892380D02*
X39661666Y-51606666D01*
X39614047Y-51749523D01*
X39518809Y-51844761D01*
X39375952Y-51892380D01*
X39280714Y-51892380D01*
X40661666Y-51892380D02*
X40090238Y-51892380D01*
X40375952Y-51892380D02*
X40375952Y-50892380D01*
X40280714Y-51035238D01*
X40185476Y-51130476D01*
X40090238Y-51178095D01*
%TO.C,R3*%
X98833333Y-166452380D02*
X98500000Y-165976190D01*
X98261904Y-166452380D02*
X98261904Y-165452380D01*
X98642857Y-165452380D01*
X98738095Y-165500000D01*
X98785714Y-165547619D01*
X98833333Y-165642857D01*
X98833333Y-165785714D01*
X98785714Y-165880952D01*
X98738095Y-165928571D01*
X98642857Y-165976190D01*
X98261904Y-165976190D01*
X99166666Y-165452380D02*
X99785714Y-165452380D01*
X99452380Y-165833333D01*
X99595238Y-165833333D01*
X99690476Y-165880952D01*
X99738095Y-165928571D01*
X99785714Y-166023809D01*
X99785714Y-166261904D01*
X99738095Y-166357142D01*
X99690476Y-166404761D01*
X99595238Y-166452380D01*
X99309523Y-166452380D01*
X99214285Y-166404761D01*
X99166666Y-166357142D01*
%TO.C,J19*%
X39174748Y-187547380D02*
X39174748Y-188261666D01*
X39127129Y-188404523D01*
X39031891Y-188499761D01*
X38889033Y-188547380D01*
X38793795Y-188547380D01*
X40174748Y-188547380D02*
X39603319Y-188547380D01*
X39889033Y-188547380D02*
X39889033Y-187547380D01*
X39793795Y-187690238D01*
X39698557Y-187785476D01*
X39603319Y-187833095D01*
X40650938Y-188547380D02*
X40841414Y-188547380D01*
X40936652Y-188499761D01*
X40984272Y-188452142D01*
X41079510Y-188309285D01*
X41127129Y-188118809D01*
X41127129Y-187737857D01*
X41079510Y-187642619D01*
X41031891Y-187595000D01*
X40936652Y-187547380D01*
X40746176Y-187547380D01*
X40650938Y-187595000D01*
X40603319Y-187642619D01*
X40555700Y-187737857D01*
X40555700Y-187975952D01*
X40603319Y-188071190D01*
X40650938Y-188118809D01*
X40746176Y-188166428D01*
X40936652Y-188166428D01*
X41031891Y-188118809D01*
X41079510Y-188071190D01*
X41127129Y-187975952D01*
%TO.C,R7*%
X124333333Y-166452380D02*
X124000000Y-165976190D01*
X123761904Y-166452380D02*
X123761904Y-165452380D01*
X124142857Y-165452380D01*
X124238095Y-165500000D01*
X124285714Y-165547619D01*
X124333333Y-165642857D01*
X124333333Y-165785714D01*
X124285714Y-165880952D01*
X124238095Y-165928571D01*
X124142857Y-165976190D01*
X123761904Y-165976190D01*
X124666666Y-165452380D02*
X125333333Y-165452380D01*
X124904761Y-166452380D01*
%TO.C,J18*%
X56674748Y-165512380D02*
X56674748Y-166226666D01*
X56627129Y-166369523D01*
X56531891Y-166464761D01*
X56389033Y-166512380D01*
X56293795Y-166512380D01*
X57674748Y-166512380D02*
X57103319Y-166512380D01*
X57389033Y-166512380D02*
X57389033Y-165512380D01*
X57293795Y-165655238D01*
X57198557Y-165750476D01*
X57103319Y-165798095D01*
X58246176Y-165940952D02*
X58150938Y-165893333D01*
X58103319Y-165845714D01*
X58055700Y-165750476D01*
X58055700Y-165702857D01*
X58103319Y-165607619D01*
X58150938Y-165560000D01*
X58246176Y-165512380D01*
X58436652Y-165512380D01*
X58531891Y-165560000D01*
X58579510Y-165607619D01*
X58627129Y-165702857D01*
X58627129Y-165750476D01*
X58579510Y-165845714D01*
X58531891Y-165893333D01*
X58436652Y-165940952D01*
X58246176Y-165940952D01*
X58150938Y-165988571D01*
X58103319Y-166036190D01*
X58055700Y-166131428D01*
X58055700Y-166321904D01*
X58103319Y-166417142D01*
X58150938Y-166464761D01*
X58246176Y-166512380D01*
X58436652Y-166512380D01*
X58531891Y-166464761D01*
X58579510Y-166417142D01*
X58627129Y-166321904D01*
X58627129Y-166131428D01*
X58579510Y-166036190D01*
X58531891Y-165988571D01*
X58436652Y-165940952D01*
%TO.C,J10*%
X174325476Y-52137380D02*
X174325476Y-52851666D01*
X174277857Y-52994523D01*
X174182619Y-53089761D01*
X174039761Y-53137380D01*
X173944523Y-53137380D01*
X175325476Y-53137380D02*
X174754047Y-53137380D01*
X175039761Y-53137380D02*
X175039761Y-52137380D01*
X174944523Y-52280238D01*
X174849285Y-52375476D01*
X174754047Y-52423095D01*
X175944523Y-52137380D02*
X176039761Y-52137380D01*
X176135000Y-52185000D01*
X176182619Y-52232619D01*
X176230238Y-52327857D01*
X176277857Y-52518333D01*
X176277857Y-52756428D01*
X176230238Y-52946904D01*
X176182619Y-53042142D01*
X176135000Y-53089761D01*
X176039761Y-53137380D01*
X175944523Y-53137380D01*
X175849285Y-53089761D01*
X175801666Y-53042142D01*
X175754047Y-52946904D01*
X175706428Y-52756428D01*
X175706428Y-52518333D01*
X175754047Y-52327857D01*
X175801666Y-52232619D01*
X175849285Y-52185000D01*
X175944523Y-52137380D01*
%TO.C,J11*%
X156685476Y-74617380D02*
X156685476Y-75331666D01*
X156637857Y-75474523D01*
X156542619Y-75569761D01*
X156399761Y-75617380D01*
X156304523Y-75617380D01*
X157685476Y-75617380D02*
X157114047Y-75617380D01*
X157399761Y-75617380D02*
X157399761Y-74617380D01*
X157304523Y-74760238D01*
X157209285Y-74855476D01*
X157114047Y-74903095D01*
X158637857Y-75617380D02*
X158066428Y-75617380D01*
X158352142Y-75617380D02*
X158352142Y-74617380D01*
X158256904Y-74760238D01*
X158161666Y-74855476D01*
X158066428Y-74903095D01*
%TO.C,J3*%
X39661666Y-73727380D02*
X39661666Y-74441666D01*
X39614047Y-74584523D01*
X39518809Y-74679761D01*
X39375952Y-74727380D01*
X39280714Y-74727380D01*
X40042619Y-73727380D02*
X40661666Y-73727380D01*
X40328333Y-74108333D01*
X40471190Y-74108333D01*
X40566428Y-74155952D01*
X40614047Y-74203571D01*
X40661666Y-74298809D01*
X40661666Y-74536904D01*
X40614047Y-74632142D01*
X40566428Y-74679761D01*
X40471190Y-74727380D01*
X40185476Y-74727380D01*
X40090238Y-74679761D01*
X40042619Y-74632142D01*
%TO.C,R4*%
X101333333Y-166452380D02*
X101000000Y-165976190D01*
X100761904Y-166452380D02*
X100761904Y-165452380D01*
X101142857Y-165452380D01*
X101238095Y-165500000D01*
X101285714Y-165547619D01*
X101333333Y-165642857D01*
X101333333Y-165785714D01*
X101285714Y-165880952D01*
X101238095Y-165928571D01*
X101142857Y-165976190D01*
X100761904Y-165976190D01*
X102190476Y-165785714D02*
X102190476Y-166452380D01*
X101952380Y-165404761D02*
X101714285Y-166119047D01*
X102333333Y-166119047D01*
%TO.C,J22*%
X174185476Y-165012380D02*
X174185476Y-165726666D01*
X174137857Y-165869523D01*
X174042619Y-165964761D01*
X173899761Y-166012380D01*
X173804523Y-166012380D01*
X174614047Y-165107619D02*
X174661666Y-165060000D01*
X174756904Y-165012380D01*
X174995000Y-165012380D01*
X175090238Y-165060000D01*
X175137857Y-165107619D01*
X175185476Y-165202857D01*
X175185476Y-165298095D01*
X175137857Y-165440952D01*
X174566428Y-166012380D01*
X175185476Y-166012380D01*
X175566428Y-165107619D02*
X175614047Y-165060000D01*
X175709285Y-165012380D01*
X175947380Y-165012380D01*
X176042619Y-165060000D01*
X176090238Y-165107619D01*
X176137857Y-165202857D01*
X176137857Y-165298095D01*
X176090238Y-165440952D01*
X175518809Y-166012380D01*
X176137857Y-166012380D01*
%TO.C,J23*%
X156685476Y-187047380D02*
X156685476Y-187761666D01*
X156637857Y-187904523D01*
X156542619Y-187999761D01*
X156399761Y-188047380D01*
X156304523Y-188047380D01*
X157114047Y-187142619D02*
X157161666Y-187095000D01*
X157256904Y-187047380D01*
X157495000Y-187047380D01*
X157590238Y-187095000D01*
X157637857Y-187142619D01*
X157685476Y-187237857D01*
X157685476Y-187333095D01*
X157637857Y-187475952D01*
X157066428Y-188047380D01*
X157685476Y-188047380D01*
X158018809Y-187047380D02*
X158637857Y-187047380D01*
X158304523Y-187428333D01*
X158447380Y-187428333D01*
X158542619Y-187475952D01*
X158590238Y-187523571D01*
X158637857Y-187618809D01*
X158637857Y-187856904D01*
X158590238Y-187952142D01*
X158542619Y-187999761D01*
X158447380Y-188047380D01*
X158161666Y-188047380D01*
X158066428Y-187999761D01*
X158018809Y-187952142D01*
%TO.C,R1*%
X86333333Y-166452380D02*
X86000000Y-165976190D01*
X85761904Y-166452380D02*
X85761904Y-165452380D01*
X86142857Y-165452380D01*
X86238095Y-165500000D01*
X86285714Y-165547619D01*
X86333333Y-165642857D01*
X86333333Y-165785714D01*
X86285714Y-165880952D01*
X86238095Y-165928571D01*
X86142857Y-165976190D01*
X85761904Y-165976190D01*
X87285714Y-166452380D02*
X86714285Y-166452380D01*
X87000000Y-166452380D02*
X87000000Y-165452380D01*
X86904761Y-165595238D01*
X86809523Y-165690476D01*
X86714285Y-165738095D01*
%TO.C,J4*%
X57301666Y-73727380D02*
X57301666Y-74441666D01*
X57254047Y-74584523D01*
X57158809Y-74679761D01*
X57015952Y-74727380D01*
X56920714Y-74727380D01*
X58206428Y-74060714D02*
X58206428Y-74727380D01*
X57968333Y-73679761D02*
X57730238Y-74394047D01*
X58349285Y-74394047D01*
%TO.C,J29*%
X106175676Y-215212380D02*
X106175676Y-215926666D01*
X106128057Y-216069523D01*
X106032819Y-216164761D01*
X105889961Y-216212380D01*
X105794723Y-216212380D01*
X106604247Y-215307619D02*
X106651866Y-215260000D01*
X106747104Y-215212380D01*
X106985200Y-215212380D01*
X107080438Y-215260000D01*
X107128057Y-215307619D01*
X107175676Y-215402857D01*
X107175676Y-215498095D01*
X107128057Y-215640952D01*
X106556628Y-216212380D01*
X107175676Y-216212380D01*
X107651866Y-216212380D02*
X107842342Y-216212380D01*
X107937580Y-216164761D01*
X107985200Y-216117142D01*
X108080438Y-215974285D01*
X108128057Y-215783809D01*
X108128057Y-215402857D01*
X108080438Y-215307619D01*
X108032819Y-215260000D01*
X107937580Y-215212380D01*
X107747104Y-215212380D01*
X107651866Y-215260000D01*
X107604247Y-215307619D01*
X107556628Y-215402857D01*
X107556628Y-215640952D01*
X107604247Y-215736190D01*
X107651866Y-215783809D01*
X107747104Y-215831428D01*
X107937580Y-215831428D01*
X108032819Y-215783809D01*
X108080438Y-215736190D01*
X108128057Y-215640952D01*
%TO.C,H2*%
X189382395Y-43242380D02*
X189382395Y-42242380D01*
X189382395Y-42718571D02*
X189953823Y-42718571D01*
X189953823Y-43242380D02*
X189953823Y-42242380D01*
X190382395Y-42337619D02*
X190430014Y-42290000D01*
X190525252Y-42242380D01*
X190763347Y-42242380D01*
X190858585Y-42290000D01*
X190906204Y-42337619D01*
X190953823Y-42432857D01*
X190953823Y-42528095D01*
X190906204Y-42670952D01*
X190334776Y-43242380D01*
X190953823Y-43242380D01*
%TO.C,J8*%
X57161666Y-118192380D02*
X57161666Y-118906666D01*
X57114047Y-119049523D01*
X57018809Y-119144761D01*
X56875952Y-119192380D01*
X56780714Y-119192380D01*
X57780714Y-118620952D02*
X57685476Y-118573333D01*
X57637857Y-118525714D01*
X57590238Y-118430476D01*
X57590238Y-118382857D01*
X57637857Y-118287619D01*
X57685476Y-118240000D01*
X57780714Y-118192380D01*
X57971190Y-118192380D01*
X58066428Y-118240000D01*
X58114047Y-118287619D01*
X58161666Y-118382857D01*
X58161666Y-118430476D01*
X58114047Y-118525714D01*
X58066428Y-118573333D01*
X57971190Y-118620952D01*
X57780714Y-118620952D01*
X57685476Y-118668571D01*
X57637857Y-118716190D01*
X57590238Y-118811428D01*
X57590238Y-119001904D01*
X57637857Y-119097142D01*
X57685476Y-119144761D01*
X57780714Y-119192380D01*
X57971190Y-119192380D01*
X58066428Y-119144761D01*
X58114047Y-119097142D01*
X58161666Y-119001904D01*
X58161666Y-118811428D01*
X58114047Y-118716190D01*
X58066428Y-118668571D01*
X57971190Y-118620952D01*
%TO.C,J13*%
X156685476Y-97512380D02*
X156685476Y-98226666D01*
X156637857Y-98369523D01*
X156542619Y-98464761D01*
X156399761Y-98512380D01*
X156304523Y-98512380D01*
X157685476Y-98512380D02*
X157114047Y-98512380D01*
X157399761Y-98512380D02*
X157399761Y-97512380D01*
X157304523Y-97655238D01*
X157209285Y-97750476D01*
X157114047Y-97798095D01*
X158018809Y-97512380D02*
X158637857Y-97512380D01*
X158304523Y-97893333D01*
X158447380Y-97893333D01*
X158542619Y-97940952D01*
X158590238Y-97988571D01*
X158637857Y-98083809D01*
X158637857Y-98321904D01*
X158590238Y-98417142D01*
X158542619Y-98464761D01*
X158447380Y-98512380D01*
X158161666Y-98512380D01*
X158066428Y-98464761D01*
X158018809Y-98417142D01*
%TO.C,J17*%
X39174748Y-165512380D02*
X39174748Y-166226666D01*
X39127129Y-166369523D01*
X39031891Y-166464761D01*
X38889033Y-166512380D01*
X38793795Y-166512380D01*
X40174748Y-166512380D02*
X39603319Y-166512380D01*
X39889033Y-166512380D02*
X39889033Y-165512380D01*
X39793795Y-165655238D01*
X39698557Y-165750476D01*
X39603319Y-165798095D01*
X40508081Y-165512380D02*
X41174748Y-165512380D01*
X40746176Y-166512380D01*
D14*
%TO.C,J20*%
X54884272Y-201915000D02*
X60084272Y-201915000D01*
X60084272Y-189095000D02*
X60084272Y-201915000D01*
X54884272Y-190425000D02*
X54884272Y-189095000D01*
X54884272Y-189095000D02*
X56214272Y-189095000D01*
X57484272Y-189095000D02*
X60084272Y-189095000D01*
X54884272Y-191695000D02*
X54884272Y-201915000D01*
X57484272Y-191695000D02*
X57484272Y-189095000D01*
X54884272Y-191695000D02*
X57484272Y-191695000D01*
%TO.C,J9*%
X154895000Y-56285000D02*
X157495000Y-56285000D01*
X157495000Y-56285000D02*
X157495000Y-53685000D01*
X154895000Y-56285000D02*
X154895000Y-66505000D01*
X157495000Y-53685000D02*
X160095000Y-53685000D01*
X154895000Y-55015000D02*
X154895000Y-53685000D01*
X154895000Y-66505000D02*
X160095000Y-66505000D01*
X160095000Y-53685000D02*
X160095000Y-66505000D01*
X154895000Y-53685000D02*
X156225000Y-53685000D01*
%TO.C,R6*%
X115114300Y-162947936D02*
X115114300Y-163402064D01*
X113644300Y-162947936D02*
X113644300Y-163402064D01*
%TO.C,U1*%
X131180000Y-91930000D02*
X131180000Y-93260000D01*
X131180000Y-90660000D02*
X128580000Y-90660000D01*
X85400000Y-90660000D02*
X85400000Y-93260000D01*
X88000000Y-93260000D02*
X86670000Y-93260000D01*
X85400000Y-93260000D02*
X82800000Y-93260000D01*
X125980000Y-93260000D02*
X125980000Y-67740000D01*
X88000000Y-67740000D02*
X82800000Y-67740000D01*
X131180000Y-90660000D02*
X131180000Y-67740000D01*
X88000000Y-90660000D02*
X88000000Y-67740000D01*
X82800000Y-93260000D02*
X82800000Y-67740000D01*
X128580000Y-90660000D02*
X128580000Y-93260000D01*
X88000000Y-90660000D02*
X85400000Y-90660000D01*
X128580000Y-93260000D02*
X125980000Y-93260000D01*
X131180000Y-93260000D02*
X129850000Y-93260000D01*
X131180000Y-67740000D02*
X125980000Y-67740000D01*
X88000000Y-91930000D02*
X88000000Y-93260000D01*
%TO.C,J15*%
X154895000Y-121095000D02*
X156225000Y-121095000D01*
X154895000Y-133915000D02*
X160095000Y-133915000D01*
X160095000Y-121095000D02*
X160095000Y-133915000D01*
X154895000Y-123695000D02*
X154895000Y-133915000D01*
X157495000Y-123695000D02*
X157495000Y-121095000D01*
X154895000Y-122425000D02*
X154895000Y-121095000D01*
X157495000Y-121095000D02*
X160095000Y-121095000D01*
X154895000Y-123695000D02*
X157495000Y-123695000D01*
%TO.C,J25*%
X87649300Y-148260000D02*
X82509300Y-148260000D01*
X87649300Y-148260000D02*
X87649300Y-150920000D01*
X88919300Y-148260000D02*
X90249300Y-148260000D01*
X87649300Y-150920000D02*
X82509300Y-150920000D01*
X90249300Y-148260000D02*
X90249300Y-149590000D01*
X82509300Y-148260000D02*
X82509300Y-150920000D01*
%TO.C,J24*%
X172395000Y-189925000D02*
X172395000Y-188595000D01*
X172395000Y-201415000D02*
X177595000Y-201415000D01*
X172395000Y-191195000D02*
X172395000Y-201415000D01*
X174995000Y-191195000D02*
X174995000Y-188595000D01*
X177595000Y-188595000D02*
X177595000Y-201415000D01*
X172395000Y-191195000D02*
X174995000Y-191195000D01*
X174995000Y-188595000D02*
X177595000Y-188595000D01*
X172395000Y-188595000D02*
X173725000Y-188595000D01*
%TO.C,J14*%
X172395000Y-111880000D02*
X177595000Y-111880000D01*
X174995000Y-101660000D02*
X174995000Y-99060000D01*
X174995000Y-99060000D02*
X177595000Y-99060000D01*
X172395000Y-100390000D02*
X172395000Y-99060000D01*
X172395000Y-101660000D02*
X174995000Y-101660000D01*
X172395000Y-99060000D02*
X173725000Y-99060000D01*
X177595000Y-99060000D02*
X177595000Y-111880000D01*
X172395000Y-101660000D02*
X172395000Y-111880000D01*
%TO.C,J16*%
X172395000Y-122425000D02*
X172395000Y-121095000D01*
X177595000Y-121095000D02*
X177595000Y-133915000D01*
X172395000Y-123695000D02*
X172395000Y-133915000D01*
X172395000Y-123695000D02*
X174995000Y-123695000D01*
X172395000Y-121095000D02*
X173725000Y-121095000D01*
X172395000Y-133915000D02*
X177595000Y-133915000D01*
X174995000Y-121095000D02*
X177595000Y-121095000D01*
X174995000Y-123695000D02*
X174995000Y-121095000D01*
%TO.C,R2*%
X89614300Y-162947936D02*
X89614300Y-163402064D01*
X88144300Y-162947936D02*
X88144300Y-163402064D01*
%TO.C,J7*%
X37395000Y-122340000D02*
X39995000Y-122340000D01*
X39995000Y-119740000D02*
X42595000Y-119740000D01*
X39995000Y-122340000D02*
X39995000Y-119740000D01*
X42595000Y-119740000D02*
X42595000Y-132560000D01*
X37395000Y-121070000D02*
X37395000Y-119740000D01*
X37395000Y-122340000D02*
X37395000Y-132560000D01*
X37395000Y-132560000D02*
X42595000Y-132560000D01*
X37395000Y-119740000D02*
X38725000Y-119740000D01*
%TO.C,J21*%
X160095000Y-166560000D02*
X160095000Y-179380000D01*
X157495000Y-166560000D02*
X160095000Y-166560000D01*
X154895000Y-169160000D02*
X157495000Y-169160000D01*
X157495000Y-169160000D02*
X157495000Y-166560000D01*
X154895000Y-179380000D02*
X160095000Y-179380000D01*
X154895000Y-169160000D02*
X154895000Y-179380000D01*
X154895000Y-167890000D02*
X154895000Y-166560000D01*
X154895000Y-166560000D02*
X156225000Y-166560000D01*
%TO.C,J6*%
X54895000Y-100305000D02*
X57495000Y-100305000D01*
X54895000Y-99035000D02*
X54895000Y-97705000D01*
X57495000Y-100305000D02*
X57495000Y-97705000D01*
X57495000Y-97705000D02*
X60095000Y-97705000D01*
X60095000Y-97705000D02*
X60095000Y-110525000D01*
X54895000Y-97705000D02*
X56225000Y-97705000D01*
X54895000Y-100305000D02*
X54895000Y-110525000D01*
X54895000Y-110525000D02*
X60095000Y-110525000D01*
%TO.C,R8*%
X127614300Y-162947936D02*
X127614300Y-163402064D01*
X126144300Y-162947936D02*
X126144300Y-163402064D01*
%TO.C,J12*%
X172535000Y-77495000D02*
X172535000Y-76165000D01*
X175135000Y-76165000D02*
X177735000Y-76165000D01*
X172535000Y-78765000D02*
X172535000Y-88985000D01*
X177735000Y-76165000D02*
X177735000Y-88985000D01*
X172535000Y-88985000D02*
X177735000Y-88985000D01*
X172535000Y-76165000D02*
X173865000Y-76165000D01*
X175135000Y-78765000D02*
X175135000Y-76165000D01*
X172535000Y-78765000D02*
X175135000Y-78765000D01*
%TO.C,J28*%
X128234300Y-148260000D02*
X128234300Y-149590000D01*
X120494300Y-148260000D02*
X120494300Y-150920000D01*
X126904300Y-148260000D02*
X128234300Y-148260000D01*
X125634300Y-148260000D02*
X120494300Y-148260000D01*
X125634300Y-150920000D02*
X120494300Y-150920000D01*
X125634300Y-148260000D02*
X125634300Y-150920000D01*
%TO.C,J27*%
X115734300Y-148260000D02*
X115734300Y-149590000D01*
X113134300Y-148260000D02*
X107994300Y-148260000D01*
X107994300Y-148260000D02*
X107994300Y-150920000D01*
X113134300Y-150920000D02*
X107994300Y-150920000D01*
X113134300Y-148260000D02*
X113134300Y-150920000D01*
X114404300Y-148260000D02*
X115734300Y-148260000D01*
%TO.C,J5*%
X37395000Y-110525000D02*
X42595000Y-110525000D01*
X37395000Y-100305000D02*
X37395000Y-110525000D01*
X39995000Y-100305000D02*
X39995000Y-97705000D01*
X39995000Y-97705000D02*
X42595000Y-97705000D01*
X42595000Y-97705000D02*
X42595000Y-110525000D01*
X37395000Y-99035000D02*
X37395000Y-97705000D01*
X37395000Y-97705000D02*
X38725000Y-97705000D01*
X37395000Y-100305000D02*
X39995000Y-100305000D01*
%TO.C,J2*%
X57635000Y-52440000D02*
X60235000Y-52440000D01*
X55035000Y-52440000D02*
X56365000Y-52440000D01*
X55035000Y-53770000D02*
X55035000Y-52440000D01*
X55035000Y-65260000D02*
X60235000Y-65260000D01*
X55035000Y-55040000D02*
X55035000Y-65260000D01*
X60235000Y-52440000D02*
X60235000Y-65260000D01*
X55035000Y-55040000D02*
X57635000Y-55040000D01*
X57635000Y-55040000D02*
X57635000Y-52440000D01*
%TO.C,R5*%
X111144300Y-162860436D02*
X111144300Y-163314564D01*
X112614300Y-162860436D02*
X112614300Y-163314564D01*
%TO.C,J26*%
X101404300Y-148260000D02*
X102734300Y-148260000D01*
X100134300Y-148260000D02*
X100134300Y-150920000D01*
X100134300Y-150920000D02*
X94994300Y-150920000D01*
X102734300Y-148260000D02*
X102734300Y-149590000D01*
X100134300Y-148260000D02*
X94994300Y-148260000D01*
X94994300Y-148260000D02*
X94994300Y-150920000D01*
%TO.C,J1*%
X37395000Y-55040000D02*
X39995000Y-55040000D01*
X39995000Y-55040000D02*
X39995000Y-52440000D01*
X37395000Y-52440000D02*
X38725000Y-52440000D01*
X37395000Y-53770000D02*
X37395000Y-52440000D01*
X39995000Y-52440000D02*
X42595000Y-52440000D01*
X42595000Y-52440000D02*
X42595000Y-65260000D01*
X37395000Y-55040000D02*
X37395000Y-65260000D01*
X37395000Y-65260000D02*
X42595000Y-65260000D01*
%TO.C,R3*%
X98144300Y-162947936D02*
X98144300Y-163402064D01*
X99614300Y-162947936D02*
X99614300Y-163402064D01*
%TO.C,J19*%
X37384272Y-191695000D02*
X37384272Y-201915000D01*
X39984272Y-191695000D02*
X39984272Y-189095000D01*
X42584272Y-189095000D02*
X42584272Y-201915000D01*
X37384272Y-191695000D02*
X39984272Y-191695000D01*
X37384272Y-201915000D02*
X42584272Y-201915000D01*
X37384272Y-189095000D02*
X38714272Y-189095000D01*
X39984272Y-189095000D02*
X42584272Y-189095000D01*
X37384272Y-190425000D02*
X37384272Y-189095000D01*
%TO.C,R7*%
X125114300Y-162947936D02*
X125114300Y-163402064D01*
X123644300Y-162947936D02*
X123644300Y-163402064D01*
%TO.C,J18*%
X54884272Y-168390000D02*
X54884272Y-167060000D01*
X54884272Y-169660000D02*
X54884272Y-179880000D01*
X54884272Y-167060000D02*
X56214272Y-167060000D01*
X54884272Y-179880000D02*
X60084272Y-179880000D01*
X57484272Y-167060000D02*
X60084272Y-167060000D01*
X60084272Y-167060000D02*
X60084272Y-179880000D01*
X54884272Y-169660000D02*
X57484272Y-169660000D01*
X57484272Y-169660000D02*
X57484272Y-167060000D01*
%TO.C,J10*%
X175135000Y-53685000D02*
X177735000Y-53685000D01*
X172535000Y-56285000D02*
X172535000Y-66505000D01*
X172535000Y-55015000D02*
X172535000Y-53685000D01*
X172535000Y-53685000D02*
X173865000Y-53685000D01*
X172535000Y-66505000D02*
X177735000Y-66505000D01*
X172535000Y-56285000D02*
X175135000Y-56285000D01*
X177735000Y-53685000D02*
X177735000Y-66505000D01*
X175135000Y-56285000D02*
X175135000Y-53685000D01*
%TO.C,J11*%
X157495000Y-76165000D02*
X160095000Y-76165000D01*
X154895000Y-77495000D02*
X154895000Y-76165000D01*
X154895000Y-78765000D02*
X157495000Y-78765000D01*
X154895000Y-88985000D02*
X160095000Y-88985000D01*
X160095000Y-76165000D02*
X160095000Y-88985000D01*
X157495000Y-78765000D02*
X157495000Y-76165000D01*
X154895000Y-78765000D02*
X154895000Y-88985000D01*
X154895000Y-76165000D02*
X156225000Y-76165000D01*
%TO.C,G\u002A\u002A\u002A*%
G36*
X123783283Y-199147604D02*
G01*
X90187117Y-199147604D01*
X90187117Y-198904153D01*
X123783283Y-198904153D01*
X123783283Y-199147604D01*
G37*
G36*
X116398619Y-193737984D02*
G01*
X116165312Y-193774982D01*
X115932005Y-193811981D01*
X115910551Y-196303187D01*
X116398619Y-196358405D01*
X116398619Y-196672524D01*
X114689567Y-196672524D01*
X114702160Y-196520368D01*
X114712449Y-196434664D01*
X114738729Y-196385874D01*
X114801255Y-196358578D01*
X114920281Y-196337357D01*
X114948059Y-196333174D01*
X115181366Y-196298137D01*
X115181366Y-193804828D01*
X114948059Y-193767829D01*
X114817444Y-193745089D01*
X114747815Y-193720179D01*
X114719986Y-193678378D01*
X114714771Y-193604966D01*
X114714753Y-193588818D01*
X114714753Y-193446805D01*
X116398619Y-193424871D01*
X116398619Y-193737984D01*
G37*
G36*
X103181532Y-171120118D02*
G01*
X104409173Y-169892971D01*
X109570588Y-169892971D01*
X110793549Y-171130089D01*
X112016510Y-172367206D01*
X112016510Y-180584996D01*
X110768585Y-181832434D01*
X109520659Y-183079872D01*
X104397715Y-183079872D01*
X103177326Y-181832189D01*
X101956938Y-180584505D01*
X101956893Y-180462272D01*
X102156766Y-180462272D01*
X104529892Y-182836422D01*
X109440517Y-182836422D01*
X110606244Y-181669888D01*
X111771970Y-180503355D01*
X111799499Y-176493379D01*
X111827027Y-172483404D01*
X110654060Y-171309913D01*
X109481092Y-170136422D01*
X104487964Y-170136422D01*
X102156766Y-172472718D01*
X102156766Y-180462272D01*
X101956893Y-180462272D01*
X101953890Y-172347265D01*
X103181532Y-171120118D01*
G37*
G36*
X108035320Y-188266129D02*
G01*
X108134736Y-188001980D01*
X108279953Y-187780696D01*
X108418182Y-187639301D01*
X108586750Y-187510217D01*
X108764039Y-187419029D01*
X108967720Y-187360652D01*
X109215466Y-187330003D01*
X109521143Y-187321980D01*
X109748454Y-187325485D01*
X109916804Y-187335734D01*
X110048289Y-187355602D01*
X110165006Y-187387962D01*
X110239212Y-187415389D01*
X110484474Y-187553178D01*
X110699446Y-187752943D01*
X110867890Y-187996739D01*
X110957631Y-188209460D01*
X111049474Y-188637577D01*
X111069372Y-189081969D01*
X111046341Y-189343493D01*
X110972719Y-189692506D01*
X110856034Y-189977650D01*
X110691306Y-190206716D01*
X110473550Y-190387496D01*
X110325191Y-190471234D01*
X110202477Y-190528791D01*
X110097688Y-190567258D01*
X109987883Y-190591097D01*
X109850118Y-190604771D01*
X109661450Y-190612741D01*
X109586984Y-190614805D01*
X109356797Y-190617764D01*
X109183624Y-190611201D01*
X109043655Y-190592846D01*
X108913079Y-190560429D01*
X108868002Y-190546262D01*
X108623148Y-190434952D01*
X108430123Y-190297728D01*
X108246336Y-190101717D01*
X108111427Y-189875091D01*
X108021435Y-189606609D01*
X107972400Y-189285030D01*
X107959965Y-188963259D01*
X107964546Y-188867902D01*
X108736012Y-188867902D01*
X108739969Y-189240313D01*
X108776814Y-189543531D01*
X108848656Y-189783449D01*
X108957603Y-189965961D01*
X109105764Y-190096961D01*
X109192528Y-190143773D01*
X109422038Y-190210861D01*
X109648371Y-190198634D01*
X109812628Y-190142230D01*
X109986355Y-190028234D01*
X110118575Y-189860172D01*
X110211251Y-189633147D01*
X110266351Y-189342262D01*
X110285840Y-188982622D01*
X110285914Y-188963259D01*
X110267034Y-188591855D01*
X110208204Y-188289318D01*
X110108278Y-188053247D01*
X109966114Y-187881239D01*
X109780566Y-187770892D01*
X109706422Y-187746731D01*
X109461740Y-187716725D01*
X109242608Y-187762852D01*
X109054105Y-187882719D01*
X108901312Y-188073933D01*
X108863754Y-188143713D01*
X108814288Y-188252057D01*
X108780672Y-188352408D01*
X108759165Y-188465967D01*
X108746027Y-188613937D01*
X108737519Y-188817520D01*
X108736012Y-188867902D01*
X107964546Y-188867902D01*
X107978224Y-188583202D01*
X108035320Y-188266129D01*
G37*
G36*
X121713954Y-193741768D02*
G01*
X121490791Y-193769650D01*
X121368829Y-193788053D01*
X121287772Y-193806348D01*
X121267628Y-193816870D01*
X121288388Y-193860770D01*
X121344245Y-193955788D01*
X121425564Y-194087082D01*
X121522712Y-194239811D01*
X121626053Y-194399133D01*
X121725952Y-194550207D01*
X121812777Y-194678192D01*
X121876891Y-194768245D01*
X121908661Y-194805525D01*
X121909590Y-194805785D01*
X121940459Y-194773356D01*
X122003243Y-194686466D01*
X122088285Y-194560345D01*
X122185927Y-194410226D01*
X122286513Y-194251339D01*
X122380385Y-194098916D01*
X122457886Y-193968188D01*
X122509359Y-193874387D01*
X122525456Y-193834443D01*
X122489065Y-193806852D01*
X122395994Y-193780037D01*
X122322580Y-193767576D01*
X122119705Y-193740664D01*
X122119705Y-193426518D01*
X123539833Y-193426518D01*
X123539833Y-193745279D01*
X123318054Y-193772989D01*
X123096275Y-193800698D01*
X122628278Y-194528532D01*
X122160280Y-195256366D01*
X122160280Y-196302376D01*
X122353012Y-196328179D01*
X122504304Y-196350822D01*
X122592165Y-196376053D01*
X122633795Y-196415626D01*
X122646393Y-196481298D01*
X122647181Y-196529238D01*
X122647181Y-196672524D01*
X120943028Y-196672524D01*
X120943028Y-196358405D01*
X121429928Y-196303319D01*
X121429928Y-195297866D01*
X120941024Y-194549205D01*
X120452121Y-193800543D01*
X120009801Y-193745279D01*
X120009801Y-193426518D01*
X121713954Y-193426518D01*
X121713954Y-193741768D01*
G37*
G36*
X98464433Y-193743150D02*
G01*
X98220983Y-193771406D01*
X97977532Y-193799661D01*
X97977532Y-196672524D01*
X97389194Y-196669270D01*
X96597980Y-195551524D01*
X96409325Y-195285696D01*
X96234989Y-195041353D01*
X96080627Y-194826321D01*
X95951894Y-194648424D01*
X95854447Y-194515489D01*
X95793941Y-194435342D01*
X95776334Y-194414654D01*
X95767776Y-194447812D01*
X95760148Y-194551199D01*
X95753808Y-194713894D01*
X95749111Y-194924978D01*
X95746414Y-195173532D01*
X95745903Y-195346834D01*
X95745903Y-196298137D01*
X95979210Y-196333174D01*
X96110052Y-196354908D01*
X96180893Y-196380052D01*
X96211988Y-196424026D01*
X96223593Y-196502249D01*
X96225109Y-196520368D01*
X96237703Y-196672524D01*
X94772101Y-196672524D01*
X94772101Y-196529238D01*
X94776447Y-196445505D01*
X94800952Y-196393936D01*
X94862815Y-196362774D01*
X94979236Y-196340263D01*
X95066270Y-196328179D01*
X95259002Y-196302376D01*
X95259002Y-193804828D01*
X95025695Y-193767829D01*
X94895080Y-193745089D01*
X94825451Y-193720179D01*
X94797622Y-193678378D01*
X94792406Y-193604966D01*
X94792389Y-193588818D01*
X94792389Y-193446805D01*
X95924994Y-193446805D01*
X96548951Y-194319169D01*
X96725811Y-194566481D01*
X96895873Y-194804362D01*
X97050721Y-195021032D01*
X97181934Y-195204710D01*
X97281097Y-195343616D01*
X97331769Y-195414696D01*
X97490631Y-195637858D01*
X97490631Y-193799661D01*
X97247181Y-193771406D01*
X97003730Y-193743150D01*
X97003730Y-193426518D01*
X98464433Y-193426518D01*
X98464433Y-193743150D01*
G37*
G36*
X88766989Y-187380831D02*
G01*
X88606527Y-187380831D01*
X88502228Y-187375397D01*
X88451696Y-187344113D01*
X88427617Y-187264506D01*
X88421602Y-187228674D01*
X88399782Y-187086040D01*
X88378897Y-186990674D01*
X88344098Y-186933157D01*
X88280537Y-186904070D01*
X88173364Y-186893996D01*
X88007730Y-186893515D01*
X87893852Y-186893930D01*
X87428012Y-186893930D01*
X87428012Y-190178965D01*
X87519305Y-190197688D01*
X87621793Y-190216909D01*
X87749824Y-190238782D01*
X87762756Y-190240875D01*
X87860828Y-190262373D01*
X87903976Y-190302302D01*
X87914672Y-190387974D01*
X87914913Y-190425800D01*
X87914913Y-190586262D01*
X86170184Y-190586262D01*
X86170184Y-190425800D01*
X86175618Y-190321501D01*
X86206902Y-190270969D01*
X86286509Y-190246890D01*
X86322341Y-190240875D01*
X86449869Y-190219292D01*
X86557698Y-190199325D01*
X86565791Y-190197688D01*
X86657085Y-190178965D01*
X86657085Y-186893930D01*
X85727535Y-186893930D01*
X85703071Y-187046086D01*
X85676006Y-187209199D01*
X85652168Y-187308292D01*
X85620920Y-187359306D01*
X85571624Y-187378177D01*
X85493640Y-187380843D01*
X85479635Y-187380831D01*
X85318107Y-187380831D01*
X85318107Y-186447604D01*
X88766989Y-186447604D01*
X88766989Y-187380831D01*
G37*
G36*
X94589513Y-192554153D02*
G01*
X94601971Y-192704037D01*
X94604742Y-192802172D01*
X94576600Y-192849626D01*
X94495873Y-192873132D01*
X94459958Y-192879216D01*
X94325252Y-192901915D01*
X94204709Y-192923213D01*
X94196234Y-192924776D01*
X94086980Y-192945042D01*
X94074332Y-194392889D01*
X94070536Y-194802607D01*
X94065876Y-195139967D01*
X94058682Y-195413756D01*
X94047283Y-195632759D01*
X94030009Y-195805765D01*
X94005189Y-195941561D01*
X93971154Y-196048934D01*
X93926232Y-196136671D01*
X93868754Y-196213559D01*
X93797048Y-196288386D01*
X93709446Y-196369938D01*
X93696208Y-196382036D01*
X93518318Y-196523358D01*
X93341429Y-196613290D01*
X93244115Y-196644959D01*
X93006869Y-196693553D01*
X92725362Y-196724113D01*
X92434886Y-196734617D01*
X92170736Y-196723046D01*
X92079450Y-196711643D01*
X91755292Y-196628898D01*
X91470168Y-196492244D01*
X91235319Y-196308975D01*
X91061990Y-196086384D01*
X91033294Y-196032990D01*
X91008142Y-195980489D01*
X90987758Y-195928658D01*
X90971555Y-195868590D01*
X90958948Y-195791376D01*
X90949348Y-195688109D01*
X90942171Y-195549880D01*
X90936828Y-195367782D01*
X90932734Y-195132907D01*
X90929301Y-194836347D01*
X90925944Y-194469193D01*
X90925284Y-194392889D01*
X90912813Y-192945042D01*
X90793415Y-192922042D01*
X90622311Y-192889195D01*
X90515417Y-192864560D01*
X90457742Y-192838672D01*
X90434296Y-192802066D01*
X90430088Y-192745277D01*
X90430567Y-192692942D01*
X90430567Y-192533866D01*
X92175296Y-192533866D01*
X92175296Y-192694328D01*
X92169862Y-192798627D01*
X92138578Y-192849159D01*
X92058971Y-192873238D01*
X92023139Y-192879253D01*
X91895611Y-192900836D01*
X91787782Y-192920803D01*
X91779689Y-192922440D01*
X91688395Y-192941163D01*
X91688621Y-194248936D01*
X91690052Y-194623302D01*
X91694056Y-194955695D01*
X91700404Y-195238302D01*
X91708868Y-195463315D01*
X91719219Y-195622923D01*
X91731228Y-195709314D01*
X91731410Y-195709975D01*
X91818789Y-195896181D01*
X91962327Y-196066946D01*
X92137972Y-196194505D01*
X92161128Y-196206095D01*
X92305237Y-196249717D01*
X92499223Y-196275739D01*
X92713384Y-196282452D01*
X92918018Y-196268147D01*
X92999362Y-196254337D01*
X93124269Y-196205847D01*
X93260243Y-196120982D01*
X93313587Y-196077381D01*
X93385186Y-196008398D01*
X93443561Y-195937725D01*
X93490052Y-195856591D01*
X93526001Y-195756221D01*
X93552749Y-195627842D01*
X93571638Y-195462682D01*
X93584008Y-195251966D01*
X93591201Y-194986921D01*
X93594559Y-194658775D01*
X93595422Y-194258754D01*
X93595424Y-194233879D01*
X93595424Y-192946065D01*
X93473698Y-192922553D01*
X93336555Y-192896064D01*
X93230248Y-192875530D01*
X93151129Y-192851760D01*
X93116559Y-192803862D01*
X93108555Y-192704724D01*
X93108523Y-192692027D01*
X93108523Y-192532035D01*
X94589513Y-192554153D01*
G37*
G36*
X113404167Y-193416757D02*
G01*
X113678691Y-193448814D01*
X113832245Y-193481607D01*
X114126414Y-193556984D01*
X114126414Y-194364411D01*
X113954326Y-194351934D01*
X113782239Y-194339457D01*
X113750593Y-194118159D01*
X113725682Y-193990783D01*
X113695297Y-193898750D01*
X113675569Y-193870051D01*
X113595988Y-193845741D01*
X113461566Y-193827402D01*
X113298478Y-193816389D01*
X113132903Y-193814056D01*
X112991016Y-193821755D01*
X112929449Y-193831453D01*
X112761031Y-193903043D01*
X112647461Y-194017276D01*
X112591209Y-194157238D01*
X112594747Y-194306012D01*
X112660545Y-194446683D01*
X112791074Y-194562335D01*
X112820331Y-194578524D01*
X112911058Y-194615946D01*
X113052874Y-194664505D01*
X113218326Y-194714926D01*
X113254050Y-194725036D01*
X113579335Y-194830991D01*
X113831899Y-194949992D01*
X114019901Y-195088494D01*
X114151504Y-195252951D01*
X114234867Y-195449815D01*
X114251115Y-195513581D01*
X114276955Y-195795625D01*
X114228340Y-196055122D01*
X114110889Y-196282686D01*
X113930222Y-196468930D01*
X113691959Y-196604471D01*
X113573860Y-196644641D01*
X113325553Y-196690972D01*
X113027938Y-196709732D01*
X112707895Y-196701289D01*
X112392305Y-196666011D01*
X112188954Y-196625673D01*
X111854210Y-196544456D01*
X111854210Y-195694056D01*
X112199098Y-195719010D01*
X112234635Y-195968553D01*
X112257111Y-196106411D01*
X112282656Y-196184213D01*
X112323106Y-196222577D01*
X112390298Y-196242121D01*
X112391863Y-196242435D01*
X112542628Y-196260798D01*
X112730296Y-196267128D01*
X112928363Y-196262378D01*
X113110322Y-196247497D01*
X113249667Y-196223436D01*
X113290625Y-196210197D01*
X113447328Y-196107492D01*
X113536825Y-195960167D01*
X113558363Y-195816891D01*
X113543810Y-195688073D01*
X113493047Y-195585127D01*
X113395423Y-195499116D01*
X113240282Y-195421100D01*
X113016972Y-195342141D01*
X112978089Y-195330018D01*
X112637640Y-195215036D01*
X112370720Y-195099439D01*
X112169945Y-194976429D01*
X112027930Y-194839208D01*
X111937290Y-194680977D01*
X111890640Y-194494938D01*
X111880030Y-194319169D01*
X111905725Y-194051619D01*
X111987245Y-193837854D01*
X112131682Y-193666769D01*
X112346128Y-193527262D01*
X112403456Y-193499682D01*
X112506364Y-193457892D01*
X112610682Y-193430695D01*
X112737839Y-193415112D01*
X112909268Y-193408165D01*
X113071462Y-193406839D01*
X113404167Y-193416757D01*
G37*
G36*
X103546734Y-171566417D02*
G01*
X104652676Y-170461023D01*
X109318831Y-170461023D01*
X110403932Y-171546683D01*
X111489034Y-172632343D01*
X111489034Y-180382193D01*
X110403374Y-181467295D01*
X109317714Y-182552396D01*
X104651580Y-182552396D01*
X103546185Y-181446454D01*
X102440791Y-180340511D01*
X102440791Y-179406502D01*
X104672420Y-179406502D01*
X105107911Y-179843347D01*
X105543401Y-180280192D01*
X108424230Y-180280192D01*
X108840817Y-179865022D01*
X109257405Y-179449853D01*
X109257405Y-173566341D01*
X108821914Y-173129497D01*
X108386424Y-172692652D01*
X105586630Y-172692652D01*
X105129525Y-173148460D01*
X104672420Y-173604267D01*
X104672420Y-179406502D01*
X102440791Y-179406502D01*
X102440791Y-172671811D01*
X103546734Y-171566417D01*
G37*
G36*
X128652293Y-188192332D02*
G01*
X128333882Y-188192332D01*
X128266158Y-187766294D01*
X127668011Y-187755066D01*
X127069865Y-187743837D01*
X127069865Y-188722854D01*
X127444894Y-188711187D01*
X127819923Y-188699521D01*
X127853739Y-188486502D01*
X127876043Y-188363085D01*
X127902961Y-188299855D01*
X127950806Y-188276694D01*
X128026474Y-188273483D01*
X128165392Y-188273483D01*
X128165392Y-189490735D01*
X128024776Y-189490735D01*
X127941198Y-189486534D01*
X127896159Y-189460119D01*
X127872549Y-189390770D01*
X127857249Y-189287860D01*
X127830336Y-189084984D01*
X127069865Y-189084984D01*
X127069865Y-190182681D01*
X127668011Y-190171452D01*
X128266158Y-190160224D01*
X128300020Y-189947205D01*
X128333882Y-189734185D01*
X128652293Y-189734185D01*
X128652293Y-190586262D01*
X125852612Y-190586262D01*
X125852612Y-190272143D01*
X126096063Y-190244600D01*
X126339513Y-190217057D01*
X126339513Y-187709461D01*
X126096063Y-187681918D01*
X125852612Y-187654375D01*
X125852612Y-187340256D01*
X128652293Y-187340256D01*
X128652293Y-188192332D01*
G37*
G36*
X90706899Y-187490452D02*
G01*
X90695731Y-187576635D01*
X90666937Y-187626149D01*
X90599880Y-187655864D01*
X90473920Y-187682655D01*
X90471143Y-187683184D01*
X90247980Y-187725719D01*
X90236548Y-188202476D01*
X90225117Y-188679233D01*
X91485520Y-188679233D01*
X91485520Y-188215015D01*
X91482237Y-188026292D01*
X91473290Y-187870702D01*
X91460032Y-187764925D01*
X91445911Y-187726316D01*
X91385044Y-187707646D01*
X91274112Y-187687365D01*
X91202461Y-187677695D01*
X90998619Y-187653553D01*
X90998619Y-187340256D01*
X92707671Y-187340256D01*
X92695077Y-187492412D01*
X92684788Y-187578116D01*
X92658508Y-187626906D01*
X92595983Y-187654202D01*
X92476956Y-187675423D01*
X92449178Y-187679606D01*
X92215871Y-187714643D01*
X92215871Y-190211875D01*
X92449178Y-190246912D01*
X92580020Y-190268646D01*
X92650861Y-190293790D01*
X92681956Y-190337764D01*
X92693561Y-190415987D01*
X92695077Y-190434106D01*
X92707671Y-190586262D01*
X90998619Y-190586262D01*
X90998619Y-190274796D01*
X91231925Y-190237798D01*
X91465232Y-190200799D01*
X91476521Y-189642892D01*
X91487810Y-189084984D01*
X90225402Y-189084984D01*
X90236691Y-189642892D01*
X90247980Y-190200799D01*
X90471143Y-190243334D01*
X90598285Y-190270220D01*
X90666173Y-190299745D01*
X90695446Y-190348780D01*
X90706742Y-190434196D01*
X90706899Y-190436065D01*
X90719492Y-190586262D01*
X89010440Y-190586262D01*
X89010440Y-190272143D01*
X89253890Y-190244600D01*
X89497341Y-190217057D01*
X89497341Y-187709461D01*
X89253890Y-187681918D01*
X89010440Y-187654375D01*
X89010440Y-187340256D01*
X90719492Y-187340256D01*
X90706899Y-187490452D01*
G37*
G36*
X95827053Y-188192332D02*
G01*
X95508292Y-188192332D01*
X95480409Y-187969169D01*
X95452527Y-187746007D01*
X94242050Y-187746007D01*
X94253481Y-188222764D01*
X94264913Y-188699521D01*
X94990907Y-188699521D01*
X95033724Y-188496646D01*
X95063420Y-188376078D01*
X95098016Y-188313836D01*
X95155180Y-188288107D01*
X95208346Y-188281056D01*
X95340152Y-188268341D01*
X95340152Y-189490735D01*
X95201947Y-189490735D01*
X95119738Y-189486328D01*
X95075192Y-189459304D01*
X95051353Y-189388955D01*
X95035839Y-189287860D01*
X95007937Y-189084984D01*
X94244625Y-189084984D01*
X94244625Y-190180511D01*
X95452527Y-190180511D01*
X95480409Y-189957348D01*
X95508292Y-189734185D01*
X95827053Y-189734185D01*
X95827053Y-190586262D01*
X93022474Y-190586262D01*
X93035067Y-190434106D01*
X93045357Y-190348402D01*
X93071636Y-190299612D01*
X93134162Y-190272316D01*
X93253189Y-190251095D01*
X93280967Y-190246912D01*
X93514274Y-190211875D01*
X93514274Y-187714643D01*
X93280967Y-187679606D01*
X93150125Y-187657872D01*
X93079284Y-187632728D01*
X93048189Y-187588754D01*
X93036584Y-187510531D01*
X93035067Y-187492412D01*
X93022474Y-187340256D01*
X95827053Y-187340256D01*
X95827053Y-188192332D01*
G37*
G36*
X114828785Y-186399492D02*
G01*
X115246599Y-186465423D01*
X115658123Y-186574758D01*
X115789992Y-186616198D01*
X115789992Y-187421406D01*
X115609243Y-187421406D01*
X115497047Y-187417622D01*
X115440657Y-187393771D01*
X115414740Y-187331106D01*
X115403633Y-187269249D01*
X115375239Y-187096859D01*
X115351182Y-186987988D01*
X115320445Y-186926475D01*
X115272008Y-186896156D01*
X115194853Y-186880866D01*
X115133233Y-186872603D01*
X114869132Y-186847137D01*
X114622006Y-186843454D01*
X114409912Y-186860636D01*
X114250907Y-186897767D01*
X114202986Y-186919853D01*
X114031731Y-187055722D01*
X113933366Y-187223398D01*
X113903251Y-187421406D01*
X113918761Y-187575957D01*
X113970713Y-187707014D01*
X114067235Y-187821087D01*
X114216460Y-187924690D01*
X114426518Y-188024335D01*
X114705539Y-188126534D01*
X114836763Y-188169109D01*
X115185660Y-188295716D01*
X115460188Y-188435182D01*
X115666948Y-188594997D01*
X115812543Y-188782653D01*
X115903577Y-189005642D01*
X115946650Y-189271453D01*
X115952293Y-189434799D01*
X115917615Y-189751203D01*
X115815827Y-190025516D01*
X115650296Y-190253003D01*
X115424390Y-190428931D01*
X115165086Y-190541499D01*
X114956521Y-190590822D01*
X114707568Y-190627310D01*
X114453486Y-190647398D01*
X114229537Y-190647521D01*
X114166989Y-190642432D01*
X113918535Y-190606584D01*
X113649368Y-190554509D01*
X113405093Y-190495268D01*
X113356936Y-190481496D01*
X113152612Y-190420818D01*
X113152612Y-189531310D01*
X113511329Y-189531310D01*
X113539698Y-189796217D01*
X113558001Y-189931372D01*
X113587630Y-190027852D01*
X113641001Y-190092200D01*
X113730528Y-190130961D01*
X113868628Y-190150681D01*
X114067716Y-190157905D01*
X114227852Y-190158979D01*
X114439611Y-190158137D01*
X114589517Y-190152403D01*
X114696842Y-190138875D01*
X114780858Y-190114651D01*
X114860837Y-190076830D01*
X114893305Y-190058786D01*
X115068871Y-189916663D01*
X115179984Y-189734482D01*
X115222027Y-189527007D01*
X115190384Y-189309000D01*
X115155419Y-189220801D01*
X115091909Y-189126828D01*
X114989231Y-189040750D01*
X114837010Y-188956753D01*
X114624868Y-188869022D01*
X114369865Y-188780671D01*
X114009793Y-188648881D01*
X113723796Y-188510252D01*
X113504797Y-188358142D01*
X113345721Y-188185910D01*
X113239491Y-187986913D01*
X113179032Y-187754509D01*
X113166075Y-187650664D01*
X113170038Y-187338859D01*
X113240943Y-187067704D01*
X113374444Y-186839074D01*
X113566195Y-186654848D01*
X113811851Y-186516900D01*
X114107065Y-186427107D01*
X114447491Y-186387346D01*
X114828785Y-186399492D01*
G37*
G36*
X119198299Y-188232907D02*
G01*
X119039565Y-188232907D01*
X118939640Y-188228317D01*
X118889362Y-188199611D01*
X118864626Y-188124387D01*
X118854013Y-188060463D01*
X118830027Y-187911006D01*
X118803047Y-187818361D01*
X118755458Y-187768988D01*
X118669642Y-187749345D01*
X118527982Y-187745888D01*
X118444926Y-187746007D01*
X118102772Y-187746007D01*
X118102772Y-190215247D01*
X118325935Y-190243130D01*
X118549098Y-190271012D01*
X118549098Y-190586262D01*
X116885520Y-190586262D01*
X116885520Y-190271012D01*
X117108682Y-190243130D01*
X117331845Y-190215247D01*
X117331845Y-187746007D01*
X116987730Y-187746007D01*
X116818931Y-187745677D01*
X116713277Y-187754482D01*
X116652952Y-187787107D01*
X116620140Y-187858241D01*
X116597028Y-187982572D01*
X116581706Y-188080751D01*
X116560207Y-188178823D01*
X116520278Y-188221971D01*
X116434607Y-188232667D01*
X116396780Y-188232907D01*
X116236318Y-188232907D01*
X116236318Y-187340256D01*
X119198299Y-187340256D01*
X119198299Y-188232907D01*
G37*
G36*
X125568587Y-188232907D02*
G01*
X125254468Y-188232907D01*
X125226925Y-187989457D01*
X125199381Y-187746007D01*
X124473059Y-187746007D01*
X124473059Y-190217057D01*
X124716510Y-190244600D01*
X124959960Y-190272143D01*
X124959960Y-190586262D01*
X123255807Y-190586262D01*
X123255807Y-190272143D01*
X123499258Y-190244600D01*
X123742708Y-190217057D01*
X123742708Y-187746007D01*
X123020324Y-187746007D01*
X122963814Y-188232907D01*
X122647181Y-188232907D01*
X122647181Y-187340256D01*
X125568587Y-187340256D01*
X125568587Y-188232907D01*
G37*
G36*
X105373188Y-173391676D02*
G01*
X105708780Y-173057828D01*
X108265107Y-173057828D01*
X108598955Y-173393420D01*
X108932804Y-173729011D01*
X108932804Y-179287894D01*
X108597212Y-179621743D01*
X108261620Y-179955591D01*
X105705293Y-179955591D01*
X105371445Y-179619999D01*
X105037596Y-179284407D01*
X105037596Y-179202769D01*
X105281047Y-179202769D01*
X105785891Y-179712141D01*
X108179982Y-179712141D01*
X108434667Y-179459719D01*
X108689353Y-179207297D01*
X108689353Y-173810503D01*
X108416560Y-173535603D01*
X108143766Y-173260703D01*
X105830847Y-173260703D01*
X105555947Y-173533497D01*
X105281047Y-173806290D01*
X105281047Y-179202769D01*
X105037596Y-179202769D01*
X105037596Y-173725525D01*
X105373188Y-173391676D01*
G37*
G36*
X119685200Y-194319169D02*
G01*
X119371081Y-194319169D01*
X119315995Y-193832269D01*
X118589673Y-193832269D01*
X118589673Y-196298137D01*
X118822980Y-196333174D01*
X118953822Y-196354908D01*
X119024662Y-196380052D01*
X119055758Y-196424026D01*
X119067363Y-196502249D01*
X119068879Y-196520368D01*
X119081472Y-196672524D01*
X117367522Y-196672524D01*
X117380115Y-196520368D01*
X117390404Y-196434664D01*
X117416684Y-196385874D01*
X117479210Y-196358578D01*
X117598237Y-196337357D01*
X117626015Y-196333174D01*
X117859321Y-196298137D01*
X117859321Y-193832269D01*
X117136938Y-193832269D01*
X117108682Y-194075719D01*
X117080427Y-194319169D01*
X116763794Y-194319169D01*
X116763794Y-193426518D01*
X119685200Y-193426518D01*
X119685200Y-194319169D01*
G37*
G36*
X120557564Y-187341776D02*
G01*
X120909297Y-187341016D01*
X121261031Y-187340256D01*
X121542414Y-188060463D01*
X121658326Y-188357740D01*
X121789981Y-188696356D01*
X121924332Y-189042700D01*
X122048333Y-189363157D01*
X122100093Y-189497256D01*
X122376390Y-190213840D01*
X122603079Y-190247895D01*
X122731619Y-190269483D01*
X122800469Y-190295283D01*
X122830228Y-190341323D01*
X122841490Y-190423633D01*
X122842362Y-190434106D01*
X122854955Y-190586262D01*
X121141004Y-190586262D01*
X121153597Y-190434272D01*
X121164867Y-190345572D01*
X121193948Y-190296456D01*
X121262173Y-190269366D01*
X121379210Y-190248589D01*
X121506836Y-190219434D01*
X121580831Y-190183654D01*
X121592229Y-190164022D01*
X121577732Y-190101809D01*
X121539984Y-189990616D01*
X121494505Y-189872947D01*
X121396781Y-189632748D01*
X120159867Y-189632748D01*
X120066640Y-189876198D01*
X120017774Y-190010015D01*
X119983249Y-190116357D01*
X119971319Y-190167273D01*
X120006703Y-190200031D01*
X120100832Y-190232177D01*
X120182245Y-190248589D01*
X120305914Y-190270946D01*
X120370632Y-190299028D01*
X120397732Y-190350392D01*
X120407857Y-190434272D01*
X120420450Y-190586262D01*
X118995424Y-190586262D01*
X118995424Y-190274796D01*
X119226439Y-190237798D01*
X119457454Y-190200799D01*
X119834107Y-189221934D01*
X120334401Y-189221934D01*
X120372244Y-189232121D01*
X120474853Y-189240353D01*
X120625852Y-189245701D01*
X120780727Y-189247284D01*
X120960087Y-189244704D01*
X121105051Y-189237708D01*
X121199237Y-189227413D01*
X121227138Y-189216853D01*
X121213782Y-189164631D01*
X121177583Y-189055762D01*
X121124499Y-188906065D01*
X121060492Y-188731358D01*
X120991521Y-188547460D01*
X120923544Y-188370190D01*
X120862522Y-188215367D01*
X120814414Y-188098811D01*
X120785180Y-188036339D01*
X120780018Y-188030032D01*
X120760789Y-188065630D01*
X120720282Y-188161891D01*
X120664404Y-188303016D01*
X120599062Y-188473208D01*
X120530162Y-188656668D01*
X120463610Y-188837598D01*
X120405313Y-189000199D01*
X120361178Y-189128672D01*
X120337111Y-189207220D01*
X120334401Y-189221934D01*
X119834107Y-189221934D01*
X120007509Y-188771287D01*
X120557564Y-187341776D01*
G37*
G36*
X100533762Y-193743150D02*
G01*
X100290312Y-193771406D01*
X100046861Y-193799661D01*
X100046861Y-196298137D01*
X100280168Y-196333174D01*
X100411010Y-196354908D01*
X100481851Y-196380052D01*
X100512946Y-196424026D01*
X100524551Y-196502249D01*
X100526068Y-196520368D01*
X100538661Y-196672524D01*
X98824710Y-196672524D01*
X98837303Y-196520368D01*
X98847593Y-196434664D01*
X98873873Y-196385874D01*
X98936398Y-196358578D01*
X99055425Y-196337357D01*
X99083203Y-196333174D01*
X99316510Y-196298137D01*
X99316510Y-193799661D01*
X99073059Y-193771406D01*
X98829609Y-193743150D01*
X98829609Y-193426518D01*
X100533762Y-193426518D01*
X100533762Y-193743150D01*
G37*
G36*
X97976029Y-187770736D02*
G01*
X98049361Y-187478319D01*
X98158886Y-187220803D01*
X98308533Y-186984025D01*
X98369401Y-186905542D01*
X98561203Y-186727398D01*
X98813698Y-186581446D01*
X99111253Y-186472327D01*
X99438229Y-186404683D01*
X99778992Y-186383156D01*
X100060387Y-186403540D01*
X100436262Y-186483544D01*
X100752104Y-186612993D01*
X101012100Y-186796065D01*
X101220433Y-187036936D01*
X101381289Y-187339785D01*
X101498853Y-187708789D01*
X101534555Y-187875116D01*
X101565408Y-188115007D01*
X101579065Y-188399344D01*
X101576269Y-188701729D01*
X101557760Y-188995764D01*
X101524279Y-189255052D01*
X101491638Y-189404252D01*
X101359504Y-189764156D01*
X101179241Y-190059487D01*
X100948058Y-190292645D01*
X100663166Y-190466034D01*
X100321773Y-190582054D01*
X100070526Y-190627547D01*
X99904455Y-190647984D01*
X99780568Y-190657832D01*
X99667796Y-190656922D01*
X99535067Y-190645088D01*
X99363420Y-190623734D01*
X99025632Y-190543542D01*
X98718979Y-190399005D01*
X98455282Y-190198217D01*
X98246362Y-189949269D01*
X98162350Y-189801526D01*
X98061003Y-189563050D01*
X97990326Y-189320014D01*
X97946433Y-189051633D01*
X97925438Y-188737125D01*
X97922217Y-188516933D01*
X97925168Y-188423181D01*
X98716624Y-188423181D01*
X98724405Y-188793215D01*
X98766753Y-189144737D01*
X98841322Y-189459040D01*
X98945763Y-189717417D01*
X98957226Y-189738505D01*
X99117535Y-189948492D01*
X99322369Y-190097805D01*
X99558144Y-190182417D01*
X99811277Y-190198302D01*
X100068188Y-190141434D01*
X100168587Y-190097605D01*
X100324726Y-189997636D01*
X100449881Y-189862965D01*
X100561488Y-189673448D01*
X100592884Y-189607376D01*
X100673564Y-189369204D01*
X100729541Y-189074574D01*
X100760477Y-188744435D01*
X100766033Y-188399736D01*
X100745870Y-188061426D01*
X100699651Y-187750454D01*
X100627137Y-187488041D01*
X100494753Y-187226083D01*
X100317511Y-187031060D01*
X100097097Y-186904202D01*
X99835197Y-186846741D01*
X99744197Y-186843211D01*
X99481076Y-186873583D01*
X99259719Y-186966319D01*
X99078121Y-187123849D01*
X98934277Y-187348603D01*
X98826183Y-187643013D01*
X98751831Y-188009509D01*
X98745758Y-188053341D01*
X98716624Y-188423181D01*
X97925168Y-188423181D01*
X97934958Y-188112219D01*
X97976029Y-187770736D01*
G37*
G36*
X107674976Y-187651722D02*
G01*
X107441670Y-187688720D01*
X107208363Y-187725719D01*
X107208363Y-190200799D01*
X107441670Y-190237798D01*
X107674976Y-190274796D01*
X107674976Y-190586262D01*
X105965924Y-190586262D01*
X105978517Y-190434106D01*
X105988807Y-190348402D01*
X106015087Y-190299612D01*
X106077612Y-190272316D01*
X106196639Y-190251095D01*
X106224417Y-190246912D01*
X106457724Y-190211875D01*
X106457724Y-187714643D01*
X106224417Y-187679606D01*
X106093575Y-187657872D01*
X106022734Y-187632728D01*
X105991639Y-187588754D01*
X105980034Y-187510531D01*
X105978517Y-187492412D01*
X105965924Y-187340256D01*
X107674976Y-187340256D01*
X107674976Y-187651722D01*
G37*
G36*
X108374897Y-193767829D02*
G01*
X108244281Y-193745089D01*
X108174652Y-193720179D01*
X108146823Y-193678378D01*
X108141608Y-193604966D01*
X108141590Y-193588818D01*
X108141590Y-193446805D01*
X109176254Y-193448072D01*
X109538909Y-193449584D01*
X109830677Y-193454346D01*
X110061810Y-193464174D01*
X110242559Y-193480881D01*
X110383175Y-193506281D01*
X110493909Y-193542189D01*
X110585012Y-193590420D01*
X110666736Y-193652786D01*
X110743734Y-193725492D01*
X110900002Y-193933464D01*
X110980548Y-194163388D01*
X110984446Y-194405729D01*
X110910767Y-194650958D01*
X110845378Y-194770369D01*
X110747579Y-194893397D01*
X110631826Y-194997350D01*
X110584911Y-195027468D01*
X110437232Y-195106853D01*
X110531404Y-195230344D01*
X110621019Y-195367637D01*
X110726209Y-195560125D01*
X110836050Y-195786300D01*
X110939618Y-196024656D01*
X110957820Y-196069885D01*
X111048759Y-196299036D01*
X111279040Y-196333623D01*
X111408818Y-196355259D01*
X111478746Y-196380673D01*
X111509234Y-196425653D01*
X111520689Y-196505986D01*
X111521986Y-196521563D01*
X111534650Y-196674915D01*
X110998440Y-196663576D01*
X110462229Y-196652237D01*
X110246939Y-196130765D01*
X110113837Y-195825854D01*
X109993380Y-195592044D01*
X109878965Y-195421603D01*
X109763988Y-195306798D01*
X109641848Y-195239896D01*
X109505941Y-195213164D01*
X109462295Y-195211821D01*
X109338555Y-195211821D01*
X109338555Y-196298137D01*
X109571861Y-196333174D01*
X109702703Y-196354908D01*
X109773544Y-196380052D01*
X109804639Y-196424026D01*
X109816244Y-196502249D01*
X109817761Y-196520368D01*
X109830354Y-196672524D01*
X108116404Y-196672524D01*
X108128997Y-196520368D01*
X108139286Y-196434664D01*
X108165566Y-196385874D01*
X108228092Y-196358578D01*
X108347118Y-196337357D01*
X108374897Y-196333174D01*
X108608203Y-196298137D01*
X108608203Y-194855238D01*
X109338555Y-194855238D01*
X109660057Y-194840638D01*
X109831716Y-194829263D01*
X109945374Y-194809964D01*
X110024160Y-194776593D01*
X110086778Y-194727190D01*
X110205643Y-194562790D01*
X110254854Y-194366353D01*
X110234092Y-194167585D01*
X110175839Y-194017633D01*
X110087429Y-193917545D01*
X109954936Y-193859218D01*
X109764429Y-193834548D01*
X109657683Y-193832269D01*
X109338555Y-193832269D01*
X109338555Y-194855238D01*
X108608203Y-194855238D01*
X108608203Y-193804828D01*
X108374897Y-193767829D01*
G37*
G36*
X107634401Y-194278594D02*
G01*
X107315640Y-194278594D01*
X107287758Y-194055431D01*
X107259875Y-193832269D01*
X106049398Y-193832269D01*
X106060829Y-194309026D01*
X106072261Y-194785783D01*
X106802039Y-194785783D01*
X106844845Y-194582907D01*
X106874631Y-194462241D01*
X106909337Y-194399937D01*
X106966438Y-194374185D01*
X107017575Y-194367318D01*
X107147500Y-194354603D01*
X107147500Y-195576997D01*
X107009295Y-195576997D01*
X106927086Y-195572590D01*
X106882540Y-195545566D01*
X106858701Y-195475217D01*
X106843187Y-195374122D01*
X106815285Y-195171246D01*
X106051973Y-195171246D01*
X106051973Y-196266773D01*
X107259875Y-196266773D01*
X107287758Y-196043610D01*
X107315640Y-195820447D01*
X107634401Y-195820447D01*
X107634401Y-196672524D01*
X104834721Y-196672524D01*
X104834721Y-196529238D01*
X104839067Y-196445505D01*
X104863572Y-196393936D01*
X104925435Y-196362774D01*
X105041856Y-196340263D01*
X105128890Y-196328179D01*
X105321622Y-196302376D01*
X105321622Y-193804828D01*
X105088315Y-193767829D01*
X104957699Y-193745089D01*
X104888070Y-193720179D01*
X104860242Y-193678378D01*
X104855026Y-193604966D01*
X104855008Y-193588818D01*
X104855008Y-193446805D01*
X106244705Y-193436129D01*
X107634401Y-193425452D01*
X107634401Y-194278594D01*
G37*
G36*
X104591270Y-193737984D02*
G01*
X104364284Y-193774982D01*
X104137297Y-193811981D01*
X103601728Y-195232109D01*
X103066160Y-196652237D01*
X102712751Y-196663962D01*
X102542010Y-196668280D01*
X102434566Y-196664972D01*
X102372666Y-196650381D01*
X102338554Y-196620849D01*
X102318818Y-196582812D01*
X102295460Y-196523961D01*
X102247295Y-196398463D01*
X102177871Y-196215705D01*
X102090737Y-195985074D01*
X101989441Y-195715958D01*
X101877529Y-195417745D01*
X101777667Y-195150959D01*
X101277040Y-193811981D01*
X101047414Y-193774982D01*
X100817788Y-193737984D01*
X100817788Y-193426518D01*
X102481366Y-193426518D01*
X102481366Y-193741768D01*
X102258203Y-193769650D01*
X102136223Y-193788605D01*
X102055166Y-193808319D01*
X102035040Y-193820224D01*
X102048731Y-193873113D01*
X102086851Y-193986843D01*
X102144972Y-194149863D01*
X102218668Y-194350618D01*
X102303509Y-194577557D01*
X102395068Y-194819128D01*
X102488918Y-195063778D01*
X102580629Y-195299955D01*
X102665776Y-195516107D01*
X102739929Y-195700680D01*
X102798661Y-195842124D01*
X102837544Y-195928884D01*
X102851719Y-195950969D01*
X102873651Y-195904838D01*
X102918141Y-195794497D01*
X102980697Y-195632244D01*
X103056828Y-195430377D01*
X103142040Y-195201196D01*
X103231844Y-194956999D01*
X103321746Y-194710084D01*
X103407255Y-194472751D01*
X103483878Y-194257297D01*
X103547125Y-194076021D01*
X103592502Y-193941223D01*
X103615519Y-193865200D01*
X103617468Y-193854379D01*
X103579975Y-193817377D01*
X103479483Y-193782487D01*
X103404449Y-193766969D01*
X103281125Y-193743364D01*
X103217890Y-193715669D01*
X103194680Y-193667105D01*
X103191430Y-193588818D01*
X103191430Y-193446805D01*
X104591270Y-193424601D01*
X104591270Y-193737984D01*
G37*
G36*
X103609774Y-187492412D02*
G01*
X103599484Y-187578116D01*
X103573205Y-187626906D01*
X103510679Y-187654202D01*
X103391652Y-187675423D01*
X103363874Y-187679606D01*
X103130567Y-187714643D01*
X103130567Y-188679233D01*
X104388395Y-188679233D01*
X104388395Y-188215015D01*
X104385112Y-188026292D01*
X104376166Y-187870702D01*
X104362907Y-187764925D01*
X104348786Y-187726316D01*
X104287919Y-187707646D01*
X104176988Y-187687365D01*
X104105336Y-187677695D01*
X103901494Y-187653553D01*
X103901494Y-187340256D01*
X105610546Y-187340256D01*
X105597953Y-187492412D01*
X105587663Y-187578116D01*
X105561384Y-187626906D01*
X105498858Y-187654202D01*
X105379831Y-187675423D01*
X105352053Y-187679606D01*
X105118746Y-187714643D01*
X105118746Y-190211875D01*
X105352053Y-190246912D01*
X105482895Y-190268646D01*
X105553736Y-190293790D01*
X105584831Y-190337764D01*
X105596436Y-190415987D01*
X105597953Y-190434106D01*
X105610546Y-190586262D01*
X103901494Y-190586262D01*
X103901494Y-190274796D01*
X104134801Y-190237798D01*
X104368107Y-190200799D01*
X104379396Y-189642892D01*
X104390685Y-189084984D01*
X103130567Y-189084984D01*
X103130567Y-190211875D01*
X103363874Y-190246912D01*
X103494716Y-190268646D01*
X103565557Y-190293790D01*
X103596652Y-190337764D01*
X103608257Y-190415987D01*
X103609774Y-190434106D01*
X103622367Y-190586262D01*
X101913315Y-190586262D01*
X101913315Y-190272143D01*
X102156766Y-190244600D01*
X102400216Y-190217057D01*
X102400216Y-187709461D01*
X102156766Y-187681918D01*
X101913315Y-187654375D01*
X101913315Y-187340256D01*
X103622367Y-187340256D01*
X103609774Y-187492412D01*
G37*
%TO.C,J3*%
X37395000Y-77875000D02*
X37395000Y-88095000D01*
X37395000Y-76605000D02*
X37395000Y-75275000D01*
X39995000Y-75275000D02*
X42595000Y-75275000D01*
X39995000Y-77875000D02*
X39995000Y-75275000D01*
X37395000Y-77875000D02*
X39995000Y-77875000D01*
X37395000Y-75275000D02*
X38725000Y-75275000D01*
X37395000Y-88095000D02*
X42595000Y-88095000D01*
X42595000Y-75275000D02*
X42595000Y-88095000D01*
%TO.C,R4*%
X102114300Y-162947936D02*
X102114300Y-163402064D01*
X100644300Y-162947936D02*
X100644300Y-163402064D01*
%TO.C,J22*%
X172395000Y-179380000D02*
X177595000Y-179380000D01*
X177595000Y-166560000D02*
X177595000Y-179380000D01*
X172395000Y-166560000D02*
X173725000Y-166560000D01*
X172395000Y-169160000D02*
X172395000Y-179380000D01*
X174995000Y-169160000D02*
X174995000Y-166560000D01*
X174995000Y-166560000D02*
X177595000Y-166560000D01*
X172395000Y-169160000D02*
X174995000Y-169160000D01*
X172395000Y-167890000D02*
X172395000Y-166560000D01*
%TO.C,J23*%
X157495000Y-191195000D02*
X157495000Y-188595000D01*
X154895000Y-191195000D02*
X157495000Y-191195000D01*
X154895000Y-201415000D02*
X160095000Y-201415000D01*
X154895000Y-189925000D02*
X154895000Y-188595000D01*
X160095000Y-188595000D02*
X160095000Y-201415000D01*
X157495000Y-188595000D02*
X160095000Y-188595000D01*
X154895000Y-188595000D02*
X156225000Y-188595000D01*
X154895000Y-191195000D02*
X154895000Y-201415000D01*
%TO.C,R1*%
X87114300Y-162860436D02*
X87114300Y-163314564D01*
X85644300Y-162860436D02*
X85644300Y-163314564D01*
%TO.C,J4*%
X55035000Y-77875000D02*
X55035000Y-88095000D01*
X57635000Y-77875000D02*
X57635000Y-75275000D01*
X55035000Y-88095000D02*
X60235000Y-88095000D01*
X55035000Y-75275000D02*
X56365000Y-75275000D01*
X55035000Y-76605000D02*
X55035000Y-75275000D01*
X57635000Y-75275000D02*
X60235000Y-75275000D01*
X60235000Y-75275000D02*
X60235000Y-88095000D01*
X55035000Y-77875000D02*
X57635000Y-77875000D01*
%TO.C,J29*%
X107833433Y-204550000D02*
X106136967Y-204550000D01*
X113920200Y-214670000D02*
X100050200Y-214670000D01*
X114920200Y-204550000D02*
X114920200Y-213670000D01*
X110475200Y-204550000D02*
X109136967Y-204550000D01*
X104833433Y-204550000D02*
X103136967Y-204550000D01*
X114920200Y-204550000D02*
X112495200Y-204550000D01*
X99050200Y-204550000D02*
X101833433Y-204550000D01*
X100050200Y-214670000D02*
X99050200Y-213670000D01*
X99050200Y-213670000D02*
X99050200Y-204550000D01*
X114920200Y-213670000D02*
X113920200Y-214670000D01*
%TO.C,J8*%
X54895000Y-122340000D02*
X54895000Y-132560000D01*
X54895000Y-132560000D02*
X60095000Y-132560000D01*
X54895000Y-121070000D02*
X54895000Y-119740000D01*
X60095000Y-119740000D02*
X60095000Y-132560000D01*
X54895000Y-119740000D02*
X56225000Y-119740000D01*
X57495000Y-122340000D02*
X57495000Y-119740000D01*
X54895000Y-122340000D02*
X57495000Y-122340000D01*
X57495000Y-119740000D02*
X60095000Y-119740000D01*
%TO.C,J13*%
X154895000Y-99060000D02*
X156225000Y-99060000D01*
X154895000Y-111880000D02*
X160095000Y-111880000D01*
X160095000Y-99060000D02*
X160095000Y-111880000D01*
X154895000Y-101660000D02*
X157495000Y-101660000D01*
X157495000Y-101660000D02*
X157495000Y-99060000D01*
X154895000Y-101660000D02*
X154895000Y-111880000D01*
X157495000Y-99060000D02*
X160095000Y-99060000D01*
X154895000Y-100390000D02*
X154895000Y-99060000D01*
%TO.C,J17*%
X39984272Y-169660000D02*
X39984272Y-167060000D01*
X37384272Y-179880000D02*
X42584272Y-179880000D01*
X37384272Y-167060000D02*
X38714272Y-167060000D01*
X39984272Y-167060000D02*
X42584272Y-167060000D01*
X37384272Y-169660000D02*
X37384272Y-179880000D01*
X37384272Y-169660000D02*
X39984272Y-169660000D01*
X42584272Y-167060000D02*
X42584272Y-179880000D01*
X37384272Y-168390000D02*
X37384272Y-167060000D01*
%TD*%
M02*
