%TF.GenerationSoftware,KiCad,Pcbnew,(6.0.9)*%
%TF.CreationDate,2022-12-19T12:22:18-05:00*%
%TF.ProjectId,Perris_Breakout,50657272-6973-45f4-9272-65616b6f7574,rev?*%
%TF.SameCoordinates,Original*%
%TF.FileFunction,Copper,L2,Bot*%
%TF.FilePolarity,Positive*%
%FSLAX46Y46*%
G04 Gerber Fmt 4.6, Leading zero omitted, Abs format (unit mm)*
G04 Created by KiCad (PCBNEW (6.0.9)) date 2022-12-19 12:22:18*
%MOMM*%
%LPD*%
G01*
G04 APERTURE LIST*
%TA.AperFunction,ComponentPad*%
%ADD10O,1.700000X1.700000*%
%TD*%
%TA.AperFunction,ComponentPad*%
%ADD11C,1.700000*%
%TD*%
%TA.AperFunction,ComponentPad*%
%ADD12R,1.700000X1.700000*%
%TD*%
%TA.AperFunction,ComponentPad*%
%ADD13C,5.700000*%
%TD*%
%TA.AperFunction,ViaPad*%
%ADD14C,1.270000*%
%TD*%
%TA.AperFunction,Conductor*%
%ADD15C,1.270000*%
%TD*%
G04 APERTURE END LIST*
D10*
%TO.P,J7,1,Pin_1*%
%TO.N,/GND*%
X116636800Y-54025800D03*
%TO.P,J7,2,Pin_2*%
X114096800Y-54025800D03*
%TO.P,J7,3,Pin_3*%
%TO.N,unconnected-(J7-Pad3)*%
X111556800Y-54025800D03*
%TO.P,J7,4,Pin_4*%
%TO.N,/SCL*%
X109016800Y-54025800D03*
D11*
%TO.P,J7,5,Pin_5*%
X106476800Y-54025800D03*
D10*
%TO.P,J7,6,Pin_6*%
%TO.N,/SDA*%
X106476800Y-51485800D03*
D11*
%TO.P,J7,7,Pin_7*%
X109016800Y-51485800D03*
%TO.P,J7,8,Pin_8*%
%TO.N,unconnected-(J7-Pad8)*%
X111556800Y-51485800D03*
%TO.P,J7,9,Pin_9*%
%TO.N,/GND*%
X114096800Y-51485800D03*
D12*
%TO.P,J7,10,Pin_10*%
X116636800Y-51485800D03*
%TD*%
D10*
%TO.P,J5,1,Pin_1*%
%TO.N,/GND*%
X137566400Y-67792600D03*
%TO.P,J5,2,Pin_2*%
X137566400Y-65252600D03*
%TO.P,J5,3,Pin_3*%
%TO.N,unconnected-(J5-Pad3)*%
X137566400Y-62712600D03*
%TO.P,J5,4,Pin_4*%
%TO.N,/SCL*%
X137566400Y-60172600D03*
D11*
%TO.P,J5,5,Pin_5*%
X137566400Y-57632600D03*
D10*
%TO.P,J5,6,Pin_6*%
%TO.N,/SDA*%
X140106400Y-57632600D03*
D11*
%TO.P,J5,7,Pin_7*%
X140106400Y-60172600D03*
%TO.P,J5,8,Pin_8*%
%TO.N,unconnected-(J5-Pad8)*%
X140106400Y-62712600D03*
%TO.P,J5,9,Pin_9*%
%TO.N,/GND*%
X140106400Y-65252600D03*
D12*
%TO.P,J5,10,Pin_10*%
X140106400Y-67792600D03*
%TD*%
%TO.P,TP3,1,1*%
%TO.N,/SCL*%
X119811800Y-80187800D03*
%TD*%
%TO.P,TP2,1,1*%
%TO.N,/GND*%
X119811800Y-71640700D03*
%TD*%
D10*
%TO.P,J8,1,Pin_1*%
%TO.N,/GND*%
X133741000Y-54025800D03*
%TO.P,J8,2,Pin_2*%
X131201000Y-54025800D03*
%TO.P,J8,3,Pin_3*%
%TO.N,unconnected-(J8-Pad3)*%
X128661000Y-54025800D03*
%TO.P,J8,4,Pin_4*%
%TO.N,/SCL*%
X126121000Y-54025800D03*
D11*
%TO.P,J8,5,Pin_5*%
X123581000Y-54025800D03*
D10*
%TO.P,J8,6,Pin_6*%
%TO.N,/SDA*%
X123581000Y-51485800D03*
D11*
%TO.P,J8,7,Pin_7*%
X126121000Y-51485800D03*
%TO.P,J8,8,Pin_8*%
%TO.N,unconnected-(J8-Pad8)*%
X128661000Y-51485800D03*
%TO.P,J8,9,Pin_9*%
%TO.N,/GND*%
X131201000Y-51485800D03*
D12*
%TO.P,J8,10,Pin_10*%
X133741000Y-51485800D03*
%TD*%
%TO.P,J10,1,Pin_1*%
%TO.N,/SDA*%
X128569800Y-63104000D03*
%TD*%
%TO.P,J14,1,Pin_1*%
%TO.N,/SCL*%
X128569800Y-80208200D03*
%TD*%
%TO.P,J13,1,Pin_1*%
%TO.N,/SCL*%
X111465600Y-80208200D03*
%TD*%
D10*
%TO.P,J3,1,Pin_1*%
%TO.N,/GND*%
X106390600Y-88849200D03*
%TO.P,J3,2,Pin_2*%
X108930600Y-88849200D03*
%TO.P,J3,3,Pin_3*%
%TO.N,unconnected-(J3-Pad3)*%
X111470600Y-88849200D03*
%TO.P,J3,4,Pin_4*%
%TO.N,/SCL*%
X114010600Y-88849200D03*
D11*
%TO.P,J3,5,Pin_5*%
X116550600Y-88849200D03*
D10*
%TO.P,J3,6,Pin_6*%
%TO.N,/SDA*%
X116550600Y-91389200D03*
D11*
%TO.P,J3,7,Pin_7*%
X114010600Y-91389200D03*
%TO.P,J3,8,Pin_8*%
%TO.N,unconnected-(J3-Pad8)*%
X111470600Y-91389200D03*
%TO.P,J3,9,Pin_9*%
%TO.N,/GND*%
X108930600Y-91389200D03*
D12*
%TO.P,J3,10,Pin_10*%
X106390600Y-91389200D03*
%TD*%
%TO.P,J11,1,Pin_1*%
%TO.N,/GND*%
X111465600Y-71661100D03*
%TD*%
D13*
%TO.P,H2,1,1*%
%TO.N,/GND*%
X92354400Y-99085400D03*
%TD*%
%TO.P,H3,1,1*%
%TO.N,/GND*%
X92100400Y-43129200D03*
%TD*%
D12*
%TO.P,TP1,1,1*%
%TO.N,/SDA*%
X119811800Y-63083600D03*
%TD*%
D10*
%TO.P,J6,1,Pin_1*%
%TO.N,/GND*%
X137566400Y-84896800D03*
%TO.P,J6,2,Pin_2*%
X137566400Y-82356800D03*
%TO.P,J6,3,Pin_3*%
%TO.N,unconnected-(J6-Pad3)*%
X137566400Y-79816800D03*
%TO.P,J6,4,Pin_4*%
%TO.N,/SCL*%
X137566400Y-77276800D03*
D11*
%TO.P,J6,5,Pin_5*%
X137566400Y-74736800D03*
D10*
%TO.P,J6,6,Pin_6*%
%TO.N,/SDA*%
X140106400Y-74736800D03*
D11*
%TO.P,J6,7,Pin_7*%
X140106400Y-77276800D03*
%TO.P,J6,8,Pin_8*%
%TO.N,unconnected-(J6-Pad8)*%
X140106400Y-79816800D03*
%TO.P,J6,9,Pin_9*%
%TO.N,/GND*%
X140106400Y-82356800D03*
D12*
%TO.P,J6,10,Pin_10*%
X140106400Y-84896800D03*
%TD*%
D13*
%TO.P,H1,1,1*%
%TO.N,/GND*%
X148818600Y-43129200D03*
%TD*%
D12*
%TO.P,J12,1,Pin_1*%
%TO.N,/GND*%
X128569800Y-71661100D03*
%TD*%
%TO.P,J9,1,Pin_1*%
%TO.N,/SDA*%
X111465600Y-63104000D03*
%TD*%
D10*
%TO.P,J1,1,Pin_1*%
%TO.N,/GND*%
X102870000Y-58029000D03*
%TO.P,J1,2,Pin_2*%
X102870000Y-60569000D03*
%TO.P,J1,3,Pin_3*%
%TO.N,unconnected-(J1-Pad3)*%
X102870000Y-63109000D03*
%TO.P,J1,4,Pin_4*%
%TO.N,/SCL*%
X102870000Y-65649000D03*
D11*
%TO.P,J1,5,Pin_5*%
X102870000Y-68189000D03*
D10*
%TO.P,J1,6,Pin_6*%
%TO.N,/SDA*%
X100330000Y-68189000D03*
D11*
%TO.P,J1,7,Pin_7*%
X100330000Y-65649000D03*
%TO.P,J1,8,Pin_8*%
%TO.N,unconnected-(J1-Pad8)*%
X100330000Y-63109000D03*
%TO.P,J1,9,Pin_9*%
%TO.N,/GND*%
X100330000Y-60569000D03*
D12*
%TO.P,J1,10,Pin_10*%
X100330000Y-58029000D03*
%TD*%
D13*
%TO.P,H4,1,1*%
%TO.N,/GND*%
X148818600Y-99085400D03*
%TD*%
D10*
%TO.P,J2,1,Pin_1*%
%TO.N,/GND*%
X102870000Y-75133200D03*
%TO.P,J2,2,Pin_2*%
X102870000Y-77673200D03*
%TO.P,J2,3,Pin_3*%
%TO.N,unconnected-(J2-Pad3)*%
X102870000Y-80213200D03*
%TO.P,J2,4,Pin_4*%
%TO.N,/SCL*%
X102870000Y-82753200D03*
D11*
%TO.P,J2,5,Pin_5*%
X102870000Y-85293200D03*
D10*
%TO.P,J2,6,Pin_6*%
%TO.N,/SDA*%
X100330000Y-85293200D03*
D11*
%TO.P,J2,7,Pin_7*%
X100330000Y-82753200D03*
%TO.P,J2,8,Pin_8*%
%TO.N,unconnected-(J2-Pad8)*%
X100330000Y-80213200D03*
%TO.P,J2,9,Pin_9*%
%TO.N,/GND*%
X100330000Y-77673200D03*
D12*
%TO.P,J2,10,Pin_10*%
X100330000Y-75133200D03*
%TD*%
D10*
%TO.P,J4,1,Pin_1*%
%TO.N,/GND*%
X123494800Y-88849200D03*
%TO.P,J4,2,Pin_2*%
X126034800Y-88849200D03*
%TO.P,J4,3,Pin_3*%
%TO.N,unconnected-(J4-Pad3)*%
X128574800Y-88849200D03*
%TO.P,J4,4,Pin_4*%
%TO.N,/SCL*%
X131114800Y-88849200D03*
D11*
%TO.P,J4,5,Pin_5*%
X133654800Y-88849200D03*
D10*
%TO.P,J4,6,Pin_6*%
%TO.N,/SDA*%
X133654800Y-91389200D03*
D11*
%TO.P,J4,7,Pin_7*%
X131114800Y-91389200D03*
%TO.P,J4,8,Pin_8*%
%TO.N,unconnected-(J4-Pad8)*%
X128574800Y-91389200D03*
%TO.P,J4,9,Pin_9*%
%TO.N,/GND*%
X126034800Y-91389200D03*
D12*
%TO.P,J4,10,Pin_10*%
X123494800Y-91389200D03*
%TD*%
D14*
%TO.N,/GND*%
X138836400Y-52755800D03*
X101605000Y-90114200D03*
X101605000Y-71661100D03*
X138836400Y-90114200D03*
X101605000Y-52755800D03*
X119811800Y-90114200D03*
X111506000Y-58623200D03*
%TD*%
D15*
%TO.N,/SCL*%
X114010600Y-88849200D02*
X116550600Y-88849200D01*
%TO.N,/SDA*%
X116550600Y-91389200D02*
X114010600Y-91389200D01*
%TO.N,/SCL*%
X131114800Y-88849200D02*
X133654800Y-88849200D01*
%TO.N,/SDA*%
X133654800Y-91389200D02*
X131114800Y-91389200D01*
%TO.N,/SCL*%
X137566400Y-74736800D02*
X137566400Y-77276800D01*
%TO.N,/SDA*%
X140106400Y-77276800D02*
X140106400Y-74736800D01*
X140106400Y-57632600D02*
X140106400Y-60172600D01*
%TO.N,/SCL*%
X137566400Y-60172600D02*
X137566400Y-57632600D01*
X123581000Y-54025800D02*
X126121000Y-54025800D01*
%TO.N,/SDA*%
X126121000Y-51485800D02*
X123581000Y-51485800D01*
%TO.N,/SCL*%
X109016800Y-54025800D02*
X106476800Y-54025800D01*
%TO.N,/SDA*%
X109016800Y-51485800D02*
X106476800Y-51485800D01*
%TO.N,/SCL*%
X102870000Y-65649000D02*
X102870000Y-68189000D01*
%TO.N,/SDA*%
X100330000Y-68189000D02*
X100330000Y-65649000D01*
%TO.N,/SCL*%
X102870000Y-82753200D02*
X102870000Y-85293200D01*
%TO.N,/SDA*%
X97891600Y-84785200D02*
X97891600Y-68732400D01*
%TO.N,/SCL*%
X106476800Y-80873600D02*
X106476800Y-85242400D01*
%TO.N,/SDA*%
X100330000Y-85293200D02*
X100330000Y-82753200D01*
%TO.N,/SCL*%
X107142200Y-80208200D02*
X106476800Y-80873600D01*
X133553200Y-57632600D02*
X133746400Y-57825800D01*
X133553200Y-57632600D02*
X123545600Y-57632600D01*
X123545600Y-54061200D02*
X123581000Y-54025800D01*
X123545600Y-57632600D02*
X123545600Y-54061200D01*
X128569800Y-80208200D02*
X133126400Y-80208200D01*
X102870000Y-85293200D02*
X106426000Y-85293200D01*
X116560600Y-88839200D02*
X116550600Y-88849200D01*
X133654800Y-88849200D02*
X133654800Y-79679800D01*
X106476800Y-54025800D02*
X106476800Y-68275200D01*
X133746400Y-57825800D02*
X133746400Y-67173000D01*
X111465600Y-80208200D02*
X128569800Y-80208200D01*
X106476800Y-85242400D02*
X106426000Y-85293200D01*
X106476800Y-68275200D02*
X102956200Y-68275200D01*
X133126400Y-80208200D02*
X133654800Y-79679800D01*
X133746400Y-74736800D02*
X137566400Y-74736800D01*
X116560600Y-85369400D02*
X116560600Y-88839200D01*
X111465600Y-80208200D02*
X107142200Y-80208200D01*
X133746400Y-67173000D02*
X133756400Y-67183000D01*
X106451400Y-67183000D02*
X133680200Y-67183000D01*
X133654800Y-79679800D02*
X133654800Y-74879200D01*
X106426000Y-85293200D02*
X116535200Y-85293200D01*
X102956200Y-68275200D02*
X102870000Y-68189000D01*
X137566400Y-57632600D02*
X133553200Y-57632600D01*
X106476800Y-68275200D02*
X106476800Y-80873600D01*
%TO.N,/SDA*%
X106654600Y-49250600D02*
X120040400Y-49250600D01*
X97891600Y-93980000D02*
X97891600Y-84785200D01*
X142671800Y-49250600D02*
X142671800Y-57658000D01*
X119811800Y-63083600D02*
X119811800Y-49479200D01*
X100330000Y-85293200D02*
X98399600Y-85293200D01*
X98435000Y-68189000D02*
X97891600Y-68732400D01*
X97891600Y-68732400D02*
X97891600Y-49276000D01*
X142671800Y-75006200D02*
X142671800Y-93980000D01*
X134112000Y-94005400D02*
X117043200Y-94005400D01*
X111465600Y-63104000D02*
X128569800Y-63104000D01*
X100330000Y-68189000D02*
X98435000Y-68189000D01*
X119811800Y-49479200D02*
X120040400Y-49250600D01*
X97917000Y-94005400D02*
X97891600Y-93980000D01*
X142646400Y-49250600D02*
X142671800Y-49276000D01*
X106476800Y-49428400D02*
X106654600Y-49250600D01*
X140106400Y-57632600D02*
X142316200Y-57632600D01*
X123581000Y-49342200D02*
X123672600Y-49250600D01*
X142671800Y-93980000D02*
X142646400Y-94005400D01*
X123672600Y-49250600D02*
X142646400Y-49250600D01*
X120040400Y-49250600D02*
X123672600Y-49250600D01*
X123581000Y-51485800D02*
X123581000Y-49342200D01*
X142402400Y-74736800D02*
X142671800Y-75006200D01*
X116550600Y-93512800D02*
X117043200Y-94005400D01*
X142646400Y-94005400D02*
X134112000Y-94005400D01*
X133654800Y-91389200D02*
X133654800Y-93548200D01*
X98399600Y-85293200D02*
X97891600Y-84785200D01*
X140106400Y-74736800D02*
X142402400Y-74736800D01*
X116550600Y-91389200D02*
X116550600Y-93512800D01*
X97891600Y-49250600D02*
X106654600Y-49250600D01*
X117043200Y-94005400D02*
X97917000Y-94005400D01*
X133654800Y-93548200D02*
X134112000Y-94005400D01*
X106476800Y-51485800D02*
X106476800Y-49428400D01*
%TO.N,/GND*%
X111465600Y-71661100D02*
X128569800Y-71661100D01*
%TD*%
%TA.AperFunction,Conductor*%
%TO.N,/SCL*%
G36*
X106596721Y-82747802D02*
G01*
X106643214Y-82801458D01*
X106654600Y-82853800D01*
X106654600Y-85549043D01*
X106634598Y-85617164D01*
X106580942Y-85663657D01*
X106529446Y-85675040D01*
X103503378Y-85695349D01*
X102999033Y-85698734D01*
X102930779Y-85679190D01*
X102883927Y-85625847D01*
X102872205Y-85570583D01*
X102872574Y-85549043D01*
X102918683Y-82851646D01*
X102939847Y-82783878D01*
X102994289Y-82738308D01*
X103044665Y-82727800D01*
X106528600Y-82727800D01*
X106596721Y-82747802D01*
G37*
%TD.AperFunction*%
%TD*%
%TA.AperFunction,Conductor*%
%TO.N,/GND*%
G36*
X153341621Y-38543066D02*
G01*
X153407557Y-38595649D01*
X153444149Y-38671632D01*
X153448900Y-38713800D01*
X153448900Y-104593000D01*
X153430134Y-104675221D01*
X153377551Y-104741157D01*
X153301568Y-104777749D01*
X153259400Y-104782500D01*
X87329400Y-104782500D01*
X87247179Y-104763734D01*
X87181243Y-104711151D01*
X87144651Y-104635168D01*
X87139900Y-104593000D01*
X87139900Y-68704532D01*
X96751276Y-68704532D01*
X96751913Y-68713525D01*
X96755627Y-68765987D01*
X96756100Y-68779370D01*
X96756100Y-84677779D01*
X96755591Y-84691656D01*
X96755509Y-84692774D01*
X96753998Y-84701660D01*
X96754678Y-84732804D01*
X96756055Y-84795925D01*
X96756100Y-84800059D01*
X96756100Y-93872579D01*
X96755591Y-93886456D01*
X96755509Y-93887574D01*
X96753998Y-93896460D01*
X96754195Y-93905473D01*
X96756055Y-93990725D01*
X96756100Y-93994859D01*
X96756100Y-94034136D01*
X96756611Y-94039487D01*
X96757421Y-94053332D01*
X96758725Y-94113082D01*
X96760624Y-94121902D01*
X96765203Y-94143171D01*
X96768590Y-94165051D01*
X96771514Y-94195695D01*
X96779524Y-94222997D01*
X96788335Y-94253032D01*
X96791753Y-94266490D01*
X96804329Y-94324903D01*
X96807859Y-94333199D01*
X96816379Y-94353222D01*
X96823845Y-94374073D01*
X96832509Y-94403606D01*
X96836639Y-94411624D01*
X96836639Y-94411625D01*
X96859869Y-94456729D01*
X96865769Y-94469295D01*
X96889164Y-94524278D01*
X96894204Y-94531764D01*
X96894206Y-94531768D01*
X96906351Y-94549808D01*
X96917624Y-94568869D01*
X96927585Y-94588209D01*
X96931718Y-94596233D01*
X96955459Y-94626456D01*
X96968634Y-94643229D01*
X96976801Y-94654450D01*
X97010170Y-94704015D01*
X97014006Y-94708246D01*
X97032560Y-94726800D01*
X97047585Y-94743739D01*
X97059992Y-94759533D01*
X97065563Y-94766625D01*
X97072368Y-94772530D01*
X97072369Y-94772531D01*
X97110817Y-94805894D01*
X97117665Y-94812137D01*
X97121604Y-94815908D01*
X97124555Y-94818795D01*
X97152360Y-94846600D01*
X97156511Y-94850028D01*
X97166875Y-94859246D01*
X97210040Y-94900567D01*
X97235898Y-94917263D01*
X97253766Y-94930341D01*
X97270544Y-94944197D01*
X97270548Y-94944199D01*
X97277499Y-94949940D01*
X97285412Y-94954263D01*
X97285416Y-94954266D01*
X97329932Y-94978587D01*
X97341869Y-94985689D01*
X97384484Y-95013206D01*
X97384497Y-95013213D01*
X97392066Y-95018100D01*
X97400424Y-95021469D01*
X97400431Y-95021472D01*
X97420620Y-95029608D01*
X97440631Y-95039067D01*
X97467644Y-95053825D01*
X97476236Y-95056575D01*
X97476235Y-95056575D01*
X97524549Y-95072041D01*
X97537611Y-95076757D01*
X97584665Y-95095720D01*
X97584672Y-95095722D01*
X97593034Y-95099092D01*
X97601880Y-95100819D01*
X97601885Y-95100821D01*
X97623231Y-95104989D01*
X97644689Y-95110498D01*
X97674003Y-95119882D01*
X97727786Y-95126343D01*
X97733330Y-95127009D01*
X97747046Y-95129169D01*
X97748552Y-95129463D01*
X97805691Y-95140621D01*
X97811395Y-95140900D01*
X97837635Y-95140900D01*
X97860235Y-95142253D01*
X97889131Y-95145724D01*
X97950587Y-95141373D01*
X97963970Y-95140900D01*
X116963828Y-95140900D01*
X116986430Y-95142253D01*
X117015332Y-95145725D01*
X117072419Y-95141683D01*
X117076798Y-95141373D01*
X117090182Y-95140900D01*
X134032635Y-95140900D01*
X134055237Y-95142253D01*
X134084131Y-95145724D01*
X134141106Y-95141690D01*
X134145583Y-95141373D01*
X134158967Y-95140900D01*
X142538979Y-95140900D01*
X142552856Y-95141409D01*
X142553974Y-95141491D01*
X142562860Y-95143002D01*
X142657125Y-95140945D01*
X142661259Y-95140900D01*
X142700536Y-95140900D01*
X142705887Y-95140389D01*
X142719732Y-95139579D01*
X142756524Y-95138776D01*
X142770461Y-95138472D01*
X142770463Y-95138472D01*
X142779482Y-95138275D01*
X142809574Y-95131797D01*
X142831451Y-95128410D01*
X142853113Y-95126343D01*
X142862095Y-95125486D01*
X142919432Y-95108665D01*
X142932890Y-95105247D01*
X142939471Y-95103830D01*
X142991303Y-95092671D01*
X143019622Y-95080621D01*
X143040473Y-95073155D01*
X143061352Y-95067030D01*
X143061354Y-95067029D01*
X143070006Y-95064491D01*
X143123129Y-95037131D01*
X143135695Y-95031231D01*
X143190678Y-95007836D01*
X143198164Y-95002796D01*
X143198168Y-95002794D01*
X143216208Y-94990649D01*
X143235269Y-94979376D01*
X143254609Y-94969415D01*
X143254612Y-94969413D01*
X143262633Y-94965282D01*
X143293678Y-94940896D01*
X143309629Y-94928366D01*
X143320850Y-94920199D01*
X143370415Y-94886830D01*
X143374646Y-94882994D01*
X143393200Y-94864440D01*
X143410139Y-94849415D01*
X143425933Y-94837008D01*
X143425934Y-94837007D01*
X143433025Y-94831437D01*
X143445253Y-94817346D01*
X143472294Y-94786183D01*
X143478537Y-94779335D01*
X143482308Y-94775396D01*
X143485195Y-94772445D01*
X143513000Y-94744640D01*
X143516428Y-94740489D01*
X143525646Y-94730125D01*
X143546590Y-94708246D01*
X143566967Y-94686960D01*
X143583663Y-94661102D01*
X143596741Y-94643234D01*
X143610597Y-94626456D01*
X143610599Y-94626452D01*
X143616340Y-94619501D01*
X143620663Y-94611588D01*
X143620666Y-94611584D01*
X143644987Y-94567068D01*
X143652089Y-94555131D01*
X143679606Y-94512516D01*
X143679613Y-94512503D01*
X143684500Y-94504934D01*
X143687869Y-94496576D01*
X143687872Y-94496569D01*
X143696008Y-94476380D01*
X143705467Y-94456369D01*
X143720225Y-94429356D01*
X143738441Y-94372451D01*
X143743157Y-94359389D01*
X143762120Y-94312335D01*
X143762122Y-94312328D01*
X143765492Y-94303966D01*
X143767219Y-94295120D01*
X143767221Y-94295115D01*
X143771389Y-94273769D01*
X143776898Y-94252312D01*
X143783531Y-94231591D01*
X143786282Y-94222997D01*
X143793409Y-94163670D01*
X143795569Y-94149954D01*
X143805714Y-94098001D01*
X143807021Y-94091309D01*
X143807300Y-94085605D01*
X143807300Y-94059365D01*
X143808653Y-94036764D01*
X143811048Y-94016823D01*
X143812124Y-94007869D01*
X143807773Y-93946413D01*
X143807300Y-93933030D01*
X143807300Y-75113621D01*
X143807809Y-75099744D01*
X143807891Y-75098626D01*
X143809402Y-75089740D01*
X143807345Y-74995474D01*
X143807300Y-74991340D01*
X143807300Y-74952064D01*
X143806790Y-74946716D01*
X143805978Y-74932855D01*
X143804872Y-74882138D01*
X143804872Y-74882136D01*
X143804675Y-74873117D01*
X143798197Y-74843025D01*
X143794810Y-74821149D01*
X143792743Y-74799484D01*
X143792742Y-74799481D01*
X143791886Y-74790505D01*
X143787609Y-74775926D01*
X143775065Y-74733167D01*
X143771646Y-74719706D01*
X143760970Y-74670119D01*
X143759071Y-74661297D01*
X143747018Y-74632972D01*
X143739554Y-74612123D01*
X143733433Y-74591257D01*
X143733431Y-74591251D01*
X143730891Y-74582594D01*
X143716800Y-74555234D01*
X143703531Y-74529471D01*
X143697629Y-74516900D01*
X143677766Y-74470219D01*
X143677765Y-74470218D01*
X143674235Y-74461921D01*
X143657047Y-74436390D01*
X143645777Y-74417333D01*
X143635810Y-74397982D01*
X143631682Y-74389967D01*
X143626116Y-74382880D01*
X143626112Y-74382875D01*
X143594773Y-74342978D01*
X143586602Y-74331752D01*
X143557044Y-74287848D01*
X143557034Y-74287835D01*
X143553230Y-74282185D01*
X143549394Y-74277954D01*
X143530840Y-74259400D01*
X143515815Y-74242461D01*
X143503408Y-74226667D01*
X143503407Y-74226666D01*
X143497837Y-74219575D01*
X143451308Y-74179199D01*
X143441510Y-74170070D01*
X143281265Y-74009825D01*
X143271810Y-73999649D01*
X143271095Y-73998820D01*
X143265878Y-73991466D01*
X143197792Y-73926288D01*
X143194837Y-73923397D01*
X143167040Y-73895600D01*
X143162889Y-73892172D01*
X143152525Y-73882954D01*
X143140925Y-73871849D01*
X143109360Y-73841633D01*
X143083502Y-73824937D01*
X143065634Y-73811859D01*
X143048856Y-73798003D01*
X143048852Y-73798001D01*
X143041901Y-73792260D01*
X143033988Y-73787937D01*
X143033984Y-73787934D01*
X142989468Y-73763613D01*
X142977531Y-73756511D01*
X142934916Y-73728994D01*
X142934903Y-73728987D01*
X142927334Y-73724100D01*
X142918976Y-73720731D01*
X142918969Y-73720728D01*
X142898780Y-73712592D01*
X142878769Y-73703133D01*
X142851756Y-73688375D01*
X142818436Y-73677709D01*
X142794851Y-73670159D01*
X142781789Y-73665443D01*
X142734735Y-73646480D01*
X142734728Y-73646478D01*
X142726366Y-73643108D01*
X142717520Y-73641381D01*
X142717515Y-73641379D01*
X142696169Y-73637211D01*
X142674712Y-73631702D01*
X142653983Y-73625066D01*
X142653978Y-73625065D01*
X142645397Y-73622318D01*
X142636451Y-73621243D01*
X142636449Y-73621243D01*
X142615206Y-73618692D01*
X142586052Y-73615190D01*
X142572348Y-73613031D01*
X142513709Y-73601579D01*
X142508005Y-73601300D01*
X142481764Y-73601300D01*
X142459163Y-73599947D01*
X142430268Y-73596476D01*
X142368813Y-73600827D01*
X142355430Y-73601300D01*
X141866093Y-73601300D01*
X141862854Y-73601272D01*
X141619555Y-73597113D01*
X140867602Y-73584259D01*
X140786344Y-73564245D01*
X140784230Y-73562765D01*
X140650340Y-73500331D01*
X140577565Y-73466395D01*
X140577563Y-73466394D01*
X140570063Y-73462897D01*
X140562073Y-73460756D01*
X140562070Y-73460755D01*
X140349800Y-73403878D01*
X140349795Y-73403877D01*
X140341808Y-73401737D01*
X140106400Y-73381141D01*
X139870992Y-73401737D01*
X139863005Y-73403877D01*
X139863000Y-73403878D01*
X139724920Y-73440876D01*
X139642737Y-73462897D01*
X139635238Y-73466394D01*
X139635235Y-73466395D01*
X139436070Y-73559268D01*
X139428571Y-73562765D01*
X139421796Y-73567509D01*
X139421794Y-73567510D01*
X139347896Y-73619254D01*
X139234999Y-73698305D01*
X139206898Y-73726406D01*
X139197955Y-73734788D01*
X139183623Y-73747376D01*
X139179227Y-73752519D01*
X139174868Y-73757618D01*
X139164820Y-73768484D01*
X139067905Y-73865399D01*
X139063157Y-73872179D01*
X139063156Y-73872181D01*
X138991629Y-73974332D01*
X138929097Y-74030919D01*
X138848205Y-74054771D01*
X138764974Y-74041163D01*
X138695891Y-73992790D01*
X138681171Y-73974332D01*
X138609644Y-73872181D01*
X138609643Y-73872179D01*
X138604895Y-73865399D01*
X138437801Y-73698305D01*
X138429794Y-73692698D01*
X138363787Y-73646480D01*
X138244230Y-73562765D01*
X138236738Y-73559271D01*
X138236732Y-73559268D01*
X138037565Y-73466395D01*
X138037563Y-73466394D01*
X138030063Y-73462897D01*
X138022073Y-73460756D01*
X138022070Y-73460755D01*
X137809800Y-73403878D01*
X137809795Y-73403877D01*
X137801808Y-73401737D01*
X137566400Y-73381141D01*
X137330992Y-73401737D01*
X137323005Y-73403877D01*
X137323000Y-73403878D01*
X137184920Y-73440876D01*
X137102737Y-73462897D01*
X137095238Y-73466394D01*
X137095235Y-73466395D01*
X136896070Y-73559268D01*
X136888571Y-73562765D01*
X136881794Y-73567510D01*
X136874629Y-73571647D01*
X136873964Y-73570495D01*
X136804366Y-73598817D01*
X136773788Y-73601300D01*
X133692264Y-73601300D01*
X133530705Y-73616714D01*
X133522047Y-73619254D01*
X133331451Y-73675169D01*
X133331448Y-73675170D01*
X133322794Y-73677709D01*
X133130167Y-73776918D01*
X132959775Y-73910763D01*
X132817767Y-74074412D01*
X132813249Y-74082221D01*
X132813248Y-74082223D01*
X132769243Y-74158289D01*
X132760107Y-74171745D01*
X132759633Y-74172240D01*
X132756958Y-74176383D01*
X132649389Y-74342978D01*
X132642100Y-74354266D01*
X132561108Y-74555234D01*
X132559380Y-74564083D01*
X132538673Y-74670119D01*
X132519579Y-74767891D01*
X132519300Y-74773595D01*
X132519300Y-78883200D01*
X132500534Y-78965421D01*
X132447951Y-79031357D01*
X132371968Y-79067949D01*
X132329800Y-79072700D01*
X129925179Y-79072700D01*
X129842958Y-79053934D01*
X129791182Y-79017197D01*
X129785444Y-79011459D01*
X129777346Y-79000654D01*
X129739322Y-78972156D01*
X129673425Y-78922769D01*
X129662624Y-78914674D01*
X129528380Y-78864349D01*
X129516577Y-78863067D01*
X129516574Y-78863066D01*
X129472270Y-78858253D01*
X129472265Y-78858253D01*
X129467177Y-78857700D01*
X128570063Y-78857700D01*
X127672424Y-78857701D01*
X127611220Y-78864349D01*
X127476976Y-78914674D01*
X127466175Y-78922769D01*
X127400279Y-78972156D01*
X127362254Y-79000654D01*
X127354156Y-79011459D01*
X127348418Y-79017197D01*
X127277009Y-79062066D01*
X127214421Y-79072700D01*
X121183422Y-79072700D01*
X121101201Y-79053934D01*
X121031785Y-78996850D01*
X121027447Y-78991062D01*
X121027444Y-78991059D01*
X121019346Y-78980254D01*
X120904624Y-78894274D01*
X120770380Y-78843949D01*
X120758577Y-78842667D01*
X120758574Y-78842666D01*
X120714270Y-78837853D01*
X120714265Y-78837853D01*
X120709177Y-78837300D01*
X119812063Y-78837300D01*
X118914424Y-78837301D01*
X118853220Y-78843949D01*
X118718976Y-78894274D01*
X118604254Y-78980254D01*
X118596156Y-78991059D01*
X118596153Y-78991062D01*
X118591815Y-78996850D01*
X118527487Y-79051388D01*
X118440178Y-79072700D01*
X112820979Y-79072700D01*
X112738758Y-79053934D01*
X112686982Y-79017197D01*
X112681244Y-79011459D01*
X112673146Y-79000654D01*
X112635122Y-78972156D01*
X112569225Y-78922769D01*
X112558424Y-78914674D01*
X112424180Y-78864349D01*
X112412377Y-78863067D01*
X112412374Y-78863066D01*
X112368070Y-78858253D01*
X112368065Y-78858253D01*
X112362977Y-78857700D01*
X111465863Y-78857700D01*
X110568224Y-78857701D01*
X110507020Y-78864349D01*
X110372776Y-78914674D01*
X110361975Y-78922769D01*
X110296079Y-78972156D01*
X110258054Y-79000654D01*
X110249956Y-79011459D01*
X110244218Y-79017197D01*
X110172809Y-79062066D01*
X110110221Y-79072700D01*
X107801800Y-79072700D01*
X107719579Y-79053934D01*
X107653643Y-79001351D01*
X107617051Y-78925368D01*
X107612300Y-78883200D01*
X107612300Y-68508000D01*
X107631066Y-68425779D01*
X107683649Y-68359843D01*
X107759632Y-68323251D01*
X107801800Y-68318500D01*
X133677035Y-68318500D01*
X133699635Y-68319853D01*
X133728531Y-68323324D01*
X133817914Y-68316996D01*
X133935673Y-68308659D01*
X133935678Y-68308658D01*
X133944664Y-68308022D01*
X134154004Y-68252125D01*
X134348997Y-68157651D01*
X134356223Y-68152255D01*
X134356228Y-68152252D01*
X134515383Y-68033404D01*
X134522608Y-68028009D01*
X134668572Y-67867878D01*
X134673274Y-67860190D01*
X134673277Y-67860186D01*
X134760870Y-67716967D01*
X134781623Y-67683035D01*
X134857681Y-67480148D01*
X134894002Y-67266540D01*
X134889275Y-67049917D01*
X134886145Y-67035379D01*
X134881900Y-66995494D01*
X134881900Y-61387774D01*
X134900666Y-61305553D01*
X134953249Y-61239617D01*
X135029232Y-61203025D01*
X135113568Y-61203025D01*
X135147934Y-61214986D01*
X135147976Y-61214879D01*
X135150715Y-61215954D01*
X135153053Y-61216768D01*
X135154278Y-61217353D01*
X135154286Y-61217356D01*
X135160388Y-61220270D01*
X135166841Y-61222285D01*
X135166848Y-61222288D01*
X135221700Y-61239418D01*
X135221703Y-61239419D01*
X135228156Y-61241434D01*
X135270697Y-61248295D01*
X135363525Y-61263266D01*
X135363532Y-61263267D01*
X135370206Y-61264343D01*
X135376973Y-61264459D01*
X135376977Y-61264459D01*
X136651189Y-61286240D01*
X136733077Y-61306409D01*
X136798105Y-61360110D01*
X136833393Y-61436708D01*
X136831951Y-61521031D01*
X136794066Y-61596378D01*
X136756643Y-61630941D01*
X136701781Y-61669356D01*
X136694999Y-61674105D01*
X136527905Y-61841199D01*
X136392365Y-62034771D01*
X136388869Y-62042269D01*
X136388868Y-62042270D01*
X136309838Y-62211750D01*
X136292497Y-62248937D01*
X136290355Y-62256932D01*
X136241659Y-62438670D01*
X136231337Y-62477192D01*
X136210741Y-62712600D01*
X136231337Y-62948008D01*
X136292497Y-63176263D01*
X136295994Y-63183762D01*
X136295995Y-63183765D01*
X136388868Y-63382930D01*
X136392365Y-63390429D01*
X136527905Y-63584001D01*
X136694999Y-63751095D01*
X136888570Y-63886635D01*
X136896062Y-63890129D01*
X136896068Y-63890132D01*
X137095235Y-63983005D01*
X137095237Y-63983006D01*
X137102737Y-63986503D01*
X137110727Y-63988644D01*
X137110730Y-63988645D01*
X137323000Y-64045522D01*
X137323005Y-64045523D01*
X137330992Y-64047663D01*
X137566400Y-64068259D01*
X137801808Y-64047663D01*
X137809795Y-64045523D01*
X137809800Y-64045522D01*
X138022070Y-63988645D01*
X138022073Y-63988644D01*
X138030063Y-63986503D01*
X138037563Y-63983006D01*
X138037565Y-63983005D01*
X138236732Y-63890132D01*
X138236738Y-63890129D01*
X138244230Y-63886635D01*
X138437801Y-63751095D01*
X138604895Y-63584001D01*
X138618432Y-63564668D01*
X138681171Y-63475068D01*
X138743703Y-63418481D01*
X138824595Y-63394629D01*
X138907826Y-63408237D01*
X138976909Y-63456610D01*
X138991629Y-63475068D01*
X139054368Y-63564668D01*
X139067905Y-63584001D01*
X139234999Y-63751095D01*
X139428570Y-63886635D01*
X139436062Y-63890129D01*
X139436068Y-63890132D01*
X139635235Y-63983005D01*
X139635237Y-63983006D01*
X139642737Y-63986503D01*
X139650727Y-63988644D01*
X139650730Y-63988645D01*
X139863000Y-64045522D01*
X139863005Y-64045523D01*
X139870992Y-64047663D01*
X140106400Y-64068259D01*
X140341808Y-64047663D01*
X140349795Y-64045523D01*
X140349800Y-64045522D01*
X140562070Y-63988645D01*
X140562073Y-63988644D01*
X140570063Y-63986503D01*
X140577563Y-63983006D01*
X140577565Y-63983005D01*
X140776732Y-63890132D01*
X140776738Y-63890129D01*
X140784230Y-63886635D01*
X140977801Y-63751095D01*
X141144895Y-63584001D01*
X141280435Y-63390429D01*
X141283932Y-63382930D01*
X141376805Y-63183765D01*
X141376806Y-63183762D01*
X141380303Y-63176263D01*
X141441463Y-62948008D01*
X141462059Y-62712600D01*
X141441463Y-62477192D01*
X141431142Y-62438670D01*
X141382445Y-62256932D01*
X141380303Y-62248937D01*
X141362963Y-62211750D01*
X141283932Y-62042270D01*
X141283931Y-62042269D01*
X141280435Y-62034771D01*
X141144895Y-61841199D01*
X140977801Y-61674105D01*
X140931296Y-61641542D01*
X140874709Y-61579010D01*
X140850857Y-61498118D01*
X140864465Y-61414888D01*
X140912838Y-61345804D01*
X140986394Y-61304550D01*
X141043227Y-61296841D01*
X142297819Y-61318287D01*
X142303158Y-61317773D01*
X142303160Y-61317773D01*
X142406014Y-61307873D01*
X142406021Y-61307872D01*
X142411350Y-61307359D01*
X142416582Y-61306249D01*
X142416590Y-61306248D01*
X142461384Y-61296746D01*
X142461385Y-61296746D01*
X142466612Y-61295637D01*
X142471674Y-61293948D01*
X142471681Y-61293946D01*
X142563282Y-61263380D01*
X142563284Y-61263379D01*
X142574792Y-61259539D01*
X142584955Y-61252911D01*
X142584959Y-61252909D01*
X142689630Y-61184645D01*
X142695308Y-61180942D01*
X142748651Y-61134090D01*
X142842144Y-61024717D01*
X142901034Y-60893441D01*
X142913351Y-60850429D01*
X142918718Y-60831684D01*
X142918719Y-60831679D01*
X142920578Y-60825187D01*
X142940097Y-60682640D01*
X142928211Y-58911638D01*
X142946425Y-58829293D01*
X142998564Y-58763005D01*
X143043812Y-58737945D01*
X143043164Y-58736520D01*
X143232196Y-58650573D01*
X143232198Y-58650572D01*
X143240408Y-58646839D01*
X143417134Y-58521478D01*
X143464461Y-58472040D01*
X143560734Y-58371471D01*
X143566967Y-58364960D01*
X143598590Y-58315986D01*
X143679609Y-58190509D01*
X143679610Y-58190508D01*
X143684500Y-58182934D01*
X143765492Y-57981966D01*
X143791596Y-57848295D01*
X143805713Y-57776008D01*
X143805713Y-57776005D01*
X143807021Y-57769309D01*
X143807300Y-57763605D01*
X143807300Y-49383421D01*
X143807809Y-49369544D01*
X143807891Y-49368426D01*
X143809402Y-49359540D01*
X143807345Y-49265275D01*
X143807300Y-49261141D01*
X143807300Y-49196464D01*
X143806298Y-49185953D01*
X143806072Y-49183589D01*
X143805260Y-49169724D01*
X143804872Y-49151933D01*
X143804872Y-49151931D01*
X143804675Y-49142918D01*
X143802549Y-49133042D01*
X143799161Y-49111155D01*
X143792743Y-49043888D01*
X143791886Y-49034905D01*
X143773412Y-48971931D01*
X143733431Y-48835651D01*
X143733430Y-48835648D01*
X143730891Y-48826994D01*
X143631682Y-48634367D01*
X143497837Y-48463975D01*
X143334188Y-48321967D01*
X143146637Y-48213466D01*
X143138127Y-48210511D01*
X143138123Y-48210509D01*
X142950469Y-48145345D01*
X142950467Y-48145344D01*
X142941953Y-48142388D01*
X142933035Y-48141095D01*
X142933031Y-48141094D01*
X142768164Y-48117190D01*
X142767223Y-48117030D01*
X142766207Y-48116907D01*
X142763575Y-48116525D01*
X142757709Y-48115379D01*
X142757065Y-48115348D01*
X142754742Y-48114512D01*
X142754638Y-48115229D01*
X142736448Y-48112591D01*
X142736444Y-48112591D01*
X142727521Y-48111297D01*
X142718508Y-48111714D01*
X142718507Y-48111714D01*
X142710947Y-48112064D01*
X142692244Y-48111379D01*
X142692239Y-48111571D01*
X142683213Y-48111350D01*
X142674268Y-48110276D01*
X142665283Y-48110912D01*
X142665279Y-48110912D01*
X142612813Y-48114627D01*
X142599430Y-48115100D01*
X123780021Y-48115100D01*
X123766144Y-48114591D01*
X123765026Y-48114509D01*
X123756140Y-48112998D01*
X123662934Y-48115032D01*
X123661875Y-48115055D01*
X123657741Y-48115100D01*
X120147821Y-48115100D01*
X120133944Y-48114591D01*
X120132826Y-48114509D01*
X120123940Y-48112998D01*
X120030846Y-48115029D01*
X120029674Y-48115055D01*
X120025540Y-48115100D01*
X106762021Y-48115100D01*
X106748144Y-48114591D01*
X106747026Y-48114509D01*
X106738140Y-48112998D01*
X106645046Y-48115029D01*
X106643874Y-48115055D01*
X106639740Y-48115100D01*
X97837464Y-48115100D01*
X97675905Y-48130514D01*
X97667247Y-48133054D01*
X97476651Y-48188969D01*
X97476648Y-48188970D01*
X97467994Y-48191509D01*
X97275367Y-48290718D01*
X97104975Y-48424563D01*
X96962967Y-48588212D01*
X96958449Y-48596021D01*
X96958448Y-48596023D01*
X96913710Y-48673356D01*
X96854466Y-48775763D01*
X96851511Y-48784273D01*
X96851509Y-48784277D01*
X96833669Y-48835651D01*
X96783388Y-48980447D01*
X96782095Y-48989365D01*
X96782094Y-48989369D01*
X96758190Y-49154236D01*
X96758030Y-49155177D01*
X96757907Y-49156193D01*
X96757525Y-49158825D01*
X96756379Y-49164691D01*
X96756348Y-49165335D01*
X96755512Y-49167658D01*
X96756229Y-49167762D01*
X96755945Y-49169724D01*
X96752297Y-49194879D01*
X96752714Y-49203890D01*
X96752714Y-49203892D01*
X96755897Y-49272658D01*
X96756100Y-49281420D01*
X96756100Y-68653036D01*
X96754747Y-68675636D01*
X96751276Y-68704532D01*
X87139900Y-68704532D01*
X87139900Y-38713800D01*
X87158666Y-38631579D01*
X87211249Y-38565643D01*
X87287232Y-38529051D01*
X87329400Y-38524300D01*
X153259400Y-38524300D01*
X153341621Y-38543066D01*
G37*
%TD.AperFunction*%
%TA.AperFunction,Conductor*%
G36*
X101671426Y-85988837D02*
G01*
X101740509Y-86037210D01*
X101755229Y-86055668D01*
X101808436Y-86131655D01*
X101831505Y-86164601D01*
X101998599Y-86331695D01*
X102192170Y-86467235D01*
X102199662Y-86470729D01*
X102199668Y-86470732D01*
X102398835Y-86563605D01*
X102398837Y-86563606D01*
X102406337Y-86567103D01*
X102414327Y-86569244D01*
X102414330Y-86569245D01*
X102626600Y-86626122D01*
X102626605Y-86626123D01*
X102634592Y-86628263D01*
X102870000Y-86648859D01*
X103105408Y-86628263D01*
X103113395Y-86626123D01*
X103113400Y-86626122D01*
X103325670Y-86569245D01*
X103325673Y-86569244D01*
X103333663Y-86567103D01*
X103341163Y-86563606D01*
X103341165Y-86563605D01*
X103540325Y-86470735D01*
X103540328Y-86470733D01*
X103547830Y-86467235D01*
X103554610Y-86462488D01*
X103561775Y-86458351D01*
X103562440Y-86459504D01*
X103632035Y-86431183D01*
X103662613Y-86428700D01*
X106318579Y-86428700D01*
X106332456Y-86429209D01*
X106333574Y-86429291D01*
X106342460Y-86430802D01*
X106436725Y-86428745D01*
X106440859Y-86428700D01*
X112749539Y-86428700D01*
X112831760Y-86447466D01*
X112897696Y-86500049D01*
X112934288Y-86576032D01*
X112937110Y-86645166D01*
X112930900Y-86688357D01*
X112930900Y-87976897D01*
X112912134Y-88059118D01*
X112896606Y-88085623D01*
X112895806Y-88086765D01*
X112833262Y-88143339D01*
X112752364Y-88167173D01*
X112669137Y-88153548D01*
X112600064Y-88105160D01*
X112585371Y-88086732D01*
X112513844Y-87984581D01*
X112513843Y-87984579D01*
X112509095Y-87977799D01*
X112342001Y-87810705D01*
X112148430Y-87675165D01*
X112140938Y-87671671D01*
X112140932Y-87671668D01*
X111941765Y-87578795D01*
X111941763Y-87578794D01*
X111934263Y-87575297D01*
X111926273Y-87573156D01*
X111926270Y-87573155D01*
X111714000Y-87516278D01*
X111713995Y-87516277D01*
X111706008Y-87514137D01*
X111470600Y-87493541D01*
X111235192Y-87514137D01*
X111227205Y-87516277D01*
X111227200Y-87516278D01*
X111089120Y-87553276D01*
X111006937Y-87575297D01*
X110999438Y-87578794D01*
X110999435Y-87578795D01*
X110800270Y-87671668D01*
X110792771Y-87675165D01*
X110599199Y-87810705D01*
X110432105Y-87977799D01*
X110296565Y-88171371D01*
X110196697Y-88385537D01*
X110135537Y-88613792D01*
X110114941Y-88849200D01*
X110135537Y-89084608D01*
X110196697Y-89312863D01*
X110296565Y-89527029D01*
X110432105Y-89720601D01*
X110599199Y-89887695D01*
X110605973Y-89892438D01*
X110605974Y-89892439D01*
X110708132Y-89963971D01*
X110764719Y-90026504D01*
X110788571Y-90107396D01*
X110774963Y-90190626D01*
X110726590Y-90259710D01*
X110708132Y-90274429D01*
X110605981Y-90345956D01*
X110599199Y-90350705D01*
X110432105Y-90517799D01*
X110296565Y-90711371D01*
X110196697Y-90925537D01*
X110135537Y-91153792D01*
X110114941Y-91389200D01*
X110135537Y-91624608D01*
X110196697Y-91852863D01*
X110296565Y-92067029D01*
X110432105Y-92260601D01*
X110599199Y-92427695D01*
X110605973Y-92432438D01*
X110605974Y-92432439D01*
X110738409Y-92525171D01*
X110794996Y-92587703D01*
X110818848Y-92668596D01*
X110805240Y-92751826D01*
X110756867Y-92820909D01*
X110683310Y-92862163D01*
X110629716Y-92869900D01*
X99216600Y-92869900D01*
X99134379Y-92851134D01*
X99068443Y-92798551D01*
X99031851Y-92722568D01*
X99027100Y-92680400D01*
X99027100Y-86620551D01*
X99045866Y-86538330D01*
X99098449Y-86472394D01*
X99174432Y-86435802D01*
X99219838Y-86431079D01*
X99386298Y-86433924D01*
X99553274Y-86436778D01*
X99635162Y-86456946D01*
X99644785Y-86462138D01*
X99645388Y-86462486D01*
X99652170Y-86467235D01*
X99736526Y-86506571D01*
X99858835Y-86563605D01*
X99858837Y-86563606D01*
X99866337Y-86567103D01*
X99874327Y-86569244D01*
X99874330Y-86569245D01*
X100086600Y-86626122D01*
X100086605Y-86626123D01*
X100094592Y-86628263D01*
X100330000Y-86648859D01*
X100565408Y-86628263D01*
X100573395Y-86626123D01*
X100573400Y-86626122D01*
X100785670Y-86569245D01*
X100785673Y-86569244D01*
X100793663Y-86567103D01*
X100801163Y-86563606D01*
X100801165Y-86563605D01*
X101000332Y-86470732D01*
X101000338Y-86470729D01*
X101007830Y-86467235D01*
X101201401Y-86331695D01*
X101368495Y-86164601D01*
X101391564Y-86131655D01*
X101444771Y-86055668D01*
X101507303Y-85999081D01*
X101588195Y-85975229D01*
X101671426Y-85988837D01*
G37*
%TD.AperFunction*%
%TA.AperFunction,Conductor*%
G36*
X135061458Y-78279358D02*
G01*
X135128885Y-78311556D01*
X135128889Y-78311557D01*
X135134988Y-78314470D01*
X135141441Y-78316485D01*
X135141448Y-78316488D01*
X135196300Y-78333618D01*
X135196303Y-78333619D01*
X135202756Y-78335634D01*
X135245297Y-78342495D01*
X135338125Y-78357466D01*
X135338132Y-78357467D01*
X135344806Y-78358543D01*
X135351573Y-78358659D01*
X135351577Y-78358659D01*
X135957553Y-78369017D01*
X136664526Y-78381102D01*
X136746413Y-78401271D01*
X136811441Y-78454972D01*
X136846729Y-78531570D01*
X136845287Y-78615893D01*
X136807402Y-78691240D01*
X136769979Y-78725803D01*
X136701781Y-78773556D01*
X136694999Y-78778305D01*
X136527905Y-78945399D01*
X136451908Y-79053934D01*
X136427975Y-79088115D01*
X136392365Y-79138971D01*
X136388869Y-79146469D01*
X136388868Y-79146470D01*
X136387824Y-79148710D01*
X136292497Y-79353137D01*
X136290355Y-79361132D01*
X136241659Y-79542870D01*
X136231337Y-79581392D01*
X136210741Y-79816800D01*
X136231337Y-80052208D01*
X136292497Y-80280463D01*
X136295994Y-80287962D01*
X136295995Y-80287965D01*
X136388868Y-80487130D01*
X136392365Y-80494629D01*
X136397109Y-80501404D01*
X136397110Y-80501406D01*
X136434434Y-80554710D01*
X136527905Y-80688201D01*
X136694999Y-80855295D01*
X136888570Y-80990835D01*
X136896062Y-80994329D01*
X136896068Y-80994332D01*
X137095235Y-81087205D01*
X137095237Y-81087206D01*
X137102737Y-81090703D01*
X137110727Y-81092844D01*
X137110730Y-81092845D01*
X137323000Y-81149722D01*
X137323005Y-81149723D01*
X137330992Y-81151863D01*
X137566400Y-81172459D01*
X137801808Y-81151863D01*
X137809795Y-81149723D01*
X137809800Y-81149722D01*
X138022070Y-81092845D01*
X138022073Y-81092844D01*
X138030063Y-81090703D01*
X138037563Y-81087206D01*
X138037565Y-81087205D01*
X138236732Y-80994332D01*
X138236738Y-80994329D01*
X138244230Y-80990835D01*
X138437801Y-80855295D01*
X138604895Y-80688201D01*
X138651571Y-80621541D01*
X138681171Y-80579268D01*
X138743703Y-80522681D01*
X138824595Y-80498829D01*
X138907826Y-80512437D01*
X138976909Y-80560810D01*
X138991629Y-80579268D01*
X139021229Y-80621541D01*
X139067905Y-80688201D01*
X139234999Y-80855295D01*
X139428570Y-80990835D01*
X139436062Y-80994329D01*
X139436068Y-80994332D01*
X139635235Y-81087205D01*
X139635237Y-81087206D01*
X139642737Y-81090703D01*
X139650727Y-81092844D01*
X139650730Y-81092845D01*
X139863000Y-81149722D01*
X139863005Y-81149723D01*
X139870992Y-81151863D01*
X140106400Y-81172459D01*
X140341808Y-81151863D01*
X140349795Y-81149723D01*
X140349800Y-81149722D01*
X140562070Y-81092845D01*
X140562073Y-81092844D01*
X140570063Y-81090703D01*
X140577563Y-81087206D01*
X140577565Y-81087205D01*
X140776732Y-80994332D01*
X140776738Y-80994329D01*
X140784230Y-80990835D01*
X140977801Y-80855295D01*
X141144895Y-80688201D01*
X141191571Y-80621541D01*
X141254103Y-80564954D01*
X141334995Y-80541102D01*
X141418226Y-80554710D01*
X141487309Y-80603083D01*
X141528563Y-80676639D01*
X141536300Y-80730234D01*
X141536300Y-92680400D01*
X141517534Y-92762621D01*
X141464951Y-92828557D01*
X141388968Y-92865149D01*
X141346800Y-92869900D01*
X134979800Y-92869900D01*
X134897579Y-92851134D01*
X134831643Y-92798551D01*
X134795051Y-92722568D01*
X134790300Y-92680400D01*
X134790300Y-92563920D01*
X134790328Y-92560681D01*
X134795237Y-92273500D01*
X134797036Y-92168249D01*
X134817205Y-92086362D01*
X134822397Y-92076738D01*
X134824090Y-92073806D01*
X134828835Y-92067029D01*
X134928703Y-91852863D01*
X134989863Y-91624608D01*
X135010459Y-91389200D01*
X134989863Y-91153792D01*
X134928703Y-90925537D01*
X134828835Y-90711371D01*
X134693295Y-90517799D01*
X134526201Y-90350705D01*
X134417268Y-90274429D01*
X134360681Y-90211896D01*
X134336829Y-90131004D01*
X134350437Y-90047774D01*
X134398810Y-89978690D01*
X134417268Y-89963971D01*
X134519426Y-89892439D01*
X134519427Y-89892438D01*
X134526201Y-89887695D01*
X134693295Y-89720601D01*
X134828835Y-89527029D01*
X134928703Y-89312863D01*
X134989863Y-89084608D01*
X135010459Y-88849200D01*
X134989863Y-88613792D01*
X134928703Y-88385537D01*
X134828835Y-88171371D01*
X134824090Y-88164594D01*
X134819953Y-88157429D01*
X134821105Y-88156764D01*
X134792783Y-88087166D01*
X134790300Y-88056588D01*
X134790300Y-87788745D01*
X134790328Y-87785506D01*
X134809197Y-86681662D01*
X134810330Y-86615399D01*
X134799402Y-86501868D01*
X134797435Y-86492591D01*
X134794425Y-86478405D01*
X134790300Y-86439083D01*
X134790300Y-79759165D01*
X134791653Y-79736563D01*
X134794048Y-79716622D01*
X134795124Y-79707669D01*
X134790773Y-79646217D01*
X134790300Y-79632833D01*
X134790300Y-78450362D01*
X134809066Y-78368141D01*
X134861649Y-78302205D01*
X134937632Y-78265613D01*
X135021968Y-78265613D01*
X135061458Y-78279358D01*
G37*
%TD.AperFunction*%
%TA.AperFunction,Conductor*%
G36*
X110192442Y-81362466D02*
G01*
X110244218Y-81399203D01*
X110249956Y-81404941D01*
X110258054Y-81415746D01*
X110372776Y-81501726D01*
X110507020Y-81552051D01*
X110518823Y-81553333D01*
X110518826Y-81553334D01*
X110563130Y-81558147D01*
X110563135Y-81558147D01*
X110568223Y-81558700D01*
X111465337Y-81558700D01*
X112362976Y-81558699D01*
X112424180Y-81552051D01*
X112441853Y-81545426D01*
X112519899Y-81516168D01*
X112558424Y-81501726D01*
X112673146Y-81415746D01*
X112681244Y-81404941D01*
X112686982Y-81399203D01*
X112758391Y-81354334D01*
X112820979Y-81343700D01*
X118476821Y-81343700D01*
X118559042Y-81362466D01*
X118602973Y-81393637D01*
X118604254Y-81395346D01*
X118615059Y-81403444D01*
X118662827Y-81439244D01*
X118718976Y-81481326D01*
X118853220Y-81531651D01*
X118865023Y-81532933D01*
X118865026Y-81532934D01*
X118909330Y-81537747D01*
X118909335Y-81537747D01*
X118914423Y-81538300D01*
X119811537Y-81538300D01*
X120709176Y-81538299D01*
X120770380Y-81531651D01*
X120904624Y-81481326D01*
X120960773Y-81439244D01*
X121008541Y-81403444D01*
X121019346Y-81395346D01*
X121019725Y-81394841D01*
X121084191Y-81354334D01*
X121146779Y-81343700D01*
X127214421Y-81343700D01*
X127296642Y-81362466D01*
X127348418Y-81399203D01*
X127354156Y-81404941D01*
X127362254Y-81415746D01*
X127476976Y-81501726D01*
X127611220Y-81552051D01*
X127623023Y-81553333D01*
X127623026Y-81553334D01*
X127667330Y-81558147D01*
X127667335Y-81558147D01*
X127672423Y-81558700D01*
X128569537Y-81558700D01*
X129467176Y-81558699D01*
X129528380Y-81552051D01*
X129546053Y-81545426D01*
X129624099Y-81516168D01*
X129662624Y-81501726D01*
X129777346Y-81415746D01*
X129785444Y-81404941D01*
X129791182Y-81399203D01*
X129862591Y-81354334D01*
X129925179Y-81343700D01*
X132329800Y-81343700D01*
X132412021Y-81362466D01*
X132477957Y-81415049D01*
X132514549Y-81491032D01*
X132519300Y-81533200D01*
X132519300Y-85795998D01*
X132500534Y-85878219D01*
X132447951Y-85944155D01*
X132371968Y-85980747D01*
X132331072Y-85985494D01*
X131694188Y-85989769D01*
X130644270Y-85996815D01*
X130538558Y-86008719D01*
X130487062Y-86020102D01*
X130454959Y-86030847D01*
X130397343Y-86050130D01*
X130397340Y-86050132D01*
X130386176Y-86053868D01*
X130265136Y-86131655D01*
X130211480Y-86178148D01*
X130207053Y-86183257D01*
X130207048Y-86183262D01*
X130126134Y-86276642D01*
X130117257Y-86286887D01*
X130057487Y-86417765D01*
X130055583Y-86424250D01*
X130055581Y-86424255D01*
X130044355Y-86462490D01*
X130037485Y-86485886D01*
X130036521Y-86492591D01*
X130018093Y-86620765D01*
X130017009Y-86628301D01*
X130017009Y-87953345D01*
X129998243Y-88035566D01*
X129945660Y-88101502D01*
X129869677Y-88138094D01*
X129785341Y-88138094D01*
X129709358Y-88101502D01*
X129672280Y-88062038D01*
X129618044Y-87984581D01*
X129618043Y-87984579D01*
X129613295Y-87977799D01*
X129446201Y-87810705D01*
X129252630Y-87675165D01*
X129245138Y-87671671D01*
X129245132Y-87671668D01*
X129045965Y-87578795D01*
X129045963Y-87578794D01*
X129038463Y-87575297D01*
X129030473Y-87573156D01*
X129030470Y-87573155D01*
X128818200Y-87516278D01*
X128818195Y-87516277D01*
X128810208Y-87514137D01*
X128574800Y-87493541D01*
X128339392Y-87514137D01*
X128331405Y-87516277D01*
X128331400Y-87516278D01*
X128193320Y-87553276D01*
X128111137Y-87575297D01*
X128103638Y-87578794D01*
X128103635Y-87578795D01*
X127904470Y-87671668D01*
X127896971Y-87675165D01*
X127703399Y-87810705D01*
X127536305Y-87977799D01*
X127400765Y-88171371D01*
X127300897Y-88385537D01*
X127239737Y-88613792D01*
X127219141Y-88849200D01*
X127239737Y-89084608D01*
X127300897Y-89312863D01*
X127400765Y-89527029D01*
X127536305Y-89720601D01*
X127703399Y-89887695D01*
X127710173Y-89892438D01*
X127710174Y-89892439D01*
X127812332Y-89963971D01*
X127868919Y-90026504D01*
X127892771Y-90107396D01*
X127879163Y-90190626D01*
X127830790Y-90259710D01*
X127812332Y-90274429D01*
X127710181Y-90345956D01*
X127703399Y-90350705D01*
X127536305Y-90517799D01*
X127400765Y-90711371D01*
X127300897Y-90925537D01*
X127239737Y-91153792D01*
X127219141Y-91389200D01*
X127239737Y-91624608D01*
X127300897Y-91852863D01*
X127400765Y-92067029D01*
X127536305Y-92260601D01*
X127703399Y-92427695D01*
X127710173Y-92432438D01*
X127710174Y-92432439D01*
X127842609Y-92525171D01*
X127899196Y-92587703D01*
X127923048Y-92668596D01*
X127909440Y-92751826D01*
X127861067Y-92820909D01*
X127787510Y-92862163D01*
X127733916Y-92869900D01*
X117875600Y-92869900D01*
X117793379Y-92851134D01*
X117727443Y-92798551D01*
X117690851Y-92722568D01*
X117686100Y-92680400D01*
X117686100Y-92181812D01*
X117704866Y-92099591D01*
X117715767Y-92080979D01*
X117715753Y-92080971D01*
X117719890Y-92073806D01*
X117724635Y-92067029D01*
X117824503Y-91852863D01*
X117885663Y-91624608D01*
X117906259Y-91389200D01*
X117885663Y-91153792D01*
X117824503Y-90925537D01*
X117724635Y-90711371D01*
X117589095Y-90517799D01*
X117510194Y-90438898D01*
X117501812Y-90429955D01*
X117501521Y-90429624D01*
X117489224Y-90415623D01*
X117478982Y-90406868D01*
X117468116Y-90396820D01*
X117422001Y-90350705D01*
X117313068Y-90274429D01*
X117256481Y-90211896D01*
X117232629Y-90131004D01*
X117246237Y-90047774D01*
X117294610Y-89978690D01*
X117313068Y-89963971D01*
X117415226Y-89892439D01*
X117415227Y-89892438D01*
X117422001Y-89887695D01*
X117427849Y-89881847D01*
X117429558Y-89880413D01*
X117438678Y-89872067D01*
X117470417Y-89845500D01*
X117475613Y-89841151D01*
X117533639Y-89776453D01*
X117540715Y-89768981D01*
X117589095Y-89720601D01*
X117724635Y-89527029D01*
X117824503Y-89312863D01*
X117885663Y-89084608D01*
X117906259Y-88849200D01*
X117885663Y-88613792D01*
X117824503Y-88385537D01*
X117728132Y-88178870D01*
X117728131Y-88178867D01*
X117728128Y-88178862D01*
X117724635Y-88171371D01*
X117724651Y-88171363D01*
X117700773Y-88093947D01*
X117700271Y-88076549D01*
X117714056Y-87270129D01*
X117724221Y-86675455D01*
X117719679Y-86628263D01*
X117713807Y-86567260D01*
X117713806Y-86567253D01*
X117713293Y-86561924D01*
X117708289Y-86538330D01*
X117701571Y-86506662D01*
X117702001Y-86506571D01*
X117696100Y-86462388D01*
X117696100Y-85315264D01*
X117680686Y-85153705D01*
X117619888Y-84946465D01*
X117617506Y-84937545D01*
X117615833Y-84930604D01*
X117613720Y-84921836D01*
X117524039Y-84724592D01*
X117398678Y-84547866D01*
X117242160Y-84398033D01*
X117234592Y-84393146D01*
X117234589Y-84393144D01*
X117067709Y-84285391D01*
X117067708Y-84285390D01*
X117060134Y-84280500D01*
X116859166Y-84199508D01*
X116794300Y-84186841D01*
X116653208Y-84159287D01*
X116653205Y-84159287D01*
X116646509Y-84157979D01*
X116640805Y-84157700D01*
X107801800Y-84157700D01*
X107719579Y-84138934D01*
X107653643Y-84086351D01*
X107617051Y-84010368D01*
X107612300Y-83968200D01*
X107612300Y-81533200D01*
X107631066Y-81450979D01*
X107683649Y-81385043D01*
X107759632Y-81348451D01*
X107801800Y-81343700D01*
X110110221Y-81343700D01*
X110192442Y-81362466D01*
G37*
%TD.AperFunction*%
%TA.AperFunction,Conductor*%
G36*
X101671426Y-68884637D02*
G01*
X101740509Y-68933010D01*
X101755229Y-68951468D01*
X101826756Y-69053619D01*
X101831505Y-69060401D01*
X101998599Y-69227495D01*
X102192170Y-69363035D01*
X102199662Y-69366529D01*
X102199668Y-69366532D01*
X102398835Y-69459405D01*
X102398837Y-69459406D01*
X102406337Y-69462903D01*
X102414327Y-69465044D01*
X102414330Y-69465045D01*
X102626600Y-69521922D01*
X102626605Y-69521923D01*
X102634592Y-69524063D01*
X102870000Y-69544659D01*
X103105408Y-69524063D01*
X103113395Y-69521923D01*
X103113400Y-69521922D01*
X103262208Y-69482049D01*
X103333663Y-69462903D01*
X103341169Y-69459403D01*
X103407538Y-69428455D01*
X103487624Y-69410700D01*
X105151800Y-69410700D01*
X105234021Y-69429466D01*
X105299957Y-69482049D01*
X105336549Y-69558032D01*
X105341300Y-69600200D01*
X105341300Y-80794236D01*
X105339947Y-80816836D01*
X105336476Y-80845732D01*
X105337113Y-80854725D01*
X105340827Y-80907187D01*
X105341300Y-80920570D01*
X105341300Y-82032800D01*
X105322534Y-82115021D01*
X105269951Y-82180957D01*
X105193968Y-82217549D01*
X105151800Y-82222300D01*
X104233274Y-82222300D01*
X104151053Y-82203534D01*
X104085117Y-82150951D01*
X104061529Y-82112886D01*
X104047534Y-82082874D01*
X104047533Y-82082872D01*
X104044035Y-82075371D01*
X103908495Y-81881799D01*
X103741401Y-81714705D01*
X103632468Y-81638429D01*
X103575881Y-81575896D01*
X103552029Y-81495004D01*
X103565637Y-81411774D01*
X103614010Y-81342690D01*
X103632468Y-81327971D01*
X103734626Y-81256439D01*
X103734627Y-81256438D01*
X103741401Y-81251695D01*
X103908495Y-81084601D01*
X104044035Y-80891029D01*
X104063424Y-80849449D01*
X104140405Y-80684365D01*
X104140406Y-80684362D01*
X104143903Y-80676863D01*
X104174999Y-80560810D01*
X104202922Y-80456600D01*
X104202923Y-80456595D01*
X104205063Y-80448608D01*
X104225659Y-80213200D01*
X104205063Y-79977792D01*
X104143903Y-79749537D01*
X104128555Y-79716622D01*
X104047532Y-79542870D01*
X104047531Y-79542869D01*
X104044035Y-79535371D01*
X103908495Y-79341799D01*
X103741401Y-79174705D01*
X103547830Y-79039165D01*
X103540338Y-79035671D01*
X103540332Y-79035668D01*
X103341165Y-78942795D01*
X103341163Y-78942794D01*
X103333663Y-78939297D01*
X103325673Y-78937156D01*
X103325670Y-78937155D01*
X103113400Y-78880278D01*
X103113395Y-78880277D01*
X103105408Y-78878137D01*
X102870000Y-78857541D01*
X102634592Y-78878137D01*
X102626605Y-78880277D01*
X102626600Y-78880278D01*
X102515911Y-78909937D01*
X102406337Y-78939297D01*
X102398838Y-78942794D01*
X102398835Y-78942795D01*
X102239281Y-79017197D01*
X102192171Y-79039165D01*
X102185396Y-79043909D01*
X102185394Y-79043910D01*
X102170510Y-79054332D01*
X101998599Y-79174705D01*
X101831505Y-79341799D01*
X101826757Y-79348579D01*
X101826756Y-79348581D01*
X101755229Y-79450732D01*
X101692697Y-79507319D01*
X101611805Y-79531171D01*
X101528574Y-79517563D01*
X101459491Y-79469190D01*
X101444771Y-79450732D01*
X101373244Y-79348581D01*
X101373243Y-79348579D01*
X101368495Y-79341799D01*
X101201401Y-79174705D01*
X101007830Y-79039165D01*
X101000338Y-79035671D01*
X101000332Y-79035668D01*
X100801165Y-78942795D01*
X100801163Y-78942794D01*
X100793663Y-78939297D01*
X100785673Y-78937156D01*
X100785670Y-78937155D01*
X100573400Y-78880278D01*
X100573395Y-78880277D01*
X100565408Y-78878137D01*
X100330000Y-78857541D01*
X100094592Y-78878137D01*
X100086605Y-78880277D01*
X100086600Y-78880278D01*
X99975911Y-78909937D01*
X99866337Y-78939297D01*
X99858838Y-78942794D01*
X99858835Y-78942795D01*
X99699281Y-79017197D01*
X99652171Y-79039165D01*
X99645396Y-79043909D01*
X99645394Y-79043910D01*
X99630510Y-79054332D01*
X99458599Y-79174705D01*
X99350597Y-79282707D01*
X99279188Y-79327576D01*
X99195383Y-79337018D01*
X99115780Y-79309164D01*
X99056146Y-79249530D01*
X99028292Y-79169927D01*
X99027100Y-79148710D01*
X99027100Y-69514000D01*
X99045866Y-69431779D01*
X99098449Y-69365843D01*
X99174432Y-69329251D01*
X99216600Y-69324500D01*
X99537387Y-69324500D01*
X99619608Y-69343266D01*
X99638217Y-69354165D01*
X99638225Y-69354151D01*
X99645390Y-69358288D01*
X99652170Y-69363035D01*
X99659672Y-69366533D01*
X99659675Y-69366535D01*
X99858835Y-69459405D01*
X99858837Y-69459406D01*
X99866337Y-69462903D01*
X99874327Y-69465044D01*
X99874330Y-69465045D01*
X100086600Y-69521922D01*
X100086605Y-69521923D01*
X100094592Y-69524063D01*
X100330000Y-69544659D01*
X100565408Y-69524063D01*
X100573395Y-69521923D01*
X100573400Y-69521922D01*
X100785670Y-69465045D01*
X100785673Y-69465044D01*
X100793663Y-69462903D01*
X100801163Y-69459406D01*
X100801165Y-69459405D01*
X101000332Y-69366532D01*
X101000338Y-69366529D01*
X101007830Y-69363035D01*
X101201401Y-69227495D01*
X101368495Y-69060401D01*
X101373244Y-69053619D01*
X101444771Y-68951468D01*
X101507303Y-68894881D01*
X101588195Y-68871029D01*
X101671426Y-68884637D01*
G37*
%TD.AperFunction*%
%TA.AperFunction,Conductor*%
G36*
X118569021Y-50404866D02*
G01*
X118634957Y-50457449D01*
X118671549Y-50533432D01*
X118676300Y-50575600D01*
X118676300Y-61728221D01*
X118657534Y-61810442D01*
X118620797Y-61862218D01*
X118615059Y-61867956D01*
X118604254Y-61876054D01*
X118596156Y-61886859D01*
X118596153Y-61886862D01*
X118591815Y-61892650D01*
X118527487Y-61947188D01*
X118440178Y-61968500D01*
X112820979Y-61968500D01*
X112738758Y-61949734D01*
X112686982Y-61912997D01*
X112681244Y-61907259D01*
X112673146Y-61896454D01*
X112558424Y-61810474D01*
X112424180Y-61760149D01*
X112412377Y-61758867D01*
X112412374Y-61758866D01*
X112368070Y-61754053D01*
X112368065Y-61754053D01*
X112362977Y-61753500D01*
X111465863Y-61753500D01*
X110568224Y-61753501D01*
X110507020Y-61760149D01*
X110372776Y-61810474D01*
X110258054Y-61896454D01*
X110172074Y-62011176D01*
X110121749Y-62145420D01*
X110120467Y-62157223D01*
X110120466Y-62157226D01*
X110118154Y-62178507D01*
X110115100Y-62206623D01*
X110115101Y-64001376D01*
X110121749Y-64062580D01*
X110172074Y-64196824D01*
X110258054Y-64311546D01*
X110372776Y-64397526D01*
X110507020Y-64447851D01*
X110518823Y-64449133D01*
X110518826Y-64449134D01*
X110563130Y-64453947D01*
X110563135Y-64453947D01*
X110568223Y-64454500D01*
X111465337Y-64454500D01*
X112362976Y-64454499D01*
X112424180Y-64447851D01*
X112558424Y-64397526D01*
X112673146Y-64311546D01*
X112681244Y-64300741D01*
X112686982Y-64295003D01*
X112758391Y-64250134D01*
X112820979Y-64239500D01*
X118476821Y-64239500D01*
X118559042Y-64258266D01*
X118602973Y-64289437D01*
X118604254Y-64291146D01*
X118615059Y-64299244D01*
X118662827Y-64335044D01*
X118718976Y-64377126D01*
X118853220Y-64427451D01*
X118865023Y-64428733D01*
X118865026Y-64428734D01*
X118909330Y-64433547D01*
X118909335Y-64433547D01*
X118914423Y-64434100D01*
X119811537Y-64434100D01*
X120709176Y-64434099D01*
X120770380Y-64427451D01*
X120904624Y-64377126D01*
X120960773Y-64335044D01*
X121008541Y-64299244D01*
X121019346Y-64291146D01*
X121019725Y-64290641D01*
X121084191Y-64250134D01*
X121146779Y-64239500D01*
X127214421Y-64239500D01*
X127296642Y-64258266D01*
X127348418Y-64295003D01*
X127354156Y-64300741D01*
X127362254Y-64311546D01*
X127476976Y-64397526D01*
X127611220Y-64447851D01*
X127623023Y-64449133D01*
X127623026Y-64449134D01*
X127667330Y-64453947D01*
X127667335Y-64453947D01*
X127672423Y-64454500D01*
X128569537Y-64454500D01*
X129467176Y-64454499D01*
X129528380Y-64447851D01*
X129662624Y-64397526D01*
X129777346Y-64311546D01*
X129863326Y-64196824D01*
X129913651Y-64062580D01*
X129914935Y-64050768D01*
X129919747Y-64006470D01*
X129919747Y-64006465D01*
X129920300Y-64001377D01*
X129920299Y-62206624D01*
X129913651Y-62145420D01*
X129863326Y-62011176D01*
X129777346Y-61896454D01*
X129662624Y-61810474D01*
X129528380Y-61760149D01*
X129516577Y-61758867D01*
X129516574Y-61758866D01*
X129472270Y-61754053D01*
X129472265Y-61754053D01*
X129467177Y-61753500D01*
X128570063Y-61753500D01*
X127672424Y-61753501D01*
X127611220Y-61760149D01*
X127476976Y-61810474D01*
X127362254Y-61896454D01*
X127354156Y-61907259D01*
X127348418Y-61912997D01*
X127277009Y-61957866D01*
X127214421Y-61968500D01*
X121183422Y-61968500D01*
X121101201Y-61949734D01*
X121031785Y-61892650D01*
X121027447Y-61886862D01*
X121027444Y-61886859D01*
X121019346Y-61876054D01*
X121008541Y-61867956D01*
X121002803Y-61862218D01*
X120957934Y-61790809D01*
X120947300Y-61728221D01*
X120947300Y-50575600D01*
X120966066Y-50493379D01*
X121018649Y-50427443D01*
X121094632Y-50390851D01*
X121136800Y-50386100D01*
X122248466Y-50386100D01*
X122330687Y-50404866D01*
X122396623Y-50457449D01*
X122433215Y-50533432D01*
X122437966Y-50575600D01*
X122437966Y-50704942D01*
X122419200Y-50787163D01*
X122412576Y-50799694D01*
X122411708Y-50801197D01*
X122406965Y-50807971D01*
X122307097Y-51022137D01*
X122245937Y-51250392D01*
X122225341Y-51485800D01*
X122245937Y-51721208D01*
X122307097Y-51949463D01*
X122406965Y-52163629D01*
X122542505Y-52357201D01*
X122578530Y-52393226D01*
X122587748Y-52403127D01*
X122619313Y-52439555D01*
X122624422Y-52443982D01*
X122624427Y-52443987D01*
X122655734Y-52471114D01*
X122665635Y-52480331D01*
X122709599Y-52524295D01*
X122716373Y-52529038D01*
X122716374Y-52529039D01*
X122818532Y-52600571D01*
X122875119Y-52663104D01*
X122898971Y-52743996D01*
X122885363Y-52827226D01*
X122836990Y-52896310D01*
X122818532Y-52911029D01*
X122818531Y-52911030D01*
X122709599Y-52987305D01*
X122542505Y-53154399D01*
X122406965Y-53347971D01*
X122307097Y-53562137D01*
X122245937Y-53790392D01*
X122225341Y-54025800D01*
X122245937Y-54261208D01*
X122307097Y-54489463D01*
X122310597Y-54496968D01*
X122310597Y-54496969D01*
X122392345Y-54672278D01*
X122410100Y-54752364D01*
X122410100Y-56089565D01*
X122410072Y-56092804D01*
X122407379Y-56250343D01*
X122407893Y-56255682D01*
X122407893Y-56255685D01*
X122409228Y-56269553D01*
X122410100Y-56287709D01*
X122410100Y-57536983D01*
X122408139Y-57564175D01*
X122406297Y-57576879D01*
X122406714Y-57585891D01*
X122406714Y-57585893D01*
X122409897Y-57654658D01*
X122410100Y-57663420D01*
X122410100Y-57686736D01*
X122410527Y-57691214D01*
X122410528Y-57691231D01*
X122412150Y-57708230D01*
X122412803Y-57717453D01*
X122416315Y-57793321D01*
X122418428Y-57802090D01*
X122418429Y-57802095D01*
X122419717Y-57807440D01*
X122424134Y-57833828D01*
X122425514Y-57848295D01*
X122428055Y-57856955D01*
X122428055Y-57856957D01*
X122446901Y-57921197D01*
X122449279Y-57930100D01*
X122467080Y-58003964D01*
X122473092Y-58017187D01*
X122482420Y-58042268D01*
X122486509Y-58056206D01*
X122521296Y-58123749D01*
X122525319Y-58132053D01*
X122551897Y-58190509D01*
X122556761Y-58201208D01*
X122561979Y-58208564D01*
X122565170Y-58213063D01*
X122579070Y-58235926D01*
X122585718Y-58248833D01*
X122591286Y-58255921D01*
X122591287Y-58255923D01*
X122632639Y-58308566D01*
X122638179Y-58315986D01*
X122682122Y-58377934D01*
X122688632Y-58384166D01*
X122688639Y-58384174D01*
X122692614Y-58387979D01*
X122710594Y-58407807D01*
X122719563Y-58419225D01*
X122726377Y-58425138D01*
X122726379Y-58425140D01*
X122776924Y-58469001D01*
X122783766Y-58475237D01*
X122820770Y-58510660D01*
X122838640Y-58527767D01*
X122846213Y-58532657D01*
X122846216Y-58532659D01*
X122850835Y-58535641D01*
X122872245Y-58551716D01*
X122876401Y-58555323D01*
X122876404Y-58555325D01*
X122883212Y-58561233D01*
X122948966Y-58599273D01*
X122956848Y-58604094D01*
X123013086Y-58640406D01*
X123013089Y-58640407D01*
X123020666Y-58645300D01*
X123029032Y-58648672D01*
X123029033Y-58648672D01*
X123034139Y-58650730D01*
X123058194Y-58662462D01*
X123070763Y-58669734D01*
X123142536Y-58694658D01*
X123151168Y-58697894D01*
X123221634Y-58726292D01*
X123235884Y-58729075D01*
X123261721Y-58736046D01*
X123275447Y-58740812D01*
X123310334Y-58745870D01*
X123350604Y-58751709D01*
X123359733Y-58753261D01*
X123427592Y-58766513D01*
X123427595Y-58766513D01*
X123434291Y-58767821D01*
X123439995Y-58768100D01*
X123449983Y-58768100D01*
X123477175Y-58770061D01*
X123480951Y-58770609D01*
X123480956Y-58770609D01*
X123489879Y-58771903D01*
X123498891Y-58771486D01*
X123498893Y-58771486D01*
X123567658Y-58768303D01*
X123576420Y-58768100D01*
X132421400Y-58768100D01*
X132503621Y-58786866D01*
X132569557Y-58839449D01*
X132606149Y-58915432D01*
X132610900Y-58957600D01*
X132610900Y-65858000D01*
X132592134Y-65940221D01*
X132539551Y-66006157D01*
X132463568Y-66042749D01*
X132421400Y-66047500D01*
X107801800Y-66047500D01*
X107719579Y-66028734D01*
X107653643Y-65976151D01*
X107617051Y-65900168D01*
X107612300Y-65858000D01*
X107612300Y-57044633D01*
X107631066Y-56962412D01*
X107683649Y-56896476D01*
X107759632Y-56859884D01*
X107800528Y-56855137D01*
X108504666Y-56850411D01*
X109530039Y-56843529D01*
X109635751Y-56831625D01*
X109687247Y-56820242D01*
X109719350Y-56809497D01*
X109776966Y-56790214D01*
X109776969Y-56790212D01*
X109788133Y-56786476D01*
X109909173Y-56708689D01*
X109962829Y-56662196D01*
X109967256Y-56657087D01*
X109967261Y-56657082D01*
X110048175Y-56563702D01*
X110048176Y-56563700D01*
X110057052Y-56553457D01*
X110116822Y-56422579D01*
X110136824Y-56354458D01*
X110147729Y-56278613D01*
X110156337Y-56218743D01*
X110156337Y-56218739D01*
X110157300Y-56212043D01*
X110157300Y-54982650D01*
X110176066Y-54900429D01*
X110228649Y-54834493D01*
X110304632Y-54797901D01*
X110388968Y-54797901D01*
X110464951Y-54834493D01*
X110502029Y-54873957D01*
X110518305Y-54897201D01*
X110685399Y-55064295D01*
X110878970Y-55199835D01*
X110886462Y-55203329D01*
X110886468Y-55203332D01*
X111085635Y-55296205D01*
X111085637Y-55296206D01*
X111093137Y-55299703D01*
X111101127Y-55301844D01*
X111101130Y-55301845D01*
X111313400Y-55358722D01*
X111313405Y-55358723D01*
X111321392Y-55360863D01*
X111556800Y-55381459D01*
X111792208Y-55360863D01*
X111800195Y-55358723D01*
X111800200Y-55358722D01*
X112012470Y-55301845D01*
X112012473Y-55301844D01*
X112020463Y-55299703D01*
X112027963Y-55296206D01*
X112027965Y-55296205D01*
X112227132Y-55203332D01*
X112227138Y-55203329D01*
X112234630Y-55199835D01*
X112428201Y-55064295D01*
X112595295Y-54897201D01*
X112730835Y-54703629D01*
X112830703Y-54489463D01*
X112891863Y-54261208D01*
X112912459Y-54025800D01*
X112891863Y-53790392D01*
X112830703Y-53562137D01*
X112730835Y-53347971D01*
X112595295Y-53154399D01*
X112428201Y-52987305D01*
X112319268Y-52911029D01*
X112262681Y-52848496D01*
X112238829Y-52767604D01*
X112252437Y-52684374D01*
X112300810Y-52615290D01*
X112319268Y-52600571D01*
X112421426Y-52529039D01*
X112421427Y-52529038D01*
X112428201Y-52524295D01*
X112595295Y-52357201D01*
X112730835Y-52163629D01*
X112830703Y-51949463D01*
X112891863Y-51721208D01*
X112912459Y-51485800D01*
X112891863Y-51250392D01*
X112830703Y-51022137D01*
X112730835Y-50807971D01*
X112644235Y-50684293D01*
X112612447Y-50606177D01*
X112617701Y-50522006D01*
X112658955Y-50448449D01*
X112728038Y-50400076D01*
X112799464Y-50386100D01*
X118486800Y-50386100D01*
X118569021Y-50404866D01*
G37*
%TD.AperFunction*%
%TA.AperFunction,Conductor*%
G36*
X105234021Y-50404866D02*
G01*
X105299957Y-50457449D01*
X105336549Y-50533432D01*
X105341300Y-50575600D01*
X105341300Y-50693188D01*
X105322534Y-50775409D01*
X105311633Y-50794021D01*
X105311647Y-50794029D01*
X105307510Y-50801194D01*
X105302765Y-50807971D01*
X105202897Y-51022137D01*
X105141737Y-51250392D01*
X105121141Y-51485800D01*
X105141737Y-51721208D01*
X105202897Y-51949463D01*
X105302765Y-52163629D01*
X105307509Y-52170404D01*
X105307510Y-52170406D01*
X105433558Y-52350421D01*
X105438305Y-52357201D01*
X105443502Y-52362398D01*
X105456261Y-52379605D01*
X105468458Y-52398308D01*
X105472920Y-52403388D01*
X105508579Y-52443987D01*
X105515310Y-52451651D01*
X105624683Y-52545144D01*
X105637051Y-52550692D01*
X105637477Y-52550883D01*
X105668608Y-52568554D01*
X105714333Y-52600571D01*
X105770920Y-52663103D01*
X105794772Y-52743996D01*
X105781164Y-52827226D01*
X105732791Y-52896309D01*
X105714336Y-52911027D01*
X105605399Y-52987305D01*
X105438305Y-53154399D01*
X105302765Y-53347971D01*
X105202897Y-53562137D01*
X105141737Y-53790392D01*
X105121141Y-54025800D01*
X105141737Y-54261208D01*
X105202897Y-54489463D01*
X105302765Y-54703629D01*
X105307510Y-54710406D01*
X105311647Y-54717571D01*
X105310495Y-54718236D01*
X105338817Y-54787834D01*
X105341300Y-54818412D01*
X105341300Y-64913200D01*
X105322534Y-64995421D01*
X105269951Y-65061357D01*
X105193968Y-65097949D01*
X105151800Y-65102700D01*
X104226092Y-65102700D01*
X104143871Y-65083934D01*
X104077935Y-65031351D01*
X104054346Y-64993284D01*
X104047534Y-64978674D01*
X104047532Y-64978671D01*
X104044035Y-64971171D01*
X103908495Y-64777599D01*
X103741401Y-64610505D01*
X103734619Y-64605756D01*
X103632468Y-64534229D01*
X103575881Y-64471696D01*
X103552029Y-64390804D01*
X103565637Y-64307574D01*
X103614010Y-64238490D01*
X103632468Y-64223771D01*
X103734626Y-64152239D01*
X103734627Y-64152238D01*
X103741401Y-64147495D01*
X103908495Y-63980401D01*
X104044035Y-63786829D01*
X104143903Y-63572663D01*
X104174999Y-63456610D01*
X104202922Y-63352400D01*
X104202923Y-63352395D01*
X104205063Y-63344408D01*
X104225659Y-63109000D01*
X104205063Y-62873592D01*
X104143903Y-62645337D01*
X104069339Y-62485434D01*
X104047532Y-62438670D01*
X104047531Y-62438669D01*
X104044035Y-62431171D01*
X103908495Y-62237599D01*
X103741401Y-62070505D01*
X103547830Y-61934965D01*
X103540338Y-61931471D01*
X103540332Y-61931468D01*
X103341165Y-61838595D01*
X103341163Y-61838594D01*
X103333663Y-61835097D01*
X103325673Y-61832956D01*
X103325670Y-61832955D01*
X103113400Y-61776078D01*
X103113395Y-61776077D01*
X103105408Y-61773937D01*
X102870000Y-61753341D01*
X102634592Y-61773937D01*
X102626605Y-61776077D01*
X102626600Y-61776078D01*
X102515911Y-61805737D01*
X102406337Y-61835097D01*
X102398838Y-61838594D01*
X102398835Y-61838595D01*
X102282915Y-61892650D01*
X102192171Y-61934965D01*
X102185396Y-61939709D01*
X102185394Y-61939710D01*
X102170510Y-61950132D01*
X101998599Y-62070505D01*
X101831505Y-62237599D01*
X101826757Y-62244379D01*
X101826756Y-62244381D01*
X101755229Y-62346532D01*
X101692697Y-62403119D01*
X101611805Y-62426971D01*
X101528574Y-62413363D01*
X101459491Y-62364990D01*
X101444771Y-62346532D01*
X101373244Y-62244381D01*
X101373243Y-62244379D01*
X101368495Y-62237599D01*
X101201401Y-62070505D01*
X101007830Y-61934965D01*
X101000338Y-61931471D01*
X101000332Y-61931468D01*
X100801165Y-61838595D01*
X100801163Y-61838594D01*
X100793663Y-61835097D01*
X100785673Y-61832956D01*
X100785670Y-61832955D01*
X100573400Y-61776078D01*
X100573395Y-61776077D01*
X100565408Y-61773937D01*
X100330000Y-61753341D01*
X100094592Y-61773937D01*
X100086605Y-61776077D01*
X100086600Y-61776078D01*
X99975911Y-61805737D01*
X99866337Y-61835097D01*
X99858838Y-61838594D01*
X99858835Y-61838595D01*
X99742915Y-61892650D01*
X99652171Y-61934965D01*
X99645396Y-61939709D01*
X99645394Y-61939710D01*
X99630510Y-61950132D01*
X99458599Y-62070505D01*
X99350597Y-62178507D01*
X99279188Y-62223376D01*
X99195383Y-62232818D01*
X99115780Y-62204964D01*
X99056146Y-62145330D01*
X99028292Y-62065727D01*
X99027100Y-62044510D01*
X99027100Y-50575600D01*
X99045866Y-50493379D01*
X99098449Y-50427443D01*
X99174432Y-50390851D01*
X99216600Y-50386100D01*
X105151800Y-50386100D01*
X105234021Y-50404866D01*
G37*
%TD.AperFunction*%
%TA.AperFunction,Conductor*%
G36*
X141429021Y-50404866D02*
G01*
X141494957Y-50457449D01*
X141531549Y-50533432D01*
X141536300Y-50575600D01*
X141536300Y-56307600D01*
X141517534Y-56389821D01*
X141464951Y-56455757D01*
X141388968Y-56492349D01*
X141346800Y-56497100D01*
X140899013Y-56497100D01*
X140816792Y-56478334D01*
X140798183Y-56467435D01*
X140798175Y-56467449D01*
X140791010Y-56463312D01*
X140784230Y-56458565D01*
X140776728Y-56455067D01*
X140776725Y-56455065D01*
X140577565Y-56362195D01*
X140577563Y-56362194D01*
X140570063Y-56358697D01*
X140562073Y-56356556D01*
X140562070Y-56356555D01*
X140349800Y-56299678D01*
X140349795Y-56299677D01*
X140341808Y-56297537D01*
X140106400Y-56276941D01*
X139870992Y-56297537D01*
X139863005Y-56299677D01*
X139863000Y-56299678D01*
X139724920Y-56336676D01*
X139642737Y-56358697D01*
X139635238Y-56362194D01*
X139635235Y-56362195D01*
X139436070Y-56455068D01*
X139428571Y-56458565D01*
X139421796Y-56463309D01*
X139421794Y-56463310D01*
X139373537Y-56497100D01*
X139234999Y-56594105D01*
X139067905Y-56761199D01*
X139063157Y-56767979D01*
X139063156Y-56767981D01*
X138991629Y-56870132D01*
X138929097Y-56926719D01*
X138848205Y-56950571D01*
X138764974Y-56936963D01*
X138695891Y-56888590D01*
X138681171Y-56870132D01*
X138609644Y-56767981D01*
X138609643Y-56767979D01*
X138604895Y-56761199D01*
X138437801Y-56594105D01*
X138244230Y-56458565D01*
X138236738Y-56455071D01*
X138236732Y-56455068D01*
X138037565Y-56362195D01*
X138037563Y-56362194D01*
X138030063Y-56358697D01*
X138022073Y-56356556D01*
X138022070Y-56356555D01*
X137809800Y-56299678D01*
X137809795Y-56299677D01*
X137801808Y-56297537D01*
X137566400Y-56276941D01*
X137330992Y-56297537D01*
X137323005Y-56299677D01*
X137323000Y-56299678D01*
X137184920Y-56336676D01*
X137102737Y-56358697D01*
X137095238Y-56362194D01*
X137095235Y-56362195D01*
X136896070Y-56455068D01*
X136888571Y-56458565D01*
X136881794Y-56463310D01*
X136874629Y-56467447D01*
X136873964Y-56466295D01*
X136804366Y-56494617D01*
X136773788Y-56497100D01*
X133632564Y-56497100D01*
X133609963Y-56495747D01*
X133581068Y-56492276D01*
X133519613Y-56496627D01*
X133506230Y-56497100D01*
X127382061Y-56497100D01*
X127299840Y-56478334D01*
X127233904Y-56425751D01*
X127197312Y-56349768D01*
X127194490Y-56280634D01*
X127200700Y-56237443D01*
X127200700Y-54898103D01*
X127219466Y-54815882D01*
X127234994Y-54789377D01*
X127235794Y-54788235D01*
X127298338Y-54731661D01*
X127379236Y-54707827D01*
X127462463Y-54721452D01*
X127531536Y-54769840D01*
X127546229Y-54788268D01*
X127581300Y-54838354D01*
X127622505Y-54897201D01*
X127789599Y-55064295D01*
X127983170Y-55199835D01*
X127990662Y-55203329D01*
X127990668Y-55203332D01*
X128189835Y-55296205D01*
X128189837Y-55296206D01*
X128197337Y-55299703D01*
X128205327Y-55301844D01*
X128205330Y-55301845D01*
X128417600Y-55358722D01*
X128417605Y-55358723D01*
X128425592Y-55360863D01*
X128661000Y-55381459D01*
X128896408Y-55360863D01*
X128904395Y-55358723D01*
X128904400Y-55358722D01*
X129116670Y-55301845D01*
X129116673Y-55301844D01*
X129124663Y-55299703D01*
X129132163Y-55296206D01*
X129132165Y-55296205D01*
X129331332Y-55203332D01*
X129331338Y-55203329D01*
X129338830Y-55199835D01*
X129532401Y-55064295D01*
X129699495Y-54897201D01*
X129835035Y-54703629D01*
X129934903Y-54489463D01*
X129996063Y-54261208D01*
X130016659Y-54025800D01*
X129996063Y-53790392D01*
X129934903Y-53562137D01*
X129835035Y-53347971D01*
X129699495Y-53154399D01*
X129532401Y-52987305D01*
X129423468Y-52911029D01*
X129366881Y-52848496D01*
X129343029Y-52767604D01*
X129356637Y-52684374D01*
X129405010Y-52615290D01*
X129423468Y-52600571D01*
X129525626Y-52529039D01*
X129525627Y-52529038D01*
X129532401Y-52524295D01*
X129699495Y-52357201D01*
X129835035Y-52163629D01*
X129934903Y-51949463D01*
X129996063Y-51721208D01*
X130016659Y-51485800D01*
X129996063Y-51250392D01*
X129934903Y-51022137D01*
X129835035Y-50807971D01*
X129748435Y-50684293D01*
X129716647Y-50606177D01*
X129721901Y-50522006D01*
X129763155Y-50448449D01*
X129832238Y-50400076D01*
X129903664Y-50386100D01*
X141346800Y-50386100D01*
X141429021Y-50404866D01*
G37*
%TD.AperFunction*%
%TD*%
%TA.AperFunction,Conductor*%
%TO.N,/SDA*%
G36*
X100780964Y-82189002D02*
G01*
X100827457Y-82242658D01*
X100838840Y-82294154D01*
X100862534Y-85824567D01*
X100842990Y-85892821D01*
X100789647Y-85939673D01*
X100734385Y-85951395D01*
X98172308Y-85907598D01*
X98015446Y-85904917D01*
X97947678Y-85883753D01*
X97902108Y-85829311D01*
X97891600Y-85778935D01*
X97891600Y-82295000D01*
X97911602Y-82226879D01*
X97965258Y-82180386D01*
X98017600Y-82169000D01*
X100712843Y-82169000D01*
X100780964Y-82189002D01*
G37*
%TD.AperFunction*%
%TD*%
%TA.AperFunction,Conductor*%
%TO.N,/SCL*%
G36*
X106317321Y-65628202D02*
G01*
X106363814Y-65681858D01*
X106375200Y-65734200D01*
X106375200Y-68429443D01*
X106355198Y-68497564D01*
X106301542Y-68544057D01*
X106250046Y-68555440D01*
X103223978Y-68575749D01*
X102719633Y-68579134D01*
X102651379Y-68559590D01*
X102604527Y-68506247D01*
X102592805Y-68450983D01*
X102593174Y-68429443D01*
X102639283Y-65732046D01*
X102660447Y-65664278D01*
X102714889Y-65618708D01*
X102765265Y-65608200D01*
X106249200Y-65608200D01*
X106317321Y-65628202D01*
G37*
%TD.AperFunction*%
%TD*%
%TA.AperFunction,Conductor*%
%TO.N,/SDA*%
G36*
X100501564Y-65069402D02*
G01*
X100548057Y-65123058D01*
X100559440Y-65174554D01*
X100583134Y-68704967D01*
X100563590Y-68773221D01*
X100510247Y-68820073D01*
X100454985Y-68831795D01*
X97892908Y-68787998D01*
X97736046Y-68785317D01*
X97668278Y-68764153D01*
X97622708Y-68709711D01*
X97612200Y-68659335D01*
X97612200Y-65175400D01*
X97632202Y-65107279D01*
X97685858Y-65060786D01*
X97738200Y-65049400D01*
X100433443Y-65049400D01*
X100501564Y-65069402D01*
G37*
%TD.AperFunction*%
%TD*%
%TA.AperFunction,Conductor*%
%TO.N,/SDA*%
G36*
X109561055Y-49186676D02*
G01*
X109607548Y-49240332D01*
X109618934Y-49292674D01*
X109618934Y-51987917D01*
X109598932Y-52056038D01*
X109545276Y-52102531D01*
X109493780Y-52113914D01*
X106467711Y-52134223D01*
X105963367Y-52137608D01*
X105895113Y-52118064D01*
X105848261Y-52064721D01*
X105836539Y-52009457D01*
X105836908Y-51987917D01*
X105883017Y-49290520D01*
X105904181Y-49222752D01*
X105958623Y-49177182D01*
X106008999Y-49166674D01*
X109492934Y-49166674D01*
X109561055Y-49186676D01*
G37*
%TD.AperFunction*%
%TD*%
%TA.AperFunction,Conductor*%
%TO.N,/SDA*%
G36*
X142353038Y-57050468D02*
G01*
X142399531Y-57104124D01*
X142410914Y-57155620D01*
X142434608Y-60686033D01*
X142415064Y-60754287D01*
X142361721Y-60801139D01*
X142306459Y-60812861D01*
X139744382Y-60769064D01*
X139587520Y-60766383D01*
X139519752Y-60745219D01*
X139474182Y-60690777D01*
X139463674Y-60640401D01*
X139463674Y-57156466D01*
X139483676Y-57088345D01*
X139537332Y-57041852D01*
X139589674Y-57030466D01*
X142284917Y-57030466D01*
X142353038Y-57050468D01*
G37*
%TD.AperFunction*%
%TD*%
%TA.AperFunction,Conductor*%
%TO.N,/SDA*%
G36*
X126667287Y-49177136D02*
G01*
X126714139Y-49230479D01*
X126725861Y-49285741D01*
X126682064Y-51847818D01*
X126679383Y-52004680D01*
X126658219Y-52072448D01*
X126603777Y-52118018D01*
X126553401Y-52128526D01*
X123069466Y-52128526D01*
X123001345Y-52108524D01*
X122954852Y-52054868D01*
X122943466Y-52002526D01*
X122943466Y-49307283D01*
X122963468Y-49239162D01*
X123017124Y-49192669D01*
X123068620Y-49181286D01*
X126094688Y-49160977D01*
X126599033Y-49157592D01*
X126667287Y-49177136D01*
G37*
%TD.AperFunction*%
%TD*%
%TA.AperFunction,Conductor*%
%TO.N,/SDA*%
G36*
X142187892Y-74112402D02*
G01*
X142344754Y-74115083D01*
X142412522Y-74136247D01*
X142458092Y-74190689D01*
X142468600Y-74241065D01*
X142468600Y-77725000D01*
X142448598Y-77793121D01*
X142394942Y-77839614D01*
X142342600Y-77851000D01*
X139647357Y-77851000D01*
X139579236Y-77830998D01*
X139532743Y-77777342D01*
X139521360Y-77725846D01*
X139497666Y-74195433D01*
X139517210Y-74127179D01*
X139570553Y-74080327D01*
X139625815Y-74068605D01*
X142187892Y-74112402D01*
G37*
%TD.AperFunction*%
%TD*%
%TA.AperFunction,Conductor*%
%TO.N,/SDA*%
G36*
X134254421Y-90800010D02*
G01*
X134301273Y-90853353D01*
X134312995Y-90908615D01*
X134269198Y-93470692D01*
X134266517Y-93627554D01*
X134245353Y-93695322D01*
X134190911Y-93740892D01*
X134140535Y-93751400D01*
X130656600Y-93751400D01*
X130588479Y-93731398D01*
X130541986Y-93677742D01*
X130530600Y-93625400D01*
X130530600Y-90930157D01*
X130550602Y-90862036D01*
X130604258Y-90815543D01*
X130655754Y-90804160D01*
X133681822Y-90783851D01*
X134186167Y-90780466D01*
X134254421Y-90800010D01*
G37*
%TD.AperFunction*%
%TD*%
%TA.AperFunction,Conductor*%
%TO.N,/SDA*%
G36*
X117109421Y-90749210D02*
G01*
X117156273Y-90802553D01*
X117167995Y-90857815D01*
X117124198Y-93419892D01*
X117121517Y-93576754D01*
X117100353Y-93644522D01*
X117045911Y-93690092D01*
X116995535Y-93700600D01*
X113511600Y-93700600D01*
X113443479Y-93680598D01*
X113396986Y-93626942D01*
X113385600Y-93574600D01*
X113385600Y-90879357D01*
X113405602Y-90811236D01*
X113459258Y-90764743D01*
X113510754Y-90753360D01*
X116536822Y-90733051D01*
X117041167Y-90729666D01*
X117109421Y-90749210D01*
G37*
%TD.AperFunction*%
%TD*%
%TA.AperFunction,Conductor*%
%TO.N,/SCL*%
G36*
X109593921Y-53410802D02*
G01*
X109640414Y-53464458D01*
X109651800Y-53516800D01*
X109651800Y-56212043D01*
X109631798Y-56280164D01*
X109578142Y-56326657D01*
X109526646Y-56338040D01*
X106500578Y-56358349D01*
X105996233Y-56361734D01*
X105927979Y-56342190D01*
X105881127Y-56288847D01*
X105869405Y-56233583D01*
X105869774Y-56212043D01*
X105915883Y-53514646D01*
X105937047Y-53446878D01*
X105991489Y-53401308D01*
X106041865Y-53390800D01*
X109525800Y-53390800D01*
X109593921Y-53410802D01*
G37*
%TD.AperFunction*%
%TD*%
%TA.AperFunction,Conductor*%
%TO.N,/SCL*%
G36*
X126637321Y-53436202D02*
G01*
X126683814Y-53489858D01*
X126695200Y-53542200D01*
X126695200Y-56237443D01*
X126675198Y-56305564D01*
X126621542Y-56352057D01*
X126570046Y-56363440D01*
X123543978Y-56383749D01*
X123039633Y-56387134D01*
X122971379Y-56367590D01*
X122924527Y-56314247D01*
X122912805Y-56258983D01*
X122913174Y-56237443D01*
X122959283Y-53540046D01*
X122980447Y-53472278D01*
X123034889Y-53426708D01*
X123085265Y-53416200D01*
X126569200Y-53416200D01*
X126637321Y-53436202D01*
G37*
%TD.AperFunction*%
%TD*%
%TA.AperFunction,Conductor*%
%TO.N,/SCL*%
G36*
X138144364Y-57043002D02*
G01*
X138190857Y-57096658D01*
X138202240Y-57148154D01*
X138225934Y-60678567D01*
X138206390Y-60746821D01*
X138153047Y-60793673D01*
X138097785Y-60805395D01*
X135535708Y-60761598D01*
X135378846Y-60758917D01*
X135311078Y-60737753D01*
X135265508Y-60683311D01*
X135255000Y-60632935D01*
X135255000Y-57149000D01*
X135275002Y-57080879D01*
X135328658Y-57034386D01*
X135381000Y-57023000D01*
X138076243Y-57023000D01*
X138144364Y-57043002D01*
G37*
%TD.AperFunction*%
%TD*%
%TA.AperFunction,Conductor*%
%TO.N,/SCL*%
G36*
X138118964Y-74137202D02*
G01*
X138165457Y-74190858D01*
X138176840Y-74242354D01*
X138200534Y-77772767D01*
X138180990Y-77841021D01*
X138127647Y-77887873D01*
X138072385Y-77899595D01*
X135510308Y-77855798D01*
X135353446Y-77853117D01*
X135285678Y-77831953D01*
X135240108Y-77777511D01*
X135229600Y-77727135D01*
X135229600Y-74243200D01*
X135249602Y-74175079D01*
X135303258Y-74128586D01*
X135355600Y-74117200D01*
X138050843Y-74117200D01*
X138118964Y-74137202D01*
G37*
%TD.AperFunction*%
%TD*%
%TA.AperFunction,Conductor*%
%TO.N,/SCL*%
G36*
X134246330Y-86498154D02*
G01*
X134293182Y-86551497D01*
X134304904Y-86606759D01*
X134261107Y-89168836D01*
X134258426Y-89325698D01*
X134237262Y-89393466D01*
X134182820Y-89439036D01*
X134132444Y-89449544D01*
X130648509Y-89449544D01*
X130580388Y-89429542D01*
X130533895Y-89375886D01*
X130522509Y-89323544D01*
X130522509Y-86628301D01*
X130542511Y-86560180D01*
X130596167Y-86513687D01*
X130647663Y-86502304D01*
X133673731Y-86481995D01*
X134178076Y-86478610D01*
X134246330Y-86498154D01*
G37*
%TD.AperFunction*%
%TD*%
%TA.AperFunction,Conductor*%
%TO.N,/SCL*%
G36*
X117160221Y-86558210D02*
G01*
X117207073Y-86611553D01*
X117218795Y-86666815D01*
X117174998Y-89228892D01*
X117172317Y-89385754D01*
X117151153Y-89453522D01*
X117096711Y-89499092D01*
X117046335Y-89509600D01*
X113562400Y-89509600D01*
X113494279Y-89489598D01*
X113447786Y-89435942D01*
X113436400Y-89383600D01*
X113436400Y-86688357D01*
X113456402Y-86620236D01*
X113510058Y-86573743D01*
X113561554Y-86562360D01*
X116587622Y-86542051D01*
X117091967Y-86538666D01*
X117160221Y-86558210D01*
G37*
%TD.AperFunction*%
%TD*%
M02*
