%TF.GenerationSoftware,KiCad,Pcbnew,(6.0.9)*%
%TF.CreationDate,2023-01-09T12:20:16-05:00*%
%TF.ProjectId,Perris_Breakout,50657272-6973-45f4-9272-65616b6f7574,3*%
%TF.SameCoordinates,Original*%
%TF.FileFunction,Legend,Bot*%
%TF.FilePolarity,Positive*%
%FSLAX46Y46*%
G04 Gerber Fmt 4.6, Leading zero omitted, Abs format (unit mm)*
G04 Created by KiCad (PCBNEW (6.0.9)) date 2023-01-09 12:20:16*
%MOMM*%
%LPD*%
G01*
G04 APERTURE LIST*
G04 APERTURE END LIST*
%TO.C,G\u002A\u002A\u002A*%
G36*
X68466585Y-180414402D02*
G01*
X67827246Y-180883581D01*
X66484610Y-182399409D01*
X65532058Y-184218106D01*
X65170004Y-186000094D01*
X65433060Y-187268525D01*
X66150469Y-188682347D01*
X67080682Y-189690539D01*
X67273002Y-189958833D01*
X67073662Y-190669951D01*
X66284536Y-191568269D01*
X65031191Y-192525428D01*
X63439193Y-193413067D01*
X62653307Y-193794815D01*
X61543709Y-194437485D01*
X61038818Y-194973242D01*
X60990106Y-195530500D01*
X61015251Y-195694544D01*
X60767092Y-196430500D01*
X59784997Y-197100203D01*
X59661487Y-197164718D01*
X58428444Y-198306018D01*
X57833244Y-199980393D01*
X57913183Y-202088457D01*
X57941832Y-202229032D01*
X58558662Y-203531514D01*
X59758501Y-204273028D01*
X61624970Y-204508086D01*
X62418406Y-204623850D01*
X62960344Y-205141678D01*
X63428689Y-206291350D01*
X63570719Y-206678523D01*
X64506919Y-208268357D01*
X65746895Y-209358556D01*
X67094410Y-209763259D01*
X67769424Y-209942879D01*
X68571821Y-210639121D01*
X69082782Y-211170705D01*
X69985080Y-211514983D01*
X70741413Y-211845536D01*
X71479628Y-213018655D01*
X71487538Y-213037406D01*
X72318368Y-214293822D01*
X73434447Y-215208310D01*
X74072482Y-215483851D01*
X75938635Y-215852062D01*
X77865274Y-215741326D01*
X79566856Y-215189597D01*
X80757834Y-214234835D01*
X80812435Y-214161281D01*
X81231671Y-213753640D01*
X81754599Y-213796986D01*
X82697946Y-214302339D01*
X84428893Y-214882781D01*
X86370709Y-214688477D01*
X88310101Y-213687329D01*
X89217834Y-213107706D01*
X90054134Y-212967736D01*
X91210190Y-213261192D01*
X92301650Y-213503400D01*
X94604116Y-213446825D01*
X96937908Y-212740935D01*
X97368500Y-212478243D01*
X98358319Y-211320367D01*
X99061264Y-209705706D01*
X99328625Y-207933310D01*
X99245105Y-207126653D01*
X98829116Y-205864534D01*
X98199812Y-204895358D01*
X97510569Y-204508086D01*
X97352959Y-204496692D01*
X96438565Y-204304080D01*
X95139131Y-203936151D01*
X93700504Y-203474646D01*
X92368531Y-203001304D01*
X91389059Y-202597865D01*
X91007935Y-202346070D01*
X91273398Y-201981814D01*
X92133051Y-201520900D01*
X93287175Y-201154526D01*
X94422507Y-201005665D01*
X94655627Y-201024451D01*
X95861105Y-201457460D01*
X97138970Y-202318431D01*
X97377871Y-202512002D01*
X99243410Y-203435098D01*
X101533628Y-203648571D01*
X104301215Y-203158602D01*
X105367957Y-202922047D01*
X106179716Y-203011770D01*
X106928801Y-203545035D01*
X108697649Y-204673239D01*
X111036972Y-205196668D01*
X113734000Y-204962512D01*
X114708139Y-204732424D01*
X116332514Y-204276668D01*
X117553502Y-203847984D01*
X118318608Y-203559048D01*
X119028032Y-203536803D01*
X119649314Y-203995771D01*
X119917808Y-204199305D01*
X121136165Y-204610680D01*
X122792605Y-204776047D01*
X124590750Y-204700914D01*
X126234221Y-204390792D01*
X127426641Y-203851190D01*
X127597874Y-203714962D01*
X128763202Y-202218281D01*
X129341170Y-200331597D01*
X129229763Y-198365291D01*
X129211244Y-198293999D01*
X128855304Y-197327288D01*
X128261809Y-196881968D01*
X127111747Y-196708497D01*
X126160519Y-196575535D01*
X125329282Y-196133578D01*
X124728625Y-195175738D01*
X124590363Y-194892545D01*
X124070166Y-194154079D01*
X123309773Y-193797531D01*
X121991556Y-193645298D01*
X121021194Y-193548210D01*
X120162376Y-193281865D01*
X119911384Y-192816533D01*
X119869462Y-192561511D01*
X119538168Y-192321663D01*
X118717424Y-192278312D01*
X117219557Y-192402597D01*
X116011434Y-192519639D01*
X114274489Y-192661195D01*
X112949729Y-192738763D01*
X111371728Y-192793577D01*
X113342418Y-193219189D01*
X113543430Y-193259954D01*
X115060902Y-193488675D01*
X117015199Y-193697402D01*
X119035522Y-193845353D01*
X119882779Y-193897584D01*
X121643210Y-194084185D01*
X122734113Y-194361735D01*
X123305349Y-194762422D01*
X123789936Y-195579816D01*
X123668242Y-196016937D01*
X122867418Y-195922380D01*
X122824473Y-195909234D01*
X121855877Y-195766910D01*
X120344268Y-195690803D01*
X118597591Y-195697156D01*
X116657340Y-195692587D01*
X115286844Y-195512726D01*
X114437246Y-195129749D01*
X113806372Y-194746734D01*
X112351603Y-194517575D01*
X110933797Y-195149109D01*
X110913840Y-195164739D01*
X110398245Y-195607877D01*
X110544664Y-195710106D01*
X111449247Y-195545337D01*
X112428490Y-195467319D01*
X114261276Y-195990665D01*
X114656501Y-196176803D01*
X115704308Y-196476000D01*
X117060329Y-196560511D01*
X119000998Y-196457568D01*
X122320004Y-196189789D01*
X123201784Y-197611869D01*
X123980007Y-198550111D01*
X125089707Y-199163530D01*
X126149636Y-199089865D01*
X126964995Y-198293815D01*
X127508550Y-197282224D01*
X127853495Y-198565271D01*
X127950898Y-200163194D01*
X127361764Y-201670825D01*
X126200076Y-202849273D01*
X124618417Y-203594534D01*
X122769367Y-203802601D01*
X120805506Y-203369469D01*
X120383076Y-203182159D01*
X119414479Y-202561384D01*
X119035522Y-201984041D01*
X119022719Y-201720057D01*
X118828018Y-201565798D01*
X118234659Y-202031592D01*
X117896093Y-202329278D01*
X117317733Y-202687824D01*
X117121356Y-202351801D01*
X117198942Y-201238496D01*
X117221972Y-200991042D01*
X117007043Y-199544767D01*
X116125774Y-198666910D01*
X114578009Y-198357299D01*
X113257240Y-198201879D01*
X111894469Y-197809885D01*
X111000773Y-197601704D01*
X109492531Y-197481753D01*
X107663855Y-197465379D01*
X105753687Y-197542445D01*
X104000964Y-197702814D01*
X102644626Y-197936348D01*
X101923613Y-198232910D01*
X101765966Y-198474134D01*
X102115690Y-198545140D01*
X103195510Y-198345032D01*
X104684225Y-198164013D01*
X106057719Y-198354682D01*
X106988165Y-198536426D01*
X108721912Y-198327305D01*
X108886232Y-198284626D01*
X110186376Y-198096828D01*
X111199784Y-198173010D01*
X111708567Y-198362454D01*
X111828567Y-198673767D01*
X111312636Y-199318210D01*
X110998672Y-199757019D01*
X110881492Y-200687315D01*
X111514360Y-201415282D01*
X112810073Y-201796594D01*
X113044085Y-201815404D01*
X114054270Y-201657283D01*
X114690838Y-200920732D01*
X115015048Y-200274076D01*
X114936752Y-200186126D01*
X114299650Y-200728094D01*
X113425693Y-201195224D01*
X112370862Y-201291330D01*
X111509265Y-200996271D01*
X111152763Y-200347741D01*
X111158875Y-200264069D01*
X111647699Y-199691849D01*
X112797536Y-199376711D01*
X114437246Y-199369618D01*
X114561976Y-199383501D01*
X115533494Y-199797418D01*
X115901433Y-200576870D01*
X115733183Y-201548364D01*
X115096136Y-202538404D01*
X114057683Y-203373494D01*
X112685213Y-203880141D01*
X111778256Y-203962685D01*
X109964022Y-203752681D01*
X108273109Y-203161835D01*
X107073154Y-202294049D01*
X106379680Y-201726472D01*
X105697238Y-201593794D01*
X104432215Y-202052015D01*
X102603317Y-202542524D01*
X101154407Y-202626450D01*
X99847824Y-202333862D01*
X99712333Y-202283870D01*
X98329086Y-201648661D01*
X97189394Y-200942296D01*
X96353495Y-200461074D01*
X94558342Y-200151718D01*
X92553579Y-200561808D01*
X92331092Y-200642401D01*
X91544434Y-200759021D01*
X91164423Y-200342842D01*
X90677597Y-199902722D01*
X89698365Y-199690845D01*
X89015831Y-199581708D01*
X88294209Y-198983299D01*
X88224040Y-198084670D01*
X88886426Y-197140557D01*
X89046509Y-196993506D01*
X89854366Y-196002994D01*
X90614468Y-194764121D01*
X91229540Y-193749323D01*
X91922316Y-193240673D01*
X92961680Y-193121879D01*
X93433570Y-193142002D01*
X94414863Y-193368227D01*
X94827497Y-193760698D01*
X94518527Y-194212292D01*
X94210190Y-194444210D01*
X94039937Y-194919249D01*
X94563134Y-195197145D01*
X95652032Y-195169966D01*
X95690747Y-195163704D01*
X96695820Y-195052594D01*
X97061037Y-195235632D01*
X96995497Y-195812880D01*
X96933898Y-196080043D01*
X97026797Y-196520454D01*
X97716055Y-196414324D01*
X97961243Y-196338291D01*
X99374445Y-195934276D01*
X100138552Y-195833313D01*
X100409512Y-196045225D01*
X100343273Y-196579838D01*
X100277814Y-197017537D01*
X100517790Y-197465481D01*
X101133205Y-197296149D01*
X101964411Y-196515845D01*
X102222960Y-196216349D01*
X102807517Y-195816925D01*
X103326505Y-196077914D01*
X104030269Y-196537445D01*
X104727510Y-196526424D01*
X105021728Y-195942586D01*
X105087737Y-195630480D01*
X105477213Y-195541348D01*
X105738598Y-195478239D01*
X105648703Y-194691332D01*
X105590006Y-194450839D01*
X105545588Y-193936598D01*
X105837484Y-193661534D01*
X106645453Y-193538632D01*
X108149253Y-193480874D01*
X108238941Y-193478320D01*
X109597455Y-193432207D01*
X110124580Y-193386481D01*
X109862556Y-193326573D01*
X108853625Y-193237914D01*
X108165005Y-193166349D01*
X107167107Y-192977864D01*
X106775984Y-192769436D01*
X106936007Y-192606522D01*
X107730077Y-192110033D01*
X109038676Y-191399840D01*
X110692483Y-190570987D01*
X111151196Y-190343830D01*
X113214995Y-189199260D01*
X115007923Y-188017979D01*
X116256980Y-186976342D01*
X116923414Y-186344645D01*
X117997366Y-185523295D01*
X118795491Y-185147924D01*
X119325228Y-184920535D01*
X119820002Y-184144293D01*
X120013629Y-183385440D01*
X120470971Y-182236222D01*
X120713576Y-181616500D01*
X120587054Y-180978591D01*
X119843060Y-180221406D01*
X119660630Y-180052497D01*
X118709351Y-178887465D01*
X117919204Y-177531200D01*
X117802270Y-177282763D01*
X116838581Y-175498277D01*
X115571159Y-173440131D01*
X114176162Y-171371420D01*
X112829748Y-169555243D01*
X111708075Y-168254695D01*
X111516619Y-168059385D01*
X110567210Y-166927025D01*
X110295411Y-166216453D01*
X110719605Y-165970155D01*
X111172354Y-165850314D01*
X112305787Y-165372607D01*
X113887575Y-164616904D01*
X115742416Y-163676322D01*
X117695010Y-162643977D01*
X119570056Y-161612986D01*
X121192254Y-160676465D01*
X122386302Y-159927531D01*
X122976901Y-159459300D01*
X123151218Y-159291104D01*
X123887596Y-158694431D01*
X124947591Y-157896567D01*
X126478872Y-156716956D01*
X128284388Y-155114738D01*
X130117856Y-153210275D01*
X132201382Y-150785843D01*
X133824790Y-148963242D01*
X135208384Y-147749259D01*
X136408140Y-147114585D01*
X137531598Y-146692240D01*
X140143412Y-145343449D01*
X142346304Y-143708559D01*
X143541570Y-142613275D01*
X146506649Y-143766382D01*
X148047832Y-144295375D01*
X151192955Y-145088108D01*
X154487413Y-145626712D01*
X157473855Y-145825328D01*
X158233504Y-145859067D01*
X159160095Y-146163176D01*
X159763013Y-146919977D01*
X160321886Y-147611892D01*
X161569615Y-148324047D01*
X163488092Y-148839877D01*
X166175256Y-149194118D01*
X167479271Y-149294482D01*
X168420903Y-149269030D01*
X168901842Y-149040755D01*
X169143854Y-148562468D01*
X169153991Y-148532346D01*
X169874860Y-147754650D01*
X171393402Y-147132087D01*
X172017423Y-146971341D01*
X173069584Y-146777332D01*
X173583052Y-146799295D01*
X173538082Y-146906973D01*
X172919739Y-147213084D01*
X171801065Y-147578492D01*
X171204133Y-147775265D01*
X170029538Y-148351011D01*
X169364478Y-148952716D01*
X168701212Y-149470233D01*
X167407475Y-149725475D01*
X165729880Y-149692248D01*
X163885766Y-149405460D01*
X162092470Y-148900018D01*
X160567333Y-148210830D01*
X159527692Y-147372802D01*
X158946395Y-146779655D01*
X158027819Y-146369490D01*
X156610181Y-146263259D01*
X155446128Y-146215473D01*
X153003728Y-145922805D01*
X150386999Y-145425341D01*
X147945988Y-144794589D01*
X146030740Y-144102057D01*
X145900085Y-144042676D01*
X144492794Y-143449574D01*
X143631771Y-143257485D01*
X143101660Y-143464178D01*
X142687105Y-144067423D01*
X142362165Y-144414280D01*
X141343964Y-145134925D01*
X139850191Y-146008040D01*
X138073421Y-146914774D01*
X136769938Y-147558596D01*
X135299914Y-148350572D01*
X134296461Y-148974055D01*
X133925177Y-149332529D01*
X133794834Y-149572276D01*
X133147504Y-150351812D01*
X132072240Y-151516516D01*
X130697696Y-152937959D01*
X129152531Y-154487710D01*
X127565399Y-156037339D01*
X126064959Y-157458415D01*
X124779867Y-158622509D01*
X123838778Y-159401190D01*
X123119005Y-159910587D01*
X121211439Y-161123910D01*
X118874048Y-162487078D01*
X116351841Y-163859712D01*
X113889832Y-165101433D01*
X113827097Y-165131677D01*
X112477430Y-165832744D01*
X111517948Y-166424156D01*
X111152763Y-166780686D01*
X111314868Y-167098498D01*
X111951091Y-167899969D01*
X112904487Y-168931592D01*
X113642010Y-169711970D01*
X114373218Y-170566624D01*
X114656211Y-171017944D01*
X114762878Y-171293174D01*
X115245310Y-172139138D01*
X115985046Y-173286231D01*
X116383961Y-173897195D01*
X117463967Y-175687007D01*
X118401044Y-177400604D01*
X118885476Y-178252065D01*
X119590491Y-179183875D01*
X120129383Y-179546017D01*
X120481618Y-179670873D01*
X120954368Y-180415983D01*
X121157619Y-181596938D01*
X121019567Y-182939983D01*
X120972899Y-183111156D01*
X120409379Y-184352019D01*
X119630020Y-185299635D01*
X118853950Y-185677052D01*
X118821715Y-185680767D01*
X118227011Y-186019065D01*
X117224820Y-186798629D01*
X116013305Y-187866707D01*
X115886144Y-187984043D01*
X114665099Y-189032565D01*
X113651172Y-189774721D01*
X113052782Y-190056362D01*
X112805012Y-190102974D01*
X111878631Y-190493457D01*
X110714832Y-191151190D01*
X110199154Y-191457976D01*
X109042455Y-192022274D01*
X108241925Y-192246017D01*
X107883150Y-192287528D01*
X107761681Y-192504361D01*
X107798450Y-192522649D01*
X108458947Y-192563485D01*
X109786622Y-192523356D01*
X111611070Y-192410018D01*
X113761884Y-192231228D01*
X114918238Y-192126218D01*
X116963433Y-191962540D01*
X118363670Y-191902388D01*
X119274983Y-191949301D01*
X119853408Y-192106818D01*
X120254977Y-192378476D01*
X120391531Y-192484675D01*
X121431374Y-192940906D01*
X122757935Y-193199024D01*
X123769168Y-193345506D01*
X124577434Y-193794099D01*
X125166556Y-194754643D01*
X125476798Y-195345965D01*
X126158953Y-196006647D01*
X127221896Y-196177919D01*
X128144893Y-196317074D01*
X129264415Y-197074765D01*
X129853955Y-198394097D01*
X129875976Y-200164551D01*
X129292939Y-202275607D01*
X129004043Y-202914357D01*
X128162615Y-203981114D01*
X126804086Y-204721647D01*
X125483921Y-205153441D01*
X122823334Y-205416212D01*
X120307310Y-204829214D01*
X119898555Y-204666507D01*
X119092658Y-204447339D01*
X118215756Y-204433508D01*
X117010920Y-204637210D01*
X115221225Y-205070641D01*
X114796160Y-205178026D01*
X113077434Y-205569615D01*
X111846187Y-205725604D01*
X110810426Y-205663355D01*
X109678161Y-205400231D01*
X109113211Y-205223054D01*
X107721613Y-204643149D01*
X106737601Y-204039061D01*
X105786326Y-203498742D01*
X104736357Y-203657472D01*
X104118267Y-203817003D01*
X102717532Y-203999214D01*
X101112058Y-204070155D01*
X100623561Y-204066070D01*
X99161318Y-203940675D01*
X98060962Y-203546153D01*
X96920004Y-202756362D01*
X95823261Y-202010016D01*
X94180256Y-201466037D01*
X92576511Y-201708388D01*
X92041703Y-202058624D01*
X91940013Y-202531157D01*
X92494565Y-202756362D01*
X93164551Y-202870526D01*
X94412212Y-203186529D01*
X95945446Y-203633584D01*
X96413132Y-203784631D01*
X98207969Y-204595108D01*
X99267693Y-205652536D01*
X99708555Y-207132017D01*
X99646809Y-209208652D01*
X99621958Y-209402821D01*
X98955970Y-211368098D01*
X97646771Y-212785067D01*
X95776774Y-213561043D01*
X94888770Y-213849496D01*
X94511384Y-214197310D01*
X94497604Y-214258679D01*
X94019669Y-214498924D01*
X93148856Y-214572216D01*
X92280719Y-214476650D01*
X91810809Y-214210321D01*
X91472274Y-213816326D01*
X90525711Y-213534387D01*
X89371321Y-213647636D01*
X88359021Y-214161067D01*
X87168563Y-214959870D01*
X85400728Y-215381469D01*
X83265951Y-215090028D01*
X83218574Y-215077400D01*
X81932031Y-214817382D01*
X80995348Y-214927426D01*
X79955608Y-215457859D01*
X79396205Y-215754822D01*
X77494897Y-216278768D01*
X75500594Y-216252755D01*
X73638512Y-215729688D01*
X72133866Y-214762467D01*
X71211875Y-213403995D01*
X70636987Y-212361166D01*
X69916330Y-211952914D01*
X69250348Y-211767863D01*
X68362064Y-211138776D01*
X67515168Y-210519625D01*
X66290779Y-210014638D01*
X65394505Y-209681088D01*
X63975232Y-208456390D01*
X62983851Y-206489387D01*
X62560954Y-205552545D01*
X61894277Y-205065200D01*
X60670063Y-204810206D01*
X60306488Y-204751304D01*
X58629922Y-204083627D01*
X57624183Y-202853600D01*
X57293226Y-201065605D01*
X57315797Y-200203988D01*
X57560817Y-198648353D01*
X58164525Y-197602381D01*
X59237629Y-196824603D01*
X59429687Y-196717713D01*
X60325513Y-195995189D01*
X60463927Y-195251399D01*
X60461198Y-195240793D01*
X60591090Y-194524457D01*
X61485074Y-193983490D01*
X62319549Y-193625429D01*
X63805706Y-192820221D01*
X65134952Y-191920340D01*
X66093562Y-191077614D01*
X66467808Y-190443869D01*
X66467823Y-190443146D01*
X66221526Y-189616627D01*
X65607935Y-188623070D01*
X65009373Y-187497497D01*
X64732073Y-186167106D01*
X64749771Y-185821947D01*
X65112861Y-184275139D01*
X65823652Y-182641694D01*
X66722051Y-181239081D01*
X67647967Y-180384769D01*
X68151065Y-180078233D01*
X68650491Y-179455048D01*
X68281410Y-178917481D01*
X68050489Y-178884858D01*
X67638258Y-179329567D01*
X67339175Y-179699708D01*
X66497542Y-179983948D01*
X65904543Y-180136964D01*
X65607935Y-180881558D01*
X65309574Y-182270148D01*
X64197902Y-184043266D01*
X62300428Y-185891449D01*
X61520644Y-186591616D01*
X60020388Y-188193646D01*
X58792154Y-189798900D01*
X58066162Y-190852910D01*
X56949986Y-192330512D01*
X55813528Y-193709627D01*
X54790178Y-194837451D01*
X54013327Y-195561180D01*
X53616363Y-195728008D01*
X53612045Y-195722703D01*
X53798172Y-195299392D01*
X54456694Y-194439423D01*
X55450510Y-193322597D01*
X56492854Y-192155127D01*
X57483511Y-190921472D01*
X58082334Y-190025285D01*
X58157677Y-189886286D01*
X59136560Y-188528070D01*
X60797282Y-186718612D01*
X63159999Y-184435725D01*
X63257342Y-184344798D01*
X64203045Y-183317699D01*
X64631418Y-182342938D01*
X64732073Y-181006963D01*
X64740156Y-180130839D01*
X64856261Y-179391628D01*
X65238491Y-179191477D01*
X66045866Y-179327052D01*
X67055252Y-179399866D01*
X67335442Y-179050575D01*
X66926167Y-178451190D01*
X67359660Y-178451190D01*
X67578625Y-178670155D01*
X67797591Y-178451190D01*
X67578625Y-178232224D01*
X67359660Y-178451190D01*
X66926167Y-178451190D01*
X66841441Y-178327109D01*
X66806682Y-178291934D01*
X66433334Y-177732033D01*
X66684109Y-177558983D01*
X67406035Y-177769589D01*
X68446141Y-178360651D01*
X68579381Y-178451190D01*
X70038668Y-179442802D01*
X68466585Y-180414402D01*
G37*
G36*
X89913108Y-203603552D02*
G01*
X90918284Y-203686433D01*
X92054449Y-203809090D01*
X92496410Y-203952543D01*
X92357998Y-204174201D01*
X91753044Y-204531469D01*
X90527463Y-205211748D01*
X91456381Y-206392676D01*
X92083953Y-207104117D01*
X92802873Y-207493057D01*
X93705252Y-207349914D01*
X95063696Y-206697741D01*
X95275540Y-206585275D01*
X96668628Y-205953477D01*
X97503029Y-205887939D01*
X97908509Y-206429099D01*
X98014832Y-207617397D01*
X97939657Y-208649355D01*
X97508180Y-209747653D01*
X96525866Y-210901879D01*
X96254830Y-211168059D01*
X95269692Y-211958812D01*
X94254054Y-212310694D01*
X92788369Y-212390845D01*
X90539837Y-212390845D01*
X90822506Y-210259985D01*
X90901554Y-209141754D01*
X90582608Y-207369636D01*
X89621820Y-206184316D01*
X88009300Y-205569304D01*
X87831022Y-205537073D01*
X86247031Y-205179422D01*
X84657935Y-204731161D01*
X84623414Y-204720146D01*
X83277327Y-204358053D01*
X81819651Y-204065039D01*
X80444026Y-203863812D01*
X79344093Y-203777076D01*
X78713493Y-203827539D01*
X78745866Y-204037906D01*
X78784456Y-204063143D01*
X79700339Y-204372943D01*
X80935522Y-204508086D01*
X82013112Y-204579548D01*
X83003565Y-204849432D01*
X83315090Y-205259934D01*
X82849270Y-205747325D01*
X82680874Y-205857200D01*
X82335962Y-206532541D01*
X82804265Y-207375359D01*
X84059985Y-208330608D01*
X84461867Y-208561715D01*
X85145378Y-208786268D01*
X85905833Y-208641521D01*
X87088619Y-208101327D01*
X87707261Y-207816678D01*
X88753706Y-207445115D01*
X89328811Y-207399507D01*
X89706251Y-208032177D01*
X89652103Y-209148026D01*
X89175333Y-210462403D01*
X88334983Y-211718710D01*
X87384188Y-212668505D01*
X86433672Y-213147754D01*
X85159983Y-213260001D01*
X84032797Y-213211281D01*
X82877658Y-212916449D01*
X82385310Y-212277852D01*
X82439555Y-211207837D01*
X82506791Y-210823189D01*
X82418684Y-209245335D01*
X81791730Y-207996850D01*
X80732045Y-207319394D01*
X79992510Y-207049536D01*
X79621728Y-206711243D01*
X79584841Y-206647989D01*
X78996211Y-206320432D01*
X77879386Y-205875812D01*
X76479880Y-205394985D01*
X75043207Y-204958806D01*
X73814878Y-204648129D01*
X73040407Y-204543810D01*
X72941717Y-204562897D01*
X73061163Y-204797236D01*
X73819142Y-205201962D01*
X74802461Y-205786998D01*
X75220919Y-206575573D01*
X74770747Y-207432171D01*
X74678453Y-207549587D01*
X74763387Y-208088426D01*
X75604730Y-208833551D01*
X75783433Y-208956135D01*
X77108779Y-209598379D01*
X78248080Y-209732982D01*
X78964832Y-209325328D01*
X79377197Y-209048867D01*
X80304470Y-208887397D01*
X81104362Y-209066796D01*
X81373453Y-209752674D01*
X81251351Y-210453903D01*
X80629824Y-211808199D01*
X79687192Y-213108376D01*
X78656026Y-213991647D01*
X77816131Y-214359216D01*
X75987175Y-214559977D01*
X74291311Y-214022886D01*
X72921652Y-212833418D01*
X72071309Y-211077052D01*
X71874529Y-210414763D01*
X71579837Y-209782203D01*
X71396222Y-209872741D01*
X71248323Y-210276233D01*
X70812685Y-210639121D01*
X70656087Y-210613676D01*
X69885223Y-210124066D01*
X69057016Y-209232423D01*
X68456828Y-208230500D01*
X68325830Y-207921159D01*
X68095022Y-207629935D01*
X67916672Y-208121017D01*
X67833940Y-208432471D01*
X67581158Y-208812838D01*
X67054936Y-208716629D01*
X66022514Y-208147043D01*
X65013737Y-207294224D01*
X64266413Y-206192867D01*
X63710952Y-205160446D01*
X62886079Y-204066364D01*
X62294514Y-203471992D01*
X77071606Y-203471992D01*
X77432073Y-203632224D01*
X77663913Y-203600620D01*
X77724027Y-203340270D01*
X77659841Y-203287858D01*
X77140119Y-203340270D01*
X77071606Y-203471992D01*
X62294514Y-203471992D01*
X62007409Y-203183525D01*
X61251297Y-202686748D01*
X60794101Y-202750849D01*
X60345813Y-203062837D01*
X59532594Y-202786168D01*
X59287935Y-202634351D01*
X58752548Y-201895420D01*
X58601039Y-200604921D01*
X58618143Y-200038237D01*
X58821723Y-199094184D01*
X59380675Y-198345084D01*
X60450344Y-197624612D01*
X62186072Y-196766443D01*
X63533558Y-196200187D01*
X64465062Y-195996077D01*
X64735273Y-196290817D01*
X64379334Y-197089584D01*
X64209133Y-197374158D01*
X64123411Y-197740707D01*
X64568401Y-197810833D01*
X65709705Y-197654905D01*
X66138044Y-197588694D01*
X67034228Y-197499191D01*
X67268863Y-197642481D01*
X66993510Y-198067244D01*
X66703438Y-198566030D01*
X66682042Y-199219386D01*
X66691083Y-199232840D01*
X67286014Y-199439312D01*
X68315611Y-199395962D01*
X69406253Y-199152108D01*
X70184315Y-198757072D01*
X70633678Y-198434510D01*
X71006452Y-198570101D01*
X70970292Y-199471879D01*
X70886442Y-200029494D01*
X71002827Y-200475429D01*
X71562338Y-200406096D01*
X72719921Y-199855467D01*
X72874907Y-199775659D01*
X73758600Y-199397924D01*
X74308913Y-199505156D01*
X74908622Y-200148627D01*
X75721936Y-201153027D01*
X77231557Y-200290284D01*
X77373564Y-200210347D01*
X78238697Y-199813273D01*
X79165904Y-199625897D01*
X80423376Y-199620553D01*
X82279306Y-199769576D01*
X82332429Y-199774741D01*
X84421926Y-200051166D01*
X85781203Y-200416121D01*
X86551478Y-200907212D01*
X86963394Y-201312586D01*
X86947362Y-201187670D01*
X86943348Y-200784528D01*
X87703449Y-200463347D01*
X88606770Y-200378943D01*
X89068518Y-200639814D01*
X88760858Y-201292792D01*
X88548091Y-201615805D01*
X88606896Y-201880500D01*
X88913830Y-201730950D01*
X89500575Y-201114809D01*
X89526980Y-201079138D01*
X90100529Y-200577337D01*
X90385339Y-200842784D01*
X90282593Y-201790142D01*
X89984474Y-202336436D01*
X89020728Y-202739176D01*
X87525480Y-202563221D01*
X85576463Y-201808272D01*
X85506871Y-201774573D01*
X84201131Y-201230126D01*
X83220387Y-201104932D01*
X82170782Y-201345470D01*
X80716556Y-201830757D01*
X82291419Y-201600566D01*
X83460805Y-201561982D01*
X84481074Y-201978389D01*
X85107054Y-202495075D01*
X86191358Y-203013995D01*
X87625891Y-203340270D01*
X87721954Y-203362119D01*
X89913108Y-203603552D01*
G37*
G36*
X77349429Y-206971640D02*
G01*
X77438177Y-206992987D01*
X78650953Y-207434454D01*
X79104838Y-207944331D01*
X78742206Y-208460995D01*
X78348280Y-208669196D01*
X77123123Y-208829932D01*
X76134201Y-208249683D01*
X76043560Y-208132976D01*
X75812921Y-207376490D01*
X76292390Y-206942915D01*
X77349429Y-206971640D01*
G37*
G36*
X86488050Y-205909855D02*
G01*
X86986059Y-206100169D01*
X87783930Y-206551131D01*
X87763990Y-206975747D01*
X86957073Y-207477042D01*
X86504728Y-207671697D01*
X84828068Y-207927449D01*
X83388643Y-207354398D01*
X83218987Y-207221037D01*
X82813488Y-206665811D01*
X83113817Y-206054533D01*
X83149179Y-206012763D01*
X83888803Y-205493085D01*
X84928571Y-205461921D01*
X86488050Y-205909855D01*
G37*
G36*
X94713966Y-204593453D02*
G01*
X95825177Y-204937075D01*
X96080843Y-205154168D01*
X95947255Y-205468746D01*
X95058797Y-205849071D01*
X94910606Y-205902901D01*
X94005371Y-206346607D01*
X93635522Y-206740582D01*
X93551647Y-207064309D01*
X93104927Y-206982599D01*
X92199802Y-206240210D01*
X91771598Y-205813498D01*
X91525512Y-205315350D01*
X91889665Y-204933123D01*
X92075435Y-204834071D01*
X93294277Y-204558948D01*
X94713966Y-204593453D01*
G37*
G36*
X88229325Y-196163498D02*
G01*
X87661242Y-196931024D01*
X87040970Y-198134227D01*
X86980292Y-199143384D01*
X87044097Y-199534805D01*
X86963974Y-200049944D01*
X86438602Y-199981515D01*
X86003229Y-199834206D01*
X85310295Y-199690845D01*
X84921093Y-199531632D01*
X84205695Y-198957077D01*
X84155197Y-198907245D01*
X83433810Y-198468008D01*
X82647598Y-198738111D01*
X82113693Y-199012523D01*
X81093195Y-199250505D01*
X80346699Y-199094394D01*
X80137031Y-198562568D01*
X80384054Y-198236169D01*
X80703261Y-197990051D01*
X81300486Y-197990051D01*
X81303922Y-198154595D01*
X81893947Y-198108120D01*
X83155980Y-198054606D01*
X84509493Y-198552330D01*
X84881114Y-198792106D01*
X85838034Y-199198241D01*
X86434132Y-199144835D01*
X86481365Y-198624963D01*
X86474314Y-198334342D01*
X86831811Y-197431255D01*
X87560291Y-196336142D01*
X87998200Y-195745881D01*
X88474411Y-194924133D01*
X88493565Y-194546399D01*
X88224910Y-194590501D01*
X87288551Y-194942793D01*
X85882565Y-195569531D01*
X84192786Y-196391010D01*
X83293875Y-196848274D01*
X81943763Y-197569580D01*
X81300486Y-197990051D01*
X80703261Y-197990051D01*
X81270337Y-197552818D01*
X82608384Y-196699739D01*
X84198776Y-195789596D01*
X85842094Y-194935057D01*
X87338919Y-194248789D01*
X88489832Y-193843457D01*
X88628555Y-193810135D01*
X89411001Y-193732598D01*
X89611232Y-194045962D01*
X89361639Y-194546399D01*
X89220316Y-194829753D01*
X88229325Y-196163498D01*
G37*
G36*
X102156728Y-78490981D02*
G01*
X101758473Y-80098034D01*
X101599873Y-81183142D01*
X101688268Y-81964454D01*
X102030996Y-82660123D01*
X102635395Y-83488301D01*
X103752509Y-84952914D01*
X100921435Y-84952914D01*
X100014021Y-84988533D01*
X97416024Y-85468477D01*
X95051751Y-86429027D01*
X93129342Y-87768417D01*
X91856934Y-89384881D01*
X91325147Y-90592786D01*
X90484540Y-93395266D01*
X89899845Y-96671657D01*
X89623035Y-100171017D01*
X89612098Y-100490438D01*
X89491905Y-102223863D01*
X89299470Y-103366312D01*
X89057120Y-103775560D01*
X88925726Y-103716268D01*
X88321771Y-103046296D01*
X87367136Y-101675460D01*
X86099092Y-99659403D01*
X84554909Y-97053767D01*
X84412090Y-96814860D01*
X84095235Y-96456919D01*
X84007495Y-96850816D01*
X84130672Y-97519396D01*
X84675724Y-98949927D01*
X85574582Y-100829706D01*
X86737898Y-103005421D01*
X88076321Y-105323756D01*
X89500501Y-107631400D01*
X90921089Y-109775039D01*
X92248734Y-111601359D01*
X93394086Y-112957046D01*
X94599691Y-114215426D01*
X91143106Y-117648825D01*
X90750716Y-118040728D01*
X88513283Y-120359552D01*
X86491344Y-122593113D01*
X84768953Y-124637971D01*
X83430160Y-126390691D01*
X82559017Y-127747831D01*
X82239577Y-128605956D01*
X82239260Y-128612650D01*
X81975925Y-129189855D01*
X81373453Y-130059810D01*
X80807198Y-131160423D01*
X80534343Y-132602848D01*
X80644942Y-133955336D01*
X81154487Y-134877052D01*
X81510028Y-135240195D01*
X81811384Y-135847094D01*
X81902553Y-136186844D01*
X82503036Y-137165680D01*
X83531723Y-138443498D01*
X84832220Y-139845920D01*
X86248133Y-141198569D01*
X87623067Y-142327065D01*
X87708768Y-142390248D01*
X88977564Y-143355142D01*
X89938942Y-144138383D01*
X90390673Y-144575664D01*
X90284339Y-145009696D01*
X89714300Y-145906558D01*
X88801005Y-147037229D01*
X88020223Y-147953472D01*
X86468237Y-150140549D01*
X85489241Y-152310132D01*
X84977337Y-154747330D01*
X84826625Y-157737250D01*
X84819779Y-161985380D01*
X83644030Y-161528575D01*
X83621618Y-161519895D01*
X82386424Y-161096098D01*
X80879004Y-160652634D01*
X79321406Y-160244384D01*
X77935673Y-159926227D01*
X76943850Y-159753041D01*
X76567985Y-159779706D01*
X76571265Y-159793243D01*
X77004213Y-160118629D01*
X78021820Y-160666756D01*
X79419721Y-161326758D01*
X83347050Y-163363006D01*
X87003723Y-165836885D01*
X90116537Y-168572533D01*
X92519500Y-171441777D01*
X92827015Y-171904131D01*
X94331405Y-174799217D01*
X95450812Y-178242113D01*
X96232545Y-182372080D01*
X96439784Y-183621454D01*
X96974560Y-185682841D01*
X97630701Y-187066400D01*
X98556841Y-188367043D01*
X97300492Y-189687321D01*
X97286028Y-189702513D01*
X96084447Y-190859039D01*
X95142983Y-191395292D01*
X94193612Y-191386882D01*
X92968312Y-190909418D01*
X91862268Y-190416770D01*
X90862551Y-190126002D01*
X90306912Y-190282806D01*
X90017335Y-190885754D01*
X89528078Y-191532955D01*
X88420417Y-192018251D01*
X88137639Y-192085720D01*
X86726017Y-192511283D01*
X85063947Y-193106567D01*
X83423138Y-193764148D01*
X82075300Y-194376602D01*
X81292142Y-194836506D01*
X80865235Y-195178780D01*
X79866804Y-195946353D01*
X78636384Y-196870838D01*
X77725933Y-197590053D01*
X76881917Y-198369117D01*
X76556211Y-198835043D01*
X76547823Y-198921066D01*
X76165134Y-199252914D01*
X75693615Y-198911529D01*
X75413718Y-198147462D01*
X75508164Y-197425498D01*
X75534067Y-197363606D01*
X75241644Y-197338812D01*
X74436504Y-197683983D01*
X73910836Y-197945873D01*
X72891545Y-198322102D01*
X72450925Y-198170909D01*
X72492875Y-197482325D01*
X72580526Y-197108504D01*
X72512270Y-196814659D01*
X72016288Y-196891137D01*
X70900949Y-197318179D01*
X69849064Y-197683005D01*
X68965220Y-197785072D01*
X68782142Y-197428025D01*
X69330349Y-196625328D01*
X69732403Y-196121978D01*
X69878196Y-195579413D01*
X69312980Y-195507196D01*
X68063890Y-195920430D01*
X67653889Y-196082423D01*
X66732952Y-196307458D01*
X66517876Y-196056469D01*
X67031211Y-195342086D01*
X67248524Y-195015161D01*
X66938232Y-194898020D01*
X65907505Y-195012688D01*
X65237700Y-195096434D01*
X64559878Y-195056753D01*
X64551236Y-194723720D01*
X65233148Y-194035465D01*
X66626989Y-192930121D01*
X67766066Y-192099659D01*
X68618023Y-191649047D01*
X69345558Y-191584723D01*
X70236377Y-191818042D01*
X71026142Y-192051862D01*
X72149209Y-192236050D01*
X72613477Y-192086679D01*
X72352802Y-191655041D01*
X71301039Y-190992431D01*
X70655826Y-190644711D01*
X69413273Y-189902201D01*
X68588792Y-189311766D01*
X68524663Y-189252989D01*
X67702593Y-187934545D01*
X67521124Y-186314420D01*
X67929395Y-184612961D01*
X68876545Y-183050515D01*
X70311714Y-181847430D01*
X71875356Y-180953813D01*
X76193793Y-182439570D01*
X77460041Y-182857048D01*
X79300890Y-183399930D01*
X80796758Y-183765410D01*
X81709220Y-183890754D01*
X81752647Y-183889354D01*
X82392223Y-183792578D01*
X82249315Y-183606123D01*
X81938402Y-183467345D01*
X81373453Y-183072974D01*
X81365784Y-183064119D01*
X80842609Y-182747456D01*
X79748040Y-182213224D01*
X78307935Y-181572010D01*
X77389958Y-181159629D01*
X73599216Y-179081457D01*
X69957165Y-176531328D01*
X66827242Y-173756650D01*
X64294142Y-171175910D01*
X64294142Y-161489662D01*
X66155349Y-159787226D01*
X67090756Y-158992589D01*
X69233990Y-157575046D01*
X71330082Y-156689730D01*
X73219928Y-156393061D01*
X74744424Y-156741458D01*
X75132044Y-156935846D01*
X75570675Y-157051305D01*
X75493754Y-156745099D01*
X74869159Y-155974246D01*
X73664766Y-154695768D01*
X71848453Y-152866685D01*
X70089613Y-151035053D01*
X67629805Y-148040277D01*
X65493629Y-144781273D01*
X64605545Y-143218778D01*
X63820335Y-141708722D01*
X63332981Y-140610848D01*
X63224205Y-140091952D01*
X63316382Y-139984018D01*
X64017694Y-139460342D01*
X65090235Y-138834645D01*
X65440185Y-138629733D01*
X66775876Y-137644085D01*
X68408621Y-136234597D01*
X70140646Y-134586634D01*
X71774174Y-132885563D01*
X73111430Y-131316750D01*
X73578605Y-130679835D01*
X74337697Y-129429330D01*
X75089785Y-127857622D01*
X75914669Y-125790291D01*
X76892147Y-123052914D01*
X76965599Y-122838649D01*
X77430832Y-121350155D01*
X77738769Y-119977315D01*
X77920915Y-118472390D01*
X78008777Y-116587641D01*
X78033859Y-114075328D01*
X78034000Y-113919356D01*
X77996289Y-111161889D01*
X77868131Y-109069094D01*
X77630394Y-107442363D01*
X77263945Y-106083086D01*
X76914780Y-105140089D01*
X76460871Y-104162867D01*
X76146700Y-103783948D01*
X76086008Y-103875401D01*
X75942423Y-104641641D01*
X75793441Y-106060096D01*
X75653463Y-107978212D01*
X75536892Y-110243431D01*
X75409840Y-112690497D01*
X75116729Y-116037853D01*
X74687927Y-118803225D01*
X74092826Y-121165373D01*
X73300820Y-123303059D01*
X73086939Y-123792909D01*
X72175016Y-125780401D01*
X71274581Y-127604473D01*
X70470320Y-129105282D01*
X69846917Y-130122986D01*
X69489058Y-130497741D01*
X69456447Y-130502469D01*
X69009320Y-130921336D01*
X68454808Y-131810915D01*
X68201954Y-132225020D01*
X67049108Y-133559001D01*
X65358418Y-135084857D01*
X63310910Y-136659572D01*
X61087614Y-138140129D01*
X58869556Y-139383512D01*
X57041370Y-140192500D01*
X54200658Y-141182541D01*
X51193135Y-141992834D01*
X48330121Y-142542417D01*
X45922935Y-142750333D01*
X44889316Y-142807373D01*
X44392683Y-142994435D01*
X44686828Y-143281010D01*
X45732935Y-143635529D01*
X47492184Y-144026426D01*
X49028968Y-144262956D01*
X50637305Y-144287130D01*
X52223543Y-143988447D01*
X52590793Y-143895258D01*
X53930257Y-143690243D01*
X54573778Y-143870888D01*
X54714798Y-144024737D01*
X55460356Y-144636626D01*
X56531764Y-145391305D01*
X56893466Y-145651631D01*
X58317970Y-147199002D01*
X59498647Y-149439577D01*
X60443873Y-152405168D01*
X61162025Y-156127587D01*
X61661481Y-160638645D01*
X61950615Y-165970155D01*
X61961037Y-166277359D01*
X62097838Y-169065548D01*
X62291669Y-171510694D01*
X62525532Y-173435198D01*
X62782429Y-174661460D01*
X62783928Y-174666126D01*
X63115892Y-175824407D01*
X63126402Y-176330283D01*
X62818939Y-176344219D01*
X62491747Y-176286230D01*
X61626843Y-176507655D01*
X61553887Y-176554919D01*
X61235527Y-177015850D01*
X61548105Y-177760628D01*
X61804641Y-178355812D01*
X61679560Y-178881084D01*
X61298107Y-178822749D01*
X60777185Y-178206983D01*
X60516268Y-177781274D01*
X60119835Y-177546484D01*
X59788770Y-178078722D01*
X59465549Y-179431698D01*
X59152571Y-181078776D01*
X58818642Y-179638393D01*
X58696773Y-179199503D01*
X58235503Y-178464309D01*
X57650713Y-178591039D01*
X56971367Y-179580600D01*
X56436523Y-180640845D01*
X56147509Y-179203884D01*
X55682484Y-178004004D01*
X54360504Y-176325952D01*
X52322591Y-174666323D01*
X49655806Y-173106884D01*
X49290842Y-172922207D01*
X47862797Y-172169382D01*
X46810146Y-171566667D01*
X46338970Y-171230636D01*
X46274611Y-171160233D01*
X45624591Y-170707621D01*
X44587246Y-170131602D01*
X44134363Y-169885728D01*
X42701931Y-168991022D01*
X41304209Y-167990324D01*
X40737607Y-167549043D01*
X39558640Y-166631050D01*
X38709508Y-165970155D01*
X37272690Y-164729111D01*
X35312571Y-162691946D01*
X33577483Y-160523709D01*
X32324742Y-158524476D01*
X31706303Y-157071166D01*
X31050523Y-154176300D01*
X30938739Y-150782618D01*
X31371039Y-146827647D01*
X32347509Y-142248914D01*
X32794874Y-140421140D01*
X33113840Y-138858416D01*
X33180476Y-137977154D01*
X32999264Y-137691904D01*
X32574683Y-137917222D01*
X32502811Y-137974961D01*
X31955821Y-138148366D01*
X31479855Y-137561704D01*
X30999085Y-136293817D01*
X31096636Y-135064621D01*
X31927892Y-134278169D01*
X33455822Y-134001190D01*
X34255625Y-133815339D01*
X34514832Y-133111583D01*
X34408050Y-132566392D01*
X33912661Y-131990902D01*
X33708265Y-131718638D01*
X33438956Y-130693136D01*
X33217768Y-129075401D01*
X33053868Y-127034390D01*
X32956424Y-124739060D01*
X32934601Y-122358365D01*
X32997567Y-120061262D01*
X33154488Y-118016707D01*
X33580201Y-115068623D01*
X34423467Y-111251330D01*
X35523850Y-107757049D01*
X36821253Y-104768938D01*
X38255578Y-102470155D01*
X38588703Y-102060858D01*
X40299652Y-100229490D01*
X42428128Y-98249844D01*
X44706033Y-96360733D01*
X46865265Y-94800970D01*
X47998278Y-94093940D01*
X49665566Y-93131991D01*
X51391469Y-92201486D01*
X52973538Y-91407162D01*
X54209324Y-90853760D01*
X54896376Y-90646017D01*
X55051250Y-90604616D01*
X55821498Y-90298909D01*
X56963570Y-89793302D01*
X57459532Y-89576204D01*
X59414869Y-88829948D01*
X61728857Y-88058091D01*
X64026141Y-87380947D01*
X65931362Y-86918830D01*
X66409916Y-86814967D01*
X67342950Y-86505585D01*
X67453443Y-86260681D01*
X66781785Y-86133461D01*
X65368363Y-86177132D01*
X64388382Y-86223011D01*
X63373757Y-86162088D01*
X62980349Y-85975787D01*
X63126093Y-85721402D01*
X63792920Y-84975797D01*
X64849006Y-83927055D01*
X66127083Y-82730545D01*
X67459880Y-81541634D01*
X68680127Y-80515690D01*
X69620554Y-79808080D01*
X70614476Y-79081164D01*
X71173004Y-78622724D01*
X93635522Y-78622724D01*
X93694607Y-79538700D01*
X94055344Y-80128603D01*
X94949315Y-80420328D01*
X95129318Y-80459331D01*
X96013314Y-80875334D01*
X96263108Y-81652878D01*
X96458939Y-82357154D01*
X97378541Y-83130895D01*
X97506987Y-83188520D01*
X98802852Y-83594481D01*
X99596631Y-83383735D01*
X100029772Y-82523898D01*
X100095513Y-82226185D01*
X100111226Y-81335084D01*
X99770935Y-81115754D01*
X99168463Y-81662073D01*
X98918480Y-81938703D01*
X98115379Y-82233493D01*
X97429451Y-81837666D01*
X97138970Y-80861055D01*
X97121302Y-80549579D01*
X96766846Y-79888811D01*
X95776222Y-79534674D01*
X95502607Y-79478146D01*
X94777617Y-79220088D01*
X94570452Y-78698891D01*
X94709422Y-77679219D01*
X95893983Y-77679219D01*
X95998524Y-78265342D01*
X96148018Y-78258561D01*
X96228534Y-77690557D01*
X96158407Y-77260094D01*
X95963951Y-77425974D01*
X95893983Y-77679219D01*
X94709422Y-77679219D01*
X94717666Y-77618726D01*
X95102388Y-76085013D01*
X95116622Y-76049169D01*
X96263108Y-76049169D01*
X96365536Y-76536432D01*
X96788625Y-76281879D01*
X96830578Y-76240375D01*
X97496558Y-75788191D01*
X97789233Y-76115311D01*
X97720068Y-77233446D01*
X97699756Y-77370804D01*
X97693989Y-77690557D01*
X97681086Y-78406035D01*
X97903305Y-78971917D01*
X98143168Y-78855105D01*
X98105775Y-78080025D01*
X98042975Y-77698167D01*
X98111254Y-77156113D01*
X98606969Y-77203672D01*
X98673421Y-77228171D01*
X99242841Y-77246667D01*
X99190703Y-76725265D01*
X98520974Y-75731849D01*
X98164595Y-75373944D01*
X97287054Y-74997750D01*
X96563804Y-75235392D01*
X96263108Y-76049169D01*
X95116622Y-76049169D01*
X95699634Y-74580993D01*
X96366694Y-73526414D01*
X96998176Y-73128776D01*
X97134257Y-73151550D01*
X97886426Y-73606387D01*
X98754494Y-74461065D01*
X99007771Y-74751344D01*
X99699346Y-75423432D01*
X100072306Y-75596590D01*
X100138420Y-75360407D01*
X99877368Y-74593446D01*
X99272784Y-73624484D01*
X98505473Y-72722176D01*
X97756237Y-72155174D01*
X97425388Y-72015872D01*
X96612673Y-71933732D01*
X95868897Y-72502609D01*
X95287375Y-73289444D01*
X94466206Y-74977163D01*
X93867324Y-76887180D01*
X93635522Y-78622724D01*
X71173004Y-78622724D01*
X71738970Y-78158179D01*
X72427756Y-77640595D01*
X73715869Y-76814298D01*
X75365366Y-75837676D01*
X77217097Y-74796188D01*
X79111912Y-73775298D01*
X80890658Y-72860467D01*
X82394185Y-72137157D01*
X83463342Y-71690829D01*
X83938979Y-71606946D01*
X83914994Y-71938068D01*
X83631709Y-72881126D01*
X83139454Y-74188427D01*
X82735542Y-75276059D01*
X82397506Y-76450312D01*
X82335469Y-77109654D01*
X82336604Y-77112908D01*
X82629375Y-77016346D01*
X83255683Y-76288659D01*
X84125722Y-75063255D01*
X85149683Y-73473540D01*
X86237757Y-71652923D01*
X87300135Y-69734810D01*
X87873244Y-68713146D01*
X88470393Y-67791082D01*
X88817586Y-67435672D01*
X89189130Y-67081983D01*
X89664081Y-66231362D01*
X89755110Y-66046452D01*
X90422477Y-64923988D01*
X91465378Y-63350241D01*
X92749250Y-61514561D01*
X94139527Y-59606299D01*
X95501645Y-57814806D01*
X96701039Y-56329432D01*
X97206540Y-55720134D01*
X98350736Y-54277416D01*
X99278368Y-53031056D01*
X100322939Y-51545406D01*
X99197196Y-51760606D01*
X98347730Y-51820375D01*
X97531247Y-51641939D01*
X97474298Y-51459731D01*
X98149973Y-51206246D01*
X99687639Y-50948517D01*
X102079309Y-50688220D01*
X102647163Y-50596503D01*
X103244704Y-50247833D01*
X103028025Y-49795971D01*
X102004485Y-49370473D01*
X101737758Y-49295253D01*
X100794162Y-48897303D01*
X100358435Y-48510662D01*
X100516433Y-48273470D01*
X101354010Y-48323866D01*
X101498480Y-48352139D01*
X102865564Y-48595689D01*
X104364832Y-48834965D01*
X106116556Y-49095246D01*
X104802763Y-47976255D01*
X104495269Y-47700726D01*
X103968659Y-47096925D01*
X104004997Y-46855089D01*
X104022725Y-46855600D01*
X104723928Y-47102376D01*
X105913837Y-47709918D01*
X107371839Y-48546633D01*
X108877323Y-49480932D01*
X110209677Y-50381224D01*
X111148288Y-51115918D01*
X111212426Y-51173523D01*
X112094485Y-51835490D01*
X112734755Y-52108086D01*
X113135247Y-52305837D01*
X113980649Y-53005428D01*
X115008052Y-54036103D01*
X115833746Y-54893603D01*
X116594668Y-55592842D01*
X116952358Y-55796997D01*
X116979254Y-55790024D01*
X117424220Y-56110501D01*
X118276512Y-56935344D01*
X119406133Y-58121969D01*
X120683088Y-59527790D01*
X121977381Y-61010225D01*
X123159016Y-62426689D01*
X124097997Y-63634597D01*
X124492238Y-64209761D01*
X125312716Y-65540609D01*
X126229460Y-67141859D01*
X127133016Y-68809267D01*
X127913928Y-70338590D01*
X128462743Y-71525584D01*
X128670004Y-72166004D01*
X128548543Y-72209044D01*
X127753062Y-72243295D01*
X126379232Y-72219173D01*
X124619142Y-72138006D01*
X122514667Y-71944440D01*
X119105324Y-71343143D01*
X115224425Y-70326610D01*
X115201016Y-70319703D01*
X112379248Y-69525557D01*
X110255248Y-69025640D01*
X108709139Y-68802606D01*
X107621041Y-68839106D01*
X106871077Y-69117794D01*
X106830881Y-69144269D01*
X105968911Y-70039089D01*
X104980333Y-71539855D01*
X103982924Y-73425110D01*
X103143471Y-75360407D01*
X103094460Y-75473399D01*
X102504748Y-77246667D01*
X102432716Y-77463268D01*
X102156728Y-78490981D01*
G37*
G36*
X125237653Y-197428993D02*
G01*
X126106389Y-197694142D01*
X126480349Y-197988826D01*
X126264193Y-198229296D01*
X125495004Y-198370346D01*
X125047192Y-198330980D01*
X124142091Y-198074465D01*
X123503547Y-197701812D01*
X123427515Y-197357942D01*
X123534729Y-197301184D01*
X124253860Y-197271850D01*
X125237653Y-197428993D01*
G37*
G36*
X44430760Y-193365738D02*
G01*
X45455183Y-193678421D01*
X46642817Y-194105811D01*
X47696583Y-194542152D01*
X48319400Y-194881687D01*
X48601775Y-195035952D01*
X49603281Y-195378480D01*
X50950439Y-195711169D01*
X53126901Y-196163385D01*
X51062247Y-195966930D01*
X50454780Y-195868158D01*
X49171822Y-195538477D01*
X47681414Y-195064833D01*
X46193222Y-194525024D01*
X44916915Y-193996848D01*
X44062162Y-193558102D01*
X43838631Y-193286586D01*
X43866627Y-193273520D01*
X44430760Y-193365738D01*
G37*
G36*
X109508998Y-169702842D02*
G01*
X110312020Y-170305173D01*
X111435114Y-171490103D01*
X112494805Y-172778547D01*
X113721214Y-174498141D01*
X114756203Y-176183835D01*
X115472886Y-177625856D01*
X115744379Y-178614430D01*
X115744433Y-178618226D01*
X116113316Y-179283654D01*
X116983428Y-179904536D01*
X117084424Y-179953698D01*
X118109071Y-180638724D01*
X118451631Y-181499902D01*
X118237830Y-182830500D01*
X117995978Y-183526611D01*
X117570998Y-183974145D01*
X116745993Y-184224108D01*
X115283901Y-184402673D01*
X114745067Y-184459324D01*
X113641958Y-184623064D01*
X113310063Y-184793967D01*
X113670866Y-185001163D01*
X114295646Y-185287679D01*
X114656211Y-185651791D01*
X114392406Y-186146165D01*
X113494604Y-186954952D01*
X112134960Y-187874251D01*
X110495866Y-188767469D01*
X109753051Y-189147908D01*
X108034498Y-190155042D01*
X106399076Y-191261797D01*
X105018420Y-192338760D01*
X104064162Y-193256517D01*
X103707935Y-193885655D01*
X103707728Y-193922158D01*
X103573079Y-194308712D01*
X103056221Y-194002042D01*
X103048631Y-193995756D01*
X102476154Y-193708444D01*
X102128566Y-194180256D01*
X102041272Y-194396711D01*
X101773688Y-194669987D01*
X101338021Y-194195581D01*
X100992389Y-193813320D01*
X100530882Y-193806265D01*
X99747573Y-194363979D01*
X99452706Y-194596408D01*
X98708486Y-195052682D01*
X98529811Y-194846099D01*
X98904912Y-193971175D01*
X98959635Y-193868140D01*
X99181865Y-193340870D01*
X99011809Y-193157538D01*
X98305759Y-193303011D01*
X96920004Y-193762157D01*
X96044142Y-194063874D01*
X96920004Y-193515184D01*
X97334886Y-193210224D01*
X98369400Y-192182423D01*
X99425037Y-190861757D01*
X100342973Y-189477550D01*
X100964381Y-188259130D01*
X101130437Y-187435819D01*
X101123790Y-187407482D01*
X100708953Y-186643983D01*
X99942800Y-185733860D01*
X99715416Y-185500802D01*
X98945900Y-184497954D01*
X98941379Y-183885522D01*
X99719851Y-183636857D01*
X101299315Y-183725310D01*
X101812243Y-183786171D01*
X102991952Y-183863369D01*
X103560576Y-183732886D01*
X103707935Y-183366441D01*
X103657671Y-183187933D01*
X103056433Y-182589015D01*
X101993459Y-182020638D01*
X101590789Y-181852339D01*
X100573711Y-181353151D01*
X100062245Y-180983952D01*
X99988360Y-180539451D01*
X100074631Y-179483408D01*
X100307130Y-178225224D01*
X100615836Y-177123455D01*
X100930728Y-176536661D01*
X101337150Y-176025319D01*
X101836485Y-175078664D01*
X102139012Y-174587619D01*
X103123351Y-173489906D01*
X104486447Y-172249403D01*
X105991495Y-171060759D01*
X107401690Y-170118621D01*
X108480228Y-169617640D01*
X108829408Y-169558503D01*
X109508998Y-169702842D01*
G37*
G36*
X63563730Y-178351108D02*
G01*
X63773695Y-179102474D01*
X63856211Y-180316572D01*
X63852976Y-180712768D01*
X63720901Y-181929223D01*
X63250584Y-182790263D01*
X62245202Y-183710537D01*
X62047715Y-183873561D01*
X60839080Y-184947222D01*
X59503934Y-186229282D01*
X58196366Y-187559322D01*
X57070466Y-188776920D01*
X56280324Y-189721658D01*
X55980027Y-190233115D01*
X55812372Y-190549319D01*
X55146868Y-191328198D01*
X54148861Y-192313288D01*
X53372130Y-192960253D01*
X52198761Y-193708125D01*
X51318737Y-193997741D01*
X50982103Y-193969985D01*
X49754917Y-193698595D01*
X48149386Y-193210387D01*
X46410095Y-192595119D01*
X44781630Y-191942550D01*
X43508577Y-191342439D01*
X42835522Y-190884545D01*
X42770889Y-190823588D01*
X42120790Y-190404954D01*
X41083797Y-189847276D01*
X40532140Y-189558858D01*
X38827868Y-188406808D01*
X37876132Y-187183851D01*
X37580349Y-185777801D01*
X37809210Y-184451157D01*
X38443963Y-183119081D01*
X39311505Y-182125656D01*
X40237756Y-181735672D01*
X40885884Y-182028099D01*
X41087831Y-182777770D01*
X40820814Y-183710070D01*
X40098453Y-184549815D01*
X39113108Y-185281134D01*
X40447525Y-185069882D01*
X40537610Y-185056184D01*
X41926093Y-185061732D01*
X42632679Y-185562898D01*
X42621979Y-186535826D01*
X42494320Y-186985013D01*
X42587349Y-187288100D01*
X43253669Y-187001433D01*
X44108244Y-186716137D01*
X45375282Y-186635398D01*
X45941895Y-186750587D01*
X46505519Y-187228951D01*
X46788037Y-188304638D01*
X47018138Y-189837397D01*
X47560268Y-187759023D01*
X47866800Y-186778683D01*
X48569352Y-185584574D01*
X49738788Y-184640826D01*
X50415277Y-184176896D01*
X51446778Y-183358234D01*
X52300233Y-182567643D01*
X52801753Y-181971373D01*
X52777450Y-181735672D01*
X52306070Y-181839041D01*
X51427390Y-182231214D01*
X50628790Y-182726496D01*
X50280349Y-183119760D01*
X50206761Y-183288321D01*
X49623453Y-183487397D01*
X49318133Y-183417115D01*
X48966556Y-182877975D01*
X48693500Y-182407849D01*
X47871728Y-181993770D01*
X47148486Y-181704491D01*
X46776901Y-181289398D01*
X46642887Y-181053186D01*
X45968913Y-180859810D01*
X45669020Y-180792435D01*
X44949383Y-180405749D01*
X44221120Y-179852547D01*
X43737800Y-179337965D01*
X43752993Y-179067140D01*
X45020376Y-178908588D01*
X46652636Y-178954863D01*
X48122518Y-179212384D01*
X49078530Y-179643132D01*
X49294743Y-179830553D01*
X49845626Y-180240577D01*
X50391428Y-180365449D01*
X51214255Y-180218938D01*
X52596210Y-179814812D01*
X53271086Y-179629201D01*
X54331325Y-179423572D01*
X54855466Y-179449869D01*
X54917662Y-179575934D01*
X55046359Y-180374491D01*
X55097591Y-181589695D01*
X55098015Y-181661955D01*
X55273199Y-182878663D01*
X55675351Y-183501407D01*
X56171919Y-183441821D01*
X56630349Y-182611534D01*
X56918600Y-182100911D01*
X57576721Y-181735672D01*
X58007543Y-181899450D01*
X58474149Y-182611534D01*
X58502510Y-182714997D01*
X58875750Y-183403155D01*
X59347527Y-183222386D01*
X59914832Y-182173603D01*
X60342528Y-181330804D01*
X60911469Y-180881914D01*
X61447591Y-181297741D01*
X61603699Y-181468775D01*
X62349298Y-181735672D01*
X62487784Y-181716250D01*
X62863419Y-181222079D01*
X62980349Y-179983948D01*
X62991516Y-179591283D01*
X63144047Y-178620735D01*
X63418280Y-178232224D01*
X63563730Y-178351108D01*
G37*
G36*
X117738074Y-192683982D02*
G01*
X118654973Y-192814394D01*
X119035522Y-193121879D01*
X119035421Y-193127328D01*
X118644185Y-193432961D01*
X117721728Y-193559810D01*
X117705383Y-193559777D01*
X116788484Y-193429365D01*
X116407935Y-193121879D01*
X116408036Y-193116431D01*
X116799272Y-192810798D01*
X117721728Y-192683948D01*
X117738074Y-192683982D01*
G37*
G36*
X28770928Y-154891791D02*
G01*
X28823741Y-155442055D01*
X29138271Y-156830219D01*
X29617774Y-158135142D01*
X30130800Y-158963259D01*
X30211361Y-159063426D01*
X30640729Y-159760158D01*
X31227719Y-160830173D01*
X31468165Y-161274396D01*
X32136197Y-162336084D01*
X32979916Y-163381015D01*
X34165344Y-164601317D01*
X35858505Y-166189121D01*
X37152110Y-167291561D01*
X38635109Y-168420033D01*
X40064119Y-169398890D01*
X41234994Y-170088559D01*
X41943587Y-170349465D01*
X42274591Y-170460292D01*
X42970638Y-170985075D01*
X43078309Y-171079905D01*
X43917740Y-171648630D01*
X45247899Y-172428613D01*
X46833815Y-173280253D01*
X47256251Y-173499054D01*
X48800827Y-174326137D01*
X50033373Y-175026577D01*
X50718280Y-175467699D01*
X51476410Y-176080705D01*
X52470004Y-176888952D01*
X53564832Y-177782330D01*
X52470004Y-178654436D01*
X51456583Y-179332259D01*
X50597237Y-179466805D01*
X49876396Y-178930062D01*
X49638277Y-178742995D01*
X48643065Y-178365007D01*
X47304671Y-178131877D01*
X46704021Y-178068581D01*
X45388579Y-177860783D01*
X44540352Y-177630168D01*
X44393416Y-177575553D01*
X43813975Y-177727842D01*
X43288944Y-178632756D01*
X43268865Y-178680230D01*
X42524494Y-179760458D01*
X41572459Y-180323133D01*
X40666076Y-180215404D01*
X40071689Y-180261325D01*
X39069179Y-180725837D01*
X37930431Y-181449474D01*
X36916617Y-182265628D01*
X36288914Y-183007690D01*
X36187034Y-183268590D01*
X36037014Y-184453967D01*
X36122462Y-185970117D01*
X36231627Y-186552963D01*
X37170165Y-188618028D01*
X38909264Y-190407862D01*
X41412246Y-191881476D01*
X41999353Y-192156150D01*
X42913262Y-192630628D01*
X43273453Y-192892836D01*
X42910686Y-192907340D01*
X42037557Y-192706289D01*
X41177830Y-192364911D01*
X39699472Y-191504360D01*
X38224812Y-190405266D01*
X37017031Y-189270926D01*
X36339311Y-188304638D01*
X36329043Y-188278782D01*
X35801825Y-186503995D01*
X35551925Y-184719170D01*
X35635456Y-183321562D01*
X35878236Y-182861272D01*
X36671703Y-182005187D01*
X37773975Y-181098050D01*
X38952647Y-180307084D01*
X39975313Y-179799509D01*
X40609568Y-179742549D01*
X41303359Y-179822353D01*
X42207225Y-179279181D01*
X43002791Y-178196811D01*
X43500615Y-177537449D01*
X44393896Y-177293008D01*
X44765436Y-177351973D01*
X45971795Y-177507150D01*
X47433797Y-177666478D01*
X48184199Y-177762240D01*
X49428076Y-178021722D01*
X50149851Y-178313427D01*
X50433307Y-178465130D01*
X51296961Y-178506390D01*
X52106732Y-178197721D01*
X52455593Y-177655299D01*
X52155847Y-177246318D01*
X51279019Y-176518647D01*
X50029227Y-175633109D01*
X48612948Y-174727772D01*
X47236661Y-173940706D01*
X46106842Y-173409978D01*
X45100855Y-172921328D01*
X43554322Y-172029658D01*
X41711530Y-170884864D01*
X39781647Y-169623780D01*
X37973837Y-168383240D01*
X36497268Y-167300077D01*
X35561106Y-166511124D01*
X35291894Y-166247603D01*
X34412737Y-165461759D01*
X33835884Y-165056395D01*
X33668508Y-164920584D01*
X33050145Y-164186818D01*
X32157081Y-162979182D01*
X31121040Y-161471607D01*
X30243367Y-160087372D01*
X29026695Y-157745442D01*
X28457990Y-155839720D01*
X28511429Y-154299234D01*
X28547688Y-154177832D01*
X28689381Y-154143545D01*
X28770928Y-154891791D01*
G37*
G36*
X43633254Y-180663763D02*
G01*
X44228109Y-181514755D01*
X44263606Y-181593836D01*
X44537837Y-182637370D01*
X44230683Y-183519844D01*
X43976280Y-184059049D01*
X44058018Y-184363259D01*
X44539614Y-184190663D01*
X45182421Y-183464051D01*
X45463108Y-182523948D01*
X45525287Y-182098788D01*
X45854185Y-181735672D01*
X45905877Y-181738422D01*
X46394863Y-182151101D01*
X46559121Y-183011982D01*
X46321991Y-183957052D01*
X46105571Y-184498071D01*
X46308154Y-184801190D01*
X46693652Y-184594972D01*
X47239994Y-183878312D01*
X47717661Y-183281947D01*
X48213051Y-183434581D01*
X48274173Y-183502850D01*
X48339559Y-184092543D01*
X47704187Y-184965416D01*
X47198333Y-185424982D01*
X46276219Y-185798223D01*
X45106906Y-185633331D01*
X43469980Y-184928376D01*
X43257561Y-184819889D01*
X42523221Y-184317177D01*
X42281212Y-183655210D01*
X42375153Y-182484987D01*
X42604719Y-181427545D01*
X43066970Y-180647864D01*
X43633254Y-180663763D01*
G37*
G36*
X125236815Y-154930052D02*
G01*
X123858588Y-156285516D01*
X122641816Y-157433203D01*
X121731020Y-158228133D01*
X121270724Y-158525328D01*
X121045398Y-158606593D01*
X120258742Y-159096706D01*
X119205222Y-159883013D01*
X118959602Y-160062052D01*
X117785272Y-160784775D01*
X115998764Y-161780802D01*
X113735107Y-162981497D01*
X111129326Y-164318224D01*
X108316450Y-165722345D01*
X105431506Y-167125224D01*
X102609521Y-168458225D01*
X99985522Y-169652711D01*
X98675699Y-170246066D01*
X97429982Y-170834055D01*
X96701039Y-171207405D01*
X96084474Y-171296887D01*
X95391078Y-170643358D01*
X95342749Y-170573728D01*
X94330496Y-169292900D01*
X93015433Y-167845653D01*
X91610098Y-166444535D01*
X90877533Y-165792258D01*
X102261779Y-165792258D01*
X102410523Y-165880767D01*
X103333466Y-165604793D01*
X105021728Y-164962215D01*
X106645484Y-164244686D01*
X110040882Y-162335885D01*
X113263009Y-160013623D01*
X116080320Y-157454979D01*
X118261269Y-154837030D01*
X119191050Y-153489121D01*
X117925598Y-154583948D01*
X117430192Y-155018183D01*
X116175777Y-156142142D01*
X114891799Y-157316297D01*
X114158361Y-157973787D01*
X113293293Y-158681685D01*
X112841318Y-158958538D01*
X112713796Y-159008183D01*
X112067595Y-159476310D01*
X111152763Y-160277052D01*
X110771282Y-160619377D01*
X109874076Y-161314361D01*
X109312846Y-161590845D01*
X109241381Y-161599636D01*
X108536515Y-161911987D01*
X107556340Y-162532911D01*
X106918437Y-162962152D01*
X105499622Y-163841628D01*
X103985288Y-164714633D01*
X102896110Y-165341387D01*
X102261779Y-165792258D01*
X90877533Y-165792258D01*
X90327034Y-165302093D01*
X89378780Y-164630874D01*
X88971723Y-164415250D01*
X87700998Y-163554001D01*
X86984780Y-162552258D01*
X86709599Y-161173754D01*
X86761985Y-159182224D01*
X86978526Y-157304932D01*
X87523678Y-154732154D01*
X88278885Y-152547150D01*
X89172689Y-150992677D01*
X90023148Y-149948918D01*
X91427501Y-148294768D01*
X92496457Y-147226340D01*
X93366719Y-146673348D01*
X94174994Y-146565507D01*
X95057987Y-146832530D01*
X96152403Y-147404133D01*
X96445015Y-147565622D01*
X100215855Y-149221345D01*
X104566438Y-150458659D01*
X109299626Y-151232876D01*
X114218280Y-151499309D01*
X114269024Y-151499264D01*
X117305842Y-151394773D01*
X119572446Y-151077967D01*
X121151611Y-150530358D01*
X122126113Y-149733465D01*
X122234222Y-149593856D01*
X122801783Y-149094338D01*
X123195509Y-149328197D01*
X123245508Y-149394928D01*
X123799931Y-149649565D01*
X124928608Y-149717891D01*
X126774627Y-149611221D01*
X127910351Y-149518235D01*
X129082316Y-149458145D01*
X129637583Y-149535401D01*
X129732512Y-149786138D01*
X129523467Y-150246492D01*
X129473811Y-150330021D01*
X128894993Y-151066796D01*
X127899540Y-152175713D01*
X126653481Y-153489121D01*
X126631973Y-153511792D01*
X125236815Y-154930052D01*
G37*
G36*
X100204487Y-170568431D02*
G01*
X99985522Y-170787397D01*
X99766556Y-170568431D01*
X99985522Y-170349465D01*
X100204487Y-170568431D01*
G37*
G36*
X69220866Y-155051378D02*
G01*
X68908906Y-155156787D01*
X67882929Y-155562717D01*
X67359660Y-155867060D01*
X67317093Y-155914670D01*
X66746866Y-156403858D01*
X65826901Y-157103518D01*
X65629830Y-157244753D01*
X64734950Y-157829265D01*
X64219455Y-158073523D01*
X64032139Y-157928649D01*
X63764696Y-157140865D01*
X63489420Y-155610048D01*
X63192188Y-153270155D01*
X62769919Y-150623546D01*
X62039519Y-148324686D01*
X60880324Y-146256978D01*
X59148453Y-144093916D01*
X58409112Y-143101408D01*
X58228826Y-142266184D01*
X58854426Y-142266184D01*
X58902504Y-142880826D01*
X59445451Y-143702803D01*
X60412170Y-144833266D01*
X62022946Y-147321028D01*
X62956749Y-149766707D01*
X63189327Y-150799074D01*
X63586066Y-152651747D01*
X63964955Y-154507274D01*
X64513108Y-157277151D01*
X66483797Y-155938519D01*
X67274229Y-155438776D01*
X68441023Y-154832064D01*
X69220866Y-154591917D01*
X69625384Y-154521290D01*
X69987246Y-154146017D01*
X69975410Y-154042082D01*
X69574023Y-153708086D01*
X69393238Y-153663069D01*
X68582888Y-153114356D01*
X67409021Y-152046430D01*
X65992012Y-150591291D01*
X64452236Y-148880936D01*
X62910066Y-147047363D01*
X61485877Y-145222572D01*
X60300043Y-143538560D01*
X59915827Y-142992311D01*
X59247249Y-142291490D01*
X58854426Y-142266184D01*
X58228826Y-142266184D01*
X58225486Y-142250710D01*
X58804270Y-141731619D01*
X58885883Y-141712812D01*
X59546394Y-141983754D01*
X60318994Y-142716473D01*
X60960724Y-143636572D01*
X61228625Y-144469655D01*
X61247011Y-144610304D01*
X61645518Y-144949465D01*
X61924197Y-145113502D01*
X62598876Y-145831313D01*
X63422392Y-146926131D01*
X63605548Y-147184489D01*
X64760526Y-148616221D01*
X66181831Y-150157827D01*
X67667456Y-151609774D01*
X69015396Y-152772529D01*
X70023645Y-153446560D01*
X70360896Y-153622423D01*
X70806252Y-154095014D01*
X70764960Y-154146017D01*
X70435320Y-154553186D01*
X69220866Y-155051378D01*
G37*
G36*
X28298423Y-151737397D02*
G01*
X28299025Y-151841106D01*
X28240309Y-152526668D01*
X28096542Y-152512110D01*
X28016204Y-152152267D01*
X28080315Y-151198317D01*
X28101986Y-151123021D01*
X28235275Y-151058185D01*
X28298423Y-151737397D01*
G37*
G36*
X101944556Y-45959135D02*
G01*
X102317154Y-46402984D01*
X102276016Y-46598088D01*
X101645453Y-46719340D01*
X100247930Y-46598376D01*
X98776347Y-46507295D01*
X98058479Y-46755955D01*
X98112844Y-47380941D01*
X98916660Y-48413312D01*
X99818488Y-49373264D01*
X97931315Y-49662024D01*
X97561692Y-49729720D01*
X96110088Y-50169427D01*
X95000081Y-50747160D01*
X93956020Y-51543537D01*
X95343926Y-52027363D01*
X96731832Y-52511190D01*
X95114757Y-54827741D01*
X94309638Y-55957528D01*
X93593135Y-56913787D01*
X93209251Y-57363259D01*
X93040507Y-57529591D01*
X92445960Y-58295059D01*
X91688160Y-59393244D01*
X90936789Y-60563942D01*
X90361533Y-61546945D01*
X90132073Y-62082048D01*
X89949065Y-62501817D01*
X89330966Y-63207675D01*
X88973720Y-63615712D01*
X88234997Y-64739537D01*
X87507548Y-66115344D01*
X87190023Y-66739217D01*
X86348174Y-67965294D01*
X85571586Y-68539074D01*
X84501516Y-68829257D01*
X82746265Y-69346534D01*
X81500538Y-69771870D01*
X80935522Y-70049493D01*
X80585646Y-70270027D01*
X79624173Y-70757968D01*
X78307935Y-71369177D01*
X78244925Y-71397566D01*
X76471052Y-72306045D01*
X74375665Y-73537342D01*
X72178228Y-74945587D01*
X70098203Y-76384912D01*
X68355054Y-77709446D01*
X67168244Y-78773321D01*
X66836557Y-79113610D01*
X66031315Y-79844407D01*
X65554563Y-80135672D01*
X65410289Y-80195170D01*
X64734267Y-80726451D01*
X63712742Y-81672149D01*
X62511135Y-82865425D01*
X61294866Y-84139440D01*
X60229353Y-85327355D01*
X59480016Y-86262331D01*
X59345979Y-86443022D01*
X58580935Y-87251880D01*
X57971372Y-87580500D01*
X57638210Y-87620995D01*
X56515627Y-87895845D01*
X54995365Y-88354108D01*
X53352940Y-88905574D01*
X51863872Y-89460036D01*
X50803676Y-89927287D01*
X50106761Y-90287661D01*
X48730129Y-90992178D01*
X47214832Y-91761878D01*
X47021714Y-91860204D01*
X45097258Y-92936132D01*
X43359255Y-94136081D01*
X41562648Y-95646269D01*
X39462381Y-97652914D01*
X37735640Y-99513729D01*
X35027647Y-103288577D01*
X32954982Y-107538261D01*
X31451989Y-112383518D01*
X31172216Y-113607077D01*
X30885893Y-115141011D01*
X30711178Y-116657486D01*
X30632848Y-118379467D01*
X30635679Y-120529915D01*
X30704446Y-123331794D01*
X30750452Y-124686161D01*
X30855802Y-127051852D01*
X30977709Y-129087248D01*
X31104514Y-130610556D01*
X31224554Y-131439986D01*
X31302550Y-131768896D01*
X31254750Y-132509700D01*
X30616266Y-132892773D01*
X30261622Y-133043954D01*
X29901194Y-133470950D01*
X29736722Y-134321823D01*
X29697591Y-135821711D01*
X29700274Y-136252789D01*
X29793633Y-137692744D01*
X30072788Y-138586223D01*
X30608979Y-139197069D01*
X31117313Y-139675743D01*
X31280657Y-140278851D01*
X30946341Y-141237956D01*
X30925864Y-141284187D01*
X30451131Y-142240153D01*
X30100217Y-142759810D01*
X29905169Y-143047600D01*
X29545948Y-144146565D01*
X29199022Y-145858060D01*
X28902477Y-148014983D01*
X28792518Y-148951281D01*
X28670032Y-149679491D01*
X28572581Y-149638604D01*
X28469397Y-148890845D01*
X28449793Y-148656525D01*
X28538354Y-146822850D01*
X28938221Y-144740826D01*
X29558353Y-142784914D01*
X30307711Y-141329573D01*
X31186391Y-140118301D01*
X30223025Y-139443534D01*
X29842550Y-139128229D01*
X29473698Y-138515288D01*
X29301913Y-137524422D01*
X29259660Y-135907761D01*
X29264816Y-135275225D01*
X29362100Y-133823019D01*
X29627512Y-132919019D01*
X30119412Y-132319663D01*
X30166791Y-132279401D01*
X30603225Y-131828404D01*
X30764793Y-131295376D01*
X30667175Y-130425756D01*
X30326051Y-128964983D01*
X30054468Y-127684797D01*
X29667228Y-123774496D01*
X29784116Y-119495473D01*
X30367906Y-115074617D01*
X31381370Y-110738819D01*
X32787284Y-106714968D01*
X34548422Y-103229956D01*
X35072277Y-102353464D01*
X35617269Y-101371926D01*
X35828625Y-100886628D01*
X35891487Y-100773405D01*
X36424761Y-100155917D01*
X37378294Y-99154481D01*
X38601951Y-97917775D01*
X39945594Y-96594477D01*
X41259085Y-95333263D01*
X42392288Y-94282812D01*
X43195066Y-93591802D01*
X44396228Y-92786337D01*
X46205885Y-91779156D01*
X48372756Y-90702800D01*
X50709292Y-89638959D01*
X53027950Y-88669325D01*
X55141183Y-87875588D01*
X56861446Y-87339439D01*
X58001192Y-87142569D01*
X58250670Y-87102519D01*
X58601039Y-86703134D01*
X58605021Y-86678862D01*
X58966390Y-86158660D01*
X59823326Y-85184540D01*
X61047372Y-83887516D01*
X62510070Y-82398601D01*
X64082960Y-80848810D01*
X65637586Y-79369157D01*
X67045488Y-78090657D01*
X67604069Y-77627744D01*
X68918118Y-76635251D01*
X70533030Y-75490978D01*
X72280471Y-74305900D01*
X73992111Y-73190992D01*
X75499619Y-72257231D01*
X76634661Y-71615593D01*
X77228908Y-71377052D01*
X77389704Y-71348923D01*
X78213759Y-70983379D01*
X79290339Y-70330243D01*
X80063541Y-69888713D01*
X81686469Y-69193118D01*
X83402313Y-68658441D01*
X84591614Y-68342467D01*
X85610477Y-67910820D01*
X86267504Y-67278409D01*
X86847591Y-66245719D01*
X87064635Y-65818724D01*
X87791253Y-64549127D01*
X88420392Y-63647694D01*
X88966075Y-62911194D01*
X89792676Y-61665412D01*
X90697726Y-60209810D01*
X91571030Y-58828747D01*
X92535941Y-57436356D01*
X93289297Y-56487397D01*
X93364336Y-56405610D01*
X94420198Y-55128278D01*
X95200707Y-53958597D01*
X95601075Y-53076543D01*
X95516511Y-52662094D01*
X95101323Y-52462151D01*
X94269819Y-51926749D01*
X93966878Y-51692701D01*
X93709090Y-51235301D01*
X94157480Y-50647704D01*
X94434843Y-50432236D01*
X95515945Y-49893865D01*
X96886728Y-49443195D01*
X97611930Y-49253560D01*
X98415182Y-48961743D01*
X98580312Y-48649793D01*
X98250757Y-48185447D01*
X97747808Y-47527830D01*
X97543334Y-46673587D01*
X98145405Y-46153011D01*
X99547591Y-45977052D01*
X100103093Y-45975775D01*
X101237888Y-45964106D01*
X101835780Y-45944207D01*
X101944556Y-45959135D01*
G37*
G36*
X96308913Y-116046975D02*
G01*
X96774027Y-116395154D01*
X97096284Y-116817987D01*
X98021965Y-117694842D01*
X99353758Y-118812443D01*
X100910774Y-120030297D01*
X102512123Y-121207916D01*
X103976914Y-122204807D01*
X105124258Y-122880480D01*
X106143379Y-123411228D01*
X107166889Y-123988775D01*
X107649315Y-124322955D01*
X108212089Y-124653828D01*
X109424717Y-125125959D01*
X111066082Y-125665321D01*
X112920718Y-126205500D01*
X114773158Y-126680083D01*
X116407935Y-127022655D01*
X117730641Y-127194607D01*
X119972896Y-127314121D01*
X121981616Y-127246328D01*
X122641099Y-127167049D01*
X124609042Y-126818822D01*
X126662599Y-126328432D01*
X128563811Y-125763818D01*
X130074718Y-125192919D01*
X130957362Y-124683675D01*
X131059025Y-124595343D01*
X131917186Y-123990454D01*
X133057335Y-123309842D01*
X133355910Y-123139865D01*
X134791222Y-122226741D01*
X136177852Y-121229669D01*
X136734289Y-120804252D01*
X137689193Y-120160616D01*
X138171307Y-120037669D01*
X138304487Y-120386293D01*
X138324316Y-120492097D01*
X138604417Y-121261408D01*
X139146432Y-122538202D01*
X139861599Y-124110196D01*
X141101418Y-126988861D01*
X142095605Y-130075731D01*
X142651724Y-133128931D01*
X142850521Y-136482706D01*
X142860430Y-137869463D01*
X142816582Y-139346542D01*
X142665424Y-140313824D01*
X142365201Y-140989856D01*
X141874161Y-141593183D01*
X140807711Y-142498418D01*
X139575023Y-143215659D01*
X139534685Y-143232531D01*
X138664464Y-143691944D01*
X138304487Y-144067632D01*
X138303100Y-144080405D01*
X137865878Y-144403142D01*
X136774231Y-144872070D01*
X135213139Y-145425601D01*
X133367582Y-146002150D01*
X131422539Y-146540133D01*
X129562989Y-146977961D01*
X127287537Y-147399271D01*
X125355299Y-147567308D01*
X124068300Y-147353430D01*
X123331248Y-146713196D01*
X123048847Y-145602164D01*
X123125806Y-143975893D01*
X123188990Y-143056893D01*
X123132149Y-140937555D01*
X122880155Y-138514016D01*
X122474575Y-136022271D01*
X121956971Y-133698315D01*
X121368911Y-131778140D01*
X120751957Y-130497741D01*
X120656221Y-130363908D01*
X120416238Y-130152034D01*
X120512516Y-130716707D01*
X120622054Y-131341526D01*
X120804079Y-132695944D01*
X121019900Y-134522533D01*
X121242914Y-136606773D01*
X121419894Y-138660255D01*
X121516475Y-142100581D01*
X121271862Y-144796002D01*
X120675505Y-146791780D01*
X119716853Y-148133176D01*
X118385355Y-148865453D01*
X117330933Y-149092526D01*
X114903364Y-149279406D01*
X112023923Y-149191424D01*
X108930276Y-148849877D01*
X105860092Y-148276064D01*
X103051039Y-147491284D01*
X100926909Y-146760306D01*
X98163478Y-145769699D01*
X96153809Y-144991234D01*
X94926808Y-144436336D01*
X94511384Y-144116428D01*
X94497996Y-144066428D01*
X94025924Y-143645688D01*
X93088108Y-143118792D01*
X92040531Y-142497628D01*
X90493028Y-141308916D01*
X88809653Y-139798370D01*
X87126706Y-138111239D01*
X85580486Y-136392768D01*
X84307291Y-134788206D01*
X83443422Y-133442799D01*
X83125177Y-132501795D01*
X83176338Y-132164110D01*
X83556121Y-131072687D01*
X84172646Y-129734186D01*
X84865698Y-128479983D01*
X85475064Y-127641455D01*
X85488232Y-127628022D01*
X86094897Y-126916111D01*
X86847591Y-125928037D01*
X87772515Y-124738750D01*
X89054111Y-123228435D01*
X90524861Y-121586530D01*
X92058107Y-119945688D01*
X93527192Y-118438562D01*
X94805459Y-117197806D01*
X95766251Y-116356073D01*
X96282912Y-116046017D01*
X96308913Y-116046975D01*
G37*
G36*
X147711972Y-91655910D02*
G01*
X148735231Y-92057862D01*
X150162603Y-92762195D01*
X151880349Y-93725151D01*
X152194325Y-93913097D01*
X155581270Y-96269846D01*
X158599721Y-98960944D01*
X160999286Y-101765614D01*
X161922843Y-103140631D01*
X163212903Y-105346244D01*
X164353594Y-107604775D01*
X165220593Y-109664229D01*
X165689578Y-111272612D01*
X165789269Y-112009442D01*
X165682139Y-112747284D01*
X165158404Y-113429733D01*
X164069368Y-114338130D01*
X163909547Y-114464427D01*
X161952975Y-116146018D01*
X160130905Y-117937179D01*
X158637941Y-119634333D01*
X157668687Y-121033906D01*
X157428473Y-121640349D01*
X157131804Y-123124111D01*
X156961100Y-125049101D01*
X156907410Y-127250895D01*
X156961786Y-129565066D01*
X157115277Y-131827189D01*
X157358932Y-133872841D01*
X157683802Y-135537594D01*
X158080937Y-136657024D01*
X158541387Y-137066707D01*
X158650948Y-136958765D01*
X158781006Y-136103869D01*
X158791705Y-134416715D01*
X158682395Y-131921017D01*
X158594360Y-129958423D01*
X158618788Y-126978973D01*
X158899400Y-124618153D01*
X159458624Y-122728528D01*
X160318886Y-121162661D01*
X160970297Y-120314632D01*
X162535772Y-118559101D01*
X164517160Y-116562885D01*
X166731242Y-114500424D01*
X168994798Y-112546163D01*
X171124609Y-110874544D01*
X171447962Y-110632593D01*
X172612826Y-109703455D01*
X173477445Y-108933421D01*
X173660086Y-108761800D01*
X174673694Y-107952699D01*
X175892495Y-107115184D01*
X176302787Y-106850025D01*
X177726647Y-105742358D01*
X178481896Y-104696227D01*
X178703625Y-103539815D01*
X178703625Y-102422517D01*
X179562540Y-103344454D01*
X179903081Y-103686903D01*
X180506458Y-104002763D01*
X181107661Y-103696891D01*
X181750250Y-102924013D01*
X182366518Y-101813428D01*
X182425267Y-101678727D01*
X182785154Y-100908837D01*
X182924288Y-100901705D01*
X182956311Y-101620074D01*
X183095870Y-102472389D01*
X183603272Y-103590764D01*
X183993231Y-104080797D01*
X184372841Y-104169952D01*
X184903138Y-103564983D01*
X185320248Y-102864258D01*
X185587111Y-101948587D01*
X185680742Y-101271932D01*
X185988990Y-100931583D01*
X186321407Y-101275853D01*
X186476901Y-102239089D01*
X186554919Y-103102134D01*
X186995386Y-103956768D01*
X187742166Y-104032084D01*
X188700948Y-103283782D01*
X188810715Y-103160850D01*
X189275647Y-102712700D01*
X189302422Y-102844799D01*
X188919805Y-103943907D01*
X188549186Y-105973367D01*
X188276419Y-108696353D01*
X188108194Y-112016106D01*
X188051203Y-115835866D01*
X188112136Y-120058874D01*
X188140035Y-121111122D01*
X188201042Y-124338536D01*
X188199522Y-126841637D01*
X188132043Y-128737249D01*
X187995171Y-130142193D01*
X187785471Y-131173292D01*
X187579742Y-131796258D01*
X186741721Y-133620641D01*
X185606591Y-135542631D01*
X184368153Y-137253548D01*
X183220209Y-138444708D01*
X183166524Y-138487688D01*
X182175017Y-139305710D01*
X181070147Y-140246548D01*
X180839835Y-140436891D01*
X179456122Y-141387939D01*
X177663213Y-142420457D01*
X175690204Y-143423279D01*
X173766191Y-144285239D01*
X172120271Y-144895171D01*
X170981540Y-145141909D01*
X169658464Y-145423609D01*
X168511464Y-146395807D01*
X168104094Y-146881857D01*
X167498289Y-147327918D01*
X166673187Y-147438754D01*
X165307203Y-147305681D01*
X164293033Y-147164648D01*
X162722528Y-146839377D01*
X161733273Y-146374993D01*
X161126461Y-145652653D01*
X160703286Y-144553510D01*
X160398738Y-143768739D01*
X159810133Y-142947965D01*
X159225623Y-142740964D01*
X158796482Y-143251066D01*
X158542880Y-143403495D01*
X157575444Y-143473951D01*
X156064283Y-143382948D01*
X154193063Y-143154348D01*
X152145447Y-142812014D01*
X150105102Y-142379806D01*
X148255690Y-141881588D01*
X145530349Y-141039106D01*
X145501616Y-136315838D01*
X145489670Y-135058664D01*
X145427186Y-133294383D01*
X145262010Y-131871474D01*
X144935840Y-130502372D01*
X144390372Y-128899512D01*
X143567303Y-126775328D01*
X142869771Y-125055391D01*
X141999283Y-123011611D01*
X141218568Y-121282283D01*
X140638536Y-120119460D01*
X140115770Y-119091272D01*
X139923062Y-118332930D01*
X140176035Y-117929805D01*
X140524812Y-117626575D01*
X141318003Y-116758700D01*
X142251375Y-115608086D01*
X142885901Y-114792873D01*
X143734575Y-113735445D01*
X144276844Y-113101598D01*
X144731624Y-112554390D01*
X145760731Y-111030599D01*
X147017227Y-108902383D01*
X148426935Y-106298077D01*
X149915674Y-103346017D01*
X150118653Y-102929872D01*
X151415618Y-100256563D01*
X152341301Y-98253520D01*
X152902052Y-96815319D01*
X153104221Y-95836533D01*
X152954158Y-95211737D01*
X152458213Y-94835505D01*
X151622734Y-94602412D01*
X150454074Y-94407032D01*
X149039225Y-94123697D01*
X148189834Y-93763685D01*
X147938970Y-93290308D01*
X147872483Y-92878879D01*
X147391556Y-91998175D01*
X147332748Y-91934182D01*
X147206565Y-91600097D01*
X147711972Y-91655910D01*
G37*
G36*
X175809147Y-74673853D02*
G01*
X176907177Y-75482755D01*
X178303532Y-76764465D01*
X179876423Y-78391865D01*
X181504062Y-80237841D01*
X183064659Y-82175275D01*
X184436425Y-84077052D01*
X185084553Y-85038250D01*
X186263485Y-86768886D01*
X187292634Y-88258602D01*
X188004130Y-89263370D01*
X189052612Y-90971382D01*
X190006123Y-93218373D01*
X190545987Y-95414656D01*
X190578058Y-97267465D01*
X190296333Y-99029272D01*
X191890065Y-98730286D01*
X192137163Y-98688385D01*
X193104159Y-98640678D01*
X193483797Y-98840362D01*
X193483357Y-98851757D01*
X193287822Y-99456611D01*
X192804960Y-100596399D01*
X192134860Y-102034144D01*
X191668357Y-103085507D01*
X191042013Y-104964493D01*
X190600174Y-107097408D01*
X190331780Y-109606720D01*
X190225772Y-112614900D01*
X190271091Y-116244420D01*
X190456676Y-120617749D01*
X190574245Y-123201951D01*
X190656889Y-125853954D01*
X190691247Y-128186692D01*
X190674721Y-130015231D01*
X190604712Y-131154638D01*
X190449058Y-132034875D01*
X189403083Y-134977088D01*
X187631092Y-137853069D01*
X185245367Y-140549119D01*
X182358192Y-142951540D01*
X179081850Y-144946634D01*
X175528625Y-146420703D01*
X175358210Y-146473686D01*
X174576319Y-146639944D01*
X174453988Y-146527643D01*
X175090694Y-146189339D01*
X176028801Y-145799006D01*
X177809910Y-145027003D01*
X179185107Y-144359010D01*
X180444672Y-143647786D01*
X181878883Y-142746089D01*
X184063883Y-141096923D01*
X186849625Y-138209192D01*
X189090517Y-134883463D01*
X189176148Y-134726320D01*
X189537647Y-134017101D01*
X189794118Y-133332209D01*
X189958916Y-132521670D01*
X190045393Y-131435512D01*
X190066904Y-129923763D01*
X190036802Y-127836451D01*
X189968440Y-125023603D01*
X189889873Y-121662834D01*
X189818372Y-117132796D01*
X189809250Y-113374534D01*
X189863907Y-110326029D01*
X189983741Y-107925264D01*
X190170154Y-106110219D01*
X190424546Y-104818879D01*
X190644659Y-104062452D01*
X191009649Y-102986701D01*
X191261722Y-102470155D01*
X191339309Y-102376384D01*
X191746225Y-101675591D01*
X192282099Y-100588614D01*
X193051089Y-98926039D01*
X189844443Y-99527609D01*
X190124217Y-97486439D01*
X190195486Y-95830087D01*
X189677631Y-93593057D01*
X189630320Y-93475985D01*
X189046791Y-92267853D01*
X188217598Y-90789335D01*
X187274731Y-89248847D01*
X186350182Y-87854801D01*
X185575942Y-86815613D01*
X185084001Y-86339695D01*
X184968905Y-86264325D01*
X184725177Y-85655893D01*
X184538177Y-85103399D01*
X183946373Y-84269111D01*
X183634390Y-83890257D01*
X182839560Y-82762306D01*
X182011972Y-81433405D01*
X181571211Y-80744316D01*
X180647777Y-79593215D01*
X179833529Y-78899245D01*
X178951957Y-78202772D01*
X178117203Y-77143516D01*
X178063259Y-77054378D01*
X177135471Y-76027383D01*
X175928761Y-75198855D01*
X175562571Y-75008456D01*
X175006356Y-74604945D01*
X175215239Y-74452541D01*
X175809147Y-74673853D01*
G37*
G36*
X135161318Y-85293325D02*
G01*
X135036733Y-85416459D01*
X134823598Y-85678414D01*
X134899605Y-85898698D01*
X135399847Y-86158011D01*
X136459418Y-86537053D01*
X138213414Y-87116524D01*
X138637202Y-87259113D01*
X140580931Y-88054225D01*
X140755719Y-88164408D01*
X142158741Y-89048845D01*
X143797035Y-90501471D01*
X144013826Y-90714928D01*
X145116878Y-91863424D01*
X145893553Y-92776754D01*
X146187246Y-93273309D01*
X146187753Y-93317035D01*
X146296728Y-94038434D01*
X146288639Y-94096988D01*
X145797570Y-94238743D01*
X144784161Y-94225586D01*
X144718916Y-94220348D01*
X143305366Y-94212348D01*
X141395347Y-94338256D01*
X139140843Y-94573363D01*
X136693838Y-94892961D01*
X134206314Y-95272343D01*
X131830256Y-95686800D01*
X129717647Y-96111625D01*
X128020471Y-96522110D01*
X126890710Y-96893546D01*
X126480349Y-97201227D01*
X126149058Y-97501823D01*
X125276039Y-97766349D01*
X125246148Y-97771741D01*
X124169019Y-98019582D01*
X122476557Y-98466022D01*
X120380109Y-99050954D01*
X118091026Y-99714273D01*
X115820656Y-100395871D01*
X113780349Y-101035644D01*
X112657448Y-101329552D01*
X110478839Y-101679545D01*
X108306211Y-101813259D01*
X108187438Y-101813177D01*
X106506535Y-101763732D01*
X105291526Y-101543329D01*
X104155927Y-101035116D01*
X102713257Y-100122239D01*
X100858072Y-98725950D01*
X99554871Y-97407159D01*
X98890631Y-96270951D01*
X98909862Y-95394061D01*
X99657073Y-94853225D01*
X99802656Y-94783936D01*
X99478265Y-94732262D01*
X98509219Y-94786555D01*
X98029430Y-94843645D01*
X96819932Y-95121192D01*
X96100598Y-95485239D01*
X95960845Y-95653702D01*
X96033116Y-95854049D01*
X96827592Y-95726137D01*
X97597045Y-95622147D01*
X98159843Y-95929750D01*
X98653649Y-96885198D01*
X98796828Y-97195099D01*
X100019737Y-98893215D01*
X101797395Y-100461140D01*
X103864075Y-101698033D01*
X105954053Y-102403051D01*
X106493117Y-102486761D01*
X109017137Y-102605288D01*
X111966869Y-102411763D01*
X115041619Y-101936154D01*
X117940694Y-101208428D01*
X121157878Y-100211407D01*
X124832544Y-99093881D01*
X127894486Y-98202831D01*
X130469706Y-97512565D01*
X132684208Y-96997392D01*
X134663993Y-96631620D01*
X136535063Y-96389560D01*
X138423421Y-96245519D01*
X140455070Y-96173806D01*
X142756012Y-96148731D01*
X144149004Y-96149391D01*
X146357186Y-96179322D01*
X148161296Y-96240465D01*
X149404099Y-96326621D01*
X149928365Y-96431588D01*
X149979972Y-96626600D01*
X149878771Y-97469909D01*
X149585194Y-98681826D01*
X149185437Y-99968857D01*
X148765692Y-101037511D01*
X148412156Y-101594293D01*
X148203048Y-101861795D01*
X147695229Y-102752059D01*
X147075529Y-104002914D01*
X145613609Y-106707884D01*
X143552316Y-109789448D01*
X141134799Y-112872900D01*
X138505270Y-115798609D01*
X135807941Y-118406948D01*
X133187026Y-120538288D01*
X130786736Y-122032997D01*
X130670472Y-122090458D01*
X128989063Y-122826763D01*
X126863672Y-123641765D01*
X124663547Y-124400485D01*
X122757935Y-124967944D01*
X121872865Y-125080495D01*
X120254720Y-125101555D01*
X118303104Y-125016950D01*
X116307515Y-124846406D01*
X114557454Y-124609650D01*
X113342418Y-124326405D01*
X113310648Y-124315206D01*
X110651245Y-123349368D01*
X108600345Y-122522888D01*
X106929218Y-121726926D01*
X105409130Y-120852644D01*
X103811350Y-119791204D01*
X101991255Y-118449047D01*
X97839865Y-114841834D01*
X93551896Y-110378870D01*
X92523399Y-109098731D01*
X91778730Y-107790351D01*
X91303912Y-106306636D01*
X91061845Y-104474569D01*
X91015428Y-102121134D01*
X91127559Y-99073314D01*
X91169354Y-98337029D01*
X91426328Y-95536521D01*
X91825745Y-93421411D01*
X92404789Y-91840477D01*
X93200646Y-90642494D01*
X93812796Y-89835985D01*
X94073453Y-89287587D01*
X94075753Y-89272320D01*
X94494059Y-88903676D01*
X95493845Y-88306679D01*
X95514518Y-88296130D01*
X120864710Y-88296130D01*
X121225177Y-88456362D01*
X121457016Y-88424757D01*
X121517131Y-88164408D01*
X121452944Y-88111996D01*
X120933223Y-88164408D01*
X120864710Y-88296130D01*
X95514518Y-88296130D01*
X96873131Y-87602870D01*
X97725926Y-87210510D01*
X99336450Y-86619919D01*
X100916830Y-86338446D01*
X102916580Y-86266707D01*
X104479942Y-86317140D01*
X105973734Y-86507358D01*
X106783729Y-86814121D01*
X106846346Y-86867803D01*
X107012174Y-86931924D01*
X106736347Y-86514778D01*
X106141155Y-85770351D01*
X105348889Y-84852631D01*
X104481839Y-83915605D01*
X104385490Y-83813981D01*
X103515931Y-82505414D01*
X103270004Y-80934530D01*
X103355084Y-79615385D01*
X103588210Y-78111653D01*
X103688930Y-77679219D01*
X107280190Y-77679219D01*
X107384731Y-78265342D01*
X107534225Y-78258561D01*
X107614741Y-77690557D01*
X107544613Y-77260094D01*
X107350158Y-77425974D01*
X107280190Y-77679219D01*
X103688930Y-77679219D01*
X103910703Y-76727056D01*
X104263693Y-75712386D01*
X104588311Y-75318431D01*
X104856131Y-75097987D01*
X105174790Y-74330272D01*
X105238464Y-74129727D01*
X105784203Y-73068292D01*
X106599574Y-71921651D01*
X106899918Y-71586720D01*
X108000608Y-70797610D01*
X109378380Y-70498496D01*
X111191576Y-70675662D01*
X113598540Y-71315393D01*
X114644882Y-71626442D01*
X116817403Y-72203253D01*
X118816556Y-72661853D01*
X119969376Y-72906134D01*
X121695082Y-73304568D01*
X123022906Y-73648519D01*
X123587663Y-73782278D01*
X125439694Y-73915864D01*
X127807638Y-73689479D01*
X130828244Y-73093397D01*
X133205450Y-72543912D01*
X134441175Y-74024112D01*
X134566939Y-74176801D01*
X135431186Y-75489069D01*
X135601437Y-76542822D01*
X135115559Y-77535225D01*
X134998255Y-77680639D01*
X134031001Y-78460037D01*
X133165064Y-78371367D01*
X132411685Y-77415130D01*
X132216163Y-76998613D01*
X131951901Y-76054853D01*
X132254937Y-75761859D01*
X133116882Y-76134857D01*
X133379784Y-76294300D01*
X133845696Y-76472869D01*
X133825486Y-76118280D01*
X133810432Y-76082635D01*
X133502481Y-75866519D01*
X132767357Y-75725633D01*
X131493208Y-75652991D01*
X129568181Y-75641608D01*
X126880421Y-75684497D01*
X126750941Y-75687288D01*
X123758952Y-75722878D01*
X121375219Y-75662024D01*
X119343939Y-75469594D01*
X117409310Y-75110453D01*
X115315530Y-74549466D01*
X112806794Y-73751500D01*
X111733973Y-73414375D01*
X110871949Y-73298491D01*
X110151454Y-73557919D01*
X109193863Y-74244302D01*
X108785498Y-74576661D01*
X107972527Y-75403804D01*
X107649315Y-76007399D01*
X107657580Y-76083127D01*
X107989392Y-76116899D01*
X108724236Y-75517491D01*
X109438415Y-74903136D01*
X110163296Y-74494276D01*
X110562075Y-74504390D01*
X110449906Y-74989983D01*
X109995852Y-75709285D01*
X109329233Y-76699828D01*
X108832254Y-77690557D01*
X108775005Y-77804684D01*
X108525177Y-78957581D01*
X108808194Y-80372602D01*
X109558950Y-81938163D01*
X110578046Y-83292488D01*
X111665851Y-84108183D01*
X113002351Y-84421757D01*
X114841250Y-84393680D01*
X116599855Y-83981062D01*
X117903319Y-83236301D01*
X118157786Y-82969604D01*
X119079613Y-81426067D01*
X119610743Y-79570195D01*
X119613547Y-77836534D01*
X119371347Y-76632224D01*
X125423362Y-76632224D01*
X125842373Y-78055500D01*
X125854010Y-78094339D01*
X126566782Y-79352188D01*
X127938488Y-80297878D01*
X128322580Y-80495066D01*
X129160911Y-81100586D01*
X129169572Y-81563001D01*
X129047529Y-81648389D01*
X128201401Y-81637423D01*
X126730861Y-81072347D01*
X126437908Y-80936657D01*
X124765331Y-80310224D01*
X123495280Y-80248909D01*
X122360657Y-80796524D01*
X121094361Y-81996879D01*
X120691374Y-82448089D01*
X119387562Y-84189660D01*
X118628720Y-85716387D01*
X118435622Y-86929362D01*
X118829039Y-87729679D01*
X119829742Y-88018431D01*
X120009106Y-88014516D01*
X120242758Y-87886229D01*
X119751559Y-87458933D01*
X119396338Y-87106692D01*
X119290099Y-86585136D01*
X119562073Y-85804187D01*
X119851021Y-85318043D01*
X121717184Y-85318043D01*
X121752159Y-86265374D01*
X122355822Y-86876750D01*
X122714041Y-87008017D01*
X123122201Y-87125428D01*
X123843496Y-86873096D01*
X124851302Y-86364971D01*
X125691185Y-85815206D01*
X126042418Y-85411985D01*
X126116704Y-85200566D01*
X126699315Y-84952914D01*
X127001506Y-85002321D01*
X127356211Y-85390845D01*
X127619491Y-85720948D01*
X128376889Y-85817018D01*
X129278723Y-85631435D01*
X129967521Y-85191491D01*
X130505521Y-84798993D01*
X131276926Y-85041640D01*
X131383254Y-85102232D01*
X132303880Y-85304157D01*
X133129340Y-85090185D01*
X133487246Y-84544135D01*
X133305489Y-84181324D01*
X132613186Y-83640085D01*
X132216838Y-83474794D01*
X131442240Y-83527854D01*
X130411305Y-84154004D01*
X129936232Y-84508925D01*
X129434050Y-84811078D01*
X128909126Y-84889947D01*
X128162746Y-84722826D01*
X126996194Y-84287010D01*
X125210756Y-83559793D01*
X124781992Y-83400289D01*
X123810532Y-83303410D01*
X122802135Y-83788854D01*
X122208731Y-84326487D01*
X121717184Y-85318043D01*
X119851021Y-85318043D01*
X120265821Y-84620158D01*
X121454904Y-82889361D01*
X121700398Y-82547773D01*
X122530070Y-81581838D01*
X123326681Y-81140587D01*
X124400177Y-81028154D01*
X124696694Y-81031651D01*
X125655678Y-81156567D01*
X126042418Y-81406625D01*
X126383309Y-81798492D01*
X127246728Y-82215491D01*
X127254981Y-82218308D01*
X128357278Y-82376584D01*
X129536490Y-82248251D01*
X130476117Y-81903613D01*
X130859660Y-81412971D01*
X130978616Y-81066876D01*
X131559234Y-81086094D01*
X132542062Y-81709452D01*
X133836631Y-82892003D01*
X134029192Y-83089807D01*
X134968093Y-84156304D01*
X135166302Y-84544135D01*
X135318401Y-84841745D01*
X135161318Y-85293325D01*
G37*
G36*
X159729959Y-96321380D02*
G01*
X160299559Y-96696747D01*
X160638970Y-97125383D01*
X160641663Y-97151766D01*
X160955267Y-97704763D01*
X161631468Y-98533251D01*
X162219276Y-99221099D01*
X163141062Y-100386809D01*
X164119879Y-101689119D01*
X165005289Y-102922413D01*
X165646856Y-103881073D01*
X165894142Y-104359480D01*
X165896181Y-104377138D01*
X166101140Y-104934303D01*
X166576268Y-106041737D01*
X167227989Y-107480483D01*
X167319893Y-107678478D01*
X168008932Y-109082592D01*
X168502482Y-109830630D01*
X168924487Y-110061545D01*
X169398889Y-109914288D01*
X169921965Y-109566395D01*
X170583146Y-108878716D01*
X171086007Y-108349849D01*
X172025177Y-107726483D01*
X172364613Y-107645871D01*
X172064890Y-108069945D01*
X171149315Y-108958384D01*
X170222330Y-109769974D01*
X169310308Y-110489027D01*
X168818896Y-110772884D01*
X168800943Y-110773227D01*
X168172761Y-110459119D01*
X167513347Y-109786531D01*
X167207935Y-109144794D01*
X167093215Y-108682043D01*
X166721171Y-107612985D01*
X166180859Y-106225480D01*
X166167965Y-106194053D01*
X165558809Y-104968901D01*
X164659993Y-103456283D01*
X163594243Y-101829677D01*
X162484280Y-100262559D01*
X161452829Y-98928408D01*
X160622614Y-98000700D01*
X160116356Y-97652914D01*
X159806367Y-97451117D01*
X159307436Y-96743903D01*
X159095280Y-96326089D01*
X159096573Y-96038447D01*
X159729959Y-96321380D01*
G37*
G36*
X174036710Y-74995744D02*
G01*
X173724045Y-75259231D01*
X172806171Y-75760524D01*
X171472666Y-76395603D01*
X170875717Y-76664816D01*
X169242683Y-77390512D01*
X167969869Y-77919514D01*
X166757510Y-78363985D01*
X165305843Y-78836093D01*
X163315103Y-79448003D01*
X161252718Y-80109027D01*
X159819166Y-80677890D01*
X158966110Y-81215204D01*
X158555506Y-81808882D01*
X158449315Y-82546839D01*
X158305175Y-83194013D01*
X157524167Y-83778899D01*
X157324946Y-83837671D01*
X156936699Y-84083348D01*
X156742315Y-84609695D01*
X156699096Y-85614284D01*
X156764342Y-87294689D01*
X156891004Y-88897880D01*
X157254530Y-90537817D01*
X157955587Y-91611670D01*
X159128315Y-92296751D01*
X160906857Y-92770372D01*
X161477348Y-92893364D01*
X162842728Y-93339939D01*
X163945769Y-94069418D01*
X165160601Y-95304702D01*
X165195227Y-95343371D01*
X167230778Y-97238902D01*
X169442184Y-98491999D01*
X172031349Y-99185029D01*
X175200177Y-99400360D01*
X175316824Y-99400549D01*
X177168723Y-99432482D01*
X178304575Y-99535922D01*
X178875363Y-99736923D01*
X179032073Y-100061534D01*
X178805941Y-100497969D01*
X177890392Y-100718431D01*
X177790919Y-100719296D01*
X177047435Y-100878358D01*
X177014530Y-101375328D01*
X177132665Y-101667056D01*
X177525286Y-102634702D01*
X177436350Y-103107265D01*
X176801029Y-104056713D01*
X175693722Y-105255436D01*
X174631429Y-106240570D01*
X173815984Y-106906880D01*
X173439151Y-107095623D01*
X173538051Y-106862328D01*
X174129622Y-106187265D01*
X175093536Y-105262041D01*
X175891956Y-104514747D01*
X176544844Y-103717366D01*
X176755516Y-102968226D01*
X176664723Y-101972653D01*
X176634234Y-101778455D01*
X176556344Y-100797604D01*
X176832139Y-100350990D01*
X177608282Y-100156289D01*
X177787257Y-100108394D01*
X177491012Y-100025135D01*
X176510563Y-99954551D01*
X174968723Y-99908185D01*
X174807184Y-99905283D01*
X172799819Y-99822513D01*
X171317587Y-99618043D01*
X170033038Y-99222735D01*
X168618723Y-98567451D01*
X167499144Y-97910733D01*
X165881546Y-96707932D01*
X164648987Y-95501934D01*
X164552129Y-95384900D01*
X163243908Y-94128115D01*
X162124941Y-93711534D01*
X161356778Y-93636580D01*
X160304579Y-93320725D01*
X159545046Y-92963361D01*
X158392351Y-92478181D01*
X158245857Y-92410762D01*
X157320678Y-91515117D01*
X156548096Y-90004792D01*
X156018362Y-88105695D01*
X155821728Y-86043730D01*
X155872109Y-85063809D01*
X156184809Y-84205395D01*
X156916556Y-83639121D01*
X157660879Y-83057020D01*
X158018090Y-82360809D01*
X158048305Y-82052537D01*
X158386849Y-81097612D01*
X158743809Y-80839679D01*
X159796414Y-80324719D01*
X161345101Y-79667571D01*
X163201872Y-78941237D01*
X165178727Y-78218718D01*
X167087667Y-77573015D01*
X168740694Y-77077132D01*
X169134312Y-76956250D01*
X170507407Y-76430699D01*
X171958015Y-75769981D01*
X172613424Y-75457904D01*
X173578959Y-75068461D01*
X174033090Y-74990712D01*
X174036710Y-74995744D01*
G37*
G36*
X162281211Y-88892724D02*
G01*
X161731922Y-89444775D01*
X161246560Y-89999133D01*
X161332499Y-90137221D01*
X161952763Y-89981628D01*
X162705761Y-89673824D01*
X163193568Y-89274336D01*
X163483282Y-89001616D01*
X164334108Y-88902808D01*
X165365804Y-89141279D01*
X166222591Y-89670498D01*
X166653847Y-90128755D01*
X167591789Y-91176453D01*
X168646002Y-92394191D01*
X169392426Y-93244632D01*
X170100495Y-93888484D01*
X170631730Y-94031644D01*
X171191829Y-93786616D01*
X171324952Y-93706768D01*
X171940763Y-93511954D01*
X172606606Y-93768449D01*
X173600897Y-94566372D01*
X174045638Y-94929460D01*
X175130528Y-95625017D01*
X175945977Y-95901190D01*
X176406393Y-95933632D01*
X177535338Y-96194577D01*
X177974653Y-96298962D01*
X178013224Y-96024125D01*
X177536929Y-95646305D01*
X176574689Y-95271186D01*
X176001781Y-95094564D01*
X174806746Y-94335759D01*
X173840499Y-92954506D01*
X173694060Y-92661575D01*
X173609349Y-92005791D01*
X174209265Y-91524859D01*
X174792378Y-91077301D01*
X175041969Y-90225600D01*
X174438031Y-89335737D01*
X174087316Y-88859780D01*
X174062432Y-87690162D01*
X174339496Y-86586249D01*
X172997013Y-87578789D01*
X171877783Y-88204096D01*
X170583093Y-88366512D01*
X169511656Y-88161693D01*
X170439968Y-89732304D01*
X171368280Y-91302914D01*
X171506851Y-90098603D01*
X171507873Y-90089834D01*
X171893745Y-89132461D01*
X172638266Y-88928385D01*
X173589216Y-89519909D01*
X174057940Y-90061051D01*
X174086368Y-90500417D01*
X173562571Y-91013710D01*
X172386930Y-91788934D01*
X171544192Y-92308868D01*
X170806029Y-92655615D01*
X170364528Y-92581904D01*
X169964813Y-92122875D01*
X169801343Y-91907659D01*
X169002687Y-90952657D01*
X168025326Y-89869676D01*
X167478506Y-89241349D01*
X166940140Y-88270755D01*
X166952338Y-87351573D01*
X167285582Y-86639989D01*
X167851415Y-86266707D01*
X168139198Y-86217029D01*
X168828416Y-85704358D01*
X169182122Y-85336517D01*
X170123264Y-84598257D01*
X171368280Y-83754380D01*
X172300090Y-83129718D01*
X173527953Y-82201399D01*
X174320028Y-81470178D01*
X174333356Y-81454648D01*
X175418686Y-80744140D01*
X176701189Y-80620061D01*
X177796482Y-81121017D01*
X178060703Y-81353376D01*
X178975887Y-82090304D01*
X180126901Y-82966350D01*
X180567769Y-83295491D01*
X181965940Y-84399425D01*
X182736995Y-85144807D01*
X182973453Y-85617815D01*
X183179037Y-85982591D01*
X183821360Y-86634441D01*
X183956724Y-86759839D01*
X184758780Y-87729188D01*
X185531903Y-88943777D01*
X186338017Y-90413759D01*
X187075662Y-91725514D01*
X187537911Y-92490001D01*
X187799608Y-92835672D01*
X188273759Y-93544918D01*
X188766942Y-95054182D01*
X189049245Y-96926951D01*
X189082482Y-98874712D01*
X188828465Y-100608948D01*
X188672393Y-101099090D01*
X188324347Y-101524338D01*
X187851902Y-101188425D01*
X187164423Y-100061534D01*
X186667732Y-99252601D01*
X185958462Y-98622509D01*
X185367184Y-98855881D01*
X184879991Y-99952052D01*
X184470171Y-101375328D01*
X183621603Y-99942254D01*
X182773035Y-98509181D01*
X182007120Y-99504323D01*
X181488958Y-100324526D01*
X181231466Y-101072725D01*
X181181869Y-101297877D01*
X180783797Y-101375328D01*
X180480861Y-100828078D01*
X180345866Y-99816724D01*
X180345866Y-98528776D01*
X176469837Y-98528776D01*
X176309550Y-98528390D01*
X173867424Y-98422476D01*
X171788033Y-98150254D01*
X170241411Y-97742911D01*
X169397591Y-97231633D01*
X169347496Y-97177384D01*
X168758858Y-96691376D01*
X167816796Y-96003507D01*
X167761918Y-95964456D01*
X166624834Y-94878578D01*
X165763446Y-93615985D01*
X165663480Y-93413528D01*
X165216563Y-92721274D01*
X164586922Y-92256768D01*
X163547215Y-91897729D01*
X161870102Y-91521879D01*
X158668280Y-90864983D01*
X158296714Y-88091152D01*
X158159324Y-86386245D01*
X158327356Y-85335030D01*
X159023579Y-85335030D01*
X159052865Y-86151807D01*
X159054621Y-86188433D01*
X159318680Y-87134008D01*
X160091556Y-87501476D01*
X160713408Y-87493302D01*
X161076901Y-87214026D01*
X160914101Y-87004847D01*
X160234219Y-87007002D01*
X160120094Y-87033586D01*
X159500686Y-86908804D01*
X159195528Y-86084724D01*
X159069482Y-85376702D01*
X159023579Y-85335030D01*
X158327356Y-85335030D01*
X158371616Y-85058137D01*
X159059097Y-84170282D01*
X160310522Y-83521271D01*
X160654304Y-83433584D01*
X161009686Y-83691054D01*
X161136539Y-84638210D01*
X161180302Y-85384406D01*
X161256758Y-85564855D01*
X161392587Y-84952914D01*
X161414388Y-84836452D01*
X161808444Y-83684495D01*
X162359232Y-83358654D01*
X163032022Y-83881623D01*
X163223176Y-84160791D01*
X163703755Y-85701426D01*
X163405048Y-87214026D01*
X163381901Y-87331238D01*
X162281211Y-88892724D01*
G37*
G36*
X103240830Y-44797136D02*
G01*
X103615196Y-44861967D01*
X105133629Y-45318404D01*
X107071000Y-46080535D01*
X109182684Y-47033735D01*
X111224053Y-48063381D01*
X112950484Y-49054849D01*
X114117349Y-49893515D01*
X114419104Y-50152848D01*
X115428259Y-50964627D01*
X116627257Y-51882856D01*
X119032109Y-53893855D01*
X121988466Y-56867685D01*
X124914697Y-60303454D01*
X127643020Y-64001990D01*
X130005652Y-67764121D01*
X130836690Y-69164527D01*
X131606606Y-70244724D01*
X132240600Y-70789099D01*
X132866123Y-70939121D01*
X133306646Y-70996615D01*
X134539061Y-71647451D01*
X135712838Y-72835723D01*
X136665035Y-74326182D01*
X137232711Y-75883576D01*
X137252924Y-77272654D01*
X137104418Y-77651383D01*
X136215775Y-78650582D01*
X134876441Y-79403402D01*
X133399511Y-79711669D01*
X132821974Y-79732994D01*
X132672453Y-79892363D01*
X133268280Y-80376249D01*
X133380003Y-80459603D01*
X134920104Y-81682889D01*
X136210984Y-82836946D01*
X137098529Y-83774617D01*
X137428625Y-84348746D01*
X137551525Y-84678497D01*
X138195004Y-85191888D01*
X139231483Y-85616806D01*
X141070318Y-86325947D01*
X143380605Y-87185750D01*
X145968280Y-88123037D01*
X146799629Y-88430309D01*
X149421858Y-89519575D01*
X151890734Y-90709947D01*
X153977277Y-91885372D01*
X155452504Y-92929800D01*
X156538933Y-93822125D01*
X157532676Y-94574591D01*
X158128793Y-95085424D01*
X158449315Y-95598865D01*
X158432392Y-95641063D01*
X158012954Y-95503430D01*
X157167217Y-94942046D01*
X156078239Y-94088241D01*
X154929081Y-93073348D01*
X154701203Y-92889759D01*
X153650430Y-92230146D01*
X152121134Y-91395432D01*
X150350794Y-90502842D01*
X148576886Y-89669601D01*
X147036889Y-89012933D01*
X145968280Y-88650064D01*
X145395981Y-88488232D01*
X143980805Y-87987570D01*
X142464832Y-87360765D01*
X141710737Y-87048039D01*
X139936483Y-86443273D01*
X138374695Y-86059155D01*
X137266085Y-85816087D01*
X136710300Y-85475759D01*
X136682001Y-84943935D01*
X136700394Y-84706327D01*
X136247599Y-83737034D01*
X135012864Y-82412409D01*
X134177849Y-81670071D01*
X133186826Y-80873125D01*
X132577160Y-80489207D01*
X132364991Y-80375961D01*
X132275693Y-79928371D01*
X132715739Y-79470074D01*
X133492485Y-79259810D01*
X133686966Y-79253167D01*
X134996540Y-78934893D01*
X136147129Y-78278882D01*
X136781001Y-77478870D01*
X136874416Y-76775748D01*
X136762223Y-75717681D01*
X136465217Y-74820883D01*
X136067357Y-74442569D01*
X135935629Y-74411982D01*
X135676901Y-73923380D01*
X135492791Y-73330086D01*
X134736711Y-72420925D01*
X133682764Y-71680231D01*
X132644529Y-71371856D01*
X132203831Y-71321655D01*
X131568369Y-70966130D01*
X130894255Y-70130625D01*
X130025909Y-68653644D01*
X129190757Y-67206386D01*
X128380137Y-65929521D01*
X127796817Y-65147999D01*
X127151422Y-64320272D01*
X126440912Y-63158453D01*
X125689918Y-61971020D01*
X124257570Y-60164948D01*
X122396407Y-58099153D01*
X120255835Y-55919277D01*
X117985259Y-53770960D01*
X115734086Y-51799846D01*
X113651722Y-50151574D01*
X111887571Y-48971787D01*
X109898716Y-47871073D01*
X107039272Y-46489794D01*
X104698029Y-45635720D01*
X102942951Y-45336471D01*
X102454827Y-45318496D01*
X101472910Y-45172140D01*
X101081744Y-44930707D01*
X101226169Y-44807991D01*
X102007675Y-44721232D01*
X103240830Y-44797136D01*
G37*
G36*
X177218033Y-79449826D02*
G01*
X175790519Y-79505294D01*
X174184456Y-80194587D01*
X172727177Y-81399627D01*
X172197172Y-81894221D01*
X171030426Y-82801572D01*
X169662693Y-83734422D01*
X169042578Y-84131025D01*
X167672890Y-85061986D01*
X166813294Y-85795945D01*
X166278593Y-86512009D01*
X165883590Y-87389289D01*
X165551740Y-88080804D01*
X165191444Y-88260484D01*
X164945614Y-87610877D01*
X164835227Y-86156642D01*
X164879216Y-85063128D01*
X165231439Y-84127308D01*
X166082742Y-83315073D01*
X166199366Y-83227259D01*
X167271148Y-82516216D01*
X168122457Y-82094092D01*
X168524655Y-81891708D01*
X169133152Y-81191084D01*
X169224856Y-80909543D01*
X169157557Y-80750545D01*
X168748911Y-80915187D01*
X167872556Y-81461625D01*
X166402133Y-82448016D01*
X165863023Y-82794729D01*
X164712319Y-83348822D01*
X164082709Y-83316653D01*
X164031468Y-83246830D01*
X164071143Y-82961385D01*
X164466140Y-82519767D01*
X165295485Y-81862884D01*
X166638201Y-80931645D01*
X168573313Y-79666962D01*
X169558091Y-79040845D01*
X171587246Y-79040845D01*
X171806211Y-79259810D01*
X172025177Y-79040845D01*
X171806211Y-78821879D01*
X171587246Y-79040845D01*
X169558091Y-79040845D01*
X171179846Y-78009741D01*
X171531090Y-77791980D01*
X173306820Y-76824859D01*
X174711212Y-76288116D01*
X175634410Y-76213366D01*
X175966556Y-76632224D01*
X175832110Y-76873260D01*
X175157702Y-77070155D01*
X174282008Y-77345122D01*
X173296495Y-78014297D01*
X172757804Y-78517909D01*
X172623344Y-78761566D01*
X173120004Y-78609257D01*
X174623347Y-78144188D01*
X176089184Y-78145081D01*
X177296796Y-78792516D01*
X177588319Y-79040845D01*
X178375177Y-79711116D01*
X177218033Y-79449826D01*
G37*
G36*
X117890568Y-81767950D02*
G01*
X116750925Y-82955640D01*
X115861599Y-83360824D01*
X114260930Y-83610181D01*
X112610177Y-83496008D01*
X111330716Y-83013783D01*
X111179924Y-82891198D01*
X110457811Y-81945865D01*
X109877725Y-80691032D01*
X109821891Y-80495356D01*
X111206562Y-80495356D01*
X111840940Y-81637150D01*
X112969749Y-82244816D01*
X114301583Y-82156854D01*
X115515014Y-81366889D01*
X115708697Y-81156790D01*
X116274181Y-80393736D01*
X116318343Y-79688435D01*
X115899710Y-78623520D01*
X115387715Y-77842265D01*
X114551518Y-77470197D01*
X113162132Y-77497179D01*
X112892469Y-77543200D01*
X111822237Y-78166645D01*
X111230297Y-79244609D01*
X111206562Y-80495356D01*
X109821891Y-80495356D01*
X109626147Y-79809350D01*
X109569024Y-78696115D01*
X109948461Y-77484473D01*
X110575415Y-76327486D01*
X111699168Y-75350648D01*
X113243875Y-75033223D01*
X115336911Y-75324141D01*
X115889251Y-75469194D01*
X117680829Y-76231582D01*
X118707761Y-77295834D01*
X119035522Y-78722104D01*
X118833805Y-79688435D01*
X118729025Y-80190385D01*
X117890568Y-81767950D01*
G37*
G36*
X165456211Y-80030728D02*
G01*
X165497931Y-80141801D01*
X165133622Y-80449134D01*
X164503382Y-80799988D01*
X163600864Y-81469437D01*
X163193903Y-81772088D01*
X162170698Y-82236500D01*
X161388577Y-82212795D01*
X161076901Y-81681683D01*
X161102001Y-81587155D01*
X161642193Y-81123639D01*
X162655361Y-80620256D01*
X163833854Y-80192989D01*
X164870021Y-79957819D01*
X165456211Y-80030728D01*
G37*
G36*
X130438554Y-76391386D02*
G01*
X131210004Y-76719810D01*
X131575286Y-77468964D01*
X131735522Y-78602914D01*
X131586926Y-79695154D01*
X131210004Y-80486017D01*
X131102918Y-80588463D01*
X130266291Y-81042020D01*
X129731140Y-80757483D01*
X129673088Y-79811885D01*
X129672872Y-78369468D01*
X129058338Y-77413815D01*
X127888217Y-77083472D01*
X127351887Y-77101710D01*
X127038743Y-77224602D01*
X127465694Y-77543164D01*
X127652000Y-77665925D01*
X128169724Y-78351360D01*
X128084741Y-78982683D01*
X127407264Y-79259810D01*
X126801449Y-78948293D01*
X126363454Y-78130790D01*
X126269160Y-77194659D01*
X126629845Y-76530563D01*
X126807849Y-76441578D01*
X127850943Y-76236299D01*
X129190022Y-76224892D01*
X130438554Y-76391386D01*
G37*
G36*
X113959013Y-78485017D02*
G01*
X114218280Y-79259810D01*
X114135750Y-79712017D01*
X113670866Y-80258967D01*
X113593725Y-80281854D01*
X112766082Y-80210965D01*
X111955829Y-79801801D01*
X111590694Y-79259810D01*
X111596385Y-79197137D01*
X112034646Y-78659982D01*
X112868716Y-78279338D01*
X113670866Y-78260654D01*
X113959013Y-78485017D01*
G37*
%TD*%
M02*
